<?xml version="1.0" encoding="utf-8"?>
<!-- Generator: Adobe Illustrator 16.0.0, SVG Export Plug-In . SVG Version: 6.00 Build 0)  -->
<!DOCTYPE svg PUBLIC "-//W3C//DTD SVG 1.1//EN" "http://www.w3.org/Graphics/SVG/1.1/DTD/svg11.dtd">
<svg version="1.1" xmlns="http://www.w3.org/2000/svg" xmlns:xlink="http://www.w3.org/1999/xlink" x="0px" y="0px" width="7987px"
	 height="1080px" viewBox="0 0 7987 1080" enable-background="new 0 0 7987 1080" xml:space="preserve">
<g id="left_to_right">
	<path opacity="0.4" fill="#BD0B47" d="M6152.12-17.701c277.45,20.71,551.338,10.819,826.995-15.634
		c189.34-18.169,380.013-44.923,572.339-37.385c144.571,5.666,285.913,16.006,431.215,12.195
		c125.263-3.286,250.058-11.603,374.721-19.972c-58.883,49.935-117.16,98.187-141.658,160.982
		c-33.67,86.304,55.709,124.653,148.199,170.614c-164.22,5.061-297.629-8.751-439.299-66.352
		c-178.309-72.497-315.077-58.944-501.51-7.578c-235.407,64.859-463.743,93.784-708.684,34.09
		c-201.581-49.126-398.111-89.92-615.347-64.212c-121.623,14.393-377.369,82.613-482.368,9.824
		c64.966-42.106,110.021-58.71,108.953-124.556c-0.445-27.428-16.158-49.746-28.926-75.158
		c-40.118-79.844,76.01-20.487,123.672-9.017C5923.641-25.02,6043.967-25.773,6152.12-17.701z"/>
	<path opacity="0.2" fill="#F62B4C" d="M6195.12,210.299c277.45,20.71,551.338,10.819,826.995-15.634
		c189.34-18.169,380.013-44.923,572.339-37.385c144.571,5.666,285.913,16.006,431.215,12.195
		c125.263-3.286,250.058-11.603,374.721-19.972c-58.883,49.935-117.16,98.187-141.658,160.982
		c-33.67,86.304,55.709,124.653,148.199,170.614c-164.22,5.061-297.629-8.751-439.299-66.352
		c-178.309-72.497-315.077-58.944-501.51-7.578c-235.407,64.859-463.743,93.784-708.684,34.09
		c-201.581-49.126-398.111-89.92-615.347-64.212c-121.623,14.393-377.369,82.613-482.368,9.824
		c64.966-42.106,110.021-58.71,108.953-124.556c-0.445-27.428-16.158-49.746-28.926-75.158
		c-40.118-79.844,76.01-20.487,123.672-9.017C5966.641,202.98,6086.967,202.227,6195.12,210.299z"/>
</g>
</svg>
