<?xml version="1.0" encoding="utf-8"?>
<!-- Generator: Adobe Illustrator 16.0.0, SVG Export Plug-In . SVG Version: 6.00 Build 0)  -->
<!DOCTYPE svg PUBLIC "-//W3C//DTD SVG 1.1//EN" "http://www.w3.org/Graphics/SVG/1.1/DTD/svg11.dtd">
<svg version="1.1" xmlns="http://www.w3.org/2000/svg" xmlns:xlink="http://www.w3.org/1999/xlink" x="0px" y="0px" width="7987px"
	 height="1080px" viewBox="0 0 7987 1080" enable-background="new 0 0 7987 1080" xml:space="preserve">
<g id="Midground">
	<path fill="#B3C2C2" d="M7058,981c-0.877-4.617,4.277-10.079,5.993-14.11c1.306-3.067,3.433-9.114,6.221-11
		c-0.397,0.735-1.023,1.023-1.879,0.865c-0.417-2.38,4.829-9.959-1.897-7.396c-1.076,0.41-1.905,2.488-2.875,3.188
		c-1.118,0.808-2.623,0.705-3.759,1.651c-0.307-4.014,5.994-4.92,3.837-8.947c-2.639,0.517-4.1,3.986-7.441,3.549
		c-0.742-6.115,7.46-7.215,10.349-11.253c2.733-3.819,3.931-10.752,7.452-13.736c2.432,2.123,3.771,6.441,5.498,9.245
		c2.027,3.295,2.71,6.259,4.303,9.538c-5.213,1.647-8.917-1.499-6.285,4.903c1.292,3.144,2.96,6.144,4.239,9.05
		c-4.339,0.385-7.425,4.157-5.452,8.506c1.243,2.741,4.515,3.593,6.238,5.89c1.491,1.985,2.092,3.772,3.961,5.548
		c4.473,4.248,5.863,1.706,8.047-3.498c1.556-3.711,6.542-12.154,5.092-15.833c-3.227,1.056-5.269,6.635-9.338,7.634
		c-0.276-2.124,1.478-5.68,2.182-7.787c0.858-1.252,1.433-2.622,1.723-4.11c-0.126-1.962-2.109-1.856-2.35-3.832
		c-0.623-5.13,6.449-5.449,9.634-8.573c6.995-6.863,4.509-21.315,4.509-30.887c0,4.217-0.827,9.351,0.398,13.396
		c1.239,4.089,3.992,8.093,5.608,11.89c0.732,1.72,0.659,4.547,2.398,5.808c1.707,1.237,5.498,0.211,7.595,0.748
		c2.904,0.742,5.041,0.979,8,1.444c2.697,0.425,4.537,2.352,7.396,2.156c-2.455-0.079-4.949,0.134-7.396,0
		c-3.316-0.181-6.702-2.899-9.794-1.693c0.226,2.576,3.147,3.894,5.549,4.1c-2.242,5.155-0.799,7.905,3.696,12.05
		c1.941,1.789,4.217,4.928,6.445,6.139c3.855,2.096,5.84-0.457,9.762-0.989c0.114-4.194,4.222-5.865,4.53-9.69
		c0.395-4.883-2.876-3.053-5.377-5.961c1.832-2.13,4.29-1.366,5.345-3.844c1.702-3.998-1.088-5.845,3.747-8.697
		c4.764-2.811,7.288-1.067,11.651,1.089c1.906,0.942,7.635,0.971,7.375,2.968c3.946,0.245,1.881,4.137,5.024,4.737
		c0.978,0.187,5.942-3.125,6.595-3.911c0.469,0.442,2.514,0.938,3.006,1.459c0.665-3.209,2.222-6.074,2.549-9.355
		c0.289-2.905-0.681-5.641,0.295-8.491c0.824-2.407,2.867-3.587,3.651-5.851c0.882-2.543,0.378-4.886,2.061-7.499
		c-1.073,4.786,1.931,10.282,1.883,15.396c-0.045,4.846-0.999,11.186,0.412,15.84c2.422-0.823,4.443-4.787,5.751-7.242
		c-1.214,4.374-0.089,5.063,3.359,4.997c0.481-0.996,1.272-1.56,2.374-1.691c1.849-0.481,3.923,0.144,5.665,0.542
		c2.981,0.68,4.542,2.315,8.445,1.149c3.148-0.941,6.619-5.957,9.705-5.449c1.576,4.151-1.409,6.164,4.249,5.456
		c1.241-0.936,2.624-1.538,4.149-1.809c1.775,0.107,2.064,1.879,3.793,2.311c6.911,1.724,13.869-2.645,19.602,2.398
		c4.172,3.671,6.896,5.842,12.011,7.989c2.68,1.125,5.829,1.346,8.086,3.47c3.092,2.91,2.335,6.127,2.405,10.039"/>
	<path fill="#B3C2C2" d="M6532,939c0-3.994-0.089-8-0.007-11.993c0.053-2.579-1.202-10.313-4.548-4.342
		c-4.367-1.795-8.37-4.393-9.548-9.562c-0.701-3.075,0.335-6.528-0.341-9.658c-0.302-1.399-1.372-2.41-1.608-4.392
		c-0.253-2.12,0.327-3.777-0.289-5.894c-5.663-1.479-3.749,19.659-3.562,23.242c-3.916-10.451-2.9-0.501-7.651,0.359
		c-0.174-1.063-0.47-2.09-0.89-3.078c-1.886,2.505-4.044,4.611-6.057,7.021c-4.375-1.835-10.757-3.431-15.156,0.74
		c-2.272,2.153,0.601,4.206-4.406,3.697c-1.104-0.148-1.896-0.717-2.374-1.705c-1.745-0.469-3.46-0.104-5.124-0.836
		c-5.586-2.457-12.49-10.843-16.032-15.705c-2.407-3.304-4.091-12.904-8.007-13.736c-1.508,5.018,1.229,11.118-0.302,15.982
		c-1.616,5.135-6.24,2.037-8.691,5.47c-0.725,0.217-1.191-0.021-1.398-0.716c-3.071,2.04-2.477,7.896-2.053,11.149
		c0.244,1.872,1.333,3.09,1.602,4.399c0.512,2.496,0.395,4.908,0.89,7.451c0.574,2.947,1.594,5.034,1.608,8.2
		c0.014,2.932-1.088,4.784,1.804,6.046c4.484,1.957,13.348-1.06,17.612-1.697c8.522-1.274,17.492-0.334,26.135-0.438
		c6.257-0.075,10.596,2.081,16.395,3.541c10.021,2.523,18.461-3.376,28-3.548"/>
	<path fill="#B3C2C2" d="M6698,983c-1.068-8.223,5.411-11.64,9.402-17.697c-2.704-0.767-5.847-0.326-8.694-0.206
		c5.724-5.878,13.51-2.022,17.833-9.549c1.707-2.97,2.091-7.02,3.014-10.548c1.096-4.191,0.445-9.044,0.445-13.389
		c-0.007,5.641-0.557,11.438,0.445,16.997c0.59,3.272,1.523,5.489,1.608,8.933c0.078,3.126-1.054,6.438,1.462,8.808
		c0.113-4.614,3.403-2.937,6.538-3.303c4.795-0.56,5.528-2.967,6.392-7.84c1.866,0.272,3.154,1.861,3.659,3.69
		c1.307,4.738-1.944,5.331,3.857,6.143c4.913,0.688,16.108,1.475,19.587-1.896c1.837-1.779,2.575-6.44,4.897-7.833
		c4.575-2.744,4.689,1.109,6,3.69c3.771,7.426,8.538-0.329,14.157,5.398c1.544,1.574,1.216,3.662,2.804,5.196
		c2.75,2.656,5.871,1.679,8.641-0.445c3.326-2.55,3.746-6.151,7.9-7.704c3.961-1.481,4.771-1.659,7.551-5.001
		c3.46-4.159,8.176-6.957,10.548-11.501c1.593-3.054,6.627-9.937,6-13.396c-0.15,3.365-0.859,8.168-0.085,11.484
		c0.421,1.807,1.333,7.268,4.188,2.708c-0.494,5.93-0.147,7.381,5.857,8.808c4.464,1.062,9.296-0.483,13.651,0.794
		c0.231,1.106,0.457,2.215,0.676,3.323c1.813,0.253,3.541,0.455,5.37,0.63c1.299,4.894-1.249,9.302,6.302,7.802
		c4.949-0.983,8.361-3.101,13.698-1.802c0.624,6.223,1.778,7.377,8,8c1.115,4.349-0.524,9.062,0.591,13.41
		c4.38,0.482,5.26,0.049,7.252,4.302c1.341,2.862,2.033,5.314,3.957,8.043c2.497,3.54,9.851,9.202,8.495,13.95"/>
	<path fill="#B3C2C2" d="M6358,923c-0.039-3.696,1.333-8.286-1.857-10.634c-4.31-3.171-6.214,1.331-9.587,2.428
		c-2.062-3.62-3.87-5.78-5.046-9.787c-0.712-2.425-1.603-5.54-3.516-7.299c-2.056,5.111-3.958,12.54-7.555,16.648
		c0.023-5.85-5.427-3.229-6.986,0.405c-0.974-0.478-2.054-1.899-3.348-1.982c-2.117-0.136-3.489,1.867-5.651,1.886
		c-1.653,0.015-1.257-2.229-4.007-1.319c-2.792,0.923-0.914,2.615-4.349,2.299c-1.98-0.182-3.91-2.405-6.089-2.748
		c-1.901-0.299-3.659,0.036-5.562-0.342c-0.219-0.043-4.125-1.44-4.445-1.555c-1.809-0.646-3.74-0.983-5.452-1.658
		c-2.377,3.709-7.265,0.524-10.645,1.562c-2.971,0.912-4.396,6.562-7.459,5.848c-1.104-0.257-6.045-4.974-6.498-5.595
		c-2.417-3.316-2.524-6.829-6.442-9.455c-2.689,3.082-2.462,7.879-5.466,10.448c-1.655-2.095-5.617-1.203-8.039-1.143
		c-2.14,0.054-3.957-0.322-6.046,0.392c-1.749,0.598-2.962,2.683-4.398,3.203c-1.062,0.385-8.454,1.824-9.157,1.548
		c-3.508-1.382-3.224-5.485-8.057-5.537c-0.274-5.159-5.969-5.884-7.943-10.058c-1.007-2.13-0.744-4.033-1.85-6.103
		c-0.741-0.589-1.46-1.203-2.157-1.844c-0.839-1.409-0.558-3.855-0.83-5.456c-3.936,0.617-0.654,21.338-1.968,25.648
		c-4.971-2.206-3.347-1.601-7.537,1.812c-2.261,1.841-6.874,2.189-9.619,2.818c-2.377,0.545-0.916,2.372-4.438,1.32
		c-2.397-0.716-3.158-3.663-4.542-5.359c-2.064-2.532-4.283-5.463-6.963-2.584c-3.127-4.593-4.146-10.751-8.438-13.808
		c-3.74-2.663-2.969-1.244-3.993-6.007c-0.573-2.666-2.013-4.917-2.459-7.651c-7.297,0.269-3.315-10.571-7.605-10.627
		c-2.893-0.038-2.375,9.475-7.608,10.079c-0.412-2.966,0.369-7.815-3.954-7.642c-1.252,1.935-2.366,6.584-4.883,7.488
		c-1.434,0.515-6.248-0.856-7.605-1.591c-1.735-0.938-3.94-4.131-5.957-4.242c-2.333-0.129-5.364,4.162-6.542,5.701
		c-1.738,2.271-4.037,4.8-5.505,6.937c-2.013,2.929-2.685,6.136-4.011,9.594c-1.634,4.26-0.199,4.08-5.943,3.954
		c-3.858-0.085-7.433-0.667-10.535,1.466c-2.086,1.434-2.796,3.884-5.355,4.645c-1.405-0.067-2.81-0.139-4.214-0.214
		c-1.81,0.428-1.96,1.912-3.786,2.26c-3.977,0.757-6.664-2.635-10.097-3.744c-5.494-1.774-4.568,0.558-7.452,3.691
		c-2.989,3.248-3.06,1.591-6.007-0.599c-3.192-2.372-4.823-2.615-8.548-3.448c-6.789-1.517-16.92-7.137-15.943-15.438
		c-2.66,4.136-2.031,8.242-2.043,12.943c-0.008,2.961-0.31,5.632,0.431,8.527c0.482,1.885,1.69,3.081,1.751,5.178
		c-2.546-3.947-4.684,0.664-5.751,2.74c-1.297,2.523,0.463,2.975-2.295,4.143c-1.232,0.521-4.743-0.135-6.149-0.143
		c-3.877-0.022-8.212-0.536-12.046-0.046c-3.403,0.435-5.463,1.85-8.406,3.49c-1.946,1.086-3.205,2.309-5.548,2.659
		c-1.951,0.292-3.725-0.742-5.602,0.295c-1.025,0.566-1.748,3.091-2.843,3.353c-2.962,0.707-2.309-2.368-4.007-3.416
		c-6.386-3.942-13.798,3.049-19.495,3.719c-4.037,0.475-6.535,1.567-10.007,0.541c-3.527-1.043-8.123-4.862-12.189-2.292
		c-3.384,2.139-3.275,20.795,0.046,21.886c2.856,0.938,7.28-3.059,10.057-3.736c5.67-1.385,12.458-0.449,18.302-0.452
		c14.727-0.008,27.652-0.633,42.092-3.961c18.473-4.257,37.012-8.345,55.833-10.627c13.196-1.6,26.152-1.327,39.413-1.458
		c11.258-0.112,21.471,3.234,32.366,5.594c15.368,3.328,30.643,2.958,46.175,1.047c12.562-1.546,24.947-6.013,37.594-6.691
		c9.81-0.525,19.879,0.097,29.708,0.097c5.324,0,11.492,0.867,16.659-0.452c3.966-1.013,7.976-2.544,11.896-3.491
		c2.155-0.52,3.813-1.788,6-2.16c1.95-0.332,4.05,0.537,6,0.207c2.227-0.378,3.773-1.829,6-2.207c1.95-0.33,4.05,0.537,6,0.207
		c2.208-0.374,3.757-1.798,5.954-2.207c2.445-0.455,5.139,0.644,7.602,0.207c4.587-0.814,7.583-2.138,12.445-2.104
		c7.997,0.056,16.003,0.055,24,0c4.921-0.034,5.945,0.482,9.896,2.548c4.066,2.126,7.67,0.54,11.762,1.794
		c0.114,0.553,0.228,1.105,0.342,1.658"/>
	<path fill="#E9FEFC" d="M8160,889.008c0,0-258.675,109.584-488,73.415C7384,917,7089.919,975.004,6868,985
		c-222,10-220-88-690-63.363c-286.651,15.025-320,44.283-640,72.251s-520-11.653-832-58.267
		c-154.913-23.145-419.146-20.6-708.203-5.649c-0.757,24.375,0.093,48.829,0.723,73.2c0.704,27.236,1.588,54.468,2.223,81.705
		c0.65,27.871,1.095,55.782,0.853,83.681L5512,1198.984l2784-23.307L8160,889.008z"/>
</g>
</svg>
