<?xml version="1.0" encoding="utf-8"?>
<!DOCTYPE svg PUBLIC "-//W3C//DTD SVG 1.1//EN" "http://www.w3.org/Graphics/SVG/1.1/DTD/svg11.dtd">
<svg version="1.1" xmlns="http://www.w3.org/2000/svg" xmlns:xlink="http://www.w3.org/1999/xlink" viewBox="0 0 11000 8000">
<g enable-background="new">
<g>
<g>
<g transform="matrix(-0.489990234375 0 0 0.489990234375 6058 4535)">
<g>
<path fill-opacity="1.000" fill="#9887DB" d="M -5190 -4164 Q -5024 -4164 -4866 -4107 Q -4781 -4076 -4708 -4022 Q -4548 -3957 -4413 -3851 L -4380 -3823 L -4409 -3752 L -4502 -3770 Q -4511 -3771 -4520 -3771 Q -4571 -3771 -4619 -3751 L -4638 -3745 L -4805 -3955 Q -4981 -4090 -5194 -4143 L -5263 -4161 Q -5226 -4164 -5190 -4164 Z M -590 -999 L -590 -999 L -591 -999 L -590 -999 Z M -604 -999 L -614 -998 L -620 -999 Z M -5249 -4234 Q -5354 -4234 -5458 -4216 L -5465 -4220 L -5508 -4214 Q -5437 -4184 -5369 -4148 Q -5173 -4038 -5005 -3883 L -4925 -3798 Q -4781 -3649 -4696 -3460 Q -4603 -3253 -4566 -3030 L -4491 -2581 L -4416 -2125 Q -4390 -1959 -4348 -1796 Q -4291 -1576 -4189 -1372 L -4154 -1315 Q -4030 -1114 -3850 -965 Q -3680 -824 -3484 -721 Q -3289 -619 -3086 -537 Q -2882 -456 -2690 -352 Q -2550 -277 -2414 -195 Q -2259 -101 -2085 -64 L -1803 -5 Q -1589 35 -1399 125 Q -1307 166 -1208 192 Q -1171 201 -1138 201 Q -1033 201 -960 110 L -976 53 L -1046 -28 Q -1210 -160 -1364 -300 Q -1527 -448 -1628 -644 Q -1732 -847 -1767 -1075 L -1767 -1075 L -1404 -680 Q -1231 -488 -1006 -362 Q -882 -291 -743 -285 L -657 -297 Q -584 -324 -533 -381 Q -410 -517 -368 -694 Q -323 -880 -375 -1066 L -590 -999 L -590 -999 L -589 -1000 L -599 -1000 L -614 -1002 L -635 -1002 L -648 -1003 L -648 -1002 L -651 -1002 L -656 -1003 L -663 -1004 L -669 -1004 L -672 -1005 L -677 -1006 L -680 -1006 L -689 -1007 L -693 -1008 L -699 -1009 L -699 -1008 L -700 -1008 L -700 -1009 L -702 -1009 L -849 -1042 Q -1068 -1090 -1269 -1196 Q -1462 -1299 -1620 -1453 Q -1763 -1591 -1891 -1742 L -2189 -2100 Q -2328 -2273 -2456 -2453 Q -2566 -2607 -2683 -2754 Q -2777 -2871 -2878 -2974 L -3173 -3282 Q -3316 -3435 -3478 -3565 Q -3659 -3712 -3861 -3826 Q -4069 -3941 -4288 -4023 Q -4454 -4086 -4627 -4130 Q -4840 -4183 -5058 -4219 Q -5153 -4234 -5249 -4234 Z">
</path>
<path fill-opacity="1.000" fill="#403277" d="M -5190 -4164 Q -5226 -4164 -5263 -4161 L -5194 -4143 Q -4981 -4090 -4805 -3955 L -4638 -3745 L -4619 -3751 Q -4570 -3771 -4520 -3771 Q -4511 -3771 -4502 -3770 L -4409 -3752 L -4380 -3823 L -4413 -3851 Q -4548 -3957 -4708 -4022 Q -4781 -4076 -4866 -4107 Q -5024 -4164 -5190 -4164 Z M -5006 -3882 L -5006 -3882 Q -4883 -3738 -4806 -3566 Q -4719 -3370 -4672 -3166 Q -4629 -2982 -4598 -2797 Q -4565 -2603 -4546 -2407 L -4509 -2019 Q -4487 -1800 -4413 -1596 Q -4338 -1387 -4204 -1206 Q -4087 -1049 -3954 -902 Q -3794 -725 -3619 -560 Q -3489 -436 -3348 -321 L -3117 -132 Q -2965 -6 -2793 95 Q -2595 210 -2370 256 L -2370 257 L -2189 243 Q -2155 242 -2122 242 Q -1934 242 -1749 280 Q -1582 311 -1420 367 Q -1259 424 -1112 505 Q -582 798 -40 1065 L 98 776 Q 214 535 293 278 Q 336 137 351 -9 Q 369 -186 355 -364 Q 313 -890 50 -1352 L -7 -1289 Q -159 -1128 -376 -1065 Q -324 -879 -369 -693 Q -411 -516 -534 -380 Q -585 -323 -658 -296 L -744 -284 Q -883 -290 -1007 -361 Q -1232 -487 -1405 -679 L -1768 -1074 L -1768 -1074 Q -1733 -846 -1629 -643 Q -1528 -447 -1365 -299 Q -1211 -159 -1047 -27 L -977 54 L -961 111 Q -1034 202 -1139 202 Q -1172 202 -1209 193 Q -1308 167 -1400 126 Q -1590 36 -1804 -4 L -2086 -63 Q -2260 -100 -2415 -194 Q -2551 -276 -2691 -351 Q -2883 -455 -3087 -536 Q -3290 -618 -3485 -720 Q -3681 -823 -3851 -964 Q -4031 -1113 -4155 -1314 L -4190 -1371 Q -4292 -1575 -4349 -1795 Q -4391 -1958 -4417 -2124 L -4492 -2580 L -4567 -3029 Q -4604 -3252 -4697 -3459 Q -4782 -3648 -4926 -3797 L -5006 -3882 Z">
</path>
<path fill="none" stroke-opacity="1.000" stroke="rgb(0,0,0)" stroke-linejoin="round" stroke-linecap="round" stroke-width="40" d="M -376 -1065 Q -159 -1128 -7 -1289 L 50 -1352 Q 313 -890 355 -364 Q 369 -186 351 -9 Q 336 137 293 278 Q 214 535 98 776 L -40 1065 Q -582 798 -1112 505 Q -1259 424 -1420 367 Q -1582 311 -1749 280 Q -1967 235 -2189 243 L -2370 257 M -2370 256 Q -2595 210 -2793 95 Q -2965 -6 -3117 -132 L -3348 -321 Q -3489 -436 -3619 -560 Q -3794 -725 -3954 -902 Q -4087 -1049 -4204 -1206 Q -4338 -1387 -4413 -1596 Q -4487 -1800 -4509 -2019 L -4546 -2407 Q -4565 -2603 -4598 -2797 Q -4629 -2982 -4672 -3166 Q -4719 -3370 -4806 -3566 Q -4883 -3738 -5006 -3882 Q -5174 -4037 -5370 -4147 Q -5438 -4183 -5509 -4213 L -5466 -4219 M -5459 -4215 Q -5259 -4249 -5059 -4218 Q -4841 -4182 -4628 -4129 Q -4455 -4085 -4289 -4022 Q -4070 -3940 -3862 -3825 Q -3660 -3711 -3479 -3564 Q -3317 -3434 -3174 -3281 L -2879 -2973 Q -2778 -2870 -2684 -2753 Q -2567 -2606 -2457 -2452 Q -2329 -2272 -2190 -2099 L -1892 -1741 Q -1764 -1590 -1621 -1452 Q -1463 -1298 -1270 -1195 Q -1069 -1089 -850 -1041 L -703 -1008 L -701 -1008 L -700 -1008 L -694 -1007 M -690 -1006 L -615 -1001 L -600 -999 L -599 -999 L -590 -999 L -591 -998 L -592 -998 L -376 -1065 M -4866 -4107 Q -4781 -4076 -4708 -4022 Q -4548 -3957 -4413 -3851 L -4380 -3823 L -4409 -3752 L -4502 -3770 Q -4562 -3774 -4619 -3751 L -4638 -3745 L -4805 -3955 Q -4981 -4090 -5194 -4143 L -5263 -4161 Q -5058 -4176 -4866 -4107 Z M -695 -1006 L -692 -1004 L -691 -1005 L -690 -1004 L -690 -1005 L -692 -1005 L -695 -1006 Z M -695 -1006 L -693 -1006 L -684 -1005 L -683 -1005 L -680 -1004 L -676 -1004 L -673 -1004 L -678 -1005 L -681 -1005 M -693 -1006 L -692 -1005 L -684 -1005 L -687 -1004 L -686 -1004 L -685 -1004 L -683 -1004 L -683 -1005 M -694 -1007 L -695 -1006 L -698 -1007 L -698 -1006 L -696 -1006 L -695 -1006 L -697 -1005 L -698 -1006 L -699 -1006 L -699 -1007 M -701 -1007 L -703 -1008 L -701 -1007 Z M -701 -1007 L -701 -1008 L -700 -1007 L -700 -1008 L -695 -1006 M -698 -1006 L -699 -1007 L -699 -1006 M -699 -1007 L -701 -1007 M -699 -1007 L -698 -1007 L -700 -1007 L -699 -1007 Z M -699 -1007 L -701 -1008 M -697 -1005 L -698 -1006 M -687 -1004 L -686 -1003 L -686 -1004 M -686 -1003 L -681 -1002 L -685 -1003 L -686 -1003 Z M -685 -1003 L -684 -1003 L -685 -1004 L -685 -1003 Z M -687 -1004 L -688 -1004 L -686 -1003 M -687 -1004 L -689 -1005 L -688 -1004 L -690 -1005 L -689 -1005 M -684 -1003 L -683 -1004 M -692 -1004 L -690 -1004 L -688 -1004 M -696 -1006 L -697 -1005 M -684 -1003 L -681 -1002 L -677 -1001 L -668 -1000 M -670 -1001 L -676 -1003 L -683 -1004 L -678 -1004 L -680 -1004 M -678 -1004 L -676 -1004 M -667 -1000 L -668 -1000 M -666 -1002 L -667 -1003 L -668 -1003 M -652 -1000 L -652 -1001 L -657 -1002 L -664 -1003 L -667 -1003 L -670 -1003 L -668 -1003 M -676 -1003 L -661 -1001 L -665 -1002 L -670 -1003 L -673 -1004 M -666 -1002 L -665 -1002 M -677 -1001 L -662 -998 L -653 -997 L -652 -996 L -649 -996 L -649 -997 L -650 -998 L -676 -1003 M -651 -999 L -650 -998 L -649 -998 L -649 -999 L -651 -999 Z M -651 -999 L -652 -999 L -656 -1000 L -661 -1001 M -652 -1001 L -651 -1000 L -649 -1000 L -649 -1001 L -652 -1001 Z M -648 -999 L -649 -1000 L -649 -999 L -648 -999 Z M -648 -999 L -646 -999 L -643 -998 L -644 -999 L -645 -1000 L -647 -1000 L -649 -1000 M -645 -1000 L -646 -1001 L -647 -1001 L -649 -1001 L -647 -1000 M -649 -1002 L -649 -1001 M -647 -1001 L -649 -1002 L -636 -1001 L -615 -1001 M -652 -999 L -652 -1000 L -656 -1000 M -653 -997 L -656 -997 M -652 -1000 L -651 -1000 M -649 -1002 L -657 -1002 M -649 -997 L -649 -998 L -643 -996 L -643 -997 L -646 -999 L -642 -998 L -643 -998 L -642 -998 L -644 -1000 L -644 -999 L -645 -1000 M -636 -999 L -640 -999 L -641 -999 L -640 -997 L -636 -998 L -636 -999 Z M -636 -999 L -644 -1001 L -643 -1000 L -640 -999 M -636 -999 L -636 -1001 M -644 -1000 L -645 -1000 L -646 -1001 L -644 -1001 M -642 -999 L -643 -1000 L -644 -1000 L -642 -999 Z M -642 -999 L -641 -999 M -642 -998 L -641 -998 L -642 -998 Z M -642 -999 L -641 -998 L -640 -997 L -639 -997 L -636 -997 L -636 -998 L -626 -997 L -636 -999 L -627 -999 L -621 -998 L -605 -998 L -602 -998 L -600 -999 M -642 -996 L -637 -995 L -643 -997 L -642 -996 Z M -642 -996 L -643 -996 M -635 -995 L -636 -996 L -636 -995 L -635 -995 Z M -635 -995 L -633 -995 L -629 -994 L -636 -997 L -636 -996 L -636 -995 L -632 -994 L -633 -995 M -642 -996 L -636 -993 L -635 -993 L -636 -995 L -637 -995 M -636 -997 L -638 -996 L -636 -995 M -638 -996 L -639 -997 L -640 -997 L -642 -998 M -636 -997 L -633 -997 L -636 -998 M -640 -997 L -641 -998 M -649 -996 L -636 -993 M -627 -992 L -631 -993 L -632 -994 L -630 -991 L -627 -991 L -627 -992 Z M -627 -992 L -625 -992 L -625 -993 L -629 -994 L -631 -993 M -635 -993 L -632 -993 L -632 -994 M -625 -992 L -623 -993 L -625 -993 L -625 -994 L -626 -994 L -629 -994 M -627 -992 L -625 -991 L -624 -991 L -625 -992 M -625 -996 L -625 -995 L -624 -995 L -625 -996 Z M -625 -996 L -633 -997 L -625 -995 L -620 -993 L -619 -993 L -622 -995 L -624 -995 M -625 -995 L -625 -994 L -623 -993 L -621 -993 L -619 -992 L -620 -993 L -594 -997 L -593 -999 L -602 -998 M -624 -991 L -623 -993 M -626 -997 L -625 -997 L -627 -999 M -625 -996 L -625 -997 L -616 -996 L -615 -996 L -615 -997 L -621 -998 M -626 -994 L -625 -995 M -627 -991 L -625 -991 M -616 -996 L -619 -993 M -620 -993 L -618 -992 L -616 -993 L -614 -991 L -615 -991 L -617 -991 L -619 -991 L -620 -991 L -621 -993 L -619 -991 L -619 -992 M -617 -991 L -619 -992 L -618 -992 M -616 -993 L -615 -991 M -622 -995 L -616 -996 M -635 -993 L -630 -991 M -594 -997 L -592 -998 L -593 -999 L -591 -998 M -599 -999 L -593 -999 M -615 -997 L -605 -998 M -4708 -4022 L -4805 -3955">
</path>
<path fill="none" stroke-opacity="1.000" stroke="rgb(0,0,0)" stroke-linejoin="round" stroke-linecap="round" stroke-width="28.571998006975587" d="M -694 -1007 L -690 -1006 M -1047 -27 L -1023 -58 L -952 23 L -922 63 L -754 257 M -3730 -3424 L -4020 -3648 M -3365 -3082 L -3646 -3351 M -4739 -3694 L -4657 -3602 M -4514 -3338 L -4473 -3195 M -4600 -3516 L -4541 -3402 M -4411 -2717 L -4392 -2499 M -4369 -2279 L -4342 -2049 M -4451 -3071 L -4429 -2894 M -4310 -1829 L -4255 -1554 M -4190 -1371 L -4108 -1206 M -3807 -845 L -3680 -747 M -4038 -1097 L -3888 -919 M -2654 -2318 L -2919 -2572 M -1917 -1585 L -2154 -1830 M -1827 -1347 L -1933 -1255 L -1822 -1122 L -1749 -1160 M -1933 -1255 L -2143 -1476 M -2708 -1927 L -2265 -1588 M -681 -1005 L -690 -1006 M -668 -1000 L -670 -1001 M -668 -1003 L -666 -1002 L -652 -1000 M -662 -998 L -667 -1000 M -678 -1005 L -664 -1003 M -656 -997 L -652 -996 M -656 -997 L -662 -998 M -1362 -1163 L -1516 -1250 M -1191 -1084 L -1284 -1124 M -1161 -222 L -1421 -560 M -230 -371 L -383 -491 M -13 -217 L -142 -308 M -597 -684 L -698 -773 M -1602 -1308 L -1807 -1478 M -2288 -1963 L -2498 -2166 M -1706 -968 L -1497 -664 M -2999 -2665 L -3268 -2978 M -961 111 L -922 63 M -977 54 L -952 23 M 90 -1144 L -56 -1000">
</path>
</g>
</g>
<g transform="matrix(0.489990234375 0 0 0.489990234375 4959 4535)">
<g>
<path fill-opacity="1.000" fill="#9887DB" d="M -5190 -4164 Q -5024 -4164 -4866 -4107 Q -4781 -4076 -4708 -4022 Q -4548 -3957 -4413 -3851 L -4380 -3823 L -4409 -3752 L -4502 -3770 Q -4511 -3771 -4520 -3771 Q -4571 -3771 -4619 -3751 L -4638 -3745 L -4805 -3955 Q -4981 -4090 -5194 -4143 L -5263 -4161 Q -5226 -4164 -5190 -4164 Z M -590 -999 L -590 -999 L -591 -999 L -590 -999 Z M -604 -999 L -614 -998 L -620 -999 Z M -5249 -4234 Q -5354 -4234 -5458 -4216 L -5465 -4220 L -5508 -4214 Q -5437 -4184 -5369 -4148 Q -5173 -4038 -5005 -3883 L -4925 -3798 Q -4781 -3649 -4696 -3460 Q -4603 -3253 -4566 -3030 L -4491 -2581 L -4416 -2125 Q -4390 -1959 -4348 -1796 Q -4291 -1576 -4189 -1372 L -4154 -1315 Q -4030 -1114 -3850 -965 Q -3680 -824 -3484 -721 Q -3289 -619 -3086 -537 Q -2882 -456 -2690 -352 Q -2550 -277 -2414 -195 Q -2259 -101 -2085 -64 L -1803 -5 Q -1589 35 -1399 125 Q -1307 166 -1208 192 Q -1171 201 -1138 201 Q -1033 201 -960 110 L -976 53 L -1046 -28 Q -1210 -160 -1364 -300 Q -1527 -448 -1628 -644 Q -1732 -847 -1767 -1075 L -1767 -1075 L -1404 -680 Q -1231 -488 -1006 -362 Q -882 -291 -743 -285 L -657 -297 Q -584 -324 -533 -381 Q -410 -517 -368 -694 Q -323 -880 -375 -1066 L -590 -999 L -590 -999 L -589 -1000 L -599 -1000 L -614 -1002 L -635 -1002 L -648 -1003 L -648 -1002 L -651 -1002 L -656 -1003 L -663 -1004 L -669 -1004 L -672 -1005 L -677 -1006 L -680 -1006 L -689 -1007 L -693 -1008 L -699 -1009 L -699 -1008 L -700 -1008 L -700 -1009 L -702 -1009 L -849 -1042 Q -1068 -1090 -1269 -1196 Q -1462 -1299 -1620 -1453 Q -1763 -1591 -1891 -1742 L -2189 -2100 Q -2328 -2273 -2456 -2453 Q -2566 -2607 -2683 -2754 Q -2777 -2871 -2878 -2974 L -3173 -3282 Q -3316 -3435 -3478 -3565 Q -3659 -3712 -3861 -3826 Q -4069 -3941 -4288 -4023 Q -4454 -4086 -4627 -4130 Q -4840 -4183 -5058 -4219 Q -5153 -4234 -5249 -4234 Z">
</path>
<path fill-opacity="1.000" fill="#403277" d="M -5190 -4164 Q -5226 -4164 -5263 -4161 L -5194 -4143 Q -4981 -4090 -4805 -3955 L -4638 -3745 L -4619 -3751 Q -4570 -3771 -4520 -3771 Q -4511 -3771 -4502 -3770 L -4409 -3752 L -4380 -3823 L -4413 -3851 Q -4548 -3957 -4708 -4022 Q -4781 -4076 -4866 -4107 Q -5024 -4164 -5190 -4164 Z M -5006 -3882 L -5006 -3882 Q -4883 -3738 -4806 -3566 Q -4719 -3370 -4672 -3166 Q -4629 -2982 -4598 -2797 Q -4565 -2603 -4546 -2407 L -4509 -2019 Q -4487 -1800 -4413 -1596 Q -4338 -1387 -4204 -1206 Q -4087 -1049 -3954 -902 Q -3794 -725 -3619 -560 Q -3489 -436 -3348 -321 L -3117 -132 Q -2965 -6 -2793 95 Q -2595 210 -2370 256 L -2370 257 L -2189 243 Q -2155 242 -2122 242 Q -1934 242 -1749 280 Q -1582 311 -1420 367 Q -1259 424 -1112 505 Q -582 798 -40 1065 L 98 776 Q 214 535 293 278 Q 336 137 351 -9 Q 369 -186 355 -364 Q 313 -890 50 -1352 L -7 -1289 Q -159 -1128 -376 -1065 Q -324 -879 -369 -693 Q -411 -516 -534 -380 Q -585 -323 -658 -296 L -744 -284 Q -883 -290 -1007 -361 Q -1232 -487 -1405 -679 L -1768 -1074 L -1768 -1074 Q -1733 -846 -1629 -643 Q -1528 -447 -1365 -299 Q -1211 -159 -1047 -27 L -977 54 L -961 111 Q -1034 202 -1139 202 Q -1172 202 -1209 193 Q -1308 167 -1400 126 Q -1590 36 -1804 -4 L -2086 -63 Q -2260 -100 -2415 -194 Q -2551 -276 -2691 -351 Q -2883 -455 -3087 -536 Q -3290 -618 -3485 -720 Q -3681 -823 -3851 -964 Q -4031 -1113 -4155 -1314 L -4190 -1371 Q -4292 -1575 -4349 -1795 Q -4391 -1958 -4417 -2124 L -4492 -2580 L -4567 -3029 Q -4604 -3252 -4697 -3459 Q -4782 -3648 -4926 -3797 L -5006 -3882 Z">
</path>
<path fill="none" stroke-opacity="1.000" stroke="rgb(0,0,0)" stroke-linejoin="round" stroke-linecap="round" stroke-width="40" d="M -376 -1065 Q -159 -1128 -7 -1289 L 50 -1352 Q 313 -890 355 -364 Q 369 -186 351 -9 Q 336 137 293 278 Q 214 535 98 776 L -40 1065 Q -582 798 -1112 505 Q -1259 424 -1420 367 Q -1582 311 -1749 280 Q -1967 235 -2189 243 L -2370 257 M -2370 256 Q -2595 210 -2793 95 Q -2965 -6 -3117 -132 L -3348 -321 Q -3489 -436 -3619 -560 Q -3794 -725 -3954 -902 Q -4087 -1049 -4204 -1206 Q -4338 -1387 -4413 -1596 Q -4487 -1800 -4509 -2019 L -4546 -2407 Q -4565 -2603 -4598 -2797 Q -4629 -2982 -4672 -3166 Q -4719 -3370 -4806 -3566 Q -4883 -3738 -5006 -3882 Q -5174 -4037 -5370 -4147 Q -5438 -4183 -5509 -4213 L -5466 -4219 M -5459 -4215 Q -5259 -4249 -5059 -4218 Q -4841 -4182 -4628 -4129 Q -4455 -4085 -4289 -4022 Q -4070 -3940 -3862 -3825 Q -3660 -3711 -3479 -3564 Q -3317 -3434 -3174 -3281 L -2879 -2973 Q -2778 -2870 -2684 -2753 Q -2567 -2606 -2457 -2452 Q -2329 -2272 -2190 -2099 L -1892 -1741 Q -1764 -1590 -1621 -1452 Q -1463 -1298 -1270 -1195 Q -1069 -1089 -850 -1041 L -703 -1008 L -701 -1008 L -700 -1008 L -694 -1007 M -690 -1006 L -615 -1001 L -600 -999 L -599 -999 L -590 -999 L -591 -998 L -592 -998 L -376 -1065 M -4866 -4107 Q -4781 -4076 -4708 -4022 Q -4548 -3957 -4413 -3851 L -4380 -3823 L -4409 -3752 L -4502 -3770 Q -4562 -3774 -4619 -3751 L -4638 -3745 L -4805 -3955 Q -4981 -4090 -5194 -4143 L -5263 -4161 Q -5058 -4176 -4866 -4107 Z M -695 -1006 L -692 -1004 L -691 -1005 L -690 -1004 L -690 -1005 L -692 -1005 L -695 -1006 Z M -695 -1006 L -693 -1006 L -684 -1005 L -683 -1005 L -680 -1004 L -676 -1004 L -673 -1004 L -678 -1005 L -681 -1005 M -693 -1006 L -692 -1005 L -684 -1005 L -687 -1004 L -686 -1004 L -685 -1004 L -683 -1004 L -683 -1005 M -694 -1007 L -695 -1006 L -698 -1007 L -698 -1006 L -696 -1006 L -695 -1006 L -697 -1005 L -698 -1006 L -699 -1006 L -699 -1007 M -701 -1007 L -703 -1008 L -701 -1007 Z M -701 -1007 L -701 -1008 L -700 -1007 L -700 -1008 L -695 -1006 M -698 -1006 L -699 -1007 L -699 -1006 M -699 -1007 L -701 -1007 M -699 -1007 L -698 -1007 L -700 -1007 L -699 -1007 Z M -699 -1007 L -701 -1008 M -697 -1005 L -698 -1006 M -687 -1004 L -686 -1003 L -686 -1004 M -686 -1003 L -681 -1002 L -685 -1003 L -686 -1003 Z M -685 -1003 L -684 -1003 L -685 -1004 L -685 -1003 Z M -687 -1004 L -688 -1004 L -686 -1003 M -687 -1004 L -689 -1005 L -688 -1004 L -690 -1005 L -689 -1005 M -684 -1003 L -683 -1004 M -692 -1004 L -690 -1004 L -688 -1004 M -696 -1006 L -697 -1005 M -684 -1003 L -681 -1002 L -677 -1001 L -668 -1000 M -670 -1001 L -676 -1003 L -683 -1004 L -678 -1004 L -680 -1004 M -678 -1004 L -676 -1004 M -667 -1000 L -668 -1000 M -666 -1002 L -667 -1003 L -668 -1003 M -652 -1000 L -652 -1001 L -657 -1002 L -664 -1003 L -667 -1003 L -670 -1003 L -668 -1003 M -676 -1003 L -661 -1001 L -665 -1002 L -670 -1003 L -673 -1004 M -666 -1002 L -665 -1002 M -677 -1001 L -662 -998 L -653 -997 L -652 -996 L -649 -996 L -649 -997 L -650 -998 L -676 -1003 M -651 -999 L -650 -998 L -649 -998 L -649 -999 L -651 -999 Z M -651 -999 L -652 -999 L -656 -1000 L -661 -1001 M -652 -1001 L -651 -1000 L -649 -1000 L -649 -1001 L -652 -1001 Z M -648 -999 L -649 -1000 L -649 -999 L -648 -999 Z M -648 -999 L -646 -999 L -643 -998 L -644 -999 L -645 -1000 L -647 -1000 L -649 -1000 M -645 -1000 L -646 -1001 L -647 -1001 L -649 -1001 L -647 -1000 M -649 -1002 L -649 -1001 M -647 -1001 L -649 -1002 L -636 -1001 L -615 -1001 M -652 -999 L -652 -1000 L -656 -1000 M -653 -997 L -656 -997 M -652 -1000 L -651 -1000 M -649 -1002 L -657 -1002 M -649 -997 L -649 -998 L -643 -996 L -643 -997 L -646 -999 L -642 -998 L -643 -998 L -642 -998 L -644 -1000 L -644 -999 L -645 -1000 M -636 -999 L -640 -999 L -641 -999 L -640 -997 L -636 -998 L -636 -999 Z M -636 -999 L -644 -1001 L -643 -1000 L -640 -999 M -636 -999 L -636 -1001 M -644 -1000 L -645 -1000 L -646 -1001 L -644 -1001 M -642 -999 L -643 -1000 L -644 -1000 L -642 -999 Z M -642 -999 L -641 -999 M -642 -998 L -641 -998 L -642 -998 Z M -642 -999 L -641 -998 L -640 -997 L -639 -997 L -636 -997 L -636 -998 L -626 -997 L -636 -999 L -627 -999 L -621 -998 L -605 -998 L -602 -998 L -600 -999 M -642 -996 L -637 -995 L -643 -997 L -642 -996 Z M -642 -996 L -643 -996 M -635 -995 L -636 -996 L -636 -995 L -635 -995 Z M -635 -995 L -633 -995 L -629 -994 L -636 -997 L -636 -996 L -636 -995 L -632 -994 L -633 -995 M -642 -996 L -636 -993 L -635 -993 L -636 -995 L -637 -995 M -636 -997 L -638 -996 L -636 -995 M -638 -996 L -639 -997 L -640 -997 L -642 -998 M -636 -997 L -633 -997 L -636 -998 M -640 -997 L -641 -998 M -649 -996 L -636 -993 M -627 -992 L -631 -993 L -632 -994 L -630 -991 L -627 -991 L -627 -992 Z M -627 -992 L -625 -992 L -625 -993 L -629 -994 L -631 -993 M -635 -993 L -632 -993 L -632 -994 M -625 -992 L -623 -993 L -625 -993 L -625 -994 L -626 -994 L -629 -994 M -627 -992 L -625 -991 L -624 -991 L -625 -992 M -625 -996 L -625 -995 L -624 -995 L -625 -996 Z M -625 -996 L -633 -997 L -625 -995 L -620 -993 L -619 -993 L -622 -995 L -624 -995 M -625 -995 L -625 -994 L -623 -993 L -621 -993 L -619 -992 L -620 -993 L -594 -997 L -593 -999 L -602 -998 M -624 -991 L -623 -993 M -626 -997 L -625 -997 L -627 -999 M -625 -996 L -625 -997 L -616 -996 L -615 -996 L -615 -997 L -621 -998 M -626 -994 L -625 -995 M -627 -991 L -625 -991 M -616 -996 L -619 -993 M -620 -993 L -618 -992 L -616 -993 L -614 -991 L -615 -991 L -617 -991 L -619 -991 L -620 -991 L -621 -993 L -619 -991 L -619 -992 M -617 -991 L -619 -992 L -618 -992 M -616 -993 L -615 -991 M -622 -995 L -616 -996 M -635 -993 L -630 -991 M -594 -997 L -592 -998 L -593 -999 L -591 -998 M -599 -999 L -593 -999 M -615 -997 L -605 -998 M -4708 -4022 L -4805 -3955">
</path>
<path fill="none" stroke-opacity="1.000" stroke="rgb(0,0,0)" stroke-linejoin="round" stroke-linecap="round" stroke-width="28.571998006975587" d="M -694 -1007 L -690 -1006 M -1047 -27 L -1023 -58 L -952 23 L -922 63 L -754 257 M -3730 -3424 L -4020 -3648 M -3365 -3082 L -3646 -3351 M -4739 -3694 L -4657 -3602 M -4514 -3338 L -4473 -3195 M -4600 -3516 L -4541 -3402 M -4411 -2717 L -4392 -2499 M -4369 -2279 L -4342 -2049 M -4451 -3071 L -4429 -2894 M -4310 -1829 L -4255 -1554 M -4190 -1371 L -4108 -1206 M -3807 -845 L -3680 -747 M -4038 -1097 L -3888 -919 M -2654 -2318 L -2919 -2572 M -1917 -1585 L -2154 -1830 M -1827 -1347 L -1933 -1255 L -1822 -1122 L -1749 -1160 M -1933 -1255 L -2143 -1476 M -2708 -1927 L -2265 -1588 M -681 -1005 L -690 -1006 M -668 -1000 L -670 -1001 M -668 -1003 L -666 -1002 L -652 -1000 M -662 -998 L -667 -1000 M -678 -1005 L -664 -1003 M -656 -997 L -652 -996 M -656 -997 L -662 -998 M -1362 -1163 L -1516 -1250 M -1191 -1084 L -1284 -1124 M -1161 -222 L -1421 -560 M -230 -371 L -383 -491 M -13 -217 L -142 -308 M -597 -684 L -698 -773 M -1602 -1308 L -1807 -1478 M -2288 -1963 L -2498 -2166 M -1706 -968 L -1497 -664 M -2999 -2665 L -3268 -2978 M -961 111 L -922 63 M -977 54 L -952 23 M 90 -1144 L -56 -1000">
</path>
</g>
</g>
<g transform="matrix(0.489990234375 0 0 0.489990234375 5460 4712)">
<g>
<path fill-opacity="1.000" fill="#9887DB" d="M -512 -1437 Q -579 -1437 -654 -1411 Q -751 -1378 -879 -1295 Q -1015 -1206 -1088 -1170 Q -1143 -1142 -1189 -1130 L -1196 -1128 Q -1385 -946 -1482 -701 Q -1679 -206 -1474 277 Q -1522 322 -1570 348 Q -1612 370 -1662 383 L -1746 466 L -1848 564 Q -2009 702 -2111 702 Q -2112 702 -2112 702 L -2112 702 Q -2019 720 -1973 803 Q -1936 873 -1963 1012 L -1965 1023 L -1840 1003 Q -1754 1003 -1722 1100 Q -1710 1136 -1699 1200 Q -1589 1171 -1446 1052 Q -1316 943 -1246 847 Q -1219 904 -1145 1132 Q -1103 1238 -1055 1316 Q -950 1384 -837 1437 Q -717 1494 -589 1533 Q -311 1620 -18 1628 Q 12 1629 41 1629 Q 299 1629 550 1566 L 561 1563 Q 702 1521 837 1461 Q 1086 1133 1238 753 Q 1389 372 1301 -52 Q 1213 -477 873 -609 Q 873 -609 873 -609 L 873 -609 L 566 -599 Q 453 -590 340 -590 Q 43 -590 -246 -650 Q -665 -736 -810 -1139 Q -696 -1326 -507 -1437 Q -509 -1437 -512 -1437 Z">
</path>
<path fill-opacity="1.000" fill="#403277" d="M -1246 847 Q -1316 943 -1446 1052 Q -1589 1171 -1699 1200 L -1688 1276 Q -1644 1232 -1553 1204 L -1397 1163 L -1344 1144 L -1304 1122 Q -1214 1206 -1114 1275 L -1055 1316 Q -1103 1238 -1145 1132 Q -1219 904 -1246 847 Z M 203 -1628 Q -170 -1628 -499 -1442 L -507 -1437 Q -696 -1326 -810 -1139 Q -665 -736 -246 -650 Q 44 -590 340 -590 Q 452 -590 566 -599 L 873 -609 Q 1213 -477 1301 -52 Q 1389 372 1238 753 Q 1086 1133 837 1461 Q 941 1414 1041 1357 Q 1275 1221 1473 1038 L 1504 1060 Q 1571 1105 1632 1125 L 1768 1171 Q 1752 1058 1868 1011 Q 1984 963 2097 875 L 2096 874 Q 2028 792 1933 741 Q 2014 696 2103 683 L 2103 672 Q 1833 633 1624 483 L 1581 451 L 1585 439 Q 1461 297 1434 244 L 1432 240 Q 1522 18 1560 -282 Q 1610 -670 1341 -1140 L 1328 -1133 L 1288 -1127 Q 1217 -1127 1135 -1202 Q 1086 -1247 1043 -1255 L 1043 -1255 Q 1043 -1255 1043 -1255 Q 845 -1563 389 -1617 Q 295 -1628 203 -1628 Z">
</path>
<path fill="none" stroke-opacity="1.000" stroke="rgb(0,0,0)" stroke-linejoin="round" stroke-linecap="round" stroke-width="28.571998006975587" d="M 1585 439 L 1624 483 M 2096 874 L 2111 876 M 1043 -1255 Q 1073 -1209 1097 -1156 Q 1156 -1026 1034 -894 M 902 -695 Q 924 -748 959 -799 M 936 -145 Q 910 -213 893 -272 M 861 -427 Q 856 -474 859 -513 Q 861 -560 873 -609 M -810 -1139 L -817 -1127 Q -834 -1074 -839 -1019 M 1043 -1255 Q 845 -1563 389 -1617 Q -89 -1674 -499 -1442 L -507 -1437 Q -696 -1326 -810 -1139 M 1851 861 L 1739 839 M 1655 816 L 1639 811 L 1596 798 M 2096 874 L 1948 868 M 1581 451 L 1585 439 M 1117 367 Q 1104 260 1067 158 M 1540 828 L 1545 810 L 1552 783 L 1574 664 M 1581 451 L 1581 557 M 1047 885 Q 1127 668 1124 467 M 561 1563 L 675 1471 M 1433 1007 Q 1485 954 1517 889 M 930 1139 L 1007 984 M 773 1368 L 858 1257 M 1021 51 L 974 -52 M -812 -776 L -832 -856 M -731 -580 Q -742 -618 -761 -655 L -767 -667 M -793 -127 Q -770 -184 -753 -243 M -737 -315 Q -726 -373 -721 -432 M -927 49 L -904 76 L -840 -28 M -983 129 L -963 156 L -941 126 L -904 76 L -898 85 L -855 145 M -963 156 L -952 168 L -895 217 M -1063 257 L -1035 279 Q -1006 215 -963 156 M -975 321 L -1023 288 L -1035 279 Q -1068 349 -1084 424 L -1078 424 L -999 425 M -1151 465 L -1093 471 L -1084 424 L -1127 417 M -1093 471 L -983 473 M -1386 901 L -1420 869 L -1446 843 M -1518 769 L -1560 723 L -1582 699 L -1593 687 M -1060 888 L -1088 752 M -1093 471 Q -1106 553 -1101 640 L -1094 641 Q -1040 646 -1015 641 M -1099 673 L -1101 640 L -1151 633 M -978 1143 L -1025 1011 M -837 1437 L -932 1253 M -1237 1019 L -1327 952 M -1963 1012 L -1802 916 L -1778 900 M -1645 623 L -1698 548 M -1711 852 L -1663 813 L -1596 756 M -1721 511 L -1746 466">
</path>
<path fill="none" stroke-opacity="1.000" stroke="rgb(0,0,0)" stroke-linejoin="round" stroke-linecap="round" stroke-width="40" d="M 1333 -1154 L 1341 -1140 Q 1610 -670 1560 -282 Q 1522 18 1432 240 M 1624 483 Q 1833 633 2103 672 L 2103 683 Q 2014 696 1933 741 Q 2028 792 2096 874 M 837 1461 Q 941 1414 1041 1357 Q 1275 1221 1473 1038 L 1433 1007 L 1354 938 M 1473 1038 L 1504 1060 Q 1571 1105 1632 1125 L 1768 1171 Q 1752 1058 1868 1011 Q 1984 963 2097 875 L 2096 874 M 1432 240 L 1371 372 M 1581 451 L 1566 438 M 837 1461 Q 702 1521 561 1563 L 550 1566 Q 270 1636 -18 1628 Q -311 1620 -589 1533 Q -717 1494 -837 1437 Q -950 1384 -1055 1316 L -1114 1275 Q -1214 1206 -1304 1122 L -1344 1144 L -1397 1163 L -1553 1204 Q -1644 1232 -1688 1276 L -1699 1200 Q -1710 1136 -1722 1100 Q -1754 1003 -1840 1003 L -1965 1023 L -1963 1012 Q -1936 873 -1973 803 Q -2019 720 -2112 702 Q -2010 703 -1848 564 L -1746 466 L -1662 383 L -1631 353 M 1624 483 L 1581 451 M -1474 277 Q -1679 -206 -1482 -701 Q -1385 -946 -1196 -1128 M -1453 325 L -1474 277 M -1304 1122 Q -1286 1110 -1273 1096 Q -1245 1065 -1237 1019 Q -1231 986 -1236 946">
</path>
</g>
</g>
<g transform="matrix(0.489990234375 0 0 0.489990234375 5486 4089)">
<g>
<path fill-opacity="1.000" fill="rgb(0,0,0)" d="M -1534 -1811 L -1557 -1764 Q -1590 -1691 -1605 -1604 Q -1635 -1435 -1629 -1260 Q -1625 -1129 -1579 -1018 Q -1535 -1128 -1507 -1267 Q -1479 -1407 -1484 -1523 Q -1489 -1639 -1502 -1700 L -1534 -1811 Z M 1821 -1693 Q 1768 -1636 1734 -1474 Q 1699 -1313 1677 -1134 Q 1655 -956 1665 -782 L 1711 -790 Q 1734 -797 1754 -812 Q 1795 -844 1815 -912 Q 1843 -1011 1858 -1123 Q 1871 -1222 1872 -1345 L 1869 -1429 L 1859 -1536 L 1858 -1548 L 1851 -1596 Q 1846 -1643 1823 -1691 L 1821 -1693 Z">
</path>
<path fill-opacity="1.000" fill="#403277" d="M 355 -3595 L 257 -3297 Q 234 -3209 234 -3033 Q 234 -2811 289 -2653 Q 314 -2581 404 -2403 L 531 -2387 L 530 -2390 L 535 -2386 Q 904 -2084 985 -1598 Q 1061 -1142 982 -687 Q 907 -253 649 108 Q 489 332 278 503 L 294 494 Q 441 412 517 344 L 607 265 L 685 215 Q 760 167 902 100 L 903 99 Q 1045 31 1189 -110 L 1197 -118 L 1261 -185 L 1294 -219 L 1358 -294 Q 1432 -378 1482 -475 Q 1524 -554 1548 -642 L 1563 -681 Q 1582 -722 1627 -729 L 1706 -723 L 1712 -726 Q 1735 -743 1743 -771 L 1754 -812 L 1754 -812 Q 1734 -797 1711 -790 L 1665 -782 Q 1663 -782 1662 -782 Q 1620 -782 1589 -808 Q 1541 -850 1540 -986 Q 1543 -1070 1560 -1194 Q 1577 -1319 1596 -1409 L 1616 -1515 L 1658 -1646 Q 1691 -1744 1747 -1744 Q 1752 -1744 1757 -1743 Q 1794 -1730 1821 -1693 L 1823 -1691 Q 1831 -1777 1821 -1810 L 1786 -1889 Q 1761 -1935 1704 -1956 L 1679 -1964 L 1618 -1968 Q 1492 -1831 1429 -1654 L 1402 -1579 Q 1357 -1712 1366 -1854 Q 1370 -1913 1400 -1963 Q 1309 -1971 1252 -2009 L 1243 -2016 L 1101 -2130 L 987 -2220 Q 939 -2254 873 -2288 L 833 -2329 Q 730 -2437 657 -2563 L 581 -2697 Q 534 -2780 488 -2894 Q 442 -3008 429 -3078 L 408 -3193 L 401 -3238 Q 394 -3289 390 -3339 L 389 -3344 L 384 -3403 L 383 -3431 L 381 -3454 L 377 -3480 L 373 -3507 L 370 -3530 L 365 -3556 L 355 -3595 Z">
</path>
<path fill-opacity="1.000" fill="#9887DB" d="M 1579 -1968 L 1505 -1964 L 1497 -1964 Q 1467 -1962 1439 -1962 Q 1418 -1962 1400 -1963 Q 1370 -1913 1366 -1854 Q 1357 -1712 1402 -1579 L 1429 -1654 Q 1492 -1831 1618 -1968 Z M 278 -3665 L 203 -3567 L 149 -3490 L 113 -3450 L 68 -3406 L -2 -3315 L -3 -3314 L -63 -3220 L -112 -3133 L -159 -3051 L -217 -2953 L -250 -2899 L -285 -2843 L -323 -2783 L -355 -2732 L -389 -2682 L -423 -2632 L -482 -2552 L -536 -2480 L -602 -2398 L -679 -2307 L -722 -2257 Q -895 -2192 -1047 -2106 Q -1200 -2021 -1303 -1941 L -1350 -1967 Q -1398 -1995 -1434 -1995 Q -1475 -1995 -1501 -1958 Q -1499 -1921 -1483 -1887 L -1458 -1831 L -1455 -1824 L -1446 -1803 L -1441 -1791 Q -1419 -1736 -1407 -1677 Q -1332 -1315 -1497 -1019 L -1527 -970 L -1543 -946 L -1553 -932 Q -1554 -871 -1512 -842 Q -1501 -834 -1486 -834 Q -1466 -834 -1438 -849 Q -1340 -790 -1328 -698 Q -1316 -607 -1308 -486 Q -1300 -365 -1199 -223 Q -1098 -81 -1038 -8 Q -978 64 -858 170 L -601 393 Q -534 451 -460 490 Q -384 529 -302 548 Q -203 571 -102 571 Q -66 571 -30 568 Q -14 569 3 569 Q 151 569 278 503 Q 489 332 649 108 Q 907 -253 982 -687 Q 1061 -1142 985 -1598 Q 904 -2084 535 -2386 L 531 -2387 L 404 -2403 Q 314 -2581 289 -2653 Q 234 -2811 234 -3033 Q 234 -3209 257 -3297 L 355 -3595 L 351 -3609 Q 341 -3647 278 -3665 Z">
</path>
<path fill-opacity="1.000" fill="rgb(255,255,255)" d="M -1483 -1887 Q -1512 -1852 -1534 -1811 L -1502 -1700 Q -1489 -1639 -1484 -1523 Q -1479 -1407 -1507 -1267 Q -1535 -1128 -1579 -1018 L -1543 -946 L -1527 -970 L -1497 -1019 Q -1332 -1315 -1407 -1677 Q -1419 -1736 -1441 -1791 L -1446 -1803 L -1455 -1824 L -1458 -1831 L -1483 -1887 Z M 1747 -1744 Q 1691 -1744 1658 -1646 L 1616 -1515 L 1596 -1409 Q 1577 -1319 1560 -1194 Q 1543 -1070 1540 -986 Q 1541 -850 1589 -808 Q 1620 -782 1662 -782 Q 1664 -782 1665 -782 Q 1655 -956 1677 -1134 Q 1699 -1313 1734 -1474 Q 1768 -1636 1821 -1693 Q 1794 -1730 1757 -1743 Q 1752 -1744 1747 -1744 Z">
</path>
<path fill="none" stroke-opacity="1.000" stroke="rgb(0,0,0)" stroke-linejoin="round" stroke-linecap="round" stroke-width="40" d="M 355 -3595 L 365 -3556 L 370 -3530 L 373 -3507 L 377 -3480 L 381 -3454 L 383 -3431 L 384 -3403 L 389 -3344 L 390 -3339 Q 394 -3289 401 -3238 L 408 -3193 L 429 -3078 Q 442 -3008 488 -2894 Q 534 -2780 581 -2697 L 657 -2563 Q 730 -2437 833 -2329 L 873 -2288 Q 939 -2254 987 -2220 L 1101 -2130 L 1243 -2016 L 1252 -2009 Q 1309 -1971 1400 -1963 Q 1444 -1960 1497 -1964 L 1505 -1964 L 1579 -1968 L 1618 -1968 L 1679 -1964 L 1704 -1956 Q 1761 -1935 1786 -1889 L 1821 -1810 Q 1831 -1777 1823 -1691 Q 1846 -1643 1851 -1596 L 1858 -1548 L 1859 -1536 L 1869 -1429 L 1872 -1345 Q 1871 -1222 1858 -1123 Q 1843 -1011 1815 -912 Q 1795 -844 1754 -812 L 1743 -771 Q 1735 -743 1712 -726 L 1706 -723 L 1627 -729 Q 1582 -722 1563 -681 L 1548 -642 Q 1524 -554 1482 -475 Q 1432 -378 1358 -294 L 1294 -219 L 1261 -185 L 1197 -118 L 1189 -110 Q 1045 31 903 99 M 902 100 Q 760 167 685 215 L 607 265 L 517 344 Q 441 412 294 494 L 278 503 Q 137 576 -30 568 Q -168 579 -302 548 Q -384 529 -460 490 Q -534 451 -601 393 L -858 170 Q -978 64 -1038 -8 Q -1098 -81 -1199 -223 Q -1300 -365 -1308 -486 Q -1316 -607 -1328 -698 Q -1340 -790 -1438 -849 Q -1486 -824 -1512 -842 Q -1554 -871 -1553 -932 L -1543 -946 L -1579 -1018 Q -1625 -1129 -1629 -1260 Q -1635 -1435 -1605 -1604 Q -1590 -1691 -1557 -1764 L -1534 -1811 Q -1512 -1852 -1483 -1887 Q -1499 -1921 -1501 -1958 Q -1453 -2027 -1350 -1967 L -1303 -1941 Q -1200 -2021 -1047 -2106 Q -895 -2192 -722 -2257 L -679 -2307 L -602 -2398 L -536 -2480 L -482 -2552 L -423 -2632 L -389 -2682 L -355 -2732 L -323 -2783 L -285 -2843 L -250 -2899 L -217 -2953 L -159 -3051 L -112 -3133 L -63 -3220 L -3 -3314 L -2 -3315 L 68 -3406 L 113 -3450 L 149 -3490 L 203 -3567 L 278 -3665 Q 341 -3647 351 -3609 L 355 -3595 M 404 -2403 L 531 -2387 M 404 -2403 L 303 -2409 M 535 -2386 L 604 -2374 L 705 -2351 Q 788 -2329 843 -2302 L 873 -2288 M 531 -2387 L 535 -2386 M 1821 -1693 Q 1794 -1730 1757 -1743 Q 1694 -1752 1658 -1646 L 1616 -1515 L 1596 -1409 Q 1577 -1319 1560 -1194 Q 1543 -1070 1540 -986 Q 1541 -850 1589 -808 Q 1621 -781 1665 -782 Q 1655 -956 1677 -1134 Q 1699 -1313 1734 -1474 Q 1768 -1636 1821 -1693 Z M 1665 -782 L 1711 -790 Q 1734 -797 1754 -812 M -421 -2348 Q -569 -2314 -722 -2257 M -421 -2348 L -383 -2356 Q -216 -2391 -45 -2399 M -1543 -946 L -1527 -970 L -1497 -1019 Q -1332 -1315 -1407 -1677 Q -1419 -1736 -1441 -1791 L -1446 -1803 L -1455 -1824 L -1458 -1831 L -1483 -1887 M -1534 -1811 L -1502 -1700 Q -1489 -1639 -1484 -1523 Q -1479 -1407 -1507 -1267 Q -1535 -1128 -1579 -1018 M -1303 -1941 Q -1238 -1898 -1173 -1832 M -1374 -896 Q -1410 -865 -1438 -849">
</path>
<path fill="none" stroke-opacity="1.000" stroke="rgb(0,0,0)" stroke-linejoin="round" stroke-linecap="round" stroke-width="28.571998006975587" d="M 903 99 L 902 100 M 531 -2387 L 530 -2390 L 488 -2489 M 390 -3339 Q 368 -3291 354 -3243 M 33 -3089 L 33 -3129 L 30 -3178 M 335 -3160 Q 327 -3116 326 -3072 M 424 -2650 L 452 -2578 M 363 -2816 L 370 -2796 L 393 -2733 M 705 -2351 L 790 -2266 M 856 -2191 L 898 -2141 M 328 -2982 L 341 -2899 M 11 -2890 L 29 -3014 M 1164 -1580 L 1204 -1592 L 1208 -1592 Q 1158 -1744 1076 -1883 L 1068 -1896 M 1310 -1429 L 1251 -1429 L 1263 -1364 L 1280 -1238 L 1307 -1245 L 1359 -1259 M 1211 -1429 L 1251 -1429 L 1239 -1484 L 1218 -1482 L 1179 -1476 M 1347 -1088 L 1290 -1084 L 1291 -999 L 1324 -999 M 1239 -999 L 1291 -999 L 1289 -939 L 1343 -942 M 1234 -1084 L 1276 -1084 L 1290 -1084 L 1287 -1147 L 1280 -1238 L 1229 -1221 M 1291 -1595 L 1208 -1592 L 1239 -1484 L 1315 -1486 M 1234 -939 L 1246 -939 L 1289 -939 L 1284 -856 M 1334 -684 L 1264 -690 L 1253 -631 M 1206 -704 L 1249 -694 L 1264 -690 L 1275 -762 M 1281 -477 L 1214 -477 L 1204 -446 M 1159 -491 L 1191 -480 L 1214 -477 L 1233 -544 M 1161 -337 L 1147 -307 Q 1045 -101 903 99 M 958 -2063 L 1015 -1980 M -56 -2702 L -34 -2748 L -16 -2792 M -161 -2553 Q -125 -2593 -96 -2636 M -802 -2036 L -772 -2069 L -711 -2128 M -541 -2262 L -421 -2348 M -654 -2175 L -601 -2218 M -370 -2376 L -317 -2413 M -274 -2446 L -209 -2503 M -1251 -770 Q -1302 -971 -1271 -1197 Q -1252 -1333 -1186 -1488 L -1153 -1558 M -1083 -1680 L -998 -1801 L -858 -1973 M -1189 -589 L -1183 -574 Q -1162 -589 -1141 -591 M -1046 -463 Q -1080 -456 -1117 -430 L -1118 -429 L -1095 -381 L -1092 -383 L -1032 -416 M -1159 -392 Q -1149 -409 -1118 -429 L -1140 -475 L -1144 -473 L -1183 -444 M -1068 -329 L -1095 -381 Q -1116 -369 -1123 -361 M -1183 -574 L -1140 -475 Q -1104 -499 -1074 -509 M -1183 -574 L -1219 -541 M -685 238 L -791 107 M -460 490 L -628 305 M 21 -3238 L -2 -3315 M -850 29 L -934 -94">
</path>
<path fill="none" stroke-opacity="1.000" stroke="rgb(0,0,0)" stroke-linejoin="round" stroke-linecap="round" stroke-width="60" d="M 1821 -1693 L 1823 -1691">
</path>
</g>
</g>
</g>
</g>
</g>
</svg>
