<?xml version="1.0" encoding="utf-8"?>
<!-- Generator: Adobe Illustrator 16.0.0, SVG Export Plug-In . SVG Version: 6.00 Build 0)  -->
<!DOCTYPE svg PUBLIC "-//W3C//DTD SVG 1.1//EN" "http://www.w3.org/Graphics/SVG/1.1/DTD/svg11.dtd">
<svg version="1.1" xmlns="http://www.w3.org/2000/svg" xmlns:xlink="http://www.w3.org/1999/xlink" x="0px" y="0px" width="7987px"
	 height="1080px" viewBox="0 0 7987 1080" enable-background="new 0 0 7987 1080" xml:space="preserve">
<g id="right_to_left">
	<path opacity="0.3" fill="#E21E42" d="M5692,56.021c273.759,107.589,602.166,93.508,918.498,53.68
		c172.426-21.71,323.454-48.716,502.468-33.733c191.237,16.005,378.661,43.376,574.137,34.444
		c165.541-7.564,318.219-47.94,482.429-55.29c-51.299,17.273-105.346,59.517-117.432,90.311
		c-23.921,60.95,86.244,102.077,126.082,152.839c-135.207-57.345-289.17-64.808-447.094-31.832
		c-96.629,20.177-193.791,46.906-298.202,53.301c-102.75,6.294-186.879-16.476-277.488-38.536
		c-192.764-46.931-370.486-57.381-564.86-9.228c-146.544,36.302-300.482,64.072-444.512,11.225
		c-88.945-32.636-155.992-51.834-265.839-57.421c-81.263-4.133-162.525-7.147-243.621-12.271
		c56.779-25.666,80.443-65.951,69.854-104.97C5699.822,84.232,5635.735,58.496,5644,39"/>
	<path opacity="0.2" fill="#EE1647" d="M5958.12,370.299c277.45,20.71,551.338,10.819,826.995-15.634
		c189.34-18.169,380.013-44.923,572.339-37.385c144.571,5.666,285.913,16.006,431.215,12.195
		c125.263-3.286,250.058-11.603,374.721-19.972c-58.883,49.935-117.16,98.187-141.658,160.982
		c-33.67,86.304,55.709,124.653,148.199,170.614c-164.22,5.061-297.629-8.752-439.299-66.352
		c-178.309-72.498-315.077-58.945-501.51-7.578c-235.407,64.859-463.743,93.783-708.684,34.09
		c-201.581-49.127-398.111-89.921-615.347-64.213c-121.623,14.393-377.369,82.613-482.368,9.824
		c64.966-42.107,110.021-58.711,108.953-124.556c-0.445-27.428-16.158-49.746-28.926-75.158
		c-40.118-79.844,76.01-20.487,123.672-9.017C5729.641,362.98,5849.967,362.227,5958.12,370.299z"/>
</g>
</svg>
