<?xml version="1.0" encoding="utf-8"?>
<!-- Generator: Adobe Illustrator 16.0.0, SVG Export Plug-In . SVG Version: 6.00 Build 0)  -->
<!DOCTYPE svg PUBLIC "-//W3C//DTD SVG 1.1//EN" "http://www.w3.org/Graphics/SVG/1.1/DTD/svg11.dtd">
<svg version="1.1" xmlns="http://www.w3.org/2000/svg" xmlns:xlink="http://www.w3.org/1999/xlink" x="0px" y="0px" width="7987px"
	 height="1080px" viewBox="0 0 7987 1080" enable-background="new 0 0 7987 1080" xml:space="preserve">
<g id="SoftServe">
	<g id="Layer_17">
		<g>
			<path fill="#E7ECEC" d="M6544.233,606.81c-16.789-23.903-8.942-42.813-40.346-59.036c2.937,13.589-1.714,25.801-13.507,32.623
				c-0.316-15.638,0.178-31.318-0.166-46.956c-0.71-32.295-11.993-42.425-20.559-67.044c-8.315-23.898-4.926-46.761,0.737-73.037
				c-42.927-6.931-12.491-36.597-28.451-57.737c-16.755-22.194-43.528-10.445-54.937,9.246c-1.586-17.36,1.253-33.519,2.123-50.699
				c2.688-53.057-11.962-137.287-86.5-112.561v6c-11.366,26.046-13.514,56.675-12.645,84.76
				c1.407,45.46,11.644,90.496,13.819,136.12c2.971,62.303-18.023,184.641,21.449,237.801
				c27.316,36.789,86.862,16.57,127.187,19.108c50.073,3.151,95.497,12.938,145.477,1.849
				C6585.679,637.73,6560.715,630.277,6544.233,606.81z"/>
			<path fill="#E7ECEC" d="M6866.6,526.591h-6c-7.168,23.669-37.453,47.704-38.414,71.206
				c-1.818,44.484,59.164,42.467,91.851,42.817c-7.831-17.401-27.171-36.369-32.469-53.24
				C6875.004,566.476,6890.08,542.142,6866.6,526.591z"/>
			<path fill="#E7ECEC" d="M7228.081,339.101l6-9c-32.917,17.064-15.52,91.646-38.51,124.267
				C7263.104,460.315,7280.28,346.458,7228.081,339.101z"/>
			<path fill="#E7ECEC" d="M7135.086,448.595c-12.94,24.785-21.22,53.633-26.878,80.804c15.195-3.867,30.6-10.013,46.15-13.569
				c0.784-20.472-2.536-49.986-14.772-64.235L7135.086,448.595z"/>
			<path fill="#E7ECEC" d="M7349.575,447.095l-3-3c-42.074,8.158-20.537,89.391,9.578,101.326
				c31.403,12.444,111.964-15.83,143.335-28.241c-11.384-6.951-24.043-11.649-37.209-13.596
				C7424.838,498.046,7325.49,524.532,7349.575,447.095z"/>
			<path fill="#E7ECEC" d="M7627.062,525.091l-1.5-10.5c-14.203,28.398-15.625,31.441-15.447,58.934
				c0.044,6.794,8.914,13.074,7.763,24.869c-0.391,3.993-20.058,19.833-23.659,24.187c25.718,11.742,89.837-6.222,90.426-38.599
				C7685.252,550.521,7637.885,549.198,7627.062,525.091z"/>
			<path fill="#E7ECEC" d="M7894.048,538.59h1.5c-35.227-14.306-64.258,9.178-98.803,13.721
				C7812.183,576.411,7912.928,573.834,7894.048,538.59z"/>
			<path fill="#E7ECEC" d="M7769.555,516.092v1.5c-11.449,3.549-20.982,11.98-25.307,22.528
				C7764.258,550.976,7795.723,527.634,7769.555,516.092z"/>
			<path fill="#E7ECEC" d="M5876.649,717.082c0.852-29.828,14.163-65.381-12.261-85.234c-60.529,2.063-113.018,11.49-175.238,10.244
				c-7.556-0.151-15.137-0.181-22.717-0.15c0.625,13.919,1.4,27.833,2.218,41.745c32.191,4.911,79.921-5.1,96.414,17.491
				c15.343,21.015-10.04,31.865,22.012,48.464c24.945,12.918,61.173,1.479,87.846,1.712c1.599-10.997,4.151-23.002,3.226-34.271
				H5876.649z"/>
		</g>
	</g>
	<path fill="#F3F4F4" d="M7893.481,536.763c2.375-0.423,4.832-0.599,7.39-0.459c33.184,1.801,32.391,22.912,33.898,42.102
		c1.441,18.334-14.554,16.632,6.015,34.704c0.009,0.007,0.018,0.014,0.026,0.022c14.459,12.672,52.843,11.67,62.344,25.331
		c12.047,17.322-19.737,39.28-17.854,52.358c5.501,38.196,5.387,86.179,116.818,71.693c4.429,4.041-4.218,9.442-1.762,13.958
		c35.216,12.382,27.99,0.48,31.208,23.92c7.167,1.286,23.061,0.418,28.086,2.793c-0.695,35.491-9.877,72.176-10.396,108.717
		c-164.973,25.698-340.613,29.61-510.424,42.207c-58.098,4.309-111.343,8.509-170.582,5.249c2.029-27.547-3.262-54.735,5.225-81.876
		c0.902-2.887,28.599-14.931,33.277-22.659c6.88-11.362,3.872-25.632,2.748-37.642c-2.473-26.423-1.654-52.144-2.349-76.93
		c-0.956-34.137-14.76-20.39,25.71-38.79c12.561-5.711,20.287,0.589,29.063-11.024c10.553-13.964-7.005-44.792,3.008-62.956
		c18.827-34.158,38.062-11.798,66.434-25.742c34.527-16.968,1.409-36.742-6.083-57.564c-21.1-58.644,134.463-122.55,105.028-10.775
		c0.014,0,0.027-0.001,0.041-0.003c10.455-0.655,24.517,3.235,34.127-0.672c5.969-2.426,0.629-15.201,8.671-18.471
		c14.624-5.945,34.659-17.051,48.961-1.612c12.904,13.928-20.496,38.292,11.378,47.517
		C7856.102,566.702,7871.151,540.746,7893.481,536.763z"/>
	<path fill="#F3F4F4" d="M7004.778,741.378c-0.72-0.734,14.638-11.584,8.813-18.186c-9.098-10.312-75.901,10.439-90.129-27.155
		c-10.331-27.301,39.611-61.289-14.562-79.25c-29.703-9.848-51.082,0.465-57.966-24.454c-5.532-20.026,33.599-39.772,22.783-60.694
		c-8.599-16.635-41.677-27.613-70.416-20.329c-38.854,9.848-30.94,41.632-46.74,60.156c-43.77,51.313-106.672-18.786-143.847,19.16
		c-9.329,9.521-3.542,24.73-12.378,35.204c-7.638,9.051-21.926,13.399-30.051,21.173c-43.94,42.03,38.558,133.945-114.21,116.095
		c-4.1,3.363,3.905,7.858,1.631,11.617c-32.603,10.303-25.913,0.398-28.893,19.904c-6.635,1.072-21.349,0.347-26.001,2.326
		c0.644,29.536,9.144,60.063,9.625,90.474c152.729,21.385,315.335,24.641,472.543,35.122c53.786,3.587,103.079,7.083,157.923,4.368
		c-1.879-22.926,3.019-45.549-4.836-68.136C6964.935,843.268,7035.122,772.271,7004.778,741.378z"/>
	<path fill="#F3F4F4" d="M6102.278,779.193c20.567-59.396-9.137-114.411-2.163-173.158c3.178-26.776,13.983-29.763,22.466-52.877
		c10.625-28.955,2.394-67.289,9.023-97.935c5.926-27.396,33.902-55.498,63.903-20.014c0.006,0.008,0.013,0.015,0.02,0.023
		c6.826,8.119,0.628,34.906,19.505,35.866c17.26,0.877,19.774-25.635,21.626-34.845c6.244-31.063-8.485-63.687-8.107-94.8
		c0.581-47.733,1.123-114.665,49.286-149.23c86.704-62.225,77.183,104.627,75.53,139.517c70.18-13.35,57.275-25.824,51.925,37.505
		c-1.661,19.659,3.034,44.11,12.182,62.31c4.175,8.306,9.297,20.916,18.312,26.768c7.646,4.963,29.402,1.451,32.264,4.056
		c14.884,13.555,6.088,26.839,4.855,44.418c-0.152,2.17,3.09,57.706,8.874,50.748c27.933-33.604,36.432,6.109,39.646,27.512
		c1.613,10.737-3.542,31.786,1.664,41.237c5.054,9.175,53.712,28.495,53.441,21.715c3.743,93.426,13.311,185.761,22.278,278.371
		c-70.265,35.684-141.226,63.314-213.854,80.553c-84.137,19.967-215.151,73.457-297.625,15.999
		c22.686-72.233-38.904-193.378,14.024-246.945"/>
	<path fill="#F3F4F4" d="M7534.24,761.968c-22.216-37.546,1.416-65.221,1.108-101.659c-0.257-30.413-25.353-24.549-37.266-50.682
		c-9.548-20.947,18.912-41.074,16.152-63.586c-10.935-89.212-113.752,10.582-150.04-30.243
		c-32.773-36.895,5.245-73.467,0.695-108.768c-3.875-30.072-33.256-20.243-54.647-42.706
		c-18.402-19.323,20.683-82.468-50.681-54.827c-62.459,24.207-14.597,72.69-30.979,107.93
		c-16.443,35.369-52.668,1.078-83.413,20.404c-30.226,18.999,8.863,54.093-28.573,80.121c-15.823,11-34.489,14.074-46.94,28.665
		c-10.697,12.537-9.791,28.618-21.438,40.975c-13.07,13.869-35.856,19.093-48.204,33.917c-11.839,14.214-7.711,35.646-28.963,44.567
		c-20.61,8.651-36.578-8.606-54.102,8.538c-23.495,22.986,3.208,63.242,9.197,86.64c8.068,31.521-15.004,49.427-13.713,79.799
		c2.021,47.54,66.215,49.235,111.731,57.875c52.474,9.963,101.787,22.964,155.154,30.376
		c105.642,14.671,270.139,53.974,373.691,11.757c-28.483-53.075,48.848-142.088-17.607-181.448"/>
	<path fill="#F3F4F4" d="M8165.471,1128.617c-0.798-65.4-1.863-130.797-2.477-196.199c-0.604-64.59-0.773-129.17,0.721-193.75
		c0.46-19.89,1.035-39.776,1.676-59.66c-44.52,8.575-90.425,26.152-111.763,39.748c-62.04,39.527-102.599,86.28-176.402,109.876
		c-187.428,59.922-400.799,53.347-595.041,54.286c-189.484,0.917-378.981-3.196-568.425-1.451
		c-94.921,0.875-189.207-7.996-284.024-8.761c-58.007-0.468-176.795,27.156-210.191-36.082
		c-24.428-46.257,0.044-131.469-89.478-98.916C6042.848,769.424,6000.644,712.452,5920,713c-10.101,0.069-22.104-1.906-32-0.207
		c-4.831,0.83-11.504,3.268-16.093,5.097c-5.921,2.361-9.195,8.048-15.21,9.901c-5.122-11.435-0.881-33.952-0.711-46.763
		c0.147-11.051-5.971-19.193-15.793-25.111c-7.769-4.68-27.501-5.243-36.414-3.109c-14.457,3.46-27.547,17.15-43.161,19.78
		c-0.963-3.568,0.936-8.895-0.319-11.901c-2.135-5.116-3.271-2.546-8.221-4.669c-8.92-3.826-17.759-7.796-27.189-6.113
		c-2.388,0.426-5.269,2.749-8.797,3.188c-3.858,0.479-8.306-1.114-12.093-0.3c-4.116,0.886-7.809,4.595-12,4.62
		c-5.006,0.03-10.135-4.478-15.409-5.11c-1.352-11.994-5.183-15.188-10.323-14.192c1.984,46.466,5.829,92.879,7.107,139.358
		c1.67,60.774,2.027,121.604,3.403,182.389c1.552,68.58,3.422,137.154,5.704,205.714c0.748,22.476,1.555,44.948,2.391,67.421
		c67.352-0.083,134.935-1.792,202.238-0.559c411.774,7.546,824.963-13.26,1237.802-3.635
		c311.31,7.258,654.689,44.819,959.777-34.943c29.39-7.684,56.604-17.193,81.18-28.767
		C8165.744,1152.932,8165.619,1140.774,8165.471,1128.617z"/>
	<path fill="#F3F4F4" d="M4602.832,1138.619c-0.002,0.002-0.004,0.004-0.005,0.006c-0.172,1.281-0.344,2.563-0.517,3.845
		C4602.476,1141.185,4602.659,1139.902,4602.832,1138.619z"/>
	<path fill="#EAF3F4" d="M6259.128,217.606c-4.815,6.207-8.278,14.336-8.768,22.611c7.781-3.226,17.841-2.021,26.761-7.762
		c4.205,18.406,20.653,21.417,36.046,10.548c11.222,20.202,11.187,46.358,16.678,70.371c2.003,1.323,5.001-0.789,7.052,0.453
		c4.077,31.563,9.295,62.982,12.453,95.542c2.012-0.293,8.061-0.431,10.011,0c5.319-19.958-5.5-47.245,16.5-54.705
		c9.316,44.246,7.127,117.65,69.104,122.129c-41.526-44.423-50.874-81.495-51.07-141.968c-14.828,2.909-30.77,5.998-46.049,2.552
		c-2.828-40.527,10.948-169.038-56.021-146.276c-13.648,4.639-26.195,19.586-34.196,31.003"/>
	<path fill="#EAF3F4" d="M6133.135,459.095c0.667-16.617,15.223-37.74,34.57-34.581c21.64,3.534,12.605,23.105,24.091,36.86
		c35.492,42.505,47.901-17.316,83.635,6.016c11.765,7.682,15.589,38.874,18.268,51.837c-21.671-42.487-32.82-24.161-66.601-22.152
		c-52.02,3.092-29.876-40.464-62.958-51.667c-15.578-5.275-25.931,7.096-29.583,22.823c0.332-2.023-1.395-10.966-1.422-15.136"/>
	<path fill="#EAF3F4" d="M6508.116,676.584c36.087-26.817,71.956-23.266,102.21-56.041c35.827-38.812,57.251-18.959,108.274-16.769
		c25.352,1.089,42.559,1.511,68.197,7.039c3.547,14.626,5.891,27.967,14.777,40.344c-21.431-11.851-26.153-29.015-51.131-31.102
		c-20.521-1.715-41.272,7.238-64.195,4.505c-50.856-6.064-69.742,27.507-118.746,41.548c-26.605,7.623-48.612,9.581-51.555,43.359
		c-1.595-11.834-5.094-23.006-7.833-34.384"/>
	<path fill="#EAF3F4" d="M6788.602,561.09c-36.711-34.992,39.765-59.376,63.282-38.239c22.271,20.017,1.822,20.431-2.626,41.498
		c-5.272,24.971-0.485,22.991,3.297,48.022c3.41,22.57,0.77,39.504-3.955,62.26c0-0.83,0-1.659,0-2.488
		c3.848-32.982-14.708-43.528-21.16-70.166c-5.104-21.073,17.191-61.293-15.728-63.149c-11.634-0.656-24.924,14.917-30.609,23.762"
		/>
	<path fill="#EAF3F4" d="M7238.579,351.1c3.244-21.249,28.281-42.565,52.235-32.737c-0.15,26.172,0.168,36.941,16.283,55.981
		c17.212,20.335,29.578,14.932,34.944,43.028c3.631,19.009-7.825,42.199-5.932,62.249c2.979,31.553,14.992,30.515,31.521,51.841
		c14.152,18.261,19.999,26.695,15.024,56.177c-2.245-39.201-43.024-43.5-59.931-73.2c-8.579-15.07-2.41-79.854-30.767-71.594
		c-9.603,2.797-13.669,31.212-15.958,39.716c4.57-35.07-63.092-115.456-29.921-140.462"/>
	<path fill="#EAF3F4" d="M7706.556,490.593c-41.519-16.45-61.618,25.136-59.513,58.638c0.928,14.778,16.035,35.058,9.73,50.01
		c-7.932,18.811-27.793,9.951-37.577,23.455c-10.315,14.236-5.757,37.917-2.601,54.103c-0.042,1.109-0.054,1.109-0.035,0
		c-7.453-45.625,44.742-38.621,54.197-75.66c4.379-17.152-13.57-31.729,0.97-48.769c11.522-13.503,32.552-1.1,43.062-16.449
		c11.442-16.708,1.957-42.716-17.232-45.328"/>
	<path fill="#EAF3F4" d="M7726.055,594.088c-3.752-37.809,7.963-50.028,44.771-45.225c-2.483-19.191,14.18-25.016,31.463-28.123
		c4.06,33.606-4.489,54.209,37.747,50.845c19.339-1.54,55.557-34.001,55.583,9.977c-51.263-33.525-32.391,64.176-42.153,84.735
		c0.056,1.109,0.11,1.109,0.166,0c-4.297-40.662-6.594-52.271-39.427-73.994c-23.892-15.808-50.678-33.376-72.857-2.286
		c-8.617,12.078-7.677,31.516-6.627,45.615c-2.839-14.86-3.817-31.24-5.666-46.045"/>
	<path fill="#EAF3F4" d="M5742.69,722.838c14.591-24.631,37.14-48.509,66.231-50.541c12.462,38.783-7.367,146.372,40.873,161.696
		c-62.38,2.635-20.285-156.541-89.102-120.156"/>
	<path fill="#EAF3F4" d="M5904.706,782.844c68.776-71.51,218.629,22.807,266.418-59.697c-2.751,60.973-66.237,62.279-113.88,62.948
		c-44.123,0.619-99.462-40.302-140.537-21.253"/>
	<path fill="#EAF3F4" d="M8164.422,711.095c-36.057,8.224-77.691,49.721-102.008,65.69c-53.371,35.052-90.192,9.189-140.599,20.836
		c66.647,80.622,168.968-20.649,241.995-62.772C8164,726.931,8164.203,719.013,8164.422,711.095z"/>
</g>
</svg>
