<?xml version="1.0" encoding="utf-8"?>
<!DOCTYPE svg PUBLIC "-//W3C//DTD SVG 1.1//EN" "http://www.w3.org/Graphics/SVG/1.1/DTD/svg11.dtd">
<svg version="1.1" xmlns="http://www.w3.org/2000/svg" xmlns:xlink="http://www.w3.org/1999/xlink" viewBox="0 0 30000 20000">

<g enable-background="new">

<g>

<g>

<g transform="matrix(-0.489990234375 0 0 0.489990234375 15497 11138)">

<g>

<path fill-opacity="1.000" fill="#24894B" d="M -18320 -6278 Q -18515 -6207 -18726 -6099 Q -18943 -5981 -19100 -5646 L -19097 -5627 L -19011 -5645 Q -18674 -5713 -18341 -5812 Q -18425 -5993 -18320 -6278 Z M -19530 -5939 Q -19720 -5868 -19902 -5785 Q -20797 -5379 -21387 -4924 Q -21341 -4919 -21287 -4919 Q -21245 -4919 -21198 -4922 Q -21157 -4940 -21116 -4961 Q -20452 -5273 -19516 -5524 Q -19657 -5694 -19530 -5939 Z M -14836 -6980 Q -15386 -6980 -15846 -6909 Q -17576 -6588 -17506 -6403 Q -17821 -6164 -17844 -5940 Q -17258 -6091 -16612 -6178 Q -15810 -6290 -14970 -6290 Q -14653 -6290 -14331 -6274 Q -13109 -6202 -11974 -6069 Q -11577 -6010 -11223 -5895 Q -10359 -5616 -9650 -5304 Q -8625 -5016 -7839 -4355 Q -7334 -3933 -6997 -3266 Q -6588 -2444 -6262 -1546 Q -6137 -1215 -5935 -1004 Q -5622 -1145 -5321 -1265 Q -4510 -1571 -3703 -1672 Q -3270 -1725 -2829 -1725 Q -2446 -1725 -2057 -1685 Q -2930 -2068 -3742 -2587 Q -4496 -3061 -5221 -3583 L -6736 -4678 Q -7420 -5167 -8175 -5471 L -8363 -5543 L -8363 -5543 Q -8363 -5543 -8363 -5543 Q -9188 -5848 -9668 -5992 L -9684 -5997 L -9883 -6065 L -10480 -6273 Q -13104 -6980 -14836 -6980 Z M -14003 -4558 Q -13682 -4013 -13112 -3784 Q -11840 -3280 -10824 -2635 Q -10234 -2277 -9627 -2054 L -9356 -1846 L -9156 -1689 Q -8730 -1401 -8360 -997 L -8267 -897 L -8213 -843 Q -7756 -595 -7463 -82 L -7427 -21 L -7378 33 Q -7179 257 -7000 477 L -6963 484 Q -6724 579 -6516 761 Q -6195 681 -5882 628 Q -5830 666 -5781 687 Q -5730 668 -5546 656 Q -5286 639 -5270 618 L -5235 584 L -5194 539 L -4552 510 L -4416 542 Q -4357 551 -4306 568 Q -4234 587 -4168 587 Q -4089 587 -4019 560 Q -3993 550 -3966 532 L -3930 534 Q -3619 559 -3316 607 Q -3162 628 -3011 660 Q -3810 148 -4660 119 Q -4710 118 -4760 118 Q -5509 118 -6221 456 Q -6443 111 -6685 -190 L -6818 -359 L -6826 -383 L -6855 -472 L -6935 -707 Q -6988 -869 -7056 -1038 Q -7180 -1375 -7324 -1707 Q -7467 -1936 -7561 -2212 L -7581 -2281 L -7689 -2502 L -7714 -2552 Q -7811 -2834 -7979 -3056 L -8021 -3111 L -8033 -3133 L -8064 -3185 Q -8134 -3304 -8211 -3422 Q -8303 -3565 -8402 -3703 L -8497 -3837 Q -8640 -3956 -8807 -4035 L -8973 -4112 L -8973 -4112 Q -8324 -3173 -8031 -1958 Q -7985 -1783 -7951 -1607 Q -8748 -2613 -9776 -3166 Q -10844 -3725 -12219 -4207 Q -13075 -4492 -14003 -4557 Z">

</path>

<path fill-opacity="1.000" fill="#24B151" d="M -18320 -6278 Q -18425 -5993 -18341 -5812 Q -18674 -5713 -19011 -5645 L -19097 -5627 L -19100 -5646 Q -18943 -5981 -18726 -6099 Q -18515 -6207 -18320 -6278 Z M -516 -1579 Q -518 -1579 -472 -1554 L -477 -1561 Q -514 -1579 -516 -1579 Z M -14836 -6980 Q -13104 -6980 -10480 -6273 L -9883 -6065 L -9684 -5997 L -9668 -5992 Q -9188 -5848 -8363 -5543 L -8175 -5471 Q -7420 -5167 -6736 -4678 L -5221 -3583 Q -4496 -3061 -3742 -2587 Q -2930 -2068 -2057 -1685 Q -2446 -1725 -2829 -1725 Q -3270 -1725 -3703 -1672 Q -4510 -1571 -5321 -1265 Q -5622 -1145 -5935 -1004 Q -6137 -1215 -6262 -1546 Q -6588 -2444 -6997 -3266 Q -7334 -3933 -7839 -4355 Q -8625 -5016 -9650 -5304 Q -10359 -5616 -11223 -5895 Q -11577 -6010 -11974 -6069 Q -13109 -6202 -14331 -6274 Q -14653 -6290 -14970 -6290 Q -15810 -6290 -16612 -6178 Q -17258 -6091 -17844 -5940 Q -17821 -6164 -17506 -6403 Q -17576 -6588 -15846 -6909 Q -15386 -6980 -14836 -6980 Z M -6221 455 Q -6221 455 -6221 455 Q -6221 455 -6221 455 Z M -14003 -4558 Q -13075 -4493 -12219 -4208 Q -10844 -3726 -9776 -3167 Q -8748 -2614 -7951 -1608 Q -7985 -1784 -8031 -1959 Q -8324 -3174 -8973 -4113 L -8973 -4113 L -8807 -4036 Q -8640 -3957 -8497 -3838 L -8402 -3704 Q -8303 -3566 -8211 -3423 Q -8134 -3305 -8064 -3186 L -8033 -3134 L -8021 -3112 L -7979 -3057 Q -7811 -2835 -7714 -2553 L -7689 -2503 L -7581 -2282 L -7561 -2213 Q -7467 -1937 -7324 -1708 Q -7180 -1376 -7056 -1039 Q -6988 -870 -6935 -708 L -6855 -473 L -6826 -384 L -6818 -360 L -6685 -191 Q -6443 110 -6221 455 Q -5508 118 -4760 118 Q -4710 118 -4660 120 Q -3810 149 -3011 661 Q -3162 629 -3316 608 Q -3619 560 -3930 535 L -3966 533 Q -3993 551 -4019 561 Q -4090 588 -4168 588 Q -4234 588 -4306 569 Q -4357 552 -4416 543 L -4552 511 L -5194 540 L -5235 585 L -5270 619 Q -5286 640 -5546 657 Q -5730 669 -5781 688 Q -5830 667 -5882 629 Q -6195 682 -6516 762 Q -6724 580 -6963 485 L -7000 478 Q -7179 258 -7378 34 L -7427 -20 L -7463 -81 Q -7756 -594 -8213 -842 L -8267 -896 L -8360 -996 Q -8730 -1400 -9156 -1688 L -9356 -1845 L -9627 -2053 Q -10234 -2276 -10824 -2634 Q -11840 -3279 -13112 -3783 Q -13682 -4012 -14003 -4557 Z M -14273 -7659 Q -14291 -7659 -14310 -7659 Q -16408 -7584 -17477 -7113 Q -18514 -6670 -18914 -6507 Q -21276 -5275 -21387 -4923 Q -20797 -5378 -19902 -5784 Q -19720 -5867 -19530 -5938 L -19530 -5938 Q -19657 -5693 -19516 -5523 Q -20452 -5272 -21116 -4960 Q -21157 -4939 -21198 -4921 L -20375 -5019 Q -19724 -5100 -18984 -5100 Q -18459 -5100 -17890 -5059 Q -16477 -5047 -14347 -3966 Q -12298 -2750 -10773 -1918 Q -8723 -920 -7808 166 Q -7598 397 -7260 855 Q -6991 1205 -6774 1383 Q -6669 1347 -6235 1163 Q -5887 1020 -5622 953 Q -5232 856 -4777 856 Q -4291 856 -3733 967 Q -3381 1034 -3032 1128 Q -2304 1321 -1555 1594 Q -995 1787 -646 1932 L -347 1323 Q -143 901 -63 479 Q 51 -107 -83 -653 Q -190 -1091 -448 -1515 Q -599 -1578 -932 -1725 Q -1711 -2070 -2713 -2568 Q -4826 -3516 -6818 -5191 L -6989 -5321 L -7068 -5331 L -7186 -5352 Q -7432 -5424 -7701 -5612 Q -8802 -6409 -10426 -6982 Q -12169 -7659 -14273 -7659 Z">

</path>

<path fill="none" stroke-opacity="1.000" stroke="rgb(0,0,0)" stroke-linejoin="round" stroke-linecap="round" stroke-width="28.571998006975587" d="M -9668 -5992 L -9684 -5997 M -11974 -6069 L -12265 -6165 M -2057 -1685 L -2049 -1684 L -1967 -1672 M -1916 -1663 L -1705 -1639 M -8950 -4364 Q -9121 -4533 -9300 -4686 L -9301 -4686 Q -9328 -4647 -9355 -4619 M -9188 -4779 Q -9256 -4739 -9300 -4686 Q -9503 -4855 -9726 -5004 M -9627 -2054 Q -9721 -2124 -9819 -2190 L -10345 -2532 M -6509 -4235 L -6763 -4470 Q -6980 -4664 -7212 -4837 M -11974 -6069 L -11870 -6033 M -7638 -5135 Q -8003 -5371 -8363 -5543 M -8736 -5708 Q -9204 -5896 -9668 -5992 M -10061 -5213 L -10303 -5351 L -10355 -5379 L -10393 -5351 L -10415 -5327 M -10296 -5417 L -10355 -5379 Q -10522 -5468 -10697 -5552 M -11031 -5704 Q -11260 -5806 -11505 -5899 M -11771 -3379 Q -12108 -3566 -12489 -3764 M -10659 -2728 Q -11013 -2946 -11431 -3188 M -8021 -3112 L -8033 -3134 L -8064 -3186 Q -8134 -3305 -8211 -3423 Q -8239 -3407 -8271 -3394 Q -8300 -3380 -8332 -3378 M -7689 -2503 Q -7700 -2493 -7714 -2487 L -7733 -2472 M -7714 -2553 L -7808 -2734 M -7689 -2503 L -7714 -2553 M -7324 -1708 L -7415 -1925 M -7689 -2503 L -7581 -2282 M -7611 -2546 L -7689 -2503 M -8402 -3704 L -8497 -3838 Q -8567 -3932 -8644 -4022 M -8326 -3757 Q -8362 -3729 -8402 -3704 Q -8303 -3566 -8211 -3423 Q -8152 -3452 -8101 -3493 M -8402 -3704 Q -8421 -3691 -8443 -3681 Q -8458 -3672 -8473 -3666 M -9156 -1689 L -9356 -1846 M -7378 33 Q -7179 257 -7000 477 M -6516 761 Q -6195 681 -5882 628 L -5801 615 M -8267 -897 L -8488 -1107 M -8723 -1319 Q -8930 -1508 -9156 -1689 M -7427 -21 L -7580 -190 M -6935 -708 L -7007 -712 L -7036 -716 M -6855 -473 L -6949 -488 L -6966 -481 M -6818 -360 L -6751 -145 M -6855 -473 L -6792 -459 M -6818 -360 L -6826 -384 L -6855 -473 L -6935 -708 Q -6988 -870 -7056 -1039 Q -7180 -1376 -7324 -1708 M -6834 -687 L -6935 -708 M -7911 -541 Q -8054 -692 -8213 -843 M -3686 -2240 Q -3471 -2130 -3267 -2056 L -2990 -1958 M -5956 -3865 L -5233 -3279 M -4925 -3042 Q -4459 -2687 -4048 -2439 M -2502 -1803 Q -2262 -1732 -2057 -1685 M -3011 660 Q -3162 628 -3316 607 Q -3619 559 -3930 534 M -4552 510 L -5194 539 M -4426 511 L -4552 510 M -3930 534 L -4064 525 M -5194 539 L -5369 556 M -6516 761 L -6573 776 M -7000 477 L -6890 611 M -15464 -4932 Q -15792 -5016 -16132 -5083 M -14203 -4534 Q -14608 -4685 -15041 -4815 M -14089 -6625 Q -14452 -6696 -14830 -6751 M -16490 -5148 Q -16748 -5190 -17018 -5220 M -12698 -6295 Q -13169 -6429 -13675 -6539 M -12942 -3990 Q -13319 -4171 -13732 -4348">

</path>

<path fill="none" stroke-opacity="1.000" stroke="rgb(0,0,0)" stroke-linejoin="round" stroke-linecap="round" stroke-width="40" d="M -10480 -6273 Q -13937 -7205 -15846 -6909 Q -17576 -6588 -17506 -6403 Q -17821 -6164 -17844 -5940 M -21198 -4922 L -20375 -5020 Q -19261 -5158 -17890 -5060 Q -16477 -5048 -14347 -3967 Q -12298 -2751 -10773 -1919 Q -8723 -921 -7808 165 Q -7598 396 -7260 854 Q -6991 1204 -6774 1382 Q -6669 1346 -6235 1162 Q -5887 1019 -5622 952 Q -4814 751 -3733 966 Q -3381 1033 -3032 1127 Q -2304 1320 -1555 1593 Q -995 1786 -646 1931 L -347 1322 Q -143 900 -63 478 Q 51 -108 -83 -654 Q -190 -1092 -448 -1516 Q -599 -1579 -932 -1726 Q -1711 -2071 -2713 -2569 Q -4826 -3517 -6818 -5192 L -6989 -5322 L -7068 -5332 L -7186 -5353 Q -7432 -5425 -7701 -5613 Q -8802 -6410 -10426 -6983 Q -12184 -7666 -14310 -7660 Q -16408 -7585 -17477 -7114 Q -18514 -6671 -18914 -6508 Q -19394 -6206 -19530 -5939 Q -19657 -5694 -19516 -5524 Q -19444 -5438 -19311 -5363 Q -19105 -5246 -18758 -5236 Q -18838 -5301 -18950 -5354 Q -19054 -5403 -19097 -5627 L -19100 -5646 Q -18943 -5981 -18726 -6099 Q -18515 -6207 -18320 -6278 Q -18425 -5993 -18341 -5812 Q -18200 -5524 -17647 -5316 Q -17515 -5262 -17367 -5227 Q -17866 -5634 -17844 -5940 M -448 -1516 L -472 -1554 Q -557 -1601 -477 -1561 L -472 -1554 M -21198 -4922 Q -21305 -4915 -21387 -4924 Q -21276 -5276 -18914 -6508">

</path>

<path fill="none" stroke-opacity="1.000" stroke="rgb(0,0,0)" stroke-linejoin="round" stroke-linecap="round" stroke-width="28.571998006975587" d="M -1967 -1672 L -1916 -1663">

</path>

</g>

</g>

<g transform="matrix(0.489990234375 0 0 0.489990234375 14397 11138)">

<g>

<path fill-opacity="1.000" fill="#24894B" d="M -18320 -6278 Q -18515 -6207 -18726 -6099 Q -18943 -5981 -19100 -5646 L -19097 -5627 L -19011 -5645 Q -18674 -5713 -18341 -5812 Q -18425 -5993 -18320 -6278 Z M -19530 -5939 Q -19720 -5868 -19902 -5785 Q -20797 -5379 -21387 -4924 Q -21341 -4919 -21287 -4919 Q -21245 -4919 -21198 -4922 Q -21157 -4940 -21116 -4961 Q -20452 -5273 -19516 -5524 Q -19657 -5694 -19530 -5939 Z M -14836 -6980 Q -15386 -6980 -15846 -6909 Q -17576 -6588 -17506 -6403 Q -17821 -6164 -17844 -5940 Q -17258 -6091 -16612 -6178 Q -15810 -6290 -14970 -6290 Q -14653 -6290 -14331 -6274 Q -13109 -6202 -11974 -6069 Q -11577 -6010 -11223 -5895 Q -10359 -5616 -9650 -5304 Q -8625 -5016 -7839 -4355 Q -7334 -3933 -6997 -3266 Q -6588 -2444 -6262 -1546 Q -6137 -1215 -5935 -1004 Q -5622 -1145 -5321 -1265 Q -4510 -1571 -3703 -1672 Q -3270 -1725 -2829 -1725 Q -2446 -1725 -2057 -1685 Q -2930 -2068 -3742 -2587 Q -4496 -3061 -5221 -3583 L -6736 -4678 Q -7420 -5167 -8175 -5471 L -8363 -5543 L -8363 -5543 Q -8363 -5543 -8363 -5543 Q -9188 -5848 -9668 -5992 L -9684 -5997 L -9883 -6065 L -10480 -6273 Q -13104 -6980 -14836 -6980 Z M -14003 -4558 Q -13682 -4013 -13112 -3784 Q -11840 -3280 -10824 -2635 Q -10234 -2277 -9627 -2054 L -9356 -1846 L -9156 -1689 Q -8730 -1401 -8360 -997 L -8267 -897 L -8213 -843 Q -7756 -595 -7463 -82 L -7427 -21 L -7378 33 Q -7179 257 -7000 477 L -6963 484 Q -6724 579 -6516 761 Q -6195 681 -5882 628 Q -5830 666 -5781 687 Q -5730 668 -5546 656 Q -5286 639 -5270 618 L -5235 584 L -5194 539 L -4552 510 L -4416 542 Q -4357 551 -4306 568 Q -4234 587 -4168 587 Q -4089 587 -4019 560 Q -3993 550 -3966 532 L -3930 534 Q -3619 559 -3316 607 Q -3162 628 -3011 660 Q -3810 148 -4660 119 Q -4710 118 -4760 118 Q -5509 118 -6221 456 Q -6443 111 -6685 -190 L -6818 -359 L -6826 -383 L -6855 -472 L -6935 -707 Q -6988 -869 -7056 -1038 Q -7180 -1375 -7324 -1707 Q -7467 -1936 -7561 -2212 L -7581 -2281 L -7689 -2502 L -7714 -2552 Q -7811 -2834 -7979 -3056 L -8021 -3111 L -8033 -3133 L -8064 -3185 Q -8134 -3304 -8211 -3422 Q -8303 -3565 -8402 -3703 L -8497 -3837 Q -8640 -3956 -8807 -4035 L -8973 -4112 L -8973 -4112 Q -8324 -3173 -8031 -1958 Q -7985 -1783 -7951 -1607 Q -8748 -2613 -9776 -3166 Q -10844 -3725 -12219 -4207 Q -13075 -4492 -14003 -4557 Z">

</path>

<path fill-opacity="1.000" fill="#24B151" d="M -18320 -6278 Q -18425 -5993 -18341 -5812 Q -18674 -5713 -19011 -5645 L -19097 -5627 L -19100 -5646 Q -18943 -5981 -18726 -6099 Q -18515 -6207 -18320 -6278 Z M -516 -1579 Q -518 -1579 -472 -1554 L -477 -1561 Q -514 -1579 -516 -1579 Z M -14836 -6980 Q -13104 -6980 -10480 -6273 L -9883 -6065 L -9684 -5997 L -9668 -5992 Q -9188 -5848 -8363 -5543 L -8175 -5471 Q -7420 -5167 -6736 -4678 L -5221 -3583 Q -4496 -3061 -3742 -2587 Q -2930 -2068 -2057 -1685 Q -2446 -1725 -2829 -1725 Q -3270 -1725 -3703 -1672 Q -4510 -1571 -5321 -1265 Q -5622 -1145 -5935 -1004 Q -6137 -1215 -6262 -1546 Q -6588 -2444 -6997 -3266 Q -7334 -3933 -7839 -4355 Q -8625 -5016 -9650 -5304 Q -10359 -5616 -11223 -5895 Q -11577 -6010 -11974 -6069 Q -13109 -6202 -14331 -6274 Q -14653 -6290 -14970 -6290 Q -15810 -6290 -16612 -6178 Q -17258 -6091 -17844 -5940 Q -17821 -6164 -17506 -6403 Q -17576 -6588 -15846 -6909 Q -15386 -6980 -14836 -6980 Z M -6221 455 Q -6221 455 -6221 455 Q -6221 455 -6221 455 Z M -14003 -4558 Q -13075 -4493 -12219 -4208 Q -10844 -3726 -9776 -3167 Q -8748 -2614 -7951 -1608 Q -7985 -1784 -8031 -1959 Q -8324 -3174 -8973 -4113 L -8973 -4113 L -8807 -4036 Q -8640 -3957 -8497 -3838 L -8402 -3704 Q -8303 -3566 -8211 -3423 Q -8134 -3305 -8064 -3186 L -8033 -3134 L -8021 -3112 L -7979 -3057 Q -7811 -2835 -7714 -2553 L -7689 -2503 L -7581 -2282 L -7561 -2213 Q -7467 -1937 -7324 -1708 Q -7180 -1376 -7056 -1039 Q -6988 -870 -6935 -708 L -6855 -473 L -6826 -384 L -6818 -360 L -6685 -191 Q -6443 110 -6221 455 Q -5508 118 -4760 118 Q -4710 118 -4660 120 Q -3810 149 -3011 661 Q -3162 629 -3316 608 Q -3619 560 -3930 535 L -3966 533 Q -3993 551 -4019 561 Q -4090 588 -4168 588 Q -4234 588 -4306 569 Q -4357 552 -4416 543 L -4552 511 L -5194 540 L -5235 585 L -5270 619 Q -5286 640 -5546 657 Q -5730 669 -5781 688 Q -5830 667 -5882 629 Q -6195 682 -6516 762 Q -6724 580 -6963 485 L -7000 478 Q -7179 258 -7378 34 L -7427 -20 L -7463 -81 Q -7756 -594 -8213 -842 L -8267 -896 L -8360 -996 Q -8730 -1400 -9156 -1688 L -9356 -1845 L -9627 -2053 Q -10234 -2276 -10824 -2634 Q -11840 -3279 -13112 -3783 Q -13682 -4012 -14003 -4557 Z M -14273 -7659 Q -14291 -7659 -14310 -7659 Q -16408 -7584 -17477 -7113 Q -18514 -6670 -18914 -6507 Q -21276 -5275 -21387 -4923 Q -20797 -5378 -19902 -5784 Q -19720 -5867 -19530 -5938 L -19530 -5938 Q -19657 -5693 -19516 -5523 Q -20452 -5272 -21116 -4960 Q -21157 -4939 -21198 -4921 L -20375 -5019 Q -19724 -5100 -18984 -5100 Q -18459 -5100 -17890 -5059 Q -16477 -5047 -14347 -3966 Q -12298 -2750 -10773 -1918 Q -8723 -920 -7808 166 Q -7598 397 -7260 855 Q -6991 1205 -6774 1383 Q -6669 1347 -6235 1163 Q -5887 1020 -5622 953 Q -5232 856 -4777 856 Q -4291 856 -3733 967 Q -3381 1034 -3032 1128 Q -2304 1321 -1555 1594 Q -995 1787 -646 1932 L -347 1323 Q -143 901 -63 479 Q 51 -107 -83 -653 Q -190 -1091 -448 -1515 Q -599 -1578 -932 -1725 Q -1711 -2070 -2713 -2568 Q -4826 -3516 -6818 -5191 L -6989 -5321 L -7068 -5331 L -7186 -5352 Q -7432 -5424 -7701 -5612 Q -8802 -6409 -10426 -6982 Q -12169 -7659 -14273 -7659 Z">

</path>

<path fill="none" stroke-opacity="1.000" stroke="rgb(0,0,0)" stroke-linejoin="round" stroke-linecap="round" stroke-width="28.571998006975587" d="M -9668 -5992 L -9684 -5997 M -11974 -6069 L -12265 -6165 M -2057 -1685 L -2049 -1684 L -1967 -1672 M -1916 -1663 L -1705 -1639 M -8950 -4364 Q -9121 -4533 -9300 -4686 L -9301 -4686 Q -9328 -4647 -9355 -4619 M -9188 -4779 Q -9256 -4739 -9300 -4686 Q -9503 -4855 -9726 -5004 M -9627 -2054 Q -9721 -2124 -9819 -2190 L -10345 -2532 M -6509 -4235 L -6763 -4470 Q -6980 -4664 -7212 -4837 M -11974 -6069 L -11870 -6033 M -7638 -5135 Q -8003 -5371 -8363 -5543 M -8736 -5708 Q -9204 -5896 -9668 -5992 M -10061 -5213 L -10303 -5351 L -10355 -5379 L -10393 -5351 L -10415 -5327 M -10296 -5417 L -10355 -5379 Q -10522 -5468 -10697 -5552 M -11031 -5704 Q -11260 -5806 -11505 -5899 M -11771 -3379 Q -12108 -3566 -12489 -3764 M -10659 -2728 Q -11013 -2946 -11431 -3188 M -8021 -3112 L -8033 -3134 L -8064 -3186 Q -8134 -3305 -8211 -3423 Q -8239 -3407 -8271 -3394 Q -8300 -3380 -8332 -3378 M -7689 -2503 Q -7700 -2493 -7714 -2487 L -7733 -2472 M -7714 -2553 L -7808 -2734 M -7689 -2503 L -7714 -2553 M -7324 -1708 L -7415 -1925 M -7689 -2503 L -7581 -2282 M -7611 -2546 L -7689 -2503 M -8402 -3704 L -8497 -3838 Q -8567 -3932 -8644 -4022 M -8326 -3757 Q -8362 -3729 -8402 -3704 Q -8303 -3566 -8211 -3423 Q -8152 -3452 -8101 -3493 M -8402 -3704 Q -8421 -3691 -8443 -3681 Q -8458 -3672 -8473 -3666 M -9156 -1689 L -9356 -1846 M -7378 33 Q -7179 257 -7000 477 M -6516 761 Q -6195 681 -5882 628 L -5801 615 M -8267 -897 L -8488 -1107 M -8723 -1319 Q -8930 -1508 -9156 -1689 M -7427 -21 L -7580 -190 M -6935 -708 L -7007 -712 L -7036 -716 M -6855 -473 L -6949 -488 L -6966 -481 M -6818 -360 L -6751 -145 M -6855 -473 L -6792 -459 M -6818 -360 L -6826 -384 L -6855 -473 L -6935 -708 Q -6988 -870 -7056 -1039 Q -7180 -1376 -7324 -1708 M -6834 -687 L -6935 -708 M -7911 -541 Q -8054 -692 -8213 -843 M -3686 -2240 Q -3471 -2130 -3267 -2056 L -2990 -1958 M -5956 -3865 L -5233 -3279 M -4925 -3042 Q -4459 -2687 -4048 -2439 M -2502 -1803 Q -2262 -1732 -2057 -1685 M -3011 660 Q -3162 628 -3316 607 Q -3619 559 -3930 534 M -4552 510 L -5194 539 M -4426 511 L -4552 510 M -3930 534 L -4064 525 M -5194 539 L -5369 556 M -6516 761 L -6573 776 M -7000 477 L -6890 611 M -15464 -4932 Q -15792 -5016 -16132 -5083 M -14203 -4534 Q -14608 -4685 -15041 -4815 M -14089 -6625 Q -14452 -6696 -14830 -6751 M -16490 -5148 Q -16748 -5190 -17018 -5220 M -12698 -6295 Q -13169 -6429 -13675 -6539 M -12942 -3990 Q -13319 -4171 -13732 -4348">

</path>

<path fill="none" stroke-opacity="1.000" stroke="rgb(0,0,0)" stroke-linejoin="round" stroke-linecap="round" stroke-width="40" d="M -10480 -6273 Q -13937 -7205 -15846 -6909 Q -17576 -6588 -17506 -6403 Q -17821 -6164 -17844 -5940 M -21198 -4922 L -20375 -5020 Q -19261 -5158 -17890 -5060 Q -16477 -5048 -14347 -3967 Q -12298 -2751 -10773 -1919 Q -8723 -921 -7808 165 Q -7598 396 -7260 854 Q -6991 1204 -6774 1382 Q -6669 1346 -6235 1162 Q -5887 1019 -5622 952 Q -4814 751 -3733 966 Q -3381 1033 -3032 1127 Q -2304 1320 -1555 1593 Q -995 1786 -646 1931 L -347 1322 Q -143 900 -63 478 Q 51 -108 -83 -654 Q -190 -1092 -448 -1516 Q -599 -1579 -932 -1726 Q -1711 -2071 -2713 -2569 Q -4826 -3517 -6818 -5192 L -6989 -5322 L -7068 -5332 L -7186 -5353 Q -7432 -5425 -7701 -5613 Q -8802 -6410 -10426 -6983 Q -12184 -7666 -14310 -7660 Q -16408 -7585 -17477 -7114 Q -18514 -6671 -18914 -6508 Q -19394 -6206 -19530 -5939 Q -19657 -5694 -19516 -5524 Q -19444 -5438 -19311 -5363 Q -19105 -5246 -18758 -5236 Q -18838 -5301 -18950 -5354 Q -19054 -5403 -19097 -5627 L -19100 -5646 Q -18943 -5981 -18726 -6099 Q -18515 -6207 -18320 -6278 Q -18425 -5993 -18341 -5812 Q -18200 -5524 -17647 -5316 Q -17515 -5262 -17367 -5227 Q -17866 -5634 -17844 -5940 M -448 -1516 L -472 -1554 Q -557 -1601 -477 -1561 L -472 -1554 M -21198 -4922 Q -21305 -4915 -21387 -4924 Q -21276 -5276 -18914 -6508">

</path>

<path fill="none" stroke-opacity="1.000" stroke="rgb(0,0,0)" stroke-linejoin="round" stroke-linecap="round" stroke-width="28.571998006975587" d="M -1967 -1672 L -1916 -1663">

</path>

</g>

</g>

<g transform="matrix(0.489990234375 0 0 0.489990234375 14898 11314)">

<g>

<path fill-opacity="1.000" fill="#24894B" d="M 29 -2731 Q 18 -2731 8 -2731 Q -776 -2726 -1474 -2386 Q -1599 -2325 -1713 -2248 Q -1836 -2166 -1946 -2064 L -2106 -1921 Q -2052 -1146 -1855 -395 Q -1659 357 -1282 1029 L -1276 1040 Q -894 1719 -385 2301 Q -138 2582 102 2582 Q 356 2582 602 2267 Q 800 2015 923 1716 Q 1200 1045 1441 361 Q 1694 -359 1875 -1101 Q 2015 -1677 1895 -2259 L 1717 -2350 Q 1597 -2408 1472 -2457 Q 775 -2731 29 -2731 Z M -1970 1830 Q -2032 2311 -1941 2784 L -1927 2835 Q -1807 2714 -1673 2714 Q -1610 2714 -1543 2741 Q -1434 2786 -1367 2898 Q -1289 3028 -1245 3172 L -1222 3164 Q -991 3009 -923 2720 L -896 2627 Q -1194 2510 -1458 2316 Q -1629 2191 -1785 2034 Q -1883 1935 -1970 1830 Z M 2090 2025 Q 1942 2169 1782 2285 Q 1453 2524 1069 2647 Q 1240 2920 1464 3159 L 1495 3185 Q 1485 2702 1801 2702 Q 1871 2702 1958 2726 Q 2051 2751 2109 2838 L 2146 2897 Q 2234 2453 2090 2025 Z">

</path>

<path fill-opacity="1.000" fill="#24B151" d="M 1895 -2259 Q 2015 -1677 1875 -1101 Q 1694 -359 1441 361 Q 1200 1045 923 1716 Q 800 2015 602 2267 Q 356 2582 102 2582 Q -138 2582 -385 2301 Q -894 1719 -1276 1040 L -1282 1029 L -1282 1029 Q -1282 1029 -1282 1029 Q -1659 357 -1855 -395 Q -2052 -1146 -2106 -1921 Q -2608 -1486 -3180 -1169 L -3155 -914 Q -3093 -111 -3225 679 Q -2578 909 -2203 1509 Q -2097 1677 -1970 1830 Q -1883 1935 -1785 2034 Q -1629 2191 -1458 2316 Q -1194 2510 -896 2627 Q -717 2697 -525 2739 Q -231 2803 76 2803 Q 518 2803 988 2671 L 1069 2647 Q 1453 2524 1782 2285 Q 1942 2169 2090 2025 Q 2251 1867 2398 1675 Q 2848 1083 3270 825 Q 3289 538 3323 253 Q 3408 -449 3399 -1155 Q 3043 -1323 2763 -1604 Q 2369 -2000 1895 -2259 Z">

</path>

<path fill="none" stroke-opacity="1.000" stroke="rgb(0,0,0)" stroke-linejoin="round" stroke-linecap="round" stroke-width="28.571998006975587" d="M 1717 -2350 L 1791 -2180 M 1971 -1332 Q 1976 -1190 1966 -1045 M 1884 -1897 Q 1918 -1770 1940 -1642 M 1925 -736 L 1908 -655 L 1866 -464 M -1713 -2248 L -1742 -2149 M -1786 -1954 Q -1819 -1782 -1827 -1606 M -1282 1029 L -1286 1001 M -1716 -728 L -1689 -641 L -1627 -444 M -1822 -1307 Q -1811 -1148 -1779 -987 M -1401 404 L -1339 701 M -1263 1557 Q -1274 1698 -1301 1834 M -1282 1029 Q -1266 1153 -1260 1273 M -1458 2316 Q -1411 2213 -1374 2107 M 1782 2285 Q 1730 2222 1688 2157 M 1484 1644 Q 1503 1765 1546 1881 M 1534 1012 L 1508 1124 Q 1484 1229 1475 1330 M 1665 437 L 1603 712 M -1548 -175 L -1469 121 M 1798 -157 L 1735 128">

</path>

<path fill="none" stroke-opacity="1.000" stroke="rgb(0,0,0)" stroke-linejoin="round" stroke-linecap="round" stroke-width="40" d="M -2106 -1921 L -1946 -2064 Q -1836 -2166 -1713 -2248 Q -1599 -2325 -1474 -2386 Q -776 -2726 8 -2731 Q 765 -2735 1472 -2457 Q 1597 -2408 1717 -2350 L 1895 -2259 Q 2369 -2000 2763 -1604 Q 3043 -1323 3399 -1155 L 3461 -1127 M -3227 -1143 L -3180 -1169 Q -2608 -1486 -2106 -1921 M -3225 679 Q -2578 909 -2203 1509 Q -2097 1677 -1970 1830 Q -1883 1935 -1785 2034 Q -1629 2191 -1458 2316 M -1970 1830 Q -2032 2311 -1941 2784 L -1927 2835 Q -1750 2657 -1543 2741 Q -1434 2786 -1367 2898 Q -1289 3028 -1245 3172 L -1222 3164 Q -991 3009 -923 2720 L -896 2627 Q -1194 2510 -1458 2316 M -896 2627 Q -717 2697 -525 2739 Q 190 2895 988 2671 L 1069 2647 Q 1453 2524 1782 2285 M -3243 673 L -3225 679 M 3270 825 Q 3391 751 3509 704 M 3270 825 Q 2848 1083 2398 1675 Q 2251 1867 2090 2025 Q 2234 2453 2146 2897 L 2109 2838 Q 2051 2751 1958 2726 Q 1483 2595 1495 3185 L 1464 3159 Q 1240 2920 1069 2647 M 2090 2025 Q 1942 2169 1782 2285">

</path>

</g>

</g>

<g transform="matrix(0.489990234375 0 0 0.489990234375 14924 10721)">

<g>

<path fill-opacity="1.000" fill="rgb(255,255,255)" d="M 1846 -2265 Q 1594 -1822 1766 -1340 L 1789 -1278 Q 1866 -1391 1927 -1548 Q 2065 -1910 1846 -2265 Z M -1867 -2415 Q -1989 -2164 -1980 -1756 Q -1974 -1468 -1882 -1277 Q -1464 -1800 -1840 -2376 L -1867 -2415 Z M 1486 -2662 Q 1274 -2526 1060 -2424 Q 1059 -1679 1125 -1323 Q 1187 -982 1265 -982 Q 1268 -982 1272 -983 Q 1419 -983 1540 -1046 Q 1036 -1775 1617 -2398 L 1691 -2468 Q 1602 -2565 1486 -2662 Z M -1445 -2774 Q -1592 -2731 -1698 -2638 Q -1621 -2553 -1561 -2462 Q -1084 -1737 -1547 -964 Q -1399 -907 -1199 -907 Q -1196 -907 -1192 -907 Q -1026 -1438 -1049 -1865 L -1078 -2331 L -1159 -2447 Q -1267 -2593 -1445 -2774 Z">

</path>

<path fill-opacity="1.000" fill="rgb(0,0,0)" d="M 1691 -2468 L 1617 -2398 Q 1036 -1775 1540 -1046 Q 1681 -1120 1789 -1278 L 1766 -1340 Q 1594 -1822 1846 -2265 Q 1783 -2367 1691 -2468 Z M -1707 -2640 Q -1720 -2640 -1720 -2619 Q -1809 -2535 -1867 -2415 L -1840 -2376 Q -1464 -1800 -1882 -1277 Q -1829 -1166 -1547 -964 Q -1084 -1737 -1561 -2462 Q -1621 -2553 -1698 -2638 Q -1703 -2640 -1707 -2640 Z">

</path>

<path fill-opacity="1.000" fill="#24B151" d="M 504 -7676 Q 483 -7676 458 -7671 Q 303 -7640 110 -7355 L 72 -7174 Q -76 -6553 -85 -5921 L 0 -5471 Q 3 -5139 -5 -4807 L -56 -2987 Q -61 -2830 -133 -2715 Q -250 -2532 -380 -2532 Q -523 -2532 -684 -2751 Q -916 -2822 -1072 -3110 Q -1126 -3209 -1180 -3275 Q -1287 -3405 -1396 -3405 Q -1476 -3405 -1556 -3335 Q -1802 -3122 -1549 -2878 L -1445 -2774 Q -1267 -2593 -1159 -2447 L -1078 -2331 Q -994 -2203 -931 -2074 Q -902 -2013 -876 -1937 Q -812 -1895 -770 -1832 Q -381 -1250 -299 -528 Q -190 432 -51 1385 L -39 1575 Q 14 2265 -215 2911 Q -141 3258 -60 3411 Q 33 3510 122 3510 Q 271 3510 409 3232 Q 627 2788 824 1738 Q 910 1280 991 893 Q 1073 494 1151 169 L 1190 6 Q 1359 -676 1540 -1046 L 1540 -1046 Q 1419 -983 1272 -983 Q 1269 -982 1265 -982 Q 1187 -982 1125 -1323 Q 1059 -1679 1060 -2424 Q 1274 -2526 1486 -2662 L 1592 -2732 Q 1934 -2967 1778 -3216 Q 1683 -3366 1533 -3366 Q 1434 -3366 1310 -3301 L 1238 -3261 Q 1248 -3865 882 -4325 Q 516 -4786 384 -5169 Q 251 -5552 317 -6094 Q 382 -6637 557 -7181 Q 608 -7338 621 -7445 L 621 -7445 Q 621 -7445 621 -7445 Q 649 -7676 504 -7676 Z">

</path>

<path fill-opacity="1.000" fill="#24894B" d="M 110 -7355 Q -41 -7133 -216 -6756 Q -614 -5896 -597 -5023 Q -592 -4788 -615 -4480 L -636 -4249 Q -1078 -3769 -1180 -3275 Q -1126 -3209 -1072 -3110 Q -916 -2822 -684 -2751 Q -524 -2532 -380 -2532 Q -249 -2532 -133 -2715 Q -61 -2830 -56 -2987 L -5 -4807 Q 3 -5139 0 -5471 L -85 -5921 Q -76 -6553 72 -7174 L 110 -7355 Z M -1078 -2331 L -1049 -1865 Q -1026 -1438 -1192 -907 Q -1195 -907 -1199 -907 Q -1399 -907 -1547 -964 L -1547 -964 Q -1224 -399 -998 123 Q -787 610 -660 1058 Q -566 1388 -485 1706 Q -339 2281 -234 2814 L -215 2911 Q 14 2265 -39 1575 L -51 1385 Q -190 432 -299 -528 Q -381 -1250 -770 -1832 Q -812 -1895 -876 -1937 L -876 -1937 Q -876 -1937 -876 -1937 Q -902 -2013 -931 -2074 Q -994 -2203 -1078 -2331 Z">

</path>

<path fill="none" stroke-opacity="1.000" stroke="rgb(0,0,0)" stroke-linejoin="round" stroke-linecap="round" stroke-width="40" d="M 621 -7445 Q 653 -7710 458 -7671 Q 303 -7640 110 -7355 M 621 -7445 Q 608 -7338 557 -7181 Q 382 -6637 317 -6094 Q 251 -5552 384 -5169 Q 516 -4786 882 -4325 Q 1248 -3865 1238 -3261 L 1310 -3301 Q 1621 -3465 1778 -3216 Q 1934 -2967 1592 -2732 L 1486 -2662 Q 1602 -2565 1691 -2468 Q 1783 -2367 1846 -2265 Q 2065 -1910 1927 -1548 Q 1866 -1391 1789 -1278 Q 1681 -1120 1540 -1046 Q 1359 -676 1190 6 L 1151 169 Q 1073 494 991 893 Q 910 1280 824 1738 Q 627 2788 409 3232 Q 190 3675 -60 3411 Q -141 3258 -215 2911 L -234 2814 Q -339 2281 -485 1706 Q -566 1388 -660 1058 Q -787 610 -998 123 Q -1224 -399 -1547 -964 Q -1829 -1166 -1882 -1277 Q -1974 -1468 -1980 -1756 Q -1989 -2164 -1867 -2415 Q -1809 -2535 -1720 -2619 M -1698 -2638 Q -1592 -2731 -1445 -2774 L -1549 -2878 Q -1802 -3122 -1556 -3335 Q -1366 -3501 -1180 -3275 Q -1078 -3769 -636 -4249 L -615 -4480 Q -592 -4788 -597 -5023 Q -614 -5896 -216 -6756 Q -41 -7133 110 -7355 M 1486 -2662 Q 1274 -2526 1060 -2424 Q 1059 -1679 1125 -1323 Q 1190 -968 1272 -983 Q 1419 -983 1540 -1046 Q 1036 -1775 1617 -2398 L 1691 -2468 M 1060 -2424 L 901 -2354 Q 553 -2211 543 -1730 M 483 -2695 Q 941 -3089 1238 -3261 M 1846 -2265 Q 1594 -1822 1766 -1340 L 1789 -1278 M -684 -2751 Q -916 -2822 -1072 -3110 Q -1126 -3209 -1180 -3275 M -1445 -2774 Q -1267 -2593 -1159 -2447 L -1078 -2331 Q -994 -2203 -931 -2074 Q -902 -2013 -876 -1937 M -422 -2735 Q -563 -2714 -684 -2751 M -1882 -1277 Q -1464 -1800 -1840 -2376 L -1867 -2415 M -1720 -2619 L -1698 -2638 Q -1621 -2553 -1561 -2462 Q -1084 -1737 -1547 -964 Q -1396 -906 -1192 -907 Q -1026 -1438 -1049 -1865 L -1078 -2331 M -876 -1937 Q -823 -1783 -784 -1569">

</path>

<path fill="none" stroke-opacity="1.000" stroke="rgb(0,0,0)" stroke-linejoin="round" stroke-linecap="round" stroke-width="28.571998006975587" d="M 436 -7173 Q 526 -7324 621 -7445 M -85 -5921 L -9 -6156 M 128 -6532 Q 192 -6694 259 -6838 M 683 -1207 L 537 -1173 L 538 -1066 Q 536 -877 594 -693 L 683 -724 M 362 -1146 L 537 -1173 L 563 -1509 M 1151 169 L 790 -300 L 643 -221 M 594 -693 L 790 -300 L 945 -362 M 482 -664 L 594 -693 M 813 958 Q 901 924 991 893 M 387 1139 Q 512 1078 641 1025 M -51 1385 Q 33 1331 120 1281 L 147 1266 M -303 -5224 L -204 -5527 M -89 -5906 L -85 -5921 M -615 -4480 Q -527 -4618 -411 -4921 M -765 -1207 L -725 -997 L -523 -966 M -998 123 L -819 -378 L -906 -422 M -819 -378 L -780 -542 Q -727 -764 -725 -997 L -865 -1006 M -819 -378 L -644 -282 M -485 1706 Q -406 1633 -319 1569 M -76 1401 L -51 1385">

</path>

</g>

</g>

</g>

</g>

</g>

</svg>
