<?xml version="1.0" encoding="utf-8"?>
<!-- Generator: Adobe Illustrator 16.0.0, SVG Export Plug-In . SVG Version: 6.00 Build 0)  -->
<!DOCTYPE svg PUBLIC "-//W3C//DTD SVG 1.1//EN" "http://www.w3.org/Graphics/SVG/1.1/DTD/svg11.dtd">
<svg version="1.1" xmlns="http://www.w3.org/2000/svg" xmlns:xlink="http://www.w3.org/1999/xlink" x="0px" y="0px" width="7987px"
	 height="1080px" viewBox="0 0 7987 1080" enable-background="new 0 0 7987 1080" xml:space="preserve">
<g id="Mountain03">
	<g id="Layer_16">
		<g>
			<path fill="#96B2B2" d="M6271,673c-66.119,3.052-57-63-57-63l-11.001-8.645L6163,618c0,0,2-52,0-70s-30.613-26.705-30.613-26.705
				L6124,627l153,121C6277,748,6275,726,6271,673z"/>
			<polygon fill="#96B2B2" points="6677,703 6665,703 6668,668 6661.69,657.293 6638,672 6628,737 6687,741 6673,720 			"/>
			<path fill="#96B2B2" d="M6393,842c-24-5-25-57-25-57l-44.411,0.906L6317,778l-2-22l-10-1l-1-14l-14.307-8.752L6273,794
				l44.664,5.583L6313,847C6313,847,6417,847,6393,842z"/>
			<path fill="#96B2B2" d="M6481.146,703.938L6483,724l53-5l-27-13C6509,706,6481.168,703.949,6481.146,703.938z"/>
			<path fill="#96B2B2" d="M6453,728c-6,33-36,27-36,27l-3-7l-16.36,10.08L6411,773l54-9C6465,764,6459,695,6453,728z"/>
			<path fill="#96B2B2" d="M7132.057,540.929C7133.277,539.397,7132.999,539.574,7132.057,540.929L7132.057,540.929z"/>
			<path fill="#96B2B2" d="M7195,699c-8.213-3.65-13.092-25.608-13.884-29.425l6.486,0.817L7194,657c0,0-9-8-9-74
				c-81.329,5.03-57.917-34.923-52.943-42.071c-0.021,0.025-0.035,0.045-0.057,0.071c-8,10-38,4-51,5s-41,13-41,13l15,37l66,66
				l40.868,5.149L7161,701C7161,701,7204,703,7195,699z"/>
			<path fill="#96B2B2" d="M7484.747,657.062L7471,664c0,0,13,26-19,30s52,0,52,0l-1-32L7484.747,657.062z"/>
			<polygon fill="#96B2B2" points="7570.747,680.072 7541,699 7585,699 			"/>
			<polygon fill="#96B2B2" points="7232,680 7257,685 7260,673 7251.997,669.889 			"/>
			<polygon fill="#96B2B2" points="5483.668,465.094 5489.668,438.096 5479.168,415.597 5480.668,393.098 5515.167,363.099 
				5515.167,348.1 5494.168,346.6 5459.669,355.6 5456.67,328.601 5464.169,292.603 5440.17,231.106 5438.67,192.108 
				5416.079,180.522 5407.172,235.605 5413.172,495.093 5506.167,501.092 			"/>
			<path fill="#96B2B2" d="M5594.663,771.079c-19.499-11.999,0-35.998,0-47.998s-14.999-28.498-16.499-38.998s12-23.999,12-37.498
				s-15-28.498-15-28.498l3-133.494l-17.999-17.999l-56.997,94.496l52.497,232.488
				C5555.665,793.578,5614.162,783.078,5594.663,771.079z"/>
			<path fill="#96B2B2" d="M5753.655,816.076c-40.498-55.498,9-89.995,1.5-98.994s-44.998-3-59.997-7.5S5676.1,708.9,5676.1,708.9
				l-19.94,17.181l-3,53.997C5653.16,780.078,5794.153,871.574,5753.655,816.076z"/>
			<polygon fill="#96B2B2" points="5775.188,797.412 5753.655,865.574 5825.651,858.074 5794.153,802.577 			"/>
			<polygon fill="#96B2B2" points="5966.644,657.085 5981.644,721.581 6032.641,721.581 6032.641,679.583 5984.644,655.585 			"/>
			<path fill="#96B2B2" d="M5336.675,325.601l-20.999,20.999c0,0,9,19.499-9,28.499s16.499,50.998,11.999,79.496
				s19.499,98.995-19.499,121.494s79.496,10.499,79.496,10.499l-3-160.492L5336.675,325.601z"/>
			<path fill="#96B2B2" d="M5264.619,568.715l-16.439,16.373v49.498l17.999,8.999c0,0,8.999,104.996-34.499,112.495
				s82.496-4.5,82.496-4.5l-6-152.992L5264.619,568.715z"/>
			<polygon fill="#96B2B2" points="5198.682,693.083 5165.684,715.582 5162.684,771.079 5162.684,841.575 5204.682,861.074 
				5215.181,787.578 5194.182,726.081 			"/>
		</g>
	</g>
	<path fill="#C1CFD1" d="M7699.479,696.877c4.604,0.285,37.657,4.439,46.754,6.171c-1.807,18.769-18.419,56.59,49.627,58.958
		c2.895-0.553-0.103-3.763,5.496-4.991c-0.033-0.025,10.633,0.196,10.757,0.168c-4.676,14.319-2.271,31.134-20.813,41.523
		c5.501,25.242,5.386,56.954,116.818,47.381c4.429,2.67-4.218,6.24-1.762,9.224c35.216,8.183,27.99,0.317,31.208,15.809
		c7.167,0.851,23.061,0.276,28.086,1.846c-0.695,23.455-9.877,47.697-10.396,71.848c-164.973,16.982-340.613,19.568-510.424,27.893
		c-58.098,2.848-111.343,5.624-170.582,3.469c2.029-18.205-3.262-36.173,5.225-54.109c78.993-12.314,3.181-68.693,35.957-93.227
		c-19.816-8.523-10.857-5.889-12.306-15.693c0.178,1.205,63.495,3.508,69.334,1.444c20.049-7.083,14.939-17.026,17.239-30.602
		c-2.31-1.282-9.161,0.988-11.395-0.316c-2.24-6.866-0.528-14.05-4.047-20.625c12.402,1.045,26.835-0.604,39.435-0.316
		c-5.771-7.199-1.742-17.67-7.388-24.813c12.282,0.825,25.84-1.778,37.395-1.387c4.14-8.605,4.431-26.835,0.047-35.261
		c-9.41-0.955-18.581,0.514-27.441,0.784c0.42-0.865,0.78-10.89,0.007-11.253c24.011,1.83,49.795-4.168,73.388-3.432
		c-5.596-9.154,2.098-21.26-4.95-30.308c11.126-1.573,40.879-1.893,50.95-0.811c-4.846,12.078,5.432,26.346,0.612,38.421
		c12.564-0.526,29.702,1.222,41.388,0c-1.685-3.938-6.983-10.801-6.95-14.6c11.392-0.865,43.726,0.793,54.958,2.354
		c-0.006,0.025-0.012,0.049-0.018,0.074c-2.591,11.145-0.726,20.171,14.391,27.811
		C7655.597,708.572,7686.306,696.055,7699.479,696.877z"/>
	<path fill="#C1CFD1" d="M6765.875,822.408c-0.576-0.523,11.731-8.266,7.053-12.971c-63.498,9.073-69.684-7.594-74.625-33.827
		c4.291-1.346,12.914,0.228,17.396-1.36c-0.675-0.982-0.96-10.48,0-11.204c-0.583-0.909-9.193,0.606-9.396-0.316
		c4.244-11.844-3.15-25.371-0.604-37.374c-2.003,0.606-14.887,1.564-17.396,1.045c-2.642,0.87,1.513,5.754-0.604,7.012
		c-11.505,0.118-25.033-3.922-37.396-2.094c0.006-0.003-0.51-4.089-0.445-4.081c4.678-1.784,14.329-1.263,17.794-4.087
		c-0.641-0.616-0.56-9.066,0.046-9.548c-1.013-0.592-13.442-1.431-13.442-1.155c1.571-17.82,3.208-37.292,7.435-55.154
		c-11.151-0.869-41.676,0.259-53.388,2.094c4.227,10.075-1.775,23.931,3.396,33.191c-0.182-0.09-15.305-0.053-15.396,0
		c-2.872-1.868,2.34-6.229-0.604-8.061c-11.089-0.699-27.054,1.757-37.396,0c4.314,12.748-12.714,26.24-31.614,33.818
		c-14.887-3.787-33.351-8.358-45.52-14.387c-0.007-0.004-0.015-0.009-0.022-0.011c-3.408,0.257-27.919,3.987-34.664,5.541
		c1.34,16.85,13.655,50.805-36.793,52.931c-2.146-0.497,0.076-3.38-4.075-4.481c0.025-0.022-7.883,0.176-7.975,0.151
		c3.467,12.854,1.684,27.948,15.43,37.277c-4.078,22.66-3.993,51.13-86.608,42.536c-3.283,2.396,3.127,5.602,1.307,8.28
		c-26.109,7.346-20.752,0.284-23.138,14.192c-5.313,0.762-17.097,0.247-20.822,1.657c0.516,21.056,7.322,42.821,7.708,64.501
		c122.309,15.246,252.526,17.567,378.422,25.04c43.073,2.557,82.548,5.049,126.468,3.114c-1.505-16.344,2.418-32.475-3.873-48.575
		C6733.968,895.047,6790.175,844.433,6765.875,822.408z"/>
	<path fill="#C1CFD1" d="M5907.212,874.917c22.854-41.158-7.015-77.097-1.654-119.018c1.73,0.637,10.09-4.083,12.146-4.673
		c1.271,1.968-1.156,6.325,0.247,8.151c1.089-0.537,8.418-1.595,9.405-0.904c1.063-7.868,1.898-16.685,1.816-24.56
		c-1.84-1.519-5.947,0.049-7.686-1.242c3.972-13.853,5.138-22.515,4.418-37.859c0.198,0.184,7.079-1.31,6.826-0.945
		c1.442,1.471,0.099,6.543,1.128,8.312c9.558-10.685,11.657-10.38,7.049-28.373c3.675-3.058,5.207-3.459,9.808-8.581
		c-0.454,0.534,4.728,0.768,5.035,0.691c0.026-0.032,0.835-6.405,2.163-7.557c5.365,1.121,10.931,0.203,16.334,1.166
		c1.258,2.781,0.2,8.427,0.905,10.013c7.059-3.141,15.891,0.102,23.839-2.38c2.299,11.395,8.206,12.434,10.028,24.46
		c0.301,0.311,0.596,0.628,0.887,0.953c4.371,0.354,13.287-0.95,17.322-1.863c3.171-8.524,5.416-18.955,3.528-28.268
		c-2.312-2.098-5.162-0.412-7.591-2.295c1.229-1.857,2.268-11.409,1.719-13.97c3.019-1.394,6.537-0.824,9.408-2.244
		c-2.104-17.307-2.338-35.774,0.313-53.068c1.318,0.865,6.555-0.297,7.863-1.001c2.2,1.61,1.129,5.744,2.763,7.388
		c15.635-11.425,9.538-39.341,9.683-60.006c4.15-1.142,8.683-2.128,13.027-2.957c-0.081-0.235-3.45-8.36-4.926-6.316
		c1.362-0.734,5.063,1.264,6.627,1.569c2.284-2.874,3.458-6.501,4.752-10.012c11.903,1.069,20.161-0.461,30.555-2.884
		c6.224,5.305,13.906,6.272,21.298,10.057c0.764-0.601-0.602-5.228,0.268-5.478c0.385,0.153,5.562,0.236,5.873,0.072
		c3.035,2.299,0.237,7.23,2.078,9.203c26.667,6.094,14.831,55.323,11.446,78.198c5.412,0.753,12.254,2.993,17.407,2.884
		c0.453,0.829,1.512-6.92,0.93-6.41c-2.441-3.123-4.231,2.119-5.916-2.865c14.979-4.104,28.803-5.628,44.667-0.949
		c-21.257,44.291,10.922,96.397,54.925,84.878c1.397,18.867,5.2,37.306,7.38,55.929c0.299,0.313,0.596,0.63,0.89,0.951
		c6.552-5.263,16.349-4.511,23.5-10.865c3.079,4.83,2.982,7.94,3.848,13.777c2.248,1.197,6.813-1.468,8.57,1.292
		c1.896,4.542,0.363,11.014,1.155,15.871c1.217,1.182,5.579-0.983,5.866-0.711c-1.479,11.915,3.924,22.324,4.755,34.092
		c15.055-3.217,29.561-1.388,45.671,0.289c3.569,55.581,12.696,110.511,21.251,165.606c-67.02,21.225-134.703,37.658-203.977,47.913
		c-80.251,11.877-205.214,43.692-283.879,9.517c21.638-42.966-37.107-115.022,13.376-146.886"/>
	<path fill="#C1CFD1" d="M7340.24,845.726c-30.084-33.601,9.234-62.938,2.178-97.164c-2.278,0.521-13.282-3.331-15.989-3.813
		c-1.673,1.608,1.521,5.162-0.325,6.654c-1.434-0.438-11.082-1.3-12.381-0.737c-1.399-6.422-2.498-13.621-2.391-20.05
		c2.422-1.24,7.828,0.041,10.117-1.013c-5.229-11.311-6.763-18.381-5.814-30.909c-0.261,0.151-9.319-1.07-8.986-0.771
		c-1.898,1.202-0.13,5.342-1.485,6.785c-12.581-8.723-15.345-8.474-9.278-23.161c-4.838-2.498-6.854-2.827-12.911-7.007
		c0.597,0.437-6.224,0.627-6.628,0.566c-0.034-0.029-1.1-5.23-2.847-6.171c-7.063,0.916-14.389,0.166-21.502,0.954
		c-1.655,2.27-0.263,6.879-1.19,8.173c-9.293-2.563-20.919,0.082-31.383-1.943c-3.026,9.302-10.802,10.15-13.199,19.967
		c-0.396,0.255-0.785,0.514-1.169,0.778c-5.753,0.291-17.49-0.776-22.801-1.521c-4.176-6.959-7.13-15.474-4.646-23.077
		c3.043-1.71,6.796-0.337,9.993-1.872c-23.82-22.312-19.25-50.63-19.905-76.968c-50.419,2.495-74.375-19.098-50.151-43.979
		c-15.592,8.993-53.623-3.684-74.228,8.236c-18.5,10.704-8.792,54.917-11.459,68.855c-0.002,0.007-0.004,0.015-0.005,0.022
		c-25.771,2.49-56.305,4.491-82.94,2.854c-0.046-0.003-0.092-0.005-0.138-0.009c2.145,18.094,15.96,56.785-37.278,57.731
		c-5.53,1.533,5.995,7.003-1.42,8.88c-56.808,2.849-14.23,23.807-41.223,41.332c-0.395,0.255-0.784,0.514-1.17,0.774
		c-8.626-4.297-21.521-3.682-30.935-8.869c-4.052,3.942-3.927,6.481-5.065,11.248c-2.959,0.978-8.967-1.199-11.281,1.054
		c-2.496,3.709-0.477,8.992-1.52,12.957c-1.602,0.965-7.345-0.802-7.722-0.58c1.947,9.727-5.166,18.226-6.259,27.833
		c-19.818-2.626-38.913-1.136-60.12,0.235c-4.699,45.373-16.713,90.217-27.975,135.195c88.223,17.327,177.32,30.742,268.51,39.112
		c105.642,9.698,270.139,35.671,373.691,7.771c-28.483-35.075,48.848-93.901-17.607-119.913"/>
	<path fill="#C1CFD1" d="M3975.885,596.689c3.135-3.623,6.508-7.109,10.066-10.431c1.608-6.504,3.282-13.739,1.33-16.335
		c-7.051,9.008-10.748,19.543-14.257,30.087C3973.952,598.93,3974.898,597.83,3975.885,596.689z"/>
	<path fill="#C1CFD1" d="M3934.932,659.675c2.431-5.872,4.604-10.87,6.843-15.478c-5.448,1.241-11.26,0.796-17.788,0.803
		c-9.451,0.01-27.747-3.89-36.286-0.285c-5.029,2.123-4.606,7.927-6.498,13.189c-1.124,3.126-2.521,6.131-3.997,9.07
		C3895.895,661.434,3915.442,658.95,3934.932,659.675z"/>
	<path fill="#C1CFD1" d="M4375.937,1224.231c-13.969-2.256-27.604-6.167-40.596-11.619c-0.611,0.633-1.208,1.273-1.83,1.899
		c-6.799,5.253-13.598,10.506-20.397,15.759c21.46,1.852,42.922,3.679,64.387,5.485
		C4376.981,1231.914,4376.456,1228.072,4375.937,1224.231z"/>
	<path fill="#C1CFD1" d="M5945.631,934.535c-30.149-21.087-53.074-51.749-93.577-53.64c-0.013-0.001-0.027-0.001-0.041-0.002
		c-12.854-0.564-15.339-2.198-16.591-15.317c-8.501-0.69-15.091-3.452-23.438-5.452c-11.771-2.821-16.091-3.221-20.086-15.23
		c-2.613-7.856-4.673-15.052-9.01-22.989c-1.469-2.688-5.19-7.021-5.986-9.809c-1.418-4.97-0.187-9.693-1.715-14.684
		c-7.678,2.211-18.53,17.287-27.395,15.974c-10.123-1.501-14.027-17.02-16.683-24.386c-2.032-5.633-6.299-9.942-7.303-16
		c-0.992-5.989-0.112-13.895,0.114-20c0.51-13.719,12.733-19.392,22.684-27.11c-4.301-0.702-6.458-4.254-10.399-5.097
		c-6.875-1.47-16.294,0.311-23.317,0.221c-11.706-0.148-25.118,8.859-32.968,0.064c-3.302-3.699-1.985-8.438-3.821-12.178
		c-4.008-8.166-4.192-6.336-12.007-4.976c-9.162,1.596-20.602,7.41-26.996,13.872c-1.44,2.587-3.101,5.025-4.982,7.317
		c-2.336,1.873-4.848,3.461-7.538,4.762c-2.102,3.069-2.868,10.94-4.591,14.917c-4.334,10.002-9.184,22.735-18.903,29.29
		c-7.134,4.811-28.187,7.036-28.464-4.912c-0.159-6.855,6.277-17.047,7.588-24.277c1.127-6.22,1.269-18.122,0-24.101
		c-2.637-12.425-11.608-23.158-12.299-35.793c-0.698-12.773,3.991-23.208,4.079-35.986c0.085-12.393-7.754-19.05-7.972-32.014
		c-0.224-13.33-0.014-26.682-0.014-40.014c0-29.329,0.011-58.658,0-87.986c-0.002-5.135,0.789-11.013,0.079-16.079
		c-1.31-9.34-2.444-8.097-12.093-7.907c-14.104,0.276-26.001-0.509-39.174-3.616c-8.191,11.938-3.256,29.347-20.705,31.681
		c-21.859,2.923-20.189-20.991-20.106-36.093c0.057-10.395-2.364-17.959-4.207-27.872c-1.588-8.545,0.173-19.299,0.207-28.114
		c0.014-3.81,0.608-8.339,0.093-12.093c0.012,0.085-3.276-10.512-3.488-8.89c1.045-7.985,15.964-12.975,23.381-16.114
		c6.647-2.813,17.361-3.696,11.189-14.106c-4.081-6.881-12.507-4.827-19.175-4.797c-10.283,0.045-18.296,0.904-28.192,3.096
		c-13.896,3.078-11.796-3.506-11.808-15.096c-0.017-16.576,8.428-31.815,1.097-48c-7.798-17.216-16.25-37.97-17.189-56.982
		c-0.485-9.834,5.912-44.695-7.829-47.496c-6.818-1.39-22.183,13.335-27.267,16.685c-9.982,6.577-13.349,7.936-12.89,20.605
		c0.476,13.155,4.16,24.742,4.064,38.192c-0.078,10.991-0.052,21.992,0.014,32.982c0.021,3.403,1.081,8.866,0.299,12.107
		c-1.415,5.865-3.666,5.029-7.331,8.89c-6.359,6.699-15.077,13.73-24.954,15.224c-10.515,1.591-14.122-0.566-16.207,12.711
		c-1.583,10.074,0.299,21.84,0.207,32.079c-0.28,30.868,13.82,60.593,16.086,91.21c0.976,13.18,4.002,25.404,3.886,38.79
		c-0.096,11.026-0.079,22.07,0.014,33.097c0.092,10.887,2.549,14.217-8.526,16.783c-19.959,4.624-39.654,11.267-59.965,14.341
		c-5.917,0.896-15.141-1.448-18.89,4.498c-2.379,3.773-0.669,12.008-0.619,16.285c0.12,10.238-2.978,25.658,0.812,35.11
		c1.839,4.588,8.726,8.022,10.491,12.903c1.776,4.91,0.718,10.647,1.587,15.779c2.752,16.247,3.809,28.091,0,44.207
		c-2.819,11.932,0.529,23.691-5.793,35.11c-7.683,13.873-16.462,16.855-31.096,16.89c-15.424,0.036-24.643-1.573-32.955-15.808
		c-7.76-13.29-7.557-25.475-7.05-40.179c-0.954,7.782-7.715,14.44-10.999,20.982c-4.648,9.26-8.363,20.493-9.089,31.018
		c-1.046,15.166,0.455,29.558,3.203,44c2.543,13.369,3.507,34.268,0.285,47.561c-7.141-0.592-12.247-6.426-19.396-7.753
		c-9.702-1.801-11.867,1.416-16.876,8.101c-4.507,6.015-9.627,12.01-14.917,17.032c-11.492,10.911-14.066,4.194-24.413-4.171
		c-10.538-8.519-17.967-16.385-31.587-19.879c-6.126-1.572-17.401-1.789-27.462,0.34c2.213,68.165,4.466,136.329,6.478,204.501
		c1.935,65.576-25.838,235.818,35.609,260.921c35.908,14.669,112.615,3.688,153.174,6.105
		c52.554,3.133,104.943,6.635,157.394,11.485c180.611,16.704,356.823,58.121,538.839,70.903
		c511.5,35.92,1021.31,59.189,1533.73,24.264c156.284-10.652,315.36-34.875,472.306-27.89c60.158,2.677,118.125,8.21,178.463,4.915
		c101.276-5.53,200.476,9.477,298.659-21.04c1.324-43.84-3.729-80.715-9.824-123.257c-6.828-47.659,10.079-71.452,14.325-115.983
		c3.937-41.294-17.006-73.806-15.945-115.988c0.949-37.727,11.361-80.096,23.537-115.483c-32.236,7.338-54.094-13.049-85.423-13.143
		c-33.845-0.102-70.404,22.018-104.495,20.769c-39.715-1.454-49.77-9.002-92.804,3.252c-38.202,10.878-89.492,39.877-128.354,27.421
		c12.912-12.05,8.914-24.671,14.983-38.612c-40.381-9.225-65.68-5.848-102.914,2.473c-41.392,9.25-79.615,10.964-123.526,16.854
		c-226.087,30.332-443.973,2.444-671.36-7.658c-162.89-7.237-345.901-29.086-506.964-9.902
		c-126.213,15.033-242.006,7.372-365.811,36.589c-81.562,19.248-200.933,42.036-284.192,24.611
		C5969.664,949.219,5957.123,942.572,5945.631,934.535z"/>
	<path fill="#C1CFD1" d="M3807.134,707.176c-4.206,0.656-9.39,1.234-10.529,2.429c-1.415,1.483-1.524,5.778-1.303,9.992
		C3799.019,715.279,3802.958,711.135,3807.134,707.176z"/>
	<path fill="#C3D6D8" d="M6157.133,628.586c5.131-2.86,16.803-4.494,25.272-8.808c2.505,37.631,20.577,81.86,65.997,78.03
		c9.027,43.167,27.507,53.168,44.664,88.377c-36.035-10.965-63.542-49.947-90.905-73.103
		c-23.382-19.787-72.197-67.473-79.249-96.476c-7.072-29.086,9.373-52.366-14.75-78.089c42.352-7.729,34.814,48.415,27.823,73.569
		c4.967,5.114,6.917,5.617,13.428,7.721C6147.462,629.1,6151.171,626.729,6157.133,628.586"/>
	<path fill="#C3D6D8" d="M6406.121,840.075c13.039-8.8,17.109-25.499,14.737-41.736c-10.148-7.323-10.452-12.255-14.505-24.033
		c35.511,9.021,49.059-23.094,49.487-52.498c26.482-8.68,42.631,23.493,74.03,13.767c28.095-8.703,41.294-27.996,72.216-36.343
		c-4.285,41.067-10.358,50.996-46.025,72.698c-43.803,26.651-42.614-0.353-83.716,5.341c-1.339,28.888,36.791,35.277,59.616,34.605
		c-18.703,17.664-49.418,15.612-71.837,5.551c-17.414,26.609-49.562,38.996-80.81,38.886c8.835-7.764,19.647-13.656,29.807-17.737"
		/>
	<path fill="#C3D6D8" d="M6961.093,642.085c17.074,2.383,67.815,8.265,79.032-4.481c20.143-22.891-13.646-51.195,33.236-59.86
		c-1.187,31.906,33.121,39.119,57.336,28.909c-3.314,21.313,2.828,42.525,20.398,55.306c-3.669,1.346-7.503,3.161-11.25,4.388
		c-2.537,26.519,19.353,47.578,45.783,46.164c-33.718,18.291-54.854,4.958-84.667-7.884c-34.102-14.688-59.913-5.38-101.565-5.93
		c-19.863-0.262-37.566-3.244-57.683,0.087c20.486-10.157,35.199-32.091,23.879-53.698"/>
	<path fill="#C3D6D8" d="M7666.058,726.081c-43.569,4.917-42.485-26.107-73.264-33.942c1.935,5.397,1.468,11.213,2.541,17.139
		c-28.386,8.284-64.479,8.213-74.847-24.658c0.892,5.611-0.446,11.645-0.149,17.201c-42.308,9.427-89.937,13.554-133.074,4.911
		c27.077,44.397,33.006,47.123,89.736,48.92c26.271,0.833,35.704,8.378,58.255,14.412c25.46,6.812,44.915,2.036,72.516-0.878
		c28.85-3.046,57.852-3.807,86.665-7.405c-10.948-9.429-18.729-22.021-23.879-35.699"/>
</g>
</svg>
