<?xml version="1.0" encoding="utf-8"?>
<!-- Generator: Adobe Illustrator 16.0.0, SVG Export Plug-In . SVG Version: 6.00 Build 0)  -->
<!DOCTYPE svg PUBLIC "-//W3C//DTD SVG 1.1//EN" "http://www.w3.org/Graphics/SVG/1.1/DTD/svg11.dtd">
<svg version="1.1" xmlns="http://www.w3.org/2000/svg" xmlns:xlink="http://www.w3.org/1999/xlink" x="0px" y="0px" width="7987px"
	 height="1080px" viewBox="0 0 7987 1080" enable-background="new 0 0 7987 1080" xml:space="preserve">
<g id="Mountain02">
	<g id="Layer_10">
		<g>
			<path fill="#54B1B5" d="M7051.994,714.51c-19.945,11.249,8.673-45.749,8.673-45.749l-6.071-9.75l-31.22,33l-65.909,152.245
				c0,0,48.565,14.998,54.635-11.25c6.071-26.25,25.15-43.499,25.15-43.499l2.602-11.25l-9.539-5.999l10.406-28.5l13.875-5.25
				C7054.596,738.508,7071.941,703.259,7051.994,714.51z"/>
			<path fill="#54B1B5" d="M7038.119,836.754c-8.673,0.752-9.54-8.247-9.54-8.247l-14.743,10.499l-5.204,32.249l28.619-2.251
				C7037.252,869.004,7046.791,836.006,7038.119,836.754z"/>
			<path fill="#54B1B5" d="M7103.162,813.506c0,0,32.955,36-23.416,52.5c-56.371,16.497,52.9,0,52.9,0l-13.875-67.499
				L7103.162,813.506z"/>
			<path fill="#54B1B5" d="M7341.65,915.503c-9.539,0-51.167,14.25-55.669-3.938c-4.502-18.188-49.266-13.312-49.266-13.312
				l0.31,4.741c-1.311-0.099-2.851-0.181-4.646-0.241c-44.229-1.5-20.814-34.498-20.814-34.498s-6.937,0.749-17.344,1.499
				c-10.406,0.752,2.602-20.999,2.602-20.999l-12.141-6.75l-22.548,21.749l6.07,53.999c0,0,51.602-6.426,69.074-10.904l2.038,31.154
				l112.74,1.499C7352.057,939.502,7351.189,915.503,7341.65,915.503z"/>
			<path fill="#54B1B5" d="M6815.24,695.01c0,0,4.329,7.869-7.832,14.071c0.758-1.197,2.331-2.37,3.241-3.129
				c-1.232,0.05-3.349,0.516-4.447-0.155c-1.708-1.043-1.669-3.149,0.675-3.016c-0.171-1.754-3.061-2.75-3.9-3.758
				c-1.301-1.563-1.901-4-2.196-5.947c-1.432,0.224-0.805,3.642-0.785,4.92c0.014,0.904,0.262,1.966-0.196,2.805
				c-0.491,0.899-1.582,0.87-1.701,2.004c0.953,0.388,1.852,0.002,2.804,0.395c-0.417,0.889-0.491,1.943-0.855,2.797
				c-0.937,2.196-1.608,1.903-3.901,2.148c-0.148,1.338,0.131,4.03-2.196,2.728c-2.015-1.129-0.772-3.104,0.701-3.872
				c-2.564-0.872-2.473-1.436-2.82-3.833c-0.552-0.094-1.098-0.215-1.639-0.361c-0.215-3.246-3.912-5.347-4.206-8.789
				c0.019,0.994,0.017,1.989,0.012,2.983c0.012,0.675,0.004,1.349-0.023,2.023c0.116,0.886,0.683,1.591,0.797,2.199
				c0.307,1.636,0.518,2.287-0.754,3.574c-0.835,0.846-2.737,1.026-2.943,1.978c1.595,0.548,3.214-0.077,4.821,0.425
				c-0.105,0.945-1.043,1.432-1.75,2.052c0.363,0.872,1.758,2.46,0.698,3.602c-0.604,0.65-2.122-0.033-2.845,0.089
				c-1.023,0.172-1.818,0.73-2.801,0.963c-1.263-2.016-3.522-7.393-5.973-4.675c-0.843,0.935-1.691,3.416-1.052,4.604
				c0.469,0.87,1.878-0.538,1.972,1.163c0.079,1.437-1.324,0.921-2.123,1.027c-0.973,0.129-1.892-0.334-2.824,0.176
				c-0.29,0.158-0.552,0.662-0.828,1.073c-0.462,0.111-0.916,0.226-1.363,0.342c-0.87-0.563-1.877-1.973-2.056-2.566
				c-0.287-0.95,0.321-2.13,0.1-3.1c-0.181-0.793-0.754-1.181-1.08-1.92c-0.614-1.394-0.97-3.333-1.167-4.952
				c-1.971,0.432-2.227,5.203-2.833,6.947c-0.382,1.1-1,3.077-1.9,4.209c0.523-0.496,1.06-0.943,1.726-1.129
				c0.378,1.23,0.586,3.103,0.273,4.728c-2.223,0.861-4.212,1.798-5.997,2.786c-1.263-0.527-2.416-1.383-3.145-2.267
				c0.111,1.254,0.207,2.667,0.216,4.05c-2.165,1.447-3.976,2.97-5.511,4.508c-0.362-0.619-0.247-1.428-0.579-2.963
				c-0.212-0.981-2.156-4.716-2.829-4.869c-1.195,3.595-0.086,7.821,0.018,11.773c-0.775,1.043-1.455,2.067-2.067,3.057
				c-1.239-0.935-2.572-1.801-2.345,0.927c-0.906,0.126-1.771,0.228-2.685,0.314c-0.318,1.243-0.173,2.561-0.151,3.849
				c0.026,1.507-0.527,2.12-0.774,3.227c-0.051,0.229-0.072,0.448-0.101,0.67c-0.214,0.142-0.435,0.266-0.667,0.365
				c-6.938,3.001-30.354,27-30.354,27l0.838,35.501c-1.109-0.854-2.048-1.988-2.689-2.978c-1.444-2.23-4.272-5.026-4.493-7.701
				c-1.396,0.244-0.592,1.844-0.731,2.946c-0.2,1.588-0.841,2.364-1.05,3.95c-0.134,1.019-0.447,4.198-0.052,5.091
				c0.812,1.834,1.655,0.563,2.92,0.028c0.295,1.646-1.173,3.15-2.605,4.697l-4.13,2.266c-1.167-1.802-2.52-4.231-3.859-3.955
				c-1.339,0.275-1.267,3.973-1.474,4.893c-0.021,0.092-0.521,1.639-0.798,2.425l-1.084,0.595c-0.404-0.153-0.503-0.688-1.121-0.797
				c-1.889-0.333-2.588-0.181-4.02-1.195c-1.585-1.125-2.279-2.063-3-3.777c-0.702-1.669-0.462-3.206-0.98-5.021
				c-0.283-0.989-1.407-2.999-2.575-3.122c-0.56,1.857-0.714,6.03-0.251,7.948c0.294,1.217,0.89,1.545,1.075,2.925
				c0.158,1.18-0.058,2.455,0.048,3.653c-2.492-3.971-5.536,7.694-5.826,8.593c-0.362,1.124-1.209,4.911-2.998,4.626
				c-1.738-0.277-2.248-3.401-2.443-4.55c-2.072,2.299-1.447,5.614-4.749,3.472c-1.084-0.703-2.447-1.535-3.326-2.496
				c-0.914-1-1.308-2.969-2.553-3.171c-0.823,1.522,0.574,1.675,1.102,2.793c0.921,1.955,1.105,4.095,2,6.1
				c0.984,2.205,1.259,5.126,2.618,7.223c-0.95-0.483-1.733,0.598-2.364,1.909l2.508-1.694c0.302,0.427,0.636,0.83,1.057,1.164
				c-0.338-0.602-0.66-0.993-0.964-1.228l7.485-5.057c-3.779,6.364-11.192,14.045-25.529,17.249l10.448-7.06
				c-0.357-0.712-0.616-1.58-0.731-2.403c-1.212,0.15-3.203,2.628-4.052,3.63c-0.799,0.942-1.194,2.161-2.003,3.071
				c-0.841,0.945-1.501,0.834-2.503,1.422c-0.823,0.481-1.326,1.315-2.205,1.565c-0.119,0.023-0.241,0.046-0.36,0.069
				c-0.144,0.012-0.295,0.013-0.462-0.009c-0.957-0.125-1.781-2.001-3.219-1.968c-1.155,0.026-3.227,1.549-3.182,2.931
				c-7.751,0.66-17.081,0.164-28.315-2.057c-0.988-0.194-1.938-0.377-2.857-0.55l7.193-18.199l-6.234-3.954
				c1.142-1.154,3.234-1.813,2.193-3.933c-0.432-0.07-0.707,0.092-0.826,0.487c0.177-1.598-1.604-2.911-0.792-4.403
				c0.748-1.373,2.577-1.023,3.47-2.251c-2.289-0.333-3.09,1.626-4.895,1.842c-1.256,0.15-1.742-0.462-1.896-1.389
				c-0.163,0.82-0.482,1.615-1.109,2.396c-0.945,1.175-1.687,2.102-2.35,3.315l-0.569-0.36l-4.429-0.226
				c0.267-0.872,1.161-1.664,2.25-2.308c-2.02-0.109-4.468-4.42-4.674-6.199c0.015-0.683,0.031-1.364,0.046-2.047
				c-0.12-0.945-0.665-1.538-0.8-2.199c-0.237-1.156,0.314-3.495-1.004-3.697c-0.659,4.03-2.265,7.768-3.103,11.746
				c0.588,0.131,1.177,0.262,1.765,0.393c-0.087,1.018-1.065,1.229-1.658,2.004c-0.325,0.425-0.636,1.208-0.907,1.896l-6.027-0.307
				c0.452-0.644,1.451-0.95,1.596-1.816c0.192-1.145-0.752-2.671-1.13-3.773c-0.707-2.062-1.616-3.821-1.973-6.146
				c-1.904,0.297-0.262,5.461-0.733,6.972c-0.361,1.155-1.287,1.211-1.853,2.147c-0.486,0.805-0.042,1.664-0.421,2.387l-6.43-0.327
				l-0.873,1.469c-0.332-1.14-0.503-2.396-0.668-3.62c-1.815,0.187-2.654,3.438-2.827,4.873c-0.337,2.786-0.202,4.826-1.699,7.298
				c-0.692,1.142-0.916,1.09-1.164,2.147l-2.87,4.83c-1.847-0.234-3.536-2.76-5.042-3.148c-0.673,2.202,0.11,4.653-0.18,6.92
				c-0.214,1.681-1.2,4.317-2.246,5.754c-1.133,1.559-2.198,2.19-3.026,3.974c-1.257,2.707-2.063,2.466-4.548,1.349
				c-0.609,1.999,0.421,6.866,0.203,10.123l-7.149,12.03l51.167,15.002l11.287-28.561c8.285,4.507,16.464,8.311,16.464,8.311
				l124.882-6.001l5.203-82.498l-8.076-6.65l21.085-7.598l45.963-40.499l21.681-23.25L6815.24,695.01z"/>
			<path fill="#54B1B5" d="M6923.085,775.666c-0.05-0.546-0.138-1.074-0.288-1.566c-0.754,0.366-2.177,0.521-2.822,0.875
				c-0.885,0.486-1.824,1.825-2.776,1.922c-0.609-2.081-0.01-4.412,1.424-5.968c-2.478-0.149-3.448,1.377-5.372,1.972
				c-0.508-0.755-1.796-2.354-2.052-3.123c-0.407-1.223-0.011-2.376-0.37-3.606c-0.553-0.114-1.105-0.228-1.658-0.342
				c-0.351-1.2,0.206-2.501-0.37-3.63c-0.52-1.017-2-1.625-2.801-2.199c-1.947-1.396-3.732-3.335-5.875-4.651
				c-0.349,0.696,0.602,2.771,1.098,3.429c0.843,1.119,1.306,1.784,2,2.977c0.781,1.343,4.974,7.545,3.649,9.095
				c-0.928,1.087-3.943-0.871-4.744,0.325c-1.085,1.622,1.816,2.938,2.646,3.83c3.992,4.289-3.354,2.501-5.694,3.195
				c0.328,1.47,3.457,2.666,4.897,2.827c3.376,0.38,4.042,0.434,5.745,3.251c1.096,1.813,1.905,2.72-0.948,3.497
				c-2.369,0.645-5.151-0.384-7.448,0.425c0.888,0.701,1.772,1.225,2.671,1.801c1.785,1.145,1.374,1.076,2.003,3
				c0.317,0.968,0.583,1.961,0.693,2.959l-4.882,6.045c-2.03-0.397-2.208-1.135-3.057-2.755c-0.51-0.974-1.56-2.11-1.806-3.197
				c-0.363-1.601,0.308-3.34-0.096-4.972c-1.433-0.315-2.569,1.453-2.924,2.621c0.239-2.776,1.41-12.115-2.733-12.602
				c-0.169,1.337-0.016,2.653-1.224,3.547c0.226-1.979-1.784-3.42-0.769-5.447c0.265-0.528,0.7-0.938,1.185-1.313
				c-0.146-0.179-0.3-0.443-0.462-0.818c-0.353-0.812,0.318-2.233,0.126-3.119c-0.237-1.096-1.209-1.571-1.274-2.845
				c-2.121,0.429-1.962,5.186-2.777,6.948c-1.158,2.505-1.163,5.017-1.023,7.948c0.14,2.946,1.819,4.289,3.775,6.247
				c1.085,1.087,3.971,3.111,4.145,4.554c-2.542,0.766-5.558,0.266-7.694-0.701c-0.418,1.433-0.405,3.307-0.055,4.753
				c0.934,0.094,1.825,0.205,2.753,0.343c-0.262,2.032-3.333,2.273-4.952,1.856c-0.161-0.041-0.288-0.085-0.411-0.129l-5.497-10.564
				c1.332-1.018,3.388-1.024,4.658-2.133c-1.758-0.687-3.843-0.389-5.887-0.229l-1.834-3.523c0.686-0.702,1.404-1.323,1.875-1.724
				c-0.432-1.028-0.891-1.423-0.899-2.749c-0.012-1.906,1.244-2.129,1.699-3.829c-0.823-0.133-1.651-0.238-2.509-0.318
				c-0.346-1.308,0.13-2.554-0.092-3.853c-0.255-1.483-0.991-2.448-1.075-4c-0.154-2.844-0.087-5.854,0.075-8.697
				c-1.224,1.974-1.59,4.516-2.297,6.697c-0.554,1.71-0.265,5.605-2.559,5.9c-0.214-1.719-0.759-5.447-2.199-6.547
				c-0.254,0.602-0.61,1.221-1.003,1.854l-12.462-23.949l-30.353,3.75l11.273,74.248l35.098-1.813l-1.276,1.813l84.122,27.749
				l27.751-144.746L6923.085,775.666z"/>
			<path fill="#54B1B5" d="M6302.706,905.754c-31.22,3.749-55.503,9.749-78.051-26.25c-22.547-35.999-56.37-14.999-56.37-14.999
				s-10.407-21-12.141-32.999c-1.734-12,26.884-29.998,15.61-33.749c-11.274-3.75-6.07-38.999-6.07-38.999l-9.54-8.25l-3.469,41.999
				l-27.751,29.249l14.743,96.748l167.376,0.749C6307.042,919.253,6333.927,902.004,6302.706,905.754z"/>
			<path fill="#54B1B5" d="M6494.607,870.043c-0.486-0.092-1.004-0.14-1.459-0.19c-0.325-1.348-0.438-3.312,0.052-4.63
				c0.418-1.125,1.91-1.499,1.701-3.078c-0.965-0.353-1.853,0.062-2.808-0.34c0.293-0.354,0.486-1.345,0.76-1.657
				c-2.205,0.745-2.296,1.548-2.872-1.128c-0.379-1.764,0.13-3.977,0.042-5.773c-0.122-2.501-0.938-4.718-1.02-7.242
				c-0.044-1.362-0.03-2.739,0.007-4.104c-0.103,1.292-0.673,3.146-0.982,4.152c-0.482,1.571-0.782,2.182-1.001,3.975
				c-0.189,1.54-0.734,2.44-1.03,3.947c-0.291,1.479,0.089,2.394-1.58,3.249c1.446,2.288-0.756,4.346-3.05,3.699
				c0.723,0.468,0.883,1.18,0.46,1.955c-0.933-0.073-1.302-0.838-1.927-1.526c1.309,1.85,1.066,3.521,1.096,5.646
				c0.035,2.451,0.205,2.253-1.754,3.246c-4.805,2.436-1.633-1.968-4.242-3.844c-0.206,0.46-0.797,0.744-1.003,1.203
				c-1.769-1.776-2.299-4.356-3.274-6.598c-1.07-2.461-1.723-3.99-1.722-6.701c0.015,1.131-0.316,2.664-0.052,3.749
				c0.297,1.222,0.893,1.539,1.075,2.925c0.196,1.486,0.592,6.118-0.604,7.043c0.42,0.323,0.778,0.826,1.234,1.08
				c-2.364-1.215-4.615-2.813-7.351-1.929c0.836,1.749,2.196,1.497,3.714,2.048c1.955,0.71,1.73,0.74,1.278,2.032
				c-0.422,1.204-1.124,1.126-1.317,2.726c-0.033,0.272-0.046,0.557-0.055,0.843l-22.028,22.315
				c-0.628,0.005-1.24-0.082-1.695-0.334c-0.414-0.229-1.956-1.508-2.226-1.771c-0.565-0.551-1.17-0.551-1.215-1.669
				c-0.411,0.345-0.673,0.777-0.786,1.297c0.326-3.217-3.964-11.039-7.621-10.749c1.639,1.358,2.75,4.342,3.672,6.143
				c0.876,1.711,1.115,2.869,1,4.948c-0.176,3.197-0.986,3.994-4.023,3.993c-2.236-0.001-3.616,0.188-2.945-2.643
				c-2.344,1.646-1.011,6.554-0.155,8.446c-0.033,0.01-0.07,0.017-0.104,0.026l-6.481-0.14c-0.206-0.208-0.191-0.637-0.335-1.664
				c-0.224-1.597,0.046-3.398,0.023-5.016c-0.02-1.441,0.585-2.19,0.771-3.223c0.514-2.856-1.573-4.264-2.774-6.729
				c-0.208-0.427-0.525-1.022-0.878-1.7c0.414,2.292-0.122,5.369-0.122,7.648c0,1.331-0.031,2.666-0.003,3.996
				c0.04,1.927,0.1,1.938-0.977,3.027c-1.146,1.159-4.244,2.707-5.868,2.873c-0.553-2.154,0.091-4.505-0.374-6.674
				c-0.234-1.092-0.795-1.734-0.774-3.227c0.014-0.998-0.002-1.998-0.003-2.996c-0.003-2.665-0.077-4.688-0.754-7.223
				c-0.688-2.572-1.245-4.815-1.246-7.475c0,2.548,0.161,5.154,0.023,7.697c-0.084,1.552-0.821,2.517-1.075,4
				c-0.162,0.949,0.382,2.129,0.1,3.048c-0.377,1.231-2.005,3.165-2.774,4.227c-0.84,1.158-2.999,2.102-3.171,3.526
				c1.592,0.497,3.202-0.099,4.794,0.398c-0.204,1.688-3.151,3.14-4.171,4.526c-0.095,0.13-0.193,0.307-0.293,0.51l-8.667-32.231
				l-6.534-0.245c-0.235-0.565-0.422-1.128-0.458-1.636c-0.577,0.248-1.616,0.898-2.723,1.516l-3.744-0.141
				c0.262-0.811,0.685-1.654,0.72-2.494c0.043-1.041-0.166-1.821,0.144-2.833c0.553-0.115,1.107-0.229,1.662-0.338
				c0.112-0.905,0.22-1.759,0.338-2.662c2.259-0.056,1.942-1.552,4.107-0.441c1.259,0.646,1.504,2.054,3.372,1.116
				c-0.83-2.686-3.375-4.568-4.895-6.842c-1.145-1.712-2.501-3.094-3.803-4.653c0.156,2.816,0.164,4.339-1.206,6.621
				c-0.911,1.516-1.222,1.998-2.739,3.024c-0.907,0.614-1.622,0.898-1.934,1.801c0.79,0.353,1.745,0.341,2.577,0.151
				c-1.315,1.403-3.94,1.588-3.82,3.881c-2.101,0.3-3.815,0.488-5.527,1.972c1.783,0.615,3.765-0.151,5.595,0.398
				c-0.058,0.47-0.189,0.816-0.366,1.082l-4.966-0.187c-0.196-0.053-0.382-0.098-0.542-0.118c-0.233-0.029-0.614,0.009-1.044,0.059
				l-2.704-0.102c-0.048-0.034-0.11-0.06-0.144-0.104c-1.023-1.348,0.664-2.118,1.772-2.052c-0.387-0.922-3.205-2.456-3.023-3.801
				c0.255-1.889,3.649-0.689,4.04-2.801c-1.876-0.729-3.161,1.584-4.991,0.919c-1.667-0.606-0.831-2.591-0.906-4.095
				c-0.058-1.164-0.428-2.143-0.714-3.174c0.141,3.343-0.073,6.848-2.161,8.448c0.802,1.765,1.245,4.242,0.903,6.464l-6.179-0.232
				l-0.354,0.094c-0.812-0.394-1.203-1.032,0.318-1.874c0.086-0.479-0.129-0.805-0.646-0.973c0.223-0.293,0.401-1.316,0.666-1.602
				c-1.55,0.052-1.79,2.2-3.075,2.669c-2.575,0.938-1.791-2.186-1.781-3.82c0.016-2.613,0.011-5.229,0.006-7.843
				c-0.234,1.024-0.872,1.787-1.058,2.843c-0.302,1.717,0.808,4.511,0.126,6.075c-0.238,0.546-2.506,2.313-3.274,2.726
				c-1.607,0.863-3.605,0.149-5.424,1.176c0.739,0.746,1.728,2.721,1.817,3.829c0.048,0.012,0.097,0.023,0.145,0.035l-10.014,2.664
				l36.423,44.998l143.094-8.25l-9.54-44.249L6494.607,870.043z"/>
			<path fill="#54B1B5" d="M6090,882c-8.438-1.08-14.78-5.889-24-4.207c-9.102,1.661-17.828,5.564-27.109,7.317
				c-7.556,1.426-17.267,1.997-24.983,0.982c-7.508-0.988-11.688-5.329-20.014-4.171c-8.915,1.239-30.167,21.38-39.097,15.566
				c-3.881-2.527-10.633-18.903-12-23.488c-2.669-8.959,1.105-18.702-1.608-27.602c-4.411,2.143-11.548,5.799-16.079,6.712
				c-8.196,1.651-14.332,2.438-19.188-3.032c-5.348-6.022-5.543-16.806-8.926-24.285c-1.732-3.829-5.053-7.765-6.213-11.779
				c-1.495-5.174,0.381-9.123-3.607-13.188c-6.227-6.348-14.416,0.474-21.369-3.43c-7.527-4.227-7.88-16.155-7.793-23.396
				c0.094-7.723,1.067-16.458,0.079-24.093c-1.056-8.147-5.405-15.735-8.207-24c-1.86-5.49-2.042-11.691-8.683-15.11
				c-3.969-2.042-7.445,0.354-11.424-0.576c-2.87-0.67-4.908-5.176-7.857-4.713c-5.119,0.805-6.072,18.61-7.032,23.603
				c-1.839,9.56-0.272,19.194-0.797,28.89c-0.467,8.612-4.194,15.064-4.079,24c0.104,7.962-0.531,16.059-0.106,24
				c0.521,9.727,6.835,13.814,0.157,20.078c-6.267,5.879-15.436,0.943-21.24,6.747c-3.724,3.724-1.363,4.727-2.824,9.175
				c-0.361,1.099-2.943,8.083-3.11,8.89c-1.563,7.557,0.655,15.548-0.683,23.11c-0.986,5.573-3.683,18.42-7.922,20.285
				c-9.277,4.082-18.572-2.511-28.378,3.622c-5.056,3.163-10.079,10.957-15.714,12.378c-5.666,1.429-17.056-3.667-21.275-7.096
				c-12.92-10.498-5.24-34.795-22.825-37.268c-7.724-1.087-13.901,0.166-20.079,4.092c-1.846,1.174-5.08,4.129-6.917,5.083
				c-3.247,1.687-6.06,1.452-9.211,2.789c-6.952,2.952-11.366,5.482-19.964,4.192c-5.482-0.822-5.877,1.568-8.207-3.793
				c-1.516-3.487,0.348-12.293,0.299-16.271c-0.16-13.159,15.783-28.338,0.18-37.11c-5.824-3.274-17.172-7.599-23.304-6.198
				c-5.384,1.229-15.831,10.915-21.004,14.305c-8.147,5.34-15.831,12.12-23.886,17.262c-13.1,8.361-20.104-9.177-24-20.258
				c-6.609-18.794-22.016-36.57,2.698-51.202c-7.31-2.565-10.083,1.111-15.588,2.299c-6.776,1.461-15.591,1.965-22.491,0.491
				c-2.717-7.949,0.813-12.461,2.491-19.487c1.598-6.689,0.911-13.374,0.89-20.207c-0.036-11.59-0.62-21.122-4.904-32
				c-3.707-9.415-14.072-17.054-23.109-20.99c-6.289-2.738-9.595-1.725-15.986-2.71c-5.846-0.901-9.879-5.252-15.488-6.713
				c-1.326,2.581,3.42,14.689,4.364,18.52c2.112,8.57,3.097,14.742,3.124,23.986c0.02,6.869,2.823,17.229-3.701,20.271
				c-11.228,5.237-14.106-11.619-21.502,3.457c-6.738,13.736-9.714,36.858-7.004,52.271c1.596,9.07,5.438,13.432,3.317,23.11
				c-0.511,2.33-2.535,5.569-3.124,8.783c-1.529,8.341-0.127,8.494-8,13.189c-8.021,4.782-9.789,7.467-14.996,15.017
				c-3.02,4.378-7.623,10.512-12.798,12.093c-4.523,1.383-19.849,1.356-24.385,0c-6.827-2.04-11.32-11.504-14.817-17.082
				c-4.584-7.312-8.806-14.408-9.097-23.097c-0.279-8.315-0.966-18.39-12.207-9.188c-4.892,4.004-6.996,10.97-7.779,17.082
				c-0.776,6.058,3.675,22.95-0.512,27.502c-1.582,1.72-9.102,0.945-11.41,1.48c-3.153,0.731-8.97,2.742-12.079,4
				c-6.743,2.729-13.254,6.715-19.921,9.907c-9.225,4.417-34.114,31.028-41.083,26.471c-12.091-7.909-1.804-41.329-22.917-30.442
				c-9.7,5.001-12.604,9.373-23.986,9.161c-10.36-0.194-20.749,0.014-31.11,0.014c-9.333,0-40.17,2.576-41.275-12.028
				c-0.481-6.363,12.018-19.267,15.588-24.271c5.455-7.646,5.518-14.006,4.89-23.701c-0.613-9.465-4.789-16.975-11.096-24.207
				c-4.648-5.329-9.809-13.387-16-16.954c-14.605-8.414-12.99,21.646-25.794,28.364c-5.58,2.928-13.1-0.161-19.203,1.608
				c-8.168,2.368-14.518,9.231-20.093,15.202c-5.444,5.832-10.496,11.656-12.1,19.779c-1.577,7.983,3.227,17.301-2.632,24.479
				c-5.146,6.304-10.422,2.799-17.987,3.521c-12.253,1.171-22.529,4.264-35.295,4.193c-9.892-0.056-22.534,2.205-32.086-0.798
				c-8.214-2.582-13.386-11.468-20.697-14.377c-11.806-4.697-27.537,3.554-39.203-1.416c-16.783-7.15-13.46-34.216-16.797-47.488
				c-2.676-10.64-4.354-26.775-14.918-32.99c-11.945-7.027-32.807-2.347-43.096,4.399c-4.583-7.152-18.016-2.277-25.189-3.224
				c-9.174-1.21-17.814-5.467-27.303-7.681c-2.674,11.12,3,25.098-0.319,35.795c-3.888,12.526-18.521,10.538-28.378,11.7
				c-11.55,1.362-17.976,9.471-22.889,20c-6.055,12.977-3.809,29.076-21.032,32.285c-5.129,0.956-11.14-1.645-16.192-0.399
				c-5.069,1.25-5.543,5.407-11.793,4.599c-12.359-1.598-17.83-22.864-20-32.313c-4.066-17.703-7.828-32.796-7.986-51.088
				c-0.083-9.599-0.188-15.395,3.907-24.193c3.748-8.053,10.562-12.912,14.791-20.285c-4.024-2.056-17.987,5.823-21.808,8.506
				c-8.193,5.754-12.545,13.08-16.918,21.907c-6.723,13.572-15.871,25.887-21.068,40.071c-2.393,6.531-4.818,29.389-11.821,32.285
				c-5.686,2.352-4.02-1.695-8-2.405c-5.076-0.905-9.797-0.876-15.096-0.876c-3.54,0-8.811-1.041-12.207-0.207
				c-5.184,1.273-5.433,4.857-11.701,4.506c-4.431-0.248-7.719-3.737-12.093-4.506c-4.883-0.857-11.003,0.24-16,0.207
				c-5.281-0.035-11.016-0.938-16.093,0.797c-4.587,1.569-6.99,5.881-11.202,6.713c-1.706-3.093-1.074-5.938,1.814-7.809
				c-7.568,0.72-17.714,1.723-26.746,1.247c-1.391,44.259-3.255,88.52-4.002,132.746c-0.367,21.691,0.143,43.352,0.875,65.015
				c42.889,6.778,85.365,16.397,127.81,28.209c56.267,15.656,112.949,30.866,168.101,50.164
				c50.043,17.512,99.937,35.049,151.365,48.079c116.109,29.419,240.44,18.839,359.267,18.839c47.001,0,94.003,0.037,141.004,0
				c77.997-0.061,158.948,2.596,235.116-17.132c38.027-9.851,75.501-22.314,112.849-34.171c14.555-4.621,29.484-5.045,44.221-8.762
				c11.538-2.91,20.639-4.203,32.512-4.014c19.427,0.309,38.87,0.078,58.299,0.078c15.332,0,38.462,4.574,52.207-3.715
				c11.249-6.784,16.991-20.058,25.495-29.382c8.385-9.194,18.961-16.75,26.219-26.903c12.246-17.13,27.708-30.764,40.877-47.11
				c7.536-9.354,13.881-16.938,19.123-27.985c2.517-5.302,10.578-14.963,8.891-20.904L6090,882z"/>
			<path fill="#54B1B5" d="M6892.23,776.506c-0.565,0.5-1.242,0.915-1.843,1.38C6891.1,778.759,6891.641,777.549,6892.23,776.506z"
				/>
			<path fill="#54B1B5" d="M6893.126,775.377c-0.326,0.176-0.616,0.634-0.896,1.129
				C6892.598,776.181,6892.918,775.82,6893.126,775.377z"/>
			<path fill="#54B1B5" d="M6760.071,716.232c-0.223,0.211-0.445,0.428-0.671,0.643
				C6759.642,716.728,6759.862,716.495,6760.071,716.232z"/>
			<path fill="#54B1B5" d="M6785.988,694.017c-0.004-0.237-0.003-0.477-0.011-0.714
				C6785.964,693.548,6785.969,693.785,6785.988,694.017z"/>
			<path fill="#54B1B5" d="M6655.297,848.02c0.319-0.649,0.729-1.843,1.234-2.892l-4.996,3.375
				C6652.392,850.21,6653.828,851.006,6655.297,848.02z"/>
			<path fill="#54B1B5" d="M6600,818.303c-0.002,1.277-0.334,2.938-0.142,4.103C6600.115,821.116,6599.98,819.766,6600,818.303z"/>
			<path fill="#54B1B5" d="M6489.011,841.899c0.017-0.216,0.024-0.419,0.012-0.597
				C6489.016,841.5,6489.016,841.701,6489.011,841.899z"/>
			<path fill="#54B1B5" d="M6418,883c-0.387-1.143,0.193-1.806-1.075-2.623c-0.156,1.332,1.172,4.006,2.197,5.975
				c-0.024-0.134-0.039-0.275-0.07-0.403C6418.835,885.057,6418.296,883.874,6418,883z"/>
			<path fill="#54B1B5" d="M6349,853.303c0,1.285,0.003,2.57,0.006,3.854c0.012-0.054,0.036-0.102,0.046-0.157
				C6349.254,855.863,6348.984,854.467,6349,853.303z"/>
			<path fill="#54B1B5" d="M6360.977,854c0.036,0.653,0.171,1.248,0.332,1.826c-0.087-2.066-0.309-4.07-0.309-5.523
				C6360.998,851.524,6360.91,852.782,6360.977,854z"/>
		</g>
	</g>
	<path fill="#A4D3D8" d="M7372.004,968.002v-48c0,0-86.725,21.001-102.334-4.499s-34.689-16.5-65.909-16.5
		c-31.222,0-19.079-56.998-19.079-56.998l-31.221,1.5c0,0-19.079-40.499-34.689-44.998c-15.609-4.5,31.22,44.998-17.345,55.499
		c-48.565,10.499-79.785,12-79.785,12l6.938-37.499l-38.157-4.501l64.174-164.995l-65.909,20.999l-81.52,133.496l-31.22-1.499
		l-10.407-18l-19.079-38.999l17.345-12l3.469-26.999l-52.034-20.999c0,0,8.673,15-27.751,24
		c-36.424,8.999-36.424,28.499-36.424,28.499l-26.018,23.999l-1.734,41.998l-39.892,25.5c0,0-17.345,23.999-48.565,23.999
		s-26.017-26.999-26.017-26.999l-22.548-1.501l-12.142,40.5l-72.847-6.001l-60.707,42h-48.565l-12.141-35.999l-48.565,1.5
		l-39.892,29.998c0,0-48.565,18.001-76.317-17.999c-27.752-35.999-53.769-13.499-53.769-13.499l-13.875-43.499l15.61-29.998
		l-6.938-51l-38.159,3c0,0,58.972,43.498-6.938,50.999c-65.91,7.5-15.611,22.499-15.611,22.499l-5.203,37.499l-43.362,10.5v29.998
		c0,0,6.938-22.5-19.08,19.501c-26.017,41.998-53.768,41.998-53.768,41.998l627.876,41.998l716.333,16.5L7372.004,968.002z"/>
	<path fill="#BAE6E8" d="M6952.802,1016.583c-0.332-0.782-0.491-1.646-0.522-2.556c-1.763,0.841-3.545,1.641-5.335,2.42
		L6952.802,1016.583z"/>
	<path fill="#BAE6E8" d="M6950.909,786.747c-2.394-11.293-4.826-22.86-6.333-34.503l-37.41,61.262l-0.191-0.009
		c-0.389,8.316-1.379,16.653-3.074,25.006c0.006,0.067,0.014,0.135,0.02,0.203c-0.024,0.014-0.047,0.027-0.071,0.041
		c-0.397,1.939-0.824,3.88-1.297,5.821c-2.438,5.416-5.656,10.329-9.654,14.74c-2.591,2.698-5.181,5.396-7.772,8.095
		c-8.675,8.187-18.546,15.429-29.216,20.804c-6.139,3.092-26.586,12.606-27.832-0.913c-0.895-9.715-1.931-19.423-4.389-28.876
		c-3.198-9.786-7.85-18.854-14.284-26.954c-5.61-7.063-12.028-13.772-15.61-22.181c-4.833-11.346-8.055-24.952-6.614-37.33
		c1.333-11.452,4.842-22.479,7.67-33.625c0.251-1.221,0.482-2.441,0.686-3.662c-3.518-5.177-7.337-10.115-11.477-14.747
		c-32.991,9.336-32.995,27.59-32.995,27.59l-26.018,23.999l-1.734,41.998l-12.371,7.908c-0.357,0.773-0.729,1.54-1.13,2.291
		c-6.414,12.016-14.432,22.591-24.685,31.698c-11.458,10.177-24.154,20.347-38.233,26.73c-11.304,5.126-28.454,12.856-40.926,6.174
		c-7.931-4.249-13.474-9.582-17.056-17.931c-3.277-7.637-5.383-15.819-6.149-24.104l-8.614,28.731l-72.847-6.001l-47.315,32.735
		c6.142,7.548,13.093,14.332,21.344,19.583c0.472,0.252,0.938,0.516,1.416,0.76c3.47,0.845,5.195,3.053,5.175,6.624
		c-0.457,1.954-0.913,3.908-1.369,5.862c-3.533,8.805-10.658,16.448-17.425,22.835c-8.675,8.187-18.546,15.429-29.216,20.804
		c-5.248,2.813-10.793,4.746-16.638,5.801c-2.006-0.03-4.013-0.061-6.019-0.09c-42.592-21.824-52.565-72.021-83.706-104.573
		l-36.115,27.158c0,0-41.068,15.219-69.254-10.33c-3.067,2.211-6.206,4.282-9.416,6.162c-14.946,8.752-42.044,23.783-54.923,3.623
		c-7.263-11.369-9.79-26.335-11.357-39.524c-1.788-15.036-2.115-30.333-0.954-45.433c0.942-12.264,2.127-26.535,7.92-37.569
		c1.736-3.308,3.715-6.484,5.877-9.541l-3.181-23.383l-38.159,3c0,0,58.972,43.498-6.938,50.999
		c-65.91,7.5-15.611,22.499-15.611,22.499l-5.203,37.499l-43.362,10.5v23.983c-1.729,0.094-6.63,5.419-19.08,25.516
		c-26.017,41.998-53.768,41.998-53.768,41.998l627.876,41.998l304.732,7.02c1.642-6.294,6.658-12.404,10.468-16.828
		c6.019-6.989,13.138-13.725,20.999-19.443c0.22-47.362,2.483-95.001,10.544-141.711c1.833-10.624,3.908-21.287,6.45-31.833
		C6953.681,799.375,6952.247,793.059,6950.909,786.747z"/>
	<path fill="#BAE6E8" d="M7320.688,974.42c-9.85-3.604-19.844-5.747-30.248-6.337c-9.957,0.46-19.395,3.698-29.328,4.49
		c-11.361,0.906-21.52-0.768-29.961-7.329c-0.721,0.277-1.444,0.553-2.178,0.809c-3.551,1.238-14.622,4.839-17.615-0.425
		c-2.142-3.765-5.265-6.577-7.958-9.646c-3.323,0.679-6.521,0.963-10.508,0.72c-2.171-0.133-6.559-1.094-7.534-3.074
		c-0.604-1.226-1.191-2.458-1.762-3.695c-2.732,0.958-5.516,1.688-8.322,2.075c-3.789,0.934-7.095,0.141-9.916-2.38
		c-0.13-0.334-0.245-0.673-0.372-1.008c-3.806,1.609-7.735,2.838-11.712,3.388c-3.789,0.934-7.095,0.141-9.916-2.38
		c-0.111-0.342-0.211-0.687-0.32-1.029c-3.821,1.62-7.769,2.857-11.764,3.409c-1.906,0.47-3.689,0.5-5.351,0.096
		c-4.528,3.831-9.325,7.347-14.278,10.521c-5.866,3.76-35.902,21.685-37.565,4.67c-0.359-3.674-0.388-7.362-0.226-11.059
		c-6.252,3.147-15.249,7.383-22.6,5.683c-0.536-0.131-1.017-0.306-1.47-0.501c-3.263,2.552-6.643,4.955-10.14,7.207
		c-5.132,3.289-10.827,6.591-16.787,8.846c-3.777,5.921-8.699,11.185-13.731,15.934c-8.675,8.187-18.546,15.429-29.216,20.804
		c-1.823,0.918-3.885,1.928-6.069,2.86l344.393,7.933l34.992-37.093C7342.284,983.654,7331.711,978.453,7320.688,974.42z"/>
	<path fill="#A4D3D8" d="M6084,889c-8.438-1.08-14.78-5.889-24-4.207c-9.102,1.661-17.829,5.564-27.11,7.317
		c-7.555,1.426-17.266,1.997-24.983,0.982c-7.508-0.988-11.688-5.329-20.014-4.171c-8.915,1.239-30.167,21.38-39.096,15.566
		c-3.881-2.527-10.634-18.903-12-23.488c-2.669-8.959,1.105-18.702-1.609-27.602c-4.411,2.143-11.548,5.799-16.079,6.712
		c-8.197,1.651-14.332,2.438-19.188-3.032c-5.347-6.022-5.542-16.806-8.925-24.285c-1.732-3.829-5.053-7.765-6.213-11.779
		c-1.495-5.174,0.38-9.123-3.608-13.188c-6.226-6.348-14.415,0.474-21.368-3.43c-7.527-4.227-7.88-16.155-7.793-23.396
		c0.093-7.723,1.067-16.458,0.079-24.093c-1.055-8.147-5.405-15.735-8.207-24c-1.861-5.49-2.042-11.691-8.683-15.11
		c-3.969-2.042-7.445,0.354-11.423-0.576c-2.87-0.67-4.908-5.176-7.858-4.713c-5.119,0.805-6.071,18.61-7.032,23.603
		c-1.839,9.56-0.272,19.194-0.797,28.89c-0.467,8.612-4.194,15.064-4.079,24c0.103,7.962-0.532,16.059-0.107,24
		c0.521,9.727,6.835,13.814,0.157,20.078c-6.267,5.879-15.436,0.943-21.24,6.747c-3.724,3.724-1.363,4.727-2.825,9.175
		c-0.361,1.099-2.943,8.083-3.11,8.89c-1.564,7.557,0.655,15.548-0.683,23.11c-0.986,5.573-3.682,18.42-7.921,20.285
		c-9.278,4.082-18.573-2.511-28.378,3.622c-5.056,3.163-10.079,10.957-15.714,12.378c-5.666,1.429-17.055-3.667-21.275-7.096
		c-12.919-10.498-5.24-34.795-22.825-37.268c-7.724-1.087-13.901,0.166-20.079,4.092c-1.847,1.174-5.081,4.129-6.917,5.083
		c-3.248,1.687-6.06,1.452-9.211,2.789c-6.953,2.952-11.366,5.482-19.964,4.192c-5.482-0.822-5.876,1.568-8.207-3.793
		c-1.516-3.487,0.348-12.293,0.299-16.271c-0.16-13.159,15.783-28.338,0.179-37.11c-5.824-3.274-17.171-7.599-23.303-6.198
		c-5.384,1.229-15.832,10.915-21.004,14.305c-8.147,5.34-15.832,12.12-23.886,17.262c-13.099,8.361-20.104-9.177-24-20.258
		c-6.609-18.794-22.016-36.57,2.698-51.202c-7.31-2.565-10.083,1.111-15.588,2.299c-6.776,1.461-15.59,1.965-22.492,0.491
		c-2.716-7.949,0.813-12.461,2.492-19.487c1.598-6.689,0.911-13.374,0.89-20.207c-0.036-11.59-0.62-21.122-4.904-32
		c-3.708-9.415-14.072-17.054-23.11-20.99c-6.289-2.738-9.594-1.725-15.986-2.71c-5.846-0.901-9.879-5.252-15.488-6.713
		c-1.327,2.581,3.419,14.689,4.364,18.52c2.113,8.57,3.097,14.742,3.124,23.986c0.02,6.869,2.823,17.229-3.701,20.271
		c-11.228,5.237-14.107-11.619-21.502,3.457c-6.738,13.736-9.714,36.858-7.003,52.271c1.595,9.07,5.437,13.432,3.317,23.11
		c-0.511,2.33-2.535,5.569-3.125,8.783c-1.528,8.341-0.126,8.494-8,13.189c-8.021,4.782-9.789,7.467-14.996,15.017
		c-3.02,4.378-7.623,10.512-12.798,12.093c-4.523,1.383-19.849,1.356-24.385,0c-6.827-2.04-11.32-11.504-14.817-17.082
		c-4.584-7.312-8.806-14.408-9.097-23.097c-0.279-8.315-0.966-18.39-12.207-9.188c-4.892,4.004-6.996,10.97-7.779,17.082
		c-0.776,6.058,3.675,22.95-0.512,27.502c-1.582,1.72-9.102,0.945-11.41,1.48c-3.153,0.731-8.97,2.742-12.079,4
		c-6.743,2.729-13.254,6.715-19.921,9.907c-9.225,4.417-34.114,31.028-41.083,26.471c-12.091-7.909-1.804-41.329-22.917-30.442
		c-9.7,5.001-12.604,9.373-23.986,9.161c-10.36-0.194-20.749,0.014-31.11,0.014c-9.333,0-40.17,2.576-41.275-12.028
		c-0.481-6.363,12.018-19.267,15.588-24.271c5.455-7.646,5.518-14.006,4.89-23.701c-0.613-9.465-4.789-16.975-11.096-24.207
		c-4.648-5.329-9.809-13.387-16-16.954c-14.605-8.414-12.99,21.646-25.794,28.364c-5.58,2.928-13.1-0.161-19.203,1.608
		c-8.168,2.368-14.518,9.231-20.093,15.202c-5.444,5.832-10.496,11.656-12.1,19.779c-1.577,7.983,3.227,17.301-2.632,24.479
		c-5.146,6.304-10.422,2.799-17.987,3.521c-12.253,1.171-22.529,4.264-35.295,4.193c-9.892-0.056-22.534,2.205-32.086-0.798
		c-8.214-2.582-13.386-11.468-20.697-14.377c-11.806-4.697-27.537,3.554-39.203-1.416c-16.783-7.15-13.46-34.216-16.797-47.488
		c-2.676-10.64-4.354-26.775-14.918-32.99c-11.945-7.027-32.807-2.347-43.096,4.399c-4.583-7.152-18.016-2.277-25.189-3.224
		c-9.174-1.21-17.814-5.467-27.303-7.681c-2.674,11.12,3,25.098-0.319,35.795c-3.888,12.526-18.521,10.538-28.378,11.7
		c-11.55,1.362-17.976,9.471-22.889,20c-6.055,12.977-3.809,29.076-21.032,32.285c-5.129,0.956-11.14-1.645-16.192-0.399
		c-5.069,1.25-5.543,5.407-11.793,4.599c-12.359-1.598-17.83-22.864-20-32.313c-4.066-17.703-7.828-32.796-7.986-51.088
		c-0.083-9.599-0.188-15.395,3.907-24.193c3.748-8.053,10.562-12.912,14.791-20.285c-4.024-2.056-17.987,5.823-21.808,8.506
		c-8.193,5.754-12.545,13.08-16.918,21.907c-6.723,13.572-15.871,25.887-21.068,40.071c-2.393,6.531-4.818,29.389-11.821,32.285
		c-5.686,2.352-4.02-1.695-8-2.405c-5.076-0.905-9.797-0.876-15.096-0.876c-3.54,0-8.811-1.041-12.207-0.207
		c-5.184,1.273-5.433,4.857-11.701,4.506c-4.431-0.248-7.719-3.737-12.093-4.506c-4.883-0.857-11.003,0.24-16,0.207
		c-5.281-0.035-11.016-0.938-16.093,0.797c-4.587,1.569-6.99,5.881-11.202,6.713c-1.706-3.093-1.074-5.938,1.814-7.809
		c-5.987,0.569-13.587,1.311-20.974,1.362c-1.36,41.888-3.068,83.774-3.775,125.631c-0.412,24.364,0.276,48.689,1.15,73.024
		c40.759,6.71,81.161,15.964,121.535,27.199c56.267,15.656,112.949,30.866,168.101,50.164
		c50.043,17.512,99.937,35.049,151.365,48.079c116.109,29.419,240.44,18.839,359.267,18.839c47.001,0,94.003,0.037,141.004,0
		c77.998-0.061,158.949,2.596,235.116-17.132c38.028-9.851,75.501-22.314,112.849-34.171c14.555-4.621,29.484-5.045,44.221-8.762
		c11.539-2.91,20.639-4.203,32.512-4.014c19.427,0.309,38.871,0.078,58.299,0.078c15.332,0,38.462,4.574,52.207-3.715
		c11.249-6.784,16.991-20.058,25.495-29.382c8.385-9.194,18.961-16.75,26.22-26.903c12.246-17.13,27.708-30.764,40.876-47.11
		c7.537-9.354,13.882-16.938,19.124-27.985c2.516-5.302,10.577-14.963,8.89-20.904L6084,889z"/>
	<path fill="#BAE6E8" d="M6084,889c-8.438-1.08-14.78-5.889-24-4.207c-9.102,1.661-17.829,5.564-27.11,7.317
		c-7.555,1.426-17.266,1.997-24.983,0.982c-1.926-0.254-3.631-0.729-5.245-1.273c-7.648,5.776-16.657,11.72-25.689,14.233
		c-12.701,3.535-25.166,5.081-38.284,2.576c-9.939-1.898-19.504-5.479-28.509-10.065c-12.604-6.421-24.863-14.103-35.948-23.106
		c-2.189,1.01-4.393,1.984-6.623,2.882c-5.868,2.363-14.365,4.456-20.837,2.913c-9.276-2.212-12.219-10.118-14.189-18.389
		c-3.211-13.485-1.825-30.27,2.757-43.906c-1.049-3.063-2.034-6.148-2.958-9.248c-6.182-20.73-10.288-41.987-16.232-62.775
		c-1.845-5.994-3.903-11.912-6.323-17.685c-0.38,2.88-0.659,5.412-0.938,6.861c-1.839,9.56-0.272,19.194-0.797,28.89
		c-0.467,8.612-4.194,15.064-4.079,24c0.103,7.962-0.532,16.059-0.107,24c0.521,9.727,6.835,13.814,0.157,20.078
		c-6.267,5.879-15.436,0.943-21.24,6.747c-3.724,3.724-1.363,4.727-2.825,9.175c-0.361,1.099-2.943,8.083-3.11,8.89
		c-1.564,7.557,0.655,15.548-0.683,23.11c-0.986,5.573-3.682,18.42-7.921,20.285c-9.278,4.082-18.573-2.511-28.378,3.622
		c-5.056,3.163-10.079,10.957-15.714,12.378c-1.088,0.274-2.389,0.305-3.808,0.155c-2.763,1.71-5.586,3.312-8.474,4.767
		c-5.645,2.843-15.85,7.935-22.657,5.711c-10.435-3.41-19.806-9.569-19.063-21.821c0.405-6.696,2.589-13.084,1.514-19.739
		c-1.704-4.221-4.226-8.229-7.322-11.664c-1.469,0.631-2.919,1.399-4.368,2.32c-1.847,1.174-5.081,4.129-6.917,5.083
		c-3.248,1.687-6.06,1.452-9.211,2.789c-6.953,2.952-11.366,5.482-19.964,4.192c-4.889-0.733-5.734,1.073-7.512-2.326
		c-1.143,0.459-2.288,0.9-3.437,1.301c-4.43,1.837-9.003,2.458-13.719,1.865c-3.47-0.845-5.195-3.053-5.175-6.624
		c-4.114-14.97,0.93-30.333-1.019-45.395c-11.569,12.468-26.877,22.886-42.087,28.153c-0.294,0.102-0.587,0.208-0.881,0.311
		c-1.745,1.324-3.487,2.654-5.213,4.003c-15.005,11.718-30.312,22.576-46.968,31.841c-5.248,2.813-10.793,4.746-16.638,5.801
		c-3.789,0.934-7.094,0.141-9.916-2.38c-11.728-22.744-5.446-47.045-1.493-70.824c2.026-12.184,2.506-23.623,0.895-35.9
		c-1.564-11.92-4.067-23.648-7.312-35.216c-5.257-17.238-12.07-33.919-20.09-50.06c-2.964-5.966,0.576-12.195,3.85-17.194
		c0.677-1.034,1.393-2.045,2.124-3.045c-0.431-0.053-0.871-0.11-1.331-0.182c-5.846-0.901-9.879-5.252-15.488-6.713
		c-1.327,2.581,3.419,14.689,4.364,18.52c2.113,8.57,3.097,14.742,3.124,23.986c0.02,6.869,2.823,17.229-3.701,20.271
		c-9.459,4.412-12.993-6.855-18.294-1.498c0.385,3.971,1.03,7.917,2.026,11.82c2.123,6.391,4.927,12.526,8.012,18.51
		c3.899,7.562,8.629,14.464,12.822,21.824c5.602,9.833,7.238,21.939,7.8,33.091c0.466,9.238,0.033,19.83-4.029,28.314
		c-4.986,10.416-12.049,19.999-20.78,27.623c-12.478,10.896-25.782,21.201-41.605,26.782c-8.404,2.965-18.095,4.259-26.543,0.734
		c-14.615-6.099-26.917-17.643-36.97-29.611c-1.931-2.299-3.84-4.665-5.699-7.09c-8.286,16.184-16.885,31.215-28.14,45.537
		c-9.421,11.987-23.47,22.089-36.988,28.898c-7.681,3.869-18.578,9.132-26.553,3.421c-9.37-6.709-11.245-19.382-12.073-30.15
		c-0.843-10.97-2.221-21.55-5.083-32.163c-1.448-4.433-3.171-8.705-5.14-12.844c-0.945,0.338-1.965,0.781-3.076,1.354
		c-9.7,5.001-12.604,9.373-23.986,9.161c-10.36-0.194-20.749,0.014-31.11,0.014c-9.333,0-40.17,2.576-41.275-12.028
		c-0.481-6.363,12.018-19.267,15.588-24.271c5.455-7.646,5.518-14.006,4.89-23.701c-0.613-9.465-4.789-16.975-11.096-24.207
		c-4.648-5.329-9.809-13.387-16-16.954c-14.605-8.414-12.99,21.646-25.794,28.364c-5.58,2.928-13.1-0.161-19.203,1.608
		c-8.168,2.368-14.518,9.231-20.093,15.202c-5.444,5.832-10.496,11.656-12.1,19.779c-0.356,1.804-0.386,3.677-0.287,5.577
		c5.025-0.968,10.088-1.785,15.207-2.378c4.935-0.571,11.305,0.197,11.194,6.714c-0.128,7.565-6.452,15.296-11.022,20.603
		c-11.811,13.714-28.46,27.124-45.926,32.744c-10.305,3.315-20.681,5.189-31.125,6.089c-0.416,0.099-0.729,0.172-0.869,0.2
		c-1.135,0.32-2.268,0.646-3.396,0.989c-10.247,3.129-20.258,6.919-30.241,10.793c-5.327,2.067-10.649,4.149-16.002,6.148
		c-2.434,0.909-4.871,1.809-7.315,2.688c-10.156,4.832-20.375,9.712-31.533,11.725c-8.484,1.53-16.339-0.036-22.867-5.809
		c-1.024-0.906-2.006-1.892-2.954-2.928c-0.625,0.074-1.25,0.144-1.875,0.195c-7.07,0.589-14.945,0.698-21.284-2.951
		c-8.362-4.814-11.599-9.779-14.154-19.084c-2.141-7.796-1.958-16.49-0.239-24.358c2.17-9.938,5.251-19.198,9.09-28.596
		c1.534-3.754,3.08-7.51,4.474-11.317c-5.759-15.354-13.94-29.54-21.326-44.209c-2.991-5.939,0.595-12.225,3.85-17.194
		c2.816-4.299,6.141-8.292,9.748-12.026c-5.357,1.441-10.257,3.548-13.858,5.909c-4.583-7.152-18.016-2.277-25.189-3.224
		c-9.174-1.21-17.814-5.467-27.303-7.681c-2.674,11.12,3,25.098-0.319,35.795c-3.888,12.526-18.521,10.538-28.378,11.7
		c-11.55,1.362-17.976,9.471-22.889,20c-6.055,12.977-3.809,29.076-21.032,32.285c-5.129,0.956-11.14-1.645-16.192-0.399
		c-5.069,1.25-5.543,5.407-11.793,4.599c-12.359-1.598-17.83-22.864-20-32.313c-4.066-17.703-7.828-32.796-7.986-51.088
		c-0.083-9.599-0.188-15.395,3.907-24.193c3.748-8.053,10.562-12.912,14.791-20.285c-4.024-2.056-17.987,5.823-21.808,8.506
		c-1.609,1.13-3.065,2.322-4.407,3.573c2.351,7.954,4.165,16.131,3.863,24.461c-0.455,12.574-4.71,23.914-11.001,34.658
		c-11.455,19.566-30.229,35.29-48.896,47.644c-13.898,9.197-30.271,17.256-47.031,19.404c-19.482,2.498-37.938-3.136-55.118-11.878
		c-3.192-1.624-6.336-3.333-9.462-5.073c-1.202,34.973-2.49,69.94-3.081,104.888c-0.412,24.364,0.276,48.689,1.15,73.024
		c40.759,6.71,81.161,15.964,121.535,27.199c56.267,15.656,112.949,30.866,168.101,50.164
		c50.043,17.512,99.937,35.049,151.365,48.079c116.109,29.419,240.44,18.839,359.267,18.839c47.001,0,94.003,0.037,141.004,0
		c77.998-0.061,158.949,2.596,235.116-17.132c38.028-9.851,75.501-22.314,112.849-34.171c14.555-4.621,29.484-5.045,44.221-8.762
		c11.539-2.91,20.639-4.203,32.512-4.014c19.427,0.309,38.871,0.078,58.299,0.078c15.332,0,38.462,4.574,52.207-3.715
		c11.249-6.784,16.991-20.058,25.495-29.382c8.385-9.194,18.961-16.75,26.22-26.903c12.246-17.13,27.708-30.764,40.876-47.11
		c7.537-9.354,13.882-16.938,19.124-27.985c2.516-5.302,10.577-14.963,8.89-20.904L6084,889z"/>
</g>
</svg>
