<?xml version="1.0" encoding="utf-8"?>
<!-- Generator: Adobe Illustrator 16.0.0, SVG Export Plug-In . SVG Version: 6.00 Build 0)  -->
<!DOCTYPE svg PUBLIC "-//W3C//DTD SVG 1.1//EN" "http://www.w3.org/Graphics/SVG/1.1/DTD/svg11.dtd">
<svg version="1.1" xmlns="http://www.w3.org/2000/svg" xmlns:xlink="http://www.w3.org/1999/xlink" x="0px" y="0px" width="7987px"
	 height="1080px" viewBox="0 0 7987 1080" enable-background="new 0 0 7987 1080" xml:space="preserve">
<g id="Foreground_x5F_01">
	<g id="Layer_14">
		<g>
			<polygon fill="#025959" points="6181.133,997.101 6166.134,936.816 6155.698,945.886 6148.135,962.653 6136.135,946.864 
				6127.136,926.769 6146.635,840.648 6139.135,793.282 6133.135,811.941 6119.636,787.541 6124.136,715.773 6113.636,722.949 
				6106.137,666.971 6101.637,687.066 6082.534,631.916 6083.638,1021.502 6160.134,1030.113 			"/>
			<path fill="#025959" d="M6508.117,1058.821l-25.499-1.436l-9-15.79l-6-18.659l-15,28.708l-14.999-15.789l10.5-44.496
				l-10.5-15.789c0,0,0,0-4.5,25.837s0,0-10.499,0s3-37.319,3-37.319l13.5-38.754l-16.499,2.87l-12,12.919l-15-12.919l-1.5-20.095
				l-13.574-8.371l-8.925,42.819l-24.036-17.644l-13.462,34.868l-16.5-28.708l-9.483,1.527l-8.516,12.827l1.5,31.577l-22.499-21.53
				l-38.998-12.918l13.5-38.754l-10.5,14.354l-12-7.178l17.999-31.577l-13.499-4.306c0,0-4.5,14.353-12,11.483
				c-7.5-2.87,10.5-22.966,10.5-22.966l3-33.013l-7.5,18.659l-9-22.966l-10.188-10.594l-14.002,170.168l-50.806,123.188
				l407.979-8.612l-23.204-26.802L6508.117,1058.821z"/>
			<polygon fill="#025959" points="7919.546,750.222 7907.547,774.623 7897.047,797.589 7889.548,777.493 7885.048,790.411 
				7882.509,809.479 7877.548,816.247 7875.89,785.664 7868.549,797.589 7855.049,814.813 7841.55,807.636 7835.551,787.541 
				7828.051,797.589 7825.051,826.295 7843.05,850.696 7841.55,880.838 7834.051,903.804 7822.051,890.885 7813.052,899.497 
				7804.052,943.993 7786.053,977.006 7792.053,994.23 7777.053,992.795 7760.554,974.136 7751.555,1008.583 7786.053,1114.799 
				7879.048,1068.868 7930.129,839.144 7935.502,731.558 			"/>
			<polygon fill="#025959" points="7711.057,931.074 7694.558,956.911 7645.06,999.972 7585.063,959.782 7590.046,780.229 
				7571.563,829.166 7561.064,910.979 7532.565,952.544 7489.067,969.829 7483.595,943.628 7468.068,925.334 7460.569,943.993 
				7445.569,956.911 7436.57,931.074 7430.57,982.748 7444.07,1008.583 7426.07,1022.937 7403.572,1043.031 7441.07,1099.01 
				7573.063,1064.562 7719.758,1067.785 7735.056,974.136 7733.993,929.305 			"/>
			<path fill="#025959" d="M7377.548,915.771l-35.473,21.045c0,0,19.498,71.768-127.494,81.814
				c-14.747,1.009-26.878,2.204-36.776,3.54l-9.854-152.288l-19.365,13.826l-8.666,51.819l-21.068,5.561l-2.812-21.878
				l-45.45,21.912l-13.5,30.142l-17.999,17.224l-34.498,15.789l-16.99-79.233l-46.007,16.079v11.421l-22.499,8.674l-20.999,31.577
				l-22.499,40.189l-8.043-23.685l-21.956-5.022l-16.499,14.354l-16.499-11.482l-23.999,4.306l-19.499,12.918l-25.499-2.87
				l-15,4.306l-46.498,10.048l-15,10.047l-12.67,8.738l-20.328,22.839l412.479,54.544l331.483-1.436l-1.5-178.044L7377.548,915.771z
				"/>
		</g>
	</g>
	<path d="M5782.771,1106.011c-0.144,0.612-0.323,1.181-0.58,1.647c-1.819,3.305-5.787,6.376-9.037,8.577
		c-4.25,2.877-8.063,5.52-11.671,8.931c-3.216,3.041-7.317,8.477-8.995,12.565c-2.291,5.583-3.333,9.782-3.333,15.822
		c0,5.479,0.668,10.129,1.462,15.367c1.771,11.688,8.032,22.325,12.037,33.365c4.589,12.652,8.153,25.688,10.838,38.796
		c3.626,17.699,12.833,33.355,22.494,48.543c4.269,6.711,10.271,12.349,14.743,18.986c4.354,6.463,8.123,13.146,13.35,19.046
		c11.705,13.213,28.042,21.881,43.236,30.827c14.439,8.501,29.366,15.903,45.302,21.529c11.691,4.127,24.016,6.102,36.076,8.937
		c11.439,2.688,22.911,4.961,34.461,7.177c13.11,2.515,26.055,4.945,38.958,8.292c14.316,3.715,29.248,4.978,43.831,7.423
		c9.968,1.671,19.679,4.299,29.665,5.89c10.324,1.644,20.754,2.866,31.122,4.231c18.225,2.4,36.441,4.849,54.678,7.172
		c44.617,5.686,89.724,5.45,134.654,3.298c37.615-1.802,75.521-4.962,112.906-9.354c34.794-4.087,69.635-6.91,104.57-9.727
		c36.001-2.902,72.058-6.567,108.144-8.289c33.998-1.621,67.93-3.108,101.947-4.306c65.804-2.314,132.104-0.077,197.859,2.194
		c33.644,1.162,67.121,1.701,100.679,4.631c33.146,2.892,66.097,6.997,99.217,10.033c75.099,6.887,149.883,16.759,225.059,23.002
		c33.396,2.774,66.779,5.688,100.161,8.613c16.098,1.41,32.221,3.356,48.374,4.094c15.832,0.723,31.745,0.226,47.587,0.212
		c66.263-0.058,132.605,1.687,198.391-7.458c51.793-7.2,102.012-17.945,151.086-35.531c27.41-9.822,53.547-21.246,78.472-35.96
		c9.461-5.585,19.146-10.813,27.837-17.5c7.889-6.071,15.162-12.97,22.715-19.415c14.174-12.098,26.629-25.797,39.081-39.504
		c5.617-6.184,10.132-12.716,14.95-19.453c4.15-5.803,8.699-11.186,12.078-17.465c6.407-11.907,11.674-26.44,11.969-39.943
		c0.202-9.197-0.158-18.43-0.072-27.633c0.116-12.369-4.011-24.543-7.949-36.129c-5.424-15.952-16.142-30.918-16.084-48.167
		c0.02-5.927-1.219-13.273,0.334-18.979c0.465-1.71,1.106-2.444,1.201-4.307c0.068-1.371-0.361-2.957-0.112-4.306
		c0.495-2.679,1.529-5.188,1.104-7.928c-0.343-2.202-1.041-4.122-1.181-6.411c-0.396-6.48-0.911-12.895-2.621-19.202
		c-2.403-8.867-10.385-14.514-16.977-20.601c-26.82-24.766-43.186-57.587-62.604-87.632c-15.551-24.063-30.651-47.863-41.56-74.261
		c-10.813-26.17-19.55-52.784-26.299-80.163c-4.408-17.886-5.775-36.368-10.821-54.031c-2.597,0.704-3.141,8.699-3.907,11.242
		c-3.468,11.496-8.11,22.68-11.602,34.197c-3.132,10.333-8.087,19.33-12.143,29.271c-1.896,4.648-3.055,17.356-7.452,20.375
		c-0.748-2.118-0.458-4.296-0.256-6.536c-1.506,3.438-4.927,5.479-6.684,8.838c-4.127-1.09-9.646-15.675-10.95-19.466
		c-1.488-4.327-3.168-8.958-4.063-13.388c-0.782-3.865-0.213-6.947-2.556-10.428c0.887,4.206-1.391,8.529-1.89,12.683
		c-1.296,10.79-2.233,21.489-3.555,32.291c-0.972,7.937,0.737,16.187-0.891,23.995c-0.949,4.555-1.238,8.041-1.509,12.699
		c-0.504,8.71-3.97,18.336-6.537,26.733c-2.827,9.244-4.464,19.056-5.9,28.653c-3.004-0.616-2.216-4.689-5.171-5.46
		c-7.885,23.984-22.048,46.211-32.993,69.112c-7.77,16.258-14.45,32.991-22.136,49.306c-2.463,5.229-5.146,10.391-7.458,15.685
		c-0.911,2.086-1.37,5.935-3.896,6.906c-2.788-1.012-1.869-4.389-2.392-6.603c-0.938-3.972-2.287-8.305-3.563-12.182
		c-1.123-3.413-3.187-10.819-6.405-12.873c-2.563-1.636-4.938,0.785-7.253-2.066c-0.241-1.804-0.484-3.606-0.729-5.408
		c-1.194-2.048-2.235-4.167-3.121-6.355c-2.653-5.729-4.925-12.212-7.936-17.6c-2.357-4.219-5.039-9.598-6.157-14.359
		c-0.808-3.443,0.016-6.761-0.851-10.139c-0.643-2.508-2.233-5.125-3.05-7.618c-2.207-6.744-3.369-13.714-4.555-20.665
		c-0.6-3.511-0.719-10.768-3.95-13.095c-3.031,5.992-4.525,12.497-7.498,18.499c-4.375,8.834-11.964,15.33-18.14,23.103
		c-4.607,5.8-9.742,11.436-14.409,17.57c-4.827,6.346-9.022,14.258-16.392,7.223c-2.42-2.311-5.569-5.148-7.658-7.748
		c-2.109-2.626-3.052-5.582-5.851-7.755c-6.8-5.279-14.195-9.563-20.483-15.638c-3.17-3.061-6.515-6-9.602-9.137
		c-3.013-3.062-4.623-6.557-8.018-9.188c-4.859-3.766-8.594-0.806-13.538,1.336c-0.81-2.512-0.067-4.907-0.811-7.459
		c-1.021-3.505-4.849-4.682-5.751-7.563c0.129-1.309,0.218-2.621,0.267-3.934c-0.351-2.087-1.649-3.682-2.167-5.735
		c-0.786-3.113-1.407-6.234-2.435-9.439c-2.129-6.646-2.079-14.023-3.018-21.016c-1.8-13.403-2.725-27.133-3.996-40.604
		c-2.25-23.827-5.154-47.646-4.449-71.592c0.657,6.918-2.165,14.266-2.046,21.391c0.302,18.102-2.267,36.782-4.445,54.754
		c-3.038,25.068-9.246,50.35-9.555,75.582c0.006-3.817,0.98-8.833-0.256-12.425c-5.102,3.685-10.01,9.258-15.396,12.295
		c-0.652-4.889-4.013-5.177-8.355-5.112c-2.299,0.035-5.915,0.662-8.097,0.086c-2.291-0.605-3.487-2.713-5.851-3.532
		c-6.412-2.22-11.277,4.166-15.647,7.786c-4.314,3.574-8.963,4.168-13.946,7.09c-4.252,2.493-8.195,8.439-14.054,5.408
		c-5.219-2.701-5.393-9.468-8.804,0.077c-5.418,15.159-13.394,28.343-16.136,44.46c-0.962,5.65-3.242,11.357-3.509,17.075
		c-0.212,4.525-0.073,9.247-1.904,13.554c-2.448,5.761-5.836,11.994-10.498,16.605c-5.449,5.389-11.908,10.197-17.096,15.787
		c-1.192,1.285-2.692,4.951-4.355,5.538c-3.939,1.39-6.794-4.947-8.097-7.284c-6.717-12.052-11.584-26.678-12.104-40.403
		c-0.496-13.109-1.646-25.852-4.398-38.796c-1.058-4.973-1.681-10.618-3.896-15.298c-2.007-4.237-3.983-5.091-7.602-7.519
		c-5.046-3.388-9.783-7.418-12.046-12.887c-2.423-5.853-2.608-12.605-4.406-18.689c-1.844,1.455-2.575,4.934-3.451,6.893
		c-2.813,6.283-5.323,12.686-8.143,18.966c-3.158,7.034-5.307,14.295-7.947,21.484c-1.57,4.275-2.97,7.651-5.458,11.439
		c-2.737,4.166-6.981,6.014-10.609,9.525c-1.85,1.791-2.991,3.958-4.751,5.755c-4.563,4.662-11.687,9.035-16.914,12.965
		c-7.199,5.412-15.397,8.672-23.783,12.033c-9.92,3.973-20.549,9.012-31.125,11.101c-11.033,2.18-22.208,4.548-31.894-1.58
		c-7.122-4.507-10.97-11.968-15.021-19.17c-2.724-4.842-6.046-9.068-8.498-13.458c-2.315-4.144-3.502-8.977-5.509-13.486
		c-1.854-4.163-2.695-6.695-6-9.951c-3.648-3.592-4.116-8.388-4.883-13.206c-2.089-13.122,0.309-26.786-7.067-38.376
		c-4.672-7.341-5.173-16.061-8.441-24.022c-2.95-7.187-4.677-16.986-10.104-22.8c0.434,2.824-0.994,5.062-1.459,7.754
		c-0.944,5.468-1.268,11.14-2.039,16.64c-1.003,7.151,1.167,15.569-0.897,22.313c-2.717-2.394-1.056-5.857-1.857-8.914
		c-4.909-1.23-8.695,11.607-11.156,14.631c-3.671-4.011-4.69-5.533-10.541-5.207c-3.852,0.215-7.312,3.032-10.445,3.478
		c-4.622,0.656-8.249-3.039-13.516-1.366c-4.51,1.433-7.016,6.056-9.936,9.286c-5.471,6.055-11.42,12.052-15.794,18.919
		c-2.923,4.588-5.039,9.774-7.715,14.174c-3.863,6.351-9.752,11.466-14.563,17.088c-8.302,9.701-14.409,20.01-24.221,28.631
		c-3.929,3.451-8.448,7.318-13.812,4.257c-8.148-4.651-8.18-13.71-8.046-21.67c0.168-10,0.282-20.954-2.302-30.728
		c-1.596-6.038-5.819-11.252-11.698-13.415c-2.09-0.768-2.507-0.023-4.495-1.304c-1.525-0.981-2.412-2.879-3.904-3.919
		c-2.679-1.869-5.72-1.639-7.602-4.111c-2.074-2.726-1.072-9.39-4.352-11.375c-4.227-2.558-8.941,7.386-11.104,9.699
		c-4.524,4.841-4.73,13.432-9.957,17.413c-1.563,1.191-2.906,0.731-4.502,1.679c-2.258,1.339-4.504,3.558-6.438,5.278
		c-6.128,5.453-11.436,11.726-17.299,17.484c-2.314,2.272-4.517,5.017-6.213,7.771c-6.085,9.88-12.413,18.712-20.677,27.211
		c-5.718,5.88-12.29,15.235-21.419,14.688c-4.661-0.28-8.587-2.24-12.097-5.31c-1.638-1.433-2.326-2.535-3.786-4.254
		c-1.426-1.677-4.805-6.328-6.555-7.403c-6.152-3.777-11.208,5.883-13.555,9.335c-3.563,5.239-8.847,11.098-14.104,14.854
		c-3.756,2.686-5.5,3.245-9.452,0.433c-1.301-0.926-2.986-2.725-4.398-3.804c-3.641-2.784-3.809-2.937-8.046-3.827
		c-4.583-0.964-7.497-2.127-12.406-2.014c-7.677,0.178-16.43,3.246-23.698,5.772c-15.821,5.502-32.813,3.973-49.458,3.841
		c-28.255-0.222-50.182,17.906-78,20.75c-8.3,0.849-16.529,0.001-24.836,0.191c-12.36,0.281-25.356,1.219-37.659,2.359
		c-21.091,1.957-42.221,9.635-62.032,16.452c-13.888,4.779-27.215,8.234-42.007,8.119c-12.7-0.099-25.227,0.417-35.491-8.119
		c-9.527-7.922-14.743-18.761-24.366-26.27c-17.524-13.674-12.096-43.01-12.053-61.906c0.031-13.853,2.079-28.784-9.445-39.326
		c-4.269-3.905-13.495-6.676-16.2-11.735c-2.409-4.504-3.078-10.938-4.349-15.835c-1.357-5.229-1.369-14.716-5.452-18.833
		c-6.396-6.449-9.348,11.924-10.555,15.873c-1.902,6.221-3.423,12.542-6.04,18.544c-1.272,2.919-2.935,9.135-5.555,11.286
		c-1.811-4.563,0.185-29.374-10.811-20.527c-6.989,5.624-11.606,16.02-17.189,22.976c-2.778,3.46-7.168,12.103-11.89,13.148
		c-2.607-4.136-1.907-8.235-2.857-12.761c-0.921-4.389-4.348-12.307-7.509-15.676c-3.171-3.38-10.157-2.552-14.491-2.34
		c-8.369,0.409-13.427,5.846-19.684,10.374c-7.074,5.12-13.985,11.558-21.968,15.349c-8.753,4.157-21.051-1.145-28.136-6.471
		c-7.059-5.306-7.825-14.822-8-22.677c-0.228-10.246,0.163-20.537,0.089-30.79c-0.119-16.631,3.312-33.042,2.143-49.761
		c-0.55-7.863-4.259-15.418-6.153-22.923c-0.635-2.517-1.345-5.065-2-7.662c-0.63-2.501-2.224-6.506-1.95-9.065
		c1.085,4.218-2.626,11.016-3.851,14.792c-4.259,13.143-7.106,26.42-10.627,39.733c-3.661,13.843-6.118,26.706-7.993,40.846
		c-0.909,5.765-1.97,11.505-3.181,17.218c-0.881,7.027,0.168,13.994-0.787,21.01c-1.805,13.262-4.029,25.349-8.007,38.141
		c-1.674,5.382-4.965,10.002-7.644,14.93c-1.491,2.742-2.263,9.077-5.459,9.928c-2.417-9.173-4.259-19.244-4.541-28.685
		c-0.193-6.454,0.063-12.978,0.089-19.437c0.01-2.473,0.79-6.728-0.295-9.226c-3.77-0.862-6.261,6.956-8.143,9.06
		c-2.101,2.348-6.259,9.556-9.096,10.782c-5.636,2.436-8.316-9.631-10.452-13.759c-1.056-2.04-2.706-6.126-4.452-7.703
		c-1.439-1.3-3.683-0.646-5.149-2.599c-1.706-2.271-0.403-8.893-0.406-11.384c-0.009-9.906,0-19.811,0-29.717
		c0-24.104,1.207-47.714-3.961-71.424c-6.471-29.694-11.863-59.324-13.641-89.653c-0.836-14.267-0.288-28.374-1.811-42.616
		c-1.133-10.604-4.036-20.213-6.143-30.585c-1.536-7.563-3.453-15.02-4.993-22.585c-0.646-3.175-1.28-10.475-4.917-11.787
		c-3.479,6.458-5.561,14.433-7.954,21.288c-6.186,17.726-12.419,35.317-17.161,53.457c-6.915,26.45-9.428,52.347-9.419,79.532
		c0-5.871,1.878-14.669-0.263-20.131c-8.459-1.284-18.641,15.691-22.332,20.467c-4.486,5.806-8.4,11.262-12.135,17.516
		c-1.293,2.164-2.859,5.48-4.807,7.325c-5.814-4.817,0.676-11.938-6.915-16.081c-3.955,1.98-6.02,7.452-7.594,11.102
		c-4.056,9.398-5.709,20.292-6.05,30.418c-0.769,22.862,0.033,45.934,0.089,68.808c0.072,29.473-3.06,58.55-6.542,87.825
		c-1.077,9.059-1.762,18.1-2.954,27.135c-0.888,6.736,0.348,17.434-3.957,23.183c-3.268-7.508-6.704-14.543-8.097-22.665
		c-2.389-13.938-5.663-27.573-10.445-40.988c-7.53-21.128-18.129-39.903-35.548-54.979c-4.934-4.271-10.282-7.237-14.491-12.294
		c-2.373-2.851-8.123-14.325-11.968-14.801c-3.98-0.493-4.83,4.399-6.249,7.145c-4.126,7.975-9.167,15.456-13.299,23.438
		c-4.675,9.031-8.903,23.049-17.025,30.112c-6.838-4.383,6.451-38.256-7.277-33.724c-8.346,2.756-14.297,15.051-19.69,21.023
		c-1.777,1.968-5.401,6.944-8.595,7.261c-4.315,0.428-2.973-0.839-5.8-3.668c-13.129-13.139-22.044,14.443-26.2,23.064
		c-3.156,6.55-1.829,14.245-1.904,21.291c-0.055,5.166,0.721,9.46,1.602,14.512c1.226,7.036,0.44,14.473,0.445,21.577
		c0.007,11.532,0.188,22.646-1.509,34.056c-1.833,12.323-0.531,26.01-4.839,37.763
		C5783.233,1103.026,5783.094,1104.629,5782.771,1106.011z"/>
	<path d="M3942.51,309.909c0,3.232,0.027,6.463,0.01,9.695c-0.013,2.507,0.082,4.836,0.319,7.081
		C3942.913,321.099,3942.51,315.479,3942.51,309.909z"/>
	<path d="M3915.497,399.47c0.009,1.286,0.006,2.573,0.01,3.859C3915.753,401.991,3915.807,400.686,3915.497,399.47z"/>
	<path d="M3430.302,508.591c1.249-8.551,2.048-17.133,2.157-25.765C3432.338,491.461,3431.163,500.016,3430.302,508.591z"/>
	<path d="M3617.762,626.449c0.641,3.165,1.776,6.274,3.406,9.331c0.881,1.279,2.004,2.491,3.235,3.674
		c-3.003-7.472-4.821-15.899-9.652-23.106C3608.137,616.941,3616.877,624.514,3617.762,626.449z"/>
	<path d="M3702.642,594.255c-0.514-2.279-2.258-4.358-2.979-6.563c0.27,3.024,0.524,5.949,1.023,8.92
		c0.804,1.48,1.847,2.644,1.869,4.271C3702.333,598.702,3703.127,596.408,3702.642,594.255z"/>
	<path d="M5461.271,616.715c-2.81,1.889,1.121,7.411,1.852,9.179c0.254,0.615,0.517,1.229,0.773,1.843
		C5464.114,623.992,5464.182,620.022,5461.271,616.715z"/>
	<path d="M5805.686,1026.164c0.077-4.602-1-7.669-3.822-11.977c-1.317-2.01-1.552-4.221-4.943-5.02
		c-7.479-1.758-17.281,1.122-24.884-1.051c-11.463-3.28-8.402-9.556-8.274-15.666c0.197-9.431-4.523-21.426-11.328-30.173
		c-3.664-4.709-8.145-8.763-10.422-13.872c-7.741,5.231-8.464,14.504-11.787,20.744c-8.951,16.811-18.94,33.297-27.206,50.238
		c-6.71,13.749-16.865,27.184-29.55,39.584c-3.215,3.142-7.779,9.432-14.324,11.195c-2.363-4.646-0.497-11.101-0.475-15.912
		c0.047-10.276-0.808-18.788-5.941-28.715c-5.942-11.493-10.168-22.001-21.061-32.508c-9.783-9.438-17.848-19.308-27.136-28.893
		c-8.371-8.637-14.734-19.838-17.404-29.564c-2.198-8.007-0.519-16.74-0.464-24.827c0.041-6.025,1.968-14.017-3.599-19.612
		c-3.235-3.252-9.062-4.998-12.06-8.415c-5.178-0.607-18.143,7.712-21.002,9.652c-6.061,4.112-15.732,9.237-17.527,14.69
		c-0.245-3.846,1.598-7.376,2.526-11.162c1.988-8.115,0.7-16.647,0.727-24.798c0.098-30.614-2.839-61.058-11.04-91.344
		c-9.415-34.77-24.885-69.42-39.897-103.586c-6.957-15.833-14.279-31.57-20.896-47.438c-0.069,1.172-0.152,2.323-0.164,3.424
		c-0.093,8.163-0.116,16.326-0.069,24.489c0.011,25.932,0,51.861,0,77.791c0,35.713-4.789,72.699,5.846,108.122
		c6.133,20.43,15.426,40.547,15.205,61.377c-0.202,19.065-5.995,36.628-14.238,55.148c-7.53,16.919-12.896,33.93-18.873,51.013
		c-2.037,5.108-3.818,10.245-5.343,15.407c-0.773,3.813-1.702,7.616-2.787,11.405c-2.706,4.276-4.596,4.248-12.086,1.706
		c-6.625-2.248-12.24-6.373-15.883-10.058c-7.257-7.339-17.474-16.05-17.906-24.454c-0.293-5.719,3.567-14.936-0.405-20.256
		c-5.231-0.571-11.594,5.003-14.109,6.646c-12.12,7.91-23.172,15.894-33.714,24.476c-5.255,3.925-10.082,8.004-14.479,12.239
		c-1.718,2.629-3.814,5.161-6.289,7.595c-3.886,1.507-5.847,0.095-8.953-1.201c-27.366-11.418-9.877-30.143-8.932-45.259
		c0.754-12.054-2.665-23.751-3.225-35.735c-0.566-12.125,1.567-24.736-2.845-36.669c-1.474-3.985-4.854-4.859-9.012-8.4
		c-5.339-4.548-7.725-9.744-12.135-14.534c3.252,33.549-16.352,67.558-33.537,99.3c-11.225,20.731-28.021,39.646-43.787,59.328
		c-3.305,4.127-9.421,14.704-18.53,16.505c-10.611,2.097-12.627-5.696-14.189-9.576c-4.051-10.062-9.008-19.944-12.68-30.061
		c-19.181-52.852-38.905-105.578-44.53-159.546c-3.331-31.954-3.754-63.809-3.55-95.799c0.116-18.08-1.528-36.431-5.177-54.411
		c-3.528-17.383-21.31-35.831-13.775-53.332c4.648-10.798,18.662-20.771,9.118-31.558c-3.612-4.082-16.131-30.796-22.432-29.896
		c-4.503,6.453-13.012,11.905-18.199,18.249c-3.83,4.683-7.366,9.72-9.813,14.688c1.489-19.813,4.813-39.695,6.968-59.531
		c2.329-21.44,5.771-42.893,7.704-64.336c2.35-26.067,0.347-52.243-1.516-78.295c-4.311-60.253-28.002-119.947-27.954-180.319
		c-0.56,31.705-5.019,64.043-11.932,95.522c-2.818,12.83-6.206,25.604-9.236,38.416c-2.065,8.73-1.829,17.872-6.348,26.375
		c-5.941,11.18-13.529,21.478-16.87,33.095c-1.511,5.251-0.072,10.546,2.973,15.565c1.809,2.981,4.978,4.863,6.231,8.077
		c1.848,4.738,3.319,9.713,4.58,14.51c2.789,10.612-2.631,17.239-11.414,26.279c-1.591-2.759-6.144-3.964-8.931-6.298
		c-4.37-3.658-7.061-8.079-11.238-11.859c-5.816-5.265-10.754-10.605-16.038-16.019c-1.598-1.638-2.217-2.868-5.034-3.361
		c-14.099,10.622-10.653,29.004-9.898,41.28c1.264,20.548,15.565,40.164,15.215,60.854c-0.077,4.53-2.129,10.398,1.98,14.224
		c4.407,4.102,13.319,7.416,19.022,11.057c14.006,8.942,18.864,25.223,17.479,36.696c-0.804,6.657-1.917,13.208-2.472,19.871
		c0.311,2.128-0.443,4.108-2.263,5.943c-5.47-1.073-8.514-12.925-11.159-15.892c-3.086-3.463-7.517-6.604-10.735-10.063
		c-1.437-1.892-3.41-3.588-5.921-5.088c-12.298-5.576-16.979,7.287-22.297,14.301c0.358,1.352,0.765,2.701,1.226,4.047
		c3.982,17.351,5.808,35.011,6.214,52.495c0.708,30.479-0.145,61.001-0.145,91.484c0,28.751,1.555,57.653,0.145,86.396
		c-0.583,11.886-6.492,23.169-9.22,34.829c-2.478,10.589-14.14,21.657-21.477,31.515c-10.315,13.86-20.654,27.647-32.539,41.125
		c-7.199,8.162-13.81,16.483-23.976,23.688c-11.004,7.798-22.051,16.777-41.994,13.054c-9.109-1.7-9.562-10.213-11.21-14.772
		c-2.926-8.09-3.464-16.377-6.454-24.461c-4.533-12.258-11.212-24.923-18.205-36.809c-7.134-12.126-14.654-23.312-18.36-35.98
		c-2.589-8.851-3.359-17.53-3-26.494c1.056-26.361,15.021-52.998,26.454-78.438c10.92-24.301,23.961-47.759,30.884-72.596
		c5.637-20.224,12.815-40.996,9.086-61.598c-1.095-6.049-7.937-8.449-12.958-13.374c-7-6.864-8.382-15.331-8.258-23.065
		c0.133-8.307-0.007-16.611,0.059-24.916c0.02-2.424,1.445-7.245-0.587-9.694c-3.725,2.332-4.687,5.146-6,8.101
		c-2.798,6.293-7.122,12.086-12.07,17.939c-2.57,3.041-15.915,27.332-22.881,26.349c-1.886-4.203-0.482-9.338-0.464-13.622
		c0.032-7.561,0.071-14.763-2.167-22.255c-4.807-16.09-4.938-32.475,2.022-48.567c4.195-9.698,16.702-24.959,7.048-34.833
		c-3.706-3.789-11.648-4.63-16.118-7.984c-10.749-8.062,5.472-21.938,8.606-30.121c2.956-7.715,2.727-12.476-2.227-19.935
		c-5.069-7.635-5.898-15.097-9-23c-2.625-6.688-6.144-13.324-9.146-19.965c-3.39-7.504-8.878-15.188-9.225-22.989
		c-0.003-0.072,0.001-0.145-0.001-0.217c-0.054,2.01-0.065,4.019,0.07,6.015c0.695,10.206,5.696,20.199,6.279,30.442
		c0.376,6.627,1.16,13.938-0.577,20.522c-1.473,5.581-5.864,10.694-7.891,16.206c-1.879,5.111-6.454,9.526-6.737,14.654
		c-0.433,7.833-3.186,15.434-2.931,23.283c0.18,5.549-0.672,11.282-2.925,16.623c-0.792,1.878-2.458,3.063-3.839,4.792
		c-2.465,3.083-2.714,6.443-4.938,9.587c-3.447,4.875-9.59,8.828-12.6,13.861c-1.417,2.787-2.611,5.604-3.582,8.449
		c-1.518,3.737-3.867,6.518-5.13,9.937c-1.331,3.607-0.38,6.305-2.845,10.022c-2.413,3.033-4.265,6.17-5.558,9.405
		c-2.54,6.018-1.09,8.719-12.599,8.543c-4.443-0.068-10.816-0.646-14.991,0.256c-6.595,1.426-11.222,9.084-18.071,9.562
		c-7.816,0.546-8.655-7.119-9.754-10.03c-3.009-7.966-3.983-16.581-5.179-24.689c-0.767-5.203-2.734-10.215-3.002-15.389
		c-0.079,11.191,0.058,22.385,0.013,33.577c-0.036,8.764-0.556,16.893,2.931,25.481c2.484,6.12,2.473,12.735,9.658,17.867
		c8.087,5.776,20.085,8.859,27.131,14.781c4.611,3.877,9.223,7.893,14.189,11.609c2.963,2.218,6.661,4.031,9.086,6.516
		c3.668,3.758,5.918,8.008,9,11.983c7.71,9.942,9.184,21.363,15.061,31.708c5.919,10.418,3.807,23.508,3.166,34.377
		c-0.526,8.908-5.487,20.175-13.059,28.124c-6.319-1.11-10.883-6.714-14.014-9.693c-7.985-7.604-13.779-15.13-18.205-23.582
		c-8.276-15.805-6.028-31.976-5.883-48.246c0.022-2.514,2.29-20.401-5.258-21.256c-2.325,2.976-10.979,5.468-9.514,8.954
		c1.763-0.1,3.496-0.284,5.2-0.552c1.838,2.787,0.512,7.006,0.491,9.814c-0.06,8.247,0.011,16.497,0.011,24.744
		c0,18.856-0.539,37.735-0.145,56.589c0.714,34.169,7.399,67.65,15.156,101.493c4.937,21.539,14.648,42.723,15.264,64.507
		c0.479,16.969-0.539,35.46-9.872,51.748c-4.921,8.588-8.478,19.872-17.473,27.528c-3.493,2.974-6.864,4.489-11.862,6.323
		c-6.198,2.275-11.461,5.029-18.012,7.121c-10.428,3.33-19.564,5.298-29.309-0.133c-9.873-5.502-17.138-15.813-21.89-22.993
		c-7.938-11.996-8.079-22.837-8.701-35.314c-0.435-8.72-1.347-19.261-6.097-27.606c-1.388-2.438-2.565-6.755-5.984-8.713
		c-2.422-1.389-4.833-1.412-6.909-3.002c-4.704-3.6-6.796-9.131-8.856-13.306c-3.424-6.937-9.13-13.013-12.06-20.056
		c-1.786-4.29-5.234-8.513-8.195-12.605c-1.901,1.261-3.707,0.488-6.021,1.328c-2.554,0.77-4.499,1.878-5.835,3.327
		c-7.206,4.179-15.087,8.355-20.618,13.298c-6.786,6.066-12.154,12.907-15.883,19.723c-2.738,5.004-1.351,9.489-3.16,14.418
		c-6.695,2.198-15.763-9.424-18.226-11.268c-4.945-3.702-15.827-7.828-13.795-12.851c0.25-0.618,4.073-2.906,4.649-3.747
		c3.128-4.563,4.519-10.021,6.802-14.72c6.003-12.349,5.825-23.752,6.081-36.406c0.116-5.729-1.026-10.899-8.333-15.229
		c-6.034-3.575-11.806-4.497-12.952-9.976c-2.619-12.515,0.941-25.866,0.369-38.473c-0.42-9.241-3.55-18.136-3-27.402
		c-4.651,4.718-4.651,11.106-6.893,16.319c-4.268-0.33-2.114-7.387-2.119-8.194c-0.06-9.549-3.727-19.004-6.027-28.429
		c-7.275-29.8-15.995-59.842-27.024-89.296c-5.357-14.307-11.111-28.626-15.766-43.044c6.774,37.612,12.622,75.061,16.481,112.859
		c4.053,39.686,0.382,79.404,4.452,119.077c1.404,13.689,2.57,27.317,3.882,40.979c-4.166-4.773-6.416-9.829-12.156-14.239
		c-4.212-3.232-10.769-4.16-15.648-6.772c-8.431-4.51-10.781-11.931-13.667-17.979c-1.9-3.983-1.327-9.977-4.335-13.542
		c-1.35,0.159-2.082,0.61-2.443,1.206c-0.693-10.455-4.813-20.76-5.9-31.243c-0.808-7.796-3.604-15.27-5.413-22.988
		c-0.638-2.722,0.286-5.788-1.175-8.409c-6.191,0.854-10.642,12.18-12.161,15.315c-2.679,5.524-6.146,10.696-8.254,16.238
		c-1.567,4.12-3.041,6.886-2.989,11.724c0.098,9.258-0.24,18.521-0.021,27.778c0.101,4.269-2.261,5.03-5.168,8.733
		c-3.897,4.967-7.874,11.049-9.898,16.372c-2.503,6.585-2.911,13.042-2.904,19.869c0.004,4.937-0.917,9.974,0.502,14.878
		c1.636,5.653,4.54,11.197,6.156,16.883c4.521,15.909,10.933,31.941,17.313,47.657c4.044,9.962,11.642,19.661,8.392,30.022
		c-2.914,9.293-9.962,17.604-14.548,26.614c-3.7,7.271-3.249,14.914-18.504,17.947c-11.47,2.282-17.478-1.218-23.266-5.915
		c-3.369-2.736-5.407-5.756-11.643-6.918c-6.607-1.232-17.354-0.377-24.157-0.245c-11.157,0.216-22.217,1.401-33.276,2.155
		c-10.813,0.735-23.019,0.722-33.431,2.689c-8.936,1.688-13.791,5.097-20.917,8.208c-3.613,1.576-7.767,2.616-9.53,5.125
		c-5.205-0.789-4.78-5.161-5.797-7.633c-2.114-5.142-4.608-10.071-6.086-15.34c-2.214-7.89-4.574-15.283-8.393-22.988
		c-3.245-6.548-2.896-12.579-2.846-19.284c0.129-17.115-0.195-34.232,0.059-51.35c0.07-4.683,0.562-11.322-3.081-15.757
		c-2.104-2.562-2.907-1.771-6.059-3.462c-3.402-1.824-3.049-1.882-2.92-5.151c0.239-6.042-0.034-12.099,0.059-18.144
		c0.073-4.766,1.084-12.019-3.668-16.366c-2.57-2.351-6.633-2.67-9.284-4.661c-2.984-2.241-1.779-4.575-2.776-7.351
		c-2.213-6.161-1.8-12.03-3.011-18.281c-3.042-15.696-5.62-31.338-5.178-47.14c-4.457,1.426-3.274,5.212-3.225,7.631
		c0.189,9.377,0.052,18.758,0.139,28.136c0.208,22.442-6.561,44.367-12.081,66.535c-7.553,30.33-15.823,60.623-23.394,90.935
		c-2.659,10.646-7.524,21.773-6.519,32.544c-1.331-8.383-5.505-17.347-8.856-25.546c-3.936-9.631-9.719-18.989-12.595-28.754
		c-3.206-10.892-2.789-21.8-2.759-32.785c0.062-22.676,3.587-45.184,6.941-67.771c2.559-17.235,2.031-34.343,2.258-51.616
		c0.091-6.945,0.801-14.885-9.146-19.703c-6.779-3.284-5.976-3.951-5.915-9.529c0.14-13.033-0.092-26.065,0.059-39.099
		c0.033-2.875,2.215-16.667-5.258-18.105c-3.135,3.964-6.328,7.826-9.823,11.703c-2.273,2.52-5.596,9.546-11.548,9.974
		c-2.287-3.546-3.165-9.715-3.599-13.504c-1.038-9.077,0.091-18.456,0.145-27.557c0.097-16.404-6.649-32.115-6.049-48.507
		c0.266-7.235,4.041-12.044,9.001-18.654c4.767-6.354,11.871-10.61,18.334-16.296c4.421-3.889,0.877-4.937-0.428-9.271
		c-2.037-6.763-0.539-15.645,0.822-22.38c2.432-12.031,2.261-23.778,2.322-35.89c0.048-9.625,2.785-19.974-5.921-28.76
		c-3.834-3.869-9.396-7.291-11.462-11.672c-2.77-5.875-1.201-13.852,2.033-19.495c5.601-9.771,15.068-18.923,21.564-28.536
		c2.939-4.35,7.326-8.404,5.12-13.037c-1.866-3.916-1.508-7.512-2.99-11.609c-1.027-2.837-0.94-7.249-2.931-9.845
		c-4.488,0.713-10.391,7.276-13.736,9.477c-4.744,3.119-7.71,6.686-12.06,9.845c-2.146-4.251-0.609-9.888-0.609-14.333
		c0-7.705-0.104-15.413,0.069-23.119c0.087-3.851-2.37-6.434-3.15-10.055c-0.954-4.43-1.152-8.986-2.183-13.48
		c-2.753-12.006-2.132-24.109-6.583-36.049c-3.674-9.854-6.737-20.622-12.06-30.22c-3.501-6.313-5.144-11.628-5.768-17.544
		c-0.021,1.552-0.071,3.102-0.185,4.646c-0.702,9.511-8.624,18.592-9.215,27.942c-0.671,10.604-2.73,20.765-5.109,31.338
		c-1.909,8.486-5.117,16.807-7.715,25.231c-0.899,2.915-2.206,5.833-2.236,8.79c-0.711-3.325-3.012-6.61-2.942-10.225
		c0.071-3.692,0.079-7.386,0.069-11.079c-0.578,3.144-2.241,6.478-2.914,9.309c-1.424,5.993-3.456,12.035-5.408,17.986
		c-0.979,2.981-0.081,5.596-0.513,8.536c-0.481,3.277-2.879,6.254-3.32,9.55c-0.772,5.763-1.023,12.565,0,18.313
		c2.445,13.736,7.171,26.369-5.023,39.386c-4.825,5.149-11.148,11.171-12.968,17c-0.828,2.65,1.187,5.62,0.299,8.26
		c-0.644,1.916-2.599,3.281-3.321,5.22c-1.13,3.037,0.532,6.418-0.502,9.583c-2.349,7.188-2.323,13.946-2.333,21.255
		c-0.01,7.697-0.131,14.771,2.333,22.312c2.151,6.587,0.637,13.105,3,19.728c3.377,9.464-3.979,15.987-10.746,24.469
		c-2.149,2.694-4.939,4.628-7.331,7.129c-3.277,3.431-3.823,7.634-5.925,11.271c-3.32-0.488-6.573-4.726-8.403-6.507
		c-3.557-3.462-3.121-5.873-2.989-10.042c0.256-8.134,6.173-15.746,6.204-23.974c-3.348,2.055-2.936,4.651-3.813,7.212
		c-1.54,4.495-3.203,8.955-4.58,13.472c-3.445,11.296-7.056,23.142-6.823,34.608c0.163,8.01-0.403,15.614,2.333,23.468
		c2.447,7.025,4.691,13.183,9.011,19.986c9.923,15.627,39.058,27.354,39.944,45.227c0.311,6.267-0.194,10.533-5.402,16.012
		c-3.909,4.111-9.535,7.464-13.625,11.47c-7.35-1.153-8.267-7.983-11.114-11.352c-4.313-5.1-8.778-10.574-9.215-16.314
		c-0.38,5.504,3.551,12.035,5.995,17.287c4.789,10.291,11.167,20.465,14.537,30.945c4.457,13.857,6.072,28.827,1.346,42.663
		c-1.361,3.986-2.294,7.655-4.485,11.533c-2.257,3.994-5.376,7.854-7.527,11.904c-3.699,6.961-7.202,13.974-10.464,21.009
		c-1.735,3.744-4.81,8.486-8.862,11.736c-5.852-0.739-7.681-2.618-11.473,0.021c-3.122,2.172-4.283,7.403-5.931,10.134
		c-2.709,4.488-8.596,6.863-14.259,10.34c-10.888,6.688-16.662,17.581-21.744,26.043c-5.408,9.003-12.178,18.536-14.548,27.959
		c-0.35,1.391-0.523,2.786-0.607,4.184c-0.243-8.068-0.835-16.078-2.179-24.208c-1.689-10.224,0.024-20.438-0.512-30.675
		c-0.415-7.915-2.963-15.67-3.311-23.593c-0.503-11.462,0.771-22.949,0.31-34.411c-0.371-9.216-3.004-18.294-3.321-27.512
		c-0.277-8.05,0.917-16.01-0.502-24.051c-1.216-6.893-2.512-13.324-2.333-20.271c0.332-12.873-5.262-25.364-6.155-38.15
		c-0.299-4.273,0.766-8.582,0.31-12.851c-0.385-3.604-2.868-6.812-3.311-10.4c-0.602-4.883-0.001-8.533-2.177-13.153
		c-1.485-3.153-0.667-6.685-0.667-9.951c0-7.569,3.332-17.964-2.274-24.908c-2.037-2.523-0.278-3.813-6.824-3.402
		c-2.57,0.162-3.396,2.205-5.963,1.98c-5.325-0.471-2.945-6.217-2.941-8.496c0.007-4.496-1.246-7.378-3.086-11.609
		c-1.459-3.354-3.207-6.709-2.974-10.292c0.538-8.272,5.9-16.363,8.462-24.523c1.384-4.41,2.641-11.693,0.075-16.007
		c-5.049,0.771-6.688,3.617-11.323,4.46c-4.197,0.767-8.767-0.495-11.99-1.618c-11.805-4.112-7.875-9.432-9.824-16.249
		c-0.502-1.755-0.858-3.461-1.143-5.153c-0.112-0.206-0.22-0.418-0.319-0.639c-2.871-6.388-4.261-13.085-6.657-19.532
		c-7.231-19.45-13.102-38.621-18.275-58.276c-3.81-14.475-6.002-28.1-5.942-42.696c0.027-6.443-0.01-12.886-0.01-19.328v174.804
		c0,4.608-0.073,9.219-0.01,13.828c0.069,5.158-2.316,9.63-3.076,14.714c-0.591,3.957-1.846,7.634-3.571,11.483
		c-1.052,2.348-1.496,5.644-3.021,7.791c-2.354-1.466-1.645-2.653-2.845-4.405c-1.761-2.569-6.028-4.599-8.489-6.952
		c-6.233-5.964-9.802-12.909-14.835-19.195c-2.479-3.097-6.192-5.834-9.231-8.753c0.005,0.014,0.011,0.027,0.016,0.041
		c8.819,21.895,15.518,44.334,21.12,66.539c2.512,9.953,6.778,19.909,8.489,29.915c1.127,6.596,0.477,13.213,0.443,19.822
		c-0.028,5.479-0.021,10.961,0.011,16.441c0.031,5.323-0.666,10.002-2.333,15.26c-1.448,4.567,2.101,12.33-3.609,16.32
		c-6.39,4.47-8.955-1.382-9.118-5.093c-0.162-3.688,2.858-9.718-2.797-12.5c-9.355-0.05-6.446,13.552-17.538,12.493
		c-5.265-5.288-5.712-13.94-6.609-19.835c-0.363-2.389-0.824-16.115-5.264-16.569c-9.087,13.106-9.738,27.498-9.738,41.315v46.849
		c0,16.861,1.144,33.131-9.834,48.962c-3.332,4.804-7.081,8.801-11.013,13.526c-4.188,5.034-8.889,9.827-11.478,15.229
		c-0.829,1.728-0.954,6.366-5.931,6.323c-5.747-5.721-18.064,15.781-18.75,17.091c-3.754,7.185-8.279,14.207-12.146,21.362
		c-1.955,3.618-2.769,7.499-5.846,10.903c-3.572-1.523-1.947-2.529-2.936-4.601c-1.734-3.632-2.775-7.789-3.828-11.496
		c-5.105-17.961-6.604-36.34-9.06-54.45c-3.5-25.797-2.373-51.727-2.119-77.584c0.069-7.044-0.695-13.49-2.413-20.436
		c-0.661-2.674,0.231-5.647-1.1-8.223c-4.653-0.692-6.742,1.648-11.104,1.388c-3.932-8.813,3.937-19.288-0.907-27.971
		c-5.226,0.454-12.306,4.833-17.773,3.052c-3.556-1.157-5.765-7.349-6.443-9.567c-3.13,0.221-5.406,2.562-8.178,3.563
		c-6.152,2.223-8.821,1.654-9.215,6.137c-0.617,7.018-0.288,14.313,0.214,21.326c-4.223-4.01-3.282-8.777-3.224-13.212
		c0.134-10.327,0.078-20.656,0.139-30.982c0.147-24.832-2.269-49.594-3.011-74.417c-0.619-20.729-2.558-41.14-6.059-61.784
		c-3.753-22.128-6.236-43.811-6.059-66.04c0.089-11.26,0.083-22.52-0.011-33.781c-0.045-5.418,0.372-10.804,0.912-16.181
		c-3.943,27.003-12.415,53.705-18.188,80.729c-7.937,37.151-14.859,74.495-19.541,111.811c-1.981,15.785-3.423,31.916-7.356,47.606
		c-2.551,10.178-7.225,20.115-10.352,30.287c-3.015,9.806-7.215,19.635-10.661,29.413c-0.663,1.879-1.965,9.549-6.011,10.119
		c-3.614-3.161-7.165-6.521-10.566-9.767c-0.037,0.007-0.075,0.014-0.112,0.02c-4.783,0.851-9.078,1.408-12.962,1.71
		c2.733-0.212-5.728,149.955-18.23,165.194c-22.561-24.733-22.273-68.397-21.121-102.301c-3.209,6.347-14.799,16.849-18.106,23.282
		c-16.372-20.104-21.521-46.366-21.688-71.075c-3.992,4.461-16.765,7.643-23.396,18.079
		c-24.39-16.888-27.988-105.132-28.618-138.379c-47.997,33.067-57.106,143.098-74.506,191.361
		c3.493-72.768-52.502-112.091-60.606-179.963c-5.957-49.89,20.412-77.903,32.383-119.317c9.038-31.268,3.371-66.529,2.729-104.173
		c-5.129,7.571-21.068,18.841-26.584,27.454c-15.737-121.317-19.488-245.828-25.715-370.643
		c-32.419,91.012,0.808,193.264-22.811,281.767c-14.994-12.478-31.329-17.06-48.57-21.595c-2.711,40.75,18.43,70.067,23.272,107.855
		c4.239,33.078-6.107,42.945-12.083,75.212c-8.987,48.532-1.32,96.557,10.309,143.468c28.472,114.857,32.804,229.175,22.994,347.019
		c-1.167-12.155-10.51-25.614-12.904-38.223c-41.504,25.159-74.893,37.219-118.491,47.227
		c-6.499-88.431,22.039-145.418,46.791-226.351c-6.877,7.584-20.23,13.032-27.887,21.168c1.538-91.525,13.299-220.25-20.719-301.646
		c-31.847,90.711-23.284,197.67-39.103,291.618c0.179,2.973,0.283,2.978,0.313,0.014c-1.529-7.008-3.47-13.15-4.797-20.158
		c-73.25,33.427,6.001,141.003-70.246,163.826c-92.314,27.631-43.396-134.376-18.672-172.012
		c-25.357,36.01-58.412,73.734-78.598,110.643c-11.429-31.115,1.474-90.411-17.106-114.247c-6.743-8.65-53.569-20.602-66.036-28.233
		c-64.73-39.62-57.938-77.479-52.466-147.258c-11.413,21.289-21.785,45.383-36.271,63.333
		c-25.899-38.182-4.074-138.234,0.803-181.977c9.321-83.604,21.824-182.816,2.5-266.154c-60.45,70.478-49.085,172.44-72.738,256.959
		c-14.015,50.079-38.075,75.842-23.114,132.005c28.604,107.374,44.459,180.615,40.023,294.383
		c-57.422-25.638-51.504-76.769-67.491-126.531c10.255,31.921-31.178,157.911-44.876,191.353
		c-24.068-24.369-53.286-30.986-85.238-34.229c-14.784-1.501-31.891-4.235-45.283-5.266c-9.882-0.76-18.248,21.561-32.65,15.146
		c-36.397-16.226-10.801-86.825-6.756-114.039c-20.839,18.896-39.962,40.725-63.699,54.939
		c-26.501,15.871-62.593-240.539-63.68-260.416c-2.302-42.108-3.373-61.458,15.095-101.018
		c16.796-35.979,47.989-63.688,42.188-107.313c-26.399,59.498-67.582,54.668-81.365-7.417
		c-12.442-56.047,16.698-90.482,56.866-125.082c-19.615,1.214-40.711,6.827-57.901,11.681c1.858-24.192,16.632-50.664,9.448-75.357
		c-7.064-24.283-39.523-30.166-41.375-56.142c-3.192-44.782,77.632-73.56,101.827-104.182c-5.752,0.022-10.5,2.083-14.884,2.677
		c-1.33-71.399,65.429-160.719,36.383-228.006c-183.021,10.65-363.862-5.542-546.91,0.58
		c-183.913,6.151-370.802-8.501-553.937-24.965c-260.52-23.42-536.038,18.397-794.151,50.262
		C140.883-65.236,59.263-63.241-15.396-46.602c-9.445,113.661,19.802,230.367,11.254,347
		c-10.485,143.063-15.115,285.641-12.074,429.205c3.753,177.208-0.083,363.35,12.742,538.885
		c251.92-74.316,533.861-46.503,792.792-39.158c185.239,5.256,376.125,42.052,560.676,37.513
		c60.357-1.484,108.714-22.786,169.553-18.644c76,5.175,151.846,9.723,227.658,17.529c97.211,10.011,199.679,34.357,297.731,31.104
		c187.791-6.23,372.908-15.331,561.862-11.796c277.966,5.2,573.723-5.956,848.587-54.998
		c150.004-26.765,293.461-48.729,445.391-38.445c67.811,4.593,135.588,9.193,203.487,13.387
		c92.911,5.738,185.776,11.705,279.028,15.531c81.148,3.328,162.305,3.473,243.633,2.438
		c113.353-1.442,226.171-5.729,338.757-13.174c90.254-5.968,179.828-15.145,269.42-23.559c84.939-7.976,168.838-16.03,255.17-17.466
		c44.397-0.737,88.203-0.533,132.418-3.428c51.994-3.405,111.003-12.313,149.753-33.308c17.102-9.267,23.268-21.674,24.167-34.383
		c0.485-6.867,3.531-13.936,5.419-20.721c1.623-5.83,1.233-11.595,3-17.451C5808.245,1048.803,5805.506,1036.958,5805.686,1026.164z
		"/>
	<path d="M4940.953,627.731c-5.472,0.97-3.337,19.636-1.734,22.899c1.481-0.666,2.808-2.027,4.097-3.729
		c-1.114-4.205-1.736-8.436-1.86-12.693C4942.229,632.002,4942.063,629.844,4940.953,627.731z"/>
	<path d="M4737.375,412.237c0.07-2.631,0.215-5.266,0.215-7.884C4737.636,406.977,4737.283,409.616,4737.375,412.237z"/>
	<path d="M4359.552,563.448c0,11.947-1.347,24.092,0.454,36.001c1.625,10.745,4.457,21.401,7.879,32.006
		c-0.813-4.519-1.638-9.038-2.477-13.562C4362.046,599.761,4359.51,581.664,4359.552,563.448z"/>
	<path fill="#049BA3" d="M7900.047,842.084c-0.267,1.714-1.406,6.108-3.339,6.919c-3.878,1.626-3.792-3.153-4.494-5.164
		c-0.661-1.896-2.212-4.012-3.04-6.022c-0.703-1.708-2.091-6.735-3.787-7.105c-0.51,1.475-0.326,2.665-0.339,4.201
		c-0.02,2.408-0.554,3.524-1.166,5.74c-1.225,4.432-0.369,10.04-0.339,14.641c0.046,7.151-1.234,14.246-2.627,21.244
		c-1.39,6.983-1.755,14.383-3.324,21.233c-0.383,1.672-1.301,2.937-1.62,4.593c-0.355,1.843,0.473,3.896,0.149,5.746
		c-0.672,3.84-3.881,8.002-5.701,11.482c-1.823,3.488-3.522,6.007-6.043,8.927c-1.706,1.978,0.257,2.557-3.333,2.618
		c-2.025,0.033-2.622-0.675-4.19-1.354c-1.183,3.558-0.262,6.313-2.181,9.904c-1.952,3.65-4.31,7.511-5.289,11.482
		c-0.852,3.452-1.388,6.71-2.917,10.048c-1.321,2.881-4.666,7.927-3.185,11.081c4.854-2.508,8.298-10.905,11.767-15.058
		c3.398-4.069,7.235-6.811,11.923-9.223c2.533-1.304,5.211-2.868,7.612-4.373c0.978-0.774,1.978-1.523,2.999-2.244
		c0.893-0.149,1.779-0.324,2.66-0.523c3.745-3.381,3.32-11.541,3.305-15.943c-0.032-8.932,0.092-17.866,0.005-26.799
		c-0.049-5.029,1.396-8.444,3.412-12.958c0.975-2.183,1.828-4.957,2.244-7.284c0.411-2.305-0.092-4.759,0.601-6.987
		c3.596-0.023,5.749,7.315,7.571,9.822c2.279-0.086,4.34-3.307,4.428-5.456c1.994,0.382,5.137,2.321,7.351,1.361
		c1.031-0.447,2.669-2.86,3.299-4.014c1.172-2.147,1.065-3.533,1.084-6.131c0.016-2.298-1.95-5.137-1.226-6.857
		c0.956-2.271,3.87-1.922,5.735-1.436c2.767,0.724,4.481,1.172,7.489,1.116c2.468-0.046,4.257-0.13,6.039,1.717
		c1.606,1.663,1.396,4.986,4.238,5.341c0.423-3.069-2.748-8.966-4.235-11.683c-1.886-3.443-4.476-7.429-5.732-11.164
		c-1.161-3.447,0.354-5.38,4.278-4.38c3.154,0.804,4.179,3.226,4.445-1.657c0.386-7.056,0.924-15.717-0.328-22.604
		c-1.164-6.397-2.855-12.79-4.195-19.15c-0.471-2.24-1.318-4.598-1.582-6.863c-0.224-1.913,0.395-3.625-0.222-5.519
		c-3.092,0.612-4.813,10.417-5.367,13.087c-1.737,8.362-2.083,17.144-3.668,25.618c-0.673,3.601-2.936,14.486-7.093,15.826
		c-1.698,0.547-4.156-1.011-5.768,0.114c-2.345,1.636-1.006,5.243-3.305,6.959"/>
	<path fill="#049BA3" d="M7753.055,1030.113c-0.641,2.829,1.938,7.864,2.96,10.414c2.046,5.099,3.699,10.318,5.665,15.497
		c3.541,9.325,6.408,19.231,10.273,28.443c-4.324,2.21-15.482-13.729-18.6-15.701c-1.939-1.229-4.799-2.719-6.339-4.166
		c-2.048-1.926-2.915-3.863-3.176-7.009c-4.282-0.433-5.432-1.366-6.045-5.833c-5.121-0.983-7.904,9.716-8.701,12.733
		c-0.911,3.457-1.866,7.216-3.365,10.506c-0.979,2.148-2.335,6.207-4.255,7.715c0.528-2.249-0.554-3.26-1.082-5.237
		c-0.846-3.163,0.02-6.44-0.633-9.69c-1.109-5.524-5.458-10.68-5.736-16.141c-0.227-4.462-0.045-7.134-1.833-11.131
		c-0.571-1.276-0.926-4.737-2.597-4.829c-1.763-0.098-3.262,2.849-4.129,3.908c-3.644-2.923-5.123,0.943-7.636,1.896
		c-1.054-2.607,1.838-4.131,1.146-6.667c-10.422,4.426-18.698,14.166-26.682,21.578c-2.188,2.031-3.47,4.096-6.189,5.328
		c-0.976,0.442-4.88,1.737-5.922,1.352c-0.548-2.662,2.617-6.238,3.949-8.222c2.759-4.11,5.988-7.918,9.053-11.82
		c4.283-5.454,8.223-10.615,13.423-15.286c-5.562,2.143-9.24,8.133-16.046,6.345c-5.227-1.374-14.127-2.755-19.04,0.394
		c8.278,0.815,18.053-6.291,24.746-10.149c4.483-2.584,9.216-4.17,13.494-7.183c2.812-1.979,5.6-4.181,8.709-5.708
		c-1.907-1.307,10.467-17.258,12.589-20.09c2.489-3.323,4.368-6.538,6.382-9.973c1.102-1.879,2.938-3.923,3.821-5.816
		c0.928-1.989,0.374-5.1,3.031-5.695c1.068,2.325-0.531,3.878-0.912,6.065c-0.57,3.274-0.799,6.389-1.489,9.679
		c-0.788,3.751-1.243,10.245-0.078,13.913c2.314-1.048,4.677-12.445,7.239-10.252c2.969-1.887,1.608-9.422,1.5-12.348
		c-0.161-4.324-1.448-7.945-1.49-12.41c-0.744,4.588,2.763,9.896,4.124,14.205c2.274,7.203,5.058,14.087,7.536,21.165
		c2.107,6.019,2.715,13.01,5.168,18.842c0.582,1.385,1.811,3.035,2.666,4.198c0.83,1.13,2.74,2.9,3,4.311"/>
	<path fill="#049BA3" d="M7624.061,965.523c0.004,1.588,2.488,5.53,3.339,6.862c2.012,3.148,4.876,5.887,7.161,8.927
		c3.236,4.307,6.956,7.989,8.81,12.66c-2.919,1.344-9.74-3.363-11.774-5.377c-5.452-5.395-9.636-10.752-13.534-17.326
		c-2.755-4.646-6.267-10.875-10.5-14.428c-0.702-0.589-3.438-2.988-4.494-2.939c-1.553,0.071-2.21,1.799-3.411,2.506
		c-1.664-1.512-1.362-4.668-2.599-6.673c-2.417-3.919-4.003-7.684-4.49-12.461c-0.795-7.808-2.749-15.608-3.082-23.456
		c-0.257-6.043,0.077-12.162,0.077-18.216c0,12.685,0,25.371,0,38.057c0,2.034,1.43,11.745-0.227,13.017
		c-1.529,1.174-2.942-0.592-4.278-0.933c-1.998-0.51-3.933-0.326-5.994-0.314c-8.591,0.05-15.869,1.968-24.042,4.588
		c-2.256,0.722-10.406,3.863-10.606,6.899c-0.077,1.166,1.435,1.671,1.727,2.792c0.407,1.558,0.071,4.187-0.382,5.696
		c-2.936-0.729-3.916-6.007-4.605-8.534c-0.613-2.246-1.854-4.579-2.295-6.839c-0.139-0.711,0.104-3.844-0.516-4.38
		c-1.549-1.343-5.48,0.314-7.355-0.148c-1.252-0.309-1.55-1.6-2.811-1.69c-1.765-0.129-4.306,2.046-5.777,2.737
		c-2.507,1.178-5.622,1.941-7.911,3.505c-2.167,1.479-3.956,3.507-6.257,5.032c-2.917,1.935-5.27,4.087-8.331,5.807
		c-3.058,1.717-5.766,2.836-9.072,4.065c-0.284-0.685-0.48-1.393-0.59-2.125c-2.956,0.31-5.405,11.498-6.082,14.172
		c-1.226,4.836-3.616,10.353-2.435,15.345c4.928-2.13,8.378-6.508,12.894-9.283c4.687-2.88,9.985-6.64,15.29-8.43
		c-0.149,1.602-1.087,2.971-2.421,3.939c5.652-0.02,10.938-2.369,16.153-4.117c3.553-1.192,7.596-2.97,10.833-0.752
		c1.144,0.784,1.202,2.303,2.444,3.054c1.537,0.929,4.406,0.176,6.191,0.559c3.965,0.851,8.012,1.248,11.957,2.237
		c7.443,1.867,15.201-2.278,19.2-8.293c1.704-2.564,2.16-7.715,5.965-4.437c3.067,2.644,4.595,7.316,7.838,10.212
		c2.774,2.477,5.141,4.119,8.995,4.306c3.313,0.16,6.112-0.858,8.7,1.374c2.132,1.839,3.586,4.967,5.173,7.204
		c0.793,1.118,2.017,3.558,2.965,4.414c1.725,1.557,3.643,1.313,5.738,2.37c5.52,2.779,8.27,10.146,14.917,10.464
		c8.215,0.392,6.005-7.188,6.005-12.941"/>
	<path fill="#049BA3" d="M7547.564,1015.761c-5.295,0.521-6.685-19.116-7.755-22.851c-4.432,0.229-4.52,4.048-7.21,6.451
		c-2.592-3.062-9.184,0.797-11.734,1.908c-0.856-5.729-2.213-4.804-7.465-5.924c-0.363-0.69-0.949-1.097-1.757-1.218
		c-2.11-0.397-2.978,0.534-4.612,1.51c-2.684,1.601-3.315,4.067-5.596,5.877c-1.751,1.39-2.681,0.552-4.574,1.614
		c-1.884,1.057-2.758,3.767-3.665,5.482c-1.562,2.954-2.354,3.656-3.795-0.005c-0.852-2.163-1.775-4.795-2.167-7.084
		c-3.531,0.804-3.539,7.021-4.123,9.618c-1.386,6.159-3.66,12.251-4.92,18.552c-2.012,10.069-5.669,19.831-10.158,29.157
		c-2.279,4.735-2.809,13.513-7.721,16.752c5.52-8.496,13.399-15.035,19.828-22.874c3.261-3.976,5.518-8.018,9.367-11.547
		c2.678-2.455,4.165-4.474,5.56-7.693c3.037,5.603,8.134,0.12,11.665-1.652c4.645-2.331,8.818-1.408,13.834-1.688
		c2.08-0.116,3.711-1.209,5.666-1.229c0.345,0.737,0.932,1.195,1.761,1.377c1.843-0.031,3.6-1.879,4.871-2.921
		c4.215-3.454,7.113-7.641,10.229-12.002c2.005-2.805,5.196-5.964,4.471-9.659"/>
	<path fill="#049BA3" d="M7394.572,966.959c0-0.313,0-0.627,0-0.939c0,4.237,0,8.476,0,12.714c0,9.19,0.723,17.89,1.5,27.018
		c0.613,7.203,1.424,14.646,3.411,21.628c0.501,1.76,0.666,9.248,2.034,9.792c-0.602-1.062-1.422-1.947-2.459-2.658
		c-1.362-1.984-1.762-4.103-2.909-6.2c-2.303-4.211-5.325-7.733-7.243-12.232c-2.835-6.649-8.329-13.131-9.701-20.3
		c-2.596,0.447-2.643,10.53-2.632,12.877c0.019,4.271,0,8.542,0,12.812c0,2.416-0.038,4.835-0.005,7.251
		c0.043,3.239-0.976,5.468-1.572,8.53c-0.452,2.32,0.622,4.937,0.154,7.251c-0.498,2.467-1.518,4.516-1.876,7.062
		c-2.471-1.087-3.6-5.871-4.574-8.461c-2.067-5.497-3.733-10.554-6.798-15.596c-1.9-3.128-2.74-4.3-6.328-1.796
		c-3.222,2.25-5.193,6.217-8.666,8.174c-4.685-4.271-14.017,2.11-18.332,3.801c-3.109,1.218-6.012,2.337-9.328,2.51
		c-3.205,0.168-6.429-0.195-9.636,0.064c3.231-3.58,6.991-6.59,10.303-10.146c4.603-4.941,10.964-8.203,15.851-12.945
		c2.746-2.665,4.604-5.201,6.686-8.271c0.661-0.973,1.768-2.274,2.547-3.157c1.035-0.958,2.089-1.899,3.159-2.824
		c0.921-1.217,1.503-2.571,1.745-4.06c1.973-3.177,4.838-5.12,5.709-8.933c0.782-3.419,2.104-6.64,2.92-10.047
		c0.717-2.993,2.099-5.998,3.043-8.937c1.248-3.884,0.703-8.725,3.043-12.154c-0.18,1.588,0.659,5.531,2.957,5.474
		c2.712-0.067,2.62-3.573,6.042-3.149c1.392,0.172,1.527,1.303,2.88,1.616c1.416,0.33,3.153-0.284,4.606-0.102
		c2.218,0.277,1.974-0.469,3.077,1.287c0.629,1-0.12,4.659-0.106,5.917"/>
	<path fill="#049BA3" d="M7175.583,918.157c-0.739,4.403,2.944,10.067,4.129,14.284c0.809,2.88,1.48,5.797,2.277,8.682
		c1.05,3.801,0.743,7.379,1.422,11.191c0.709,3.98,2.211,7.115,0.083,10.731c-0.652,1.108-1.609,0.976-2.013,2.409
		c-0.736,2.612,1.632,4.321,3.072,6.129c3.115,3.907,7,7.229,9.396,11.483c2.012,3.57,3.722,7.428,6.003,10.843
		c2.456,3.678,3.651,7.304,5.258,11.482c0.861,2.242,2.454,9.338,4.335,10.248c-1.138-2.779-6.104-5.041-8.356-6.922
		c-4.866-4.063-8.992-8.708-13.748-12.836c-4.606-3.998-8.851-8.488-13.393-12.558c-1.601,2.906-3.278,1.705-5.97,2.186
		c-3.241,0.58-5.596,6.338-8.661,5.733c-1.092-2.227-2.974-3.736-4.506-5.653c-1.792-2.245-1.695-2.174-4.499-3.19
		c-0.366-0.675-0.948-1.063-1.745-1.167c-1.054,0.054-2.107,0.105-3.16,0.153c-1.79-0.509-2.653-2.146-4.017-3.301
		c-5.669-4.799-7.925-0.781-12.405,3.26c-3.777,3.406-8.931,6.898-13.273,9.585c-1.145-3.655,1.507-8.941-4.809-5.701
		c-2.082,1.069-1.854,1.609-4.383,1.863c-4.051,0.405-5.322,0.316-8.893,3.024c-11.836,8.98-21.481,20.363-32.806,29.945
		c-6.186,5.232-11.609,11.121-18.136,15.998c-2.806,2.096-6.828,5.96-10.238,6.885c1.37-1.916,2.672-3.637,3.944-5.631
		c2.02-3.162,4.83-4.551,7.572-7.063c3.477-3.183,6.189-7.236,9.25-10.768c4.402-5.078,9.058-9.918,13.278-15.143
		c9.021-11.168,17.777-22.467,25.63-34.397c2.313-3.515,5.562-6.585,7.542-10.277c0.774-1.443,0.955-4.067,2.41-5.118
		c2.76,2.506,8.742,0.293,12.188,1.139c0.114,1.257-0.019,2.814,0.55,3.985c2.07-0.311,3.103-9.106,2.373-11.373
		c-0.88-2.734-3.356-4.14-2.437-7.211c0.503-1.681,2.247-3.638,3.829-4.091c0.758,1.736,6.265,6.706,8.24,6.773
		c3.162,0.109,2.837-2.486,4.494-4.164c1.574-1.593,3.635-1.793,4.505-4.079c2.507-0.624,3.638,3.167,5.666,3.946
		c1.595,0.613,4.412,0.545,6-0.038c2.169-0.796,3.587-3.089,5.999-3.764c1.936-0.542,3.996-0.343,6-0.297
		c5.811,0.131,7.546-2.265,9.328-7.171c0.745-2.05,2.194-3.587,2.708-5.742c0.411-1.722,1.84-5.189,1.241-6.687
		c-0.426,0.315-0.853,0.63-1.278,0.945"/>
	<path fill="#049BA3" d="M6835.101,1054.515c-7.002-0.148-13.536,5.236-18.373,9.653c-4.774,4.361-13.396,12.481-20.326,13.165
		c-1.25-1.759-1.451-3.814-3.149-5.27c-2.044-1.752-6.856-3.337-9.478-4.626c-4.748-2.336-10.612-3.506-14.337-7.181
		c-1.31-1.292-1.413-2.241-3.261-2.906c-2.183-0.786-5.289-0.933-7.606-1.4c-3.021-0.61-3.187-1.465-5.931-0.062
		c-2.837,1.452-5.126,3.59-7.612,5.521c-3.18,2.474-6.586,4.385-9.226,7.389c-5.015,5.708-12.216,9.077-17.69,14.418
		c-3.005,2.933-6.458,5.209-9.381,8.224c-3.356,3.462-7.563,5.803-11.198,9.103c4.685,0.424,9.6-2.525,14.169-3.361
		c5.763-1.054,11.512-2.66,17.418-2.539c1.382-0.152,2.745-0.063,4.088,0.274c1.855,0.886,1.813,2.96,3.237,3.882
		c1.668,1.081,7.992,0.565,9.797,0.314c6.751-0.938,16.479-9.726,22.862-5.947c3.258,1.93,4.322,3.939,8.559,4.479
		c4.162,0.53,9.53,0.305,13.636-0.389c4.854-0.819,10.967-2.864,14.927,0.681c2.312,2.068,1.983,3.208,4.813,0.914
		c0.905-1.591,2.004-3.049,3.296-4.373c2.909-3.408,5.836-6.895,8.97-10.117c16.551-17.015,38.807-29.861,59.635-41.431
		c10.253-5.695,19.234-13.471,29.699-18.688c-2.682-0.257-3.804,1.679-5.773,2.973c-3.929,2.584-8.65,4.285-13.125,5.737
		c-6.771,2.196-13.299,4.609-19.742,7.603c-2.869,1.443-5.792,2.777-8.768,4.005c-1.348,0.634-4.27,2.938-6.005,2.59
		c0.607-1.403,2.221-2.335,1.218-4.187c-1.435-2.647-7.453-1.374-9.966-1.366c-2.738,0.009-6.715-0.731-9.371-0.102
		c-2.088,0.494-6.488,3.048-5.861,5.598c0.452,0.081,0.904,0.163,1.356,0.245"/>
	<path fill="#049BA3" d="M6950.595,1001.407c-0.534-3.168,1.594-7.194,2.928-9.979c2.281-4.764,4.789-9.636,7.606-14.126
		c1.724-2.747,2.241-6.271,5.597-5.775c0.66,0.098,2.46,2.036,3.333,2.322c1.551,0.507,2.94,0.275,4.534,0.275
		c3.174,0,4.393-0.491,7.166-1.818c2.315-1.107,3.68-0.664,6.363-1.014c3.81-0.498,2.448-0.968,3.299-4.34
		c0.426-1.687,1.123-2.449,1.211-4.296c0.074-1.544-0.223-2.747,0.259-4.265c2.776,2.194,3.14,7.988,4.123,11.199
		c2.845,9.283,4.352,18.308,6.072,27.823c1.623,8.974,2.477,17.748,2.962,26.797c0.181,3.371,1.942,6.383,1.61,9.769
		c-2.455-5.292-6.582-9.214-10.163-13.816c-3.904-5.017-6.33-10.855-9.843-16.063c-1.004-1.488-3.51-6.566-5.261-6.886
		c-0.854,2.715-1.579,13.718-7.876,10.175c-0.92-1-1.503-2.159-1.75-3.475c-1.332-2.219-2.053-2.734-3.877-4.365
		c-1.497-1.339-2.343-3.099-4.794-2.45"/>
	<path fill="#049BA3" d="M6380.623,955.476c0.423-2.027,5.366-4.305,7.529-4.403c4.235-0.193,2.986,3.062,2.97,6.158
		c-0.019,3.612,0.052,7.227,0.005,10.839c-0.05,3.876,1.731,5.327,2.656,8.941c0.749,2.931,0.595,5.604,1.476,8.505
		c2.185,7.194,4.115,14.547,6.293,21.827c3.697,12.355,7.434,24.438,10.593,36.941c1.285,5.083,2.589,9.555,3.005,14.765
		c0.173,2.169,1.662,5.753,1.313,7.644c-9.547-12.38-19.623-24.706-28.12-37.797c-5.136-7.912-11.067-15.15-16.417-22.749
		c-0.937,2.565-0.113,5.729-0.638,8.465c-0.902,4.699-1.171,8.835-1.167,13.699c-0.03-3.377,1.529-10.635-3.338-7.009
		c-4.893,3.647-5.264,12.63-9.856,16.688c-1.854-5.023,0.677-11.08-0.643-16.304c-0.634-2.508-1.836-7.115-4.465-8.501
		c-5.685-2.994-13.29,5.207-16.195,8.607c-2.953,3.457-5.912,6.572-9.106,9.813c-1.254,1.271-4.784,7.696-7.06,7.039
		c-2.704-5.779-7.612-4.604-12.338-1.127c-3.122,2.299-6.012,5.01-9.101,7.372c-1.572,1.2-4.874,5.805-7.268,5.193
		c-0.259-1.102,0.155-1.978,1.244-2.625c1.399-2.438,3.332-5.133,4.858-7.555c4.703-7.46,11.632-14.671,17.999-20.879
		c4.07-3.968,8.91-7.108,13.273-10.755c4.466-3.732,8.467-7.97,13.229-11.378c4.35-3.113,9.441-4.759,13.273-8.505
		c-2.525,0.215-5.654,0.5-8.084-0.082c4.067-6.324,11.952-10.606,17.281-15.685c2.396-2.282,4.1-4.824,6.221-7.462
		c2.277-2.831,7.518-5.719,7.577-9.683"/>
	<path fill="#049BA3" d="M6281.628,966.959c-0.833,4.27,5.105,10.023,7.495,13.307c1.984,2.727,4.047,6.349,6.979,8.292
		c-4.262-0.275-7.381-0.598-11.474-1.855c-3.666-1.128-9.715-2.776-9.101,3.193c0.65,6.33,6.298,10.204,10.596,14.372
		c2.708,2.627,7.61,7.201,11.714,7.465c0.097,0.387,0.194,0.771,0.291,1.157"/>
	<path fill="#049BA3" d="M6326.626,1055.95c-0.782,3.945,4.321,9.635,5.927,13.135c3.943,8.591,9.748,15.813,13.983,24.18
		c3.778,7.462,8.475,14.352,13.16,21.323c2.455,3.651,5.736,7.545,7.273,11.426c-3.099,1.414-6.38-2.826-8.661-4.334
		c-7.424-4.909-13.916-9.98-20.884-15.488c-4.551-3.596-8.343-8.019-12.704-11.834c-3.067-2.683-5.673-5.884-8.516-8.585
		c-1.422-1.351-5.157-5.73-7.278-5.232c-2.871,0.674-2.149,6.069-6.304,5.438c-3.28-0.499-7.668-8.125-10.161-10.04
		c-2.808-2.156-6.004-4.317-9.179-5.953c0.068-3.454,5.522-7.68,8.768-8.366c4.735-1.004,10.277,0.707,15.112,0.102
		c5.505-0.688,3.592-5.95,7.019-9.067c2.368-2.153,3.896-0.481,6.44,0.113c2.204,0.514,5.737-0.372,4.505,3.185"/>
	<path fill="#049BA3" d="M6254.629,978.441c-0.473,3.656-2.029,5.615-1.19,9.699c1.195,5.824,4.502,11.927,7.113,17.252
		c2.734,5.579,7.314,10.519,10.649,15.818c1.221,1.94,4.688,6.44,4.238,8.719c-4.253,2.057-11.168-9.207-14.514-6.842
		c-1.732,1.226-1.773,8.109-1.831,9.936c-0.111,3.537,0.709,7.666-0.264,11.025c-0.661-0.717-1.198-1.511-1.612-2.384
		c-2.263,0.297-0.986,7.595-1.011,8.96c-0.207,11.192-2.431,22.672-4.543,33.639c-2.229,11.578-4.627,23.108-6.475,34.745
		c-0.515,2.481-0.894,4.981-1.137,7.501c-0.085,1.73,0.64,3.81-0.261,5.428c-1.354-0.33-1.724-2.738-2.245-4.128
		c-1.935-5.163-2.047-10.294-2.965-15.722c-1.872-11.07-3.584-21.873-4.569-33.07c-1.164-13.231-1.11-26.735-2.97-39.881
		c-0.752-5.313-1.188-11.134-3.451-16.079c-0.738-1.613-1.571-4.547-3.264-5.565c-5.233-3.148-12.238,7.168-15.963,9.316
		c-1.112-2.314,0.619-4.352,1.119-6.525c-1.487-0.343-4.43-0.741-5.923-0.285c-1.596,0.487-1.918,2.218-3.261,2.687
		c-2.513,0.878-2.012-1.255-4.089-1.354c-2.993-0.141-4.689,3.557-6.042,5.463c-6.546,9.225-9.871,18.654-13.534,29.157
		c-1.986,5.694-4.018,11.366-6.072,17.035c-0.994,2.743-1.397,6.44-3.333,8.784c-1.887-1.576-1.094-4.69-1.119-7.026
		c-0.058-5.448,1.043-9.29,2.995-14.39c2.524-6.596,3.7-13.575,6.29-20.131c4.023-10.18,8.962-20.077,12.977-30.26
		c2.392-6.068,3.259-12.537,5.957-18.517c0.692-1.534,2.694-3.867,1.612-5.577c-0.257-0.406-5.43-1.786-6.106-2.047
		c-3.287-1.264-6.84-1.709-10.116-2.862c0.443-1.98,4.096-0.881,5.915-1.375c2.898-0.785,5.607-3.093,7.195-5.454
		c3.269-4.86,3.225-10.262,3.299-15.784c0.039-2.885-1.044-4.453-1.572-7.149c-0.859-4.387,0.073-9.839,0.078-14.312
		c0.011-11.949,1.257-23.693,1.529-35.649c0.556,4.139-2.174,8.752-3.403,12.643c-1.055,3.34-4.428,7.438-4.161,11.016
		c0.264-7.796,0.237-14.878,1.903-22.555c1.28-5.899,1.661-10.865,5.262-15.76c3.729-5.067,6.552-9.743,8.242-15.715
		c1.962-6.934,4.123-13.915,4.126-21.171c0,2.692,0,5.384-0.035,8.076c-0.063,4.976,1.678,9.485,1.535,14.456
		c-0.143,4.958,1.485,9.494,1.5,14.455c0.009,3.147,2.532,6.844,1.268,9.802c-1.448-0.299-5.592-2.699-7.041-1.104
		c-1.072,1.182,0.097,3.902-0.144,5.239c-0.315,1.744-1.334,2.912-1.661,4.615c-1.203,6.283,1.623,12.459,1.572,18.669
		c-0.076,9.351,0.818,18.1,2.637,27.228c0.858,4.305,2.125,8.362,3.07,12.598c0.813,3.646-0.966,8.389,0.598,11.756
		c2.447-0.491,3.048-5.453,4.163-7.484c0.955-1.739,3.869-7.703,5.738-8.137c1.341,2.899-0.305,6.629,0.227,9.675
		c0.659,3.776,1.78,3.148,4.239,4.911c2.861,2.053,3.861,7.54,7.5,8.184c1.241-3.719,1.295-7.993,3.715-11.259
		c2.23,1.048,2.284,3.115,5.658,2.823c2.912-0.254,4.236-1.689,7.43-1.525c5.166,0.265,18.079,4.776,16.529,11.512"/>
	<path fill="#049BA3" d="M6076.138,708.597c-4.168,0.79-3.016,7.434-3.029,10.236c-0.053,11.124,3.196,21.75,4.868,32.686
		c0.99,6.479,2.679,12.803,4.167,19.187c1.759,7.552,2.894,15.595,6.323,22.67s5.411,14.018,8.068,21.318
		c-8.033-5.526-9.941-15.847-18.664-20.978c-1.644,3.477,2.31,9.964,4.642,12.549c2.836,3.144,5.025,4.562,6.72,8.765
		c3.541,8.783,8.106,16.957,12.769,25.271c4.783,8.53,7.371,17.248,7.238,27.13c-3.346-3.144-7.558-5.4-11.012-8.438
		c-2.613-2.297-6.698-4.942-8.661-7.827c0.277,6.517,1.478,11.901,4.238,17.973c1.743,3.834,4.343,7.733,4.868,11.666
		c0.938,7.021-0.035,14.791-0.035,21.85c0,8.81-0.549,17.821,0.107,26.613c-1.73-4.632-5.91-8.533-8.773-12.508
		c-1.885-2.616-3.381-5.57-4.9-8.392c-0.983-1.825-1.444-4.462-3.338-5.558c-2.58,1.672-1.065,9.55-1.089,12.146
		c-0.036,3.911-0.236,5.257,2.623,7.861c3.823,3.482,7.112,7.379,10.876,10.808c2.381,2.169,5.333,3.274,7.196,6.065
		c1.849,2.771,4.066,6.836,4.836,10.01c0.94,3.879,1.492,7.852,1.457,11.905c-0.029,3.378-0.695,7.743,0.267,10.979
		c2.386,0.034,2.994-2.688,4.495-4.196c1.013-1.017,5.82-5.17,7.268-5.547c6.028-1.567,1.875,7.438,1.059,9.858
		c-1.785,5.293-2.597,10.077-2.583,15.648c0.014,6.159,1.322,13.833-0.192,19.796c-11.908-8.056-21.165-17.621-28.782-29.452
		c-4.514-7.012-6.458-15.109-6.989-23.119c-0.328-4.945-1.579-9.918-4.462-14.2c-1.759-2.613-4.456-4.543-6.227-7.211
		c-1.108-1.669-1.18-2.374-2.768-3.477c-3.822-2.65-6.144-3.852-9.042-7.801c-3.869-5.271-7.898-10.301-10.636-16.238
		c-1-2.17-2.792-7.661-1.207-10.123c1.478-2.293,8.818-2.686,11.469-2.796c1.779-0.073,8.233,2.159,9.106,1.308
		c2.571-2.506-2.461-12.584-3.142-15.244c-2.119-8.277-7.081-19.246-3.037-27.659c1.462-3.043,4.371-13.311,0.971-15.966
		c9.664,7.008,3.619-10.81,2.512-14.182c-1.957-5.964-5.488-11.286-7.268-17.322c-0.426-1.824-0.926-3.63-1.5-5.417
		c-0.208-1.234,0.149-3.479-0.222-4.597c-0.896-2.707-1.605-3.416-1.577-6.794c0.015-1.863-0.836-5.923-0.107-7.593
		c2.256-5.167,15.574,0.867,19.403,1.385c0.926-3.022-1.882-7.885-2.463-11.044c-0.616-3.347-0.337-6.815-0.339-10.23
		c-0.004-6.54-0.412-12.429-1.5-18.865c-0.528-3.123-3.389-8.239-0.333-10.946c0.552,0.722,0.664,1.534,0.333,2.437"/>
	<path fill="#049BA3" d="M6037.14,804.765c-0.008,6.201,0.521,11.474,1.876,17.544c0.731,3.276,1.385,6.54,2.247,9.79
		c0.559,2.106,2.871,6.334,1.685,8.468c-2.047,0.273-4.004-2.393-5.803-3.22c-1.912-0.879-3.879-1.413-5.588-2.296
		c-0.848,1.434-2.453,2.688-3.12,4.168c-0.884,1.957-0.737,3.757-2.178,5.588c-3.449-1.005-4.503-5.359-8.618-5.719
		c-7.721-0.676-4.375,18.549-4.798,22.862c-2.231,22.724-4.686,45.27-8.73,67.779c-1.797,10.001-3.096,19.452-3,29.602
		c0.051,5.337,0.153,10.697-0.043,16.033c1.478-4.059,1.651-8.397,2.928-12.517c2.526-8.151,5.978-16.152,8.773-24.235
		c3.66-10.584,7.306-21.549,12.448-31.532c-0.515,2.262,0.484,3.544,1.054,5.622c0.747,2.722,0.717,5.8,1.839,8.423
		c1.508,3.528,6.652,3.913,10.225,1.875c1.994,1.813,3.53,11.75,0.673,12.295c-1.077-2.729-1.458-5.892-2.173-8.719
		c-1.975-7.804-5.454-15.145-6.891-23.097c-1.532-8.479-1.824-16.789-1.799-25.359c0.009-3.245-1.108-8.505,0.221-11.55
		c2.691-0.444,5.49,4.171,7.238,5.689c3.084,2.678,6.669,3.376,10.302,5.237c1.782-6.98-0.354-14.156-2.816-20.667
		c-1.824-4.826-2.46-9.73-4.524-14.529c-1.568-3.646-1.375-6.435-1.428-10.265"/>
	<path fill="#049BA3" d="M5937.71,1034.869c-1.688-20.187-8.666-40.389-15.679-59.648c-11.948-9.687-23.369-20.971-26.17-38.443
		c-3.776,21.13-2.159,48.504-12.236,65.447c-1.541-2.87-4.176-8.174-6.519-11.896c-21.893,3.974-24.339,29.951-31.354,47.755
		c27.657-0.468,61.983,3.223,85.958-3.214"/>
	<path fill="#049BA3" d="M5487.666,797.846c3.924,44.578,12.067,89.522,12.002,134.649c-0.052,35.801-11.613,66.578-12.216,101.467
		c17.42-21.479,27.486-38.759,56.696-34.563c2.412,4.682,7.135,10.653,8.926,14.16c-0.466-24.321,6.171-47.722,6.076-71.314
		c-48.034,48.199-60.887-123.39-74.485-147.399"/>
	<path fill="#049BA3" d="M5121.629,1022.868c-14.323-24.42-4.96-62.833-18.745-89.545c-2.208,3.553-8.555,9.3-11.483,13.63
		c1.915-51.283-32.9-97.943-29.923-151.211c2.752,3.039,6.515,8.351,8.99,11.463c28.754-24.181-24.639-73.9-6.299-107.975
		c-2.648,3.936-10.97,10.433-13.95,14.377c-16.153-43.079-5.569-96.563-14.863-140.534c-14.875,56.532-15.818,121.172-21.739,178.86
		c0.674-8.567-0.48-17.387-0.598-25.776c-3.099,4.646-7.777,10.564-10.747,16.706c-36.198-15.181,2.351,35.529,13.891,46.724
		c-20.297,22.473,5.387,83.935-2.99,115.886c-38.514-12.39-32.493-64.412-32.57-97.719c-11.37,45.279-7.18,90.45-20.383,134.544
		c2.628-3.321,13.29-5.288,19.951-8.985c6.692,18.27,23.675,7.099,38.924,0.08c14.48,35.789,22.501,74.94,31.049,113.238
		c22.942-36.372,52.073,2.381,73.886,20.933c1.234-20.858-13.821-34.34-8.403-53.696"/>
	<path fill="#049BA3" d="M4647.582,1061.872c37.445-17.93,45.431-66.31,42.015-104.093c1.961,18.484,3.311,37.525,6.502,55.693
		c4.336-1.687,7.271-4.36,11.499-8.906c12.777,2.17,18.704-2.3,27.292-14.713c-9.959-35.957-56.587-103.336,2.178-131.607
		c4.386,44.52-6.212,70.334,13.271,110.232c6.894-12.251,10.45-6.197,8.777-22.711c13.026,26.384,17.742,53.081,17.324,82.039
		c2.506-3.57,6.477-7.711,8.488-10.631c4.603,10.002,6.762,24.567,6.214,35.242c-16.671,0.607-33.719,0.461-50.551,0.453"/>
	<path fill="#049BA3" d="M4548.571,1061.872c-24.261-27.665-24.79-77.604-24.68-113.762c-7.635,17.581-14.09,49.526-29.499,61.4
		c-16.853,12.986-36.174-8.465-42.423,22.044c-11.219-8.239-24.845-19.338-40.35-20.154c11.612,13.904,41.494,46.894,60.145,50.927
		c26.104,5.646,37.734-20.994,64.806,2.545"/>
	<path fill="#049BA3" d="M4095.526,1058.871c-6.934-33.845-6.731-79.163,0.059-113.02c-5.072,31.439-12.148,63.562-18.798,94.838
		c-1.881-1.987-3.59-7.873-5.05-11.357c-2.956,0.882-14.137,7.671-14.751,7.784c11.926,10.97,29.128,17.638,41.54,21.755"/>
	<path fill="#049BA3" d="M3987.516,1010.867c-12.42-59.008-1.595-102.173-3.454-158.622c-3.498,3.091-12.554,6.499-16.939,11.367
		c0.082-12.176-1.112-23.508,1.948-34.723c-2.077,0.971-3.492,5.28-4.804,7.073c-7.292-23.82-6.103-56.942-9.086-79.872
		c-3.668,43.4-23.173,104.177-15.551,146.669c5.743,32.017,28.699,58.367,32.885,96.105"/>
	<path fill="#049BA3" d="M3894.506,731.839c-24.927-5.589-31.48-52.423-24.002-73.945c6.862,42.923,39.865-1.408,45.188-17.492
		c10.832-32.73,10.106-58.245,23.809-87.685c0.828,43.601-0.413,135.299-29.245,166.881c-4.852-9.482-14.332-18.363-18.071-26.533
		c-3.361,15.437-1.269,30.895,8.323,41.774"/>
	<path fill="#049BA3" d="M3744.491,986.864c0.411-29.702,12.15-58.369,12.334-88.153c0.223-36.194-14.951-70.314-15.334-106.163
		c1.594,47.548-15.682,92.969-17.991,139.607c-0.472-0.359-0.52-9.837-0.464-10.913c-2.158,1.078-14.281,5.642-16.871,5.232
		c-8.232-20.638,0.824-42.209,4.88-62.383c-26.776,21.098-16.992,68.758-17.847,101.771c-5.02-7.91-17.749-16.158-23.047-23.625
		c-24.308,51.487,38.549,29.891,65.339,47.626"/>
	<path fill="#049BA3" d="M3480,1033c-7.229-50.984,3.765-101.286-0.604-151.566c-6.237,5.853-23.027,10.524-30.392,18.947
		c-27.561-33.312-32.938-81.64-40.114-122.535c-5.879,86.87-4.126,182.749-0.876,269.945c0.921-12.708,7.549-18.015,11.203-26.379
		c2.209,5.592-1.441,10.953,4.498,15.062c10.985-3.707,32.077-9.709,40.285-15.474"/>
	<path fill="#049BA3" d="M2500,797c12.17,52.617,39.139,89.764,67.189,134.791c1.267-26.693-6.571-53.719,15.715-70.472
		c8.353,25.275,23.932,50.88,44.414,36.207c-1.08,47.367-1.734,117.795,21.494,158.25c15.717-20.784,25.099-44.057,39.574-65.36
		c-41.197,57.306,10.944,91.232,63.388,75.096c-29.903,40.643-71.404,60.07-115.077,20.473
		c-23.229-21.062-27.165-92.853-68.888-81.383C2546.592,961.399,2536.681,909.943,2516,865"/>
	<path fill="#049BA3" d="M2188,1209c23.226-101.186,85.125-99.186,158.903-120.384c28.341-35.539,48.215-82.362,57.083-126.393
		c2.401,39.042,0.893,140.423-30.472,166.193c-23.465,19.28-57.932-13.937-74.518,35.979c-16.954-10.429-36.147-10.415-50.996,0.604
		"/>
	<path fill="#049BA3" d="M2876,969c-9.347,29.801-35.18,80.646-22.941,112.609c12.34,32.225,44.66,35.376,62.415,50.594
		c-74.076,34.152-103.838-95.592-55.474-135.203"/>
	<path fill="#049BA3" d="M3036,1133c35.541-53.461,19.528-90.588,20-146.983c-0.517,14.605,5.094,24.738,7.907,35.54
		c43.956-40.479-12.001-128.451-11.986-179.604c13.708,69.507,40.776,146.172,64.286,213.839c0.948-9.382,0.166-20.133-0.221-29.582
		c-2.784,21.564-12.349,39.954-28.271,44.271c4.325,37.216-5.302,65.463-47.715,54.52"/>
</g>
</svg>
