<?xml version="1.0" encoding="utf-8"?>
<!-- Generator: Adobe Illustrator 16.0.0, SVG Export Plug-In . SVG Version: 6.00 Build 0)  -->
<!DOCTYPE svg PUBLIC "-//W3C//DTD SVG 1.1//EN" "http://www.w3.org/Graphics/SVG/1.1/DTD/svg11.dtd">
<svg version="1.1" xmlns="http://www.w3.org/2000/svg" xmlns:xlink="http://www.w3.org/1999/xlink" x="0px" y="0px" width="11143px"
	 height="1080px" viewBox="0 0 11143 1080" enable-background="new 0 0 11143 1080" xml:space="preserve">
<g id="sky_x5F_LFTtoRT">
	<g>
		<path opacity="0.2" fill="#BF0423" d="M11543.637-52.037c-28.178-2.021-221.9,24.244-380.4,18.183
			c-158.499-6.061-457.887-42.427-602.298-32.326s-158.499,60.61-376.877,72.732s-475.499-94.956-619.91-76.773
			s-376.878,56.569-655.133,58.59s-517.766,40.407-637.521,58.59c-119.756,18.183-10.566,18.183,31.699,84.854
			c42.267,66.671,112.711,72.733,331.088,62.631c218.379-10.102,341.656-96.976,552.988-105.058
			c211.334-8.082,598.777,119.2,729.1,123.241s704.444-125.262,824.198-107.079c119.756,18.184,137.366,129.302,362.788,131.323
			c225.423,2.02,436.756-22.224,500.155-44.448c63.399-22.224,52.831-216.176,42.267-218.197
			C11635.215-27.793,11543.637-52.037,11543.637-52.037z"/>
		<path opacity="0.1" fill="#C5102A" d="M11279.021,518.222l-151.124-32.39c0,0-240.016,31.04-373.363,31.04
			c-133.35,0-263.355-42.512-333.364,0c-70.004,42.513-100.008,0-188.903,0c-88.897,0-193.351-37.788-255.579,0
			c-62.229,37.789,26.668-89.073-146.68-89.073s-548.937-110.667-548.937,0c0,110.667-364.472-52.635-364.472,0
			s-336.699-24.968-377.814,0c-41.116,24.968-128.896,78.276-152.235,92.447c-23.332,14.171,5.556,150.48,36.671,147.781
			c31.113-2.699,2940.253,0,2935.813-4.049c-4.444-4.049-13.336-148.456-13.336-148.456L11279.021,518.222z"/>
		<path opacity="0.1" fill="#C5102A" d="M11381.256,588.844l-142.233,37.166c0,0-208.907-41.077-235.575-44.99
			c-26.676-3.912-428.927,21.518-437.818,25.43c-8.89,3.912-382.254,1.957-402.256,1.957c-20.004,0-353.367-21.518-384.477-29.342
			c-31.113-7.824-104.453-95.85-168.906-91.938c-64.448,3.912-146.68,66.508-242.242,80.201s-413.368,27.386-493.38,15.649
			c-80.005-11.736-180.013-60.64-255.572-62.596c-75.565-1.956-140.013,56.727-204.468,46.947
			c-64.448-9.78-75.56-176.05-57.777-191.699c17.778-15.649,224.46-46.947,273.356-43.035
			c48.892,3.912,328.919-31.298,328.919-31.298s164.455-33.254,375.582-13.693c211.134,19.561,313.361,82.157,546.717,84.113
			s273.355-123.235,495.6-123.235c222.238,0,224.465,48.903,408.924,133.016c184.458,84.113,293.358,80.201,333.365,52.815
			c39.999-27.386,137.785-117.367,213.346-64.552c75.565,52.815,100.013,72.376,144.46,133.016
			C11521.265,563.415,11381.256,588.844,11381.256,588.844z"/>
		<path opacity="0.1" fill="#F83E40" d="M8313.285,602.76c26.675,2.936,210.041-35.213,360.073-26.409
			c150.026,8.804,433.411,61.624,570.101,46.952c136.696-14.674,150.032-88.035,356.736-105.642
			c206.706-17.607,450.08,137.921,586.775,111.509c136.695-26.41,356.735-82.164,620.114-85.099
			c263.384-2.935,490.089-58.69,603.446-85.1c113.355-26.41,10.003-26.41-30.004-123.248
			c-40.006-96.838-106.686-105.642-313.396-90.969c-206.705,14.673-323.392,140.854-523.43,152.593
			c-200.033,11.738-566.772-173.134-690.124-179.003c-123.359-5.869-666.797,181.938-780.147,155.527
			c-113.356-26.41-130.023-187.806-343.4-190.741c-213.37-2.935-413.409,32.279-473.423,64.559
			c-60.009,32.279-50.008,313.988-40.006,316.922S8313.285,602.76,8313.285,602.76z"/>
	</g>
	<g id="Layer_97">
		<g>
			<path opacity="0.3" fill="#C5102A" d="M8389.301,149.207l159.658,33.117c0,0,253.574-31.737,394.449-31.737
				c140.873,0,278.227,43.466,352.186,0s105.656,0,199.572,0c93.917,0,204.269,38.636,270.01,0
				c65.742-38.637-28.175,91.072,154.963,91.072c183.137,0,579.933,113.15,579.933,0s385.058,53.815,385.058,0
				s355.709,25.528,399.145,0c43.437-25.528,136.179-80.033,160.832-94.521c24.652-14.489-5.869-153.857-38.74-151.097
				c-32.871,2.76-3106.285,0-3101.589,4.14s14.087,151.787,14.087,151.787L8389.301,149.207z"/>
			<path opacity="0.3" fill="#C5102A" d="M8281.297,77l150.267-38c0,0,220.704,42,248.878,46c28.176,4,453.146-22,462.539-26
				c9.391-4,403.84-2,424.971-2c21.132,0,373.318,22,406.189,30c32.87,8,110.352,98,178.44,94c68.09-4,154.962-68,255.922-82
				s436.712-28,521.236-16s190.181,62,270.009,64c79.83,2,147.919-58,216.009-48c68.089,10,79.829,180,61.046,196
				s-237.14,48-288.793,44c-51.654-4-347.491,32-347.491,32s-173.745,34-396.796,14c-223.052-20-331.057-84-577.587-86
				s-288.792,126-523.583,126s-237.14-50-432.016-136c-194.877-86-309.924-82-352.187-54s-145.571,120-225.399,66
				c-79.829-54-105.656-74-152.614-136S8281.297,77,8281.297,77z"/>
		</g>
	</g>
</g>
</svg>
