<?xml version="1.0" encoding="UTF-8" standalone="no"?>
<!-- Generator: Adobe Illustrator 16.0.0, SVG Export Plug-In . SVG Version: 6.00 Build 0)  -->

<svg
   xmlns:dc="http://purl.org/dc/elements/1.1/"
   xmlns:cc="http://creativecommons.org/ns#"
   xmlns:rdf="http://www.w3.org/1999/02/22-rdf-syntax-ns#"
   xmlns:svg="http://www.w3.org/2000/svg"
   xmlns="http://www.w3.org/2000/svg"
   xmlns:sodipodi="http://sodipodi.sourceforge.net/DTD/sodipodi-0.dtd"
   xmlns:inkscape="http://www.inkscape.org/namespaces/inkscape"
   version="1.1"
   x="0px"
   y="0px"
   width="11143px"
   height="1080px"
   viewBox="0 0 11143 1080"
   enable-background="new 0 0 11143 1080"
   xml:space="preserve"
   id="svg4866"
   inkscape:version="0.48.2 r9819"
   sodipodi:docname="mountain.svg">
<metadata
   id="metadata4875">
<rdf:RDF>
<cc:Work
   rdf:about="">
<dc:format>image/svg+xml</dc:format>
<dc:type
   rdf:resource="http://purl.org/dc/dcmitype/StillImage" />
<dc:title>
</dc:title>
</cc:Work>
</rdf:RDF>
</metadata>
<defs
   id="defs4873" />
<sodipodi:namedview
   pagecolor="#FFFFFF"
   bordercolor="#D1D1D1"
   borderopacity="1"
   objecttolerance="10"
   gridtolerance="10"
   guidetolerance="10"
   inkscape:pageopacity="0"
   inkscape:pageshadow="2"
   inkscape:window-width="1089"
   inkscape:window-height="710"
   id="namedview4871"
   showgrid="false"
   inkscape:zoom="0.25271471"
   inkscape:cx="9516.9053"
   inkscape:cy="117.3431"
   inkscape:window-x="119"
   inkscape:window-y="1"
   inkscape:window-maximized="0"
   inkscape:current-layer="layer20" />

<g xmlns="http://www.w3.org/2000/svg" inkscape:groupmode="layer" xmlns:inkscape="http://www.inkscape.org/namespaces/inkscape" id="layer9" inkscape:label="Blob1" style="display:inline">
<g transform="translate(-4.6551213e-7,-1.3663186e-5)" id="sky_x5F_LFTtoRT">
<g id="g5044">
<path fill="#B2B2B2" style="opacity:0.2;fill:#BFB7D5" inkscape:connector-curvature="0" d="m 11543.637,-52.037 c -28.178,-2.021 -221.9,24.244 -380.4,18.183 -158.499,-6.061 -457.887,-42.427 -602.298,-32.326 -144.411,10.101 -158.499,60.61 -376.877,72.732 -218.378,12.122 -475.499,-94.956 -619.91,-76.773 -144.411,18.183 -376.878,56.569 -655.133,58.59 -278.255,2.021 -517.766,40.407 -637.521,58.59 -119.756,18.183 -10.566,18.183 31.699,84.854 42.267,66.671 112.711,72.733 331.088,62.631 218.379,-10.102 341.656,-96.976 552.988,-105.058 211.334,-8.082 598.777,119.2 729.1,123.241 130.323,4.041 704.444,-125.262 824.198,-107.079 119.756,18.184 137.366,129.302 362.788,131.323 225.423,2.02 436.756,-22.224 500.155,-44.448 63.399,-22.224 52.831,-216.176 42.267,-218.197 -10.566,-2.019 -102.144,-26.263 -102.144,-26.263 z" id="path5046"/>
<path fill="#B2B2B2" style="opacity:0.1;fill:#C5C2DD" inkscape:connector-curvature="0" d="m 11279.021,518.222 -151.124,-32.39 c 0,0 -240.016,31.04 -373.363,31.04 -133.35,0 -263.355,-42.512 -333.364,0 -70.004,42.513 -100.008,0 -188.903,0 -88.897,0 -193.351,-37.788 -255.579,0 -62.229,37.789 26.668,-89.073 -146.68,-89.073 -173.348,0 -548.937,-110.667 -548.937,0 0,110.667 -364.472,-52.635 -364.472,0 0,52.635 -336.699,-24.968 -377.814,0 -41.116,24.968 -128.896,78.276 -152.235,92.447 -23.332,14.171 5.556,150.48 36.671,147.781 31.113,-2.699 2940.253,0 2935.813,-4.049 -4.444,-4.049 -13.336,-148.456 -13.336,-148.456 l -66.677,2.7 z" id="path5048"/>
<path fill="#B2B2B2" style="opacity:0.1;fill:#C5C2DD" inkscape:connector-curvature="0" d="m 11381.256,588.844 -142.233,37.166 c 0,0 -208.907,-41.077 -235.575,-44.99 -26.676,-3.912 -428.927,21.518 -437.818,25.43 -8.89,3.912 -382.254,1.957 -402.256,1.957 -20.004,0 -353.367,-21.518 -384.477,-29.342 -31.113,-7.824 -104.453,-95.85 -168.906,-91.938 -64.448,3.912 -146.68,66.508 -242.242,80.201 -95.562,13.693 -413.368,27.386 -493.38,15.649 -80.005,-11.736 -180.013,-60.64 -255.572,-62.596 -75.565,-1.956 -140.013,56.727 -204.468,46.947 -64.448,-9.78 -75.56,-176.05 -57.777,-191.699 17.778,-15.649 224.46,-46.947 273.356,-43.035 48.892,3.912 328.919,-31.298 328.919,-31.298 0,0 164.455,-33.254 375.582,-13.693 211.134,19.561 313.361,82.157 546.717,84.113 233.356,1.956 273.355,-123.235 495.6,-123.235 222.238,0 224.465,48.903 408.924,133.016 184.458,84.113 293.358,80.201 333.365,52.815 39.999,-27.386 137.785,-117.367 213.346,-64.552 75.565,52.815 100.013,72.376 144.46,133.016 44.444,60.639 -95.565,86.068 -95.565,86.068 z" id="path5050"/>
<path fill="#B2B2B2" style="opacity:0.1;fill:#F8F0F3" inkscape:connector-curvature="0" d="m 8313.285,602.76 c 26.675,2.936 210.041,-35.213 360.073,-26.409 150.026,8.804 433.411,61.624 570.101,46.952 136.696,-14.674 150.032,-88.035 356.736,-105.642 206.706,-17.607 450.08,137.921 586.775,111.509 136.695,-26.41 356.735,-82.164 620.114,-85.099 263.384,-2.935 490.089,-58.69 603.446,-85.1 113.355,-26.41 10.003,-26.41 -30.004,-123.248 -40.006,-96.838 -106.686,-105.642 -313.396,-90.969 -206.705,14.673 -323.392,140.854 -523.43,152.593 -200.033,11.738 -566.772,-173.134 -690.124,-179.003 -123.359,-5.869 -666.797,181.938 -780.147,155.527 -113.356,-26.41 -130.023,-187.806 -343.4,-190.741 -213.37,-2.935 -413.409,32.279 -473.423,64.559 -60.009,32.279 -50.008,313.988 -40.006,316.922 10.002,2.934 96.685,38.149 96.685,38.149 z" id="path5052"/>
</g>
<g id="Layer_97">
<g id="g5055">
<path fill="#B2B2B2" style="opacity:0.3;fill:#C5C2DD" inkscape:connector-curvature="0" d="m 8389.301,149.207 159.658,33.117 c 0,0 253.574,-31.737 394.449,-31.737 140.873,0 278.227,43.466 352.186,0 73.959,-43.466 105.656,0 199.572,0 93.917,0 204.269,38.636 270.01,0 65.742,-38.637 -28.175,91.072 154.963,91.072 183.137,0 579.933,113.15 579.933,0 0,-113.15 385.058,53.815 385.058,0 0,-53.815 355.709,25.528 399.145,0 43.437,-25.528 136.179,-80.033 160.832,-94.521 24.652,-14.489 -5.869,-153.857 -38.74,-151.097 -32.871,2.76 -3106.285,0 -3101.589,4.14 4.696,4.14 14.087,151.787 14.087,151.787 l 70.436,-2.761 z" id="path5057"/>
<path fill="#B2B2B2" style="opacity:0.3;fill:#C5C2DD" inkscape:connector-curvature="0" d="m 8281.297,77 150.267,-38 c 0,0 220.704,42 248.878,46 28.176,4 453.146,-22 462.539,-26 9.391,-4 403.84,-2 424.971,-2 21.132,0 373.318,22 406.189,30 32.87,8 110.352,98 178.44,94 68.09,-4 154.962,-68 255.922,-82 100.96,-14 436.712,-28 521.236,-16 84.524,12 190.181,62 270.009,64 79.83,2 147.919,-58 216.009,-48 68.089,10 79.829,180 61.046,196 -18.783,16 -237.14,48 -288.793,44 -51.654,-4 -347.491,32 -347.491,32 0,0 -173.745,34 -396.796,14 -223.052,-20 -331.057,-84 -577.587,-86 -246.53,-2 -288.792,126 -523.583,126 -234.791,0 -237.14,-50 -432.016,-136 -194.877,-86 -309.924,-82 -352.187,-54 -42.263,28 -145.571,120 -225.399,66 -79.829,-54 -105.656,-74 -152.614,-136 -46.958,-62 100.96,-88 100.96,-88 z" id="path5059"/>
</g>
</g>
</g>
</g></svg>
