<?xml version="1.0" encoding="utf-8"?>
<!-- Generator: Adobe Illustrator 16.0.0, SVG Export Plug-In . SVG Version: 6.00 Build 0)  -->
<!DOCTYPE svg PUBLIC "-//W3C//DTD SVG 1.1//EN" "http://www.w3.org/Graphics/SVG/1.1/DTD/svg11.dtd">
<svg version="1.1" xmlns="http://www.w3.org/2000/svg" xmlns:xlink="http://www.w3.org/1999/xlink" x="0px" y="0px" width="11143px"
	 height="1080px" viewBox="0 0 11143 1080" enable-background="new 0 0 11143 1080" xml:space="preserve">
<g id="sky_x5F_RTtoLFT">
	<g>
		<path opacity="0.2" fill="#C5C2DD" d="M11522.506,62.772c-28.178-3-221.9,36.003-380.399,27.002
			c-158.5-9.001-457.888-63.006-602.3-48.005c-144.411,15.001-158.499,90.009-376.877,108.011
			c-218.377,18.002-475.498-141.014-619.91-114.011c-144.41,27.003-376.877,84.008-655.133,87.009
			c-278.254,3-517.766,60.006-637.521,87.009s-10.566,27.002,31.7,126.012s112.71,108.012,331.088,93.01
			s341.655-144.014,552.988-156.016c211.334-12.001,598.776,177.018,729.099,183.018s704.444-186.019,824.199-159.016
			c119.756,27.003,137.365,192.019,362.788,195.02s436.756-33.003,500.154-66.006c63.4-33.003,52.832-321.032,42.266-324.032
			C11614.084,98.775,11522.506,62.772,11522.506,62.772z"/>
		<path opacity="0.2" fill="#C5C2DD" d="M8410.433,6.167l159.657,22.3c0,0,253.574-21.371,394.449-21.371
			c140.874,0,278.227,29.27,352.187,0c73.958-29.269,105.655,0,199.571,0c93.917,0,204.27,26.017,270.01,0
			c65.742-26.017-28.174,61.326,154.963,61.326s579.934,76.193,579.934,0s385.058,36.238,385.058,0s355.708,17.19,399.144,0
			c43.437-17.19,136.179-53.893,160.833-63.649c24.651-9.756-5.871-103.604-38.741-101.746c-32.871,1.858-3106.285,0-3101.589,2.788
			s14.087,102.21,14.087,102.21L8410.433,6.167z"/>
		<path opacity="0.2" fill="#C5C2DD" d="M8302.429-42.456l150.266-25.588c0,0,220.704,28.282,248.878,30.975
			c28.176,2.694,453.147-14.814,462.539-17.508c9.391-2.693,403.84-1.347,424.972-1.347c21.131,0,373.317,14.814,406.188,20.202
			c32.87,5.387,110.352,65.991,178.441,63.297c68.089-2.693,154.962-45.79,255.922-55.217
			c100.96-9.428,436.711-18.855,521.236-10.774c84.523,8.081,190.18,41.75,270.01,43.097
			c79.828,1.347,147.917-39.056,216.007-32.322c68.09,6.733,79.829,121.208,61.046,131.982s-237.139,32.322-288.793,29.629
			c-51.653-2.694-347.491,21.548-347.491,21.548s-173.745,22.895-396.796,9.427c-223.052-13.467-331.056-56.564-577.586-57.911
			c-246.531-1.347-288.793,84.846-523.584,84.846s-237.139-33.669-432.016-91.58c-194.876-57.911-309.924-55.217-352.186-36.362
			c-42.264,18.854-145.571,80.806-225.4,44.443c-79.828-36.362-105.656-49.83-152.613-91.58
			C8154.51-24.948,8302.429-42.456,8302.429-42.456z"/>
	</g>
</g>
</svg>
