<?xml version="1.0" encoding="utf-8"?>
<!-- Generator: Adobe Illustrator 16.0.0, SVG Export Plug-In . SVG Version: 6.00 Build 0)  -->
<!DOCTYPE svg PUBLIC "-//W3C//DTD SVG 1.1//EN" "http://www.w3.org/Graphics/SVG/1.1/DTD/svg11.dtd">
<svg version="1.1" xmlns="http://www.w3.org/2000/svg" xmlns:xlink="http://www.w3.org/1999/xlink" x="0px" y="0px" width="11143px"
	 height="1080px" viewBox="0 0 11143 1080" enable-background="new 0 0 11143 1080" xml:space="preserve">
<g id="Cloud">
	<g>
		<path fill="#FF4C4C" d="M8944.571,429.592c0.164-0.413,0.248-0.842,0.248-1.28c0-3.568-5.659-6.46-12.64-6.46
			c-6,0-11.022,2.138-12.318,5.004c-0.457-0.136-0.93-0.256-1.412-0.361c1.848-1.319,2.895-2.83,2.895-4.435
			c0-5.177-10.91-9.376-24.375-9.376c-3.165,0-6.189,0.231-8.961,0.654c-1.998-5.24-7.334-8.99-13.609-8.99
			c-7.977,0-14.443,6.064-14.443,13.544c0,0.218,0.006,0.435,0.017,0.649c-1.636,0.09-3.189,0.424-4.616,0.961
			c-2.443-3.641-6.269-5.986-10.568-5.986c-0.934,0-1.842,0.11-2.719,0.319c-2.051-1.367-4.375-2.292-6.862-2.651
			c-0.104-0.088-0.21-0.177-0.321-0.264c-0.986-4.426-6.768-7.824-13.753-7.824c-7.677,0-13.901,4.104-13.901,9.169
			c0,0.022,0,0.045,0,0.067c-0.938-2.281-2.719-4.075-4.922-4.934c-0.306-0.706-0.654-1.356-1.043-1.941
			c0.12-0.828,0.186-1.688,0.186-2.568c0-6.791-3.802-12.295-8.487-12.295c-4.687,0-8.487,5.504-8.487,12.295
			c0,1.678,0.231,3.277,0.654,4.736c-0.479,0.135-0.945,0.288-1.404,0.457c-2.979-3.804-7.52-6.235-12.611-6.235
			c-8.977,0-16.252,7.557-16.252,16.878c0,0.277,0.01,0.555,0.021,0.829c-1.916-2.607-5.574-4.371-9.772-4.371
			c-6.181,0-11.193,3.825-11.193,8.544c0,0.961,0.207,1.885,0.59,2.748c-0.483-0.026-0.983-0.04-1.493-0.04
			c-0.453,0-0.898,0.011-1.334,0.032c-0.156-1.64-0.587-3.183-1.231-4.574c1.057-2.093,1.663-4.527,1.663-7.126
			c0-7.824-5.498-14.169-12.277-14.169c-0.652,0-1.295,0.06-1.917,0.172c-2.025-6.652-7.515-11.423-13.974-11.423
			c-8.18,0-14.807,7.65-14.807,17.087c0,4.519,1.521,8.627,4.004,11.682c-1.207-0.275-2.566-0.431-4.004-0.431
			c-2.938,0-5.547,0.648-7.195,1.651c-1.225-0.396-2.599-0.665-4.064-0.768c-0.669-7.28-6.447-12.968-13.479-12.968
			c-3.689,0-7.031,1.566-9.475,4.107c-3.01-1.277-6.648-2.023-10.566-2.023c-7.781,0-14.454,2.938-17.305,7.128
			c-0.248-0.029-0.498-0.044-0.752-0.044c-0.84,0-1.646,0.161-2.402,0.451c-1.461-10.877-9.611-19.204-19.449-19.204
			c-9.227,0-16.97,7.33-19.1,17.218c-0.099,0.118-0.196,0.238-0.291,0.359c-2.344-0.586-4.875-0.907-7.511-0.907
			c-5.933,0-11.317,1.62-15.277,4.253c-0.634,0.033-1.255,0.075-1.858,0.125c-1.17-0.404-2.459-0.628-3.813-0.628
			c-1.66,0-3.227,0.337-4.594,0.934c-2.369-2.566-6.543-4.268-11.295-4.268c-3.543,0-6.764,0.947-9.156,2.49
			c-1.43-0.245-2.973-0.385-4.58-0.404c0.009-0.14,0.014-0.278,0.014-0.42c0-5.983-7.762-10.834-17.334-10.834
			c-8.637,0-15.797,3.949-17.117,9.115c-1.094-0.236-2.259-0.363-3.468-0.363c-2.26,0-4.368,0.444-6.149,1.214
			c0.006-0.127,0.01-0.254,0.01-0.381c0-8.516-14.47-15.419-32.32-15.419c-17.85,0-32.322,6.904-32.322,15.419
			c0,8.516,14.473,15.42,32.322,15.42c2.678,0,5.277-0.156,7.765-0.448c0,0.009,0,0.021,0,0.031c0,5.525,8.568,10.001,19.14,10.001
			c5.031,0,9.609-1.015,13.025-2.674c1.412,3.778,4.668,6.425,8.462,6.425c5.085,0,9.208-4.757,9.208-10.626
			c0-2.328-0.646-4.477-1.746-6.228c1.035,0.121,2.102,0.183,3.191,0.183c1.775,0,3.492-0.167,5.107-0.477
			c2.502,1.79,6.882,2.979,11.865,2.979c1.222,0,2.407-0.071,3.537-0.206c2.444,2.154,6.26,3.539,10.547,3.539
			c1.136,0,2.238-0.098,3.291-0.281c-0.026,0.162-0.04,0.326-0.04,0.491c0,2.416,2.829,4.374,6.319,4.374
			c3.113,0,5.701-1.56,6.223-3.612c2.784,6.197,11.153,10.699,21.044,10.699c6.554,0,12.44-1.979,16.476-5.117
			c3.023,2.185,6.598,3.449,10.426,3.449c2.771,0,5.404-0.66,7.793-1.851c-0.018,0.335-0.027,0.675-0.027,1.018
			c0,8.977,6.306,16.253,14.086,16.253c5.338,0,9.987-3.431,12.375-8.488c0.953,2.774,3.299,4.738,6.042,4.738
			c2.919,0,5.39-2.222,6.209-5.281c0.164,0.046,0.335,0.089,0.509,0.136c0.104,0.093,0.213,0.143,0.322,0.143
			c0.053,0,0.102-0.012,0.148-0.032c3.406,0.781,8.707,1.283,14.66,1.283c10.271,0,18.598-1.494,18.598-3.334
			c0-1.841-8.326-3.334-18.598-3.334c-5.221,0-9.936,0.385-13.313,1.004c0.085-0.882,0.132-1.856,0.132-2.881
			c0-4.027-0.727-7.293-1.627-7.293c-0.895,0-1.623,3.266-1.623,7.293c0,0.223,0.002,0.442,0.007,0.66
			c-1.129-1.969-3.038-3.285-5.222-3.361c1.793-1.851,2.939-4.433,3.039-7.308c2.213-0.268,4.289-0.775,6.151-1.48
			c2.484,3.078,6.171,5.03,10.288,5.03c2.309,0,4.482-0.613,6.384-1.695c0.759,0.915,1.823,1.487,3.005,1.487
			c1.934,0,3.559-1.523,4.02-3.586c4.563-0.307,8.249-2.193,9.253-4.65c0.665,0.072,1.362,0.111,2.077,0.111
			c0.885,0,1.74-0.059,2.547-0.169c0.277,1.911,3.729,3.474,8.25,3.839c1.607,4.003,4.9,6.749,8.704,6.749
			c1.192,0,2.334-0.27,3.388-0.763c2.016,3,5.167,4.93,8.71,4.93c5.032,0,9.279-3.896,10.595-9.217
			c0.544,0.032,1.107,0.049,1.684,0.049c2.225,0,4.248-0.251,5.762-0.665c1.803,0.945,3.984,1.499,6.335,1.499
			c1.323,0,2.591-0.176,3.769-0.497c0.766,3.368,4.284,5.913,8.512,5.913c3.102,0,5.822-1.369,7.352-3.431
			c1.957,0.869,4.109,1.348,6.371,1.348c1.362,0,2.687-0.175,3.951-0.503c0.658,0.058,1.326,0.088,2.007,0.088
			c2.136,0,4.161-0.289,5.98-0.805c0.8,1.292,1.977,2.253,3.347,2.665c2.355,2.796,6.107,4.87,10.527,5.682
			c1.412,2.481,3.879,4.127,6.689,4.127c3.52,0,6.506-2.583,7.549-6.158c1.578-0.841,2.958-1.876,4.078-3.056
			c0.396-0.029,0.781-0.069,1.162-0.124c0.057,0.153,0.113,0.304,0.173,0.455c-0.204,0.601-0.323,1.284-0.323,2.006
			c0,2.417,1.296,4.375,2.888,4.375c0.403,0,0.784-0.125,1.134-0.348c3.208,3.559,7.664,5.765,12.591,5.765
			c4.769,0,9.097-2.064,12.276-5.422c3.508-0.106,6.674-1.771,9.006-4.414c1.977,0.956,4.266,1.502,6.706,1.502
			c1.405,0,2.759-0.181,4.034-0.517c3.033,1.817,8.26,3.017,14.203,3.017c9.374,0,16.974-2.984,16.974-6.667
			c0-3.644-7.438-6.605-16.675-6.667c0.895-0.31,1.748-0.701,2.551-1.162c4.143,1.249,9.357,1.993,15.025,1.993
			c1.287,0,2.545-0.039,3.773-0.111c-1.363,1.618-2.146,3.509-2.146,5.529c0,5.984,6.868,10.835,15.347,10.835
			c7.864,0,14.346-4.175,15.243-9.556c2.318,0.508,5.08,0.804,8.051,0.804c8.176,0,14.807-2.239,14.807-5
			C8952.043,432.077,8949.035,430.453,8944.571,429.592z"/>
		<path fill="#F44141" d="M8421.529,416.288c10.689,9.322,25.297,13.258,37.818,9.206c5.164,9.748,32.963,16.699,40.777,12.651
			c5.268-2.731,4.285-6.559,3.412-13.113c3.559-1.779,4.126-1.584,6.881-5.578c-2.887,0.506-7.354,1.862-10.846,2.488
			c-3.621,22.944-47.738,3.794-60.793-0.225c-7.446-2.292-10.434-1.732-13.443-11.511c-4.887,1.996-2.812,4.423-2.353,8.555"/>
		<path fill="#F44141" d="M8561.662,424.32c-7.779,23.871,29.68,11.649,38.939,12.424c5.967,0.499,9.775,1.823,15.754-0.625
			c0.874,16.373,14.438,16.599,21.869,5.592c-10.423,8.482-20.203,1.629-14.063-13.589c-11.557,7.079-44.025,11.211-56.174,7.991
			c-6.246-1.655-1.375-11.875,0.412-15.373c-5.582,0.522-6.682,4.505-9.646,9.14"/>
		<path fill="#F44141" d="M8659.125,416.906c-3.137,13.202,2.795,18.49,12.084,11.216c-8.107,1.933-12.602-7.19-13.539-10.598"/>
		<path fill="#F44141" d="M8712.463,432.969c8.9,6.27,16.389,3.532,14.547-9.973c-4.91,14.313-17.832,11.291-25.238,2.744
			C8703.486,437.351,8706.865,431.529,8712.463,432.969"/>
		<path fill="#F44141" d="M8751.739,425.555c1.661,8.824,1.822,13.369,11.681,8c-6.358-1.784-9.123-7.099-11.681-9.235"/>
		<path fill="#F44141" d="M8778.408,431.733c1.967-4.22,6.195-5.071,6.91-11.675c1.895,13.996,12.274,21.274,21.354,11.815
			c0.129-0.171,0.26-0.341,0.393-0.513c-0.133,0.176-0.266,0.347-0.403,0.513c-6.196,11.258-16.789,12.099-22.53-0.049
			c-8.565,3.283-9.952,3.906-15.808-3.737c4.411,5.978,7.472,2.611,12.022,3.646"/>
		<path fill="#F44141" d="M8811.863,411.964c-0.158,5.856-4.675,9.649,4.205,12.37c0.668-7.414,0.722-7.233,3.139-14.256
			c-3.125-0.814-5.935,0.715-8.797,3.121"/>
		<path fill="#F44141" d="M8822.047,441c9.256,9.728,22.482,6.396,26.113-8.584c-7.357,7.624-16.834,10.477-26.037,7.442
			c0.295,3.547,1.852,2.344,3.805,4.232"/>
		<path fill="#F44141" d="M8857.445,437.912c8.889,1.386,19.747,6.187,27.951-1.883c-10.452,4.187-19.264-1.107-29.408,2.501"/>
		<path fill="#F44141" d="M8892.84,429.88c3.104-0.377,6.473-0.017,9.543,0.125c-2.665,18.101,15.233,19.239,21.574,6.13
			c2.785-1.872,3.666-0.577,6.645-4.291c-9.867,1.61-26.693,18.577-24.739-4.82c-2.942-0.069-9.583-0.094-12.56,0.972
			c-3.027,2.907,1.1,3.402,0.995,3.736"/>
		<path fill="#F44141" d="M8861.809,421.231c-1.083,4.11-2.51,6.279-0.037,10.377c-7.449-5.082-1.486-6.566,0.521-12.231"/>
		<path fill="#F44141" d="M8788.105,407.64c-1.131,0.646-1.306,5.084-1.324,6.097c-0.234-9.7-1.291-4.942,3.697-12.15
			c-0.986,1.391-2.258,4.63-1.402,6.671"/>
		<path fill="#EA4147" d="M8696.461,403.932c0.152,3.943-2.596,6.938,1.406,12.247c-7.646-3.542-3.787-7.565-4.316-14.1"/>
		<path fill="#EA4147" d="M8759.981,417.524c4.483-4.217,5.827-9.497,12.569-10.365c-9.135-3.499-9.955,1.769-13.537,9.129"/>
		<path fill="#EA4147" d="M8845.322,417.524c-2.587,0.458-4.16-0.069-5.322,3.476c-6.184-5.533-12.236-5.59-18.822,0.167
			c3.861-10.446,13.534-9.241,21.724-4.261"/>
		<path fill="#EA4147" d="M8877.811,411.346c-4.723,1.854-9.279,0.289-13.503,4.85c0.017-0.08-0.097-2.994-0.108-2.996
			c4.279-5.812,7.236-2.945,12.643-3.707"/>
		<path fill="#EA4147" d="M8455.953,406.404c6.147,1.34,10.936,0.813,15.506,9.205c0.01-0.049,1.707-2.628,1.855-2.533
			c-2.57-8.909-8.423-10.292-15.906-7.291"/>
		<path fill="#EA4147" d="M8508.809,407.64c5.789,2.08,10.221,0.056,13.006,9.203c-7.229-6.798-15.543-7.499-23.624-3.104
			c4.396-5.895,8.987-4.62,14.495-5.481"/>
		<path fill="#EA4147" d="M8536.932,419.378c4.236-0.479,6.703-2.766,10.16,1.323c5.334-1.358,5.561-2.057,10.736-0.706
			C8550.934,424.448,8543.238,422.867,8536.932,419.378"/>
		<path fill="#EA4147" d="M8606.271,400.843c-2.158,7.357,0.986,8.8,10.592,7.426c-2.221-6.269-6.064-5.428-11.078-6.807"/>
	</g>
</g>
</svg>
