<?xml version="1.0" encoding="UTF-8" standalone="no"?>
<!-- Generator: Adobe Illustrator 16.0.0, SVG Export Plug-In . SVG Version: 6.00 Build 0)  -->

<svg
   xmlns:dc="http://purl.org/dc/elements/1.1/"
   xmlns:cc="http://creativecommons.org/ns#"
   xmlns:rdf="http://www.w3.org/1999/02/22-rdf-syntax-ns#"
   xmlns:svg="http://www.w3.org/2000/svg"
   xmlns="http://www.w3.org/2000/svg"
   xmlns:sodipodi="http://sodipodi.sourceforge.net/DTD/sodipodi-0.dtd"
   xmlns:inkscape="http://www.inkscape.org/namespaces/inkscape"
   version="1.1"
   x="0px"
   y="0px"
   width="11143px"
   height="1080px"
   viewBox="0 0 11143 1080"
   enable-background="new 0 0 11143 1080"
   xml:space="preserve"
   id="svg4866"
   inkscape:version="0.48.2 r9819"
   sodipodi:docname="mountain.svg">
<metadata
   id="metadata4875">
<rdf:RDF>
<cc:Work
   rdf:about="">
<dc:format>image/svg+xml</dc:format>
<dc:type
   rdf:resource="http://purl.org/dc/dcmitype/StillImage" />
<dc:title>
</dc:title>
</cc:Work>
</rdf:RDF>
</metadata>
<defs
   id="defs4873" />
<sodipodi:namedview
   pagecolor="#ffffff"
   bordercolor="#666666"
   borderopacity="1"
   objecttolerance="10"
   gridtolerance="10"
   guidetolerance="10"
   inkscape:pageopacity="0"
   inkscape:pageshadow="2"
   inkscape:window-width="1089"
   inkscape:window-height="710"
   id="namedview4871"
   showgrid="false"
   inkscape:zoom="0.25271471"
   inkscape:cx="9516.9053"
   inkscape:cy="117.3431"
   inkscape:window-x="119"
   inkscape:window-y="1"
   inkscape:window-maximized="0"
   inkscape:current-layer="layer20" />

<g xmlns="http://www.w3.org/2000/svg" inkscape:groupmode="layer" xmlns:inkscape="http://www.inkscape.org/namespaces/inkscape" id="layer12" inkscape:label="Cloud2" style="display:inline">
<g id="Cloud">
<g id="g5702">
<path style="fill:#ffffff" inkscape:connector-curvature="0" d="m 8944.571,429.592 c 0.164,-0.413 0.248,-0.842 0.248,-1.28 0,-3.568 -5.659,-6.46 -12.64,-6.46 -6,0 -11.022,2.138 -12.318,5.004 -0.457,-0.136 -0.93,-0.256 -1.412,-0.361 1.848,-1.319 2.895,-2.83 2.895,-4.435 0,-5.177 -10.91,-9.376 -24.375,-9.376 -3.165,0 -6.189,0.231 -8.961,0.654 -1.998,-5.24 -7.334,-8.99 -13.609,-8.99 -7.977,0 -14.443,6.064 -14.443,13.544 0,0.218 0.01,0.435 0.017,0.649 -1.636,0.09 -3.189,0.424 -4.616,0.961 -2.443,-3.641 -6.269,-5.986 -10.568,-5.986 -0.934,0 -1.842,0.11 -2.719,0.319 -2.051,-1.367 -4.375,-2.292 -6.862,-2.651 -0.104,-0.088 -0.21,-0.177 -0.321,-0.264 -0.986,-4.426 -6.768,-7.824 -13.753,-7.824 -7.677,0 -13.901,4.104 -13.901,9.169 0,0.022 0,0.045 0,0.067 -0.938,-2.281 -2.719,-4.075 -4.922,-4.934 -0.306,-0.706 -0.654,-1.356 -1.043,-1.941 0.12,-0.828 0.186,-1.688 0.186,-2.568 0,-6.791 -3.802,-12.295 -8.487,-12.295 -4.687,0 -8.487,5.504 -8.487,12.295 0,1.678 0.231,3.277 0.654,4.736 -0.479,0.135 -0.945,0.288 -1.404,0.457 -2.979,-3.804 -7.52,-6.235 -12.611,-6.235 -8.977,0 -16.252,7.557 -16.252,16.878 0,0.277 0.01,0.555 0.021,0.829 -1.916,-2.607 -5.574,-4.371 -9.772,-4.371 -6.181,0 -11.193,3.825 -11.193,8.544 0,0.961 0.207,1.885 0.59,2.748 -0.483,-0.026 -0.983,-0.04 -1.493,-0.04 -0.453,0 -0.898,0.011 -1.334,0.032 -0.156,-1.64 -0.587,-3.183 -1.231,-4.574 1.057,-2.093 1.663,-4.527 1.663,-7.126 0,-7.824 -5.498,-14.169 -12.277,-14.169 -0.652,0 -1.295,0.06 -1.917,0.172 -2.025,-6.652 -7.515,-11.423 -13.974,-11.423 -8.18,0 -14.807,7.65 -14.807,17.087 0,4.519 1.521,8.627 4.004,11.682 -1.207,-0.275 -2.566,-0.431 -4.004,-0.431 -2.938,0 -5.547,0.648 -7.195,1.651 -1.225,-0.396 -2.599,-0.665 -4.064,-0.768 -0.669,-7.28 -6.447,-12.968 -13.479,-12.968 -3.689,0 -7.031,1.566 -9.475,4.107 -3.01,-1.277 -6.648,-2.023 -10.566,-2.023 -7.781,0 -14.454,2.938 -17.305,7.128 -0.248,-0.029 -0.498,-0.044 -0.752,-0.044 -0.84,0 -1.646,0.161 -2.402,0.451 -1.461,-10.877 -9.611,-19.204 -19.449,-19.204 -9.227,0 -16.97,7.33 -19.1,17.218 -0.099,0.118 -0.196,0.238 -0.291,0.359 -2.344,-0.586 -4.875,-0.907 -7.511,-0.907 -5.933,0 -11.317,1.62 -15.277,4.253 -0.634,0.033 -1.255,0.075 -1.858,0.125 -1.17,-0.404 -2.459,-0.628 -3.813,-0.628 -1.66,0 -3.227,0.337 -4.594,0.934 -2.369,-2.566 -6.543,-4.268 -11.295,-4.268 -3.543,0 -6.764,0.947 -9.156,2.49 -1.43,-0.245 -2.973,-0.385 -4.58,-0.404 0.01,-0.14 0.014,-0.278 0.014,-0.42 0,-5.983 -7.762,-10.834 -17.334,-10.834 -8.637,0 -15.797,3.949 -17.117,9.115 -1.094,-0.236 -2.259,-0.363 -3.468,-0.363 -2.26,0 -4.368,0.444 -6.149,1.214 0.01,-0.127 0.01,-0.254 0.01,-0.381 0,-8.516 -14.47,-15.419 -32.32,-15.419 -17.85,0 -32.322,6.904 -32.322,15.419 0,8.516 14.473,15.42 32.322,15.42 2.678,0 5.277,-0.156 7.765,-0.448 0,0.009 0,0.021 0,0.031 0,5.525 8.568,10.001 19.14,10.001 5.031,0 9.609,-1.015 13.025,-2.674 1.412,3.778 4.668,6.425 8.462,6.425 5.085,0 9.208,-4.757 9.208,-10.626 0,-2.328 -0.646,-4.477 -1.746,-6.228 1.035,0.121 2.102,0.183 3.191,0.183 1.775,0 3.492,-0.167 5.107,-0.477 2.502,1.79 6.882,2.979 11.865,2.979 1.222,0 2.407,-0.071 3.537,-0.206 2.444,2.154 6.26,3.539 10.547,3.539 1.136,0 2.238,-0.098 3.291,-0.281 -0.026,0.162 -0.04,0.326 -0.04,0.491 0,2.416 2.829,4.374 6.319,4.374 3.113,0 5.701,-1.56 6.223,-3.612 2.784,6.197 11.153,10.699 21.044,10.699 6.554,0 12.44,-1.979 16.476,-5.117 3.023,2.185 6.598,3.449 10.426,3.449 2.771,0 5.404,-0.66 7.793,-1.851 -0.018,0.335 -0.027,0.675 -0.027,1.018 0,8.977 6.306,16.253 14.086,16.253 5.338,0 9.987,-3.431 12.375,-8.488 0.953,2.774 3.299,4.738 6.042,4.738 2.919,0 5.39,-2.222 6.209,-5.281 0.164,0.046 0.335,0.089 0.509,0.136 0.104,0.093 0.213,0.143 0.322,0.143 0.053,0 0.102,-0.012 0.148,-0.032 3.406,0.781 8.707,1.283 14.66,1.283 10.271,0 18.598,-1.494 18.598,-3.334 0,-1.841 -8.326,-3.334 -18.598,-3.334 -5.221,0 -9.936,0.385 -13.313,1.004 0.085,-0.882 0.132,-1.856 0.132,-2.881 0,-4.027 -0.727,-7.293 -1.627,-7.293 -0.895,0 -1.623,3.266 -1.623,7.293 0,0.223 0,0.442 0.01,0.66 -1.129,-1.969 -3.038,-3.285 -5.222,-3.361 1.793,-1.851 2.939,-4.433 3.039,-7.308 2.213,-0.268 4.289,-0.775 6.151,-1.48 2.484,3.078 6.171,5.03 10.288,5.03 2.309,0 4.482,-0.613 6.384,-1.695 0.759,0.915 1.823,1.487 3.005,1.487 1.934,0 3.559,-1.523 4.02,-3.586 4.563,-0.307 8.249,-2.193 9.253,-4.65 0.665,0.072 1.362,0.111 2.077,0.111 0.885,0 1.74,-0.059 2.547,-0.169 0.277,1.911 3.729,3.474 8.25,3.839 1.607,4.003 4.9,6.749 8.704,6.749 1.192,0 2.334,-0.27 3.388,-0.763 2.016,3 5.167,4.93 8.71,4.93 5.032,0 9.279,-3.896 10.595,-9.217 0.544,0.032 1.107,0.049 1.684,0.049 2.225,0 4.248,-0.251 5.762,-0.665 1.803,0.945 3.984,1.499 6.335,1.499 1.323,0 2.591,-0.176 3.769,-0.497 0.766,3.368 4.284,5.913 8.512,5.913 3.102,0 5.822,-1.369 7.352,-3.431 1.957,0.869 4.109,1.348 6.371,1.348 1.362,0 2.687,-0.175 3.951,-0.503 0.658,0.058 1.326,0.088 2.007,0.088 2.136,0 4.161,-0.289 5.98,-0.805 0.8,1.292 1.977,2.253 3.347,2.665 2.355,2.796 6.107,4.87 10.527,5.682 1.412,2.481 3.879,4.127 6.689,4.127 3.52,0 6.506,-2.583 7.549,-6.158 1.578,-0.841 2.958,-1.876 4.078,-3.056 0.396,-0.029 0.781,-0.069 1.162,-0.124 0.057,0.153 0.113,0.304 0.173,0.455 -0.204,0.601 -0.323,1.284 -0.323,2.006 0,2.417 1.296,4.375 2.888,4.375 0.403,0 0.784,-0.125 1.134,-0.348 3.208,3.559 7.664,5.765 12.591,5.765 4.769,0 9.097,-2.064 12.276,-5.422 3.508,-0.106 6.674,-1.771 9.006,-4.414 1.977,0.956 4.266,1.502 6.706,1.502 1.405,0 2.759,-0.181 4.034,-0.517 3.033,1.817 8.26,3.017 14.203,3.017 9.374,0 16.974,-2.984 16.974,-6.667 0,-3.644 -7.438,-6.605 -16.675,-6.667 0.895,-0.31 1.748,-0.701 2.551,-1.162 4.143,1.249 9.357,1.993 15.025,1.993 1.287,0 2.545,-0.039 3.773,-0.111 -1.363,1.618 -2.146,3.509 -2.146,5.529 0,5.984 6.868,10.835 15.347,10.835 7.864,0 14.346,-4.175 15.243,-9.556 2.318,0.508 5.08,0.804 8.051,0.804 8.176,0 14.807,-2.239 14.807,-5 -0.01,-1.863 -3.017,-3.487 -7.481,-4.348 z" id="path5704"/>
<path style="fill:#dbdbdb" inkscape:connector-curvature="0" d="m 8421.529,416.288 c 10.689,9.322 25.297,13.258 37.818,9.206 5.164,9.748 32.963,16.699 40.777,12.651 5.268,-2.731 4.285,-6.559 3.412,-13.113 3.559,-1.779 4.126,-1.584 6.881,-5.578 -2.887,0.506 -7.354,1.862 -10.846,2.488 -3.621,22.944 -47.738,3.794 -60.793,-0.225 -7.446,-2.292 -10.434,-1.732 -13.443,-11.511 -4.887,1.996 -2.812,4.423 -2.353,8.555" id="path5706"/>
<path style="fill:#dbdbdb" inkscape:connector-curvature="0" d="m 8561.662,424.32 c -7.779,23.871 29.68,11.649 38.939,12.424 5.967,0.499 9.775,1.823 15.754,-0.625 0.874,16.373 14.438,16.599 21.869,5.592 -10.423,8.482 -20.203,1.629 -14.063,-13.589 -11.557,7.079 -44.025,11.211 -56.174,7.991 -6.246,-1.655 -1.375,-11.875 0.412,-15.373 -5.582,0.522 -6.682,4.505 -9.646,9.14" id="path5708"/>
<path style="fill:#dbdbdb" inkscape:connector-curvature="0" d="m 8659.125,416.906 c -3.137,13.202 2.795,18.49 12.084,11.216 -8.107,1.933 -12.602,-7.19 -13.539,-10.598" id="path5710"/>
<path style="fill:#dbdbdb" inkscape:connector-curvature="0" d="m 8712.463,432.969 c 8.9,6.27 16.389,3.532 14.547,-9.973 -4.91,14.313 -17.832,11.291 -25.238,2.744 1.714,11.611 5.093,5.789 10.691,7.229" id="path5712"/>
<path style="fill:#dbdbdb" inkscape:connector-curvature="0" d="m 8751.739,425.555 c 1.661,8.824 1.822,13.369 11.681,8 -6.358,-1.784 -9.123,-7.099 -11.681,-9.235" id="path5714"/>
<path style="fill:#dbdbdb" inkscape:connector-curvature="0" d="m 8778.408,431.733 c 1.967,-4.22 6.195,-5.071 6.91,-11.675 1.895,13.996 12.274,21.274 21.354,11.815 0.129,-0.171 0.26,-0.341 0.393,-0.513 -0.133,0.176 -0.266,0.347 -0.403,0.513 -6.196,11.258 -16.789,12.099 -22.53,-0.049 -8.565,3.283 -9.952,3.906 -15.808,-3.737 4.411,5.978 7.472,2.611 12.022,3.646" id="path5716"/>
<path style="fill:#dbdbdb" inkscape:connector-curvature="0" d="m 8811.863,411.964 c -0.158,5.856 -4.675,9.649 4.205,12.37 0.668,-7.414 0.722,-7.233 3.139,-14.256 -3.125,-0.814 -5.935,0.715 -8.797,3.121" id="path5718"/>
<path style="fill:#dbdbdb" inkscape:connector-curvature="0" d="m 8822.047,441 c 9.256,9.728 22.482,6.396 26.113,-8.584 -7.357,7.624 -16.834,10.477 -26.037,7.442 0.295,3.547 1.852,2.344 3.805,4.232" id="path5720"/>
<path style="fill:#dbdbdb" inkscape:connector-curvature="0" d="m 8857.445,437.912 c 8.889,1.386 19.747,6.187 27.951,-1.883 -10.452,4.187 -19.264,-1.107 -29.408,2.501" id="path5722"/>
<path style="fill:#dbdbdb" inkscape:connector-curvature="0" d="m 8892.84,429.88 c 3.104,-0.377 6.473,-0.017 9.543,0.125 -2.665,18.101 15.233,19.239 21.574,6.13 2.785,-1.872 3.666,-0.577 6.645,-4.291 -9.867,1.61 -26.693,18.577 -24.739,-4.82 -2.942,-0.069 -9.583,-0.094 -12.56,0.972 -3.027,2.907 1.1,3.402 0.995,3.736" id="path5724"/>
<path style="fill:#dbdbdb" inkscape:connector-curvature="0" d="m 8861.809,421.231 c -1.083,4.11 -2.51,6.279 -0.037,10.377 -7.449,-5.082 -1.486,-6.566 0.521,-12.231" id="path5726"/>
<path style="fill:#dbdbdb" inkscape:connector-curvature="0" d="m 8788.105,407.64 c -1.131,0.646 -1.306,5.084 -1.324,6.097 -0.234,-9.7 -1.291,-4.942 3.697,-12.15 -0.986,1.391 -2.258,4.63 -1.402,6.671" id="path5728"/>
<path style="fill:#b9daed" inkscape:connector-curvature="0" d="m 8696.461,403.932 c 0.152,3.943 -2.596,6.938 1.406,12.247 -7.646,-3.542 -3.787,-7.565 -4.316,-14.1" id="path5730"/>
<path style="fill:#b9daed" inkscape:connector-curvature="0" d="m 8759.981,417.524 c 4.483,-4.217 5.827,-9.497 12.569,-10.365 -9.135,-3.499 -9.955,1.769 -13.537,9.129" id="path5732"/>
<path style="fill:#b9daed" inkscape:connector-curvature="0" d="m 8845.322,417.524 c -2.587,0.458 -4.16,-0.069 -5.322,3.476 -6.184,-5.533 -12.236,-5.59 -18.822,0.167 3.861,-10.446 13.534,-9.241 21.724,-4.261" id="path5734"/>
<path style="fill:#b9daed" inkscape:connector-curvature="0" d="m 8877.811,411.346 c -4.723,1.854 -9.279,0.289 -13.503,4.85 0.017,-0.08 -0.097,-2.994 -0.108,-2.996 4.279,-5.812 7.236,-2.945 12.643,-3.707" id="path5736"/>
<path style="fill:#b9daed" inkscape:connector-curvature="0" d="m 8455.953,406.404 c 6.147,1.34 10.936,0.813 15.506,9.205 0.01,-0.049 1.707,-2.628 1.855,-2.533 -2.57,-8.909 -8.423,-10.292 -15.906,-7.291" id="path5738"/>
<path style="fill:#b9daed" inkscape:connector-curvature="0" d="m 8508.809,407.64 c 5.789,2.08 10.221,0.056 13.006,9.203 -7.229,-6.798 -15.543,-7.499 -23.624,-3.104 4.396,-5.895 8.987,-4.62 14.495,-5.481" id="path5740"/>
<path style="fill:#b9daed" inkscape:connector-curvature="0" d="m 8536.932,419.378 c 4.236,-0.479 6.703,-2.766 10.16,1.323 5.334,-1.358 5.561,-2.057 10.736,-0.706 -6.894,4.453 -14.59,2.872 -20.896,-0.617" id="path5742"/>
<path style="fill:#b9daed" inkscape:connector-curvature="0" d="m 8606.271,400.843 c -2.158,7.357 0.986,8.8 10.592,7.426 -2.221,-6.269 -6.064,-5.428 -11.078,-6.807" id="path5744"/>
</g>
</g>
</g></svg>