<?xml version="1.0" encoding="UTF-8" standalone="no"?>
<!-- Generator: Adobe Illustrator 16.0.0, SVG Export Plug-In . SVG Version: 6.00 Build 0)  -->

<svg
   xmlns:dc="http://purl.org/dc/elements/1.1/"
   xmlns:cc="http://creativecommons.org/ns#"
   xmlns:rdf="http://www.w3.org/1999/02/22-rdf-syntax-ns#"
   xmlns:svg="http://www.w3.org/2000/svg"
   xmlns="http://www.w3.org/2000/svg"
   xmlns:sodipodi="http://sodipodi.sourceforge.net/DTD/sodipodi-0.dtd"
   xmlns:inkscape="http://www.inkscape.org/namespaces/inkscape"
   version="1.1"
   x="0px"
   y="0px"
   width="11143px"
   height="1080px"
   viewBox="0 0 11143 1080"
   enable-background="new 0 0 11143 1080"
   xml:space="preserve"
   id="svg4866"
   inkscape:version="0.48.2 r9819"
   sodipodi:docname="mountain.svg">
<metadata
   id="metadata4875">
<rdf:RDF>
<cc:Work
   rdf:about="">
<dc:format>image/svg+xml</dc:format>
<dc:type
   rdf:resource="http://purl.org/dc/dcmitype/StillImage" />
<dc:title>
</dc:title>
</cc:Work>
</rdf:RDF>
</metadata>
<defs
   id="defs4873" />
<sodipodi:namedview
   pagecolor="#FF4C4C"
   bordercolor="#D11E1E"
   borderopacity="1"
   objecttolerance="10"
   gridtolerance="10"
   guidetolerance="10"
   inkscape:pageopacity="0"
   inkscape:pageshadow="2"
   inkscape:window-width="1089"
   inkscape:window-height="710"
   id="namedview4871"
   showgrid="false"
   inkscape:zoom="0.25271471"
   inkscape:cx="9516.9053"
   inkscape:cy="117.3431"
   inkscape:window-x="119"
   inkscape:window-y="1"
   inkscape:window-maximized="0"
   inkscape:current-layer="layer20" />

<g xmlns="http://www.w3.org/2000/svg" inkscape:groupmode="layer" xmlns:inkscape="http://www.inkscape.org/namespaces/inkscape" id="layer13" inkscape:label="Volcano" style="display:inline">
<g id="Volcano">
<g id="Layer_76">
<path fill="#B20000" style="fill:#E91C12" inkscape:connector-curvature="0" d="m 10215.938,90.197 24.042,11.916 c 0,0 -30.485,98.177 38.998,137.993 69.483,39.816 -82.496,18 -82.496,18 l -47.997,-31.499 67.453,-136.41" id="path5937"/>
<polyline fill="#B20000" style="fill:#E91C12" points="9965.493,58.615 9992.492,67.614 10023.99,99.113 9960.993,117.112 9965.3,53.803   " id="polyline5939"/>
<polyline fill="#B20000" style="fill:#E91C12" points="10073.264,92.219 10109.486,93.113 10151.484,121.612 10079.487,133.611 10073.264,92.219   " id="polyline5941"/>
<polyline fill="#B20000" style="fill:#E91C12" points="9747.004,76.044 9791.502,72.114 9839.5,87.113 9820,111.112 9733.005,103.612 9747.004,76.044       " id="polyline5943"/>
<path fill="#B20000" style="fill:#E91C12" inkscape:connector-curvature="0" d="m 10311.976,250.605 44.998,15 c 0,0 -40.498,43.498 8.999,67.497 49.498,23.999 -92.988,-18 -92.988,-18 l 2.993,-46.497 35.998,-18" id="path5945"/>
</g>
<path fill="#B20000" style="fill:#D81108" inkscape:connector-curvature="0" d="m 9518.535,274.185 c 0,0 130.214,-44.481 137.904,-173.879 l 48.41,-12.968 42.154,-11.293 75.797,12.131 45.479,-34.372 97.021,0 26.277,40.437 81.687,-2.021 35.547,26.284 67.311,-2.022 0,-26.285 39.816,0 c 0,0 -28.298,113.449 34.361,141.642 62.66,28.194 60.639,5.953 62.66,28.194 0,0 -11.117,52.568 55.584,121.311 66.702,68.743 -421.8267,-224.81663 -421.8267,-224.81663 z" id="path5947" sodipodi:nodetypes="cccccccccccccscscc" xmlns:sodipodi="http://sodipodi.sourceforge.net/DTD/sodipodi-0.dtd"/>
<polygon fill="#B20000" style="fill:#E4140F" points="9819.608,171.9 9827.29,100.157 9863.135,60.114 9896.42,61.782 9904.1,187.862 9851.614,208.606 " id="polygon5949"/>
<polygon fill="#B20000" style="fill:#E4140F" points="10087.047,112.111 10108.263,127.11 10161.302,125.61 10163.423,152.609 10170.771,157.109 10175.092,236.605 10110.384,244.104 10110.384,188.607 10090.229,178.108 " id="polygon5951"/>
<path fill="#B20000" style="fill:#E4140F" inkscape:connector-curvature="0" d="m 9720.789,164.609 c -19.852,-25.499 8.824,-76.496 8.824,-76.496 l -60.659,20.999 c -2.229,36.369 -14.337,71.996 -14.337,71.996 0,0 57.35,-11.999 66.172,-16.499 z" id="path5953"/>
<path fill="#B20000" style="fill:#D92A1C" d="m 9586.877,213 c -20.7365,-5.98902 -1.6647,-20.93631 11.4611,-16.6904 26.2496,-6.44426 40.4402,-38.43301 69.5652,-36.74768 29.0871,13.31433 55.4779,-10.60197 80.9205,-21.30025 13.8558,-9.81722 26.3006,3.62057 42.0332,-6.12669 15.7194,-2.67539 32.3028,-9.05542 37.5613,12.00373 14.8247,9.50569 34.52,14.1153 49.7859,15.00533 15.3585,-17.2164 33.1848,-39.46572 58.477,-36.59124 19.411,12.55603 42.7708,12.78206 60.5299,29.8633 14.4449,5.49943 27.8599,3.43634 40.8359,14.8394 6.187,-0.71869 3.894,11.89464 15.594,9.25689 4.816,9.19207 6.906,12.90338 17.474,12.63022 8.962,3.90056 42.778,-39.27277 53.843,-5.51761 15.726,4.63829 26.207,11.53255 41.341,2.66849 3.878,13.95238 34.919,2.51205 25.778,24.95436 7.751,2.89301 3.873,14.82882 19.014,13.93885 13.998,0.66995 26.597,10.36092 25.785,23.8133" id="path5955" inkscape:connector-curvature="0"/>
<path fill="#B20000" style="fill:#C0100D" inkscape:connector-curvature="0" d="m 10287.877,294 c 12.238,3.229 -0.234,-7.757 -4,-19 -4.592,-13.712 -8.307,-4.914 -16,-12 -14.048,-12.94 2.078,-12.821 -17,-20 -9.735,-3.663 -15.182,-9.261 -24.853,-14.151 -4.331,-12.555 -14.143,-6.658 -21.067,-13.065 -3.844,-3.556 -13.91,-0.85 -17.08,-6.783 -5.305,-9.931 -30.611,-28.855 -50,-11 3.494,-10.521 -1.57,-12.458 -11.977,-11.875 -6.84,-12.751 -24.691,-2.235 -25.354,11 -11.692,-1.998 -34.664,-18.404 -37.817,-8.276 -32.75,-1.774 -46.991,-10.401 -21.034,23.164 18.11,23.42 20.381,35.603 53.588,41.521 32.299,5.756 55.606,11.556 86.272,23.187 33.657,12.766 69.298,12.714 103.321,23.28" id="path5957"/>
<path fill="#B20000" style="fill:#C0100D" inkscape:connector-curvature="0" d="m 9606.877,221 c -26.299,-9.164 1.97,-20.064 -0.849,-34.071 1.822,-0.862 5.146,-0.102 6.745,-1.131 -2.031,-8.989 7.441,-24.686 18.724,-24.978 14.792,-0.383 16.595,24.233 25.531,8.328 23.439,-20.595 74.354,27.598 8.521,50.238 -18.064,6.212 -34.584,8.218 -53.672,5.615" id="path5959"/>
<path fill="#B20000" style="fill:#C0100D" inkscape:connector-curvature="0" d="m 10063.877,197 c -16.592,-27.581 -41.549,-36.492 -67.948,-21.096 -17.489,-5.454 -41.753,-16.581 -59.801,-7.051 -20.909,-1.382 -51.073,3.645 -70.052,18.02 -4.369,-9.098 -10.207,-29.077 -15.37,-14.956 -3.599,-9.239 -3.202,-6.794 -13.655,-9.091 -5.621,-10.103 -21.91,-12.704 -29.146,-5.125 -8.43,-13.728 -44.827,-7.802 -35.104,13.076 -7.344,6.79 -14.369,13.12 -23.745,15.844 6.153,-1.788 -13.439,-11.425 -15.024,-11.728 -6.228,-1.191 -14.54,6.681 -21.279,6.681 -9.965,0 -7.996,-10.479 -19.1,-7.987 -13.755,3.085 -22.623,20.077 -13.128,31.752 8.173,10.05 34.399,8.516 45.463,8.871 41.668,1.339 83.245,-3.823 124.86,-2.663 34.806,0.971 48.068,29.559 80.395,34.506 49.892,7.635 90.646,-18.527 137.635,-19.054" id="path5961"/>
<path fill="#B20000" style="fill:#DB160C" inkscape:connector-curvature="0" d="m 9521.646,274.744 c 20.175,-31.214 52.96,-65.726 52.96,-65.726 l 81.205,-6.553 57.609,-29.006 46.339,24.199 87.214,4.807 69.129,-29.006 109.928,9.333 63.047,35.645 120.043,9.125 152.324,98.095 63.048,11.406 138.706,171.875 -663.4658,-196.55836 -564.3762,169.01636 -78.511,-31.411 58.005,-84.581 68.091,-12.373 52.96,-11.407 z" id="path5963" sodipodi:nodetypes="cccccccccccccccccccc" xmlns:sodipodi="http://sodipodi.sourceforge.net/DTD/sodipodi-0.dtd"/>
<path fill="#B20000" style="fill:#E11C10" inkscape:connector-curvature="0" d="m 9718.613,183.608 c 0,0 -16.5,143.993 -20.999,143.993 -4.499,0 -124.493,13.5 -124.493,13.5 l 41.998,-95.995 35.998,-40.498 67.496,-21 z" id="path5965"/>
<polygon fill="#B20000" style="fill:#E11C10" points="9585.12,230.105 9538.622,342.6 9466.626,350.1 9576.121,216.606 " id="polygon5967"/>
<polyline fill="#B20000" style="fill:#E11C10" points="9831.006,291.603 9840,212.106 9910.496,183.608 9919.604,303.602 9831.006,291.603  " id="polyline5969"/>
<polygon fill="#B20000" style="fill:#D81108" points="10198.59,237.605 10189.59,338.1 10107.094,321.601 10108.594,230.105 " id="polygon5971"/>
<polygon fill="#B20000" style="fill:#E11C10" points="10356.081,404.097 10503.074,455.094 10417.471,342.6 10342.582,323.101 " id="polygon5973"/>
<polygon fill="#B20000" style="fill:#F83C29" points="9655.01,208.353 9592.013,210.519 9595.013,218.1 9640.01,222.433 9623.512,265.754 9656.51,219.183 9704.507,209.436 9712.007,192.107 " id="polygon5975"/>
<path fill="#B20000" style="fill:#F83C29" inkscape:connector-curvature="0" d="m 9557.515,246.105 c 0,0 -28.499,37.498 -32.999,40.498 -4.499,3 -79.496,59.997 -79.496,59.997 l -128.993,31.499 -29.999,49.498 16.5,13.5 26.998,-44.998 123,-38.998 80.99,-59.998 34.498,-44.998 -10.499,-6 z" id="path5977"/>
<path fill="#B20000" style="fill:#D81108" inkscape:connector-curvature="0" d="m 9764.504,216.106 41.998,17.999 c 0,0 -8.988,62.998 -1.494,56.998 7.494,-6 28.492,-74.997 28.492,-74.997 h -68.996 z" id="path5979"/>
<polygon fill="#B20000" style="fill:#E42113" points="10026.991,195.107 9914.496,187.608 9936.996,201.107 9938.495,289.603 9992.492,300.102 10004.492,222.106 " id="polygon5981"/>
<polygon fill="#B20000" style="fill:#E42113" points="10421.471,346.6 10451.47,396.097 10413.972,361.599 10368.974,342.1 " id="polygon5983"/>
</g>
<g id="FarGround_x5F_DRK_x5F_grass">
<path fill="#B20000" style="fill:#C0100D" d="m 9212.537,471.094 c 8.1202,-14.59377 16.9058,-26.85483 32.998,-13.499 -2.1264,-17.56838 9.6836,-25.48899 24.2888,-31.47447 24.0268,4.17384 47.1489,-3.79837 61.8919,-23.61689 12.4807,-7.93351 29.037,-3.03593 36.9045,-18.49786 19.4976,-13.88736 46.4385,-12.13913 68.9653,-21.16254 20.2595,-4.94871 32.7027,-22.94216 46.4375,-37.24524 -7.3904,25.64038 13.5992,13.98889 24.937,3.1875 9.2229,17.12663 33.2648,-12.33123 41.9974,-2.0625 20.1356,-8.05189 41.6711,-31.53227 64.4736,-23.17969 26.2911,10.03197 49.7382,-18.22516 75.0195,-7.38281 23.3706,6.581 50.1311,-5.35347 72.5585,6.9375 28.7106,-10.25272 56.7765,-11.99994 84.5376,-11.78583 34.4457,13.38848 67.1364,-12.93601 99.1136,-4.25371 27.5601,17.0749 51.125,-6.76033 72.8358,-21.46046 10.568,-22.02375 38.002,12.62225 53.861,22.36248 24.254,5.72097 42.455,29.98406 66.953,22.89433 24.229,-11.79695 45.32,9.66482 69.317,11.89007 36.874,8.70208 17.815,-47.65115 -1.328,-58.83338 6.454,-30.78483 34.375,12.59057 41.837,27.82847 13.564,18.33991 34.211,36.29431 58.845,32.35603 19.366,19.05087 34.643,38.68316 61.613,48.88878 6.253,12.97283 61.744,38.73321 31.183,40.2022 -396.413,19.30234 -792.8265,38.60468 -1189.24,57.90702 z" id="path6412" inkscape:connector-curvature="0"/>
<path fill="#B20000" style="fill:#C0100D" d="m 9843.1875,296.625 c -391.7734,0 -474.4798,110.83995 -694.5313,196.53125 l 0,242.59375 1677.7818,0 0,-128.875 c -280.871,-114.43572 -458.211,-310.25 -983.2505,-310.25 z" id="path6416" inkscape:connector-curvature="0"/>
<path fill="#B20000" style="fill:#BD0D0A" inkscape:connector-curvature="0" d="m 9864,395 c 20.975,-10.162 60.391,-47.175 40.754,-66.548 26.044,-18.322 64.096,-24.324 92.596,-41.142 -5.284,4.338 -9.056,10.886 -13.189,15.435 18.195,-4.22 27.331,-24.571 44.078,-30.997 -6.674,9.342 -11.547,19.976 -14.039,30.951 9.752,0.437 19.85,0.167 29.602,0.604 -1.987,3.729 -1.929,10.092 -3.498,13.349 4.479,0.14 8.281,2.945 13.349,2.697 5.817,15.843 16.032,32.018 27.896,43.492 1.182,-5.626 4.261,-9.881 4.844,-15.634 9.546,10.6 5.679,30.592 5.505,45.189 9.514,-47.883 54.879,-70.943 97.943,-68.997 -14.352,9.354 -33.676,15.41 -47.235,27.299 14.36,-2.777 29.609,-9.057 44.791,-9.84 -11.171,7.973 -21.739,19.495 -27.189,31.84 5.219,-1.168 12.18,1.406 17.491,0.612 -1.623,8.677 0.03,15.688 -5.537,23.388 14.385,-4.037 36.307,-19.358 40.188,1.947 38.18,-4.85 23.079,-76.103 15.509,-96.969 6.713,21.696 17.155,48.609 27.647,68.706 1.737,-7.075 6.242,-13.474 6.894,-21.214 1.584,2.124 5.974,5.687 7.602,8.072 24.862,-18.02 33.143,17.638 40.421,34.396 9.89,22.769 45.212,56.44 40.878,81.063 -39.443,2.635 -85.729,-14.435 -123.299,-23.698" id="path6418"/>
<path fill="#B20000" style="fill:#BD0D0A" inkscape:connector-curvature="0" d="m 9602,359 c 12.34,-4.013 27.012,-12.607 22.747,-27.698 8.318,-2.126 16.338,-5.396 22.744,-6.501 1.05,-9.53 3.786,-19.175 8.857,-27.452 14.712,-1.691 23.401,11.565 17.851,24.84 11.603,-5.968 22.697,-14.464 21.801,-28.577 -0.576,10.754 -3.697,21.77 -7.246,31.531 31.633,-4.301 39.037,9.295 70.642,14 -12.439,-4.806 -23.481,-13.316 -28.681,-25.826 37.715,6.917 86.652,8.005 124.681,-0.014 -23.069,22.604 -58.965,18.786 -86.791,31.641 18.188,5.333 37.859,3.403 56.784,4.463 -34.467,23.747 -80.701,11.487 -118.327,9.607 -13.976,-0.699 -33.288,-1.331 -45.994,4.093 -15.526,6.628 -21.875,19.809 -41.157,21.649 -7.788,-8.378 -19.811,-7.182 -29.797,-2.548 13.916,-8.298 29.313,-13.264 43.379,-21.399 -12.881,4.711 -25.301,12.843 -33.492,0.193" id="path6420"/>
<path fill="#B20000" style="fill:#BD0D0A" inkscape:connector-curvature="0" d="m 9480,349 c -8.957,10.841 -15.186,30.52 -13.697,45.744 15.468,-3.511 24.686,-20.072 41.441,-19.442 -0.902,3.335 -0.738,7.978 -1.435,11.388 0.954,0.288 7.677,-0.502 7.342,-0.897 10.792,8.953 40.606,13.917 44.847,-6.594 17.426,28.634 -50.62,41.316 -68.563,39.681 -18.336,-1.671 -31.151,-16.995 -48.29,-15.748 -9.998,0.728 -33.934,18.766 -41.931,25.821 30.473,16.303 17.33,35.935 50.023,34.338 23.268,-1.136 44.799,-18.106 68.08,-16.538 10.391,0.7 19.154,9.851 28.592,10.325 15.814,0.793 30.097,-9.229 44.273,-15.516 29.236,-12.965 59.619,-23.702 87.149,-40.208 -28.481,9.344 -61.204,13.538 -82.507,-2.269 -12.99,-9.639 -25.26,-29.989 -33.675,-43.784 -25.745,9.279 -29.312,18.394 -47.097,-10.143 -2.38,4.249 -6.735,7.414 -8.953,11.545 -10.952,2.555 -23.34,1.393 -31.602,-7.705" id="path6422"/>
</g>
<g id="FarGround_x5F_LT_x5F_grass">
<g id="g6526">
<path fill="#B20000" style="fill:#C41912" d="m 10006.406,371.4375 c -17.4296,0.0432 -36.2985,2.29262 -57.4998,7.8125 -93.9405,20.9563 -206.5747,14.98512 -292.0937,71.46875 -106.8187,29.78546 -243.0902,57.0055 -357.875,95.5625 -47.1142,15.13719 -94.5977,29.12225 -142.375,41.9375 l 0,139.59375 1590.7495,0 0,-57.03125 c -55.003,-26.56419 -107.896,-58.28803 -157.968,-96.15625 -101.534,-89.63679 -292.786,-103.82007 -335.469,-169.1875 -113.23,16.81889 -163.487,-34.20836 -247.469,-34 z" id="path6528" inkscape:connector-curvature="0"/>
</g>
<path fill="#B20000" style="fill:#C1150E" inkscape:connector-curvature="0" d="m 9998.6,393.098 c -24.655,5.924 -20.354,-26.294 -45.211,-1.578 13.887,14.284 -14.627,9.369 -20.713,19.791 -4.869,-4.671 -8.681,-7.563 -9.366,-15.094 -3.329,8.243 -7.757,9.226 -13.206,1.167 -1.595,2.542 -5.883,4.873 -7.576,7.56 -5.79,-4.521 -12.301,-9.731 -18.216,-14.619 -13.688,4.896 -8.473,17.173 4.567,17.994 -1.08,8.758 3.113,12.847 11.999,12.004 4.65,28.675 -22.082,34.709 -42.967,22.422 -2.122,7.521 -3.721,8.468 -7.537,13.611 2.041,4.813 1.021,12.534 2.472,17.476 -23.206,3.791 -18.192,46.506 -17.512,64.305 16.944,-13.856 15.229,-22.652 36.21,-21.608 23.461,1.168 33.598,4.345 51.46,-7.424 10.148,-6.687 7.053,-8.867 22.471,-11.104 9.371,-1.359 18.666,2.502 27.428,-3.282 14.794,-9.766 4.893,-7.811 5.806,-23.406 0.92,-15.721 1.444,-17.029 12.912,-29.079 11.764,-12.361 26.669,-18.979 38.388,-31.172 -5.959,-1.602 -12.556,-3.714 -19.211,-3.192 1.117,-3.052 0.02,-8.543 1.076,-11.546 -11.041,-0.111 -21.171,-1.297 -31.272,-4.726" id="path6530"/>
<path fill="#B20000" style="fill:#C1150E" inkscape:connector-curvature="0" d="m 9643.117,468.094 c -17.363,-6.421 -48.041,13.414 -36.564,33.444 -18.494,-0.494 -31.885,19.691 -30.711,36.831 23.592,4.334 50.353,17.647 75.227,6.188 18.375,-8.464 8.669,-13.258 18.348,-29.571 5.152,-8.686 29.694,-31.598 -2.18,-30.692 6.626,-6.067 13.311,-13.451 22.152,-16.462 -1.842,-15.289 7.873,-12.097 16.021,-17.811 6.701,-4.699 12.486,-8.267 19.715,-14.627 -16.67,1.81 -39.943,3.438 -51.807,12.351 -13.824,10.385 -13.912,36.735 -34.701,20.349" id="path6532"/>
<path fill="#B20000" style="fill:#C1150E" inkscape:connector-curvature="0" d="m 9773.611,438.096 c -22.169,-14.159 -38.576,32.38 -9.227,34.725 0.465,1.736 -0.471,3.994 0.453,5.546 2.809,0.018 15.838,-1.449 17.703,0.278 2.832,2.621 4.24,11.586 6.164,13.192 7.955,6.639 14.158,10.71 29.643,4.494 -1.27,-16.167 17.863,-10.631 13.697,-31.945 -2.923,-14.951 -8.968,-19.438 -7.663,-38.175 -9.603,8.699 -24.987,16.953 -25.688,-3 -4.191,7.907 -6.003,8.481 -13.078,2.671 -5.893,14.021 -5.254,24.823 -2.971,40.258 -3.01,-8.659 -6.258,-18.062 -9.033,-26.545" id="path6534"/>
</g>
</g></svg>
