<?xml version="1.0" encoding="utf-8"?>
<!-- Generator: Adobe Illustrator 16.0.0, SVG Export Plug-In . SVG Version: 6.00 Build 0)  -->
<!DOCTYPE svg PUBLIC "-//W3C//DTD SVG 1.1//EN" "http://www.w3.org/Graphics/SVG/1.1/DTD/svg11.dtd">
<svg version="1.1" xmlns="http://www.w3.org/2000/svg" xmlns:xlink="http://www.w3.org/1999/xlink" x="0px" y="0px" width="11143px"
	 height="1080px" viewBox="0 0 11143 1080" enable-background="new 0 0 11143 1080" xml:space="preserve">
<g id="Volcano">
	<g id="Layer_76">
		<path fill="#E9CFC5" d="M10215.938,90.197l24.042,11.916c0,0-30.485,98.177,38.998,137.993s-82.496,18-82.496,18l-47.997-31.499
			L10215.938,90.197"/>
		<polyline fill="#E9CFC5" points="9965.493,58.615 9992.492,67.614 10023.99,99.113 9960.993,117.112 9965.3,53.803 		"/>
		<polyline fill="#E9CFC5" points="10073.264,92.219 10109.486,93.113 10151.484,121.612 10079.487,133.611 10073.264,92.219 		"/>
		<polyline fill="#E9CFC5" points="9747.004,76.044 9791.502,72.114 9839.5,87.113 9820,111.112 9733.005,103.612 9747.004,76.044 
					"/>
		<path fill="#E9CFC5" d="M10311.976,250.605l44.998,15c0,0-40.498,43.498,8.999,67.497c49.498,23.999-92.988-18-92.988-18
			l2.993-46.497L10311.976,250.605"/>
	</g>
	<path fill="#D8C3BA" d="M9518.535,274.185c0,0,130.214-44.481,137.904-173.879l48.41-12.968l42.154-11.293l75.797,12.131
		l45.479-34.372h97.021l26.277,40.437l81.687-2.021l35.547,26.284l67.311-2.022V90.197h39.816c0,0-28.298,113.449,34.361,141.642
		c62.66,28.194,60.639,5.953,62.66,28.194c0,0-11.117,52.568,55.584,121.311c66.702,68.743-438.615,71.776-438.615,71.776
		L9518.535,274.185z"/>
	<polygon fill="#E4C7C2" points="9827.29,100.157 9863.135,60.114 9896.42,61.782 9904.1,187.862 9851.614,208.606 9819.608,171.9 	
		"/>
	<polygon fill="#E4C7C2" points="10108.263,127.11 10161.302,125.61 10163.423,152.609 10170.771,157.109 10175.092,236.605 
		10110.384,244.104 10110.384,188.607 10090.229,178.108 10087.047,112.111 	"/>
	<path fill="#E4C7C2" d="M9720.789,164.609c-19.852-25.499,8.824-76.496,8.824-76.496l-60.659,20.999
		c-2.229,36.369-14.337,71.996-14.337,71.996S9711.967,169.109,9720.789,164.609z"/>
	<path fill="#D9DDCF" d="M9586.877,213c-8.914-1.12-11.813-5.613-8.849-14.849c8.225,2.189,10.493-0.729,14.996-2.004
		c22.24,2.047,43.859-32.937,66.739-36.867c9.591-1.647,25.193,6.455,35.283,4.417c7.934-1.603,22.687-10.776,30.766-14.049
		c12.563-5.09,24.363-12.569,36.835-18.517c1.021,2.301,1.418,4.264,2.381,6.717c8.692,0.454,10.369,1.608,16.626-5.527
		c3.589,0.869,3.334,1.035,7.168-1.418c2.329,1.21,3.965,2.713,6.029,4.216c5.018-2.919,8.807-2.95,13.854-5.271
		c7.486-8.086,13.017-2.997,13.322,8.223c12.796,7.861,22.123,24.307,39.675,13.057c1.009,2.485,1.428,5.249,2.345,7.769
		c2.776,1.24,6.392,1.192,11.028,3.975c9.721-6.754,11.893-16.611,20.748-24.137c8.435-7.169,18.1-6.616,25.756-16.958
		c9.962,1.082,3.746,4.848,13.049-2.697c3.551,3.751,7.16,4.56,10.097,7.071c2.985,11.037,27.727,8.17,38.048,13.909
		c8.856,4.925,20.119,28.495,32.877,13.02c8.006,7.846,15.945,12.765,27.123,14.075c-0.501,2.565-1.488,4.248-1.738,6.894
		c4.024-0.36,10.607,2.968,15.69,2.103c-1.167,11.342,2.935,16.996,12.978,9.929c0.245,0.857,0.934,6.409,1.325,6.769
		c5.444-3.139,10.796-3.984,15.123-10.749c3.299-3.005,7.187-2.375,10.952-9.972c8.743-0.737,6.725,0.346,14.799-5.048
		c8.057,9.516,16.51,28.611,30.748,17.971c5.197,24.741,24.666-16.947,29.139,9.797c6.648-0.554,14.305,1.414,20.809,0.354
		c-0.091,0.511-3.275,2.896-3.84,3.794c0.889,2.648,5.162,1.089,6.039,3.206c-1.605,3.842-3.232,5.281-3.766,9.646
		c1.941,1.129,5.889,1.081,7.988,2.103c-1.845,2.852-3.222,4.914-4.063,8.097c14.914,1.918,25.229,0.825,33.769,12.126
		c3.451,3.033,1.926,4.741,8,6.754c0.185,2.623-0.19,5.452,0.151,8.071"/>
	<path fill="#C0C3C0" d="M10287.877,294c12.238,3.229-0.234-7.757-4-19c-4.592-13.712-8.307-4.914-16-12
		c-14.048-12.94,2.078-12.821-17-20c-9.735-3.663-15.182-9.261-24.853-14.151c-4.331-12.555-14.143-6.658-21.067-13.065
		c-3.844-3.556-13.91-0.85-17.08-6.783c-5.305-9.931-30.611-28.855-50-11c3.494-10.521-1.57-12.458-11.977-11.875
		c-6.84-12.751-24.691-2.235-25.354,11c-11.692-1.998-34.664-18.404-37.817-8.276c-32.75-1.774-46.991-10.401-21.034,23.164
		c18.11,23.42,20.381,35.603,53.588,41.521c32.299,5.756,55.606,11.556,86.272,23.187c33.657,12.766,69.298,12.714,103.321,23.28"/>
	<path fill="#C0C3C0" d="M9606.877,221c-26.299-9.164,1.97-20.064-0.849-34.071c1.822-0.862,5.146-0.102,6.745-1.131
		c-2.031-8.989,7.441-24.686,18.724-24.978c14.792-0.383,16.595,24.233,25.531,8.328c23.439-20.595,74.354,27.598,8.521,50.238
		c-18.064,6.212-34.584,8.218-53.672,5.615"/>
	<path fill="#C0C3C0" d="M10063.877,197c-16.592-27.581-41.549-36.492-67.948-21.096c-17.489-5.454-41.753-16.581-59.801-7.051
		c-20.909-1.382-51.073,3.645-70.052,18.02c-4.369-9.098-10.207-29.077-15.37-14.956c-3.599-9.239-3.202-6.794-13.655-9.091
		c-5.621-10.103-21.91-12.704-29.146-5.125c-8.43-13.728-44.827-7.802-35.104,13.076c-7.344,6.79-14.369,13.12-23.745,15.844
		c6.153-1.788-13.439-11.425-15.024-11.728c-6.228-1.191-14.54,6.681-21.279,6.681c-9.965,0-7.996-10.479-19.1-7.987
		c-13.755,3.085-22.623,20.077-13.128,31.752c8.173,10.05,34.399,8.516,45.463,8.871c41.668,1.339,83.245-3.823,124.86-2.663
		c34.806,0.971,48.068,29.559,80.395,34.506c49.892,7.635,90.646-18.527,137.635-19.054"/>
	<path fill="#DBC8BF" d="M9521.646,274.744c20.175-31.214,52.96-65.726,52.96-65.726l81.205-6.553l57.609-29.006l46.339,24.199
		l87.214,4.807l69.129-29.006l109.928,9.333l63.047,35.645l120.043,9.125l152.324,98.095l63.048,11.406l138.706,171.875
		l-610.303,83.246l-617.539-110.788l-78.511-31.411l58.005-84.581l68.091-12.373l52.96-11.407L9521.646,274.744z"/>
	<path fill="#E1CFC3" d="M9718.613,183.608c0,0-16.5,143.993-20.999,143.993s-124.493,13.5-124.493,13.5l41.998-95.995
		l35.998-40.498L9718.613,183.608z"/>
	<polygon fill="#E1CFC3" points="9576.121,216.606 9585.12,230.105 9538.622,342.6 9466.626,350.1 	"/>
	<polyline fill="#E1CFC3" points="9831.006,291.603 9840,212.106 9910.496,183.608 9919.604,303.602 9831.006,291.603 	"/>
	<polygon fill="#D8C3BA" points="10108.594,230.105 10198.59,237.605 10189.59,338.1 10107.094,321.601 	"/>
	<polygon fill="#E1CFC3" points="10342.582,323.101 10356.081,404.097 10503.074,455.094 10417.471,342.6 	"/>
	<polygon fill="#F8EFDC" points="9712.007,192.107 9655.01,208.353 9592.013,210.519 9595.013,218.1 9640.01,222.433 
		9623.512,265.754 9656.51,219.183 9704.507,209.436 	"/>
	<path fill="#F8EFDC" d="M9557.515,246.105c0,0-28.499,37.498-32.999,40.498c-4.499,3-79.496,59.997-79.496,59.997l-128.993,31.499
		l-29.999,49.498l16.5,13.5l26.998-44.998l123-38.998l80.99-59.998l34.498-44.998L9557.515,246.105z"/>
	<path fill="#D8C3BA" d="M9764.504,216.106l41.998,17.999c0,0-8.988,62.998-1.494,56.998s28.492-74.997,28.492-74.997H9764.504z"/>
	<polygon fill="#E4D4C6" points="9914.496,187.608 9936.996,201.107 9938.495,289.603 9992.492,300.102 10004.492,222.106 
		10026.991,195.107 	"/>
	<polygon fill="#E4D4C6" points="10368.974,342.1 10421.471,346.6 10451.47,396.097 10413.972,361.599 	"/>
</g>
</svg>
