<?xml version="1.0" encoding="utf-8"?>
<!-- Generator: Adobe Illustrator 16.0.0, SVG Export Plug-In . SVG Version: 6.00 Build 0)  -->
<!DOCTYPE svg PUBLIC "-//W3C//DTD SVG 1.1//EN" "http://www.w3.org/Graphics/SVG/1.1/DTD/svg11.dtd">
<svg version="1.1" xmlns="http://www.w3.org/2000/svg" xmlns:xlink="http://www.w3.org/1999/xlink" x="0px" y="0px" width="9111px"
	 height="1080px" viewBox="0 0 9111 1080" enable-background="new 0 0 9111 1080" xml:space="preserve">

<g id="Cloudssss">
	<g>
		<path fill="#FF4C4C" d="M8669.625,163.803c-0.171-0.494-0.264-1.006-0.264-1.53c0-4.262,5.972-7.717,13.338-7.717
			c6.332,0,11.631,2.554,12.998,5.978c0.482-0.162,0.98-0.306,1.488-0.43c-1.948-1.578-3.055-3.381-3.055-5.298
			c0-6.186,11.516-11.202,25.721-11.202c3.34,0,6.533,0.277,9.458,0.783c2.106-6.261,7.741-10.741,14.359-10.741
			c8.419,0,15.243,7.246,15.243,16.181c0,0.26-0.006,0.519-0.018,0.775c1.726,0.108,3.366,0.507,4.869,1.148
			c2.577-4.35,6.614-7.151,11.152-7.151c0.985,0,1.945,0.131,2.871,0.382c2.162-1.633,4.616-2.739,7.239-3.167
			c0.107-0.106,0.222-0.213,0.339-0.315c1.041-5.287,7.141-9.345,14.511-9.345c8.104,0,14.671,4.902,14.671,10.952
			c0,0.025,0,0.054,0,0.08c0.987-2.724,2.868-4.868,5.193-5.893c0.32-0.844,0.689-1.623,1.102-2.32
			c-0.129-0.989-0.199-2.018-0.199-3.069c0-8.111,4.012-14.685,8.956-14.685c4.945,0,8.957,6.574,8.957,14.685
			c0,2.004-0.246,3.916-0.691,5.658c0.506,0.162,0.999,0.345,1.482,0.546c3.144-4.545,7.937-7.449,13.308-7.449
			c9.471,0,17.148,9.028,17.148,20.163c0,0.333-0.009,0.664-0.021,0.99c2.023-3.113,5.882-5.222,10.312-5.222
			c6.522,0,11.812,4.57,11.812,10.207c0,1.148-0.219,2.254-0.623,3.283c0.51-0.031,1.038-0.047,1.576-0.047
			c0.479,0,0.949,0.013,1.406,0.037c0.167-1.959,0.62-3.803,1.303-5.464c-1.116-2.5-1.758-5.409-1.758-8.512
			c0-9.347,5.801-16.928,12.958-16.928c0.688,0,1.364,0.073,2.021,0.207c2.137-7.947,7.931-13.647,14.745-13.647
			c8.63,0,15.624,9.138,15.624,20.412c0,5.398-1.605,10.308-4.225,13.956c1.272-0.328,2.707-0.514,4.225-0.514
			c3.1,0,5.853,0.773,7.592,1.971c1.293-0.473,2.742-0.793,4.291-0.916c0.705-8.698,6.802-15.492,14.221-15.492
			c3.894,0,7.418,1.871,9.998,4.905c3.176-1.524,7.016-2.416,11.148-2.416c8.211,0,15.254,3.51,18.26,8.514
			c0.264-0.034,0.528-0.051,0.795-0.051c0.888,0,1.737,0.192,2.535,0.538c1.541-12.995,10.143-22.94,20.521-22.94
			c9.736,0,17.905,8.755,20.153,20.567c0.104,0.141,0.207,0.283,0.309,0.429c2.473-0.701,5.144-1.083,7.925-1.083
			c6.262,0,11.943,1.935,16.121,5.08c0.668,0.041,1.324,0.091,1.961,0.151c1.235-0.482,2.594-0.75,4.021-0.75
			c1.755,0,3.405,0.402,4.85,1.116c2.5-3.065,6.903-5.1,11.92-5.1c3.737,0,7.136,1.132,9.659,2.975
			c1.509-0.293,3.138-0.461,4.834-0.482c-0.008-0.167-0.016-0.333-0.016-0.501c0-7.149,8.19-12.943,18.292-12.943
			c9.114,0,16.669,4.716,18.062,10.888c1.155-0.282,2.384-0.434,3.659-0.434c2.384,0,4.608,0.531,6.489,1.451
			c-0.006-0.152-0.011-0.304-0.011-0.456c0-10.174,15.271-18.419,34.105-18.419s34.106,8.246,34.106,18.419
			s-15.271,18.42-34.106,18.42c-2.824,0-5.568-0.187-8.194-0.536c0,0.012,0,0.026,0,0.038c0,6.6-9.042,11.948-20.195,11.948
			c-5.31,0-10.142-1.212-13.745-3.194c-1.489,4.514-4.927,7.677-8.929,7.677c-5.366,0-9.717-5.685-9.717-12.695
			c0-2.781,0.684-5.349,1.844-7.439c-1.093,0.143-2.217,0.218-3.368,0.218c-1.875,0-3.685-0.199-5.39-0.571
			c-2.64,2.141-7.262,3.559-12.521,3.559c-1.29,0-2.54-0.085-3.732-0.245c-2.579,2.573-6.604,4.227-11.127,4.227
			c-1.199,0-2.363-0.116-3.474-0.334c0.027,0.192,0.042,0.388,0.042,0.586c0,2.885-2.987,5.225-6.669,5.225
			c-3.286,0-6.017-1.863-6.564-4.315c-2.938,7.402-11.77,12.78-22.207,12.78c-6.917,0-13.125-2.364-17.383-6.113
			c-3.191,2.61-6.964,4.12-11.004,4.12c-2.922,0-5.703-0.79-8.223-2.212c0.018,0.401,0.03,0.807,0.03,1.215
			c0,10.724-6.654,19.416-14.864,19.416c-5.635,0-10.539-4.099-13.059-10.139c-1.006,3.313-3.48,5.659-6.374,5.659
			c-3.081,0-5.69-2.654-6.554-6.308c-0.173,0.054-0.354,0.107-0.536,0.162c-0.112,0.111-0.226,0.17-0.341,0.17
			c-0.054,0-0.106-0.013-0.156-0.037c-3.594,0.932-9.186,1.531-15.469,1.531c-10.838,0-19.625-1.783-19.625-3.983
			c0-2.199,8.787-3.981,19.625-3.981c5.508,0,10.484,0.459,14.048,1.2c-0.091-1.055-0.14-2.219-0.14-3.442
			c0-4.81,0.769-8.711,1.717-8.711c0.945,0,1.714,3.901,1.714,8.711c0,0.267-0.003,0.529-0.008,0.789
			c1.19-2.351,3.208-3.924,5.51-4.015c-1.892-2.211-3.101-5.295-3.206-8.729c-2.338-0.319-4.527-0.927-6.492-1.769
			c-2.619,3.677-6.512,6.008-10.855,6.008c-2.437,0-4.729-0.733-6.736-2.024c-0.8,1.093-1.924,1.775-3.172,1.775
			c-2.04,0-3.754-1.818-4.242-4.284c-4.813-0.367-8.703-2.62-9.761-5.556c-0.704,0.085-1.438,0.133-2.192,0.133
			c-0.934,0-1.835-0.072-2.688-0.202c-0.292,2.282-3.933,4.149-8.703,4.585c-1.699,4.783-5.173,8.062-9.187,8.062
			c-1.258,0-2.462-0.322-3.574-0.911c-2.125,3.583-5.451,5.889-9.19,5.889c-5.313,0-9.791-4.653-11.181-11.011
			c-0.572,0.038-1.166,0.059-1.775,0.059c-2.35,0-4.485-0.3-6.082-0.793c-1.901,1.128-4.203,1.79-6.683,1.79
			c-1.396,0-2.735-0.209-3.978-0.593c-0.808,4.023-4.521,7.064-8.979,7.064c-3.272,0-6.142-1.635-7.758-4.099
			c-2.064,1.037-4.337,1.61-6.724,1.61c-1.436,0-2.833-0.209-4.169-0.602c-0.692,0.069-1.399,0.106-2.12,0.106
			c-2.252,0-4.391-0.346-6.311-0.962c-0.843,1.544-2.084,2.692-3.529,3.184c-2.486,3.339-6.443,5.815-11.106,6.787
			c-1.491,2.963-4.097,4.93-7.062,4.93c-3.713,0-6.861-3.083-7.962-7.356c-1.667-1.004-3.124-2.241-4.308-3.651
			c-0.417-0.034-0.826-0.082-1.225-0.147c-0.061,0.184-0.12,0.363-0.182,0.542c0.216,0.72,0.338,1.534,0.338,2.398
			c0,2.885-1.362,5.226-3.047,5.226c-0.425,0-0.827-0.148-1.193-0.416c-3.386,4.25-8.088,6.886-13.286,6.886
			c-5.032,0-9.597-2.467-12.954-6.479c-3.699-0.127-7.041-2.115-9.502-5.272c-2.086,1.142-4.502,1.795-7.079,1.795
			c-1.482,0-2.911-0.217-4.254-0.618c-3.201,2.17-8.716,3.604-14.989,3.604c-9.891,0-17.908-3.565-17.908-7.963
			c0-4.354,7.848-7.891,17.592-7.964c-0.943-0.371-1.843-0.837-2.69-1.388c-4.368,1.491-9.875,2.38-15.856,2.38
			c-1.354,0-2.683-0.044-3.982-0.132c1.441,1.934,2.269,4.192,2.269,6.604c0,7.149-7.25,12.944-16.196,12.944
			c-8.296,0-15.135-4.987-16.08-11.414c-2.447,0.606-5.363,0.959-8.499,0.959c-8.626,0-15.622-2.674-15.622-5.974
			C8661.74,166.772,8664.914,164.832,8669.625,163.803z"/>
		<path fill="#F44141" d="M9221.539,147.91c-11.283,11.136-26.695,15.837-39.908,10.997c-5.449,11.644-34.782,19.948-43.027,15.112
			c-5.559-3.262-4.522-7.835-3.601-15.665c-3.755-2.124-4.354-1.893-7.261-6.662c3.047,0.604,7.76,2.225,11.443,2.973
			c3.822,27.408,50.375,4.532,64.149-0.271c7.857-2.738,11.01-2.068,14.186-13.75c5.157,2.384,2.968,5.283,2.482,10.219"/>
		<path fill="#F44141" d="M9073.669,157.505c8.209,28.516-31.317,13.916-41.087,14.84c-6.299,0.597-10.317,2.178-16.626-0.746
			c-0.921,19.559-15.233,19.829-23.075,6.68c10.998,10.133,21.317,1.947,14.839-16.234c12.194,8.458,46.454,13.394,59.273,9.548
			c6.592-1.977,1.452-14.188-0.433-18.366c5.887,0.625,7.049,5.382,10.178,10.918"/>
		<path fill="#F44141" d="M8970.828,148.649c3.308,15.771-2.95,22.086-12.753,13.396c8.556,2.311,13.296-8.588,14.287-12.659"/>
		<path fill="#F44141" d="M8914.543,167.836c-9.388,7.49-17.293,4.219-15.348-11.913c5.181,17.097,18.814,13.487,26.631,3.277
			C8924.015,173.07,8920.451,166.118,8914.543,167.836"/>
		<path fill="#F44141" d="M8873.099,158.98c-1.753,10.539-1.921,15.97-12.323,9.556c6.71-2.131,9.625-8.479,12.323-11.031"/>
		<path fill="#F44141" d="M8844.959,166.359c-2.076-5.04-6.535-6.058-7.291-13.944c-2.001,16.717-12.95,25.413-22.533,14.115
			c-0.136-0.205-0.274-0.41-0.413-0.613c0.139,0.209,0.278,0.415,0.423,0.613c6.542,13.447,17.717,14.452,23.777-0.061
			c9.037,3.923,10.5,4.665,16.679-4.463c-4.657,7.14-7.884,3.119-12.686,4.354"/>
		<path fill="#F44141" d="M8809.654,142.744c0.17,6.996,4.936,11.526-4.438,14.777c-0.701-8.856-0.76-8.641-3.308-17.03
			c3.293-0.974,6.263,0.853,9.28,3.728"/>
		<path fill="#F44141" d="M8798.91,177.43c-9.767,11.62-23.724,7.639-27.555-10.255c7.764,9.108,17.764,12.515,27.475,8.891
			c-0.311,4.237-1.952,2.798-4.014,5.055"/>
		<path fill="#F44141" d="M8761.562,173.741c-9.383,1.656-20.84,7.392-29.498-2.25c11.028,5.001,20.33-1.322,31.031,2.988"/>
		<path fill="#F44141" d="M8724.209,164.146c-3.273-0.451-6.828-0.02-10.068,0.149c2.812,21.623-16.074,22.983-22.765,7.323
			c-2.939-2.236-3.869-0.688-7.015-5.126c10.415,1.925,28.17,22.193,26.109-5.758c3.104-0.081,10.109-0.11,13.252,1.163
			c3.193,3.472-1.162,4.064-1.05,4.462"/>
		<path fill="#F44141" d="M8756.953,153.814c1.144,4.91,2.649,7.502,0.039,12.396c7.862-6.069,1.572-7.842-0.549-14.61"/>
		<path fill="#F44141" d="M8834.727,137.579c1.191,0.771,1.377,6.073,1.396,7.283c0.248-11.588,1.36-5.903-3.901-14.514
			c1.044,1.661,2.382,5.53,1.48,7.968"/>
		<path fill="#EA4147" d="M8931.429,133.15c-0.159,4.709,2.741,8.288-1.482,14.63c8.069-4.23,3.995-9.038,4.554-16.845"/>
		<path fill="#EA4147" d="M8864.402,149.387c-4.731-5.038-6.146-11.346-13.264-12.382c9.641-4.179,10.504,2.112,14.287,10.906"/>
		<path fill="#EA4147" d="M8774.351,149.387c2.73,0.546,4.391-0.083,5.617,4.152c6.526-6.61,12.911-6.677,19.861,0.199
			c-4.076-12.479-14.281-11.04-22.921-5.089"/>
		<path fill="#EA4147" d="M8740.069,142.006c4.984,2.214,9.791,0.345,14.249,5.794c-0.018-0.097,0.101-3.577,0.114-3.58
			c-4.518-6.942-7.636-3.518-13.339-4.428"/>
		<path fill="#EA4147" d="M9185.213,136.101c-6.486,1.603-11.537,0.974-16.359,10.998c-0.013-0.059-1.803-3.141-1.959-3.025
			c2.711-10.644,8.887-12.296,16.783-8.709"/>
		<path fill="#EA4147" d="M9129.441,137.579c-6.109,2.486-10.787,0.066-13.726,10.993c7.626-8.119,16.402-8.958,24.93-3.708
			c-4.639-7.042-9.483-5.519-15.297-6.547"/>
		<path fill="#EA4147" d="M9099.766,151.6c-4.471-0.573-7.073-3.304-10.721,1.582c-5.629-1.623-5.867-2.457-11.331-0.844
			C9084.991,157.659,9093.109,155.768,9099.766,151.6"/>
		<path fill="#EA4147" d="M9026.598,129.46c2.277,8.788-1.039,10.512-11.177,8.87c2.342-7.489,6.399-6.484,11.688-8.132"/>
	</g>
</g>

</svg>
