<?xml version="1.0" encoding="utf-8"?>
<!-- Generator: Adobe Illustrator 16.0.0, SVG Export Plug-In . SVG Version: 6.00 Build 0)  -->
<!DOCTYPE svg PUBLIC "-//W3C//DTD SVG 1.1//EN" "http://www.w3.org/Graphics/SVG/1.1/DTD/svg11.dtd">
<svg version="1.1" xmlns="http://www.w3.org/2000/svg" xmlns:xlink="http://www.w3.org/1999/xlink" x="0px" y="0px" width="11143px"
	 height="1080px" viewBox="0 0 11143 1080" enable-background="new 0 0 11143 1080" xml:space="preserve">
<g id="FarGround_x5F_DRK_x5F_grass">
	<path fill="#C0100D" d="M9212.537,471.094l15-20.999l17.998,7.5l3-19.499l23.999-13.5c11.999,1.5,22.499,1.5,26.999,1.5
		s16.499-7.5,16.499-7.5l13.499-15l12-6l14.999-1.5l14.999-14.999c0,0,7.5-6,13.5-6c5.999,0,11.998,0,16.498-1.5s16.5-6,16.5-6
		l14.999-3l19.499-7.5l16.499-14.999l14.999-16.5v18l21-10.5c0,0,7.499-10.5,8.999-3s1.5,7.5,1.5,7.5s11.999-4.5,16.499-9
		s12-7.5,12-7.5l1.499,9c0,0,9-6,16.499-9c7.5-3,18-12,18-12l17.998-6l10.5-3c9,6,19.5,6,23.999,4.5s17.999-3,17.999-3l22.498-9
		c0,0,6,0,10.5,1.5s10.5,3,10.5,3s7.5,3,13.499,1.5s26.999-1.5,26.999-1.5l17.998,1.5l10.5,4.5l15-3c0,0,4.498-1.5,11.998-4.5
		s10.5-3,15-4.5s8.999-3,14.999,0s6.813,3.476,14.999,4.5c8.188,1.023,3-6,23.999-4.5s28.499,4.5,28.499,4.5s-1.5-1.5,6-1.5
		c7.499,0,8.999-1.5,16.498-4.5c7.5-3,25.499-7.5,25.499-7.5l13.499,6c0,0,10.5,4.5,15,4.5s14.999,0,14.999,0s3-6,11.999-9
		c9-3,16.5-9,16.5-9s8.999-4.5,11.999-9s6-13.499,10.499-10.5c4.5,3,6,8.999,10.5,11.999s22.499,10.5,22.499,10.5l11.999,12
		l16.499,6c0,0,13.499,4.5,19.499,7.5s4.5,12,13.5,10.5c8.999-1.5,11.999-1.5,22.498-4.5c10.5-3,13.5-3,18-1.5
		c4.499,1.5,16.498,7.5,16.498,7.5l21,6l19.498,4.5c0,0,3-3,6-9s6-9,3-17.999s0,1.5-3-9s-10.499-11.999-14.999-16.499
		s-5.999-15-5.999-15s4.499-11.999,16.498-3c12,9,15,17.999,15,17.999l14.999,23.999l19.499,17.999l10.5,6l10.499,3h14.999
		l15,13.499c0,0,1.499,7.5,5.999,12s20.999,12,20.999,12s20.998,11.999,25.498,14.999s1.5,6,9,12s20.999,13.5,20.999,13.5
		l7.5,10.499L9212.537,471.094z"/>
	<path fill="#C0100D" d="M4426.741,229.223c-3.535-1.696-5.378-2.605-5.378-2.605l-0.997,3.443
		C4422.485,229.765,4424.611,229.488,4426.741,229.223z"/>
	<path fill="#C0100D" d="M11258.91,687.5c-626.196,0-673.942-390.874-1415.717-390.874c-638.623,0-455.909,294.544-1385.724,294.544
		c-113.081,0-217.624-6.051-314.857-16.659c5.15,92.448,13.575,184.739,22.387,276.889c5.989,62.625,12.178,125.232,17.659,187.905
		c5.464,62.484,11.085,125.032,11.889,187.776c1.608,125.391-5.93,250.571-11.896,375.76c-1.177,24.694-2.228,49.395-3.125,74.099
		c891.783,39.113,2096.256,89.971,2107.578,79.838c17.996-16.105,1667.666-547.781,1667.666-547.781S12212.718,687.5,11258.91,687.5
		z"/>
	<path fill="#BD0D0A" d="M9864,395c20.975-10.162,60.391-47.175,40.754-66.548c26.044-18.322,64.096-24.324,92.596-41.142
		c-5.284,4.338-9.056,10.886-13.189,15.435c18.195-4.22,27.331-24.571,44.078-30.997c-6.674,9.342-11.547,19.976-14.039,30.951
		c9.752,0.437,19.85,0.167,29.602,0.604c-1.987,3.729-1.929,10.092-3.498,13.349c4.479,0.14,8.281,2.945,13.349,2.697
		c5.817,15.843,16.032,32.018,27.896,43.492c1.182-5.626,4.261-9.881,4.844-15.634c9.546,10.6,5.679,30.592,5.505,45.189
		c9.514-47.883,54.879-70.943,97.943-68.997c-14.352,9.354-33.676,15.41-47.235,27.299c14.36-2.777,29.609-9.057,44.791-9.84
		c-11.171,7.973-21.739,19.495-27.189,31.84c5.219-1.168,12.18,1.406,17.491,0.612c-1.623,8.677,0.033,15.688-5.537,23.388
		c14.385-4.037,36.307-19.358,40.188,1.947c38.18-4.85,23.079-76.103,15.509-96.969c6.713,21.696,17.155,48.609,27.647,68.706
		c1.737-7.075,6.242-13.474,6.894-21.214c1.584,2.124,5.974,5.687,7.602,8.072c24.862-18.02,33.143,17.638,40.421,34.396
		c9.89,22.769,45.212,56.44,40.878,81.063c-39.443,2.635-85.729-14.435-123.299-23.698"/>
	<path fill="#BD0D0A" d="M9602,359c12.34-4.013,27.012-12.607,22.747-27.698c8.318-2.126,16.338-5.396,22.744-6.501
		c1.05-9.53,3.786-19.175,8.857-27.452c14.712-1.691,23.401,11.565,17.851,24.84c11.603-5.968,22.697-14.464,21.801-28.577
		c-0.576,10.754-3.697,21.77-7.246,31.531c31.633-4.301,39.037,9.295,70.642,14c-12.439-4.806-23.481-13.316-28.681-25.826
		c37.715,6.917,86.652,8.005,124.681-0.014c-23.069,22.604-58.965,18.786-86.791,31.641c18.188,5.333,37.859,3.403,56.784,4.463
		c-34.467,23.747-80.701,11.487-118.327,9.607c-13.976-0.699-33.288-1.331-45.994,4.093c-15.526,6.628-21.875,19.809-41.157,21.649
		c-7.788-8.378-19.811-7.182-29.797-2.548c13.916-8.298,29.313-13.264,43.379-21.399c-12.881,4.711-25.301,12.843-33.492,0.193"/>
	<path fill="#BD0D0A" d="M9480,349c-8.957,10.841-15.186,30.52-13.697,45.744c15.468-3.511,24.686-20.072,41.441-19.442
		c-0.902,3.335-0.738,7.978-1.435,11.388c0.954,0.288,7.677-0.502,7.342-0.897c10.792,8.953,40.606,13.917,44.847-6.594
		c17.426,28.634-50.62,41.316-68.563,39.681c-18.336-1.671-31.151-16.995-48.29-15.748c-9.998,0.728-33.934,18.766-41.931,25.821
		c30.473,16.303,17.33,35.935,50.023,34.338c23.268-1.136,44.799-18.106,68.08-16.538c10.391,0.7,19.154,9.851,28.592,10.325
		c15.814,0.793,30.097-9.229,44.273-15.516c29.236-12.965,59.619-23.702,87.149-40.208c-28.481,9.344-61.204,13.538-82.507-2.269
		c-12.99-9.639-25.26-29.989-33.675-43.784c-25.745,9.279-29.312,18.394-47.097-10.143c-2.38,4.249-6.735,7.414-8.953,11.545
		c-10.952,2.555-23.34,1.393-31.602-7.705"/>
</g>
</svg>
