<?xml version="1.0" encoding="UTF-8" standalone="no"?>
<!-- Generator: Adobe Illustrator 16.0.0, SVG Export Plug-In . SVG Version: 6.00 Build 0)  -->

<svg
   xmlns:dc="http://purl.org/dc/elements/1.1/"
   xmlns:cc="http://creativecommons.org/ns#"
   xmlns:rdf="http://www.w3.org/1999/02/22-rdf-syntax-ns#"
   xmlns:svg="http://www.w3.org/2000/svg"
   xmlns="http://www.w3.org/2000/svg"
   xmlns:sodipodi="http://sodipodi.sourceforge.net/DTD/sodipodi-0.dtd"
   xmlns:inkscape="http://www.inkscape.org/namespaces/inkscape"
   version="1.1"
   x="0px"
   y="0px"
   width="11143px"
   height="1080px"
   viewBox="0 0 11143 1080"
   enable-background="new 0 0 11143 1080"
   xml:space="preserve"
   id="svg4866"
   inkscape:version="0.48.2 r9819"
   sodipodi:docname="mountain.svg">
<metadata
   id="metadata4875">
<rdf:RDF>
<cc:Work
   rdf:about="">
<dc:format>image/svg+xml</dc:format>
<dc:type
   rdf:resource="http://purl.org/dc/dcmitype/StillImage" />
<dc:title>
</dc:title>
</cc:Work>
</rdf:RDF>
</metadata>
<defs
   id="defs4873" />
<sodipodi:namedview
   pagecolor="#ffffff"
   bordercolor="#666666"
   borderopacity="1"
   objecttolerance="10"
   gridtolerance="10"
   guidetolerance="10"
   inkscape:pageopacity="0"
   inkscape:pageshadow="2"
   inkscape:window-width="1089"
   inkscape:window-height="710"
   id="namedview4871"
   showgrid="false"
   inkscape:zoom="0.25271471"
   inkscape:cx="9516.9053"
   inkscape:cy="117.3431"
   inkscape:window-x="119"
   inkscape:window-y="1"
   inkscape:window-maximized="0"
   inkscape:current-layer="layer20" />

<g xmlns="http://www.w3.org/2000/svg" inkscape:groupmode="layer" xmlns:inkscape="http://www.inkscape.org/namespaces/inkscape" id="layer15" inkscape:label="mountains1" style="display:inline">
<g id="Mountains_x5F_3rdRow">
<g id="Layer_66">
<path style="fill:#c67f40" inkscape:connector-curvature="0" d="m 8550.949,349.042 14.407,33.78 V 441 h 24.044 v 50 l 58.164,-4 7.172,-46 35.762,2 -8.498,60 79.54,64 10.281,-206 13.695,-21.569 21.588,25.569 42.896,17.821 32.523,-47.982 19.477,47.982 -14,109.676 20,47.503 54.968,52.184 L 9022,577.859 V 501 l 15.451,-57.42 20.549,19.932 16.561,-7.512 24.122,-53.48 83.107,23.286 22.21,27.313 -6,86.881 h 26.658 L 9256,627 h 54 l -28.063,-130 36.991,-53.42 15.407,-0.58 -15.014,-30 20.194,-23.447 19.702,29.447 c 0,0 -3.194,-49.303 16.795,-36.651 C 9396,395 9396,395 9396,395 l 6.872,66 20.756,-30.19 23.911,50.11 c 0,0 -25.539,52.08 10.461,76.08 36,24 36,24 36,24 l 12,82.434 29.973,-171.815 32.027,61.583 21.229,3.497 48.771,131.323 48,-24.589 2,-85.574 21.188,-70.562 35.898,-14.8 33.527,-13.822 32.801,74.526 47.961,11.652 18.625,-12.335 h 23.545 L 9942,519.316 9954,465 l 24,-24 -2,-32 32.41,-26.651 h 61.438 l 18.152,43.457 2,15.194 33.987,-21.542 18.013,33.661 v 151.557 h 56 l 67.473,-133.721 25.618,16.087 38.147,-95.328 h 57.208 L 10398,393 10408.286,534.093 10406,555 l 34,22.859 37.324,-112.53 L 10518,493 10604.794,456.548 10632,467 l 10,85.518 -18,154.609 L 8647.564,638.222 8494,487 l 51.785,-137.755 0,0" id="path6639"/>
</g>
<path style="fill:#eaca8b" d="m 8779.0625,341.3125 -31.7813,9.21875 -10.2187,232.25 -64.7813,-56.9375 0,-95.03125 -48.0937,1.0625 0,33.46875 -73.25,5.625 0,-121.9375 -16.9063,0.65625 0,243.5 104.875,78.3125 2075.5628,0 -28.531,-164.1875 -64.188,14.28125 -16.969,-65.03125 -127.469,8.78125 -8.593,78.40625 -82.281,-13.15625 0,-138.875 -57.188,0 -10.906,71.53125 -52.875,7.71875 c 0,0 -0.09,111.7865 -0.09,111.8125 0,0.146 -74.763,1.5755 -79.875,1.6875 -34.568,0.76 -52.752,1.9195 -69.125,-27.3125 -4.485,-8.008 -2.273,-19.10075 -10.594,-25.34375 -3.679,-2.76 -30.066,-6.035 -29.469,-3.125 -4.628,-22.473 -6.418,-46.19275 -6.968,-69.09375 -0.383,-15.995 0.562,-66.375 0.562,-66.375 l -61.5,-10.875 -27.7185,113.21875 -107.7813,7.875 -26.6874,43.65625 -54,12.65625 -13.5938,-81.0625 -69.4375,28.625 0,134.84375 -129.2187,6.78125 9.25,-92.25 -39.625,-9.59375 -13.625,-55.46875 -56.5626,29.96875 0,74.53125 -40.5312,-13.34375 -15.25,-151.96875 -34.9375,12.78125 -12.6875,-61.25 -36.4688,7.21875 1.3126,41.25 -21.9063,12.78125 -2,27.375 -49.8125,20.65625 0,91.15625 -85.3438,25.96875 0,-182.9375 -83.0937,-23.28125 4.2813,60.71875 -27.7188,2.09375 -2.5625,-34.53125 -35.25,12.78125 0,37.9375 -35.9063,0 -4.0312,81.90625 -123.3125,-10.21875 8.0937,-211.90625 -7.3437,0 -48.2187,41.03125 -31.875,0 -8.9063,-41.03125 -6.875,0 z" id="path6641" inkscape:connector-curvature="0"/>
<g id="Layer_65_copy">
<g id="Layer_66_copy">
<polyline style="fill:#c67f40" points="8361.637,383.804 8373.639,404.806 8370.639,470.813 8406.642,479.813 8409.643,542.819      8316.633,527.818 8322.633,419.808 8361.637,383.804    " id="polyline6645"/>
</g>
<path style="fill:#eaca8b" inkscape:connector-curvature="0" d="m 8193.501,628.152 88.007,-2.278 -67.596,-200.113 -23.846,2.729 c 5.141,66.395 6.544,133.155 3.435,199.662 z" id="path6647"/>
<polygon style="fill:#eaca8b" points="8241.625,464.812 8244.625,425.808 8280.629,437.809 8283.629,389.804 8361.637,383.804 8361.637,449.811 8397.641,461.812 8391.641,518.817 8433.645,518.817 8427.644,449.811 8487.65,452.811 8565.657,626.828 8199.621,659.831 8205.621,476.813 " id="polygon6649"/>
</g>
</g>
</g></svg>