<?xml version="1.0" encoding="utf-8"?>
<!-- Generator: Adobe Illustrator 16.0.0, SVG Export Plug-In . SVG Version: 6.00 Build 0)  -->
<!DOCTYPE svg PUBLIC "-//W3C//DTD SVG 1.1//EN" "http://www.w3.org/Graphics/SVG/1.1/DTD/svg11.dtd">
<svg version="1.1" xmlns="http://www.w3.org/2000/svg" xmlns:xlink="http://www.w3.org/1999/xlink" x="0px" y="0px" width="11143px"
	 height="1080px" viewBox="0 0 11143 1080" enable-background="new 0 0 11143 1080" xml:space="preserve">
<g id="FarGround_x5F_LT_x5F_grass">
	<g>
		<path fill="#3C563D" d="M11494.021,801.221c-880.717,0-801.088-283.76-1217.256-355.9c7.074-8.612,13.191-19.049,20.213-27.344
			c-15.284-5.672-27.61-6.988-43.105-12.549c-17.161-6.159-32.358,3.255-49.88-0.409c-29.647-6.2-57.431,1.11-86.702-2.441
			c-5.867-0.711-23.277-13.255-17.283-22.427c-10.088,0.292-24.224,1.018-28.262,13.517c-9.002-1.856-16.407-19.797-22.623-27.308
			c-17.387,9.599-26.074,2.001-44.174,1.186c-18.475-0.832-37.509,10.541-56.047,11.714c-19.691,1.246-40.009-5.584-59.489-3.829
			c-7.872,0.709-13.675,17.866-21.135,19.136c-7.282,1.239-11.683,5.67-18.249,3.917c-8.441-2.254-14.574,1.559-22.518,4.299
			c-7.992,2.757-12.826,0.724-20.658,0.885c-8.456,0.175-17.357,4.077-25.27,7.099c-3.707-13.73-35.268,0.85-42.137,3.368
			c-7.623,2.795-14.9,5.55-22.785,7.295c-10.158,2.248-34.523,2.063-42.191,10.311l-22.389,24.083c0.83,0,1.662,0,2.492,0
			c-386.979,69.249-632.535,236.512-1313.961,236.512c-68.322,0-131.606-2.504-190.447-7.119
			c4.388,55.447,9.541,110.842,14.833,166.185c5.989,62.625,12.178,125.232,17.659,187.905
			c5.464,62.484,11.085,125.032,11.889,187.776c1.608,125.391-5.93,250.571-11.896,375.76c-1.777,37.292-3.271,74.598-4.366,111.91
			c897.124,39.681,2331.569,101.312,2343.931,90.249c17.996-16.105,1667.666-547.781,1667.666-547.781
			S12447.829,801.221,11494.021,801.221z"/>
	</g>
	<path fill="#314931" d="M9998.6,393.098c-24.655,5.924-20.354-26.294-45.211-1.578c13.887,14.284-14.627,9.369-20.713,19.791
		c-4.869-4.671-8.681-7.563-9.366-15.094c-3.329,8.243-7.757,9.226-13.206,1.167c-1.595,2.542-5.883,4.873-7.576,7.56
		c-5.79-4.521-12.301-9.731-18.216-14.619c-13.688,4.896-8.473,17.173,4.567,17.994c-1.08,8.758,3.113,12.847,11.999,12.004
		c4.65,28.675-22.082,34.709-42.967,22.422c-2.122,7.521-3.721,8.468-7.537,13.611c2.041,4.813,1.021,12.534,2.472,17.476
		c-23.206,3.791-18.192,46.506-17.512,64.305c16.944-13.856,15.229-22.652,36.21-21.608c23.461,1.168,33.598,4.345,51.46-7.424
		c10.148-6.687,7.053-8.867,22.471-11.104c9.371-1.359,18.666,2.502,27.428-3.282c14.794-9.766,4.893-7.811,5.806-23.406
		c0.92-15.721,1.444-17.029,12.912-29.079c11.764-12.361,26.669-18.979,38.388-31.172c-5.959-1.602-12.556-3.714-19.211-3.192
		c1.117-3.052,0.018-8.543,1.076-11.546c-11.041-0.111-21.171-1.297-31.272-4.726"/>
	<path fill="#314931" d="M9643.117,468.094c-17.363-6.421-48.041,13.414-36.564,33.444c-18.494-0.494-31.885,19.691-30.711,36.831
		c23.592,4.334,50.353,17.647,75.227,6.188c18.375-8.464,8.669-13.258,18.348-29.571c5.152-8.686,29.694-31.598-2.18-30.692
		c6.626-6.067,13.311-13.451,22.152-16.462c-1.842-15.289,7.873-12.097,16.021-17.811c6.701-4.699,12.486-8.267,19.715-14.627
		c-16.67,1.81-39.943,3.438-51.807,12.351c-13.824,10.385-13.912,36.735-34.701,20.349"/>
	<path fill="#314931" d="M9773.611,438.096c-22.169-14.159-38.576,32.38-9.227,34.725c0.465,1.736-0.471,3.994,0.453,5.546
		c2.809,0.018,15.838-1.449,17.703,0.278c2.832,2.621,4.24,11.586,6.164,13.192c7.955,6.639,14.158,10.71,29.643,4.494
		c-1.27-16.167,17.863-10.631,13.697-31.945c-2.923-14.951-8.968-19.438-7.663-38.175c-9.603,8.699-24.987,16.953-25.688-3
		c-4.191,7.907-6.003,8.481-13.078,2.671c-5.893,14.021-5.254,24.823-2.971,40.258c-3.01-8.659-6.258-18.062-9.033-26.545"/>
</g>
</svg>