<?xml version="1.0" encoding="UTF-8" standalone="no"?>
<!-- Generator: Adobe Illustrator 16.0.0, SVG Export Plug-In . SVG Version: 6.00 Build 0)  -->

<svg
   xmlns:dc="http://purl.org/dc/elements/1.1/"
   xmlns:cc="http://creativecommons.org/ns#"
   xmlns:rdf="http://www.w3.org/1999/02/22-rdf-syntax-ns#"
   xmlns:svg="http://www.w3.org/2000/svg"
   xmlns="http://www.w3.org/2000/svg"
   xmlns:sodipodi="http://sodipodi.sourceforge.net/DTD/sodipodi-0.dtd"
   xmlns:inkscape="http://www.inkscape.org/namespaces/inkscape"
   version="1.1"
   x="0px"
   y="0px"
   width="11143px"
   height="1080px"
   viewBox="0 0 11143 1080"
   enable-background="new 0 0 11143 1080"
   xml:space="preserve"
   id="svg4866"
   inkscape:version="0.48.2 r9819"
   sodipodi:docname="mountain.svg">
<metadata
   id="metadata4875">
<rdf:RDF>
<cc:Work
   rdf:about="">
<dc:format>image/svg+xml</dc:format>
<dc:type
   rdf:resource="http://purl.org/dc/dcmitype/StillImage" />
<dc:title>
</dc:title>
</cc:Work>
</rdf:RDF>
</metadata>
<defs
   id="defs4873" />
<sodipodi:namedview
   pagecolor="#FFFFFF"
   bordercolor="#D1D1D1"
   borderopacity="1"
   objecttolerance="10"
   gridtolerance="10"
   guidetolerance="10"
   inkscape:pageopacity="0"
   inkscape:pageshadow="2"
   inkscape:window-width="1089"
   inkscape:window-height="710"
   id="namedview4871"
   showgrid="false"
   inkscape:zoom="0.25271471"
   inkscape:cx="9516.9053"
   inkscape:cy="117.3431"
   inkscape:window-x="119"
   inkscape:window-y="1"
   inkscape:window-maximized="0"
   inkscape:current-layer="layer20" />

<g xmlns="http://www.w3.org/2000/svg" inkscape:groupmode="layer" xmlns:inkscape="http://www.inkscape.org/namespaces/inkscape" id="layer16" inkscape:label="Cloud4" style="display:inline">
<g transform="translate(0.003,0)" id="Cloud_1_">
<g id="g6794">
<path fill="#B2B2B2" style="fill:#FFFFFF" inkscape:connector-curvature="0" d="m 10069.679,564.491 c 0.374,-0.753 0.571,-1.532 0.571,-2.331 0,-6.492 -12.949,-11.754 -28.919,-11.754 -13.73,0 -25.224,3.89 -28.182,9.105 -1.048,-0.247 -2.128,-0.467 -3.228,-0.656 4.223,-2.402 6.622,-5.149 6.622,-8.07 0,-9.422 -24.971,-17.062 -55.771,-17.062 -7.242,0 -14.161,0.421 -20.508,1.19 -4.564,-9.535 -16.777,-16.358 -31.132,-16.358 -18.251,0 -33.05,11.035 -33.05,24.647 0,0.396 0.014,0.791 0.037,1.183 -3.738,0.162 -7.297,0.771 -10.556,1.748 -5.592,-6.626 -14.345,-10.893 -24.183,-10.893 -2.133,0 -4.216,0.201 -6.224,0.582 -4.69,-2.489 -10.005,-4.172 -15.695,-4.825 -0.237,-0.162 -0.479,-0.322 -0.733,-0.48 -2.258,-8.053 -15.484,-14.235 -31.466,-14.235 -17.569,0 -31.811,7.468 -31.811,16.684 0,0.04 0,0.082 0,0.121 -2.144,-4.149 -6.219,-7.416 -11.258,-8.978 -0.697,-1.285 -1.498,-2.47 -2.391,-3.532 0.279,-1.508 0.428,-3.073 0.428,-4.674 0,-12.356 -8.694,-22.372 -19.417,-22.372 -10.722,0 -19.42,10.016 -19.42,22.372 0,3.053 0.534,5.964 1.497,8.618 -1.096,0.246 -2.164,0.525 -3.213,0.832 -6.814,-6.922 -17.206,-11.347 -28.854,-11.347 -20.533,0 -37.18,13.751 -37.18,30.714 0,0.506 0.017,1.009 0.046,1.508 -4.386,-4.744 -12.755,-7.954 -22.356,-7.954 -14.145,0 -25.612,6.961 -25.612,15.548 0,1.748 0.476,3.431 1.353,4.998 -1.107,-0.046 -2.251,-0.07 -3.418,-0.07 -1.039,0 -2.058,0.02 -3.051,0.057 -0.361,-2.983 -1.344,-5.793 -2.822,-8.323 2.42,-3.809 3.806,-8.239 3.806,-12.967 0,-14.238 -12.575,-25.785 -28.091,-25.785 -1.49,0 -2.956,0.11 -4.385,0.314 -4.631,-12.105 -17.193,-20.788 -31.967,-20.788 -18.711,0 -33.876,13.92 -33.876,31.092 0,8.224 3.478,15.7 9.159,21.26 -2.76,-0.502 -5.869,-0.784 -9.159,-0.784 -6.723,0 -12.691,1.179 -16.465,3.003 -2.797,-0.721 -5.941,-1.209 -9.299,-1.397 -1.525,-13.247 -14.749,-23.598 -30.835,-23.598 -8.441,0 -16.088,2.85 -21.676,7.473 -6.889,-2.323 -15.214,-3.681 -24.178,-3.681 -17.801,0 -33.068,5.347 -39.592,12.97 -0.566,-0.052 -1.141,-0.079 -1.721,-0.079 -1.921,0 -3.767,0.292 -5.496,0.82 -3.341,-19.793 -21.988,-34.945 -44.492,-34.945 -21.113,0 -38.828,13.337 -43.699,31.33 -0.227,0.215 -0.453,0.433 -0.67,0.655 -5.363,-1.069 -11.151,-1.651 -17.184,-1.651 -13.574,0 -25.893,2.947 -34.954,7.738 -1.448,0.063 -2.868,0.139 -4.249,0.23 -2.678,-0.736 -5.626,-1.143 -8.721,-1.143 -3.803,0 -7.383,0.614 -10.514,1.699 -5.42,-4.668 -14.967,-7.767 -25.84,-7.767 -8.106,0 -15.475,1.724 -20.945,4.532 -3.273,-0.447 -6.804,-0.703 -10.482,-0.735 0.018,-0.254 0.033,-0.506 0.033,-0.763 0,-10.889 -17.758,-19.716 -39.662,-19.716 -19.76,0 -36.142,7.185 -39.159,16.586 -2.505,-0.429 -5.169,-0.661 -7.936,-0.661 -5.171,0 -9.993,0.809 -14.068,2.209 0.013,-0.232 0.021,-0.462 0.021,-0.692 0,-15.497 -33.106,-28.059 -73.947,-28.059 -40.839,0 -73.948,12.563 -73.948,28.059 0,15.496 33.109,28.059 73.948,28.059 6.125,0 12.074,-0.284 17.765,-0.814 0,0.017 0,0.037 0,0.057 0,10.053 19.605,18.198 43.79,18.198 11.513,0 21.987,-1.847 29.804,-4.866 3.229,6.877 10.68,11.693 19.357,11.693 11.636,0 21.067,-8.658 21.067,-19.337 0,-4.235 -1.481,-8.147 -3.994,-11.332 2.368,0.218 4.807,0.333 7.3,0.333 4.066,0 7.992,-0.303 11.684,-0.868 5.729,3.259 15.748,5.42 27.15,5.42 2.795,0 5.506,-0.13 8.092,-0.374 5.594,3.92 14.322,6.439 24.131,6.439 2.598,0 5.12,-0.178 7.528,-0.51 -0.061,0.293 -0.093,0.59 -0.093,0.892 0,4.396 6.475,7.96 14.46,7.96 7.126,0 13.044,-2.839 14.235,-6.574 6.372,11.277 25.518,19.469 48.146,19.469 14.996,0 28.461,-3.6 37.695,-9.311 6.916,3.975 15.097,6.275 23.857,6.275 6.336,0 12.361,-1.201 17.828,-3.369 -0.041,0.611 -0.063,1.229 -0.063,1.852 0,16.335 14.426,29.576 32.223,29.576 12.219,0 22.852,-6.243 28.313,-15.444 2.181,5.048 7.546,8.621 13.825,8.621 6.679,0 12.33,-4.044 14.207,-9.608 0.374,0.082 0.763,0.163 1.164,0.245 0.238,0.17 0.486,0.262 0.737,0.262 0.116,0 0.229,-0.021 0.34,-0.057 7.789,1.419 19.915,2.332 33.538,2.332 23.498,0 42.551,-2.717 42.551,-6.067 0,-3.35 -19.053,-6.065 -42.551,-6.065 -11.941,0 -22.731,0.7 -30.46,1.829 0.195,-1.607 0.302,-3.379 0.302,-5.243 0,-7.329 -1.664,-13.271 -3.72,-13.271 -2.05,0 -3.716,5.941 -3.716,13.271 0,0.405 0.01,0.805 0.016,1.2 -2.582,-3.582 -6.951,-5.977 -11.944,-6.117 4.099,-3.366 6.725,-8.065 6.952,-13.297 5.065,-0.485 9.813,-1.412 14.073,-2.693 5.681,5.602 14.118,9.152 23.538,9.152 5.283,0 10.256,-1.116 14.605,-3.084 1.732,1.666 4.17,2.705 6.877,2.705 4.422,0 8.139,-2.771 9.197,-6.525 10.436,-0.559 18.871,-3.992 21.168,-8.463 1.522,0.131 3.115,0.201 4.751,0.201 2.023,0 3.978,-0.107 5.826,-0.307 0.634,3.475 8.53,6.32 18.877,6.985 3.677,7.284 11.211,12.28 19.912,12.28 2.728,0 5.339,-0.49 7.751,-1.389 4.61,5.459 11.821,8.971 19.927,8.971 11.517,0 21.229,-7.089 24.237,-16.771 1.246,0.058 2.535,0.088 3.855,0.088 5.092,0 9.723,-0.457 13.186,-1.209 4.121,1.719 9.113,2.728 14.492,2.728 3.026,0 5.927,-0.32 8.621,-0.903 1.75,6.129 9.803,10.76 19.472,10.76 7.095,0 13.319,-2.492 16.823,-6.242 4.475,1.578 9.4,2.451 14.574,2.451 3.119,0 6.146,-0.318 9.041,-0.916 1.5,0.104 3.033,0.159 4.594,0.159 4.887,0 9.52,-0.526 13.685,-1.464 1.829,2.352 4.52,4.101 7.653,4.85 5.39,5.086 13.974,8.859 24.08,10.339 3.233,4.515 8.881,7.51 15.309,7.51 8.053,0 14.881,-4.698 17.267,-11.206 3.613,-1.529 6.773,-3.413 9.34,-5.561 0.901,-0.053 1.788,-0.126 2.657,-0.226 0.127,0.279 0.256,0.554 0.389,0.827 -0.467,1.095 -0.733,2.336 -0.733,3.652 0,4.396 2.958,7.961 6.607,7.961 0.921,0 1.794,-0.226 2.589,-0.633 7.34,6.476 17.536,10.491 28.809,10.491 10.911,0 20.808,-3.76 28.088,-9.868 8.019,-0.194 15.266,-3.223 20.6,-8.033 4.524,1.74 9.764,2.734 15.348,2.734 3.213,0 6.312,-0.33 9.227,-0.939 6.938,3.306 18.899,5.489 32.498,5.489 21.446,0 38.831,-5.431 38.831,-12.133 0,-6.63 -17.017,-12.018 -38.144,-12.13 2.047,-0.563 3.998,-1.274 5.832,-2.114 9.473,2.272 21.409,3.626 34.379,3.626 2.937,0 5.817,-0.068 8.631,-0.201 -3.12,2.944 -4.914,6.385 -4.914,10.062 0,10.889 15.722,19.717 35.114,19.717 17.991,0 32.819,-7.597 34.872,-17.389 5.303,0.925 11.629,1.463 18.422,1.463 18.707,0 33.876,-4.075 33.876,-9.101 0,-3.389 -6.877,-6.344 -17.089,-7.912 z" id="path6796"/>
<path fill="#B2B2B2" style="fill:#F4F4F4" inkscape:connector-curvature="0" d="m 8873.012,540.282 c 24.459,16.964 57.877,24.125 86.526,16.751 11.814,17.737 75.416,30.387 93.295,23.02 12.052,-4.968 9.803,-11.934 7.806,-23.861 8.14,-3.235 9.439,-2.883 15.741,-10.148 -6.604,0.92 -16.823,3.389 -24.813,4.527 -8.283,41.751 -109.222,6.904 -139.089,-0.41 -17.036,-4.172 -23.87,-3.15 -30.756,-20.946 -11.181,3.631 -6.435,8.046 -5.382,15.565" id="path6798"/>
<path fill="#B2B2B2" style="fill:#F4F4F4" inkscape:connector-curvature="0" d="m 9193.623,554.896 c -17.799,43.439 67.901,21.199 89.086,22.608 13.656,0.908 22.371,3.317 36.047,-1.136 2,29.791 33.031,30.204 50.033,10.176 -23.847,15.436 -46.221,2.965 -32.172,-24.729 -26.441,12.881 -100.725,20.4 -128.521,14.541 -14.291,-3.012 -3.148,-21.61 0.942,-27.974 -12.771,0.95 -15.286,8.198 -22.071,16.631" id="path6800"/>
<path fill="#B2B2B2" style="fill:#F4F4F4" inkscape:connector-curvature="0" d="m 9416.607,541.406 c -7.178,24.025 6.394,33.646 27.646,20.41 -18.547,3.518 -28.829,-13.084 -30.975,-19.285" id="path6802"/>
<path fill="#B2B2B2" style="fill:#F4F4F4" inkscape:connector-curvature="0" d="m 9538.639,570.637 c 20.362,11.408 37.499,6.426 33.281,-18.148 -11.236,26.046 -40.795,20.545 -57.741,4.993 3.925,21.127 11.651,10.535 24.46,13.155" id="path6804"/>
<path fill="#B2B2B2" style="fill:#F4F4F4" inkscape:connector-curvature="0" d="m 9628.499,557.146 c 3.803,16.055 4.167,24.327 26.726,14.556 -14.549,-3.246 -20.877,-12.916 -26.726,-16.805" id="path6806"/>
<path fill="#B2B2B2" style="fill:#F4F4F4" inkscape:connector-curvature="0" d="m 9689.514,568.387 c 4.505,-7.678 14.174,-9.229 15.809,-21.243 4.342,25.467 28.083,38.712 48.857,21.5 0.298,-0.312 0.597,-0.622 0.896,-0.933 -0.299,0.32 -0.604,0.631 -0.919,0.933 -14.182,20.485 -38.414,22.017 -51.551,-0.09 -19.592,5.975 -22.77,7.106 -36.163,-6.8 10.1,10.877 17.097,4.751 27.509,6.633" id="path6808"/>
<path fill="#B2B2B2" style="fill:#F4F4F4" inkscape:connector-curvature="0" d="m 9766.061,532.413 c -0.363,10.658 -10.697,17.558 9.624,22.51 1.524,-13.489 1.646,-13.161 7.177,-25.94 -7.147,-1.484 -13.585,1.298 -20.129,5.678" id="path6810"/>
<path fill="#B2B2B2" style="fill:#F4F4F4" inkscape:connector-curvature="0" d="m 9789.357,585.25 c 21.177,17.7 51.436,11.636 59.744,-15.621 -16.829,13.873 -38.514,19.063 -59.571,13.543 0.675,6.453 4.235,4.264 8.704,7.7" id="path6812"/>
<path fill="#B2B2B2" style="fill:#F4F4F4" inkscape:connector-curvature="0" d="m 9870.344,579.63 c 20.34,2.522 45.183,11.259 63.954,-3.427 -23.915,7.618 -44.079,-2.014 -67.283,4.551" id="path6814"/>
<path fill="#B2B2B2" style="fill:#F4F4F4" inkscape:connector-curvature="0" d="m 9951.328,565.015 c 7.099,-0.687 14.807,-0.03 21.828,0.228 -6.094,32.937 34.854,35.011 49.363,11.155 6.37,-3.406 8.385,-1.05 15.204,-7.808 -22.579,2.932 -61.073,33.804 -56.609,-8.771 -6.732,-0.125 -21.917,-0.17 -28.729,1.77 -6.926,5.29 2.519,6.192 2.271,6.799" id="path6816"/>
<path fill="#B2B2B2" style="fill:#F4F4F4" inkscape:connector-curvature="0" d="m 9880.329,549.276 c -2.479,7.479 -5.743,11.427 -0.085,18.883 -17.043,-9.247 -3.405,-11.946 1.193,-22.255" id="path6818"/>
<path fill="#B2B2B2" style="fill:#F4F4F4" inkscape:connector-curvature="0" d="m 9711.702,524.543 c -2.583,1.176 -2.988,9.253 -3.027,11.095 -0.541,-17.651 -2.952,-8.991 8.46,-22.108 -2.267,2.53 -5.166,8.424 -3.213,12.139" id="path6820"/>
<path fill="#B2B2B2" style="fill:#EAF3F9" inkscape:connector-curvature="0" d="m 9502.029,517.798 c 0.348,7.174 -5.943,12.625 3.215,22.286 -17.494,-6.444 -8.66,-13.768 -9.871,-25.659" id="path6822"/>
<path fill="#B2B2B2" style="fill:#EAF3F9" inkscape:connector-curvature="0" d="m 9647.359,542.531 c 10.258,-7.674 13.326,-17.282 28.754,-18.862 -20.898,-6.366 -22.771,3.219 -30.975,16.613" id="path6824"/>
<path fill="#B2B2B2" style="fill:#EAF3F9" inkscape:connector-curvature="0" d="m 9842.609,542.531 c -5.92,0.832 -9.518,-0.127 -12.176,6.325 -14.148,-10.069 -27.996,-10.171 -43.068,0.304 8.841,-19.008 30.969,-16.817 49.698,-7.754" id="path6826"/>
<path fill="#B2B2B2" style="fill:#EAF3F9" inkscape:connector-curvature="0" d="m 9916.938,531.288 c -10.807,3.372 -21.229,0.525 -30.896,8.825 0.039,-0.145 -0.22,-5.446 -0.247,-5.452 9.796,-10.574 16.556,-5.359 28.923,-6.746" id="path6828"/>
<path fill="#B2B2B2" style="fill:#EAF3F9" inkscape:connector-curvature="0" d="m 8951.773,522.295 c 14.063,2.439 25.017,1.482 35.474,16.751 0.021,-0.09 3.905,-4.784 4.243,-4.609 -5.878,-16.211 -19.271,-18.729 -36.389,-13.267" id="path6830"/>
<path fill="#B2B2B2" style="fill:#EAF3F9" inkscape:connector-curvature="0" d="m 9072.698,524.543 c 13.247,3.788 23.388,0.103 29.757,16.747 -16.537,-12.369 -35.563,-13.646 -54.051,-5.648 10.057,-10.727 20.563,-8.406 33.166,-9.974" id="path6832"/>
<path fill="#B2B2B2" style="fill:#EAF3F9" inkscape:connector-curvature="0" d="m 9137.041,545.904 c 9.691,-0.873 15.336,-5.033 23.243,2.408 12.206,-2.473 12.724,-3.742 24.565,-1.285 -15.771,8.104 -33.378,5.225 -47.808,-1.123" id="path6834"/>
<path fill="#B2B2B2" style="fill:#EAF3F9" inkscape:connector-curvature="0" d="m 9295.684,512.177 c -4.938,13.388 2.256,16.014 24.232,13.513 -5.08,-11.407 -13.871,-9.877 -25.344,-12.389" id="path6836"/>
</g>
</g>
</g></svg>
