<?xml version="1.0" encoding="UTF-8" standalone="no"?>
<!-- Generator: Adobe Illustrator 16.0.0, SVG Export Plug-In . SVG Version: 6.00 Build 0)  -->

<svg
   xmlns:dc="http://purl.org/dc/elements/1.1/"
   xmlns:cc="http://creativecommons.org/ns#"
   xmlns:rdf="http://www.w3.org/1999/02/22-rdf-syntax-ns#"
   xmlns:svg="http://www.w3.org/2000/svg"
   xmlns="http://www.w3.org/2000/svg"
   xmlns:sodipodi="http://sodipodi.sourceforge.net/DTD/sodipodi-0.dtd"
   xmlns:inkscape="http://www.inkscape.org/namespaces/inkscape"
   version="1.1"
   x="0px"
   y="0px"
   width="11143px"
   height="1080px"
   viewBox="0 0 11143 1080"
   enable-background="new 0 0 11143 1080"
   xml:space="preserve"
   id="svg4866"
   inkscape:version="0.48.2 r9819"
   sodipodi:docname="mountain.svg">
<metadata
   id="metadata4875">
<rdf:RDF>
<cc:Work
   rdf:about="">
<dc:format>image/svg+xml</dc:format>
<dc:type
   rdf:resource="http://purl.org/dc/dcmitype/StillImage" />
<dc:title>
</dc:title>
</cc:Work>
</rdf:RDF>
</metadata>
<defs
   id="defs4873" />
<sodipodi:namedview
   pagecolor="#ffffff"
   bordercolor="#666666"
   borderopacity="1"
   objecttolerance="10"
   gridtolerance="10"
   guidetolerance="10"
   inkscape:pageopacity="0"
   inkscape:pageshadow="2"
   inkscape:window-width="1089"
   inkscape:window-height="710"
   id="namedview4871"
   showgrid="false"
   inkscape:zoom="0.25271471"
   inkscape:cx="9516.9053"
   inkscape:cy="117.3431"
   inkscape:window-x="119"
   inkscape:window-y="1"
   inkscape:window-maximized="0"
   inkscape:current-layer="layer20" />

<g xmlns="http://www.w3.org/2000/svg" inkscape:groupmode="layer" xmlns:inkscape="http://www.inkscape.org/namespaces/inkscape" id="layer17" inkscape:label="cloud5" style="display:inline">
<g transform="translate(0.004,0)" id="Clouds">
<g id="g7023">
<path style="fill:#ffffff" inkscape:connector-curvature="0" d="m 10925.175,519.404 c 0.225,-0.446 0.343,-0.908 0.343,-1.382 0,-3.85 -7.781,-6.97 -17.378,-6.97 -8.251,0 -15.158,2.306 -16.936,5.399 -0.63,-0.146 -1.278,-0.277 -1.939,-0.389 2.538,-1.424 3.979,-3.054 3.979,-4.786 0,-5.587 -15.006,-10.118 -33.515,-10.118 -4.352,0 -8.51,0.25 -12.324,0.706 -2.742,-5.654 -10.082,-9.701 -18.708,-9.701 -10.968,0 -19.86,6.544 -19.86,14.616 0,0.235 0,0.469 0.02,0.701 -2.247,0.097 -4.386,0.458 -6.344,1.037 -3.36,-3.929 -8.62,-6.459 -14.532,-6.459 -1.281,0 -2.533,0.119 -3.74,0.345 -2.818,-1.476 -6.012,-2.474 -9.432,-2.861 -0.143,-0.096 -0.288,-0.191 -0.44,-0.285 -1.357,-4.775 -9.306,-8.441 -18.909,-8.441 -10.558,0 -19.116,4.429 -19.116,9.894 0,0.023 0,0.048 0,0.072 -1.288,-2.46 -3.737,-4.397 -6.766,-5.324 -0.419,-0.762 -0.9,-1.464 -1.437,-2.094 0.168,-0.894 0.257,-1.822 0.257,-2.772 0,-7.327 -5.225,-13.267 -11.668,-13.267 -6.443,0 -11.67,5.939 -11.67,13.267 0,1.811 0.32,3.537 0.899,5.11 -0.658,0.146 -1.301,0.312 -1.931,0.493 -4.095,-4.105 -10.34,-6.729 -17.339,-6.729 -12.34,0 -22.343,8.154 -22.343,18.213 0,0.3 0.01,0.598 0.03,0.894 -2.636,-2.813 -7.665,-4.717 -13.435,-4.717 -8.5,0 -15.392,4.128 -15.392,9.22 0,1.037 0.286,2.035 0.813,2.964 -0.665,-0.027 -1.353,-0.042 -2.054,-0.042 -0.624,0 -1.236,0.011 -1.833,0.033 -0.218,-1.769 -0.808,-3.435 -1.696,-4.936 1.454,-2.259 2.287,-4.886 2.287,-7.69 0,-8.443 -7.557,-15.291 -16.881,-15.291 -0.896,0 -1.776,0.065 -2.635,0.186 -2.783,-7.179 -10.332,-12.327 -19.21,-12.327 -11.244,0 -20.357,8.255 -20.357,18.438 0,4.877 2.09,9.311 5.504,12.608 -1.658,-0.298 -3.527,-0.465 -5.504,-0.465 -4.04,0 -7.627,0.699 -9.895,1.781 -1.681,-0.428 -3.57,-0.717 -5.588,-0.829 -0.917,-7.855 -8.863,-13.994 -18.53,-13.994 -5.072,0 -9.668,1.69 -13.025,4.432 -4.14,-1.377 -9.143,-2.183 -14.529,-2.183 -10.697,0 -19.872,3.171 -23.792,7.691 -0.341,-0.031 -0.686,-0.047 -1.034,-0.047 -1.154,0 -2.264,0.173 -3.303,0.486 -2.008,-11.738 -13.214,-20.723 -26.737,-20.723 -12.688,0 -23.333,7.909 -26.261,18.579 -0.136,0.127 -0.271,0.257 -0.402,0.388 -3.223,-0.634 -6.701,-0.979 -10.326,-0.979 -8.157,0 -15.56,1.748 -21.005,4.589 -0.87,0.037 -1.724,0.082 -2.554,0.136 -1.609,-0.436 -3.381,-0.678 -5.24,-0.678 -2.285,0 -4.437,0.364 -6.318,1.007 -3.257,-2.768 -8.994,-4.605 -15.528,-4.605 -4.871,0 -9.299,1.022 -12.587,2.688 -1.967,-0.265 -4.088,-0.417 -6.299,-0.436 0.01,-0.151 0.02,-0.3 0.02,-0.453 0,-6.457 -10.671,-11.692 -23.834,-11.692 -11.874,0 -21.719,4.261 -23.532,9.836 -1.505,-0.254 -3.106,-0.392 -4.769,-0.392 -3.107,0 -6.006,0.48 -8.454,1.31 0,-0.138 0.01,-0.274 0.01,-0.411 0,-9.189 -19.895,-16.639 -44.438,-16.639 -24.542,0 -44.438,7.45 -44.438,16.639 0,9.189 19.896,16.639 44.438,16.639 3.681,0 7.256,-0.168 10.676,-0.483 0,0.01 0,0.022 0,0.033 0,5.961 11.781,10.792 26.314,10.792 6.919,0 13.213,-1.095 17.91,-2.885 1.94,4.078 6.418,6.934 11.633,6.934 6.992,0 12.66,-5.134 12.66,-11.467 0,-2.511 -0.891,-4.832 -2.4,-6.72 1.423,0.129 2.889,0.197 4.387,0.197 2.443,0 4.803,-0.18 7.021,-0.515 3.442,1.932 9.463,3.214 16.315,3.214 1.68,0 3.309,-0.077 4.862,-0.222 3.361,2.324 8.607,3.819 14.501,3.819 1.562,0 3.077,-0.105 4.524,-0.303 -0.04,0.174 -0.06,0.35 -0.06,0.529 0,2.607 3.891,4.721 8.689,4.721 4.282,0 7.839,-1.684 8.555,-3.898 3.829,6.687 15.334,11.544 28.933,11.544 9.012,0 17.104,-2.134 22.652,-5.521 4.156,2.356 9.072,3.721 14.337,3.721 3.808,0 7.429,-0.713 10.714,-1.998 -0.02,0.363 -0.04,0.729 -0.04,1.098 0,9.687 8.669,17.539 19.364,17.539 7.343,0 13.732,-3.702 17.015,-9.158 1.311,2.993 4.534,5.112 8.308,5.112 4.014,0 7.41,-2.398 8.538,-5.698 0.225,0.049 0.458,0.097 0.699,0.146 0.144,0.101 0.292,0.155 0.443,0.155 0.07,0 0.138,-0.013 0.204,-0.033 4.681,0.841 11.968,1.383 20.154,1.383 14.121,0 25.57,-1.611 25.57,-3.598 0,-1.987 -11.449,-3.597 -25.57,-3.597 -7.176,0 -13.66,0.416 -18.305,1.085 0.117,-0.953 0.182,-2.004 0.182,-3.109 0,-4.346 -1,-7.87 -2.235,-7.87 -1.232,0 -2.233,3.523 -2.233,7.87 0,0.24 0,0.477 0.01,0.712 -1.552,-2.125 -4.178,-3.544 -7.178,-3.628 2.463,-1.996 4.041,-4.783 4.178,-7.885 3.044,-0.288 5.896,-0.837 8.457,-1.597 3.414,3.321 8.484,5.427 14.145,5.427 3.175,0 6.163,-0.662 8.777,-1.829 1.041,0.987 2.506,1.604 4.133,1.604 2.657,0 4.891,-1.644 5.526,-3.87 6.271,-0.331 11.341,-2.367 12.721,-5.018 0.915,0.077 1.872,0.119 2.855,0.119 1.216,0 2.39,-0.064 3.501,-0.182 0.381,2.061 5.126,3.749 11.344,4.143 2.21,4.32 6.737,7.282 11.966,7.282 1.64,0 3.209,-0.291 4.658,-0.823 2.771,3.237 7.104,5.32 11.975,5.32 6.921,0 12.757,-4.204 14.565,-9.946 0.748,0.034 1.523,0.052 2.316,0.052 3.06,0 5.843,-0.271 7.924,-0.717 2.477,1.019 5.477,1.618 8.709,1.618 1.818,0 3.562,-0.19 5.181,-0.536 1.052,3.635 5.891,6.381 11.701,6.381 4.264,0 8.004,-1.478 10.109,-3.702 2.689,0.936 5.649,1.454 8.759,1.454 1.874,0 3.693,-0.188 5.433,-0.543 0.901,0.062 1.823,0.094 2.761,0.094 2.937,0 5.721,-0.312 8.224,-0.868 1.099,1.395 2.716,2.432 4.599,2.876 3.239,3.016 8.397,5.254 14.471,6.131 1.943,2.678 5.337,4.453 9.2,4.453 4.839,0 8.942,-2.786 10.376,-6.645 2.171,-0.907 4.07,-2.024 5.612,-3.298 0.542,-0.031 1.074,-0.075 1.597,-0.134 0.08,0.166 0.154,0.328 0.233,0.491 -0.28,0.649 -0.44,1.385 -0.44,2.166 0,2.607 1.777,4.721 3.971,4.721 0.554,0 1.078,-0.133 1.556,-0.375 4.411,3.84 10.538,6.222 17.313,6.222 6.557,0 12.504,-2.229 16.879,-5.852 4.818,-0.115 9.174,-1.911 12.379,-4.764 2.719,1.032 5.867,1.622 9.223,1.622 1.931,0 3.793,-0.196 5.545,-0.558 4.169,1.96 11.357,3.255 19.529,3.255 12.888,0 23.335,-3.22 23.335,-7.195 0,-3.931 -10.226,-7.126 -22.922,-7.193 1.23,-0.333 2.402,-0.755 3.505,-1.253 5.692,1.347 12.865,2.15 20.659,2.15 1.765,0 3.496,-0.041 5.187,-0.12 -1.875,1.746 -2.953,3.786 -2.953,5.967 0,6.457 9.448,11.692 21.102,11.692 10.812,0 19.723,-4.504 20.956,-10.312 3.187,0.549 6.988,0.868 11.07,0.868 11.242,0 20.357,-2.417 20.357,-5.396 0,-2.006 -4.137,-3.758 -10.274,-4.688 z" id="path7025"/>
<path style="fill:#dbdbdb" inkscape:connector-curvature="0" d="m 10206.054,505.048 c 14.698,10.06 34.78,14.306 51.997,9.934 7.1,10.518 45.32,18.02 56.064,13.65 7.242,-2.946 5.891,-7.076 4.69,-14.15 4.892,-1.918 5.673,-1.709 9.46,-6.018 -3.969,0.545 -10.11,2.009 -14.911,2.684 -4.979,24.759 -65.636,4.094 -83.584,-0.243 -10.237,-2.474 -14.345,-1.868 -18.482,-12.421 -6.719,2.153 -3.866,4.771 -3.234,9.23" id="path7027"/>
<path style="fill:#dbdbdb" inkscape:connector-curvature="0" d="m 10398.721,513.715 c -10.695,25.76 40.805,12.571 53.535,13.407 8.207,0.539 13.443,1.967 21.662,-0.673 1.202,17.666 19.85,17.911 30.066,6.034 -14.33,9.153 -27.775,1.758 -19.333,-14.665 -15.89,7.639 -60.529,12.098 -77.233,8.624 -8.588,-1.786 -1.892,-12.815 0.566,-16.589 -7.674,0.563 -9.186,4.861 -13.264,9.862" id="path7029"/>
<path style="fill:#dbdbdb" inkscape:connector-curvature="0" d="m 10532.721,505.715 c -4.313,14.247 3.842,19.953 16.613,12.103 -11.146,2.086 -17.324,-7.758 -18.613,-11.436" id="path7031"/>
<path style="fill:#dbdbdb" inkscape:connector-curvature="0" d="m 10606.054,523.048 c 12.236,6.765 22.534,3.811 20,-10.762 -6.753,15.445 -24.516,12.183 -34.699,2.961 2.359,12.529 7.001,6.248 14.699,7.801" id="path7033"/>
<path style="fill:#dbdbdb" inkscape:connector-curvature="0" d="m 10660.054,515.048 c 2.285,9.521 2.504,14.426 16.061,8.632 -8.743,-1.925 -12.546,-7.66 -16.061,-9.965" id="path7035"/>
<path style="fill:#dbdbdb" inkscape:connector-curvature="0" d="m 10696.72,521.715 c 2.707,-4.554 8.518,-5.473 9.5,-12.598 2.609,15.102 16.876,22.957 29.36,12.75 0.179,-0.185 0.358,-0.369 0.538,-0.553 -0.18,0.189 -0.363,0.374 -0.553,0.553 -8.521,12.148 -23.084,13.056 -30.979,-0.053 -11.773,3.543 -13.683,4.214 -21.731,-4.032 6.069,6.45 10.273,2.817 16.531,3.934" id="path7037"/>
<path style="fill:#dbdbdb" inkscape:connector-curvature="0" d="m 10742.72,500.382 c -0.219,6.32 -6.429,10.412 5.783,13.349 0.916,-8 0.989,-7.805 4.313,-15.383 -4.295,-0.88 -8.163,0.77 -12.096,3.367" id="path7039"/>
<path style="fill:#dbdbdb" inkscape:connector-curvature="0" d="m 10756.72,531.715 c 12.726,10.496 30.909,6.899 35.902,-9.264 -10.113,8.228 -23.145,11.305 -35.799,8.032 0.405,3.827 2.545,2.528 5.23,4.566" id="path7041"/>
<path style="fill:#dbdbdb" inkscape:connector-curvature="0" d="m 10805.387,528.382 c 12.224,1.496 27.152,6.677 38.433,-2.032 -14.371,4.518 -26.488,-1.194 -40.433,2.699" id="path7043"/>
<path style="fill:#dbdbdb" inkscape:connector-curvature="0" d="m 10854.054,519.715 c 4.266,-0.407 8.897,-0.018 13.117,0.135 -3.662,19.531 20.945,20.761 29.664,6.615 3.828,-2.02 5.039,-0.622 9.137,-4.63 -13.568,1.739 -36.701,20.046 -34.019,-5.202 -4.046,-0.074 -13.171,-0.101 -17.265,1.049 -4.162,3.137 1.514,3.672 1.365,4.032" id="path7045"/>
<path style="fill:#dbdbdb" inkscape:connector-curvature="0" d="m 10811.388,510.382 c -1.49,4.435 -3.451,6.776 -0.05,11.198 -10.242,-5.484 -2.047,-7.084 0.717,-13.198" id="path7047"/>
<path style="fill:#dbdbdb" inkscape:connector-curvature="0" d="m 10710.054,495.715 c -1.553,0.697 -1.796,5.487 -1.819,6.579 -0.325,-10.467 -1.774,-5.332 5.084,-13.11 -1.362,1.5 -3.104,4.996 -1.931,7.198" id="path7049"/>
<path style="fill:#b9daed" inkscape:connector-curvature="0" d="m 10584.054,491.715 c 0.209,4.254 -3.571,7.487 1.932,13.216 -10.513,-3.821 -5.204,-8.164 -5.932,-15.216" id="path7051"/>
<path style="fill:#b9daed" inkscape:connector-curvature="0" d="m 10671.388,506.382 c 6.164,-4.551 8.008,-10.248 17.279,-11.185 -12.559,-3.775 -13.684,1.909 -18.613,9.852" id="path7053"/>
<path style="fill:#b9daed" inkscape:connector-curvature="0" d="m 10788.721,506.382 c -3.558,0.494 -5.72,-0.075 -7.317,3.751 -8.502,-5.971 -16.823,-6.032 -25.881,0.18 5.313,-11.272 18.61,-9.973 29.865,-4.598" id="path7055"/>
<path style="fill:#b9daed" inkscape:connector-curvature="0" d="m 10833.388,499.715 c -6.494,2 -12.758,0.312 -18.566,5.233 0.02,-0.086 -0.132,-3.229 -0.148,-3.233 5.887,-6.271 9.949,-3.178 17.381,-4" id="path7057"/>
<path style="fill:#b9daed" inkscape:connector-curvature="0" d="m 10253.385,494.382 c 8.451,1.446 15.033,0.879 21.317,9.934 0.01,-0.053 2.347,-2.837 2.55,-2.733 -3.532,-9.613 -11.581,-11.106 -21.867,-7.867" id="path7059"/>
<path style="fill:#b9daed" inkscape:connector-curvature="0" d="m 10326.053,495.715 c 7.961,2.246 14.055,0.061 17.882,9.931 -9.938,-7.335 -21.37,-8.092 -32.48,-3.35 6.043,-6.361 12.356,-4.985 19.931,-5.915" id="path7061"/>
<path style="fill:#b9daed" inkscape:connector-curvature="0" d="m 10364.719,508.382 c 5.824,-0.518 9.216,-2.984 13.968,1.428 7.335,-1.466 7.646,-2.219 14.763,-0.762 -9.479,4.806 -20.059,3.098 -28.731,-0.666" id="path7063"/>
<path style="fill:#b9daed" inkscape:connector-curvature="0" d="m 10460.053,488.382 c -2.967,7.939 1.355,9.497 14.563,8.013 -3.053,-6.764 -8.336,-5.857 -15.23,-7.347" id="path7065"/>
</g>
</g>
</g></svg>