<?xml version="1.0" encoding="utf-8"?>
<!-- Generator: Adobe Illustrator 16.0.0, SVG Export Plug-In . SVG Version: 6.00 Build 0)  -->
<!DOCTYPE svg PUBLIC "-//W3C//DTD SVG 1.1//EN" "http://www.w3.org/Graphics/SVG/1.1/DTD/svg11.dtd">
<svg version="1.1" xmlns="http://www.w3.org/2000/svg" xmlns:xlink="http://www.w3.org/1999/xlink" x="0px" y="0px" width="11143px"
	 height="1080px" viewBox="0 0 11143 1080" enable-background="new 0 0 11143 1080" xml:space="preserve">
<g id="Mountains_x5F_3rdRow">
	<g id="Layer_66">
		<path fill="#EDD8C5" d="M8550.949,349.042l14.407,33.78V441h24.044v50l58.164-4l7.172-46l35.762,2L8682,503l79.54,64l10.281-206
			l13.695-21.569L8807.104,365L8850,382.821l32.523-47.982L8902,382.821l-14,109.676L8908,540l54.968,52.184L9022,577.859V501
			l15.451-57.42L9058,463.512l16.561-7.512l24.122-53.48l83.107,23.286l22.21,27.313L9198,540h26.658L9256,627h54l-28.063-130
			l36.991-53.42l15.407-0.58l-15.014-30l20.194-23.447L9359.217,419c0,0-3.194-49.303,16.795-36.651C9396,395,9396,395,9396,395
			l6.872,66l20.756-30.19l23.911,50.11c0,0-25.539,52.08,10.461,76.08s36,24,36,24l12,82.434l29.973-171.815L9568,553.202
			l21.229,3.497L9638,688.022l48-24.589l2-85.574l21.188-70.562l35.898-14.8l33.527-13.822l32.801,74.526l47.961,11.652
			L9878,552.518h23.545L9942,519.316L9954,465l24-24l-2-32l32.41-26.651h61.438l18.152,43.457l2,15.194l33.987-21.542l18.013,33.661
			v151.557h56l67.473-133.721l25.618,16.087l38.147-95.328h57.208L10398,393l10.286,141.093L10406,555l34,22.859l37.324-112.53
			L10518,493l86.794-36.452L10632,467l10,85.518l-18,154.609l-1976.436-68.905L8494,487l51.785-137.755l0,0"/>
	</g>
	<path fill="#F8EFDC" d="M10685.935,507.297l-64.193,14.282l-16.947-65.031l-127.47,8.781l-8.595,78.408l-82.283-13.129V391.714
		h-57.208l-10.882,71.54l-52.884,7.701c0,0-0.091,111.81-0.091,111.836c0,0.146-74.77,1.578-79.882,1.69
		c-34.568,0.76-52.756,1.909-69.129-27.323c-4.485-8.008-2.277-19.11-10.598-25.353c-3.679-2.76-30.074-6.038-29.476-3.128
		c-4.628-22.473-6.404-46.176-6.954-69.077c-0.383-15.995,0.547-66.385,0.547-66.385l-61.48-10.866l-27.713,113.201l-107.792,7.887
		l-26.696,43.646l-54.004,12.67l-13.592-81.077l-69.426,28.622v134.867l-129.213,6.78l9.254-92.245l-39.629-9.616l-13.627-55.464
		l-56.57,29.961v74.547l-40.52-13.336l-15.255-151.981l-34.953,12.771l-12.663-61.231l-36.496,7.204l1.333,41.257l-21.921,12.771
		l-1.991,27.375l-49.818,20.664v91.172l-85.328,25.96V425.806l-83.107-23.286l4.28,60.734l-27.714,2.075l-2.548-34.52l-35.25,12.771
		v37.954h-35.928l-4.039,81.889l-123.313-10.204l8.352-218.379l-55.796,47.509h-31.884l-9.327-42.918l-38.251,11.101l-10.211,232.26
		l-64.768-56.957V430.81l-48.094,1.076v33.444l-73.244,5.626V349.042l-37.813,1.49l-16.449,80.278l-24.114-11.352l21.606,143.965
		l187.078,139.693l807.098,117.764l898.091-67.085l339.344-17.08L10685.935,507.297z"/>
	<g id="Layer_65_copy">
		<g id="Layer_66_copy">
			<polyline fill="#EDD8C5" points="8361.637,383.804 8373.639,404.806 8370.639,470.813 8406.642,479.813 8409.643,542.819 
				8316.633,527.818 8322.633,419.808 8361.637,383.804 			"/>
		</g>
		<path fill="#F8EFDC" d="M8193.501,628.152l88.007-2.278l-67.596-200.113l-23.846,2.729
			C8195.207,494.885,8196.61,561.645,8193.501,628.152z"/>
		<polygon fill="#F8EFDC" points="8205.621,476.813 8241.625,464.812 8244.625,425.808 8280.629,437.809 8283.629,389.804 
			8361.637,383.804 8361.637,449.811 8397.641,461.812 8391.641,518.817 8433.645,518.817 8427.644,449.811 8487.65,452.811 
			8565.657,626.828 8199.621,659.831 		"/>
	</g>
</g>
</svg>
