<?xml version="1.0" encoding="UTF-8" standalone="no"?>
<!-- Generator: Adobe Illustrator 16.0.0, SVG Export Plug-In . SVG Version: 6.00 Build 0)  -->

<svg
   xmlns:dc="http://purl.org/dc/elements/1.1/"
   xmlns:cc="http://creativecommons.org/ns#"
   xmlns:rdf="http://www.w3.org/1999/02/22-rdf-syntax-ns#"
   xmlns:svg="http://www.w3.org/2000/svg"
   xmlns="http://www.w3.org/2000/svg"
   xmlns:sodipodi="http://sodipodi.sourceforge.net/DTD/sodipodi-0.dtd"
   xmlns:inkscape="http://www.inkscape.org/namespaces/inkscape"
   version="1.1"
   x="0px"
   y="0px"
   width="11143px"
   height="1080px"
   viewBox="0 0 11143 1080"
   enable-background="new 0 0 11143 1080"
   xml:space="preserve"
   id="svg4866"
   inkscape:version="0.48.2 r9819"
   sodipodi:docname="mountain.svg">
<metadata
   id="metadata4875">
<rdf:RDF>
<cc:Work
   rdf:about="">
<dc:format>image/svg+xml</dc:format>
<dc:type
   rdf:resource="http://purl.org/dc/dcmitype/StillImage" />
<dc:title>
</dc:title>
</cc:Work>
</rdf:RDF>
</metadata>
<defs
   id="defs4873" />
<sodipodi:namedview
   pagecolor="#FF4C4C"
   bordercolor="#D11E1E"
   borderopacity="1"
   objecttolerance="10"
   gridtolerance="10"
   guidetolerance="10"
   inkscape:pageopacity="0"
   inkscape:pageshadow="2"
   inkscape:window-width="1089"
   inkscape:window-height="710"
   id="namedview4871"
   showgrid="false"
   inkscape:zoom="0.25271471"
   inkscape:cx="9516.9053"
   inkscape:cy="117.3431"
   inkscape:window-x="119"
   inkscape:window-y="1"
   inkscape:window-maximized="0"
   inkscape:current-layer="layer20" />

<g xmlns="http://www.w3.org/2000/svg" inkscape:groupmode="layer" xmlns:inkscape="http://www.inkscape.org/namespaces/inkscape" id="layer20" inkscape:label="mountains3" style="display:inline">
<g id="FRNT_x5F_mountains">
<g id="Layer_63">
<path fill="#B20000" style="fill:#E41507" inkscape:connector-curvature="0" d="m 11055.907,814.88 -20.039,8.696 7.522,15.952 -33.445,19.94 7.052,20.938 c 0,0 51.303,56.828 54.528,4.984 3.225,-51.844 3.226,-51.844 3.226,-51.844 l -18.844,-18.666" id="path7788"/>
<polyline fill="#B20000" style="fill:#E41507" points="10938.895,791.818 10952.81,807.624 10960.096,850.496 10938.895,856.478 10910.245,836.537     10938.895,791.818   " id="polyline7790"/>
<polygon fill="#B20000" style="fill:#E41507" points="10897.467,699 10889.784,733.761 10905.548,751.141 10905.548,807.624 10860.107,807.624 10860.107,709.139 10882.104,699 " id="polygon7792"/>
<polyline fill="#B20000" style="fill:#E41507" points="10639.059,758.771 10627.095,782.699 10643.48,782.699 10659.867,753.979   " id="polyline7794"/>
<path fill="#B20000" style="fill:#E41507" inkscape:connector-curvature="0" d="m 10476.849,741.953 7.674,12.026 -3.837,23.734 15.89,23.929 c 0,0 -52.523,62.812 -45.748,9.97 6.775,-52.842 6.775,-52.842 6.775,-52.842 l 19.246,-16.817" id="path7796"/>
<path fill="#B20000" style="fill:#E41507" inkscape:connector-curvature="0" d="m 10563.857,775.148 h -22.506 c 0,0 4.984,18.518 -18.943,32.476 -23.927,13.958 33.898,7.256 33.898,7.256 l 7.551,-39.732" id="path7798"/>
<polyline fill="#B20000" style="fill:#E41507" points="10097.609,776.374 10122.607,801.285 10160.494,891.017 10109.646,896.358 10080.733,801.285     10097.609,776.374   " id="polyline7800"/>
<polyline fill="#B20000" style="fill:#E41507" points="10386.84,700.744 10343.516,723.287 10290.242,849.499 10373.481,819.748 10386.84,700.744   " id="polyline7802"/>
<polyline fill="#B20000" style="fill:#E41507" points="9951.797,743.929 9902.68,761.393 9851.293,868.441 9909.531,868.441 9951.797,743.929   " id="polyline7804"/>
<polyline fill="#B20000" style="fill:#E41507" points="9700.008,824.891 9730.785,824.891 9765.68,868.441 9713.039,881.281 9686.916,840.366     9700.008,824.891   " id="polyline7806"/>
<polyline fill="#B20000" style="fill:#E41507" points="9537.686,693.718 9571.138,713.704 9618.316,810.261 9537.686,810.261 9537.686,690.914   " id="polyline7808"/>
<polyline fill="#B20000" style="fill:#E41507" points="8037.604,542.819 8117.729,571.987 8241.623,761.842 8082.607,827.848 8037.604,542.819   " id="polyline7810"/>
<polyline fill="#B20000" style="fill:#E41507" points="8619.663,614.827 8664.666,623.828 8700.67,704.836 8593.435,724.072 8619.663,614.827   " id="polyline7812"/>
</g>
<path fill="#B20000" style="fill:#F42D13" d="m 9540.75,687.46875 -97.4688,5.9375 L 9248,801.625 l -144.4688,28.1875 385.4181,33.63281 -241.3789,-8.19531 387.8241,52.05469 150.4612,23.83588 423.9653,21.13672 694.089,16.51177 349.039,-0.29687 3.957,-164.24224 -60.625,-21.78125 -83.281,28.28125 -57.094,-0.40625 -12.531,49.03125 -90.563,-15.0625 -13.906,-61.84375 -66.031,0 0,-80.71875 -45,4.875 0,30.09375 -168,0 -24,25.59375 -72.031,0 -18,28.90625 -69,-8.75 0,-60.28125 -42,0 -48,-23.25 -15,41.84375 -18,69.5625 -114.969,71.6875 -97.813,7.6875 -43.468,-116.25 -145.8126,-29.5625 -43.7187,113.75 L 9741.7812,872.25 9700,822.46875 9563.0625,796.15625 z" id="path7814" inkscape:connector-curvature="0" sodipodi:nodetypes="ccccccccccccccccccccccccccccccccccccccccc" xmlns:sodipodi="http://sodipodi.sourceforge.net/DTD/sodipodi-0.dtd"/>
<path fill="#B20000" style="fill:#F02810" inkscape:connector-curvature="0" d="m 10784.46,866.383 c -1.092,1.193 -2.205,2.367 -3.331,3.527 0.208,-0.161 0.397,-0.307 0.568,-0.436 0.642,-0.745 1.532,-1.745 2.763,-3.091 z" id="path7816"/>
<path fill="#B20000" style="fill:#F02810" inkscape:connector-curvature="0" d="m 11058.254,811.495 c 0.492,-0.37 0.984,-0.741 1.477,-1.111 l -3.823,-0.026 -0.925,3.619 c 1.088,-0.829 2.175,-1.66 3.271,-2.482 z" id="path7818"/>
<path fill="#B20000" style="fill:#F02810" inkscape:connector-curvature="0" d="m 9913.521,843.418 c 1.646,0.269 3.288,0.549 4.926,0.85 0.705,-3.319 1.623,-6.58 2.748,-9.768 -0.039,-0.409 -0.091,-0.816 -0.123,-1.226 -0.24,-3.007 -0.299,-5.976 -0.221,-8.913 l -7.33,19.057 z" id="path7820"/>
<path fill="#B20000" style="fill:#F02810" inkscape:connector-curvature="0" d="m 11129.079,842.861 c -11.831,1.047 -23.563,2.741 -35.279,4.662 -4.709,11.685 -18.325,22.607 -26.52,29.009 -1.61,1.258 -3.377,2.624 -5.258,4.023 -1.659,14.572 -5.003,28.445 -13.681,41.082 -10.611,15.45 -26.194,28.234 -42.883,36.641 -5.761,2.901 -20.604,10.463 -26.553,3.421 -9.885,-11.701 -16.717,-24.268 -21.143,-38.914 -3.729,-12.344 -4.916,-26.891 -10.893,-38.371 -0.752,-1.444 -1.557,-3.093 -2.833,-4.176 -0.304,0.01 -0.751,-0.013 -1.438,-0.096 -0.729,-0.088 -1.242,-0.159 -1.602,-0.217 -0.199,0.007 -0.428,0.014 -0.706,0.019 -2.383,0.046 -4.767,0.111 -7.149,0.124 -13.504,0.071 -26.911,-0.249 -40.358,-1.563 -25.572,-2.497 -54.365,-7.374 -78.175,-7.291 -7.096,0.024 -14.217,0.213 -21.272,1.02 -3.426,0.393 -6.856,0.805 -10.246,1.444 -0.894,0.169 -6.43,1.509 -4.742,0.965 -0.988,0.288 -1.978,0.574 -2.958,0.887 -8.38,7.784 -17.641,14.573 -27.919,19.751 -3.858,1.943 -22.849,11.313 -26.553,3.421 -15.49,-33.007 -40.971,-58.984 -73.598,-74.823 -2.993,16.378 -6.154,32.718 -10.699,48.763 -2.412,8.514 -11.312,17.064 -17.426,22.835 -8.675,8.187 -18.546,15.429 -29.217,20.804 -5.477,2.759 -124.739,-68.675 -142.673,-111.866 -0.382,1.744 -0.76,3.489 -1.175,5.23 -3.674,15.397 -66.171,66.876 -74.074,44.105 -1.624,-0.477 -2.888,-1.438 -3.621,-3.046 -2.294,-5.03 -4.322,-10.158 -6.199,-15.341 -26.653,23.373 -57.729,41.422 -91.546,52.708 -11.084,3.7 -22.34,6.8 -33.644,9.728 -8.06,2.903 -16.192,5.575 -24.406,7.98 -7.451,4.374 -15.343,7.599 -23.279,8.802 -37.397,5.671 -75.335,11.662 -113.288,12.471 -0.443,4.454 -106.129,-30.421 -132.074,-36.052 -27.57,-5.983 -136.541,9.913 -164.674,9.453 -27.527,-0.451 -55.099,-1.207 -80.575,-12.826 -23.919,-10.907 -45.784,-26.485 -70.743,-35.085 -20.702,-7.132 -42.443,-9.393 -63.85,-13.503 -19.508,-3.746 -42.801,-7.992 -58.258,-21.584 -15,-13.189 -17.941,-36.182 -22.099,-54.631 -2.018,-8.953 -3.989,-18.184 -8.239,-26.406 -13.959,2.37 -27.832,5.158 -41.576,8.498 -13.945,3.39 -29.631,6.639 -43.885,11.718 -3.25,1.158 -6.498,2.325 -9.69,3.638 -0.72,0.296 -1.301,0.533 -1.78,0.727 -0.517,0.247 -1.177,0.559 -2.044,0.964 -6.357,2.97 -12.655,6.058 -18.904,9.248 -28.944,14.777 -57.53,29.134 -89.274,36.877 -11.109,2.71 -11.659,-5.341 -9.327,-12.603 l -11.073,6.135 -144.469,28.21 -110.912,-77.507 -298.754,0 -74.21,-137.495 -210.021,-3.001 -78.008,138.014 -159.017,9.001 -135.014,-216.021 -369.037,0 -36.003,180.019 -1309.487,31.896 c 0.881,16.519 1.61,33.045 2.052,49.581 0.708,26.463 0.963,53.228 -0.171,79.915 l 1789.749,84.455 1105.19,-21.795 0.109,0.064 348.7638,96.3378 587.2532,-3.2609 1100.902,-0.3179 0,-196.317 c -42.108,-10.22 -84.992,-4.324 -127.845,-0.537 z" id="path7822" sodipodi:nodetypes="ccccccsccccccccccccccccccccccccccccccccccccccccccccccccccccccccccccccccccc" xmlns:sodipodi="http://sodipodi.sourceforge.net/DTD/sodipodi-0.dtd"/>
<path fill="#B20000" style="fill:#F02810" inkscape:connector-curvature="0" d="m 9964.179,746.419 -12.382,-2.51 -7.918,20.586 c 5.756,-6.785 12.834,-12.884 20.3,-18.076 z" id="path7824"/>
<path fill="#B20000" style="fill:#F02810" inkscape:connector-curvature="0" d="m 10071.068,770.189 c 3.374,0.015 6.84,-0.011 10.346,-0.004 l -30.245,-6.131 c 2.093,2.052 4.176,4.114 6.243,6.195 4.54,-0.028 9.09,-0.079 13.656,-0.06 z" id="path7826"/>
<path fill="#B20000" style="fill:#F73C2B" inkscape:connector-curvature="0" d="m 10756,749 c 1.166,5.515 5.687,9.466 6.295,15.697 14.279,0.521 31.692,-1.218 43.99,2.303 -46.151,10.216 -77.302,-16.773 -124.125,-22.445 20.172,-7.829 49.647,0.449 69.84,-5.555" id="path7828"/>
<polygon fill="#B20000" style="fill:#E41507" points="10688,807 10592,915 10660,759 10668,773 10710,775 10698,829 " id="polygon7830"/>
</g>
</g></svg>
