<?xml version="1.0" encoding="utf-8"?>
<!-- Generator: Adobe Illustrator 16.0.0, SVG Export Plug-In . SVG Version: 6.00 Build 0)  -->
<!DOCTYPE svg PUBLIC "-//W3C//DTD SVG 1.1//EN" "http://www.w3.org/Graphics/SVG/1.1/DTD/svg11.dtd">
<svg version="1.1" xmlns="http://www.w3.org/2000/svg" xmlns:xlink="http://www.w3.org/1999/xlink" x="0px" y="0px" width="11143px"
	 height="1080px" viewBox="0 0 11143 1080" enable-background="new 0 0 11143 1080" xml:space="preserve">
<g id="Clouds_copy">
	<g>
		<path fill="#FFFFFF" d="M10808.646,765.092c0.193-0.447,0.294-0.908,0.294-1.383c0-3.85-6.665-6.97-14.884-6.97
			c-7.067,0-12.983,2.306-14.506,5.399c-0.539-0.146-1.095-0.277-1.661-0.389c2.174-1.425,3.408-3.055,3.408-4.786
			c0-5.587-12.853-10.118-28.705-10.118c-3.728,0-7.289,0.25-10.556,0.706c-2.35-5.654-8.636-9.7-16.023-9.7
			c-9.395,0-17.011,6.543-17.011,14.615c0,0.235,0.007,0.469,0.019,0.701c-1.924,0.097-3.756,0.458-5.434,1.037
			c-2.878-3.93-7.383-6.46-12.446-6.46c-1.098,0-2.17,0.119-3.204,0.345c-2.414-1.476-5.148-2.475-8.078-2.861
			c-0.122-0.096-0.246-0.191-0.377-0.285c-1.163-4.775-7.971-8.441-16.196-8.441c-9.042,0-16.373,4.43-16.373,9.895
			c0,0.023,0.002,0.048,0.002,0.071c-1.104-2.46-3.201-4.397-5.795-5.323c-0.358-0.762-0.771-1.465-1.23-2.095
			c0.144-0.894,0.22-1.822,0.22-2.772c0-7.326-4.475-13.266-9.993-13.266s-9.995,5.939-9.995,13.266c0,1.811,0.273,3.537,0.77,5.111
			c-0.563,0.146-1.114,0.311-1.653,0.492c-3.507-4.104-8.856-6.729-14.851-6.729c-10.569,0-19.137,8.154-19.137,18.214
			c0,0.3,0.008,0.599,0.023,0.894c-2.258-2.813-6.565-4.717-11.507-4.717c-7.28,0-13.184,4.129-13.184,9.221
			c0,1.037,0.245,2.034,0.696,2.964c-0.57-0.027-1.158-0.042-1.76-0.042c-0.534,0-1.059,0.012-1.569,0.033
			c-0.187-1.769-0.692-3.435-1.453-4.936c1.245-2.258,1.959-4.886,1.959-7.689c0-8.443-6.473-15.291-14.458-15.291
			c-0.768,0-1.521,0.065-2.257,0.187c-2.384-7.179-8.85-12.327-16.454-12.327c-9.631,0-17.437,8.255-17.437,18.438
			c0,4.877,1.79,9.311,4.715,12.607c-1.421-0.297-3.021-0.465-4.715-0.465c-3.46,0-6.532,0.699-8.475,1.781
			c-1.439-0.428-3.058-0.718-4.786-0.829c-0.785-7.855-7.591-13.993-15.871-13.993c-4.345,0-8.28,1.689-11.156,4.432
			c-3.546-1.378-7.831-2.184-12.444-2.184c-9.162,0-17.021,3.171-20.378,7.691c-0.292-0.031-0.588-0.047-0.886-0.047
			c-0.989,0-1.939,0.173-2.829,0.486c-1.72-11.738-11.318-20.723-22.9-20.723c-10.867,0-19.985,7.909-22.493,18.579
			c-0.116,0.128-0.232,0.257-0.345,0.388c-2.76-0.633-5.739-0.979-8.844-0.979c-6.987,0-13.327,1.748-17.991,4.589
			c-0.745,0.036-1.477,0.082-2.188,0.136c-1.378-0.436-2.896-0.678-4.488-0.678c-1.957,0-3.8,0.365-5.411,1.008
			c-2.79-2.768-7.704-4.605-13.301-4.605c-4.172,0-7.965,1.021-10.78,2.688c-1.685-0.266-3.502-0.417-5.396-0.436
			c0.01-0.151,0.017-0.301,0.017-0.453c0-6.457-9.14-11.691-20.414-11.691c-10.17,0-18.603,4.26-20.155,9.836
			c-1.289-0.255-2.66-0.393-4.084-0.393c-2.662,0-5.145,0.48-7.241,1.311c0.007-0.139,0.011-0.274,0.011-0.411
			c0-9.189-17.04-16.64-38.061-16.64c-21.021,0-38.063,7.45-38.063,16.64s17.041,16.64,38.063,16.64
			c3.152,0,6.214-0.169,9.144-0.483c0,0.01,0,0.022,0,0.033c0,5.962,10.091,10.792,22.538,10.792c5.927,0,11.317-1.095,15.341-2.885
			c1.661,4.078,5.497,6.934,9.964,6.934c5.988,0,10.843-5.135,10.843-11.467c0-2.512-0.763-4.832-2.056-6.721
			c1.219,0.13,2.475,0.197,3.757,0.197c2.093,0,4.114-0.18,6.015-0.514c2.948,1.932,8.104,3.213,13.974,3.213
			c1.438,0,2.834-0.076,4.165-0.221c2.879,2.324,7.372,3.818,12.42,3.818c1.338,0,2.636-0.105,3.875-0.303
			c-0.03,0.174-0.047,0.35-0.047,0.529c0,2.606,3.332,4.721,7.442,4.721c3.667,0,6.714-1.684,7.327-3.898
			c3.279,6.687,13.134,11.544,24.781,11.544c7.719,0,14.648-2.134,19.401-5.521c3.56,2.356,7.771,3.721,12.28,3.721
			c3.261,0,6.362-0.713,9.176-1.998c-0.021,0.363-0.032,0.729-0.032,1.099c0,9.687,7.425,17.538,16.586,17.538
			c6.289,0,11.762-3.701,14.573-9.158c1.122,2.994,3.883,5.113,7.115,5.113c3.438,0,6.347-2.398,7.313-5.699
			c0.192,0.049,0.393,0.098,0.6,0.146c0.123,0.101,0.25,0.154,0.379,0.154c0.06,0,0.118-0.013,0.176-0.033
			c4.009,0.842,10.25,1.383,17.262,1.383c12.095,0,21.901-1.611,21.901-3.598s-9.807-3.598-21.901-3.598
			c-6.146,0-11.7,0.416-15.678,1.086c0.1-0.953,0.155-2.004,0.155-3.109c0-4.347-0.856-7.87-1.915-7.87
			c-1.055,0-1.912,3.523-1.912,7.87c0,0.24,0.003,0.477,0.008,0.711c-1.329-2.124-3.578-3.544-6.147-3.627
			c2.109-1.996,3.461-4.783,3.578-7.885c2.607-0.289,5.051-0.838,7.243-1.598c2.925,3.321,7.268,5.428,12.115,5.428
			c2.72,0,5.279-0.662,7.518-1.829c0.892,0.987,2.146,1.604,3.54,1.604c2.276,0,4.188-1.645,4.733-3.871
			c5.372-0.33,9.714-2.366,10.896-5.018c0.784,0.077,1.604,0.119,2.445,0.119c1.042,0,2.047-0.064,2.999-0.182
			c0.326,2.061,4.391,3.748,9.716,4.143c1.894,4.319,5.771,7.281,10.249,7.281c1.404,0,2.748-0.291,3.99-0.822
			c2.373,3.236,6.084,5.319,10.256,5.319c5.928,0,10.927-4.204,12.476-9.946c0.641,0.035,1.305,0.053,1.983,0.053
			c2.621,0,5.005-0.271,6.787-0.717c2.121,1.019,4.691,1.617,7.46,1.617c1.557,0,3.05-0.189,4.437-0.535
			c0.901,3.635,5.046,6.381,10.022,6.381c3.652,0,6.855-1.479,8.659-3.703c2.303,0.936,4.838,1.454,7.502,1.454
			c1.604,0,3.163-0.188,4.652-0.543c0.772,0.062,1.563,0.095,2.365,0.095c2.515,0,4.899-0.313,7.043-0.869
			c0.941,1.395,2.326,2.432,3.939,2.877c2.774,3.016,7.192,5.254,12.395,6.131c1.664,2.678,4.57,4.453,7.88,4.453
			c4.145,0,7.659-2.786,8.887-6.645c1.859-0.908,3.486-2.025,4.807-3.299c0.465-0.031,0.921-0.074,1.368-0.133
			c0.065,0.165,0.132,0.328,0.199,0.49c-0.239,0.648-0.377,1.385-0.377,2.166c0,2.606,1.522,4.721,3.401,4.721
			c0.474,0,0.923-0.134,1.332-0.375c3.778,3.84,9.026,6.221,14.828,6.221c5.616,0,10.71-2.229,14.457-5.852
			c4.127-0.115,7.857-1.911,10.603-4.764c2.329,1.031,5.025,1.621,7.899,1.621c1.654,0,3.249-0.195,4.749-0.557
			c3.571,1.96,9.729,3.255,16.728,3.255c11.038,0,19.986-3.22,19.986-7.194c0-3.932-8.758-7.127-19.633-7.193
			c1.054-0.334,2.058-0.756,3.002-1.254c4.876,1.348,11.02,2.15,17.695,2.15c1.511,0,2.994-0.041,4.442-0.119
			c-1.606,1.746-2.529,3.785-2.529,5.967c0,6.457,8.092,11.691,18.073,11.691c9.261,0,16.893-4.504,17.949-10.312
			c2.729,0.549,5.985,0.868,9.481,0.868c9.629,0,17.437-2.417,17.437-5.396C10817.446,767.773,10813.903,766.021,10808.646,765.092z
			"/>
		<path fill="#DBDBDB" d="M10192.713,750.735c12.59,10.06,29.79,14.306,44.536,9.934c6.081,10.519,38.817,18.02,48.021,13.65
			c6.203-2.946,5.045-7.076,4.017-14.149c4.19-1.919,4.859-1.71,8.103-6.018c-3.398,0.545-8.659,2.008-12.771,2.684
			c-4.264,24.759-56.217,4.094-71.59-0.242c-8.769-2.475-12.287-1.869-15.83-12.422c-5.755,2.153-3.313,4.771-2.771,9.23"/>
		<path fill="#DBDBDB" d="M10357.734,759.402c-9.16,25.76,34.949,12.57,45.854,13.406c7.029,0.539,11.515,1.967,18.554-0.674
			c1.029,17.666,17.001,17.912,25.752,6.035c-12.273,9.152-23.79,1.758-16.559-14.665c-13.609,7.639-51.844,12.099-66.151,8.624
			c-7.355-1.787-1.62-12.816,0.485-16.59c-6.573,0.564-7.868,4.861-11.36,9.863"/>
		<path fill="#DBDBDB" d="M10472.507,751.402c-3.694,14.246,3.29,19.952,14.229,12.103c-9.547,2.086-14.839-7.759-15.942-11.437"/>
		<path fill="#DBDBDB" d="M10535.317,768.735c10.48,6.765,19.3,3.811,17.13-10.762c-5.784,15.445-20.998,12.183-29.721,2.961
			C10524.748,773.463,10528.725,767.182,10535.317,768.735"/>
		<path fill="#DBDBDB" d="M10581.568,760.735c1.957,9.521,2.145,14.426,13.756,8.632c-7.488-1.926-10.745-7.66-13.756-9.965"/>
		<path fill="#DBDBDB" d="M10612.974,767.402c2.318-4.555,7.295-5.473,8.137-12.598c2.234,15.102,14.454,22.956,25.147,12.749
			c0.152-0.185,0.307-0.369,0.461-0.553c-0.154,0.189-0.312,0.374-0.474,0.553c-7.299,12.147-19.771,13.056-26.533-0.054
			c-10.085,3.543-11.72,4.215-18.613-4.031c5.198,6.449,8.799,2.816,14.159,3.934"/>
		<path fill="#DBDBDB" d="M10652.373,746.068c-0.188,6.32-5.507,10.412,4.953,13.35c0.784-8,0.848-7.805,3.693-15.383
			c-3.679-0.881-6.991,0.77-10.359,3.367"/>
		<path fill="#DBDBDB" d="M10706.048,774.068c10.47,1.496,23.256,6.678,32.917-2.031c-12.309,4.518-22.687-1.194-34.631,2.698"/>
		<path fill="#DBDBDB" d="M10747.731,765.402c3.653-0.407,7.62-0.019,11.234,0.135c-3.136,19.531,17.94,20.762,25.408,6.615
			c3.278-2.021,4.315-0.623,7.825-4.631c-11.621,1.739-31.435,20.047-29.137-5.201c-3.466-0.074-11.281-0.102-14.787,1.049
			c-3.565,3.138,1.296,3.673,1.169,4.033"/>
		<path fill="#DBDBDB" d="M10711.188,756.068c-1.276,4.436-2.956,6.777-0.044,11.198c-8.772-5.483-1.753-7.084,0.614-13.198"/>
		<path fill="#DBDBDB" d="M10624.394,741.402c-1.329,0.697-1.538,5.486-1.558,6.578c-0.279-10.467-1.521-5.331,4.354-13.109
			c-1.167,1.5-2.659,4.995-1.654,7.197"/>
		<path fill="#B9DAED" d="M10516.474,737.402c0.179,4.254-3.059,7.486,1.654,13.215c-9.004-3.82-4.457-8.164-5.08-15.215"/>
		<path fill="#B9DAED" d="M10591.276,752.068c5.279-4.551,6.858-10.248,14.8-11.185c-10.757-3.774-11.721,1.909-15.942,9.852"/>
		<path fill="#B9DAED" d="M10691.772,752.068c-3.047,0.494-4.898-0.074-6.267,3.752c-7.282-5.971-14.41-6.032-22.168,0.18
			c4.551-11.271,15.94-9.973,25.58-4.598"/>
		<path fill="#B9DAED" d="M10730.03,745.402c-5.562,1.999-10.927,0.311-15.902,5.232c0.021-0.086-0.112-3.229-0.127-3.232
			c5.042-6.271,8.521-3.178,14.887-4"/>
		<path fill="#B9DAED" d="M10233.253,740.068c7.238,1.447,12.876,0.879,18.259,9.934c0.011-0.053,2.01-2.836,2.184-2.732
			c-3.025-9.613-9.919-11.107-18.729-7.867"/>
		<path fill="#B9DAED" d="M10295.494,741.402c6.818,2.246,12.037,0.061,15.315,9.931c-8.512-7.335-18.304-8.092-27.819-3.35
			c5.176-6.36,10.583-4.985,17.07-5.915"/>
		<path fill="#B9DAED" d="M10328.611,754.068c4.988-0.518,7.894-2.984,11.964,1.429c6.282-1.466,6.549-2.219,12.645-0.762
			C10345.101,759.541,10336.039,757.834,10328.611,754.068"/>
		<path fill="#B9DAED" d="M10410.266,734.068c-2.541,7.939,1.161,9.497,12.473,8.014c-2.614-6.764-7.14-5.857-13.045-7.347"/>
	</g>
</g>
</svg>