<?xml version="1.0" encoding="utf-8"?>
<!-- Generator: Adobe Illustrator 16.0.0, SVG Export Plug-In . SVG Version: 6.00 Build 0)  -->
<!DOCTYPE svg PUBLIC "-//W3C//DTD SVG 1.1//EN" "http://www.w3.org/Graphics/SVG/1.1/DTD/svg11.dtd">
<svg version="1.1" xmlns="http://www.w3.org/2000/svg" xmlns:xlink="http://www.w3.org/1999/xlink" x="0px" y="0px" width="11143px"
	 height="1080px" viewBox="0 0 11143 1080" enable-background="new 0 0 11143 1080" xml:space="preserve">
<g id="FRNT_x5F_mountains">
	<g id="Layer_63">
		<path fill="#A54819" d="M11055.907,814.88l-20.039,8.696l7.522,15.952l-33.445,19.94l7.052,20.938c0,0,51.303,56.828,54.528,4.984
			s3.226-51.844,3.226-51.844L11055.907,814.88"/>
		<polyline fill="#A54819" points="10938.895,791.818 10952.81,807.624 10960.096,850.496 10938.895,856.478 10910.245,836.537 
			10938.895,791.818 		"/>
		<polygon fill="#A54819" points="10882.104,699 10897.467,699 10889.784,733.761 10905.548,751.141 10905.548,807.624 
			10860.107,807.624 10860.107,709.139 		"/>
		<polyline fill="#A54819" points="10639.059,758.771 10627.095,782.699 10643.48,782.699 10659.867,753.979 		"/>
		<path fill="#A54819" d="M10476.849,741.953l7.674,12.026l-3.837,23.734l15.89,23.929c0,0-52.523,62.812-45.748,9.97
			s6.775-52.842,6.775-52.842L10476.849,741.953"/>
		<path fill="#A54819" d="M10563.857,775.148h-22.506c0,0,4.984,18.518-18.943,32.476s33.898,7.256,33.898,7.256L10563.857,775.148"
			/>
		<polyline fill="#A54819" points="10097.609,776.374 10122.607,801.285 10160.494,891.017 10109.646,896.358 10080.733,801.285 
			10097.609,776.374 		"/>
		<polyline fill="#A54819" points="10386.84,700.744 10343.516,723.287 10290.242,849.499 10373.481,819.748 10386.84,700.744 		"/>
		<polyline fill="#A54819" points="9951.797,743.929 9902.68,761.393 9851.293,868.441 9909.531,868.441 9951.797,743.929 		"/>
		<polyline fill="#A54819" points="9700.008,824.891 9730.785,824.891 9765.68,868.441 9713.039,881.281 9686.916,840.366 
			9700.008,824.891 		"/>
		<polyline fill="#A54819" points="9537.686,693.718 9571.138,713.704 9618.316,810.261 9537.686,810.261 9537.686,690.914 		"/>
		<polyline fill="#A54819" points="8037.604,542.819 8117.729,571.987 8241.623,761.842 8082.607,827.848 8037.604,542.819 		"/>
		<polyline fill="#A54819" points="8619.663,614.827 8664.666,623.828 8700.67,704.836 8593.435,724.072 8619.663,614.827 		"/>
	</g>
	<path fill="#DD9640" d="M11196.277,782.471l-83.272,28.275l-57.098-0.389l-12.517,49.006l-90.581-15.057l-13.915-61.836h-66.006
		v-80.735l-45.005,4.881v30.099h-168.017l-24.002,25.599h-72.008l-18.002,28.909l-69.007-8.752v-60.298h-42.004l-48.005-23.229
		l-15.002,41.839l-18.001,69.574l-114.967,71.68l-97.794,7.671l-43.467-116.239l-145.813-29.56l-43.746,113.733l-166.275,14.604
		l-41.768-49.784l-136.955-26.301l-22.297-108.7l-97.458,5.96l-195.29,108.197l-144.469,28.21l-110.912-77.507h-298.754
		l-74.21-137.495l-210.021-3.001l-78.008,138.014l-159.017,9.001l-135.014-216.021h-369.037l-36.003,180.019l-1309.487,31.896
		c0.881,16.519,1.61,33.045,2.052,49.581c0.708,26.463,0.963,53.228-0.171,79.915l1789.749,84.455l1105.19-21.795l0.109,0.064
		l380.42-6.545l-330.778,115.45l1987.277-16.146V804.238L11196.277,782.471z"/>
	<path fill="#CE8638" d="M10784.46,866.383c-1.092,1.193-2.205,2.367-3.331,3.527c0.208-0.161,0.397-0.307,0.568-0.436
		C10782.339,868.729,10783.229,867.729,10784.46,866.383z"/>
	<path fill="#CE8638" d="M11058.254,811.495c0.492-0.37,0.984-0.741,1.477-1.111l-3.823-0.026l-0.925,3.619
		C11056.071,813.148,11057.158,812.317,11058.254,811.495z"/>
	<path fill="#CE8638" d="M9913.521,843.418c1.646,0.269,3.288,0.549,4.926,0.85c0.705-3.319,1.623-6.58,2.748-9.768
		c-0.039-0.409-0.091-0.816-0.123-1.226c-0.24-3.007-0.299-5.976-0.221-8.913L9913.521,843.418z"/>
	<path fill="#CE8638" d="M11129.079,842.861c-11.831,1.047-23.563,2.741-35.279,4.662c-4.709,11.685-18.325,22.607-26.52,29.009
		c-1.61,1.258-3.377,2.624-5.258,4.023c-1.659,14.572-5.003,28.445-13.681,41.082c-10.611,15.45-26.194,28.234-42.883,36.641
		c-5.761,2.901-20.604,10.463-26.553,3.421c-9.885-11.701-16.717-24.268-21.143-38.914c-3.729-12.344-4.916-26.891-10.893-38.371
		c-0.752-1.444-1.557-3.093-2.833-4.176c-0.304,0.01-0.751-0.013-1.438-0.096c-0.729-0.088-1.242-0.159-1.602-0.217
		c-0.199,0.007-0.428,0.014-0.706,0.019c-2.383,0.046-4.767,0.111-7.149,0.124c-13.504,0.071-26.911-0.249-40.358-1.563
		c-25.572-2.497-54.365-7.374-78.175-7.291c-7.096,0.024-14.217,0.213-21.272,1.02c-3.426,0.393-6.856,0.805-10.246,1.444
		c-0.894,0.169-6.43,1.509-4.742,0.965c-0.988,0.288-1.978,0.574-2.958,0.887c-8.38,7.784-17.641,14.573-27.919,19.751
		c-3.858,1.943-22.849,11.313-26.553,3.421c-15.49-33.007-40.971-58.984-73.598-74.823c-2.993,16.378-6.154,32.718-10.699,48.763
		c-2.412,8.514-11.312,17.064-17.426,22.835c-8.675,8.187-18.546,15.429-29.217,20.804c-5.477,2.759-124.739-68.675-142.673-111.866
		c-0.382,1.744-0.76,3.489-1.175,5.23c-3.674,15.397-66.171,66.876-74.074,44.105c-1.624-0.477-2.888-1.438-3.621-3.046
		c-2.294-5.03-4.322-10.158-6.199-15.341c-26.653,23.373-57.729,41.422-91.546,52.708c-11.084,3.7-22.34,6.8-33.644,9.728
		c-8.06,2.903-16.192,5.575-24.406,7.98c-7.451,4.374-15.343,7.599-23.279,8.802c-37.397,5.671-75.335,11.662-113.288,12.471
		c-0.443,4.454-106.129-30.421-132.074-36.052c-27.57-5.983-136.541,9.913-164.674,9.453c-27.527-0.451-55.099-1.207-80.575-12.826
		c-23.919-10.907-45.784-26.485-70.743-35.085c-20.702-7.132-42.443-9.393-63.85-13.503c-19.508-3.746-42.801-7.992-58.258-21.584
		c-15-13.189-17.941-36.182-22.099-54.631c-2.018-8.953-3.989-18.184-8.239-26.406c-13.959,2.37-27.832,5.158-41.576,8.498
		c-13.945,3.39-29.631,6.639-43.885,11.718c-3.25,1.158-6.498,2.325-9.69,3.638c-0.72,0.296-1.301,0.533-1.78,0.727
		c-0.517,0.247-1.177,0.559-2.044,0.964c-6.357,2.97-12.655,6.058-18.904,9.248c-28.944,14.777-57.53,29.134-89.274,36.877
		c-11.109,2.71-11.659-5.341-9.327-12.603l-11.073,6.135l-144.469,28.21l-110.912-77.507h-298.754l-74.21-137.495l-210.021-3.001
		l-78.008,138.014l-159.017,9.001l-135.014-216.021h-369.037l-36.003,180.019l-1309.487,31.896
		c0.881,16.519,1.61,33.045,2.052,49.581c0.708,26.463,0.963,53.228-0.171,79.915l1789.749,84.455l1105.19-21.795l0.109,0.064
		l380.42-6.545l-330.778,115.45l1987.277-16.146V843.398C11214.816,833.178,11171.932,839.074,11129.079,842.861z"/>
	<path fill="#CE8638" d="M9964.179,746.419l-12.382-2.51l-7.918,20.586C9949.635,757.71,9956.713,751.611,9964.179,746.419z"/>
	<path fill="#CE8638" d="M10071.068,770.189c3.374,0.015,6.84-0.011,10.346-0.004l-30.245-6.131
		c2.093,2.052,4.176,4.114,6.243,6.195C10061.952,770.221,10066.502,770.17,10071.068,770.189z"/>
	<path fill="#E5C991" d="M10756,749c1.166,5.515,5.687,9.466,6.295,15.697c14.279,0.521,31.692-1.218,43.99,2.303
		c-46.151,10.216-77.302-16.773-124.125-22.445c20.172-7.829,49.647,0.449,69.84-5.555"/>
	<polygon fill="#A54819" points="10668,773 10710,775 10698,829 10688,807 10592,915 10660,759 	"/>
</g>
</svg>