<?xml version="1.0" encoding="utf-8"?>
<!-- Generator: Adobe Illustrator 16.0.0, SVG Export Plug-In . SVG Version: 6.00 Build 0)  -->
<!DOCTYPE svg PUBLIC "-//W3C//DTD SVG 1.1//EN" "http://www.w3.org/Graphics/SVG/1.1/DTD/svg11.dtd">
<svg version="1.1" xmlns="http://www.w3.org/2000/svg" xmlns:xlink="http://www.w3.org/1999/xlink" x="0px" y="0px" width="9111px"
	 height="1080px" viewBox="0 0 9111 1080" enable-background="new 0 0 9111 1080" xml:space="preserve">

<g id="FRNT_x5F_mountains">
	<g id="Layer_63">
		<path fill="#E9D5BD" d="M9023.907,814.88l-20.039,8.696l7.522,15.952l-33.445,19.94l7.052,20.938c0,0,51.303,56.828,54.528,4.984
			s3.226-51.844,3.226-51.844L9023.907,814.88"/>
		<polyline fill="#E9D5BD" points="8906.895,791.818 8920.81,807.624 8928.096,850.496 8906.895,856.478 8878.245,836.537 
			8906.895,791.818 		"/>
		<polygon fill="#E9D5BD" points="8850.104,732.849 8865.467,732.849 8857.784,756.777 8873.548,768.741 8873.548,807.624 
			8828.107,807.624 8828.107,739.828 		"/>
		<polyline fill="#E9D5BD" points="8627.867,753.979 8607.059,758.771 8595.095,782.699 8611.48,782.699 8627.867,753.979 		"/>
		<path fill="#E9D5BD" d="M8444.849,741.953l7.674,12.026l-3.837,23.734l15.89,23.929c0,0-52.523,62.812-45.748,9.97
			s6.775-52.842,6.775-52.842L8444.849,741.953"/>
		<path fill="#E9D5BD" d="M8531.857,775.148h-22.506c0,0,4.984,18.518-18.943,32.476s33.898,7.256,33.898,7.256L8531.857,775.148"/>
		<polyline fill="#E9D5BD" points="8065.609,784.374 8090.608,807.624 8128.494,891.373 8077.647,896.358 8048.733,807.624 
			8065.609,784.374 		"/>
		<polyline fill="#E9D5BD" points="8354.84,722.744 8311.516,741.953 8258.242,849.499 8341.481,824.148 8354.84,722.744 		"/>
		<polyline fill="#E9D5BD" points="7919.796,759.929 7870.68,775.148 7819.293,868.441 7877.532,868.441 7919.796,759.929 		"/>
		<polyline fill="#E9D5BD" points="7668.008,824.891 7698.785,824.891 7733.68,868.441 7681.039,881.281 7654.917,840.366 
			7668.008,824.891 		"/>
		<polyline fill="#E9D5BD" points="7513.686,713.248 7543.819,729.885 7586.317,810.261 7513.686,810.261 7513.686,710.914 		"/>
		<polyline fill="#E9D5BD" points="6005.604,542.819 6085.729,571.987 6209.624,761.842 6050.607,827.848 6005.604,542.819 		"/>
		<polyline fill="#E9D5BD" points="6587.663,614.827 6632.666,623.828 6668.669,704.836 6561.435,724.072 6587.663,614.827 		"/>
	</g>
	<linearGradient id="SVGID_2_" gradientUnits="userSpaceOnUse" x1="6764.5361" y1="1073.5068" x2="6757.6377" y2="790.7006">
		<stop  offset="0.005" style="stop-color:#B2B2B5"/>
		<stop  offset="0.2934" style="stop-color:#DFD5C8"/>
		<stop  offset="0.475" style="stop-color:#FAEAD3"/>
		<stop  offset="0.5036" style="stop-color:#FBEBD3"/>
		<stop  offset="0.578" style="stop-color:#FDEDD4"/>
		<stop  offset="0.785" style="stop-color:#FEEDD5"/>
	</linearGradient>
	<path fill="url(#SVGID_2_)" d="M9164.277,782.471l-83.272,28.275l-57.098-0.389l-12.517,49.006l-90.581-15.057l-13.915-61.836
		h-66.006v-80.735l-45.005,4.881v30.099h-168.017l-24.002,25.599h-72.008l-18.002,28.909l-69.007-8.752v-60.298h-42.004
		l-48.005-23.229l-15.002,41.839l-18.001,69.574l-114.967,71.68l-97.794,7.671l-43.467-116.239l-145.813-29.56l-43.746,113.733
		l-166.275,14.604l-41.768-49.784l-136.955-26.301l-22.297-108.7l-97.458,5.96l-195.29,108.197l-144.468,28.21l-110.913-77.507
		h-298.754l-74.21-137.495l-210.021-3.001l-78.008,138.014l-159.016,9.001l-135.014-216.021h-369.037l-36.003,180.019
		l-1309.487,31.896c0.881,16.519,1.61,33.045,2.052,49.581c0.708,26.463,0.963,53.228-0.171,79.915l1789.749,84.455l1105.191-21.795
		l0.109,0.064l380.419-6.545l-330.778,115.45l1987.277-16.146V804.238L9164.277,782.471z"/>
</g>

</svg>
