<?xml version="1.0" encoding="utf-8"?>
<!-- Generator: Adobe Illustrator 16.0.0, SVG Export Plug-In . SVG Version: 6.00 Build 0)  -->
<!DOCTYPE svg PUBLIC "-//W3C//DTD SVG 1.1//EN" "http://www.w3.org/Graphics/SVG/1.1/DTD/svg11.dtd">
<svg version="1.1" xmlns="http://www.w3.org/2000/svg" xmlns:xlink="http://www.w3.org/1999/xlink" x="0px" y="0px" width="11143px"
	 height="1080px" viewBox="0 0 11143 1080" enable-background="new 0 0 11143 1080" xml:space="preserve">
<g id="MidGround">
	<path fill="#DD2A10" d="M4904.247,1311.816c110.667-100.395,264.901-180.336,390.858-260.912
		c135.193-86.485,276.273-167.906,428.309-221.054c146.609-51.251,301.743-67.589,452.19-103.807
		c165.405-39.819,327.629-91.76,493.284-130.776c361.364-85.112,660.41-35.438,1006.203,81.154
		c118.788,40.053,261.78,68.406,371.475,128.698C8046.568,805.121,8400,999.376,8400,999.376
		c33.958-3.617,68.016-6.307,102.055-9.029c190.71-15.256,382.035-23.185,573.335-25.085c85.512-0.85,171.04-0.478,256.536,1.362
		c42.402,0.913,85.352,0.521,127.588,4.408c28.824,2.652,60.939-5.338,88.959,3.768c-2.063-5.511-1.576-11.367-2.551-17.236
		c19.195,27.5,42.148,17.464,72.025,21.035c31.643,3.782,52.779,10.554,81.945-5.251c0.916-6.126,3.796-9.719,5.924-14.653
		c-0.91,27.052,9.152,16.701,24.007,22.572c7.954,3.145,11.444,10.061,19.858,12.649c6.258,1.926,16.388-0.129,22.947,0.342
		c9.205,0.66,95.1,17.454,98.332,8.997c0.307-0.811-1.422-2.424-1.162-3.926c10.408-0.344,18.178-5.057,28.05-0.44
		c11.712-10.802,32.667,6.71,44.438,9.899c23.063,6.248,50.215,6.158,74.014,9.451c49.364,6.831,98.619,14.472,147.713,23.038
		c95.447,16.653,190.338,36.768,283.986,61.665c864,229.7-156.909,542.058-156.909,542.058L4684.53,1513.115
		C4684.53,1513.115,4904.166,1311.89,4904.247,1311.816z"/>
	<path fill="#D62715" d="M11384,949.027c0,0-784.276-151.246-1856.139,164.363S9449.156,1317,9449.156,1317L11552,1525
		L11384,949.027z"/>
	<path fill="#D62715" d="M4200.222,617.827c420.927-160.071,1614.58-73.854,1995.179,352.659S5962.892,1805,5962.892,1805
		l-1600.295-248l-801.439-612.141C3561.158,944.859,3774.179,779.844,4200.222,617.827z"/>
	<g id="Layer_58">
		<path fill="#D82715" d="M7240.371,609.414c0,0-246.978-87.629-563.674,29.979s160.521,78.336,160.521,78.336
			S6566.567,597.856,7240.371,609.414z"/>
		<path fill="#D82715" d="M7412,663.434c0,0,151.57-3.766,163.785,28.9s-52.39,36.306-52.39,36.306S7412,690.604,7412,677.019"/>
	</g>
	<path fill="none" stroke="#B80600" stroke-width="2" stroke-miterlimit="10" d="M7135.791,554.662"/>
	<path fill="none" stroke="#B80600" stroke-width="2" stroke-miterlimit="10" d="M6497.82,639.393"/>
	<path fill="#DE2D1B" d="M4668.269,584.824c0,0,324.498,9.457,636.529,79.815s561.204,208.134,565.631,226.255
		c4.426,18.121-387.962-191.9-829.332-176.898C4599.728,728.998,4419.847,566.652,4668.269,584.824z"/>
	<g id="Layer_59">
		<path fill="#D12111" d="M4379.881,732.844"/>
	</g>
	<path fill="#D62715" d="M9762,1068c19.725-29.819,75.691-25.214,101.794-49.299c-6.172,8.682-13.739,17.374-21.086,25.545
		c38.452-21.156,92.264-37.404,134.688-48.232c-9.696,1.319-18.864,6.742-23.132,13.638c23.393,4.218,55.159-13.825,77.132-21.794
		c-2.353,1.947-5.185,3.952-7.183,5.737c29.731-2.445,56.16-19.938,83.581-32.79c-6.741,6.079-12.853,13.304-17.634,20.886
		c32.159-1.778,59.5-17.99,91.242-19.684c-1.758,0.841-4.694,1.203-6.694,2.097c13.568,1.795,26.5-0.646,31.848-13.402
		c0.625,0.665,1.467,4.858,1.793,5.004c21.613-3.561,41.876-19.313,63.937-19.698c-4.021,0.854-14.912,7.801-20.125,11.645
		c27.672,1.007,48.766-3.566,73.427-17.445c-1.097,4.236,0.131,8.877-1.388,13.491c43.481,3.7,95.031-0.399,131.402-27.491
		c-1.273,4.909,0.203,10.862-1.441,15.549c41.036-9.156,85.439-17.198,127.424-19.748c-17.961-0.208-34.328,8.341-51.517,12.484
		c47.826,9.329,93.189-19.185,140.257-24.478c-6.292,1.354-19.406,7.328-24.068,15.638c25.25,1.176,48.683,3.646,73.183,5.665
		c40.629,3.348,82.901-18.02,121.95-27.409c-19.23,6.738-37.064,19.076-52.674,32.189c33.43,1.932,65.268-17.075,97.165-23.787
		c-10.028,7.995-23.323,14.059-35.308,19.787c51.013-0.601,86.652,9.824,129.125-19.389c-0.511,3.919,0.885,8.974,0.509,12.989
		c42.239-0.913,83.237-6.91,125.325-3.69c-12.441,0.068-24.289,4.182-34.959,10.143c23.494-0.409,48.861-2.739,71.268,4.245
		c-75.967,26.816-156.808,13.521-235.528,12.806c-77.157-0.701-154.009,6.2-231.268,4.256c-65.446-1.647-131.158-2.93-196.616-1.025
		c-55.424,1.613-112.091,2.992-167.17,7.646c-73.454,6.207-139.431,48.284-210.436,63.522
		c-77.986,16.735-157.909,12.555-235.575,34.713C9830.039,1058.358,9798.144,1063.658,9762,1068"/>
	<path fill="#DD2D1B" d="M9982,1057c42.722-3.169,95.357-25.285,129.848-49.292c-8.246,13.336-22.955,24.782-35.236,34.989
		c20.256-2.422,40.453-14.189,59.057-20.235c17.283-5.617,35.719-9.872,53.688-19.611c-0.244-0.669-3.432,0.872-3.655,1.355
		c15.662-14.279,37.799-27.567,57.641-35.349c-13.636,6.986-21.897,22.196-31.182,33.491c3.174-2.663,6.655-3.9,10.132-5.986
		c1.951-2.607-4.797,3.354-4.086,4.232c18.194-1.365,94.469-29.187,91.349-47.435c-2.783,8.729-5.979,21.416-7.135,31.688
		c6.285-5.773,15.544-8.68,23.277-11.592c0.646,2.552-0.051,4.939,0.605,7.488c20.393-8.515,41.055-18.565,63.53-24.182
		c-2.331,0.065-5.311-0.37-9.285,0.483c19.608-1.014,50.687-2.775,63.645-19.234c-5.372,6.488-9.886,14.487-14.189,20.937
		c25.955-7.092,50.347-21.159,77.386-25.837c-7.929,3.104-15.215,8.105-22.777,11.69c35.838,3.442,83.626-5.803,116.869-19.794
		c-6.95,2.469-11.949,6.458-17.32,9.787c8.762-0.603,18.577-1.203,27.221-3.73c-16.418,11.41-33.638,25.92-52.872,32.225
		c25.322-1.409,43.165-15.495,63.857-23.633c25.058-9.854,53.215-8.795,79.157-12.502c-37.231,4.411-86.783,26.566-113.047,53.886
		c48.4-19.798,113.584-14.302,157.004-43.569c-41.304,24.106-91.096,49.656-139.729,53.871
		c-36.765,3.186-72.223,3.634-108.831,9.891c16.226-1.854,33.22-8.436,48.453-13.58c-58.906-3.229-109.601,31.596-165.207,31.143
		c33.235-30.106,104.718-31.148,147.107-47.189c-22.976-1.768-44.912,7.042-67.695,5.588c-0.918,0.386,7.564-3.256,9.81-4.082
		c-36.989,5.76-71.534,5.151-99.287,27.901c-41.353,33.897-89.504,40.742-136.522,63.426c29.893-20.932,61.959-38.271,93.944-55.42
		c-42.24,12.938-90.525,20.295-134.744,21.84c0.687-1.016,1.064-2.135,1.132-3.355c-88.552,17.067-176.613,40.08-269.3,39.69
		c19.979-3.044,51.535-10.317,65.389-17.993"/>
	<path fill="#DD2D1B" d="M10740,1057c-9.431,3.184-37.316,13.996-41.838-1.526c-4.903-16.834,42.631-30.484,53.137-38.666
		c-4.342,3.182-5.697,6.27-9.093,9.787c52.772,2.658,98.149-36.118,152.118-45.634c-17.914,4.162-69.884,25.94-78.062,43.736
		c45.608,2.265,94.658-9.184,139.118-19.801c-11.082,0.117-22.303,0.233-33.268-0.295c23.02-10.455,36.002-23.259,64.058-28.484
		c32.075-5.975,63.76-11.711,95.812-17.705c-27.281,6.878-61.266,18.526-85.521,34.332c8.743-1.801,19.385-2.782,28.927-1.841
		c-24.877,11.313-50.134,25.035-76.531,32.296c-30.132,8.289-60.918,7.375-90.911,17.686c-38.703,13.304-71.118,8.092-110.271,8.115
		c15.118-1.03,42.638-4.109,43.577,14.143c-19.313-0.363-38.461-2.978-57.538-2.149c-1.006,1.607,2.719-1.034,4.285-1.993"/>
</g>
</svg>
