<?xml version="1.0" encoding="utf-8"?>
<!-- Generator: Adobe Illustrator 16.0.0, SVG Export Plug-In . SVG Version: 6.00 Build 0)  -->
<!DOCTYPE svg PUBLIC "-//W3C//DTD SVG 1.1//EN" "http://www.w3.org/Graphics/SVG/1.1/DTD/svg11.dtd">
<svg version="1.1" xmlns="http://www.w3.org/2000/svg" xmlns:xlink="http://www.w3.org/1999/xlink" x="0px" y="0px" width="11143px"
	 height="1080px" viewBox="0 0 11143 1080" enable-background="new 0 0 11143 1080" xml:space="preserve">
<g id="Foreground">
	<g id="Ground">
		<g>
			<path fill="#B20000" d="M5522.672,866.852c152.111-19.624,304.875-34.584,457.528-50.777c268.316-28.464,533.252-52.653,803.756-33.856
				c325.235,22.602,638.873,97.024,967.421,89.514c164.23-3.755,356.209-0.65,511.805-53.122
				c75.185-25.354,143.856-66.468,223.111-81.728c148.947-28.68,304.066,33.961,454.012,33.961
				c93.943,0,268.186,203.97,567.695,249.423s544.879,98.98,544.879,98.98l-1109.207-12.37l-3293.049,45.005H4390.011
				l-27.415-257.785c0,0,370.622,28.783,630.932,28.783S5522.672,866.852,5522.672,866.852z"/>
			<path fill="#B20000" d="M6020.271,844.903l39.456-56.116c0,0,53.857-6.059,82.434,0s100.584,48.297,100.584,48.297L6020.271,844.903"/>
			<path fill="#B20000" d="M6837.217,749.889l-77.533,51.332l-82.988-51.332l-54.601,34.786c0,0-82.599-83.188-121.326-32.009s0,68.83,0,68.83
				l233.241,54.585L6837.217,749.889z"/>
			<path fill="#B20000" d="M7591.041,907.427l-51.897-64.813c0,0-39.466-11.305-84.373,16.968c-44.907,28.272-152.917,9.438-152.917,9.438v-35.916
				l-57.006-17.604l-38.289,29.404l-85.237,7.181c0,0-18.86-68.482-66.179-53.859s-110.319,38.859-110.319,38.859l246.403,76.616
				L7591.041,907.427z"/>
		</g>
	</g>
	<path fill="#B20000" d="M2173.217,881.889l83.821,51.332l89.718-51.332l59.029,34.786c0,0,89.297-83.188,131.166-32.009
		c41.868,51.18,0,68.83,0,68.83l-252.158,54.585L2173.217,881.889z"/>
	<path fill="#B20000" d="M3176.271,916.903l39.456-56.116c0,0,53.856-6.059,82.434,0c28.577,6.059,100.584,48.297,100.584,48.297L3176.271,916.903"
		/>
	<g id="Layer_16">
	</g>
	<g id="Layer_16_copy">
	</g>
	<g id="Layer_16_copy_3">
	</g>
	<g id="Layer_16_copy_2">
		<g>
			<path fill="#B20000" d="M7664.02,844.903c0,0,76.423,23.204,84.613,60.604c-6.094,4.171-6.094,4.171-6.094,4.171
				S7727.687,867.644,7664.02,844.903z"/>
			<path fill="#B20000" d="M7685.859,844.582c0,0,57.182,31.413,60.492,65.955c-5.046,2.872-5.046,2.872-5.046,2.872
				S7733.222,873.796,7685.859,844.582z"/>
			<path fill="#B20000" d="M7672.524,800.16c0,0,71.308,54.99,69.973,104.57c-7.233,3.148-7.233,3.148-7.233,3.148
				S7731.053,850.237,7672.524,800.16z"/>
			<path fill="#B20000" d="M7701.418,805.427c0,0,59.912,59.413,51.729,103.54c-7.295,1.773-7.295,1.773-7.295,1.773
				S7749.904,858.609,7701.418,805.427z"/>
		</g>
	</g>
	<g id="Layer_16_copy_4">
		<g>
			<path fill="#B20000" d="M7621.02,859.903c0,0,76.423,23.204,84.613,60.604c-6.094,4.171-6.094,4.171-6.094,4.171
				S7684.687,882.644,7621.02,859.903z"/>
			<path fill="#B20000" d="M7642.859,859.582c0,0,57.182,31.413,60.492,65.955c-5.046,2.872-5.046,2.872-5.046,2.872
				S7690.222,888.796,7642.859,859.582z"/>
			<path fill="#B20000" d="M7629.524,815.16c0,0,71.308,54.99,69.973,104.57c-7.233,3.148-7.233,3.148-7.233,3.148
				S7688.053,865.237,7629.524,815.16z"/>
			<path fill="#B20000" d="M7658.418,820.427c0,0,59.912,59.413,51.729,103.54c-7.295,1.773-7.295,1.773-7.295,1.773
				S7706.904,873.609,7658.418,820.427z"/>
		</g>
	</g>
	<g id="Layer_16_copy_6">
		<g>
			<path fill="#B20000" d="M6987.772,774.108c0,0-92.47,23.204-102.38,60.604c7.373,4.171,7.373,4.171,7.373,4.171
				S6910.737,796.849,6987.772,774.108z"/>
			<path fill="#B20000" d="M6961.347,773.787c0,0-69.188,31.413-73.194,65.955c6.105,2.872,6.105,2.872,6.105,2.872
				S6904.04,803.001,6961.347,773.787z"/>
			<path fill="#B20000" d="M6977.482,729.365c0,0-86.281,54.99-84.665,104.57c8.752,3.148,8.752,3.148,8.752,3.148
				S6906.664,779.442,6977.482,729.365z"/>
			<path fill="#B20000" d="M6942.521,734.632c0,0-72.492,59.413-62.591,103.54c8.826,1.773,8.826,1.773,8.826,1.773
				S6883.854,787.814,6942.521,734.632z"/>
		</g>
	</g>
	<g id="Layer_16_copy_5">
		<g>
			<path fill="#B20000" d="M7039.801,789.108c0,0-92.47,23.204-102.38,60.604c7.373,4.171,7.373,4.171,7.373,4.171
				S6962.766,811.849,7039.801,789.108z"/>
			<path fill="#B20000" d="M7013.375,788.787c0,0-69.188,31.413-73.194,65.955c6.105,2.872,6.105,2.872,6.105,2.872
				S6956.068,818.001,7013.375,788.787z"/>
			<path fill="#B20000" d="M7029.511,744.365c0,0-86.281,54.99-84.665,104.57c8.752,3.148,8.752,3.148,8.752,3.148
				S6958.693,794.442,7029.511,744.365z"/>
			<path fill="#B20000" d="M6994.55,749.632c0,0-72.492,59.413-62.591,103.54c8.827,1.773,8.827,1.773,8.827,1.773
				S6935.883,802.814,6994.55,749.632z"/>
		</g>
	</g>
	<g id="Layer_16_copy_8">
		<g>
			<path fill="#B20000" d="M8619.09,717.729c0,0-83.646,45.741-83.818,84.431c8.186,2.18,8.186,2.18,8.186,2.18S8550.264,759.135,8619.09,717.729z"
				/>
			<path fill="#B20000" d="M8593.435,724.072c0,0-59.048,47.823-54.226,82.261c6.631,1.242,6.631,1.242,6.631,1.242
				S8545.331,766.774,8593.435,724.072z"/>
			<path fill="#B20000" d="M8597.865,677.019c0,0-69.653,74.944-55.605,122.521c9.263,0.843,9.263,0.843,9.263,0.843
				S8541.939,743.314,8597.865,677.019z"/>
			<path fill="#B20000" d="M8565.356,690.919c0,0-55.194,75.753-34.501,115.965c8.988-0.507,8.988-0.507,8.988-0.507
				S8521.973,757.161,8565.356,690.919z"/>
		</g>
	</g>
	<g id="Layer_16_copy_7">
		<g>
			<path fill="#B20000" d="M8673.22,719.144c0,0-83.646,45.741-83.819,84.432c8.186,2.18,8.186,2.18,8.186,2.18S8604.394,760.55,8673.22,719.144z"
				/>
			<path fill="#B20000" d="M8647.564,725.487c0,0-59.047,47.822-54.227,82.261c6.633,1.241,6.633,1.241,6.633,1.241
				S8599.461,768.19,8647.564,725.487z"/>
			<path fill="#B20000" d="M8664.994,663.434c0,0-69.653,74.944-55.604,122.521c9.263,0.843,9.263,0.843,9.263,0.843
				S8609.068,729.729,8664.994,663.434z"/>
			<path fill="#B20000" d="M8619.486,692.334c0,0-55.195,75.753-34.501,115.965c8.988-0.507,8.988-0.507,8.988-0.507
				S8576.102,758.575,8619.486,692.334z"/>
		</g>
		<path fill="#B20000" d="M8702.41,762.449c-10.616-35.373-54.188-14.137-73.199-49.248c-19.475,13.274-58.363,6.874-82.125,5.956
			c-29.588-1.144-75.976,12.266-78.013,47.268C8545.176,783.854,8625.591,766.098,8702.41,762.449"/>
	</g>
	<g id="Layer_16_copy_10">
		<g>
			<path fill="#B20000" d="M8767.984,731.208c0,0-94.108,15.249-107.166,51.669c6.991,4.783,6.991,4.783,6.991,4.783
				S8689.294,747.31,8767.984,731.208z"/>
			<path fill="#B20000" d="M8741.681,728.64c0,0-71.609,25.409-78.541,59.484c5.838,3.382,5.838,3.382,5.838,3.382
				S8682.097,752.868,8741.681,728.64z"/>
			<path fill="#B20000" d="M8761.54,685.753c0,0-90.647,47.445-93.259,96.982c8.452,3.882,8.452,3.882,8.452,3.882
				S8686.717,729.619,8761.54,685.753z"/>
			<path fill="#B20000" d="M8726.258,688.022c0,0-77.286,53.027-71.177,97.837c8.643,2.518,8.643,2.518,8.643,2.518
				S8663.277,736.019,8726.258,688.022z"/>
		</g>
	</g>
	<g id="Layer_16_copy_12">
		<g>
			<path fill="#B20000" d="M6521.517,698.932c0,0,142.191,86.688,134.55,194.499c-15.284,10.079-15.284,10.079-15.284,10.079
				S6637.739,780.772,6521.517,698.932z"/>
			<path fill="#B20000" d="M6566.71,704.088c0,0,97.181,104.512,81.362,202.906c-12.274,6.706-12.274,6.706-12.274,6.706
				S6645.108,799.666,6566.71,704.088z"/>
			<path fill="#B20000" d="M6568.355,575.031c0,0,110.826,174.964,75.584,314.506c-16.961,6.878-16.961,6.878-16.961,6.878
				S6656.081,732.585,6568.355,575.031z"/>
			<path fill="#B20000" d="M6624.415,597.905c0,0,84.457,184.287,38.683,306.542c-16.185,2.979-16.185,2.979-16.185,2.979
				S6689.42,761.439,6624.415,597.905z"/>
		</g>
	</g>
	<g id="Layer_16_copy_9">
		<g>
			<path fill="#B20000" d="M8813.548,752.583c0,0-94.109,15.248-107.167,51.669c6.991,4.784,6.991,4.784,6.991,4.784
				S8734.856,768.684,8813.548,752.583z"/>
			<path fill="#B20000" d="M8787.245,750.014c0,0-71.609,25.409-78.543,59.484c5.841,3.382,5.841,3.382,5.841,3.382
				S8727.659,774.243,8787.245,750.014z"/>
			<path fill="#B20000" d="M8807.104,707.127c0,0-90.649,47.445-93.259,96.982c8.451,3.883,8.451,3.883,8.451,3.883
				S8732.28,750.993,8807.104,707.127z"/>
			<path fill="#B20000" d="M8771.821,709.398c0,0-77.287,53.026-71.178,97.836c8.644,2.518,8.644,2.518,8.644,2.518
				S8708.841,757.393,8771.821,709.398z"/>
		</g>
	</g>
	<g id="Layer_16_copy_13">
		<g>
			<path fill="#B20000" d="M6470.45,742.896c0,0-94.109,15.248-107.167,51.669c6.991,4.784,6.991,4.784,6.991,4.784
				S6391.759,758.997,6470.45,742.896z"/>
			<path fill="#B20000" d="M6444.147,740.327c0,0-71.609,25.409-78.543,59.484c5.841,3.382,5.841,3.382,5.841,3.382
				S6384.562,764.557,6444.147,740.327z"/>
			<path fill="#B20000" d="M6464.006,697.44c0,0-90.649,47.445-93.259,96.982c8.451,3.883,8.451,3.883,8.451,3.883
				S6389.183,741.307,6464.006,697.44z"/>
			<path fill="#B20000" d="M6428.724,699.712c0,0-77.287,53.026-71.178,97.836c8.644,2.518,8.644,2.518,8.644,2.518
				S6365.743,747.706,6428.724,699.712z"/>
		</g>
	</g>
	<g id="Layer_16_copy_14">
		<g>
			<path fill="#B20000" d="M5991.363,732.844c0,0,183.144,32.996,208.555,111.811c-13.606,10.353-13.606,10.353-13.606,10.353
				S6144.502,767.686,5991.363,732.844z"/>
			<path fill="#B20000" d="M6042.551,727.284c0,0,139.357,54.984,152.85,128.723c-11.367,7.318-11.367,7.318-11.367,7.318
				S6158.509,779.717,6042.551,727.284z"/>
			<path fill="#B20000" d="M6003.904,634.478c0,0,176.411,102.671,181.489,209.868c-16.447,8.402-16.447,8.402-16.447,8.402
				S6149.516,729.403,6003.904,634.478z"/>
			<path fill="#B20000" d="M6072.567,639.393c0,0,150.406,114.749,138.517,211.716c-16.821,5.448-16.821,5.448-16.821,5.448
				S6195.131,743.252,6072.567,639.393z"/>
		</g>
	</g>
	<g id="Layer_16_copy_15">
		<g>
			<path fill="#B20000" d="M5912.906,788.633c0,0,130.396,23.492,148.487,79.607c-9.687,7.37-9.687,7.37-9.687,7.37
				S6021.938,813.439,5912.906,788.633z"/>
			<path fill="#B20000" d="M5949.351,784.675c0,0,99.22,39.147,108.827,91.647c-8.093,5.211-8.093,5.211-8.093,5.211
				S6031.911,822.006,5949.351,784.675z"/>
			<path fill="#B20000" d="M5921.835,718.598c0,0,125.602,73.1,129.217,149.423c-11.71,5.982-11.71,5.982-11.71,5.982
				S6025.508,786.184,5921.835,718.598z"/>
			<path fill="#B20000" d="M5970.722,722.097c0,0,107.086,81.699,98.622,150.738c-11.977,3.879-11.977,3.879-11.977,3.879
				S6057.985,796.043,5970.722,722.097z"/>
		</g>
	</g>
	<g id="Layer_16_copy_11">
		<g>
			<path fill="#B20000" d="M7735.653,823.177c0,0-176.387,28.579-200.86,96.842c13.104,8.967,13.104,8.967,13.104,8.967
				S7588.164,853.354,7735.653,823.177z"/>
			<path fill="#B20000" d="M7686.354,818.361c0,0-134.215,47.623-147.211,111.489c10.947,6.339,10.947,6.339,10.947,6.339
				S7574.675,863.773,7686.354,818.361z"/>
			<path fill="#B20000" d="M7723.574,737.979c0,0-169.901,88.926-174.792,181.771c15.84,7.277,15.84,7.277,15.84,7.277
				S7583.336,820.197,7723.574,737.979z"/>
			<path fill="#B20000" d="M7657.446,742.237c0,0-144.857,99.386-133.406,183.371c16.2,4.719,16.2,4.719,16.2,4.719
				S7539.403,832.191,7657.446,742.237z"/>
		</g>
	</g>
	<g id="Layer_16_copy_16">
		<g>
			<path fill="#B20000" d="M4646.475,823.177c0,0-176.387,28.579-200.86,96.842c13.104,8.967,13.104,8.967,13.104,8.967
				S4498.986,853.354,4646.475,823.177z"/>
			<path fill="#B20000" d="M4597.176,818.361c0,0-134.215,47.623-147.211,111.489c10.947,6.339,10.947,6.339,10.947,6.339
				S4485.497,863.773,4597.176,818.361z"/>
			<path fill="#B20000" d="M4634.396,737.979c0,0-169.901,88.926-174.792,181.771c15.84,7.277,15.84,7.277,15.84,7.277
				S4494.158,820.197,4634.396,737.979z"/>
			<path fill="#B20000" d="M4568.268,742.237c0,0-144.857,99.386-133.406,183.371c16.2,4.719,16.2,4.719,16.2,4.719
				S4450.225,832.191,4568.268,742.237z"/>
		</g>
	</g>
	<g id="Layer_16_copy_24">
		<g>
			<path fill="#B20000" d="M9487.164,861.302c0,0-196.146,87.442-205.228,161.262c17.699,4.145,17.699,4.145,17.699,4.145
				S9324.924,940.443,9487.164,861.302z"/>
			<path fill="#B20000" d="M9428.734,873.458c0,0-141.955,91.362-138.99,157.059c14.463,2.356,14.463,2.356,14.463,2.356
				S9312.246,955.03,9428.734,873.458z"/>
			<path fill="#B20000" d="M9449.156,783.673c0,0-171.621,143.133-151.102,233.874c20.39,1.593,20.39,1.593,20.39,1.593
				S9309.984,910.275,9449.156,783.673z"/>
			<path fill="#B20000" d="M9373.799,810.261c0,0-139.678,144.646-102.734,221.325c20.085-0.985,20.085-0.985,20.085-0.985
				S9262.505,936.733,9373.799,810.261z"/>
		</g>
	</g>
	<g id="Layer_16_copy_25">
		<g>
			<path fill="#B20000" d="M10929.76,1015.585c0,0,168.94,51.638,183.91,107.772c-14.012,4.61-14.012,4.61-14.012,4.61
				S11070.196,1063.545,10929.76,1015.585z"/>
			<path fill="#B20000" d="M10978.664,1020.266c0,0,125.142,59,129.452,109.844c-11.555,2.974-11.555,2.974-11.555,2.974
				S11082.031,1073.766,10978.664,1020.266z"/>
			<path fill="#B20000" d="M10952.81,952.741c0,0,154.641,96.501,147.199,168.044c-16.467,2.86-16.467,2.86-16.467,2.86
				S11079.291,1039.109,10952.81,952.741z"/>
			<path fill="#B20000" d="M11016.997,967.183c0,0,128.741,100.228,106.466,162.253c-16.484,0.851-16.484,0.851-16.484,0.851
				S11120.727,1055.686,11016.997,967.183z"/>
		</g>
	</g>
	<g id="Layer_16_copy_26">
		<g>
			<path fill="#B20000" d="M9486.019,883.225c0,0-137.577,94.261-135.228,152.08c13.918,0.714,13.918,0.714,13.918,0.714
				S9373.073,966.412,9486.019,883.225z"/>
			<path fill="#B20000" d="M9443.298,900.661c0,0-96.058,89.729-85.603,139.651c11.244-0.206,11.244-0.206,11.244-0.206
				S9365.298,979.351,9443.298,900.661z"/>
			<path fill="#B20000" d="M9447.539,829.033c0,0-112.048,133.518-85.171,200.188c15.636-1.614,15.636-1.614,15.636-1.614
				S9357.992,945.376,9447.539,829.033z"/>
			<path fill="#B20000" d="M9393.808,859.879c0,0-87.673,130.237-50.122,183.849c15.085-3.547,15.085-3.547,15.085-3.547
				S9325.352,972.247,9393.808,859.879z"/>
		</g>
	</g>
	<g id="Layer_16_copy_17">
		<g>
			<path fill="#B20000" d="M4796.55,842.242c0,0-138.295,111.08-134.679,162.015c14.207-2.126,14.207-2.126,14.207-2.126
				S4683.139,938.593,4796.55,842.242z"/>
			<path fill="#B20000" d="M4753.356,866.215c0,0-96.052,98.819-84.336,141.123c11.46-2.412,11.46-2.412,11.46-2.412
				S4675.483,951.638,4753.356,866.215z"/>
			<path fill="#B20000" d="M4756.167,801.699c0,0-111.434,140.916-82.619,194.852c15.91-4.537,15.91-4.537,15.91-4.537
				S4667.317,922.885,4756.167,801.699z"/>
			<path fill="#B20000" d="M4702.031,839.777c0,0-86.649,133.164-47.226,173.377c15.306-6.146,15.306-6.146,15.306-6.146
				S4634.601,953.245,4702.031,839.777z"/>
		</g>
	</g>
	<g id="Layer_16_copy_18">
		<g>
			<path fill="#B20000" d="M4984.815,794.719c0,0-138.295,111.08-134.679,162.015c14.207-2.126,14.207-2.126,14.207-2.126
				S4871.404,891.069,4984.815,794.719z"/>
			<path fill="#B20000" d="M4941.621,818.691c0,0-96.052,98.819-84.336,141.123c11.46-2.412,11.46-2.412,11.46-2.412
				S4863.748,904.114,4941.621,818.691z"/>
			<path fill="#B20000" d="M4944.432,754.176c0,0-111.434,140.916-82.619,194.852c15.91-4.537,15.91-4.537,15.91-4.537
				S4855.582,875.361,4944.432,754.176z"/>
			<path fill="#B20000" d="M4890.295,792.254c0,0-86.649,133.164-47.226,173.377c15.306-6.146,15.306-6.146,15.306-6.146
				S4822.866,905.722,4890.295,792.254z"/>
		</g>
	</g>
	<g id="Layer_16_copy_19">
		<g>
			<path fill="#B20000" d="M5020.446,838.325c0,0-138.295,111.08-134.679,162.015c14.207-2.126,14.207-2.126,14.207-2.126
				S4907.035,934.676,5020.446,838.325z"/>
			<path fill="#B20000" d="M4977.251,862.298c0,0-96.052,98.819-84.337,141.123c11.461-2.412,11.461-2.412,11.461-2.412
				S4899.379,947.721,4977.251,862.298z"/>
			<path fill="#B20000" d="M4980.063,797.782c0,0-111.434,140.916-82.619,194.852c15.91-4.537,15.91-4.537,15.91-4.537
				S4891.212,918.968,4980.063,797.782z"/>
			<path fill="#B20000" d="M4925.926,835.86c0,0-86.649,133.164-47.226,173.377c15.306-6.146,15.306-6.146,15.306-6.146
				S4858.497,949.328,4925.926,835.86z"/>
		</g>
	</g>
	<g id="Layer_16_copy_20">
		<g>
			<path fill="#B20000" d="M5044.989,893.171c0,0,111.682,73.309,108.761,106.923c-11.473-1.403-11.473-1.403-11.473-1.403
				S5136.575,956.758,5044.989,893.171z"/>
			<path fill="#B20000" d="M5079.871,908.992c0,0,77.567,65.217,68.106,93.135c-9.255-1.592-9.255-1.592-9.255-1.592
				S5142.758,965.367,5079.871,908.992z"/>
			<path fill="#B20000" d="M5077.601,866.414c0,0,89.989,92.999,66.72,128.594c-12.848-2.994-12.848-2.994-12.848-2.994
				S5149.353,946.392,5077.601,866.414z"/>
			<path fill="#B20000" d="M5121.319,891.544c0,0,69.974,87.883,38.137,114.422c-12.361-4.056-12.361-4.056-12.361-4.056
				S5175.772,966.428,5121.319,891.544z"/>
		</g>
	</g>
	<g id="Layer_16_copy_21">
		<g>
			<path fill="#B20000" d="M5084.181,838.514c0,0,111.682,73.309,108.761,106.923c-11.473-1.403-11.473-1.403-11.473-1.403
				S5175.767,902.101,5084.181,838.514z"/>
			<path fill="#B20000" d="M5119.063,854.335c0,0,77.567,65.217,68.106,93.135c-9.255-1.592-9.255-1.592-9.255-1.592
				S5181.949,910.71,5119.063,854.335z"/>
			<path fill="#B20000" d="M5116.792,811.757c0,0,89.989,92.999,66.72,128.594c-12.848-2.994-12.848-2.994-12.848-2.994
				S5188.544,891.734,5116.792,811.757z"/>
			<path fill="#B20000" d="M5160.511,836.887c0,0,69.974,87.883,38.137,114.422c-12.361-4.056-12.361-4.056-12.361-4.056
				S5214.964,911.771,5160.511,836.887z"/>
		</g>
	</g>
	<g id="Layer_16_copy_28">
		<g>
			<path fill="#B20000" d="M3460.989,849.171c0,0,111.682,73.309,108.761,106.923c-11.473-1.403-11.473-1.403-11.473-1.403
				S3552.575,912.758,3460.989,849.171z"/>
			<path fill="#B20000" d="M3495.871,864.992c0,0,77.567,65.217,68.106,93.135c-9.255-1.592-9.255-1.592-9.255-1.592
				S3558.758,921.367,3495.871,864.992z"/>
			<path fill="#B20000" d="M3493.601,822.414c0,0,89.989,92.999,66.72,128.594c-12.848-2.994-12.848-2.994-12.848-2.994
				S3565.353,902.392,3493.601,822.414z"/>
			<path fill="#B20000" d="M3537.319,847.544c0,0,69.974,87.883,38.137,114.422c-12.361-4.056-12.361-4.056-12.361-4.056
				S3591.772,922.428,3537.319,847.544z"/>
		</g>
	</g>
	<g id="Layer_16_copy_27">
		<g>
			<path fill="#B20000" d="M3500.181,794.514c0,0,111.682,73.309,108.761,106.923c-11.473-1.403-11.473-1.403-11.473-1.403
				S3591.767,858.101,3500.181,794.514z"/>
			<path fill="#B20000" d="M3535.063,810.335c0,0,77.567,65.217,68.106,93.135c-9.255-1.592-9.255-1.592-9.255-1.592
				S3597.949,866.71,3535.063,810.335z"/>
			<path fill="#B20000" d="M3532.792,767.757c0,0,89.99,92.999,66.72,128.594c-12.848-2.994-12.848-2.994-12.848-2.994
				S3604.544,847.734,3532.792,767.757z"/>
			<path fill="#B20000" d="M3576.511,792.887c0,0,69.974,87.883,38.137,114.422c-12.361-4.056-12.361-4.056-12.361-4.056
				S3630.964,867.771,3576.511,792.887z"/>
		</g>
	</g>
	<g id="Layer_16_copy_30">
		<g>
			<path fill="#B20000" d="M4156.989,837.171c0,0,111.682,73.309,108.761,106.923c-11.473-1.403-11.473-1.403-11.473-1.403
				S4248.575,900.758,4156.989,837.171z"/>
			<path fill="#B20000" d="M4191.871,852.992c0,0,77.567,65.217,68.106,93.135c-9.255-1.592-9.255-1.592-9.255-1.592
				S4254.758,909.367,4191.871,852.992z"/>
			<path fill="#B20000" d="M4189.601,810.414c0,0,89.989,92.999,66.72,128.594c-12.848-2.994-12.848-2.994-12.848-2.994
				S4261.353,890.392,4189.601,810.414z"/>
			<path fill="#B20000" d="M4233.319,835.544c0,0,69.974,87.883,38.137,114.422c-12.361-4.056-12.361-4.056-12.361-4.056
				S4287.772,910.428,4233.319,835.544z"/>
		</g>
	</g>
	<g id="Layer_16_copy_29">
		<g>
			<path fill="#B20000" d="M4196.181,782.514c0,0,111.682,73.309,108.761,106.923c-11.473-1.403-11.473-1.403-11.473-1.403
				S4287.767,846.101,4196.181,782.514z"/>
			<path fill="#B20000" d="M4231.063,798.335c0,0,77.567,65.217,68.106,93.135c-9.255-1.592-9.255-1.592-9.255-1.592
				S4293.949,854.71,4231.063,798.335z"/>
			<path fill="#B20000" d="M4228.792,755.757c0,0,89.989,92.999,66.72,128.594c-12.848-2.994-12.848-2.994-12.848-2.994
				S4300.544,835.734,4228.792,755.757z"/>
			<path fill="#B20000" d="M4272.511,780.887c0,0,69.974,87.883,38.137,114.422c-12.361-4.056-12.361-4.056-12.361-4.056
				S4326.964,855.771,4272.511,780.887z"/>
		</g>
	</g>
	<g id="Layer_16_copy_23">
		<g>
			<path fill="#B20000" d="M5532.034,823.192c0,0,111.682,73.309,108.761,106.923c-11.473-1.403-11.473-1.403-11.473-1.403
				S5623.62,886.779,5532.034,823.192z"/>
			<path fill="#B20000" d="M5566.916,839.014c0,0,77.567,65.217,68.106,93.135c-9.255-1.592-9.255-1.592-9.255-1.592
				S5629.803,895.389,5566.916,839.014z"/>
			<path fill="#B20000" d="M5564.646,796.436c0,0,89.989,92.999,66.72,128.594c-12.848-2.994-12.848-2.994-12.848-2.994
				S5636.397,876.413,5564.646,796.436z"/>
			<path fill="#B20000" d="M5608.364,821.565c0,0,69.974,87.883,38.137,114.422c-12.361-4.056-12.361-4.056-12.361-4.056
				S5662.817,896.449,5608.364,821.565z"/>
		</g>
	</g>
	<g id="Layer_16_copy_22">
		<g>
			<path fill="#B20000" d="M5571.226,768.535c0,0,111.682,73.309,108.761,106.923c-11.473-1.403-11.473-1.403-11.473-1.403
				S5662.812,832.122,5571.226,768.535z"/>
			<path fill="#B20000" d="M5606.107,784.356c0,0,77.567,65.217,68.106,93.135c-9.255-1.592-9.255-1.592-9.255-1.592
				S5668.994,840.731,5606.107,784.356z"/>
			<path fill="#B20000" d="M5603.837,741.778c0,0,89.989,92.999,66.72,128.594c-12.848-2.994-12.848-2.994-12.848-2.994
				S5675.589,821.756,5603.837,741.778z"/>
			<path fill="#B20000" d="M5647.556,766.908c0,0,69.974,87.883,38.137,114.422c-12.361-4.056-12.361-4.056-12.361-4.056
				S5702.009,841.792,5647.556,766.908z"/>
		</g>
	</g>
	<g id="Reference" display="none">
	</g>
	<g id="Tree_x5F_01">
		<g id="Layer_7">
		</g>
		<g id="Layer_8">
		</g>
		<path fill="#B20000" id="Body_5_" d="M6905.107,220.552c-2.261,60.654-5.476,110.253-6.842,123.128c-5.911,55.757-37.942,100.609-44.601,156.358
			c-11.246,94.171-23.914,186.733-45.398,279.021c-6.488,27.87,0.005,66.76-0.01,95.789c9.227,4.813,115.447,53.119,114.774,59.863
			l30.604-307.3c14.262-71.912,16.86-170.308,50.125-234.984c5.739-11.158,18.299-16.268,23.461-27.459
			c12.359-26.794,10.124-71.015,14.393-100.737c-8.824,0.179-17.835-8.087-26.66-7.963c8.481-0.118,13.945-277.014,11.408-303.317
			c-47.022-7.838-95.095-16.004-141.584-23.636C6910.346-66.488,6909.635,99.17,6905.107,220.552z"/>
		<polygon fill="#B20000" id="Limb_x5F_R_17_" points="6963.806,403.965 6952.873,424.193 7016.249,434.427 7056.84,450.709 7103.334,501.726 
			7071.603,452.486 7009.412,418.048 		"/>
		<polygon fill="#B20000" id="Limb_x5F_UpR_5_" points="7004.943,114.673 7004.637,128.387 7041.073,116.589 7067.057,114.198 7105.618,128.647 
			7075.378,111.128 7032.989,109.75 		"/>
		<polygon fill="#B20000" id="Limb_x5F_L_5_" points="6900.172,489.916 6894.561,467.372 6856.334,489.69 6826.453,495.717 6774.261,475.107 
			6817.886,501.432 6868.936,500.267 		"/>
		<polyline fill="none" stroke="#B20000" stroke-width="7" stroke-miterlimit="10" points="6928.152,146.134 7101.282,46.182 
			7182.132,65.744 		"/>
		<path fill="none" stroke="#B20000" stroke-width="4" stroke-miterlimit="10" d="M7149.091,21.013l60.191,57.808
			c0,0,32.473,38.447,13.945,40.016"/>
		<path fill="none" stroke="#B20000" stroke-width="4" stroke-miterlimit="10" d="M7090.551,54.81c0,0,46.551-38.048,25.139-52.563"
			/>
		<polyline fill="none" stroke="#B20000" stroke-width="2" stroke-miterlimit="10" points="7191.226,31.208 7217.213,4.149 
			7218.55,-21.191 		"/>
		<polyline fill="none" stroke="#B20000" stroke-width="2" stroke-miterlimit="10" points="7200.924,70.791 7200.999,97.486 
			7212.193,133.124 		"/>
		<polyline fill="none" stroke="#B20000" stroke-width="2" stroke-miterlimit="10" points="7135.791,34.862 7143.458,1.084 
			7178.11,-9.203 		"/>
		
			<line fill="none" stroke="#B20000" stroke-width="2" stroke-miterlimit="10" x1="7153.835" y1="-4.701" x2="7147.179" y2="-38.907"/>
		<polyline fill="none" stroke="#B20000" stroke-width="7" stroke-miterlimit="10" points="6959.401,53.614 6824.929,82.953 
			6795.588,120.851 		"/>
		<path fill="none" stroke="#B20000" stroke-width="4" stroke-miterlimit="10" d="M6789.024,91.943v44.01
			c0,0,3.667,26.396,13.448,19.921"/>
		<path fill="none" stroke="#B20000" stroke-width="4" stroke-miterlimit="10" d="M6834.492,82.023c0,0-41.8,3.808-38.744-9.639"/>
		<polyline fill="none" stroke="#B20000" stroke-width="2" stroke-miterlimit="10" points="6773.733,111.694 6747.459,111.694 
			6734.011,102.946 		"/>
		<polyline fill="none" stroke="#B20000" stroke-width="2" stroke-miterlimit="10" points="6789.024,129.841 6802.472,139.621 
			6815.04,156.897 		"/>
		<polyline fill="none" stroke="#B20000" stroke-width="2" stroke-miterlimit="10" points="6802.472,91.943 6781.688,82.521 
			6759.684,91.943 		"/>
		
			<line fill="none" stroke="#B20000" stroke-width="2" stroke-miterlimit="10" x1="6773.733" y1="84.355" x2="6759.684" y2="69.328"/>
	</g>
	<g id="Tree_x5F_01_copy">
		<g id="Layer_7_copy_2">
		</g>
		<g id="Layer_8_copy_2">
		</g>
		<path fill="#B20000" id="Body_2_" d="M4938.955,234.401c-17.022,84.261-29.38,153.354-31.978,171.363
			c-11.263,77.994,10.896,144.552,0.491,222.636c-17.575,131.906-33.004,261.785-38.253,392.514
			c-1.584,39.479-21.591,92.395-30.959,132.57c-12.116,5.371-149.305,57.359-150.714,66.787l64.329-429.58
			c6.928-101.52,35.767-238.061,18.607-332.226c-2.961-16.245-15.684-25.075-17.974-41.286c-5.482-38.812,2.724-46.654,7.448-88.387
			c10.042,1.482,31.677-61.741,41.736-60.335c-9.668-1.351,73.604-385.333,85.012-421.379
			c56.352-4.267,114.012-8.841,169.687-12.897C5025.766-163.59,4973.019,65.777,4938.955,234.401z"/>
		<polygon fill="#B20000" id="Limb_x5F_R_5_" points="4781.03,448.268 4786.72,479.002 4710.734,484.91 4658.785,502.738 4588.364,569.889 
			4641.289,503.236 4724.084,462.218 		"/>
		<polygon fill="#B20000" id="Limb_x5F_UpR_2_" points="4831.525,24.826 4827.25,44.669 4789.528,22.537 4760.596,15.448 4711.588,30.913 
			4752.108,9.851 4801.086,13.794 		"/>
		<polygon fill="#B20000" id="Limb_x5F_L_2_" points="4824.869,581.268 4838.896,549.508 4875.119,587.078 4907.284,599.963 4973.971,577.51 
			4915.162,609.414 4857.127,600.588 		"/>
		<polyline fill="none" stroke="#B20000" stroke-width="7" stroke-miterlimit="10" points="4908.801,80.998 4744.366,-87.545 
			4645.233,-70.616 		"/>
		<path fill="none" stroke="#B20000" stroke-width="4" stroke-miterlimit="10" d="M4698.137-130.576l-88.388,75.039
			c0,0-50.134,50.966-29.458,55.824"/>
		<path fill="none" stroke="#B20000" stroke-width="4" stroke-miterlimit="10" d="M4753.737-73.586c0,0-40.445-61.45-11.043-79.41"
			/>
		<polyline fill="none" stroke="#B20000" stroke-width="2" stroke-miterlimit="10" points="4646.475,-121.753 4625.859,-164.457 
			4632.876,-201.23 		"/>
		<polyline fill="none" stroke="#B20000" stroke-width="2" stroke-miterlimit="10" points="4622.024,-65.958 4612.935,-27.426 
			4588.102,22.461 		"/>
		<polyline fill="none" stroke="#B20000" stroke-width="2" stroke-miterlimit="10" points="4708.689,-108.718 4711.306,-158.561 
			4675.117,-178.262 		"/>
		
			<line fill="none" stroke="#B20000" stroke-width="2" stroke-miterlimit="10" x1="4701.381" y1="-168.366" x2="4720.537" y2="-216.821"/>
		<polyline fill="none" stroke="#B20000" stroke-width="7" stroke-miterlimit="10" points="4904.244,-56.958 5048.253,4.222 
			5069.051,63.046 		"/>
		<path fill="none" stroke="#B20000" stroke-width="4" stroke-miterlimit="10" d="M5086.314,22.227L5071.47,85.77
			c0,0-13.101,37.597-22.111,26.88"/>
		<path fill="none" stroke="#B20000" stroke-width="4" stroke-miterlimit="10" d="M5037.622,1.541c0,0,46.557,11.348,47.594-8.495"
			/>
		<polyline fill="none" stroke="#B20000" stroke-width="2" stroke-miterlimit="10" points="5097.154,52.882 5127.224,56.56 
			5145.566,45.812 		"/>
		<polyline fill="none" stroke="#B20000" stroke-width="2" stroke-miterlimit="10" points="5073.532,76.945 5054.841,89.182 
			5034.63,112.367 		"/>
		<polyline fill="none" stroke="#B20000" stroke-width="2" stroke-miterlimit="10" points="5070.923,20.345 5097.888,9.65 
			5119.895,26.333 		"/>
		
			<line fill="none" stroke="#B20000" stroke-width="2" stroke-miterlimit="10" x1="5106.375" y1="13.411" x2="5127.521" y2="-6.319"/>
	</g>
	<g id="Tree_x5F_01_copy_2">
		<g id="Layer_7_copy_3">
		</g>
		<g id="Layer_8_copy_3">
		</g>
		<path fill="#B20000" id="Body_1_" d="M2187.347,74.851c3.376,91.407,4.686,166.132,4.458,185.521c-0.974,83.971-30.787,151.122-32.556,235.066
			c-2.99,141.806-7.646,281.167-21.71,419.978c-4.249,41.92,6.372,100.646,9.124,144.406
			c10.278,7.393,127.931,81.766,127.856,91.923l3.269-462.825c8.321-108.203,1.703-256.501,30.938-353.519
			c5.043-16.738,17.924-24.258,22.35-41.054c10.599-40.213,4.244-49.66,5.953-94.407c-9.375,0.14-19.993-69.702-29.372-69.645
			c9.015-0.054-11.574-417.411-16.782-457.1c-50.792-12.503-102.732-25.515-152.936-37.699
			C2165.551-357.802,2180.591-108.074,2187.347,74.851z"/>
		<polygon fill="#B20000" id="Limb_x5F_R_4_" points="2300.57,323.134 2290.947,354.786 2359.413,371.808 2404.232,398.008 2458.789,478.92 
			2420.121,401.017 2350.507,345.947 		"/>
		<polygon fill="#B20000" id="Limb_x5F_UpR_1_" points="2315.574,-131.246 2316.611,-109.682 2354.215,-127.705 2381.63,-131.086 
			2424.107,-107.799 2390.181,-135.793 2344.932,-138.579 		"/>
		<polygon fill="#B20000" id="Limb_x5F_L_1_" points="2241.398,457.38 2233.183,421.847 2194.72,456.386 2163.52,465.43 2105.923,432.254 
			2154.969,474.294 2209.185,473.208 		"/>
		<polyline fill="none" stroke="#B20000" stroke-width="7" stroke-miterlimit="10" points="2236.978,-82.887 2411.289,-237.559 
			2499.281,-205.613 		"/>
		<path fill="none" stroke="#B20000" stroke-width="4" stroke-miterlimit="10" d="M2459.667-276.445l69.81,91.794
			c0,0,38.384,60.941,18.822,63.138"/>
		<path fill="none" stroke="#B20000" stroke-width="4" stroke-miterlimit="10" d="M2400.727-224.146c0,0,45.757-59.16,21.526-82.301
			"/>
		<polyline fill="none" stroke="#B20000" stroke-width="2" stroke-miterlimit="10" points="2505.522,-259.797 2530.488,-301.972 
			2529.39,-341.807 		"/>
		<polyline fill="none" stroke="#B20000" stroke-width="2" stroke-miterlimit="10" points="2519.781,-197.4 2522.516,-155.415 
			2537.976,-99.203 		"/>
		<polyline fill="none" stroke="#B20000" stroke-width="2" stroke-miterlimit="10" points="2446.888,-254.858 2451.688,-307.87 
			2487.544,-323.542 		"/>
		
			<line fill="none" stroke="#B20000" stroke-width="2" stroke-miterlimit="10" x1="2462.157" y1="-316.818" x2="2451.671" y2="-370.711"/>
		<polyline fill="none" stroke="#B20000" stroke-width="7" stroke-miterlimit="10" points="2261.03,-227.94 2120.835,-183.76 
			2093.38,-124.585 		"/>
		<path fill="none" stroke="#B20000" stroke-width="4" stroke-miterlimit="10" d="M2083.518-170.146l4.378,69.217
			c0,0,6.53,41.566,16.295,31.527"/>
		<path fill="none" stroke="#B20000" stroke-width="4" stroke-miterlimit="10" d="M2130.92-185.083c0,0-44.108,5.378-42.192-15.725"
			/>
		<polyline fill="none" stroke="#B20000" stroke-width="2" stroke-miterlimit="10" points="2069.208,-139.307 2041.248,-139.689 
			2026.064,-153.644 		"/>
		<polyline fill="none" stroke="#B20000" stroke-width="2" stroke-miterlimit="10" points="2087.288,-110.541 2102.574,-94.965 
			2117.667,-67.611 		"/>
		<polyline fill="none" stroke="#B20000" stroke-width="2" stroke-miterlimit="10" points="2097.83,-169.948 2074.774,-185.071 
			2052.292,-170.573 		"/>
		
			<line fill="none" stroke="#B20000" stroke-width="2" stroke-miterlimit="10" x1="2066.489" y1="-182.302" x2="2050.044" y2="-206.141"/>
	</g>
	<g id="Layer_30">
	</g>
	<g id="Tree_x5F_02">
		<g id="Layer_7_copy">
		</g>
		<g id="Layer_8_copy">
		</g>
		<path fill="#B20000" id="Body_3_" d="M7643.885,194.785c19.099,75.034,16.477,140.171,16.055,156.688
			c-2.143,83.845,65.616,119.396,65.616,188.527c0,121.05,0,263.846-25.361,365.856c-8.826,35.503,26.921,93.753,37.424,129.26
			c13.517,2.398,243.716,0.251,245.301,8.754l-111.643-288.028c-7.868-93.34-59.072-384.64-59.072-384.64l-19.939-121.589
			c0,0-97.739-393.223-110.509-424.431c-62.834,8.193-127.13,16.384-189.208,24.628
			C7526.69-154.725,7605.666,44.625,7643.885,194.785z"/>
		<polygon fill="#B20000" id="Limb_x5F_R_15_" points="7700.179,253.188 7712.455,281.215 7775.06,223.086 7825.361,193.818 7916.943,186.779 
			7839.309,179.78 7752.276,216.858 		"/>
		<polygon fill="#B20000" id="Limb_x5F_UpR_3_" points="7700.194,-12.296 7704.988,5.318 7747.017,-23.513 7779.262,-36.387 7833.926,-32.533 
			7788.72,-43.451 7734.117,-29.181 		"/>
		<polygon fill="#B20000" id="Limb_x5F_L_3_" points="7839.697,573.266 7824.014,546.627 7783.68,589.555 7747.835,608.543 7673.453,601.98 
			7739.066,619.073 7803.758,598.284 		"/>
		<g id="twigs_x5F_R_1_">
			<polyline fill="none" stroke="#B20000" stroke-width="7" stroke-miterlimit="10" points="7773.81,231.111 7870.018,122.126 
				7924.784,115.806 			"/>
			<path fill="none" stroke="#B20000" stroke-width="4" stroke-miterlimit="10" d="M7896.945,93.667l47.197,24.398
				c0,0,26.541,18.047,14.891,23.568"/>
			<path fill="none" stroke="#B20000" stroke-width="4" stroke-miterlimit="10" d="M7864.415,130.518
				c0,0,24.208-36.823,8.318-41.431"/>
			<polyline fill="none" stroke="#B20000" stroke-width="2" stroke-miterlimit="10" points="7925.486,90.373 7938.137,65.902 
				7935.23,48.527 			"/>
			<polyline fill="none" stroke="#B20000" stroke-width="2" stroke-miterlimit="10" points="7937.588,114.675 7941.602,132.622 
				7954.076,153.907 			"/>
			<polyline fill="none" stroke="#B20000" stroke-width="2" stroke-miterlimit="10" points="7890.47,106.192 7890.372,81.613 
				7911.071,66.339 			"/>
			
				<line fill="none" stroke="#B20000" stroke-width="2" stroke-miterlimit="10" x1="7896.169" y1="75.218" x2="7886.816" y2="53.803"/>
		</g>
		<g id="twigs_x5F_L_1_">
			<polyline fill="none" stroke="#B20000" stroke-width="7" stroke-miterlimit="10" points="7725.556,328.792 7607.093,393.959 
				7590.037,437.843 			"/>
			<path fill="none" stroke="#B20000" stroke-width="4" stroke-miterlimit="10" d="M7575.785,412.449l12.284,41.45
				c0,0,10.821,23.837,18.228,15.009"/>
			<path fill="none" stroke="#B20000" stroke-width="4" stroke-miterlimit="10" d="M7615.841,390.414
				c0,0-38.308,15.254-39.183,1.737"/>
			<polyline fill="none" stroke="#B20000" stroke-width="2" stroke-miterlimit="10" points="7566.897,435.318 7542.15,442.652 
				7527.043,438.167 			"/>
			<polyline fill="none" stroke="#B20000" stroke-width="2" stroke-miterlimit="10" points="7586.364,448.143 7601.76,453.6 
				7618.42,466.363 			"/>
			<polyline fill="none" stroke="#B20000" stroke-width="2" stroke-miterlimit="10" points="7588.452,408.695 7566.247,405.622 
				7548.152,420.639 			"/>
			
				<line fill="none" stroke="#B20000" stroke-width="2" stroke-miterlimit="10" x1="7559.266" y1="409.57" x2="7541.84" y2="399.338"/>
		</g>
		<g id="Layer_10">
		</g>
	</g>
	<g id="SM_x5F_tree_x5F_01">
		<path fill="#B20000" d="M6724.84,341.325l-15.749,145.361c0,0,16.045,86.353-10.713,172.018c-26.757,85.663-21.204,146.974-21.204,146.974
			l21.431,2.266l-6.595-83.693l16.185-70.283l14.819-111.34l-3.253-55.275l17.739-177.318L6724.84,341.325z"/>
	</g>
	<g id="SM_x5F_tree_x5F_01_copy_4">
		<path fill="#B20000" d="M5689.574,279.615l-9.716,190.763c0,0,39.939,110.703,2.762,224.929c-37.177,114.225-19.326,193.426-19.326,193.426
			l38.858,0.735L5679.56,781.25l20.12-93.12l12.403-146.401l-12.938-71.586l9.203-232.551L5689.574,279.615z"/>
	</g>
	<g id="SM_x5F_tree_x5F_01_copy_7">
		<path fill="#B20000" d="M5627.313,135.878l27.378,234.906c0,0-6.764,139.071,25.215,277.835c31.979,138.762,32.468,237.611,32.468,237.611
			l-19.225,3.255l-1.564-134.956l-21.007-113.738l-23.469-179.98l-2.032-89.153l-32.063-286.523L5627.313,135.878z"/>
	</g>
	<g id="SM_x5F_tree_x5F_01_copy_8">
		<path fill="#B20000" d="M5321.76-64.62l-14.176,329.665c0,0-144.919,171.065-59.355,382.391c85.562,211.321,14.04,338.47,14.04,338.47
			l-116.702-16.003l92.326-174.534l-39.199-167.749l-3.956-255.198l55.057-116.345l25.199-400.706L5321.76-64.62z"/>
	</g>
	<g id="SM_x5F_tree_x5F_01_copy_9">
		<path fill="#B20000" d="M4525.597-4.602l39.613,325.661c0,0,56.717,184.914,57.229,382.714c0.512,197.797,33.155,331.049,33.155,331.049
			l28.936-2.219l-43.27-182.234l-7.957-160.338l-26.741-250.369l-27.138-120.728L4529.18-77.828L4525.597-4.602z"/>
	</g>
	<g id="SM_x5F_tree_x5F_01_copy">
		<path fill="#B20000" d="M6742.62-58.165l-11.441,307c0,0,36.611,179.052,0,362.26c-36.61,183.203-20.593,311.094-20.593,311.094l36.865,1.953
			l-20.176-174.711l20.176-149.555l13.475-235.509l-11.44-115.532l11.44-374.3L6742.62-58.165z"/>
	</g>
	<g id="SM_x5F_tree_x5F_01_copy_3">
		<path fill="#B20000" d="M7876.173,320.073l7.507,201.523c0,0,39.125,114.648,19.698,236.898c-19.428,122.246,0.385,204.813,0.385,204.813
			l29.698-1.184l-25.695-112.904l8.063-99.148l-1.986-154.908l-15.468-74.788l-11.166-245.534L7876.173,320.073z"/>
	</g>
	<g id="SM_x5F_tree_x5F_01_copy_2">
		<path fill="#B20000" d="M7945.832-43.149l33.085,305.426c0,0,62.126,171.873,52.4,358.45c-9.725,186.571,24.622,310.801,24.622,310.801l36.76-3.4
			l-45.235-169.955l-1.669-150.9l-20.733-234.981l-28.03-112.662l-42.822-372.018L7945.832-43.149z"/>
	</g>
	<g id="SM_x5F_tree_x5F_01_copy_5">
		<path fill="#B20000" d="M5842.78-67.348l39.329,305.058c0,0-48.485,182.687,24.128,361.454c72.61,178.764,54.701,308.135,54.701,308.135
			l-60.699,6.01l21.655-176.545l-43.252-147.002l-37.92-233.5l11.18-116.535l-43.807-372.208L5842.78-67.348z"/>
		<polygon fill="#B20000" id="Limb_x5F_R_14_" points="5855.684,279.912 5844.751,300.14 5908.127,310.374 5948.718,326.656 5995.212,377.672 
			5963.481,328.433 5901.29,293.995 		"/>
		<polygon fill="#B20000" id="Limb_x5F_R_13_" points="5847.324,116.834 5850.477,124.596 5868.039,109.151 5882.023,101.514 5907.139,100.265 
			5885.944,97.775 5861.851,107.277 		"/>
		<polygon fill="#B20000" id="Limb_x5F_R_12_" points="5906.271,606.608 5895.655,616.436 5878.351,553.568 5861.25,512.854 5821.652,464.719 
			5857.595,498.238 5889.663,561.059 		"/>
	</g>
	<g id="SM_x5F_tree_x5F_01_copy_14">
		<path fill="#B20000" d="M4073.574,282.615l-9.716,190.763c0,0,39.939,110.703,2.762,224.929c-37.177,114.225-19.326,193.426-19.326,193.426
			l38.858,0.735L4063.56,784.25l20.12-93.12l12.403-146.401l-12.938-71.586l9.203-232.551L4073.574,282.615z"/>
	</g>
	<g id="SM_x5F_tree_x5F_01_copy_13">
		<path fill="#B20000" d="M4011.313,138.878l27.378,234.906c0,0-6.764,139.071,25.215,277.835c31.979,138.762,32.468,237.611,32.468,237.611
			l-19.225,3.255l-1.564-134.956l-21.007-113.738l-23.469-179.98l-2.032-89.153l-32.063-286.523L4011.313,138.878z"/>
	</g>
	<g id="SM_x5F_tree_x5F_01_copy_12">
		<path fill="#B20000" d="M3705.76-61.62l-14.177,329.665c0,0-144.919,171.065-59.355,382.391c85.562,211.321,14.04,338.47,14.04,338.47
			l-116.702-16.003l92.326-174.534l-39.199-167.749l-3.956-255.198l55.057-116.345l25.199-400.706L3705.76-61.62z"/>
	</g>
	<g id="SM_x5F_tree_x5F_01_copy_11">
		<path fill="#B20000" d="M2909.597-1.602l39.613,325.661c0,0,56.717,184.914,57.229,382.714c0.512,197.797,33.155,331.049,33.155,331.049
			l28.936-2.219l-43.27-182.234l-7.957-160.338l-26.741-250.369l-27.138-120.728L2913.18-74.828L2909.597-1.602z"/>
	</g>
	<g id="SM_x5F_tree_x5F_01_copy_10">
		<path fill="#B20000" d="M4226.78-64.348l39.329,305.058c0,0-48.485,182.687,24.128,361.454c72.61,178.764,54.701,308.135,54.701,308.135
			l-60.699,6.01l21.655-176.545l-43.252-147.002l-37.92-233.5l11.18-116.535l-43.807-372.208L4226.78-64.348z"/>
		<polygon fill="#B20000" id="Limb_x5F_R_3_" points="4239.684,282.912 4228.751,303.14 4292.127,313.374 4332.718,329.656 4379.212,380.672 
			4347.481,331.433 4285.29,296.995 		"/>
		<polygon fill="#B20000" id="Limb_x5F_R_2_" points="4231.324,119.834 4234.477,127.596 4252.039,112.151 4266.023,104.514 4291.139,103.265 
			4269.944,100.775 4245.851,110.277 		"/>
		<polygon fill="#B20000" id="Limb_x5F_R_1_" points="4290.271,609.608 4279.655,619.436 4262.351,556.568 4245.25,515.854 4205.652,467.719 
			4241.595,501.238 4273.663,564.059 		"/>
	</g>
	<g id="SM_x5F_tree_x5F_01_copy_6">
		<path fill="#B20000" d="M7873.913-40.932l148.114,274.079c0,0-22.228,197.37,140.895,335.115c163.116,137.743,172.669,269.935,172.669,269.935
			l-91.744,33.761l-17.323-179.108l-108.795-120.861l-125.407-206.182l-16.23-116.791L7801.807-87.323L7873.913-40.932z"/>
		<polygon fill="#B20000" id="Limb_x5F_R_8_" points="7993.449,285.764 7982.42,310.186 8082.948,290.749 8150.125,287.619 8236.362,315.039 
			8173.369,282.51 8067.719,278.214 		"/>
		<polygon fill="#B20000" id="Limb_x5F_R_7_" points="7933.771,133.406 7940.853,139.386 7963.465,116.488 7982.807,102.72 8021.123,89.937 
			7987.771,97.33 7953.397,117.548 		"/>
		<polygon fill="#B20000" id="Limb_x5F_R_6_" points="8165.11,575.378 8151.585,589.688 8106.895,537.45 8068.876,506.338 7994.086,478.498 
			8059.053,494.024 8126.465,539.406 		"/>
	</g>
	<g id="Tree_x5F_02_copy">
		<g id="Layer_7_copy_4">
		</g>
		<g id="Layer_8_copy_4">
		</g>
		<path fill="#B20000" id="Body_4_" d="M2679.885,246.785c19.099,75.034,16.477,140.171,16.055,156.688
			c-2.143,83.845,65.616,119.396,65.616,188.527c0,121.05,0,263.846-25.361,365.856c-8.826,35.503,26.921,93.753,37.424,129.26
			c13.517,2.398,243.715,0.251,245.301,8.754l-111.643-288.028c-7.868-93.34-59.072-384.64-59.072-384.64l-19.939-121.589
			c0,0-97.739-393.223-110.509-424.431c-62.834,8.193-127.13,16.384-189.208,24.628
			C2562.69-102.725,2641.666,96.625,2679.885,246.785z"/>
		<polygon fill="#B20000" id="Limb_x5F_R_16_" points="2736.179,305.188 2748.455,333.215 2811.06,275.086 2861.361,245.818 2952.943,238.779 
			2875.309,231.78 2788.276,268.858 		"/>
		<polygon fill="#B20000" id="Limb_x5F_UpR_4_" points="2736.194,39.704 2740.988,57.318 2783.017,28.487 2815.262,15.613 2869.926,19.467 
			2824.72,8.549 2770.117,22.819 		"/>
		<polygon fill="#B20000" id="Limb_x5F_L_4_" points="2875.697,625.266 2860.014,598.627 2819.68,641.555 2783.834,660.543 2709.453,653.98 
			2775.066,671.073 2839.758,650.284 		"/>
		<g id="twigs_x5F_R_2_">
			<polyline fill="none" stroke="#B20000" stroke-width="7" stroke-miterlimit="10" points="2809.81,283.111 2906.018,174.126 
				2960.784,167.806 			"/>
			<path fill="none" stroke="#B20000" stroke-width="4" stroke-miterlimit="10" d="M2932.945,145.667l47.197,24.398
				c0,0,26.541,18.047,14.891,23.568"/>
			<path fill="none" stroke="#B20000" stroke-width="4" stroke-miterlimit="10" d="M2900.415,182.518
				c0,0,24.208-36.823,8.319-41.431"/>
			<polyline fill="none" stroke="#B20000" stroke-width="2" stroke-miterlimit="10" points="2961.486,142.373 2974.137,117.902 
				2971.23,100.527 			"/>
			<polyline fill="none" stroke="#B20000" stroke-width="2" stroke-miterlimit="10" points="2973.588,166.675 2977.602,184.622 
				2990.076,205.907 			"/>
			<polyline fill="none" stroke="#B20000" stroke-width="2" stroke-miterlimit="10" points="2926.47,158.192 2926.372,133.613 
				2947.071,118.339 			"/>
			
				<line fill="none" stroke="#B20000" stroke-width="2" stroke-miterlimit="10" x1="2932.169" y1="127.218" x2="2922.816" y2="105.803"/>
		</g>
		<g id="twigs_x5F_L_2_">
			<polyline fill="none" stroke="#B20000" stroke-width="7" stroke-miterlimit="10" points="2761.556,380.792 2643.093,445.959 
				2626.037,489.843 			"/>
			<path fill="none" stroke="#B20000" stroke-width="4" stroke-miterlimit="10" d="M2611.785,464.449l12.284,41.45
				c0,0,10.821,23.837,18.228,15.009"/>
			<path fill="none" stroke="#B20000" stroke-width="4" stroke-miterlimit="10" d="M2651.841,442.414
				c0,0-38.308,15.254-39.183,1.737"/>
			<polyline fill="none" stroke="#B20000" stroke-width="2" stroke-miterlimit="10" points="2602.897,487.318 2578.15,494.652 
				2563.042,490.167 			"/>
			<polyline fill="none" stroke="#B20000" stroke-width="2" stroke-miterlimit="10" points="2622.364,500.143 2637.76,505.6 
				2654.42,518.363 			"/>
			<polyline fill="none" stroke="#B20000" stroke-width="2" stroke-miterlimit="10" points="2624.452,460.695 2602.247,457.622 
				2584.152,472.639 			"/>
			
				<line fill="none" stroke="#B20000" stroke-width="2" stroke-miterlimit="10" x1="2595.266" y1="461.57" x2="2577.84" y2="451.338"/>
		</g>
		<g id="Layer_10_copy">
		</g>
	</g>
	<g id="SM_x5F_tree_x5F_01_copy_15">
		<path fill="#B20000" d="M2909.913,11.068l148.114,274.079c0,0-22.228,197.37,140.895,335.115c163.116,137.743,172.669,269.935,172.669,269.935
			l-91.744,33.761l-17.323-179.108l-108.795-120.861l-125.407-206.182l-16.23-116.791L2837.807-35.323L2909.913,11.068z"/>
		<polygon fill="#B20000" id="Limb_x5F_R_20_" points="3029.449,337.764 3018.42,362.186 3118.948,342.749 3186.125,339.619 3272.362,367.039 
			3209.369,334.51 3103.719,330.214 		"/>
		<polygon fill="#B20000" id="Limb_x5F_R_19_" points="2969.771,185.406 2976.853,191.386 2999.465,168.488 3018.807,154.72 3057.123,141.937 
			3023.771,149.33 2989.397,169.548 		"/>
		<polygon fill="#B20000" id="Limb_x5F_R_18_" points="3201.11,627.378 3187.584,641.688 3142.895,589.45 3104.875,558.338 3030.086,530.498 
			3095.053,546.023 3162.465,591.406 		"/>
	</g>
	<g id="Tree">
		<path fill="#B20000" d="M6258.858-54.885c40.776-33.491,148.956-52.017,128.668-101.496c-77.931-17.733-167.887-40.163-241.356-52.995
			c4.253,47.32-64.648,77.971-76.981,121.85c-13.204,47-24.325,137.909-24.325,137.909s-27.256,284.495-13.081,361.131
			s122.186,296.185,122.186,296.185s-18.658,182.17-99.01,233.941c51.511,11.27,184.534,10.057,235.633,22.408
			c61.997,14.984,89.826-225.613,95.791-270.869c12.922-98.078-198.285-241.962-179.603-339.078
			c13.215-68.69,38.378-134.799,38.451-206.4c0.063-66.886-46.924-145.333,9.96-199.357
			C6256.343-52.748,6257.569-53.823,6258.858-54.885z"/>
		<polygon fill="#B20000" points="6050.725,230.498 5982.387,101.958 6011.309,191.784 6040.142,263.533 6059.726,274.841 		"/>
		<path fill="#B20000" d="M6176.752,409.581c23.602-9.364,60.879-12.511,76.547-35.387c13.324-19.453,20.409-24.229,31.45-45.402
			c9.923-19.029,21.463-21.692,42.004-18.76c10.712,1.53,22.626,0.408,30.449-1.189c-55.482,11.328-68.901,27.709-87.458,81.575
			c24.995-15.01,50.011-30.019,75.015-45.027c-46.923,28.167-86.001,64.486-135.885,89.132
			C6206.684,435.604,6179.615,411.811,6176.752,409.581z"/>
	</g>
	<path fill="#B20000" d="M2040,989c-27.407-84.922,0.368-146.479,17.982-231.841c24.348-117.99-7.051-269.33-9.918-399.883
		c-2.179-99.2-24.088-283.646,6.727-391.251c-133.262,20.514-260.549,1.063-395.523-8.413
		C1112.139-80.799,553.052,7.488,9.182-65.819C-36.772,114.14-38.968,268.592-15.633,451.53
		c23.486,184.132-1.778,355.703-2.4,539.092c-0.759,223.574,150.55,239.873,347.657,242.198
		c353.698,4.173,706.034-16.79,1060.044-2.98c283.563,11.062,562.679,0.036,845.521-7.419
		c423.735-11.17,847.441-26.014,1271.142-38.858c282.233-8.556,605.566,23.432,883.681-31.682
		c43.501-8.64,187.473-71.881,187.473-71.881s-35.612-177.427-206.604-184.927s-1279.457,1.996-1417.429-21.999
		c-137.973-23.995-889.464,78.206-925.458,96.202s17.997,257.948,17.997,257.948"/>
	<path fill="#B20000" d="M3586.271,923.903l76.345-56.116c0,0,104.21-6.059,159.505,0c55.294,6.059,194.624,48.297,194.624,48.297L3586.271,923.903
		"/>
</g>
</svg>
