
<svg style="fill-rule: evenodd; pointer-events: none; -moz-user-select: none; width: 100%; height: 100%;" color-interpolation-filters="sRGB">

<g transform="matrix(0.05 0 0 0.05 0 0)">

<g enable-background="new">

<rectfill="rgb(255,255,255)"height="20000"width="30000">

</rect>

<g>

<g>

<g transform="matrix(-0.489990234375 0 0 0.489990234375 15497 10995)">

<g>

<path fill-opacity="1.000" fill="rgb(183,58,52)" d="M -3768 1726 Q -4268 1726 -4780 1941 Q -5729 2342 -6673 2751 Q -6900 2850 -7144 2897 Q -7441 2918 -7737 2918 Q -8417 2918 -9095 2809 Q -9861 2684 -10635 2684 Q -10887 2684 -11139 2697 Q -12196 2750 -13162 3068 Q -14080 3373 -14656 4096 Q -14722 4178 -14784 4267 Q -15060 4663 -15367 5038 Q -15208 4897 -15043 4766 L -14886 4646 Q -14515 4371 -14111 4146 Q -14034 4103 -13956 4062 Q -13826 3994 -13693 3931 Q -13440 3812 -13177 3712 Q -13058 3666 -12936 3625 Q -12615 3514 -12279 3433 L -12070 3385 Q -11711 3307 -11337 3261 L -11142 3240 L -10531 3199 L -10475 3198 L -10238 3194 Q -10221 3194 -10204 3194 Q -9932 3194 -9657 3209 L -9567 3215 L -9511 3218 L -9215 3243 L -9154 3249 L -9153 3249 L -8935 3274 L -8923 3276 L -8808 3291 L -8786 3294 L -8659 3313 L -8536 3332 Q -8280 3374 -8022 3429 L -7829 3472 L -7683 3507 L -7667 3511 L -7392 3584 L -7273 3619 L -7000 3708 L -6842 3611 L -6709 3530 Q -6487 3396 -6270 3273 L -6089 3171 Q -5989 3115 -5889 3062 L -5776 3002 L -5706 2965 L -5442 2830 Q -5277 2747 -5115 2672 L -5049 2641 L -4995 2616 L -4992 2615 L -4882 2566 L -4870 2560 Q -4648 2462 -4434 2378 L -4234 2302 L -4202 2291 L -4054 2239 L -3816 2161 Q -3701 2125 -3588 2094 L -3457 2060 L -3360 2037 Q -3044 1963 -2784 1942 Q -3218 1749 -3663 1728 Q -3715 1726 -3768 1726 Z M -10134 -798 Q -10422 -798 -10689 -795 L -10878 -792 L -11974 -754 L -12143 -744 Q -12595 -716 -12953 -671 L -13210 -636 L -13339 -615 Q -13509 -585 -13644 -551 Q -13686 -520 -13733 -502 Q -14493 -224 -14871 473 L -14902 491 L -14974 534 L -15061 586 Q -15262 715 -15473 875 Q -16149 1387 -16678 2022 Q -17419 2912 -17762 3922 Q -18047 4761 -18044 5653 Q -17599 4726 -16972 3901 Q -16341 3071 -15689 2262 Q -15044 1464 -14248 835 Q -13657 367 -12921 48 L -12747 -25 L -12421 1 L -12158 1 L -11879 9 Q -11006 46 -10146 242 L -9556 383 Q -7961 766 -5455 1550 Q -5327 1199 -4871 778 Q -4417 356 -4058 71 Q -3699 -215 -2872 -512 L -3748 -566 L -4160 -590 L -5176 -646 L -5510 -663 L -7042 -731 L -7295 -741 L -8362 -774 L -8591 -780 L -9515 -795 L -9781 -797 Q -9961 -798 -10134 -798 Z">

</path>

<path fill-opacity="1.000" fill="rgb(206,52,52)" d="M -3768 1726 Q -3715 1726 -3663 1728 Q -3218 1749 -2784 1942 Q -3044 1963 -3360 2037 L -3457 2060 L -3588 2094 Q -3701 2125 -3816 2161 L -4054 2239 L -4202 2291 L -4234 2302 L -4434 2378 Q -4648 2462 -4870 2560 L -4882 2566 L -4992 2615 L -4995 2616 L -5049 2641 L -5115 2672 Q -5277 2747 -5442 2830 L -5706 2965 L -5776 3002 L -5889 3062 Q -5989 3115 -6089 3171 L -6270 3273 Q -6487 3396 -6709 3530 L -6842 3611 L -7000 3708 L -7273 3619 L -7392 3584 L -7667 3511 L -7683 3507 L -7829 3472 L -8022 3429 Q -8280 3374 -8536 3332 L -8659 3313 L -8786 3294 L -8808 3291 L -8923 3276 L -8935 3274 L -9153 3249 L -9154 3249 L -9215 3243 L -9511 3218 L -9567 3215 L -9657 3209 Q -9932 3194 -10204 3194 Q -10221 3194 -10238 3194 L -10475 3198 L -10531 3199 L -11142 3240 L -11337 3261 Q -11711 3307 -12070 3385 L -12279 3433 Q -12615 3514 -12936 3625 Q -13058 3666 -13177 3712 Q -13440 3812 -13693 3931 Q -13826 3994 -13956 4062 Q -14034 4103 -14111 4146 Q -14515 4371 -14886 4646 L -15043 4766 Q -15208 4897 -15367 5038 Q -15060 4663 -14784 4267 Q -14722 4178 -14656 4096 Q -14080 3373 -13162 3068 Q -12196 2750 -11139 2697 Q -10886 2684 -10635 2684 Q -9861 2684 -9095 2809 Q -8417 2918 -7737 2918 Q -7441 2918 -7144 2897 Q -6900 2850 -6673 2751 Q -5729 2342 -4780 1941 Q -4268 1726 -3768 1726 Z M -10134 -798 Q -9961 -798 -9781 -797 L -9515 -795 L -8591 -780 L -8362 -774 L -7295 -741 L -7042 -731 L -5510 -663 L -5176 -646 L -4160 -590 L -3748 -566 L -2872 -512 Q -3699 -215 -4058 71 Q -4417 356 -4871 778 Q -5327 1199 -5455 1550 Q -7961 766 -9556 383 L -10146 242 Q -11006 46 -11879 9 L -12158 1 L -12421 1 L -12747 -25 L -12921 48 Q -13657 367 -14248 835 Q -15044 1464 -15689 2262 Q -16341 3071 -16972 3901 Q -17599 4726 -18044 5653 Q -18047 4761 -17762 3922 Q -17419 2912 -16678 2022 Q -16149 1387 -15473 875 Q -15262 715 -15061 586 L -14974 534 L -14902 491 L -14871 473 Q -14493 -224 -13733 -502 Q -13686 -520 -13644 -551 Q -13509 -585 -13339 -615 L -13210 -636 L -12953 -671 Q -12595 -716 -12143 -744 L -11974 -754 L -10878 -792 L -10689 -795 Q -10421 -798 -10134 -798 Z M -984 -1516 Q -1917 -1067 -3723 -1067 Q -3844 -1067 -3968 -1069 Q -5957 -1102 -7181 -1489 Q -7394 -1273 -9333 -1273 Q -9874 -1273 -10549 -1290 Q -11510 -1314 -12226 -1314 Q -13816 -1314 -14200 -1196 Q -14478 -1111 -14607 -1045 Q -17160 820 -18183 3289 Q -18936 5109 -18831 7178 L -18807 7535 Q -18669 9157 -18039 10764 Q -17724 11568 -17437 12047 Q -17356 7972 -15679 5830 Q -14337 4116 -12041 3710 Q -11344 3587 -10590 3587 Q -9571 3587 -8448 3812 Q -7837 3935 -7269 4111 L -6823 4263 Q -4648 2787 -2422 2258 Q -1726 2092 -1109 2041 L -631 2023 Q -63 1132 10 377 Q 69 -228 -188 -718 Q -372 -1069 -697 -1328 Q -859 -1457 -984 -1516 Z">

</path>

<path fill="none" stroke-opacity="1.000" stroke="rgb(0,0,0)" stroke-linejoin="round" stroke-linecap="round" stroke-width="40" d="M -7181 -1489 Q -5957 -1102 -3968 -1069 Q -1979 -1037 -984 -1516 Q -859 -1457 -697 -1328 Q -372 -1069 -188 -718 Q 69 -228 10 377 Q -63 1132 -631 2023 L -1109 2041 Q -1726 2092 -2422 2258 Q -4648 2787 -6823 4263 L -7269 4111 Q -7837 3935 -8448 3812 Q -10401 3420 -12041 3710 Q -14337 4116 -15679 5830 Q -17356 7972 -17437 12047 Q -17724 11568 -18039 10764 Q -18669 9157 -18807 7535 L -18831 7178 Q -18936 5109 -18183 3289 Q -17160 820 -14607 -1045 Q -14478 -1111 -14200 -1196 Q -13644 -1367 -10549 -1290 Q -7454 -1213 -7181 -1489 Z M -18044 5653 Q -18042 6101 -17968 6563 L -18441 6210 L -18458 6294 Q -18470 6403 -18447 6527 Q -18372 6925 -17968 7331 L -18058 7360 Q -18170 7390 -18286 7390 Q -18598 7389 -18831 7178 M -14902 491 L -14974 534 L -15061 586 Q -15262 715 -15473 875 Q -16149 1387 -16678 2022 Q -17419 2912 -17762 3922 Q -18047 4761 -18044 5653">

</path>

<path fill="none" stroke-opacity="1.000" stroke="rgb(0,0,0)" stroke-linejoin="round" stroke-linecap="round" stroke-width="28.571998006975587" d="M -12747 -25 L -12924 -34 M -11974 -754 L -10878 -792 M -10689 -795 Q -10261 -800 -9781 -797 M -9515 -795 L -8591 -780 M -8362 -774 L -7295 -741 M -7042 -731 L -5510 -663 M -5176 -646 L -4160 -590 M -3748 -566 L -2872 -512 M -12421 1 L -12164 29 M -12953 -671 Q -12595 -716 -12143 -744 M -2519 1938 L -2583 1934 L -2780 1941 L -2784 1942 Q -3044 1963 -3360 2037 M -3457 2060 L -3588 2094 Q -3701 2125 -3816 2161 L -4054 2239 M -4202 2291 L -4234 2302 L -4434 2378 Q -4648 2462 -4870 2560 M -5049 2641 L -5115 2672 Q -5277 2747 -5442 2830 L -5706 2965 M -5889 3062 Q -5989 3115 -6089 3171 M -6270 3273 Q -6487 3396 -6709 3530 M -6842 3611 L -7000 3708 L -7273 3619 L -7392 3584 L -7667 3511 M -7829 3472 L -8022 3429 Q -8280 3374 -8536 3332 L -8659 3313 M -8808 3291 L -8923 3276 L -8935 3274 M -9154 3249 L -9215 3243 L -9511 3218 M -9657 3209 Q -9949 3193 -10238 3194 M -10475 3198 L -10531 3199 L -11142 3240 M -11337 3261 Q -11711 3307 -12070 3385 M -12279 3433 Q -12615 3514 -12936 3625 M -13177 3712 Q -13440 3812 -13693 3931 Q -13826 3994 -13956 4062 M -14111 4146 Q -14515 4371 -14886 4646 M -15043 4766 Q -15208 4897 -15367 5038 Q -15498 5154 -15625 5278 M -8738 1194 Q -9079 985 -9441 812 M -7144 2510 L -7158 2493 Q -7288 2343 -7453 2181 Q -7595 2043 -7747 1912 M -7852 1823 Q -8172 1557 -8537 1320 M -10780 307 Q -11323 152 -11893 66 M -9652 714 Q -10053 536 -10479 398 M -12421 1 L -12747 -25 M -13644 -551 Q -13509 -585 -13339 -615 L -13210 -636 M -13644 -551 L -13768 -517 M -13090 -40 Q -13374 -48 -13664 -41 M -16258 5978 Q -16473 6245 -16672 6538 M -15729 5382 Q -15956 5612 -16168 5867">

</path>

</g>

</g>

<g transform="matrix(0.489990234375 0 0 0.489990234375 14397 10995)">

<g>

<path fill-opacity="1.000" fill="rgb(183,58,52)" d="M -3768 1726 Q -4268 1726 -4780 1941 Q -5729 2342 -6673 2751 Q -6900 2850 -7144 2897 Q -7441 2918 -7737 2918 Q -8417 2918 -9095 2809 Q -9861 2684 -10635 2684 Q -10887 2684 -11139 2697 Q -12196 2750 -13162 3068 Q -14080 3373 -14656 4096 Q -14722 4178 -14784 4267 Q -15060 4663 -15367 5038 Q -15208 4897 -15043 4766 L -14886 4646 Q -14515 4371 -14111 4146 Q -14034 4103 -13956 4062 Q -13826 3994 -13693 3931 Q -13440 3812 -13177 3712 Q -13058 3666 -12936 3625 Q -12615 3514 -12279 3433 L -12070 3385 Q -11711 3307 -11337 3261 L -11142 3240 L -10531 3199 L -10475 3198 L -10238 3194 Q -10221 3194 -10204 3194 Q -9932 3194 -9657 3209 L -9567 3215 L -9511 3218 L -9215 3243 L -9154 3249 L -9153 3249 L -8935 3274 L -8923 3276 L -8808 3291 L -8786 3294 L -8659 3313 L -8536 3332 Q -8280 3374 -8022 3429 L -7829 3472 L -7683 3507 L -7667 3511 L -7392 3584 L -7273 3619 L -7000 3708 L -6842 3611 L -6709 3530 Q -6487 3396 -6270 3273 L -6089 3171 Q -5989 3115 -5889 3062 L -5776 3002 L -5706 2965 L -5442 2830 Q -5277 2747 -5115 2672 L -5049 2641 L -4995 2616 L -4992 2615 L -4882 2566 L -4870 2560 Q -4648 2462 -4434 2378 L -4234 2302 L -4202 2291 L -4054 2239 L -3816 2161 Q -3701 2125 -3588 2094 L -3457 2060 L -3360 2037 Q -3044 1963 -2784 1942 Q -3218 1749 -3663 1728 Q -3715 1726 -3768 1726 Z M -10134 -798 Q -10422 -798 -10689 -795 L -10878 -792 L -11974 -754 L -12143 -744 Q -12595 -716 -12953 -671 L -13210 -636 L -13339 -615 Q -13509 -585 -13644 -551 Q -13686 -520 -13733 -502 Q -14493 -224 -14871 473 L -14902 491 L -14974 534 L -15061 586 Q -15262 715 -15473 875 Q -16149 1387 -16678 2022 Q -17419 2912 -17762 3922 Q -18047 4761 -18044 5653 Q -17599 4726 -16972 3901 Q -16341 3071 -15689 2262 Q -15044 1464 -14248 835 Q -13657 367 -12921 48 L -12747 -25 L -12421 1 L -12158 1 L -11879 9 Q -11006 46 -10146 242 L -9556 383 Q -7961 766 -5455 1550 Q -5327 1199 -4871 778 Q -4417 356 -4058 71 Q -3699 -215 -2872 -512 L -3748 -566 L -4160 -590 L -5176 -646 L -5510 -663 L -7042 -731 L -7295 -741 L -8362 -774 L -8591 -780 L -9515 -795 L -9781 -797 Q -9961 -798 -10134 -798 Z">

</path>

<path fill-opacity="1.000" fill="rgb(206,52,52)" d="M -3768 1726 Q -3715 1726 -3663 1728 Q -3218 1749 -2784 1942 Q -3044 1963 -3360 2037 L -3457 2060 L -3588 2094 Q -3701 2125 -3816 2161 L -4054 2239 L -4202 2291 L -4234 2302 L -4434 2378 Q -4648 2462 -4870 2560 L -4882 2566 L -4992 2615 L -4995 2616 L -5049 2641 L -5115 2672 Q -5277 2747 -5442 2830 L -5706 2965 L -5776 3002 L -5889 3062 Q -5989 3115 -6089 3171 L -6270 3273 Q -6487 3396 -6709 3530 L -6842 3611 L -7000 3708 L -7273 3619 L -7392 3584 L -7667 3511 L -7683 3507 L -7829 3472 L -8022 3429 Q -8280 3374 -8536 3332 L -8659 3313 L -8786 3294 L -8808 3291 L -8923 3276 L -8935 3274 L -9153 3249 L -9154 3249 L -9215 3243 L -9511 3218 L -9567 3215 L -9657 3209 Q -9932 3194 -10204 3194 Q -10221 3194 -10238 3194 L -10475 3198 L -10531 3199 L -11142 3240 L -11337 3261 Q -11711 3307 -12070 3385 L -12279 3433 Q -12615 3514 -12936 3625 Q -13058 3666 -13177 3712 Q -13440 3812 -13693 3931 Q -13826 3994 -13956 4062 Q -14034 4103 -14111 4146 Q -14515 4371 -14886 4646 L -15043 4766 Q -15208 4897 -15367 5038 Q -15060 4663 -14784 4267 Q -14722 4178 -14656 4096 Q -14080 3373 -13162 3068 Q -12196 2750 -11139 2697 Q -10886 2684 -10635 2684 Q -9861 2684 -9095 2809 Q -8417 2918 -7737 2918 Q -7441 2918 -7144 2897 Q -6900 2850 -6673 2751 Q -5729 2342 -4780 1941 Q -4268 1726 -3768 1726 Z M -10134 -798 Q -9961 -798 -9781 -797 L -9515 -795 L -8591 -780 L -8362 -774 L -7295 -741 L -7042 -731 L -5510 -663 L -5176 -646 L -4160 -590 L -3748 -566 L -2872 -512 Q -3699 -215 -4058 71 Q -4417 356 -4871 778 Q -5327 1199 -5455 1550 Q -7961 766 -9556 383 L -10146 242 Q -11006 46 -11879 9 L -12158 1 L -12421 1 L -12747 -25 L -12921 48 Q -13657 367 -14248 835 Q -15044 1464 -15689 2262 Q -16341 3071 -16972 3901 Q -17599 4726 -18044 5653 Q -18047 4761 -17762 3922 Q -17419 2912 -16678 2022 Q -16149 1387 -15473 875 Q -15262 715 -15061 586 L -14974 534 L -14902 491 L -14871 473 Q -14493 -224 -13733 -502 Q -13686 -520 -13644 -551 Q -13509 -585 -13339 -615 L -13210 -636 L -12953 -671 Q -12595 -716 -12143 -744 L -11974 -754 L -10878 -792 L -10689 -795 Q -10421 -798 -10134 -798 Z M -984 -1516 Q -1917 -1067 -3723 -1067 Q -3844 -1067 -3968 -1069 Q -5957 -1102 -7181 -1489 Q -7394 -1273 -9333 -1273 Q -9874 -1273 -10549 -1290 Q -11510 -1314 -12226 -1314 Q -13816 -1314 -14200 -1196 Q -14478 -1111 -14607 -1045 Q -17160 820 -18183 3289 Q -18936 5109 -18831 7178 L -18807 7535 Q -18669 9157 -18039 10764 Q -17724 11568 -17437 12047 Q -17356 7972 -15679 5830 Q -14337 4116 -12041 3710 Q -11344 3587 -10590 3587 Q -9571 3587 -8448 3812 Q -7837 3935 -7269 4111 L -6823 4263 Q -4648 2787 -2422 2258 Q -1726 2092 -1109 2041 L -631 2023 Q -63 1132 10 377 Q 69 -228 -188 -718 Q -372 -1069 -697 -1328 Q -859 -1457 -984 -1516 Z">

</path>

<path fill="none" stroke-opacity="1.000" stroke="rgb(0,0,0)" stroke-linejoin="round" stroke-linecap="round" stroke-width="40" d="M -7181 -1489 Q -5957 -1102 -3968 -1069 Q -1979 -1037 -984 -1516 Q -859 -1457 -697 -1328 Q -372 -1069 -188 -718 Q 69 -228 10 377 Q -63 1132 -631 2023 L -1109 2041 Q -1726 2092 -2422 2258 Q -4648 2787 -6823 4263 L -7269 4111 Q -7837 3935 -8448 3812 Q -10401 3420 -12041 3710 Q -14337 4116 -15679 5830 Q -17356 7972 -17437 12047 Q -17724 11568 -18039 10764 Q -18669 9157 -18807 7535 L -18831 7178 Q -18936 5109 -18183 3289 Q -17160 820 -14607 -1045 Q -14478 -1111 -14200 -1196 Q -13644 -1367 -10549 -1290 Q -7454 -1213 -7181 -1489 Z M -18044 5653 Q -18042 6101 -17968 6563 L -18441 6210 L -18458 6294 Q -18470 6403 -18447 6527 Q -18372 6925 -17968 7331 L -18058 7360 Q -18170 7390 -18286 7390 Q -18598 7389 -18831 7178 M -14902 491 L -14974 534 L -15061 586 Q -15262 715 -15473 875 Q -16149 1387 -16678 2022 Q -17419 2912 -17762 3922 Q -18047 4761 -18044 5653">

</path>

<path fill="none" stroke-opacity="1.000" stroke="rgb(0,0,0)" stroke-linejoin="round" stroke-linecap="round" stroke-width="28.571998006975587" d="M -12747 -25 L -12924 -34 M -11974 -754 L -10878 -792 M -10689 -795 Q -10261 -800 -9781 -797 M -9515 -795 L -8591 -780 M -8362 -774 L -7295 -741 M -7042 -731 L -5510 -663 M -5176 -646 L -4160 -590 M -3748 -566 L -2872 -512 M -12421 1 L -12164 29 M -12953 -671 Q -12595 -716 -12143 -744 M -2519 1938 L -2583 1934 L -2780 1941 L -2784 1942 Q -3044 1963 -3360 2037 M -3457 2060 L -3588 2094 Q -3701 2125 -3816 2161 L -4054 2239 M -4202 2291 L -4234 2302 L -4434 2378 Q -4648 2462 -4870 2560 M -5049 2641 L -5115 2672 Q -5277 2747 -5442 2830 L -5706 2965 M -5889 3062 Q -5989 3115 -6089 3171 M -6270 3273 Q -6487 3396 -6709 3530 M -6842 3611 L -7000 3708 L -7273 3619 L -7392 3584 L -7667 3511 M -7829 3472 L -8022 3429 Q -8280 3374 -8536 3332 L -8659 3313 M -8808 3291 L -8923 3276 L -8935 3274 M -9154 3249 L -9215 3243 L -9511 3218 M -9657 3209 Q -9949 3193 -10238 3194 M -10475 3198 L -10531 3199 L -11142 3240 M -11337 3261 Q -11711 3307 -12070 3385 M -12279 3433 Q -12615 3514 -12936 3625 M -13177 3712 Q -13440 3812 -13693 3931 Q -13826 3994 -13956 4062 M -14111 4146 Q -14515 4371 -14886 4646 M -15043 4766 Q -15208 4897 -15367 5038 Q -15498 5154 -15625 5278 M -8738 1194 Q -9079 985 -9441 812 M -7144 2510 L -7158 2493 Q -7288 2343 -7453 2181 Q -7595 2043 -7747 1912 M -7852 1823 Q -8172 1557 -8537 1320 M -10780 307 Q -11323 152 -11893 66 M -9652 714 Q -10053 536 -10479 398 M -12421 1 L -12747 -25 M -13644 -551 Q -13509 -585 -13339 -615 L -13210 -636 M -13644 -551 L -13768 -517 M -13090 -40 Q -13374 -48 -13664 -41 M -16258 5978 Q -16473 6245 -16672 6538 M -15729 5382 Q -15956 5612 -16168 5867">

</path>

</g>

</g>

<g transform="matrix(0.489990234375 0 0 0.489990234375 14898 11167)">

<g>

<path fill-opacity="1.000" fill="rgb(183,58,52)" d="M 29 -2731 Q 18 -2731 8 -2731 Q -776 -2726 -1474 -2386 Q -1599 -2325 -1713 -2248 Q -1836 -2166 -1946 -2064 L -2106 -1921 Q -2052 -1146 -1855 -395 Q -1659 357 -1282 1029 L -1276 1040 Q -894 1719 -385 2301 Q -138 2582 102 2582 Q 356 2582 602 2267 Q 800 2015 923 1716 Q 1200 1045 1441 361 Q 1694 -359 1875 -1101 Q 2015 -1677 1895 -2259 L 1717 -2350 Q 1597 -2408 1472 -2457 Q 775 -2731 29 -2731 Z M -1970 1830 Q -2032 2311 -1941 2784 L -1927 2835 Q -1807 2714 -1673 2714 Q -1610 2714 -1543 2741 Q -1434 2786 -1367 2898 Q -1289 3028 -1245 3172 L -1222 3164 Q -991 3009 -923 2720 L -896 2627 Q -1194 2510 -1458 2316 Q -1629 2191 -1785 2034 Q -1883 1935 -1970 1830 Z M 2090 2025 Q 1942 2169 1782 2285 Q 1453 2524 1069 2647 Q 1240 2920 1464 3159 L 1495 3185 Q 1485 2702 1801 2702 Q 1871 2702 1958 2726 Q 2051 2751 2109 2838 L 2146 2897 Q 2234 2453 2090 2025 Z">

</path>

<path fill-opacity="1.000" fill="rgb(206,52,52)" d="M 1895 -2259 Q 2015 -1677 1875 -1101 Q 1694 -359 1441 361 Q 1200 1045 923 1716 Q 800 2015 602 2267 Q 356 2582 102 2582 Q -138 2582 -385 2301 Q -894 1719 -1276 1040 L -1282 1029 L -1282 1029 Q -1282 1029 -1282 1029 Q -1659 357 -1855 -395 Q -2052 -1146 -2106 -1921 Q -2608 -1486 -3180 -1169 L -3155 -914 Q -3093 -111 -3225 679 Q -2578 909 -2203 1509 Q -2097 1677 -1970 1830 Q -1883 1935 -1785 2034 Q -1629 2191 -1458 2316 Q -1194 2510 -896 2627 Q -717 2697 -525 2739 Q -231 2803 76 2803 Q 518 2803 988 2671 L 1069 2647 Q 1453 2524 1782 2285 Q 1942 2169 2090 2025 Q 2251 1867 2398 1675 Q 2848 1083 3270 825 Q 3289 538 3323 253 Q 3408 -449 3399 -1155 Q 3043 -1323 2763 -1604 Q 2369 -2000 1895 -2259 Z">

</path>

<path fill="none" stroke-opacity="1.000" stroke="rgb(0,0,0)" stroke-linejoin="round" stroke-linecap="round" stroke-width="28.571998006975587" d="M 1717 -2350 L 1791 -2180 M 1971 -1332 Q 1976 -1190 1966 -1045 M 1884 -1897 Q 1918 -1770 1940 -1642 M 1925 -736 L 1908 -655 L 1866 -464 M -1713 -2248 L -1742 -2149 M -1786 -1954 Q -1819 -1782 -1827 -1606 M -1282 1029 L -1286 1001 M -1716 -728 L -1689 -641 L -1627 -444 M -1822 -1307 Q -1811 -1148 -1779 -987 M -1401 404 L -1339 701 M -1263 1557 Q -1274 1698 -1301 1834 M -1282 1029 Q -1266 1153 -1260 1273 M -1458 2316 Q -1411 2213 -1374 2107 M 1782 2285 Q 1730 2222 1688 2157 M 1484 1644 Q 1503 1765 1546 1881 M 1534 1012 L 1508 1124 Q 1484 1229 1475 1330 M 1665 437 L 1603 712 M -1548 -175 L -1469 121 M 1798 -157 L 1735 128">

</path>

<path fill="none" stroke-opacity="1.000" stroke="rgb(0,0,0)" stroke-linejoin="round" stroke-linecap="round" stroke-width="40" d="M -2106 -1921 L -1946 -2064 Q -1836 -2166 -1713 -2248 Q -1599 -2325 -1474 -2386 Q -776 -2726 8 -2731 Q 765 -2735 1472 -2457 Q 1597 -2408 1717 -2350 L 1895 -2259 Q 2369 -2000 2763 -1604 Q 3043 -1323 3399 -1155 L 3461 -1127 M -3227 -1143 L -3180 -1169 Q -2608 -1486 -2106 -1921 M -3225 679 Q -2578 909 -2203 1509 Q -2097 1677 -1970 1830 Q -1883 1935 -1785 2034 Q -1629 2191 -1458 2316 M -1970 1830 Q -2032 2311 -1941 2784 L -1927 2835 Q -1750 2657 -1543 2741 Q -1434 2786 -1367 2898 Q -1289 3028 -1245 3172 L -1222 3164 Q -991 3009 -923 2720 L -896 2627 Q -1194 2510 -1458 2316 M -896 2627 Q -717 2697 -525 2739 Q 190 2895 988 2671 L 1069 2647 Q 1453 2524 1782 2285 M -3243 673 L -3225 679 M 3270 825 Q 3391 751 3509 704 M 3270 825 Q 2848 1083 2398 1675 Q 2251 1867 2090 2025 Q 2234 2453 2146 2897 L 2109 2838 Q 2051 2751 1958 2726 Q 1483 2595 1495 3185 L 1464 3159 Q 1240 2920 1069 2647 M 2090 2025 Q 1942 2169 1782 2285">

</path>

</g>

</g>

<g transform="matrix(0.489990234375 0 0 0.489990234375 14924 10633)">

<g>

<path fill-opacity="1.000" fill="rgb(255,255,255)" d="M 1846 -2265 Q 1594 -1822 1766 -1340 L 1789 -1278 Q 1866 -1391 1927 -1548 Q 2065 -1910 1846 -2265 Z M -1867 -2415 Q -1989 -2164 -1980 -1756 Q -1974 -1468 -1882 -1277 Q -1464 -1800 -1840 -2376 L -1867 -2415 Z M 1486 -2662 Q 1274 -2526 1060 -2424 Q 1059 -1679 1125 -1323 Q 1187 -982 1265 -982 Q 1268 -982 1272 -983 Q 1419 -983 1540 -1046 Q 1036 -1775 1617 -2398 L 1691 -2468 Q 1602 -2565 1486 -2662 Z M -1445 -2774 Q -1592 -2731 -1698 -2638 Q -1621 -2553 -1561 -2462 Q -1084 -1737 -1547 -964 Q -1399 -907 -1199 -907 Q -1196 -907 -1192 -907 Q -1026 -1438 -1049 -1865 L -1078 -2331 L -1159 -2447 Q -1267 -2593 -1445 -2774 Z">

</path>

<path fill-opacity="1.000" fill="rgb(0,0,0)" d="M 1691 -2468 L 1617 -2398 Q 1036 -1775 1540 -1046 Q 1681 -1120 1789 -1278 L 1766 -1340 Q 1594 -1822 1846 -2265 Q 1783 -2367 1691 -2468 Z M -1707 -2640 Q -1720 -2640 -1720 -2619 Q -1809 -2535 -1867 -2415 L -1840 -2376 Q -1464 -1800 -1882 -1277 Q -1829 -1166 -1547 -964 Q -1084 -1737 -1561 -2462 Q -1621 -2553 -1698 -2638 Q -1703 -2640 -1707 -2640 Z">

</path>

<path fill-opacity="1.000" fill="rgb(206,52,52)" d="M 504 -7676 Q 483 -7676 458 -7671 Q 303 -7640 110 -7355 L 72 -7174 Q -76 -6553 -85 -5921 L 0 -5471 Q 3 -5139 -5 -4807 L -56 -2987 Q -61 -2830 -133 -2715 Q -250 -2532 -380 -2532 Q -523 -2532 -684 -2751 Q -916 -2822 -1072 -3110 Q -1126 -3209 -1180 -3275 Q -1287 -3405 -1396 -3405 Q -1476 -3405 -1556 -3335 Q -1802 -3122 -1549 -2878 L -1445 -2774 Q -1267 -2593 -1159 -2447 L -1078 -2331 Q -994 -2203 -931 -2074 Q -902 -2013 -876 -1937 Q -812 -1895 -770 -1832 Q -381 -1250 -299 -528 Q -190 432 -51 1385 L -39 1575 Q 14 2265 -215 2911 Q -141 3258 -60 3411 Q 33 3510 122 3510 Q 271 3510 409 3232 Q 627 2788 824 1738 Q 910 1280 991 893 Q 1073 494 1151 169 L 1190 6 Q 1359 -676 1540 -1046 L 1540 -1046 Q 1419 -983 1272 -983 Q 1269 -982 1265 -982 Q 1187 -982 1125 -1323 Q 1059 -1679 1060 -2424 Q 1274 -2526 1486 -2662 L 1592 -2732 Q 1934 -2967 1778 -3216 Q 1683 -3366 1533 -3366 Q 1434 -3366 1310 -3301 L 1238 -3261 Q 1248 -3865 882 -4325 Q 516 -4786 384 -5169 Q 251 -5552 317 -6094 Q 382 -6637 557 -7181 Q 608 -7338 621 -7445 L 621 -7445 Q 621 -7445 621 -7445 Q 649 -7676 504 -7676 Z">

</path>

<path fill-opacity="1.000" fill="rgb(183,58,52)" d="M 110 -7355 Q -41 -7133 -216 -6756 Q -614 -5896 -597 -5023 Q -592 -4788 -615 -4480 L -636 -4249 Q -1078 -3769 -1180 -3275 Q -1126 -3209 -1072 -3110 Q -916 -2822 -684 -2751 Q -524 -2532 -380 -2532 Q -249 -2532 -133 -2715 Q -61 -2830 -56 -2987 L -5 -4807 Q 3 -5139 0 -5471 L -85 -5921 Q -76 -6553 72 -7174 L 110 -7355 Z M -1078 -2331 L -1049 -1865 Q -1026 -1438 -1192 -907 Q -1195 -907 -1199 -907 Q -1399 -907 -1547 -964 L -1547 -964 Q -1224 -399 -998 123 Q -787 610 -660 1058 Q -566 1388 -485 1706 Q -339 2281 -234 2814 L -215 2911 Q 14 2265 -39 1575 L -51 1385 Q -190 432 -299 -528 Q -381 -1250 -770 -1832 Q -812 -1895 -876 -1937 L -876 -1937 Q -876 -1937 -876 -1937 Q -902 -2013 -931 -2074 Q -994 -2203 -1078 -2331 Z">

</path>

<path fill="none" stroke-opacity="1.000" stroke="rgb(0,0,0)" stroke-linejoin="round" stroke-linecap="round" stroke-width="40" d="M 621 -7445 Q 653 -7710 458 -7671 Q 303 -7640 110 -7355 M 621 -7445 Q 608 -7338 557 -7181 Q 382 -6637 317 -6094 Q 251 -5552 384 -5169 Q 516 -4786 882 -4325 Q 1248 -3865 1238 -3261 L 1310 -3301 Q 1621 -3465 1778 -3216 Q 1934 -2967 1592 -2732 L 1486 -2662 Q 1602 -2565 1691 -2468 Q 1783 -2367 1846 -2265 Q 2065 -1910 1927 -1548 Q 1866 -1391 1789 -1278 Q 1681 -1120 1540 -1046 Q 1359 -676 1190 6 L 1151 169 Q 1073 494 991 893 Q 910 1280 824 1738 Q 627 2788 409 3232 Q 190 3675 -60 3411 Q -141 3258 -215 2911 L -234 2814 Q -339 2281 -485 1706 Q -566 1388 -660 1058 Q -787 610 -998 123 Q -1224 -399 -1547 -964 Q -1829 -1166 -1882 -1277 Q -1974 -1468 -1980 -1756 Q -1989 -2164 -1867 -2415 Q -1809 -2535 -1720 -2619 M -1698 -2638 Q -1592 -2731 -1445 -2774 L -1549 -2878 Q -1802 -3122 -1556 -3335 Q -1366 -3501 -1180 -3275 Q -1078 -3769 -636 -4249 L -615 -4480 Q -592 -4788 -597 -5023 Q -614 -5896 -216 -6756 Q -41 -7133 110 -7355 M 1486 -2662 Q 1274 -2526 1060 -2424 Q 1059 -1679 1125 -1323 Q 1190 -968 1272 -983 Q 1419 -983 1540 -1046 Q 1036 -1775 1617 -2398 L 1691 -2468 M 1060 -2424 L 901 -2354 Q 553 -2211 543 -1730 M 483 -2695 Q 941 -3089 1238 -3261 M 1846 -2265 Q 1594 -1822 1766 -1340 L 1789 -1278 M -684 -2751 Q -916 -2822 -1072 -3110 Q -1126 -3209 -1180 -3275 M -1445 -2774 Q -1267 -2593 -1159 -2447 L -1078 -2331 Q -994 -2203 -931 -2074 Q -902 -2013 -876 -1937 M -422 -2735 Q -563 -2714 -684 -2751 M -1882 -1277 Q -1464 -1800 -1840 -2376 L -1867 -2415 M -1720 -2619 L -1698 -2638 Q -1621 -2553 -1561 -2462 Q -1084 -1737 -1547 -964 Q -1396 -906 -1192 -907 Q -1026 -1438 -1049 -1865 L -1078 -2331 M -876 -1937 Q -823 -1783 -784 -1569">

</path>

<path fill="none" stroke-opacity="1.000" stroke="rgb(0,0,0)" stroke-linejoin="round" stroke-linecap="round" stroke-width="28.571998006975587" d="M 436 -7173 Q 526 -7324 621 -7445 M -85 -5921 L -9 -6156 M 128 -6532 Q 192 -6694 259 -6838 M 683 -1207 L 537 -1173 L 538 -1066 Q 536 -877 594 -693 L 683 -724 M 362 -1146 L 537 -1173 L 563 -1509 M 1151 169 L 790 -300 L 643 -221 M 594 -693 L 790 -300 L 945 -362 M 482 -664 L 594 -693 M 813 958 Q 901 924 991 893 M 387 1139 Q 512 1078 641 1025 M -51 1385 Q 33 1331 120 1281 L 147 1266 M -303 -5224 L -204 -5527 M -89 -5906 L -85 -5921 M -615 -4480 Q -527 -4618 -411 -4921 M -765 -1207 L -725 -997 L -523 -966 M -998 123 L -819 -378 L -906 -422 M -819 -378 L -780 -542 Q -727 -764 -725 -997 L -865 -1006 M -819 -378 L -644 -282 M -485 1706 Q -406 1633 -319 1569 M -76 1401 L -51 1385">

</path>

</g>

</g>

</g>

</g>

</g>

</g>

<defs>

<defs>

</defs>

</defs>

</svg>
