<?xml version="1.0" encoding="utf-8"?>
<!DOCTYPE svg PUBLIC "-//W3C//DTD SVG 1.1//EN" "http://www.w3.org/Graphics/SVG/1.1/DTD/svg11.dtd">
<svg version="1.1" xmlns="http://www.w3.org/2000/svg" xmlns:xlink="http://www.w3.org/1999/xlink" viewBox="0 0 30000 20000">

<g enable-background="new">

<g>

<g>

<g transform="matrix(-0.489990234375 0 0 0.489990234375 15497 11049)">

<g>

<path fill-opacity="1.000" fill="rgb(183,58,52)" d="M -18476 -1986 Q -18652 -1896 -18855 -1757 Q -19057 -1616 -19266 -1155 L -19266 -1126 L -19190 -1145 Q -18881 -1222 -18575 -1359 Q -18610 -1629 -18476 -1986 Z M -19577 -1562 Q -19754 -1479 -19927 -1383 Q -20773 -923 -21390 -406 L -21225 -419 Q -21185 -442 -21145 -461 Q -20512 -770 -19651 -1014 Q -19730 -1270 -19577 -1562 Z M -14569 -3025 Q -15561 -3025 -16273 -2842 Q -17786 -2381 -17754 -2167 Q -18059 -1860 -18119 -1541 Q -17583 -1763 -17011 -1917 Q -16034 -2188 -15013 -2239 Q -13954 -2281 -12946 -2283 Q -12594 -2269 -12274 -2190 Q -11499 -1995 -10779 -1763 Q -9631 -1641 -8683 -1199 Q -8079 -915 -7607 -403 Q -7029 210 -6566 798 Q -6391 1018 -6160 1109 Q -5858 878 -5560 662 Q -4757 86 -3909 -343 Q -3058 -772 -2162 -1012 Q -3103 -1037 -4016 -1165 Q -4865 -1277 -5706 -1468 Q -6599 -1674 -7475 -1959 Q -8278 -2221 -9140 -2335 L -9356 -2360 L -9356 -2360 Q -9356 -2360 -9356 -2360 L -10826 -2551 L -10844 -2553 L -11036 -2595 L -11592 -2729 Q -13308 -3025 -14569 -3025 Z M -9890 -607 Q -8994 208 -8453 1059 Q -8374 1183 -8306 1311 Q -9308 770 -10541 464 Q -11741 123 -13048 -110 Q -13524 -188 -14005 -188 Q -14346 -188 -14689 -149 Q -14305 373 -13752 470 Q -12531 690 -11441 1041 Q -10822 1248 -10118 1339 L -9792 1453 L -9554 1537 Q -9056 1673 -8613 1893 L -8503 1948 L -8440 1975 Q -7939 2047 -7582 2371 L -7539 2410 Q -7510 2424 -7484 2441 Q -7259 2563 -7062 2693 L -7024 2687 Q -6779 2687 -6558 2771 Q -6246 2582 -5938 2420 L -5833 2433 Q -5784 2396 -5602 2319 Q -5345 2204 -5328 2181 L -5296 2139 L -5258 2087 L -5258 2087 Q -5258 2087 -5258 2087 Q -4934 1940 -4617 1820 L -4477 1796 L -4365 1777 Q -4207 1757 -4077 1665 L -4025 1624 Q -4001 1622 -3989 1612 L -3989 1612 Q -3989 1612 -3989 1612 L -3988 1611 Q -3671 1519 -3365 1455 Q -3208 1421 -3054 1398 Q -3360 1361 -3642 1361 Q -4254 1361 -4753 1536 Q -5566 1819 -6290 2398 Q -6542 2188 -6818 2026 Q -6893 1977 -6972 1936 L -6972 1936 L -6972 1936 L -6982 1920 L -7022 1858 L -7134 1698 Q -7211 1589 -7304 1479 Q -7479 1256 -7682 1041 Q -7867 906 -8015 714 L -8049 665 L -8202 517 L -8238 483 Q -8394 279 -8613 131 Q -8640 113 -8670 94 Q -8676 85 -8686 79 L -8730 41 L -8934 -132 L -9194 -351 L -9324 -455 Q -9500 -535 -9696 -570 L -9890 -607 Z">

</path>

<path fill-opacity="1.000" fill="rgb(206,52,52)" d="M -18476 -1986 Q -18610 -1629 -18575 -1359 Q -18881 -1222 -19190 -1145 L -19266 -1126 L -19266 -1155 Q -19057 -1616 -18855 -1757 Q -18652 -1896 -18476 -1986 Z M -14569 -3025 Q -13307 -3025 -11592 -2729 L -11036 -2595 L -10844 -2553 L -10826 -2551 L -9356 -2360 L -9140 -2335 Q -8278 -2221 -7475 -1959 Q -6599 -1674 -5706 -1468 Q -4865 -1277 -4016 -1165 Q -3103 -1037 -2162 -1012 Q -3058 -772 -3909 -343 Q -4757 86 -5560 662 Q -5858 878 -6160 1109 Q -6391 1018 -6566 798 Q -7029 210 -7607 -403 Q -8079 -915 -8683 -1199 Q -9631 -1641 -10779 -1763 Q -11499 -1995 -12274 -2190 Q -12594 -2269 -12946 -2283 Q -13954 -2281 -15013 -2239 Q -16034 -2188 -17011 -1917 Q -17583 -1763 -18119 -1541 Q -18059 -1860 -17754 -2167 Q -17786 -2381 -16273 -2842 Q -15562 -3025 -14569 -3025 Z M -9890 -607 L -9696 -570 Q -9500 -535 -9324 -455 L -9194 -351 L -8934 -132 L -8730 41 L -8686 79 Q -8676 85 -8670 94 Q -8640 113 -8613 131 Q -8394 279 -8238 483 L -8202 517 L -8049 665 L -8015 714 Q -7867 906 -7682 1041 Q -7479 1256 -7304 1479 Q -7211 1589 -7134 1698 L -7022 1858 L -6982 1920 L -6972 1936 Q -6893 1977 -6818 2026 Q -6542 2188 -6290 2398 Q -5566 1819 -4753 1536 Q -4254 1361 -3642 1361 Q -3360 1361 -3054 1398 Q -3208 1421 -3365 1455 Q -3671 1519 -3988 1611 L -3989 1612 Q -4001 1622 -4025 1624 L -4077 1665 Q -4207 1757 -4365 1777 L -4477 1796 L -4617 1820 Q -4934 1940 -5258 2087 L -5296 2139 L -5328 2181 Q -5345 2204 -5602 2319 Q -5784 2396 -5833 2433 L -5938 2420 Q -6246 2582 -6558 2771 Q -6779 2687 -7024 2687 L -7062 2693 Q -7259 2563 -7484 2441 Q -7510 2424 -7539 2410 L -7582 2371 Q -7939 2047 -8440 1975 L -8503 1948 L -8613 1893 Q -9056 1673 -9554 1537 L -9792 1453 L -10118 1339 Q -10822 1248 -11441 1041 Q -12531 690 -13752 470 Q -14305 373 -14689 -149 Q -14346 -188 -14005 -188 Q -13524 -188 -13048 -110 Q -11741 123 -10541 464 Q -9308 770 -8306 1311 Q -8374 1183 -8453 1059 Q -8994 208 -9890 -607 Z M -13794 -3720 Q -14357 -3720 -14944 -3662 Q -16732 -3439 -17672 -2927 Q -18594 -2421 -18963 -2223 Q -18963 -2223 -18963 -2223 L -18963 -2223 L -19229 -2083 Q -19565 -1908 -19904 -1720 Q -20993 -1120 -21605 -427 Q -21552 -403 -21459 -403 Q -21427 -403 -21390 -406 Q -20773 -923 -19927 -1383 Q -19754 -1479 -19577 -1562 L -19577 -1562 Q -19730 -1270 -19651 -1014 Q -20512 -770 -21145 -461 Q -21185 -442 -21225 -419 Q -21042 -439 -20764 -439 Q -20645 -439 -20508 -435 L -18244 -252 Q -16965 -204 -14874 524 Q -12841 1203 -11235 1569 Q -8932 2105 -7896 2685 Q -7660 2818 -7288 3118 Q -6996 3349 -6775 3443 L -6253 3027 Q -5916 2763 -5658 2602 Q -4866 2115 -3769 1911 Q -3413 1842 -3056 1812 Q -2706 1779 -2352 1779 Q -2214 1779 -2075 1784 L -1561 1820 Q -996 1882 -647 1984 Q -448 1572 -348 1356 Q -144 921 -63 489 Q 52 -114 -85 -633 Q -256 -1282 -634 -1720 Q -807 -1760 -889 -1760 Q -903 -1760 -914 -1759 L -1274 -1723 L -1646 -1685 L -1728 -1675 Q -2349 -1606 -2895 -1589 Q -3064 -1584 -3232 -1584 Q -5404 -1584 -7587 -2492 L -7786 -2571 L -7876 -2554 L -8012 -2533 Q -8033 -2532 -8054 -2532 Q -8319 -2532 -8607 -2648 Q -9954 -3180 -11548 -3468 Q -12620 -3720 -13794 -3720 Z">

</path>

<path fill="none" stroke-opacity="1.000" stroke="rgb(0,0,0)" stroke-linejoin="round" stroke-linecap="round" stroke-width="28.571998006975587" d="M -10826 -2551 L -10844 -2553 M -12946 -2283 L -13203 -2355 M -9780 -2445 Q -10313 -2536 -10826 -2551 M -2162 -1012 L -2154 -1013 L -2128 -1019 L -2067 -1033 M -2012 -1044 Q -1892 -1067 -1788 -1097 M -12946 -2283 L -12855 -2255 M -12099 -1996 Q -12309 -2078 -12530 -2152 M -11519 -1658 L -11500 -1689 L -11465 -1728 Q -11626 -1804 -11790 -1872 M -11411 -1783 L -11465 -1728 L -11414 -1705 L -11178 -1587 M -10223 -1269 Q -10293 -1208 -10335 -1139 Q -10117 -1015 -9906 -875 M -10335 -1139 L -10336 -1139 Q -10361 -1091 -10386 -1054 M -10335 -1139 Q -10581 -1280 -10838 -1405 M -8520 -2129 Q -8944 -2269 -9356 -2360 M -9194 -351 L -9233 -315 L -9264 -291 M -8934 -132 Q -8961 -109 -8992 -89 Q -9021 -64 -9053 -54 M -9194 -351 L -8934 -132 Q -8876 -179 -8830 -233 M -9123 -425 Q -9155 -386 -9194 -351 L -9324 -455 M -10118 1339 Q -10232 1299 -10350 1263 L -10962 1060 M -9324 -455 Q -9416 -528 -9515 -601 M -7191 -1577 Q -7341 -1652 -7494 -1723 Q -7751 -1843 -8023 -1950 M -3932 -863 Q -3692 -856 -3471 -872 L -3168 -897 M -5338 -1070 Q -4799 -940 -4336 -890 M -2640 -950 L -2162 -1012 M -6545 -1428 Q -6097 -1275 -5696 -1162 M -1587 1319 L -1976 1305 Q -2299 1304 -2645 1342 M -4490 1774 L -4617 1820 M -4025 1624 Q -4001 1622 -3989 1612 Q -4057 1628 -4124 1653 M -3054 1398 Q -3208 1421 -3365 1455 Q -3671 1519 -3988 1611 L -3989 1612 M -5258 2087 Q -5347 2123 -5432 2166 M -5938 2420 Q -6246 2582 -6558 2771 Q -6588 2786 -6614 2804 M -5859 2379 L -5938 2420 M -6972 1936 L -6879 2086 M -4617 1820 Q -4934 1940 -5258 2087 M -7682 1041 L -7813 899 M -7134 1698 Q -7211 1589 -7304 1479 Q -7479 1256 -7682 1041 M -7134 1698 Q -7171 1705 -7207 1719 L -7237 1725 M -7022 1858 L -7119 1877 L -7135 1889 M -6972 1936 L -6982 1920 L -7022 1858 L -7134 1698 Q -7080 1684 -7029 1681 M -7022 1858 L -6958 1848 M -8238 483 L -8371 360 M -8670 94 Q -8676 85 -8686 79 L -8730 41 L -8934 -132 M -8202 517 L -8225 538 L -8242 556 M -8202 517 L -8238 483 M -8129 456 L -8202 517 L -8049 665 M -9039 1730 Q -9285 1630 -9554 1537 L -9792 1453 M -8503 1948 Q -8631 1892 -8762 1839 M -7484 2441 Q -7259 2563 -7062 2693 L -6941 2772 M -7539 2410 Q -7621 2363 -7711 2320 M -8090 2133 Q -8257 2052 -8440 1975 M -11306 947 Q -11689 822 -12123 692 M -16972 -475 L -17452 -523 M -13580 -2452 Q -13989 -2548 -14421 -2623 M -14776 -2678 L -15408 -2751 M -14861 -88 Q -15243 -181 -15644 -262 M -16034 -336 L -16646 -433 M -13646 243 Q -14018 130 -14414 25 M -12473 588 L -13197 374">

</path>

<path fill="none" stroke-opacity="1.000" stroke="rgb(0,0,0)" stroke-linejoin="round" stroke-linecap="round" stroke-width="40" d="M -11592 -2729 Q -14657 -3258 -16273 -2842 Q -17786 -2381 -17754 -2167 Q -18059 -1860 -18119 -1541 M -21225 -419 Q -20963 -447 -20508 -435 L -18244 -252 Q -16965 -204 -14874 524 Q -12841 1203 -11235 1569 Q -8932 2105 -7896 2685 Q -7660 2818 -7288 3118 Q -6996 3349 -6775 3443 L -6253 3027 Q -5916 2763 -5658 2602 Q -4866 2115 -3769 1911 Q -3413 1842 -3056 1812 Q -2569 1766 -2075 1784 L -1561 1820 Q -996 1882 -647 1984 Q -448 1572 -348 1356 Q -144 921 -63 489 Q 52 -114 -85 -633 Q -256 -1282 -634 -1720 Q -837 -1767 -914 -1759 L -1274 -1723 L -1646 -1685 L -1728 -1675 Q -2349 -1606 -2895 -1589 Q -5235 -1513 -7587 -2492 L -7786 -2571 L -7876 -2554 L -8012 -2533 Q -8296 -2523 -8607 -2648 Q -9954 -3180 -11548 -3468 Q -13134 -3841 -14944 -3662 Q -16732 -3439 -17672 -2927 Q -18594 -2421 -18963 -2223 Q -19412 -1879 -19577 -1562 Q -19730 -1270 -19651 -1014 Q -19609 -886 -19510 -757 Q -19350 -558 -19037 -519 Q -19101 -620 -19192 -708 Q -19279 -793 -19266 -1126 L -19266 -1155 Q -19057 -1616 -18855 -1757 Q -18652 -1896 -18476 -1986 Q -18610 -1629 -18575 -1359 Q -18512 -919 -18021 -622 Q -17903 -549 -17768 -508 Q -18208 -1081 -18119 -1541 M -21225 -419 L -21390 -406 Q -21534 -395 -21605 -427 Q -20993 -1120 -19904 -1720 Q -19565 -1908 -19229 -2083 L -18963 -2223">

</path>

<path fill="none" stroke-opacity="1.000" stroke="rgb(0,0,0)" stroke-linejoin="round" stroke-linecap="round" stroke-width="28.571998006975587" d="M -2067 -1033 L -2012 -1044">

</path>

</g>

</g>

<g transform="matrix(0.489990234375 0 0 0.489990234375 14397 11049)">

<g>

<path fill-opacity="1.000" fill="rgb(183,58,52)" d="M -18476 -1986 Q -18652 -1896 -18855 -1757 Q -19057 -1616 -19266 -1155 L -19266 -1126 L -19190 -1145 Q -18881 -1222 -18575 -1359 Q -18610 -1629 -18476 -1986 Z M -19577 -1562 Q -19754 -1479 -19927 -1383 Q -20773 -923 -21390 -406 L -21225 -419 Q -21185 -442 -21145 -461 Q -20512 -770 -19651 -1014 Q -19730 -1270 -19577 -1562 Z M -14569 -3025 Q -15561 -3025 -16273 -2842 Q -17786 -2381 -17754 -2167 Q -18059 -1860 -18119 -1541 Q -17583 -1763 -17011 -1917 Q -16034 -2188 -15013 -2239 Q -13954 -2281 -12946 -2283 Q -12594 -2269 -12274 -2190 Q -11499 -1995 -10779 -1763 Q -9631 -1641 -8683 -1199 Q -8079 -915 -7607 -403 Q -7029 210 -6566 798 Q -6391 1018 -6160 1109 Q -5858 878 -5560 662 Q -4757 86 -3909 -343 Q -3058 -772 -2162 -1012 Q -3103 -1037 -4016 -1165 Q -4865 -1277 -5706 -1468 Q -6599 -1674 -7475 -1959 Q -8278 -2221 -9140 -2335 L -9356 -2360 L -9356 -2360 Q -9356 -2360 -9356 -2360 L -10826 -2551 L -10844 -2553 L -11036 -2595 L -11592 -2729 Q -13308 -3025 -14569 -3025 Z M -9890 -607 Q -8994 208 -8453 1059 Q -8374 1183 -8306 1311 Q -9308 770 -10541 464 Q -11741 123 -13048 -110 Q -13524 -188 -14005 -188 Q -14346 -188 -14689 -149 Q -14305 373 -13752 470 Q -12531 690 -11441 1041 Q -10822 1248 -10118 1339 L -9792 1453 L -9554 1537 Q -9056 1673 -8613 1893 L -8503 1948 L -8440 1975 Q -7939 2047 -7582 2371 L -7539 2410 Q -7510 2424 -7484 2441 Q -7259 2563 -7062 2693 L -7024 2687 Q -6779 2687 -6558 2771 Q -6246 2582 -5938 2420 L -5833 2433 Q -5784 2396 -5602 2319 Q -5345 2204 -5328 2181 L -5296 2139 L -5258 2087 L -5258 2087 Q -5258 2087 -5258 2087 Q -4934 1940 -4617 1820 L -4477 1796 L -4365 1777 Q -4207 1757 -4077 1665 L -4025 1624 Q -4001 1622 -3989 1612 L -3989 1612 Q -3989 1612 -3989 1612 L -3988 1611 Q -3671 1519 -3365 1455 Q -3208 1421 -3054 1398 Q -3360 1361 -3642 1361 Q -4254 1361 -4753 1536 Q -5566 1819 -6290 2398 Q -6542 2188 -6818 2026 Q -6893 1977 -6972 1936 L -6972 1936 L -6972 1936 L -6982 1920 L -7022 1858 L -7134 1698 Q -7211 1589 -7304 1479 Q -7479 1256 -7682 1041 Q -7867 906 -8015 714 L -8049 665 L -8202 517 L -8238 483 Q -8394 279 -8613 131 Q -8640 113 -8670 94 Q -8676 85 -8686 79 L -8730 41 L -8934 -132 L -9194 -351 L -9324 -455 Q -9500 -535 -9696 -570 L -9890 -607 Z">

</path>

<path fill-opacity="1.000" fill="rgb(206,52,52)" d="M -18476 -1986 Q -18610 -1629 -18575 -1359 Q -18881 -1222 -19190 -1145 L -19266 -1126 L -19266 -1155 Q -19057 -1616 -18855 -1757 Q -18652 -1896 -18476 -1986 Z M -14569 -3025 Q -13307 -3025 -11592 -2729 L -11036 -2595 L -10844 -2553 L -10826 -2551 L -9356 -2360 L -9140 -2335 Q -8278 -2221 -7475 -1959 Q -6599 -1674 -5706 -1468 Q -4865 -1277 -4016 -1165 Q -3103 -1037 -2162 -1012 Q -3058 -772 -3909 -343 Q -4757 86 -5560 662 Q -5858 878 -6160 1109 Q -6391 1018 -6566 798 Q -7029 210 -7607 -403 Q -8079 -915 -8683 -1199 Q -9631 -1641 -10779 -1763 Q -11499 -1995 -12274 -2190 Q -12594 -2269 -12946 -2283 Q -13954 -2281 -15013 -2239 Q -16034 -2188 -17011 -1917 Q -17583 -1763 -18119 -1541 Q -18059 -1860 -17754 -2167 Q -17786 -2381 -16273 -2842 Q -15562 -3025 -14569 -3025 Z M -9890 -607 L -9696 -570 Q -9500 -535 -9324 -455 L -9194 -351 L -8934 -132 L -8730 41 L -8686 79 Q -8676 85 -8670 94 Q -8640 113 -8613 131 Q -8394 279 -8238 483 L -8202 517 L -8049 665 L -8015 714 Q -7867 906 -7682 1041 Q -7479 1256 -7304 1479 Q -7211 1589 -7134 1698 L -7022 1858 L -6982 1920 L -6972 1936 Q -6893 1977 -6818 2026 Q -6542 2188 -6290 2398 Q -5566 1819 -4753 1536 Q -4254 1361 -3642 1361 Q -3360 1361 -3054 1398 Q -3208 1421 -3365 1455 Q -3671 1519 -3988 1611 L -3989 1612 Q -4001 1622 -4025 1624 L -4077 1665 Q -4207 1757 -4365 1777 L -4477 1796 L -4617 1820 Q -4934 1940 -5258 2087 L -5296 2139 L -5328 2181 Q -5345 2204 -5602 2319 Q -5784 2396 -5833 2433 L -5938 2420 Q -6246 2582 -6558 2771 Q -6779 2687 -7024 2687 L -7062 2693 Q -7259 2563 -7484 2441 Q -7510 2424 -7539 2410 L -7582 2371 Q -7939 2047 -8440 1975 L -8503 1948 L -8613 1893 Q -9056 1673 -9554 1537 L -9792 1453 L -10118 1339 Q -10822 1248 -11441 1041 Q -12531 690 -13752 470 Q -14305 373 -14689 -149 Q -14346 -188 -14005 -188 Q -13524 -188 -13048 -110 Q -11741 123 -10541 464 Q -9308 770 -8306 1311 Q -8374 1183 -8453 1059 Q -8994 208 -9890 -607 Z M -13794 -3720 Q -14357 -3720 -14944 -3662 Q -16732 -3439 -17672 -2927 Q -18594 -2421 -18963 -2223 Q -18963 -2223 -18963 -2223 L -18963 -2223 L -19229 -2083 Q -19565 -1908 -19904 -1720 Q -20993 -1120 -21605 -427 Q -21552 -403 -21459 -403 Q -21427 -403 -21390 -406 Q -20773 -923 -19927 -1383 Q -19754 -1479 -19577 -1562 L -19577 -1562 Q -19730 -1270 -19651 -1014 Q -20512 -770 -21145 -461 Q -21185 -442 -21225 -419 Q -21042 -439 -20764 -439 Q -20645 -439 -20508 -435 L -18244 -252 Q -16965 -204 -14874 524 Q -12841 1203 -11235 1569 Q -8932 2105 -7896 2685 Q -7660 2818 -7288 3118 Q -6996 3349 -6775 3443 L -6253 3027 Q -5916 2763 -5658 2602 Q -4866 2115 -3769 1911 Q -3413 1842 -3056 1812 Q -2706 1779 -2352 1779 Q -2214 1779 -2075 1784 L -1561 1820 Q -996 1882 -647 1984 Q -448 1572 -348 1356 Q -144 921 -63 489 Q 52 -114 -85 -633 Q -256 -1282 -634 -1720 Q -807 -1760 -889 -1760 Q -903 -1760 -914 -1759 L -1274 -1723 L -1646 -1685 L -1728 -1675 Q -2349 -1606 -2895 -1589 Q -3064 -1584 -3232 -1584 Q -5404 -1584 -7587 -2492 L -7786 -2571 L -7876 -2554 L -8012 -2533 Q -8033 -2532 -8054 -2532 Q -8319 -2532 -8607 -2648 Q -9954 -3180 -11548 -3468 Q -12620 -3720 -13794 -3720 Z">

</path>

<path fill="none" stroke-opacity="1.000" stroke="rgb(0,0,0)" stroke-linejoin="round" stroke-linecap="round" stroke-width="28.571998006975587" d="M -10826 -2551 L -10844 -2553 M -12946 -2283 L -13203 -2355 M -9780 -2445 Q -10313 -2536 -10826 -2551 M -2162 -1012 L -2154 -1013 L -2128 -1019 L -2067 -1033 M -2012 -1044 Q -1892 -1067 -1788 -1097 M -12946 -2283 L -12855 -2255 M -12099 -1996 Q -12309 -2078 -12530 -2152 M -11519 -1658 L -11500 -1689 L -11465 -1728 Q -11626 -1804 -11790 -1872 M -11411 -1783 L -11465 -1728 L -11414 -1705 L -11178 -1587 M -10223 -1269 Q -10293 -1208 -10335 -1139 Q -10117 -1015 -9906 -875 M -10335 -1139 L -10336 -1139 Q -10361 -1091 -10386 -1054 M -10335 -1139 Q -10581 -1280 -10838 -1405 M -8520 -2129 Q -8944 -2269 -9356 -2360 M -9194 -351 L -9233 -315 L -9264 -291 M -8934 -132 Q -8961 -109 -8992 -89 Q -9021 -64 -9053 -54 M -9194 -351 L -8934 -132 Q -8876 -179 -8830 -233 M -9123 -425 Q -9155 -386 -9194 -351 L -9324 -455 M -10118 1339 Q -10232 1299 -10350 1263 L -10962 1060 M -9324 -455 Q -9416 -528 -9515 -601 M -7191 -1577 Q -7341 -1652 -7494 -1723 Q -7751 -1843 -8023 -1950 M -3932 -863 Q -3692 -856 -3471 -872 L -3168 -897 M -5338 -1070 Q -4799 -940 -4336 -890 M -2640 -950 L -2162 -1012 M -6545 -1428 Q -6097 -1275 -5696 -1162 M -1587 1319 L -1976 1305 Q -2299 1304 -2645 1342 M -4490 1774 L -4617 1820 M -4025 1624 Q -4001 1622 -3989 1612 Q -4057 1628 -4124 1653 M -3054 1398 Q -3208 1421 -3365 1455 Q -3671 1519 -3988 1611 L -3989 1612 M -5258 2087 Q -5347 2123 -5432 2166 M -5938 2420 Q -6246 2582 -6558 2771 Q -6588 2786 -6614 2804 M -5859 2379 L -5938 2420 M -6972 1936 L -6879 2086 M -4617 1820 Q -4934 1940 -5258 2087 M -7682 1041 L -7813 899 M -7134 1698 Q -7211 1589 -7304 1479 Q -7479 1256 -7682 1041 M -7134 1698 Q -7171 1705 -7207 1719 L -7237 1725 M -7022 1858 L -7119 1877 L -7135 1889 M -6972 1936 L -6982 1920 L -7022 1858 L -7134 1698 Q -7080 1684 -7029 1681 M -7022 1858 L -6958 1848 M -8238 483 L -8371 360 M -8670 94 Q -8676 85 -8686 79 L -8730 41 L -8934 -132 M -8202 517 L -8225 538 L -8242 556 M -8202 517 L -8238 483 M -8129 456 L -8202 517 L -8049 665 M -9039 1730 Q -9285 1630 -9554 1537 L -9792 1453 M -8503 1948 Q -8631 1892 -8762 1839 M -7484 2441 Q -7259 2563 -7062 2693 L -6941 2772 M -7539 2410 Q -7621 2363 -7711 2320 M -8090 2133 Q -8257 2052 -8440 1975 M -11306 947 Q -11689 822 -12123 692 M -16972 -475 L -17452 -523 M -13580 -2452 Q -13989 -2548 -14421 -2623 M -14776 -2678 L -15408 -2751 M -14861 -88 Q -15243 -181 -15644 -262 M -16034 -336 L -16646 -433 M -13646 243 Q -14018 130 -14414 25 M -12473 588 L -13197 374">

</path>

<path fill="none" stroke-opacity="1.000" stroke="rgb(0,0,0)" stroke-linejoin="round" stroke-linecap="round" stroke-width="40" d="M -11592 -2729 Q -14657 -3258 -16273 -2842 Q -17786 -2381 -17754 -2167 Q -18059 -1860 -18119 -1541 M -21225 -419 Q -20963 -447 -20508 -435 L -18244 -252 Q -16965 -204 -14874 524 Q -12841 1203 -11235 1569 Q -8932 2105 -7896 2685 Q -7660 2818 -7288 3118 Q -6996 3349 -6775 3443 L -6253 3027 Q -5916 2763 -5658 2602 Q -4866 2115 -3769 1911 Q -3413 1842 -3056 1812 Q -2569 1766 -2075 1784 L -1561 1820 Q -996 1882 -647 1984 Q -448 1572 -348 1356 Q -144 921 -63 489 Q 52 -114 -85 -633 Q -256 -1282 -634 -1720 Q -837 -1767 -914 -1759 L -1274 -1723 L -1646 -1685 L -1728 -1675 Q -2349 -1606 -2895 -1589 Q -5235 -1513 -7587 -2492 L -7786 -2571 L -7876 -2554 L -8012 -2533 Q -8296 -2523 -8607 -2648 Q -9954 -3180 -11548 -3468 Q -13134 -3841 -14944 -3662 Q -16732 -3439 -17672 -2927 Q -18594 -2421 -18963 -2223 Q -19412 -1879 -19577 -1562 Q -19730 -1270 -19651 -1014 Q -19609 -886 -19510 -757 Q -19350 -558 -19037 -519 Q -19101 -620 -19192 -708 Q -19279 -793 -19266 -1126 L -19266 -1155 Q -19057 -1616 -18855 -1757 Q -18652 -1896 -18476 -1986 Q -18610 -1629 -18575 -1359 Q -18512 -919 -18021 -622 Q -17903 -549 -17768 -508 Q -18208 -1081 -18119 -1541 M -21225 -419 L -21390 -406 Q -21534 -395 -21605 -427 Q -20993 -1120 -19904 -1720 Q -19565 -1908 -19229 -2083 L -18963 -2223">

</path>

<path fill="none" stroke-opacity="1.000" stroke="rgb(0,0,0)" stroke-linejoin="round" stroke-linecap="round" stroke-width="28.571998006975587" d="M -2067 -1033 L -2012 -1044">

</path>

</g>

</g>

<g transform="matrix(0.489990234375 0 0 0.489990234375 14898 11225)">

<g>

<path fill-opacity="1.000" fill="rgb(183,58,52)" d="M 29 -2731 Q 18 -2731 8 -2731 Q -776 -2726 -1474 -2386 Q -1599 -2325 -1713 -2248 Q -1836 -2166 -1946 -2064 L -2106 -1921 Q -2052 -1146 -1855 -395 Q -1659 357 -1282 1029 L -1276 1040 Q -894 1719 -385 2301 Q -138 2582 102 2582 Q 356 2582 602 2267 Q 800 2015 923 1716 Q 1200 1045 1441 361 Q 1694 -359 1875 -1101 Q 2015 -1677 1895 -2259 L 1717 -2350 Q 1597 -2408 1472 -2457 Q 775 -2731 29 -2731 Z M -1970 1830 Q -2032 2311 -1941 2784 L -1927 2835 Q -1807 2714 -1673 2714 Q -1610 2714 -1543 2741 Q -1434 2786 -1367 2898 Q -1289 3028 -1245 3172 L -1222 3164 Q -991 3009 -923 2720 L -896 2627 Q -1194 2510 -1458 2316 Q -1629 2191 -1785 2034 Q -1883 1935 -1970 1830 Z M 2090 2025 Q 1942 2169 1782 2285 Q 1453 2524 1069 2647 Q 1240 2920 1464 3159 L 1495 3185 Q 1485 2702 1801 2702 Q 1871 2702 1958 2726 Q 2051 2751 2109 2838 L 2146 2897 Q 2234 2453 2090 2025 Z">

</path>

<path fill-opacity="1.000" fill="rgb(206,52,52)" d="M 1895 -2259 Q 2015 -1677 1875 -1101 Q 1694 -359 1441 361 Q 1200 1045 923 1716 Q 800 2015 602 2267 Q 356 2582 102 2582 Q -138 2582 -385 2301 Q -894 1719 -1276 1040 L -1282 1029 L -1282 1029 Q -1282 1029 -1282 1029 Q -1659 357 -1855 -395 Q -2052 -1146 -2106 -1921 Q -2608 -1486 -3180 -1169 L -3155 -914 Q -3093 -111 -3225 679 Q -2578 909 -2203 1509 Q -2097 1677 -1970 1830 Q -1883 1935 -1785 2034 Q -1629 2191 -1458 2316 Q -1194 2510 -896 2627 Q -717 2697 -525 2739 Q -231 2803 76 2803 Q 518 2803 988 2671 L 1069 2647 Q 1453 2524 1782 2285 Q 1942 2169 2090 2025 Q 2251 1867 2398 1675 Q 2848 1083 3270 825 Q 3289 538 3323 253 Q 3408 -449 3399 -1155 Q 3043 -1323 2763 -1604 Q 2369 -2000 1895 -2259 Z">

</path>

<path fill="none" stroke-opacity="1.000" stroke="rgb(0,0,0)" stroke-linejoin="round" stroke-linecap="round" stroke-width="28.571998006975587" d="M 1717 -2350 L 1791 -2180 M 1971 -1332 Q 1976 -1190 1966 -1045 M 1884 -1897 Q 1918 -1770 1940 -1642 M 1925 -736 L 1908 -655 L 1866 -464 M -1713 -2248 L -1742 -2149 M -1786 -1954 Q -1819 -1782 -1827 -1606 M -1282 1029 L -1286 1001 M -1716 -728 L -1689 -641 L -1627 -444 M -1822 -1307 Q -1811 -1148 -1779 -987 M -1401 404 L -1339 701 M -1263 1557 Q -1274 1698 -1301 1834 M -1282 1029 Q -1266 1153 -1260 1273 M -1458 2316 Q -1411 2213 -1374 2107 M 1782 2285 Q 1730 2222 1688 2157 M 1484 1644 Q 1503 1765 1546 1881 M 1534 1012 L 1508 1124 Q 1484 1229 1475 1330 M 1665 437 L 1603 712 M -1548 -175 L -1469 121 M 1798 -157 L 1735 128">

</path>

<path fill="none" stroke-opacity="1.000" stroke="rgb(0,0,0)" stroke-linejoin="round" stroke-linecap="round" stroke-width="40" d="M -2106 -1921 L -1946 -2064 Q -1836 -2166 -1713 -2248 Q -1599 -2325 -1474 -2386 Q -776 -2726 8 -2731 Q 765 -2735 1472 -2457 Q 1597 -2408 1717 -2350 L 1895 -2259 Q 2369 -2000 2763 -1604 Q 3043 -1323 3399 -1155 L 3461 -1127 M -3227 -1143 L -3180 -1169 Q -2608 -1486 -2106 -1921 M -3225 679 Q -2578 909 -2203 1509 Q -2097 1677 -1970 1830 Q -1883 1935 -1785 2034 Q -1629 2191 -1458 2316 M -1970 1830 Q -2032 2311 -1941 2784 L -1927 2835 Q -1750 2657 -1543 2741 Q -1434 2786 -1367 2898 Q -1289 3028 -1245 3172 L -1222 3164 Q -991 3009 -923 2720 L -896 2627 Q -1194 2510 -1458 2316 M -896 2627 Q -717 2697 -525 2739 Q 190 2895 988 2671 L 1069 2647 Q 1453 2524 1782 2285 M -3243 673 L -3225 679 M 3270 825 Q 3391 751 3509 704 M 3270 825 Q 2848 1083 2398 1675 Q 2251 1867 2090 2025 Q 2234 2453 2146 2897 L 2109 2838 Q 2051 2751 1958 2726 Q 1483 2595 1495 3185 L 1464 3159 Q 1240 2920 1069 2647 M 2090 2025 Q 1942 2169 1782 2285">

</path>

</g>

</g>

<g transform="matrix(0.489990234375 0 0 0.489990234375 14924 10667)">

<g>

<path fill-opacity="1.000" fill="rgb(255,255,255)" d="M 1846 -2265 Q 1594 -1822 1766 -1340 L 1789 -1278 Q 1866 -1391 1927 -1548 Q 2065 -1910 1846 -2265 Z M -1867 -2415 Q -1989 -2164 -1980 -1756 Q -1974 -1468 -1882 -1277 Q -1464 -1800 -1840 -2376 L -1867 -2415 Z M 1486 -2662 Q 1274 -2526 1060 -2424 Q 1059 -1679 1125 -1323 Q 1187 -982 1265 -982 Q 1268 -982 1272 -983 Q 1419 -983 1540 -1046 Q 1036 -1775 1617 -2398 L 1691 -2468 Q 1602 -2565 1486 -2662 Z M -1445 -2774 Q -1592 -2731 -1698 -2638 Q -1621 -2553 -1561 -2462 Q -1084 -1737 -1547 -964 Q -1399 -907 -1199 -907 Q -1196 -907 -1192 -907 Q -1026 -1438 -1049 -1865 L -1078 -2331 L -1159 -2447 Q -1267 -2593 -1445 -2774 Z">

</path>

<path fill-opacity="1.000" fill="rgb(0,0,0)" d="M 1691 -2468 L 1617 -2398 Q 1036 -1775 1540 -1046 Q 1681 -1120 1789 -1278 L 1766 -1340 Q 1594 -1822 1846 -2265 Q 1783 -2367 1691 -2468 Z M -1707 -2640 Q -1720 -2640 -1720 -2619 Q -1809 -2535 -1867 -2415 L -1840 -2376 Q -1464 -1800 -1882 -1277 Q -1829 -1166 -1547 -964 Q -1084 -1737 -1561 -2462 Q -1621 -2553 -1698 -2638 Q -1703 -2640 -1707 -2640 Z">

</path>

<path fill-opacity="1.000" fill="rgb(206,52,52)" d="M 504 -7676 Q 483 -7676 458 -7671 Q 303 -7640 110 -7355 L 72 -7174 Q -76 -6553 -85 -5921 L 0 -5471 Q 3 -5139 -5 -4807 L -56 -2987 Q -61 -2830 -133 -2715 Q -250 -2532 -380 -2532 Q -523 -2532 -684 -2751 Q -916 -2822 -1072 -3110 Q -1126 -3209 -1180 -3275 Q -1287 -3405 -1396 -3405 Q -1476 -3405 -1556 -3335 Q -1802 -3122 -1549 -2878 L -1445 -2774 Q -1267 -2593 -1159 -2447 L -1078 -2331 Q -994 -2203 -931 -2074 Q -902 -2013 -876 -1937 Q -812 -1895 -770 -1832 Q -381 -1250 -299 -528 Q -190 432 -51 1385 L -39 1575 Q 14 2265 -215 2911 Q -141 3258 -60 3411 Q 33 3510 122 3510 Q 271 3510 409 3232 Q 627 2788 824 1738 Q 910 1280 991 893 Q 1073 494 1151 169 L 1190 6 Q 1359 -676 1540 -1046 L 1540 -1046 Q 1419 -983 1272 -983 Q 1269 -982 1265 -982 Q 1187 -982 1125 -1323 Q 1059 -1679 1060 -2424 Q 1274 -2526 1486 -2662 L 1592 -2732 Q 1934 -2967 1778 -3216 Q 1683 -3366 1533 -3366 Q 1434 -3366 1310 -3301 L 1238 -3261 Q 1248 -3865 882 -4325 Q 516 -4786 384 -5169 Q 251 -5552 317 -6094 Q 382 -6637 557 -7181 Q 608 -7338 621 -7445 L 621 -7445 Q 621 -7445 621 -7445 Q 649 -7676 504 -7676 Z">

</path>

<path fill-opacity="1.000" fill="rgb(183,58,52)" d="M 110 -7355 Q -41 -7133 -216 -6756 Q -614 -5896 -597 -5023 Q -592 -4788 -615 -4480 L -636 -4249 Q -1078 -3769 -1180 -3275 Q -1126 -3209 -1072 -3110 Q -916 -2822 -684 -2751 Q -524 -2532 -380 -2532 Q -249 -2532 -133 -2715 Q -61 -2830 -56 -2987 L -5 -4807 Q 3 -5139 0 -5471 L -85 -5921 Q -76 -6553 72 -7174 L 110 -7355 Z M -1078 -2331 L -1049 -1865 Q -1026 -1438 -1192 -907 Q -1195 -907 -1199 -907 Q -1399 -907 -1547 -964 L -1547 -964 Q -1224 -399 -998 123 Q -787 610 -660 1058 Q -566 1388 -485 1706 Q -339 2281 -234 2814 L -215 2911 Q 14 2265 -39 1575 L -51 1385 Q -190 432 -299 -528 Q -381 -1250 -770 -1832 Q -812 -1895 -876 -1937 L -876 -1937 Q -876 -1937 -876 -1937 Q -902 -2013 -931 -2074 Q -994 -2203 -1078 -2331 Z">

</path>

<path fill="none" stroke-opacity="1.000" stroke="rgb(0,0,0)" stroke-linejoin="round" stroke-linecap="round" stroke-width="40" d="M 621 -7445 Q 653 -7710 458 -7671 Q 303 -7640 110 -7355 M 621 -7445 Q 608 -7338 557 -7181 Q 382 -6637 317 -6094 Q 251 -5552 384 -5169 Q 516 -4786 882 -4325 Q 1248 -3865 1238 -3261 L 1310 -3301 Q 1621 -3465 1778 -3216 Q 1934 -2967 1592 -2732 L 1486 -2662 Q 1602 -2565 1691 -2468 Q 1783 -2367 1846 -2265 Q 2065 -1910 1927 -1548 Q 1866 -1391 1789 -1278 Q 1681 -1120 1540 -1046 Q 1359 -676 1190 6 L 1151 169 Q 1073 494 991 893 Q 910 1280 824 1738 Q 627 2788 409 3232 Q 190 3675 -60 3411 Q -141 3258 -215 2911 L -234 2814 Q -339 2281 -485 1706 Q -566 1388 -660 1058 Q -787 610 -998 123 Q -1224 -399 -1547 -964 Q -1829 -1166 -1882 -1277 Q -1974 -1468 -1980 -1756 Q -1989 -2164 -1867 -2415 Q -1809 -2535 -1720 -2619 M -1698 -2638 Q -1592 -2731 -1445 -2774 L -1549 -2878 Q -1802 -3122 -1556 -3335 Q -1366 -3501 -1180 -3275 Q -1078 -3769 -636 -4249 L -615 -4480 Q -592 -4788 -597 -5023 Q -614 -5896 -216 -6756 Q -41 -7133 110 -7355 M 1486 -2662 Q 1274 -2526 1060 -2424 Q 1059 -1679 1125 -1323 Q 1190 -968 1272 -983 Q 1419 -983 1540 -1046 Q 1036 -1775 1617 -2398 L 1691 -2468 M 1060 -2424 L 901 -2354 Q 553 -2211 543 -1730 M 483 -2695 Q 941 -3089 1238 -3261 M 1846 -2265 Q 1594 -1822 1766 -1340 L 1789 -1278 M -684 -2751 Q -916 -2822 -1072 -3110 Q -1126 -3209 -1180 -3275 M -1445 -2774 Q -1267 -2593 -1159 -2447 L -1078 -2331 Q -994 -2203 -931 -2074 Q -902 -2013 -876 -1937 M -422 -2735 Q -563 -2714 -684 -2751 M -1882 -1277 Q -1464 -1800 -1840 -2376 L -1867 -2415 M -1720 -2619 L -1698 -2638 Q -1621 -2553 -1561 -2462 Q -1084 -1737 -1547 -964 Q -1396 -906 -1192 -907 Q -1026 -1438 -1049 -1865 L -1078 -2331 M -876 -1937 Q -823 -1783 -784 -1569">

</path>

<path fill="none" stroke-opacity="1.000" stroke="rgb(0,0,0)" stroke-linejoin="round" stroke-linecap="round" stroke-width="28.571998006975587" d="M 436 -7173 Q 526 -7324 621 -7445 M -85 -5921 L -9 -6156 M 128 -6532 Q 192 -6694 259 -6838 M 683 -1207 L 537 -1173 L 538 -1066 Q 536 -877 594 -693 L 683 -724 M 362 -1146 L 537 -1173 L 563 -1509 M 1151 169 L 790 -300 L 643 -221 M 594 -693 L 790 -300 L 945 -362 M 482 -664 L 594 -693 M 813 958 Q 901 924 991 893 M 387 1139 Q 512 1078 641 1025 M -51 1385 Q 33 1331 120 1281 L 147 1266 M -303 -5224 L -204 -5527 M -89 -5906 L -85 -5921 M -615 -4480 Q -527 -4618 -411 -4921 M -765 -1207 L -725 -997 L -523 -966 M -998 123 L -819 -378 L -906 -422 M -819 -378 L -780 -542 Q -727 -764 -725 -997 L -865 -1006 M -819 -378 L -644 -282 M -485 1706 Q -406 1633 -319 1569 M -76 1401 L -51 1385">

</path>

</g>

</g>

</g>

</g>

</g>

</svg>
