<?xml version="1.0" encoding="utf-8"?>
<!DOCTYPE svg PUBLIC "-//W3C//DTD SVG 1.1//EN" "http://www.w3.org/Graphics/SVG/1.1/DTD/svg11.dtd">
<svg version="1.1" xmlns="http://www.w3.org/2000/svg" xmlns:xlink="http://www.w3.org/1999/xlink" viewBox="0 0 30000 20000">

<g enable-background="new">

<g>

<g>

<g transform="matrix(-0.489990234375 0 0 0.489990234375 15497 11191)">

<g>

<path fill-opacity="1.000" fill="#2FB582" d="M -17665 -3326 Q -17236 -3326 -17059 -2829 Q -17033 -2758 -16561 -1713 Q -16404 -1457 -16251 -1173 Q -15864 -437 -15185 123 Q -13988 1133 -12574 1779 L -12574 1776 L -12146 1968 Q -10718 2618 -9402 2735 Q -9213 2745 -9010 2745 Q -8841 2745 -8661 2738 Q -8303 2669 -7953 2555 Q -7633 2449 -7324 2315 Q -5750 1491 -4311 886 Q -3010 346 -1601 -198 L -1601 -198 Q -3563 1518 -5165 3845 L -5556 4365 Q -5857 4262 -5953 3887 Q -6107 3250 -6641 3029 Q -6778 2973 -6940 2973 Q -7063 2973 -7200 3005 Q -7881 3164 -8521 3164 Q -9064 3164 -9577 3049 Q -10688 2838 -11910 2394 Q -12261 2271 -12623 2128 Q -15360 957 -16872 -1186 Q -16992 -1363 -17697 -3325 Q -17681 -3326 -17665 -3326 Z M -13959 2593 L -13959 2593 Q -13439 2893 -12930 3137 Q -11409 3894 -10139 4554 Q -8913 5228 -7654 5553 Q -7661 5353 -7695 5164 Q -7810 4408 -8317 3832 L -7845 3808 L -7470 4167 L -7430 4193 Q -7272 4298 -7242 4511 Q -6884 5198 -6545 5704 Q -6246 5751 -5962 5770 Q -5471 5251 -4939 4760 Q -4457 4155 -3422 3099 Q -3293 3149 -3167 3184 Q -3060 3215 -3012 3286 L -3019 3284 Q -3035 3277 -3058 3277 Q -3372 3530 -3685 3803 Q -3913 4086 -4189 4277 L -4263 4326 L -4908 4935 Q -5193 5324 -5565 5564 L -5614 5596 Q -5947 5899 -6280 6181 Q -6530 6287 -6787 6385 Q -6977 6394 -7178 6394 L -7221 6384 Q -8058 6306 -8942 6088 L -9126 6031 Q -9250 5982 -9370 5928 Q -11651 5245 -13959 2593 Z M -16371 -8041 L -16471 -7882 Q -16768 -7384 -17025 -6877 Q -17874 -5132 -17971 -3135 Q -18031 -2229 -17816 -1362 Q -17639 -649 -17275 39 Q -16675 1135 -15674 2286 Q -14714 3384 -13662 4250 Q -12889 4882 -12135 5289 Q -9956 6554 -8076 6806 Q -7942 6814 -7809 6814 Q -7176 6814 -6558 6641 Q -5950 6162 -5358 5594 Q -4151 4379 -2820 3487 Q -1821 2823 -741 2498 Q -503 2000 -257 1509 Q 587 -105 -341 -1411 Q -2493 -807 -3911 119 Q -5329 1045 -6774 1781 Q -7538 2151 -8342 2264 Q -8631 2292 -8903 2292 Q -9386 2292 -9812 2203 Q -11137 1952 -12546 1224 L -12549 1227 Q -13883 692 -14964 -215 Q -15815 -925 -16328 -1796 Q -16628 -2306 -16813 -2872 Q -17036 -3584 -17082 -4294 Q -17132 -5069 -16972 -5842 L -16956 -5910 Q -16741 -6865 -16465 -7792 L -16371 -8041 Z">

</path>

<path fill-opacity="1.000" fill="#2D8C6F" d="M -17665 -3326 Q -17681 -3326 -17697 -3325 Q -16992 -1363 -16872 -1186 Q -15360 957 -12623 2128 Q -12261 2271 -11910 2394 Q -10688 2838 -9577 3049 Q -9064 3164 -8521 3164 Q -7882 3164 -7200 3005 Q -7063 2973 -6940 2973 Q -6778 2973 -6641 3029 Q -6107 3250 -5953 3887 Q -5857 4262 -5556 4365 L -5165 3845 Q -3563 1518 -1601 -198 L -1601 -198 Q -3010 346 -4311 886 Q -5750 1491 -7324 2315 Q -7633 2449 -7953 2555 Q -8303 2669 -8661 2738 Q -8841 2745 -9010 2745 Q -9213 2745 -9402 2735 Q -10718 2618 -12146 1968 L -12574 1776 L -12574 1779 Q -13988 1133 -15185 123 Q -15864 -437 -16251 -1173 Q -16404 -1457 -16561 -1713 Q -17033 -2758 -17059 -2829 Q -17236 -3326 -17665 -3326 Z M -13959 2593 L -13959 2593 Q -11651 5245 -9370 5928 Q -9250 5982 -9126 6031 L -8942 6088 Q -8058 6306 -7221 6384 L -7178 6394 Q -6977 6394 -6787 6385 Q -6530 6287 -6280 6181 Q -5947 5899 -5614 5596 L -5565 5564 Q -5193 5324 -4908 4935 L -4263 4326 L -4189 4277 Q -3913 4086 -3685 3803 Q -3372 3530 -3058 3277 Q -3035 3277 -3019 3284 L -3012 3286 Q -3060 3215 -3167 3184 Q -3293 3149 -3422 3099 Q -4457 4155 -4939 4760 Q -5471 5251 -5962 5770 Q -6246 5751 -6545 5704 Q -6884 5198 -7242 4511 Q -7272 4298 -7430 4193 L -7470 4167 L -7845 3808 L -8317 3832 Q -7810 4408 -7695 5164 Q -7661 5353 -7654 5553 Q -8913 5228 -10139 4554 Q -11409 3894 -12930 3137 Q -13439 2893 -13959 2593 Z">

</path>

<path fill="none" stroke-opacity="1.000" stroke="rgb(0,0,0)" stroke-linejoin="round" stroke-linecap="round" stroke-width="28.571998006975587" d="M -12574 1779 L -12574 1776 M -8661 2738 Q -8303 2669 -7953 2555 M -17003 -368 Q -17233 -741 -17446 -1113 M -3135 726 Q -2808 518 -2480 333 M -6545 5704 Q -6884 5198 -7242 4511 M -7470 4167 L -7845 3808 M -9370 5928 Q -9684 5756 -10006 5548 M -1459 2266 Q -1936 2497 -2397 2796 M -4268 1237 Q -3870 1057 -3472 897 M -5663 1717 Q -5964 1808 -6269 1886 M -5168 1486 L -4540 1312 M -4263 4326 L -4908 4935 M -5614 5596 Q -5947 5899 -6280 6181 M -6787 6385 Q -6977 6394 -7178 6394 M -8942 6088 Q -8742 6156 -8542 6208 M -3058 3277 Q -3372 3530 -3685 3803 M -8232 3615 Q -8606 3550 -8935 3429 M -6649 2035 Q -6981 2187 -7324 2315 M -10093 3098 L -10560 2930 M -10287 5371 Q -10641 5142 -11010 4877 M -11354 4638 Q -11732 4375 -12126 4083 M -9126 6031 L -8942 6088 M -13735 1389 L -14725 658 M -14228 2445 L -15329 1483 M -15877 969 L -16655 102 M -11910 2394 Q -12533 2082 -13176 1737 M -12648 3693 Q -13127 3329 -13621 2941">

</path>

<path fill="none" stroke-opacity="1.000" stroke="rgb(0,0,0)" stroke-linejoin="round" stroke-linecap="round" stroke-width="40" d="M -17082 -4294 Q -17132 -5069 -16972 -5842 L -16956 -5910 Q -16741 -6865 -16465 -7792 L -16371 -8041 L -16471 -7882 Q -16768 -7384 -17025 -6877 Q -17874 -5132 -17971 -3135 Q -18031 -2229 -17816 -1362 Q -17639 -649 -17275 39 Q -16675 1135 -15674 2286 Q -14714 3384 -13662 4250 Q -12889 4882 -12135 5289 Q -9956 6554 -8076 6806 Q -7305 6850 -6558 6641 Q -5950 6162 -5358 5594 Q -4151 4379 -2820 3487 Q -1821 2823 -741 2498 Q -503 2000 -257 1509 Q 587 -105 -341 -1411 Q -2493 -807 -3911 119 Q -5329 1045 -6774 1781 Q -7538 2151 -8342 2264 Q -9147 2342 -9812 2203 Q -11137 1952 -12546 1224 M -12549 1227 Q -13883 692 -14964 -215 Q -15815 -925 -16328 -1796 Q -16628 -2306 -16813 -2872 Q -17036 -3584 -17082 -4294 Q -17597 -4475 -17782 -4123 Q -17835 -4021 -17844 -3891 Q -17753 -3978 -17638 -3949 Q -17541 -3922 -17478 -3826 Q -17536 -3854 -17600 -3861 L -17657 -3855 L -17663 -3853 Q -18106 -3326 -17745 -2648 Q -17827 -2996 -17697 -3325 Q -17243 -3344 -17059 -2829 Q -17033 -2758 -16561 -1713 Q -16404 -1457 -16251 -1173 Q -15864 -437 -15185 123 Q -13988 1133 -12574 1779 M -12574 1776 L -12146 1968 Q -10718 2618 -9402 2735">

</path>

</g>

</g>

<g transform="matrix(0.489990234375 0 0 0.489990234375 14397 11191)">

<g>

<path fill-opacity="1.000" fill="#2FB582" d="M -17665 -3326 Q -17236 -3326 -17059 -2829 Q -17033 -2758 -16561 -1713 Q -16404 -1457 -16251 -1173 Q -15864 -437 -15185 123 Q -13988 1133 -12574 1779 L -12574 1776 L -12146 1968 Q -10718 2618 -9402 2735 Q -9213 2745 -9010 2745 Q -8841 2745 -8661 2738 Q -8303 2669 -7953 2555 Q -7633 2449 -7324 2315 Q -5750 1491 -4311 886 Q -3010 346 -1601 -198 L -1601 -198 Q -3563 1518 -5165 3845 L -5556 4365 Q -5857 4262 -5953 3887 Q -6107 3250 -6641 3029 Q -6778 2973 -6940 2973 Q -7063 2973 -7200 3005 Q -7881 3164 -8521 3164 Q -9064 3164 -9577 3049 Q -10688 2838 -11910 2394 Q -12261 2271 -12623 2128 Q -15360 957 -16872 -1186 Q -16992 -1363 -17697 -3325 Q -17681 -3326 -17665 -3326 Z M -13959 2593 L -13959 2593 Q -13439 2893 -12930 3137 Q -11409 3894 -10139 4554 Q -8913 5228 -7654 5553 Q -7661 5353 -7695 5164 Q -7810 4408 -8317 3832 L -7845 3808 L -7470 4167 L -7430 4193 Q -7272 4298 -7242 4511 Q -6884 5198 -6545 5704 Q -6246 5751 -5962 5770 Q -5471 5251 -4939 4760 Q -4457 4155 -3422 3099 Q -3293 3149 -3167 3184 Q -3060 3215 -3012 3286 L -3019 3284 Q -3035 3277 -3058 3277 Q -3372 3530 -3685 3803 Q -3913 4086 -4189 4277 L -4263 4326 L -4908 4935 Q -5193 5324 -5565 5564 L -5614 5596 Q -5947 5899 -6280 6181 Q -6530 6287 -6787 6385 Q -6977 6394 -7178 6394 L -7221 6384 Q -8058 6306 -8942 6088 L -9126 6031 Q -9250 5982 -9370 5928 Q -11651 5245 -13959 2593 Z M -16371 -8041 L -16471 -7882 Q -16768 -7384 -17025 -6877 Q -17874 -5132 -17971 -3135 Q -18031 -2229 -17816 -1362 Q -17639 -649 -17275 39 Q -16675 1135 -15674 2286 Q -14714 3384 -13662 4250 Q -12889 4882 -12135 5289 Q -9956 6554 -8076 6806 Q -7942 6814 -7809 6814 Q -7176 6814 -6558 6641 Q -5950 6162 -5358 5594 Q -4151 4379 -2820 3487 Q -1821 2823 -741 2498 Q -503 2000 -257 1509 Q 587 -105 -341 -1411 Q -2493 -807 -3911 119 Q -5329 1045 -6774 1781 Q -7538 2151 -8342 2264 Q -8631 2292 -8903 2292 Q -9386 2292 -9812 2203 Q -11137 1952 -12546 1224 L -12549 1227 Q -13883 692 -14964 -215 Q -15815 -925 -16328 -1796 Q -16628 -2306 -16813 -2872 Q -17036 -3584 -17082 -4294 Q -17132 -5069 -16972 -5842 L -16956 -5910 Q -16741 -6865 -16465 -7792 L -16371 -8041 Z">

</path>

<path fill-opacity="1.000" fill="#2D8C6F" d="M -17665 -3326 Q -17681 -3326 -17697 -3325 Q -16992 -1363 -16872 -1186 Q -15360 957 -12623 2128 Q -12261 2271 -11910 2394 Q -10688 2838 -9577 3049 Q -9064 3164 -8521 3164 Q -7882 3164 -7200 3005 Q -7063 2973 -6940 2973 Q -6778 2973 -6641 3029 Q -6107 3250 -5953 3887 Q -5857 4262 -5556 4365 L -5165 3845 Q -3563 1518 -1601 -198 L -1601 -198 Q -3010 346 -4311 886 Q -5750 1491 -7324 2315 Q -7633 2449 -7953 2555 Q -8303 2669 -8661 2738 Q -8841 2745 -9010 2745 Q -9213 2745 -9402 2735 Q -10718 2618 -12146 1968 L -12574 1776 L -12574 1779 Q -13988 1133 -15185 123 Q -15864 -437 -16251 -1173 Q -16404 -1457 -16561 -1713 Q -17033 -2758 -17059 -2829 Q -17236 -3326 -17665 -3326 Z M -13959 2593 L -13959 2593 Q -11651 5245 -9370 5928 Q -9250 5982 -9126 6031 L -8942 6088 Q -8058 6306 -7221 6384 L -7178 6394 Q -6977 6394 -6787 6385 Q -6530 6287 -6280 6181 Q -5947 5899 -5614 5596 L -5565 5564 Q -5193 5324 -4908 4935 L -4263 4326 L -4189 4277 Q -3913 4086 -3685 3803 Q -3372 3530 -3058 3277 Q -3035 3277 -3019 3284 L -3012 3286 Q -3060 3215 -3167 3184 Q -3293 3149 -3422 3099 Q -4457 4155 -4939 4760 Q -5471 5251 -5962 5770 Q -6246 5751 -6545 5704 Q -6884 5198 -7242 4511 Q -7272 4298 -7430 4193 L -7470 4167 L -7845 3808 L -8317 3832 Q -7810 4408 -7695 5164 Q -7661 5353 -7654 5553 Q -8913 5228 -10139 4554 Q -11409 3894 -12930 3137 Q -13439 2893 -13959 2593 Z">

</path>

<path fill="none" stroke-opacity="1.000" stroke="rgb(0,0,0)" stroke-linejoin="round" stroke-linecap="round" stroke-width="28.571998006975587" d="M -12574 1779 L -12574 1776 M -8661 2738 Q -8303 2669 -7953 2555 M -17003 -368 Q -17233 -741 -17446 -1113 M -3135 726 Q -2808 518 -2480 333 M -6545 5704 Q -6884 5198 -7242 4511 M -7470 4167 L -7845 3808 M -9370 5928 Q -9684 5756 -10006 5548 M -1459 2266 Q -1936 2497 -2397 2796 M -4268 1237 Q -3870 1057 -3472 897 M -5663 1717 Q -5964 1808 -6269 1886 M -5168 1486 L -4540 1312 M -4263 4326 L -4908 4935 M -5614 5596 Q -5947 5899 -6280 6181 M -6787 6385 Q -6977 6394 -7178 6394 M -8942 6088 Q -8742 6156 -8542 6208 M -3058 3277 Q -3372 3530 -3685 3803 M -8232 3615 Q -8606 3550 -8935 3429 M -6649 2035 Q -6981 2187 -7324 2315 M -10093 3098 L -10560 2930 M -10287 5371 Q -10641 5142 -11010 4877 M -11354 4638 Q -11732 4375 -12126 4083 M -9126 6031 L -8942 6088 M -13735 1389 L -14725 658 M -14228 2445 L -15329 1483 M -15877 969 L -16655 102 M -11910 2394 Q -12533 2082 -13176 1737 M -12648 3693 Q -13127 3329 -13621 2941">

</path>

<path fill="none" stroke-opacity="1.000" stroke="rgb(0,0,0)" stroke-linejoin="round" stroke-linecap="round" stroke-width="40" d="M -17082 -4294 Q -17132 -5069 -16972 -5842 L -16956 -5910 Q -16741 -6865 -16465 -7792 L -16371 -8041 L -16471 -7882 Q -16768 -7384 -17025 -6877 Q -17874 -5132 -17971 -3135 Q -18031 -2229 -17816 -1362 Q -17639 -649 -17275 39 Q -16675 1135 -15674 2286 Q -14714 3384 -13662 4250 Q -12889 4882 -12135 5289 Q -9956 6554 -8076 6806 Q -7305 6850 -6558 6641 Q -5950 6162 -5358 5594 Q -4151 4379 -2820 3487 Q -1821 2823 -741 2498 Q -503 2000 -257 1509 Q 587 -105 -341 -1411 Q -2493 -807 -3911 119 Q -5329 1045 -6774 1781 Q -7538 2151 -8342 2264 Q -9147 2342 -9812 2203 Q -11137 1952 -12546 1224 M -12549 1227 Q -13883 692 -14964 -215 Q -15815 -925 -16328 -1796 Q -16628 -2306 -16813 -2872 Q -17036 -3584 -17082 -4294 Q -17597 -4475 -17782 -4123 Q -17835 -4021 -17844 -3891 Q -17753 -3978 -17638 -3949 Q -17541 -3922 -17478 -3826 Q -17536 -3854 -17600 -3861 L -17657 -3855 L -17663 -3853 Q -18106 -3326 -17745 -2648 Q -17827 -2996 -17697 -3325 Q -17243 -3344 -17059 -2829 Q -17033 -2758 -16561 -1713 Q -16404 -1457 -16251 -1173 Q -15864 -437 -15185 123 Q -13988 1133 -12574 1779 M -12574 1776 L -12146 1968 Q -10718 2618 -9402 2735">

</path>

</g>

</g>

<g transform="matrix(0.489990234375 0 0 0.489990234375 14898 11367)">

<g>

<path fill-opacity="1.000" fill="#2D8C6F" d="M 29 -2731 Q 18 -2731 8 -2731 Q -776 -2726 -1474 -2386 Q -1599 -2325 -1713 -2248 Q -1836 -2166 -1946 -2064 L -2106 -1921 Q -2052 -1146 -1855 -395 Q -1659 357 -1282 1029 L -1276 1040 Q -894 1719 -385 2301 Q -138 2582 102 2582 Q 356 2582 602 2267 Q 800 2015 923 1716 Q 1200 1045 1441 361 Q 1694 -359 1875 -1101 Q 2015 -1677 1895 -2259 L 1717 -2350 Q 1597 -2408 1472 -2457 Q 775 -2731 29 -2731 Z M -1970 1830 Q -2032 2311 -1941 2784 L -1927 2835 Q -1807 2714 -1673 2714 Q -1610 2714 -1543 2741 Q -1434 2786 -1367 2898 Q -1289 3028 -1245 3172 L -1222 3164 Q -991 3009 -923 2720 L -896 2627 Q -1194 2510 -1458 2316 Q -1629 2191 -1785 2034 Q -1883 1935 -1970 1830 Z M 2090 2025 Q 1942 2169 1782 2285 Q 1453 2524 1069 2647 Q 1240 2920 1464 3159 L 1495 3185 Q 1485 2702 1801 2702 Q 1871 2702 1958 2726 Q 2051 2751 2109 2838 L 2146 2897 Q 2234 2453 2090 2025 Z">

</path>

<path fill-opacity="1.000" fill="#2FB582" d="M 1895 -2259 Q 2015 -1677 1875 -1101 Q 1694 -359 1441 361 Q 1200 1045 923 1716 Q 800 2015 602 2267 Q 356 2582 102 2582 Q -138 2582 -385 2301 Q -894 1719 -1276 1040 L -1282 1029 L -1282 1029 Q -1282 1029 -1282 1029 Q -1659 357 -1855 -395 Q -2052 -1146 -2106 -1921 Q -2608 -1486 -3180 -1169 L -3155 -914 Q -3093 -111 -3225 679 Q -2578 909 -2203 1509 Q -2097 1677 -1970 1830 Q -1883 1935 -1785 2034 Q -1629 2191 -1458 2316 Q -1194 2510 -896 2627 Q -717 2697 -525 2739 Q -231 2803 76 2803 Q 518 2803 988 2671 L 1069 2647 Q 1453 2524 1782 2285 Q 1942 2169 2090 2025 Q 2251 1867 2398 1675 Q 2848 1083 3270 825 Q 3289 538 3323 253 Q 3408 -449 3399 -1155 Q 3043 -1323 2763 -1604 Q 2369 -2000 1895 -2259 Z">

</path>

<path fill="none" stroke-opacity="1.000" stroke="rgb(0,0,0)" stroke-linejoin="round" stroke-linecap="round" stroke-width="28.571998006975587" d="M 1717 -2350 L 1791 -2180 M 1971 -1332 Q 1976 -1190 1966 -1045 M 1884 -1897 Q 1918 -1770 1940 -1642 M 1925 -736 L 1908 -655 L 1866 -464 M -1713 -2248 L -1742 -2149 M -1786 -1954 Q -1819 -1782 -1827 -1606 M -1282 1029 L -1286 1001 M -1716 -728 L -1689 -641 L -1627 -444 M -1822 -1307 Q -1811 -1148 -1779 -987 M -1401 404 L -1339 701 M -1263 1557 Q -1274 1698 -1301 1834 M -1282 1029 Q -1266 1153 -1260 1273 M -1458 2316 Q -1411 2213 -1374 2107 M 1782 2285 Q 1730 2222 1688 2157 M 1484 1644 Q 1503 1765 1546 1881 M 1534 1012 L 1508 1124 Q 1484 1229 1475 1330 M 1665 437 L 1603 712 M -1548 -175 L -1469 121 M 1798 -157 L 1735 128">

</path>

<path fill="none" stroke-opacity="1.000" stroke="rgb(0,0,0)" stroke-linejoin="round" stroke-linecap="round" stroke-width="40" d="M -2106 -1921 L -1946 -2064 Q -1836 -2166 -1713 -2248 Q -1599 -2325 -1474 -2386 Q -776 -2726 8 -2731 Q 765 -2735 1472 -2457 Q 1597 -2408 1717 -2350 L 1895 -2259 Q 2369 -2000 2763 -1604 Q 3043 -1323 3399 -1155 L 3461 -1127 M -3227 -1143 L -3180 -1169 Q -2608 -1486 -2106 -1921 M -3225 679 Q -2578 909 -2203 1509 Q -2097 1677 -1970 1830 Q -1883 1935 -1785 2034 Q -1629 2191 -1458 2316 M -1970 1830 Q -2032 2311 -1941 2784 L -1927 2835 Q -1750 2657 -1543 2741 Q -1434 2786 -1367 2898 Q -1289 3028 -1245 3172 L -1222 3164 Q -991 3009 -923 2720 L -896 2627 Q -1194 2510 -1458 2316 M -896 2627 Q -717 2697 -525 2739 Q 190 2895 988 2671 L 1069 2647 Q 1453 2524 1782 2285 M -3243 673 L -3225 679 M 3270 825 Q 3391 751 3509 704 M 3270 825 Q 2848 1083 2398 1675 Q 2251 1867 2090 2025 Q 2234 2453 2146 2897 L 2109 2838 Q 2051 2751 1958 2726 Q 1483 2595 1495 3185 L 1464 3159 Q 1240 2920 1069 2647 M 2090 2025 Q 1942 2169 1782 2285">

</path>

</g>

</g>

<g transform="matrix(0.489990234375 0 0 0.489990234375 14924 10754)">

<g>

<path fill-opacity="1.000" fill="rgb(255,255,255)" d="M 1846 -2265 Q 1594 -1822 1766 -1340 L 1789 -1278 Q 1866 -1391 1927 -1548 Q 2065 -1910 1846 -2265 Z M -1867 -2415 Q -1989 -2164 -1980 -1756 Q -1974 -1468 -1882 -1277 Q -1464 -1800 -1840 -2376 L -1867 -2415 Z M 1486 -2662 Q 1274 -2526 1060 -2424 Q 1059 -1679 1125 -1323 Q 1187 -982 1265 -982 Q 1268 -982 1272 -983 Q 1419 -983 1540 -1046 Q 1036 -1775 1617 -2398 L 1691 -2468 Q 1602 -2565 1486 -2662 Z M -1445 -2774 Q -1592 -2731 -1698 -2638 Q -1621 -2553 -1561 -2462 Q -1084 -1737 -1547 -964 Q -1399 -907 -1199 -907 Q -1196 -907 -1192 -907 Q -1026 -1438 -1049 -1865 L -1078 -2331 L -1159 -2447 Q -1267 -2593 -1445 -2774 Z">

</path>

<path fill-opacity="1.000" fill="rgb(0,0,0)" d="M 1691 -2468 L 1617 -2398 Q 1036 -1775 1540 -1046 Q 1681 -1120 1789 -1278 L 1766 -1340 Q 1594 -1822 1846 -2265 Q 1783 -2367 1691 -2468 Z M -1707 -2640 Q -1720 -2640 -1720 -2619 Q -1809 -2535 -1867 -2415 L -1840 -2376 Q -1464 -1800 -1882 -1277 Q -1829 -1166 -1547 -964 Q -1084 -1737 -1561 -2462 Q -1621 -2553 -1698 -2638 Q -1703 -2640 -1707 -2640 Z">

</path>

<path fill-opacity="1.000" fill="#2FB582" d="M 504 -7676 Q 483 -7676 458 -7671 Q 303 -7640 110 -7355 L 72 -7174 Q -76 -6553 -85 -5921 L 0 -5471 Q 3 -5139 -5 -4807 L -56 -2987 Q -61 -2830 -133 -2715 Q -250 -2532 -380 -2532 Q -523 -2532 -684 -2751 Q -916 -2822 -1072 -3110 Q -1126 -3209 -1180 -3275 Q -1287 -3405 -1396 -3405 Q -1476 -3405 -1556 -3335 Q -1802 -3122 -1549 -2878 L -1445 -2774 Q -1267 -2593 -1159 -2447 L -1078 -2331 Q -994 -2203 -931 -2074 Q -902 -2013 -876 -1937 Q -812 -1895 -770 -1832 Q -381 -1250 -299 -528 Q -190 432 -51 1385 L -39 1575 Q 14 2265 -215 2911 Q -141 3258 -60 3411 Q 33 3510 122 3510 Q 271 3510 409 3232 Q 627 2788 824 1738 Q 910 1280 991 893 Q 1073 494 1151 169 L 1190 6 Q 1359 -676 1540 -1046 L 1540 -1046 Q 1419 -983 1272 -983 Q 1269 -982 1265 -982 Q 1187 -982 1125 -1323 Q 1059 -1679 1060 -2424 Q 1274 -2526 1486 -2662 L 1592 -2732 Q 1934 -2967 1778 -3216 Q 1683 -3366 1533 -3366 Q 1434 -3366 1310 -3301 L 1238 -3261 Q 1248 -3865 882 -4325 Q 516 -4786 384 -5169 Q 251 -5552 317 -6094 Q 382 -6637 557 -7181 Q 608 -7338 621 -7445 L 621 -7445 Q 621 -7445 621 -7445 Q 649 -7676 504 -7676 Z">

</path>

<path fill-opacity="1.000" fill="#2D8C6F" d="M 110 -7355 Q -41 -7133 -216 -6756 Q -614 -5896 -597 -5023 Q -592 -4788 -615 -4480 L -636 -4249 Q -1078 -3769 -1180 -3275 Q -1126 -3209 -1072 -3110 Q -916 -2822 -684 -2751 Q -524 -2532 -380 -2532 Q -249 -2532 -133 -2715 Q -61 -2830 -56 -2987 L -5 -4807 Q 3 -5139 0 -5471 L -85 -5921 Q -76 -6553 72 -7174 L 110 -7355 Z M -1078 -2331 L -1049 -1865 Q -1026 -1438 -1192 -907 Q -1195 -907 -1199 -907 Q -1399 -907 -1547 -964 L -1547 -964 Q -1224 -399 -998 123 Q -787 610 -660 1058 Q -566 1388 -485 1706 Q -339 2281 -234 2814 L -215 2911 Q 14 2265 -39 1575 L -51 1385 Q -190 432 -299 -528 Q -381 -1250 -770 -1832 Q -812 -1895 -876 -1937 L -876 -1937 Q -876 -1937 -876 -1937 Q -902 -2013 -931 -2074 Q -994 -2203 -1078 -2331 Z">

</path>

<path fill="none" stroke-opacity="1.000" stroke="rgb(0,0,0)" stroke-linejoin="round" stroke-linecap="round" stroke-width="40" d="M 621 -7445 Q 653 -7710 458 -7671 Q 303 -7640 110 -7355 M 621 -7445 Q 608 -7338 557 -7181 Q 382 -6637 317 -6094 Q 251 -5552 384 -5169 Q 516 -4786 882 -4325 Q 1248 -3865 1238 -3261 L 1310 -3301 Q 1621 -3465 1778 -3216 Q 1934 -2967 1592 -2732 L 1486 -2662 Q 1602 -2565 1691 -2468 Q 1783 -2367 1846 -2265 Q 2065 -1910 1927 -1548 Q 1866 -1391 1789 -1278 Q 1681 -1120 1540 -1046 Q 1359 -676 1190 6 L 1151 169 Q 1073 494 991 893 Q 910 1280 824 1738 Q 627 2788 409 3232 Q 190 3675 -60 3411 Q -141 3258 -215 2911 L -234 2814 Q -339 2281 -485 1706 Q -566 1388 -660 1058 Q -787 610 -998 123 Q -1224 -399 -1547 -964 Q -1829 -1166 -1882 -1277 Q -1974 -1468 -1980 -1756 Q -1989 -2164 -1867 -2415 Q -1809 -2535 -1720 -2619 M -1698 -2638 Q -1592 -2731 -1445 -2774 L -1549 -2878 Q -1802 -3122 -1556 -3335 Q -1366 -3501 -1180 -3275 Q -1078 -3769 -636 -4249 L -615 -4480 Q -592 -4788 -597 -5023 Q -614 -5896 -216 -6756 Q -41 -7133 110 -7355 M 1486 -2662 Q 1274 -2526 1060 -2424 Q 1059 -1679 1125 -1323 Q 1190 -968 1272 -983 Q 1419 -983 1540 -1046 Q 1036 -1775 1617 -2398 L 1691 -2468 M 1060 -2424 L 901 -2354 Q 553 -2211 543 -1730 M 483 -2695 Q 941 -3089 1238 -3261 M 1846 -2265 Q 1594 -1822 1766 -1340 L 1789 -1278 M -684 -2751 Q -916 -2822 -1072 -3110 Q -1126 -3209 -1180 -3275 M -1445 -2774 Q -1267 -2593 -1159 -2447 L -1078 -2331 Q -994 -2203 -931 -2074 Q -902 -2013 -876 -1937 M -422 -2735 Q -563 -2714 -684 -2751 M -1882 -1277 Q -1464 -1800 -1840 -2376 L -1867 -2415 M -1720 -2619 L -1698 -2638 Q -1621 -2553 -1561 -2462 Q -1084 -1737 -1547 -964 Q -1396 -906 -1192 -907 Q -1026 -1438 -1049 -1865 L -1078 -2331 M -876 -1937 Q -823 -1783 -784 -1569">

</path>

<path fill="none" stroke-opacity="1.000" stroke="rgb(0,0,0)" stroke-linejoin="round" stroke-linecap="round" stroke-width="28.571998006975587" d="M 436 -7173 Q 526 -7324 621 -7445 M -85 -5921 L -9 -6156 M 128 -6532 Q 192 -6694 259 -6838 M 683 -1207 L 537 -1173 L 538 -1066 Q 536 -877 594 -693 L 683 -724 M 362 -1146 L 537 -1173 L 563 -1509 M 1151 169 L 790 -300 L 643 -221 M 594 -693 L 790 -300 L 945 -362 M 482 -664 L 594 -693 M 813 958 Q 901 924 991 893 M 387 1139 Q 512 1078 641 1025 M -51 1385 Q 33 1331 120 1281 L 147 1266 M -303 -5224 L -204 -5527 M -89 -5906 L -85 -5921 M -615 -4480 Q -527 -4618 -411 -4921 M -765 -1207 L -725 -997 L -523 -966 M -998 123 L -819 -378 L -906 -422 M -819 -378 L -780 -542 Q -727 -764 -725 -997 L -865 -1006 M -819 -378 L -644 -282 M -485 1706 Q -406 1633 -319 1569 M -76 1401 L -51 1385">

</path>

</g>

</g>

</g>

</g>

</g>

</svg>
