<?xml version="1.0" encoding="UTF-8" standalone="no"?>
<!-- Generator: Adobe Illustrator 16.0.0, SVG Export Plug-In . SVG Version: 6.00 Build 0)  -->

<svg
   xmlns:dc="http://purl.org/dc/elements/1.1/"
   xmlns:cc="http://creativecommons.org/ns#"
   xmlns:rdf="http://www.w3.org/1999/02/22-rdf-syntax-ns#"
   xmlns:svg="http://www.w3.org/2000/svg"
   xmlns="http://www.w3.org/2000/svg"
   xmlns:sodipodi="http://sodipodi.sourceforge.net/DTD/sodipodi-0.dtd"
   xmlns:inkscape="http://www.inkscape.org/namespaces/inkscape"
   version="1.1"
   x="0px"
   y="0px"
   width="11143px"
   height="1080px"
   viewBox="0 0 11143 1080"
   enable-background="new 0 0 11143 1080"
   xml:space="preserve"
   id="svg4866"
   inkscape:version="0.48.2 r9819"
   sodipodi:docname="mountain.svg">
<metadata
   id="metadata4875">
<rdf:RDF>
<cc:Work
   rdf:about="">
<dc:format>image/svg+xml</dc:format>
<dc:type
   rdf:resource="http://purl.org/dc/dcmitype/StillImage" />
<dc:title>
</dc:title>
</cc:Work>
</rdf:RDF>
</metadata>
<defs
   id="defs4873" />
<sodipodi:namedview
   pagecolor="#FFFFFF"
   bordercolor="#D1D1D1"
   borderopacity="1"
   objecttolerance="10"
   gridtolerance="10"
   guidetolerance="10"
   inkscape:pageopacity="0"
   inkscape:pageshadow="2"
   inkscape:window-width="1089"
   inkscape:window-height="710"
   id="namedview4871"
   showgrid="false"
   inkscape:zoom="0.25271471"
   inkscape:cx="9516.9053"
   inkscape:cy="117.3431"
   inkscape:window-x="119"
   inkscape:window-y="1"
   inkscape:window-maximized="0"
   inkscape:current-layer="layer20" />

<g xmlns="http://www.w3.org/2000/svg" inkscape:groupmode="layer" xmlns:inkscape="http://www.inkscape.org/namespaces/inkscape" id="layer10" inkscape:label="Blob2" style="display:inline">
<g transform="translate(5.6146018e-6,1.9614311e-5)" id="sky_x5F_RTtoLFT">
<g id="g5320">
<path fill="#B2B2B2" style="opacity:0.2;fill:#C5C2DD" inkscape:connector-curvature="0" d="m 11522.506,62.772 c -28.178,-3 -221.9,36.003 -380.399,27.002 -158.5,-9.001 -457.888,-63.006 -602.3,-48.005 -144.411,15.001 -158.499,90.009 -376.877,108.011 -218.377,18.002 -475.498,-141.014 -619.91,-114.011 -144.41,27.003 -376.877,84.008 -655.133,87.009 -278.254,3 -517.766,60.006 -637.521,87.009 -119.755,27.003 -10.566,27.002 31.7,126.012 42.266,99.01 112.71,108.012 331.088,93.01 218.378,-15.002 341.655,-144.014 552.988,-156.016 211.334,-12.001 598.776,177.018 729.099,183.018 130.323,6 704.444,-186.019 824.199,-159.016 119.756,27.003 137.365,192.019 362.788,195.02 225.423,3.001 436.756,-33.003 500.154,-66.006 63.4,-33.003 52.832,-321.032 42.266,-324.032 -10.564,-3.002 -102.142,-39.005 -102.142,-39.005 z" id="path5322"/>
<path fill="#B2B2B2" style="opacity:0.2;fill:#C5C2DD" inkscape:connector-curvature="0" d="m 8410.433,6.167 159.657,22.3 c 0,0 253.574,-21.371 394.449,-21.371 140.874,0 278.227,29.27 352.187,0 73.958,-29.269 105.655,0 199.571,0 93.917,0 204.27,26.017 270.01,0 65.742,-26.017 -28.174,61.326 154.963,61.326 183.137,0 579.934,76.193 579.934,0 0,-76.193 385.058,36.238 385.058,0 0,-36.238 355.708,17.19 399.144,0 43.437,-17.19 136.179,-53.893 160.833,-63.649 24.651,-9.756 -5.871,-103.604 -38.741,-101.746 -32.871,1.858 -3106.285,0 -3101.589,2.788 4.696,2.788 14.087,102.21 14.087,102.21 l 70.437,-1.858 z" id="path5324"/>
<path fill="#B2B2B2" style="opacity:0.2;fill:#C5C2DD" inkscape:connector-curvature="0" d="m 8302.429,-42.456 150.266,-25.588 c 0,0 220.704,28.282 248.878,30.975 28.176,2.694 453.147,-14.814 462.539,-17.508 9.391,-2.693 403.84,-1.347 424.972,-1.347 21.131,0 373.317,14.814 406.188,20.202 32.87,5.387 110.352,65.991 178.441,63.297 68.089,-2.693 154.962,-45.79 255.922,-55.217 100.96,-9.428 436.711,-18.855 521.236,-10.774 84.523,8.081 190.18,41.75 270.01,43.097 79.828,1.347 147.917,-39.056 216.007,-32.322 68.09,6.733 79.829,121.208 61.046,131.982 -18.783,10.774 -237.139,32.322 -288.793,29.629 -51.653,-2.694 -347.491,21.548 -347.491,21.548 0,0 -173.745,22.895 -396.796,9.427 -223.052,-13.467 -331.056,-56.564 -577.586,-57.911 -246.531,-1.347 -288.793,84.846 -523.584,84.846 -234.791,0 -237.139,-33.669 -432.016,-91.58 -194.876,-57.911 -309.924,-55.217 -352.186,-36.362 -42.264,18.854 -145.571,80.806 -225.4,44.443 -79.828,-36.362 -105.656,-49.83 -152.613,-91.58 -46.959,-41.749 100.96,-59.257 100.96,-59.257 z" id="path5326"/>
</g>
</g>
</g></svg>
