<?xml version="1.0" encoding="UTF-8" standalone="no"?>
<!-- Generator: Adobe Illustrator 16.0.0, SVG Export Plug-In . SVG Version: 6.00 Build 0)  -->

<svg
   xmlns:dc="http://purl.org/dc/elements/1.1/"
   xmlns:cc="http://creativecommons.org/ns#"
   xmlns:rdf="http://www.w3.org/1999/02/22-rdf-syntax-ns#"
   xmlns:svg="http://www.w3.org/2000/svg"
   xmlns="http://www.w3.org/2000/svg"
   xmlns:sodipodi="http://sodipodi.sourceforge.net/DTD/sodipodi-0.dtd"
   xmlns:inkscape="http://www.inkscape.org/namespaces/inkscape"
   version="1.1"
   x="0px"
   y="0px"
   width="11143px"
   height="1080px"
   viewBox="0 0 11143 1080"
   enable-background="new 0 0 11143 1080"
   xml:space="preserve"
   id="svg4866"
   inkscape:version="0.48.2 r9819"
   sodipodi:docname="mountain.svg">
<metadata
   id="metadata4875">
<rdf:RDF>
<cc:Work
   rdf:about="">
<dc:format>image/svg+xml</dc:format>
<dc:type
   rdf:resource="http://purl.org/dc/dcmitype/StillImage" />
<dc:title>
</dc:title>
</cc:Work>
</rdf:RDF>
</metadata>
<defs
   id="defs4873" />
<sodipodi:namedview
   pagecolor="#ffffff"
   bordercolor="#666666"
   borderopacity="1"
   objecttolerance="10"
   gridtolerance="10"
   guidetolerance="10"
   inkscape:pageopacity="0"
   inkscape:pageshadow="2"
   inkscape:window-width="1089"
   inkscape:window-height="710"
   id="namedview4871"
   showgrid="false"
   inkscape:zoom="0.25271471"
   inkscape:cx="9516.9053"
   inkscape:cy="117.3431"
   inkscape:window-x="119"
   inkscape:window-y="1"
   inkscape:window-maximized="0"
   inkscape:current-layer="layer20" />

<g xmlns="http://www.w3.org/2000/svg" inkscape:groupmode="layer" xmlns:inkscape="http://www.inkscape.org/namespaces/inkscape" id="layer11" inkscape:label="Cloud1" style="display:inline">
<g transform="translate(0.004,0)" id="Cloudss">
<g id="g5473">
<path style="fill:#ffffff" inkscape:connector-curvature="0" d="m 10612.835,286.666 c 0.141,-0.315 0.213,-0.642 0.213,-0.976 0,-2.719 -4.854,-4.922 -10.84,-4.922 -5.146,0 -9.453,1.629 -10.564,3.813 -0.393,-0.104 -0.797,-0.195 -1.211,-0.275 1.584,-1.005 2.482,-2.156 2.482,-3.379 0,-3.944 -9.357,-7.144 -20.904,-7.144 -2.715,0 -5.309,0.176 -7.686,0.499 -1.713,-3.992 -6.289,-6.849 -11.671,-6.849 -6.842,0 -12.388,4.62 -12.388,10.319 0,0.166 0,0.331 0.02,0.495 -1.403,0.068 -2.735,0.323 -3.959,0.732 -2.095,-2.774 -5.376,-4.561 -9.063,-4.561 -0.801,0 -1.58,0.084 -2.332,0.243 -1.759,-1.041 -3.752,-1.747 -5.885,-2.02 -0.09,-0.067 -0.18,-0.135 -0.275,-0.201 -0.846,-3.372 -5.805,-5.961 -11.795,-5.961 -6.584,0 -11.922,3.127 -11.922,6.986 0,0.017 0,0.034 0,0.051 -0.805,-1.738 -2.332,-3.105 -4.221,-3.759 -0.263,-0.538 -0.562,-1.034 -0.896,-1.479 0.104,-0.631 0.159,-1.286 0.159,-1.957 0,-5.174 -3.26,-9.368 -7.278,-9.368 -4.018,0 -7.278,4.194 -7.278,9.368 0,1.278 0.198,2.497 0.561,3.608 -0.41,0.103 -0.811,0.22 -1.204,0.348 -2.555,-2.898 -6.448,-4.75 -10.815,-4.75 -7.699,0 -13.938,5.757 -13.938,12.859 0,0.211 0,0.423 0.02,0.631 -1.644,-1.986 -4.78,-3.331 -8.381,-3.331 -5.301,0 -9.6,2.915 -9.6,6.51 0,0.732 0.178,1.437 0.506,2.093 -0.414,-0.02 -0.844,-0.03 -1.28,-0.03 -0.389,0 -0.771,0.008 -1.144,0.024 -0.135,-1.249 -0.504,-2.425 -1.057,-3.485 0.906,-1.595 1.426,-3.45 1.426,-5.43 0,-5.961 -4.715,-10.796 -10.529,-10.796 -0.559,0 -1.109,0.046 -1.644,0.131 -1.737,-5.068 -6.444,-8.704 -11.983,-8.704 -7.016,0 -12.699,5.829 -12.699,13.019 0,3.443 1.305,6.573 3.434,8.901 -1.035,-0.209 -2.201,-0.328 -3.434,-0.328 -2.519,0 -4.757,0.494 -6.171,1.258 -1.05,-0.302 -2.228,-0.506 -3.485,-0.585 -0.574,-5.546 -5.529,-9.88 -11.56,-9.88 -3.163,0 -6.03,1.193 -8.126,3.129 -2.58,-0.973 -5.701,-1.542 -9.062,-1.542 -6.673,0 -12.396,2.239 -14.841,5.431 -0.213,-0.022 -0.428,-0.034 -0.645,-0.034 -0.721,0 -1.412,0.123 -2.061,0.344 -1.253,-8.288 -8.242,-14.632 -16.679,-14.632 -7.913,0 -14.555,5.585 -16.381,13.118 -0.08,0.09 -0.168,0.181 -0.25,0.274 -2.01,-0.447 -4.18,-0.691 -6.441,-0.691 -5.088,0 -9.706,1.234 -13.102,3.24 -0.543,0.025 -1.076,0.058 -1.594,0.096 -1.004,-0.308 -2.109,-0.479 -3.27,-0.479 -1.424,0 -2.767,0.257 -3.94,0.712 -2.031,-1.955 -5.61,-3.252 -9.687,-3.252 -3.039,0 -5.801,0.722 -7.852,1.897 -1.227,-0.187 -2.549,-0.293 -3.928,-0.308 0,-0.106 0.01,-0.212 0.01,-0.32 0,-4.559 -6.656,-8.255 -14.867,-8.255 -7.406,0 -13.547,3.008 -14.679,6.945 -0.938,-0.18 -1.938,-0.277 -2.975,-0.277 -1.938,0 -3.745,0.338 -5.273,0.925 0,-0.097 0,-0.194 0,-0.29 0,-6.488 -12.41,-11.748 -27.719,-11.748 -15.309,0 -27.721,5.26 -27.721,11.748 0,6.488 12.412,11.749 27.721,11.749 2.296,0 4.525,-0.119 6.658,-0.341 0,0.007 0,0.016 0,0.024 0,4.209 7.35,7.62 16.414,7.62 4.315,0 8.242,-0.773 11.172,-2.037 1.211,2.879 4.004,4.896 7.257,4.896 4.36,0 7.897,-3.625 7.897,-8.096 0,-1.773 -0.555,-3.411 -1.498,-4.745 0.887,0.092 1.803,0.14 2.736,0.14 1.523,0 2.996,-0.127 4.381,-0.363 2.146,1.364 5.902,2.27 10.176,2.27 1.048,0 2.064,-0.054 3.033,-0.157 2.097,1.641 5.369,2.696 9.045,2.696 0.975,0 1.92,-0.075 2.822,-0.214 -0.02,0.124 -0.03,0.248 -0.03,0.374 0,1.841 2.426,3.333 5.42,3.333 2.67,0 4.889,-1.188 5.336,-2.752 2.388,4.721 9.564,8.151 18.047,8.151 5.621,0 10.67,-1.507 14.13,-3.899 2.593,1.665 5.659,2.628 8.942,2.628 2.375,0 4.634,-0.503 6.683,-1.411 -0.02,0.256 -0.02,0.514 -0.02,0.775 0,6.839 5.408,12.383 12.08,12.383 4.578,0 8.565,-2.614 10.613,-6.467 0.816,2.113 2.828,3.61 5.182,3.61 2.504,0 4.621,-1.693 5.324,-4.023 0.141,0.035 0.287,0.068 0.438,0.104 0.09,0.071 0.182,0.109 0.276,0.109 0.04,0 0.09,-0.009 0.127,-0.024 2.921,0.595 7.467,0.977 12.573,0.977 8.809,0 15.949,-1.138 15.949,-2.54 0,-1.403 -7.141,-2.54 -15.949,-2.54 -4.478,0 -8.521,0.293 -11.418,0.765 0.07,-0.672 0.113,-1.414 0.113,-2.195 0,-3.068 -0.625,-5.557 -1.396,-5.557 -0.769,0 -1.392,2.488 -1.392,5.557 0,0.169 0,0.337 0,0.502 -0.968,-1.5 -2.606,-2.502 -4.478,-2.561 1.537,-1.41 2.521,-3.377 2.605,-5.568 1.898,-0.204 3.679,-0.591 5.275,-1.128 2.131,2.345 5.293,3.833 8.823,3.833 1.98,0 3.845,-0.467 5.476,-1.292 0.65,0.697 1.563,1.133 2.577,1.133 1.658,0 3.052,-1.161 3.446,-2.732 3.912,-0.234 7.074,-1.671 7.936,-3.543 0.57,0.055 1.168,0.084 1.781,0.084 0.76,0 1.492,-0.045 2.184,-0.129 0.239,1.456 3.199,2.646 7.076,2.925 1.379,3.05 4.203,5.142 7.465,5.142 1.023,0 2.002,-0.205 2.905,-0.581 1.728,2.286 4.431,3.756 7.47,3.756 4.316,0 7.958,-2.968 9.086,-7.022 0.467,0.024 0.95,0.037 1.444,0.037 1.908,0 3.644,-0.191 4.941,-0.506 1.546,0.72 3.417,1.142 5.433,1.142 1.135,0 2.223,-0.134 3.232,-0.378 0.656,2.566 3.674,4.505 7.299,4.505 2.66,0 4.994,-1.043 6.306,-2.614 1.679,0.662 3.523,1.027 5.464,1.027 1.168,0 2.304,-0.133 3.389,-0.384 0.564,0.044 1.137,0.067 1.721,0.067 1.832,0 3.568,-0.22 5.129,-0.613 0.687,0.985 1.695,1.717 2.87,2.03 2.021,2.13 5.237,3.71 9.028,4.329 1.211,1.891 3.326,3.145 5.737,3.145 3.019,0 5.579,-1.967 6.474,-4.691 1.354,-0.641 2.537,-1.43 3.498,-2.329 0.339,-0.022 0.67,-0.053 0.996,-0.094 0.05,0.117 0.1,0.231 0.148,0.346 -0.176,0.458 -0.277,0.978 -0.277,1.529 0,1.841 1.111,3.333 2.477,3.333 0.346,0 0.672,-0.095 0.972,-0.265 2.752,2.711 6.573,4.392 10.799,4.392 4.09,0 7.801,-1.573 10.528,-4.131 3.008,-0.081 5.724,-1.349 7.724,-3.363 1.694,0.729 3.658,1.145 5.751,1.145 1.205,0 2.366,-0.138 3.46,-0.394 2.601,1.385 7.083,2.299 12.181,2.299 8.039,0 14.557,-2.273 14.557,-5.08 0,-2.776 -6.379,-5.032 -14.3,-5.079 0.767,-0.236 1.499,-0.534 2.187,-0.885 3.553,0.952 8.025,1.519 12.887,1.519 1.104,0 2.182,-0.029 3.236,-0.084 -1.17,1.232 -1.842,2.673 -1.842,4.212 0,4.56 5.891,8.255 13.162,8.255 6.744,0 12.303,-3.181 13.072,-7.28 1.988,0.387 4.357,0.612 6.904,0.612 7.012,0 12.699,-1.706 12.699,-3.81 0,-1.419 -2.576,-2.656 -6.404,-3.312 z" id="path5475"/>
<path style="fill:#dbdbdb" inkscape:connector-curvature="0" d="m 10164.268,276.529 c 9.168,7.103 21.694,10.101 32.434,7.014 4.429,7.427 28.27,12.723 34.971,9.639 4.519,-2.081 3.676,-4.997 2.928,-9.991 3.051,-1.355 3.537,-1.207 5.9,-4.25 -2.477,0.385 -6.307,1.419 -9.303,1.896 -3.104,17.481 -40.939,2.891 -52.136,-0.171 -6.386,-1.747 -8.948,-1.32 -11.529,-8.771 -4.191,1.521 -2.411,3.37 -2.018,6.518" id="path5477"/>
<path style="fill:#dbdbdb" inkscape:connector-curvature="0" d="m 10284.447,282.648 c -6.672,18.188 25.453,8.875 33.395,9.466 5.118,0.38 8.384,1.389 13.511,-0.476 0.75,12.475 12.383,12.646 18.756,4.261 -8.939,6.463 -17.326,1.241 -12.061,-10.354 -9.911,5.394 -37.757,8.542 -48.176,6.089 -5.356,-1.261 -1.179,-9.048 0.354,-11.713 -4.787,0.398 -5.73,3.433 -8.273,6.963" id="path5479"/>
<path style="fill:#dbdbdb" inkscape:connector-curvature="0" d="m 10368.032,277 c -2.689,10.059 2.396,14.088 10.363,8.545 -6.953,1.473 -10.807,-5.478 -11.61,-8.075" id="path5481"/>
<path style="fill:#dbdbdb" inkscape:connector-curvature="0" d="m 10413.776,289.239 c 7.633,4.777 14.055,2.691 12.475,-7.599 -4.211,10.905 -15.292,8.602 -21.645,2.09 1.472,8.847 4.37,4.412 9.17,5.509" id="path5483"/>
<path style="fill:#dbdbdb" inkscape:connector-curvature="0" d="m 10447.46,283.59 c 1.424,6.723 1.563,10.186 10.018,6.095 -5.453,-1.359 -7.824,-5.409 -10.018,-7.037" id="path5485"/>
<path style="fill:#dbdbdb" inkscape:connector-curvature="0" d="m 10470.331,288.297 c 1.688,-3.215 5.313,-3.864 5.927,-8.895 1.624,10.664 10.526,16.209 18.313,9.002 0.109,-0.13 0.223,-0.26 0.336,-0.391 -0.113,0.134 -0.228,0.264 -0.346,0.391 -5.314,8.577 -14.398,9.218 -19.322,-0.038 -7.346,2.501 -8.535,2.976 -13.557,-2.847 3.783,4.555 6.408,1.99 10.311,2.777" id="path5487"/>
<path style="fill:#dbdbdb" inkscape:connector-curvature="0" d="m 10499.023,273.235 c -0.136,4.462 -4.01,7.352 3.606,9.425 0.572,-5.648 0.618,-5.511 2.691,-10.862 -2.68,-0.621 -5.09,0.544 -7.545,2.378" id="path5489"/>
<path style="fill:#dbdbdb" inkscape:connector-curvature="0" d="m 10507.756,295.357 c 7.938,7.412 19.281,4.873 22.396,-6.54 -6.31,5.808 -14.437,7.982 -22.329,5.67 0.253,2.703 1.587,1.786 3.263,3.224" id="path5491"/>
<path style="fill:#dbdbdb" inkscape:connector-curvature="0" d="m 10538.114,293.004 c 7.623,1.056 16.936,4.713 23.972,-1.435 -8.964,3.19 -16.521,-0.843 -25.221,1.906" id="path5493"/>
<path style="fill:#dbdbdb" inkscape:connector-curvature="0" d="m 10568.47,286.885 c 2.662,-0.288 5.551,-0.013 8.184,0.095 -2.285,13.791 13.064,14.659 18.502,4.671 2.389,-1.426 3.145,-0.439 5.699,-3.269 -8.463,1.227 -22.893,14.154 -21.217,-3.672 -2.523,-0.053 -8.219,-0.071 -10.771,0.741 -2.596,2.215 0.943,2.592 0.854,2.847" id="path5495"/>
<path style="fill:#dbdbdb" inkscape:connector-curvature="0" d="m 10541.856,280.295 c -0.929,3.132 -2.152,4.784 -0.03,7.907 -6.389,-3.872 -1.275,-5.002 0.447,-9.319" id="path5497"/>
<path style="fill:#dbdbdb" inkscape:connector-curvature="0" d="m 10478.647,269.94 c -0.969,0.492 -1.119,3.874 -1.136,4.645 -0.2,-7.391 -1.106,-3.765 3.171,-9.257 -0.846,1.06 -1.936,3.527 -1.202,5.083" id="path5499"/>
<path style="fill:#b9daed" inkscape:connector-curvature="0" d="m 10400.052,267.115 c 0.131,3.004 -2.226,5.286 1.206,9.331 -6.558,-2.698 -3.247,-5.764 -3.7,-10.743" id="path5501"/>
<path style="fill:#b9daed" inkscape:connector-curvature="0" d="m 10454.528,277.471 c 3.846,-3.213 4.997,-7.235 10.78,-7.897 -7.835,-2.666 -8.538,1.348 -11.61,6.956" id="path5503"/>
<path style="fill:#b9daed" inkscape:connector-curvature="0" d="m 10527.718,277.471 c -2.219,0.349 -3.567,-0.052 -4.564,2.648 -5.304,-4.216 -10.494,-4.259 -16.143,0.127 3.313,-7.959 11.607,-7.041 18.631,-3.247" id="path5505"/>
<path style="fill:#b9daed" inkscape:connector-curvature="0" d="m 10555.58,272.764 c -4.051,1.412 -7.958,0.22 -11.58,3.695 0.01,-0.061 -0.08,-2.281 -0.09,-2.283 3.67,-4.428 6.205,-2.244 10.842,-2.824" id="path5507"/>
<path style="fill:#b9daed" inkscape:connector-curvature="0" d="m 10193.791,268.999 c 5.271,1.021 9.377,0.62 13.297,7.013 0,-0.038 1.464,-2.002 1.591,-1.93 -2.204,-6.788 -7.224,-7.842 -13.641,-5.555" id="path5509"/>
<path style="fill:#b9daed" inkscape:connector-curvature="0" d="m 10239.119,269.94 c 4.965,1.585 8.766,0.042 11.154,7.012 -6.199,-5.179 -13.33,-5.713 -20.26,-2.365 3.77,-4.491 7.707,-3.52 12.432,-4.176" id="path5511"/>
<path style="fill:#b9daed" inkscape:connector-curvature="0" d="m 10263.238,278.883 c 3.633,-0.365 5.748,-2.107 8.713,1.008 4.574,-1.035 4.77,-1.567 9.207,-0.538 -5.912,3.394 -12.511,2.189 -17.92,-0.47" id="path5513"/>
<path style="fill:#b9daed" inkscape:connector-curvature="0" d="m 10322.705,264.762 c -1.852,5.605 0.846,6.705 9.083,5.658 -1.904,-4.776 -5.2,-4.136 -9.501,-5.186" id="path5515"/>
</g>
</g>
</g></svg>