<?xml version="1.0" encoding="UTF-8" standalone="no"?>
<!-- Generator: Adobe Illustrator 16.0.0, SVG Export Plug-In . SVG Version: 6.00 Build 0)  -->

<svg
   xmlns:dc="http://purl.org/dc/elements/1.1/"
   xmlns:cc="http://creativecommons.org/ns#"
   xmlns:rdf="http://www.w3.org/1999/02/22-rdf-syntax-ns#"
   xmlns:svg="http://www.w3.org/2000/svg"
   xmlns="http://www.w3.org/2000/svg"
   xmlns:sodipodi="http://sodipodi.sourceforge.net/DTD/sodipodi-0.dtd"
   xmlns:inkscape="http://www.inkscape.org/namespaces/inkscape"
   version="1.1"
   x="0px"
   y="0px"
   width="11143px"
   height="1080px"
   viewBox="0 0 11143 1080"
   enable-background="new 0 0 11143 1080"
   xml:space="preserve"
   id="svg4866"
   inkscape:version="0.48.2 r9819"
   sodipodi:docname="mountain.svg">
<metadata
   id="metadata4875">
<rdf:RDF>
<cc:Work
   rdf:about="">
<dc:format>image/svg+xml</dc:format>
<dc:type
   rdf:resource="http://purl.org/dc/dcmitype/StillImage" />
<dc:title>
</dc:title>
</cc:Work>
</rdf:RDF>
</metadata>
<defs
   id="defs4873" />
<sodipodi:namedview
   pagecolor="#ffffff"
   bordercolor="#666666"
   borderopacity="1"
   objecttolerance="10"
   gridtolerance="10"
   guidetolerance="10"
   inkscape:pageopacity="0"
   inkscape:pageshadow="2"
   inkscape:window-width="1089"
   inkscape:window-height="710"
   id="namedview4871"
   showgrid="false"
   inkscape:zoom="0.25271471"
   inkscape:cx="9516.9053"
   inkscape:cy="117.3431"
   inkscape:window-x="119"
   inkscape:window-y="1"
   inkscape:window-maximized="0"
   inkscape:current-layer="layer20" />

<g xmlns="http://www.w3.org/2000/svg" inkscape:groupmode="layer" xmlns:inkscape="http://www.inkscape.org/namespaces/inkscape" id="layer18" inkscape:label="mountains2" style="display:inline">
<g id="Mountain">
<g id="GRASS_x5F_2">
<path style="fill:#7f8947" inkscape:connector-curvature="0" d="m 8941.968,641.422 31.032,-16.356 20,11.567 19,-13.698 26.817,18.486 22.183,-4.788 34,16.601 88,21.325 224.734,-19.12 97.266,-2.205 19.686,-22.743 22.314,6.143 15,7.532 29,-18.648 58,15.904 141.414,5.857 19.414,-16.788 c 0,0 15,-0.377 21,-7.556 6,-7.178 20.465,-7.936 20.465,-7.936 l 35.758,-25.8 45.553,-10.614 19.193,37.321 51.203,58.654 111.093,-27.28 235.943,-38.18 7.964,-54.1 h 48 l 6.904,34.2 62.671,19.899 33.642,131.482 -1567.249,-8.062 v -91.097 z" id="path7270"/>
<path style="fill:#3c563d" inkscape:connector-curvature="0" d="m 7858.968,638.422 29.31,-16.355 18.89,11.567 15.285,16.601 27.989,-11.813 20.952,-4.788 32.112,16.601 83.114,21.325 212.259,-19.12 91.863,-2.205 18.598,-22.743 21.074,6.143 14.166,7.532 27.392,-18.648 54.779,15.904 133.565,5.857 18.336,-16.788 c 0,0 23.774,1.754 29.443,-5.425 5.666,-7.178 22.801,-15.967 22.801,-15.967 l 20.691,-19.899 23.19,19.899 18.128,27.534 68.195,37.926 104.926,-27.28 222.845,-38.18 31.134,-33.514 15.113,12.538 13.132,1.076 59.192,19.899 31.773,131.482 -1480.249,-8.062 v -91.097 z" id="path7276"/>
<path style="fill:#3c563d" inkscape:connector-curvature="0" d="m 8616.948,588.723 -28.672,-24.553 -18.479,17.365 -14.952,24.921 -27.381,-17.733 -20.496,-7.188 -31.414,24.921 -81.306,32.014 -207.643,-28.704 -89.865,-3.31 -18.191,-34.143 -20.618,9.222 -13.857,11.307 -26.794,-27.994 -53.588,23.875 -130.659,8.793 -17.938,-25.202 c 0,0 -23.256,2.633 -28.803,-8.144 -5.543,-10.775 -22.306,-23.969 -22.306,-23.969 l -20.24,-29.874 -22.687,29.874 -17.733,41.334 -66.711,56.935 -102.644,-40.954 -217.996,-57.315 -30.456,-50.311 -14.784,18.822 -12.847,1.615 -57.905,29.874 -31.082,197.381 1448.044,-12.102 V 588.723 z" id="path7278"/>
</g>
<g id="Layer_61">
<polyline style="fill:#b55824" points="11100.27,603.688 10952.81,633 10965.033,701.5 11084,691 11100.27,603.688   " id="polyline7281"/>
<polyline style="fill:#b55824" points="10842.887,340.798 10822,385 10830,437 10813,524.696 10822,575 10754.874,566.518     10746,655.111 10869.888,652.594 10880,359 10842.887,340.798   " id="polyline7283"/>
<polyline style="fill:#b55824" points="10714,484 10659.867,531.696 10699.064,554 10746,554 10746,470.095 10731.876,463.811   " id="polyline7285"/>
<polyline style="fill:#b55824" points="10563.859,519.316 10541,530 10539,548 10496.575,587.089 10563.859,587.089 10563.859,519.316       " id="polyline7287"/>
<polyline style="fill:#b55824" points="10467.85,566.518 10436.578,593.089 10427.578,632.087 10474.076,641.086 10467.85,566.518   " id="polyline7289"/>
<polyline style="fill:#b55824" points="10338.837,492.498 10321,508.905 10296,519.316 10282.086,558.59 10338.837,587.089     10338.837,492.498   " id="polyline7291"/>
<polyline style="fill:#b55824" points="10069.096,450.096 10019,540 9932.604,637.587 10028.598,637.587 10135.093,436.597     10110.814,425.806   " id="polyline7293"/>
<path style="fill:#b55824" inkscape:connector-curvature="0" d="m 9813,687 c 0,0 7.108,47.082 10.108,42.582 3,-4.5 130.493,-41.998 130.493,-41.998 l 49.5,-121.066 L 9902.8,630.587 9813,687 z" id="path7295"/>
<polyline style="fill:#b55824" points="9644,622.936 9612,638 9583,683 9635,693 9644,622.936   " id="polyline7297"/>
<polyline style="fill:#b55824" points="8900.619,557.093 8940,591 9011,672 9034.182,702 8989,730.127 8872,575.518 8900,555   " id="polyline7299"/>
<polyline style="fill:#b55824" points="9364.071,456 9393,485 9400.1,531.696 9474,604.676 9583,683 9372.754,642 9348,480     9364.071,464   " id="polyline7301"/>
<path style="fill:#b77423" inkscape:connector-curvature="0" d="M 9217,245.111" id="path7303"/>
<path style="fill:#b55824" inkscape:connector-curvature="0" d="M 8569.127,408.077 8597.865,429 c 0,0 -10.829,79 9.652,88 20.482,9 27.025,49.518 27.025,49.518 H 8561 l -15.215,-142.948 23.342,-15.493" id="path7305"/>
<polyline style="fill:#b77423" points="9792,622.936 9800.666,627 9830.828,675.801 9828,693 9806,681 9792,622.936   " id="polyline7307"/>
<path style="fill:#b77423" inkscape:connector-curvature="0" d="M 7330.933,342.792 H 7466 c 0,0 78.729,48.208 120.364,34.208 41.635,-14 222.197,138.432 222.197,138.432 L 7586.364,546.303 7304,452.985 7330.933,342.792" id="path7309"/>
<polyline style="fill:#b77423" points="7925.486,474.529 8270,501.31 8278,546.303 7925.486,554 7925.486,474.529   " id="polyline7311"/>
</g>
<path style="fill:#e5a755" inkscape:connector-curvature="0" d="m 5074.725,688.482 c -2.888,0.592 -5.783,1.141 -8.679,1.66 l 13.066,1.137 c -1.483,-0.908 -2.947,-1.839 -4.387,-2.797 z" id="path7313"/>
<path style="fill:#e5a755" inkscape:connector-curvature="0" d="m 11100.27,603.688 -83.272,52.142 0,-89.313 -38.333,-225.72 -135.777,0 0,262.891 -66.006,0 0,-148.878 -45.005,9.001 0,55.505 -168.017,0 -24.002,47.202 -72.008,0 -18.002,53.309 -69.007,-16.138 0,-111.191 -42.004,0 -33.003,61.502 -30.004,-27.184 15.261,-81.008 -81.267,-27.003 -99.01,0 L 10024,603.688 9830.828,702.083 9800.611,604.676 9644,613.588 9604,677.434 9393.808,603 9364.072,451 9220,467 l -68,172 -144.469,52.019 -110.912,-142.926 -298.754,0 -28.738,-140.016 -233.536,-3.663 -99.229,111.018 -242.276,-22.934 -407.722,-106.797 -255.432,-42.909 -301.422,149.705 -111.73,6.993 c -0.152,10.917 -0.271,21.833 -0.362,32.748 -0.543,65.333 -0.145,130.671 -0.896,196.002 -0.47,40.885 -2.239,81.722 -4.316,122.548 l 805.7596,-81.78441 847.983,62.69482 514.524,43.64534 451.6466,-39.76722 662.4368,62.52481 950.535,-2.07178 15.828,-252.20156 z" id="path7315" sodipodi:nodetypes="cccccccccccccccccccccccccccccccccccccccccccsccccccccc" xmlns:sodipodi="http://sodipodi.sourceforge.net/DTD/sodipodi-0.dtd"/>
<path style="fill:#edd980" inkscape:connector-curvature="0" d="m 8464.251,450.82 c 0.63,-0.337 1.265,-0.661 1.903,-0.973 -2.674,-0.059 -5.348,-0.123 -8.021,-0.19 -0.223,1.647 -0.448,3.293 -0.673,4.94 2.222,-1.326 4.481,-2.59 6.791,-3.777 z" id="path7317"/>
<g id="Layer_73_copy">
<path style="fill:#3a6050" d="m 9566.621,792.077 c 19.5908,-4.96497 38.8451,-21.38547 58.6534,-18.94702 17.8013,12.6868 37.264,-9.87502 52.2634,9.89889 24.9068,5.64543 51.4967,4.5884 71.0559,23.46081 14.2899,10.39148 23.3639,34.53523 34.0163,6.58632 22.6865,-45.65718 48.2076,26.22737 72.9601,-2.1114 21.424,-20.10677 48.1363,6.61575 70.3851,13.14142 48.9883,-6.07865 98.5508,-60.46678 148.4078,-33.2711 31.414,18.31765 68.175,20.90387 97.933,19.09464 9.709,21.42694 31.777,6.46893 47.742,16.97457 25.358,9.86449 39.05,-20.54966 44.047,-40.82613 26.717,-24.89403 27.472,32.65223 58.94,12.63849 49.764,-7.14197 89.319,-46.96845 137.948,-56.7693 35.092,3.34729 58.44,8.09949 84.934,-15.94172 17.945,-14.39304 31.49,-18.78727 50.1,-8.22926 23.392,-2.62361 33.548,-34.5365 59.46,-27.74251 25.791,28.70737 50.427,-32.70897 69.533,2.55134 23.703,38.7339 68.71,58.0477 109.215,75.64136 38.517,30.04629 75.418,-0.51122 115.575,-9.43022 22.977,-6.23065 37.453,29.7963 62.007,13.40732 23.453,-13.86344 56.098,-28.2646 79.014,-5.72367 25.701,22.96729 56.878,61.72647 33.131,95.12424 -14.69,12.60872 -21.516,41.52846 -45.119,35.65437 -516.567,5.93752 -965.865,0.004 -1482.4325,5.94147 12.5,-40.998 -42.2695,-70.12491 -29.7695,-111.12291 z" id="path7322" inkscape:connector-curvature="0" sodipodi:nodetypes="ccccccccccccccccccccccccc" xmlns:sodipodi="http://sodipodi.sourceforge.net/DTD/sodipodi-0.dtd"/>
</g>
<polygon style="fill:#b55824" points="10265.473,470.955 10274.702,504.315 10252,637 10288,637 10276,691 10276,651 10238,637 " id="polygon7324"/>
<path style="fill:#b55824" inkscape:connector-curvature="0" d="m 10294,557 32,24 -2,14 -32,-30" id="path7326"/>
<polygon style="fill:#b55824" points="8694,607 8654,585 8561,566.518 8570,463 8588.276,564.17 8662,567 " id="polygon7328"/>
</g>
</g></svg>