<?xml version="1.0" encoding="UTF-8" standalone="no"?>
<!-- Generator: Adobe Illustrator 16.0.0, SVG Export Plug-In . SVG Version: 6.00 Build 0)  -->

<svg
   xmlns:dc="http://purl.org/dc/elements/1.1/"
   xmlns:cc="http://creativecommons.org/ns#"
   xmlns:rdf="http://www.w3.org/1999/02/22-rdf-syntax-ns#"
   xmlns:svg="http://www.w3.org/2000/svg"
   xmlns="http://www.w3.org/2000/svg"
   xmlns:sodipodi="http://sodipodi.sourceforge.net/DTD/sodipodi-0.dtd"
   xmlns:inkscape="http://www.inkscape.org/namespaces/inkscape"
   version="1.1"
   x="0px"
   y="0px"
   width="11143px"
   height="1080px"
   viewBox="0 0 11143 1080"
   enable-background="new 0 0 11143 1080"
   xml:space="preserve"
   id="svg4866"
   inkscape:version="0.48.2 r9819"
   sodipodi:docname="mountain.svg">
<metadata
   id="metadata4875">
<rdf:RDF>
<cc:Work
   rdf:about="">
<dc:format>image/svg+xml</dc:format>
<dc:type
   rdf:resource="http://purl.org/dc/dcmitype/StillImage" />
<dc:title>
</dc:title>
</cc:Work>
</rdf:RDF>
</metadata>
<defs
   id="defs4873" />
<sodipodi:namedview
   pagecolor="#ffffff"
   bordercolor="#666666"
   borderopacity="1"
   objecttolerance="10"
   gridtolerance="10"
   guidetolerance="10"
   inkscape:pageopacity="0"
   inkscape:pageshadow="2"
   inkscape:window-width="1089"
   inkscape:window-height="710"
   id="namedview4871"
   showgrid="false"
   inkscape:zoom="0.25271471"
   inkscape:cx="9516.9053"
   inkscape:cy="117.3431"
   inkscape:window-x="119"
   inkscape:window-y="1"
   inkscape:window-maximized="0"
   inkscape:current-layer="layer20" />

<g xmlns="http://www.w3.org/2000/svg" inkscape:groupmode="layer" xmlns:inkscape="http://www.inkscape.org/namespaces/inkscape" id="layer19" inkscape:label="Cloud6" style="display:inline">
<g transform="translate(0.002,0)" id="Clouds_copy">
<g id="g7562">
<path style="fill:#ffffff" inkscape:connector-curvature="0" d="m 10808.646,765.092 c 0.193,-0.447 0.294,-0.908 0.294,-1.383 0,-3.85 -6.665,-6.97 -14.884,-6.97 -7.067,0 -12.983,2.306 -14.506,5.399 -0.539,-0.146 -1.095,-0.277 -1.661,-0.389 2.174,-1.425 3.408,-3.055 3.408,-4.786 0,-5.587 -12.853,-10.118 -28.705,-10.118 -3.728,0 -7.289,0.25 -10.556,0.706 -2.35,-5.654 -8.636,-9.7 -16.023,-9.7 -9.395,0 -17.011,6.543 -17.011,14.615 0,0.235 0,0.469 0.02,0.701 -1.924,0.097 -3.756,0.458 -5.434,1.037 -2.878,-3.93 -7.383,-6.46 -12.446,-6.46 -1.098,0 -2.17,0.119 -3.204,0.345 -2.414,-1.476 -5.148,-2.475 -8.078,-2.861 -0.122,-0.096 -0.246,-0.191 -0.377,-0.285 -1.163,-4.775 -7.971,-8.441 -16.196,-8.441 -9.042,0 -16.373,4.43 -16.373,9.895 0,0.023 0,0.048 0,0.071 -1.104,-2.46 -3.201,-4.397 -5.795,-5.323 -0.358,-0.762 -0.771,-1.465 -1.23,-2.095 0.144,-0.894 0.22,-1.822 0.22,-2.772 0,-7.326 -4.475,-13.266 -9.993,-13.266 -5.518,0 -9.995,5.939 -9.995,13.266 0,1.811 0.273,3.537 0.77,5.111 -0.563,0.146 -1.114,0.311 -1.653,0.492 -3.507,-4.104 -8.856,-6.729 -14.851,-6.729 -10.569,0 -19.137,8.154 -19.137,18.214 0,0.3 0,0.599 0.02,0.894 -2.258,-2.813 -6.565,-4.717 -11.507,-4.717 -7.28,0 -13.184,4.129 -13.184,9.221 0,1.037 0.245,2.034 0.696,2.964 -0.57,-0.027 -1.158,-0.042 -1.76,-0.042 -0.534,0 -1.059,0.012 -1.569,0.033 -0.187,-1.769 -0.692,-3.435 -1.453,-4.936 1.245,-2.258 1.959,-4.886 1.959,-7.689 0,-8.443 -6.473,-15.291 -14.458,-15.291 -0.768,0 -1.521,0.065 -2.257,0.187 -2.384,-7.179 -8.85,-12.327 -16.454,-12.327 -9.631,0 -17.437,8.255 -17.437,18.438 0,4.877 1.79,9.311 4.715,12.607 -1.421,-0.297 -3.021,-0.465 -4.715,-0.465 -3.46,0 -6.532,0.699 -8.475,1.781 -1.439,-0.428 -3.058,-0.718 -4.786,-0.829 -0.785,-7.855 -7.591,-13.993 -15.871,-13.993 -4.345,0 -8.28,1.689 -11.156,4.432 -3.546,-1.378 -7.831,-2.184 -12.444,-2.184 -9.162,0 -17.021,3.171 -20.378,7.691 -0.292,-0.031 -0.588,-0.047 -0.886,-0.047 -0.989,0 -1.939,0.173 -2.829,0.486 -1.72,-11.738 -11.318,-20.723 -22.9,-20.723 -10.867,0 -19.985,7.909 -22.493,18.579 -0.116,0.128 -0.232,0.257 -0.345,0.388 -2.76,-0.633 -5.739,-0.979 -8.844,-0.979 -6.987,0 -13.327,1.748 -17.991,4.589 -0.745,0.036 -1.477,0.082 -2.188,0.136 -1.378,-0.436 -2.896,-0.678 -4.488,-0.678 -1.957,0 -3.8,0.365 -5.411,1.008 -2.79,-2.768 -7.704,-4.605 -13.301,-4.605 -4.172,0 -7.965,1.021 -10.78,2.688 -1.685,-0.266 -3.502,-0.417 -5.396,-0.436 0.01,-0.151 0.02,-0.301 0.02,-0.453 0,-6.457 -9.14,-11.691 -20.414,-11.691 -10.17,0 -18.603,4.26 -20.155,9.836 -1.289,-0.255 -2.66,-0.393 -4.084,-0.393 -2.662,0 -5.145,0.48 -7.241,1.311 0,-0.139 0.01,-0.274 0.01,-0.411 0,-9.189 -17.04,-16.64 -38.061,-16.64 -21.021,0 -38.063,7.45 -38.063,16.64 0,9.19 17.041,16.64 38.063,16.64 3.152,0 6.214,-0.169 9.144,-0.483 0,0.01 0,0.022 0,0.033 0,5.962 10.091,10.792 22.538,10.792 5.927,0 11.317,-1.095 15.341,-2.885 1.661,4.078 5.497,6.934 9.964,6.934 5.988,0 10.843,-5.135 10.843,-11.467 0,-2.512 -0.763,-4.832 -2.056,-6.721 1.219,0.13 2.475,0.197 3.757,0.197 2.093,0 4.114,-0.18 6.015,-0.514 2.948,1.932 8.104,3.213 13.974,3.213 1.438,0 2.834,-0.076 4.165,-0.221 2.879,2.324 7.372,3.818 12.42,3.818 1.338,0 2.636,-0.105 3.875,-0.303 -0.03,0.174 -0.05,0.35 -0.05,0.529 0,2.606 3.332,4.721 7.442,4.721 3.667,0 6.714,-1.684 7.327,-3.898 3.279,6.687 13.134,11.544 24.781,11.544 7.719,0 14.648,-2.134 19.401,-5.521 3.56,2.356 7.771,3.721 12.28,3.721 3.261,0 6.362,-0.713 9.176,-1.998 -0.02,0.363 -0.03,0.729 -0.03,1.099 0,9.687 7.425,17.538 16.586,17.538 6.289,0 11.762,-3.701 14.573,-9.158 1.122,2.994 3.883,5.113 7.115,5.113 3.438,0 6.347,-2.398 7.313,-5.699 0.192,0.049 0.393,0.098 0.6,0.146 0.123,0.101 0.25,0.154 0.379,0.154 0.06,0 0.118,-0.013 0.176,-0.033 4.009,0.842 10.25,1.383 17.262,1.383 12.095,0 21.901,-1.611 21.901,-3.598 0,-1.987 -9.807,-3.598 -21.901,-3.598 -6.146,0 -11.7,0.416 -15.678,1.086 0.1,-0.953 0.155,-2.004 0.155,-3.109 0,-4.347 -0.856,-7.87 -1.915,-7.87 -1.055,0 -1.912,3.523 -1.912,7.87 0,0.24 0,0.477 0,0.711 -1.329,-2.124 -3.578,-3.544 -6.147,-3.627 2.109,-1.996 3.461,-4.783 3.578,-7.885 2.607,-0.289 5.051,-0.838 7.243,-1.598 2.925,3.321 7.268,5.428 12.115,5.428 2.72,0 5.279,-0.662 7.518,-1.829 0.892,0.987 2.146,1.604 3.54,1.604 2.276,0 4.188,-1.645 4.733,-3.871 5.372,-0.33 9.714,-2.366 10.896,-5.018 0.784,0.077 1.604,0.119 2.445,0.119 1.042,0 2.047,-0.064 2.999,-0.182 0.326,2.061 4.391,3.748 9.716,4.143 1.894,4.319 5.771,7.281 10.249,7.281 1.404,0 2.748,-0.291 3.99,-0.822 2.373,3.236 6.084,5.319 10.256,5.319 5.928,0 10.927,-4.204 12.476,-9.946 0.641,0.035 1.305,0.053 1.983,0.053 2.621,0 5.005,-0.271 6.787,-0.717 2.121,1.019 4.691,1.617 7.46,1.617 1.557,0 3.05,-0.189 4.437,-0.535 0.901,3.635 5.046,6.381 10.022,6.381 3.652,0 6.855,-1.479 8.659,-3.703 2.303,0.936 4.838,1.454 7.502,1.454 1.604,0 3.163,-0.188 4.652,-0.543 0.772,0.062 1.563,0.095 2.365,0.095 2.515,0 4.899,-0.313 7.043,-0.869 0.941,1.395 2.326,2.432 3.939,2.877 2.774,3.016 7.192,5.254 12.395,6.131 1.664,2.678 4.57,4.453 7.88,4.453 4.145,0 7.659,-2.786 8.887,-6.645 1.859,-0.908 3.486,-2.025 4.807,-3.299 0.465,-0.031 0.921,-0.074 1.368,-0.133 0.07,0.165 0.132,0.328 0.199,0.49 -0.239,0.648 -0.377,1.385 -0.377,2.166 0,2.606 1.522,4.721 3.401,4.721 0.474,0 0.923,-0.134 1.332,-0.375 3.778,3.84 9.026,6.221 14.828,6.221 5.616,0 10.71,-2.229 14.457,-5.852 4.127,-0.115 7.857,-1.911 10.603,-4.764 2.329,1.031 5.025,1.621 7.899,1.621 1.654,0 3.249,-0.195 4.749,-0.557 3.571,1.96 9.729,3.255 16.728,3.255 11.038,0 19.986,-3.22 19.986,-7.194 0,-3.932 -8.758,-7.127 -19.633,-7.193 1.054,-0.334 2.058,-0.756 3.002,-1.254 4.876,1.348 11.02,2.15 17.695,2.15 1.511,0 2.994,-0.041 4.442,-0.119 -1.606,1.746 -2.529,3.785 -2.529,5.967 0,6.457 8.092,11.691 18.073,11.691 9.261,0 16.893,-4.504 17.949,-10.312 2.729,0.549 5.985,0.868 9.481,0.868 9.629,0 17.437,-2.417 17.437,-5.396 0,-2.006 -3.543,-3.758 -8.8,-4.687 z" id="path7564"/>
<path style="fill:#dbdbdb" inkscape:connector-curvature="0" d="m 10192.713,750.735 c 12.59,10.06 29.79,14.306 44.536,9.934 6.081,10.519 38.817,18.02 48.021,13.65 6.203,-2.946 5.045,-7.076 4.017,-14.149 4.19,-1.919 4.859,-1.71 8.103,-6.018 -3.398,0.545 -8.659,2.008 -12.771,2.684 -4.264,24.759 -56.217,4.094 -71.59,-0.242 -8.769,-2.475 -12.287,-1.869 -15.83,-12.422 -5.755,2.153 -3.313,4.771 -2.771,9.23" id="path7566"/>
<path style="fill:#dbdbdb" inkscape:connector-curvature="0" d="m 10357.734,759.402 c -9.16,25.76 34.949,12.57 45.854,13.406 7.029,0.539 11.515,1.967 18.554,-0.674 1.029,17.666 17.001,17.912 25.752,6.035 -12.273,9.152 -23.79,1.758 -16.559,-14.665 -13.609,7.639 -51.844,12.099 -66.151,8.624 -7.355,-1.787 -1.62,-12.816 0.485,-16.59 -6.573,0.564 -7.868,4.861 -11.36,9.863" id="path7568"/>
<path style="fill:#dbdbdb" inkscape:connector-curvature="0" d="m 10472.507,751.402 c -3.694,14.246 3.29,19.952 14.229,12.103 -9.547,2.086 -14.839,-7.759 -15.942,-11.437" id="path7570"/>
<path style="fill:#dbdbdb" inkscape:connector-curvature="0" d="m 10535.317,768.735 c 10.48,6.765 19.3,3.811 17.13,-10.762 -5.784,15.445 -20.998,12.183 -29.721,2.961 2.022,12.529 5.999,6.248 12.591,7.801" id="path7572"/>
<path style="fill:#dbdbdb" inkscape:connector-curvature="0" d="m 10581.568,760.735 c 1.957,9.521 2.145,14.426 13.756,8.632 -7.488,-1.926 -10.745,-7.66 -13.756,-9.965" id="path7574"/>
<path style="fill:#dbdbdb" inkscape:connector-curvature="0" d="m 10612.974,767.402 c 2.318,-4.555 7.295,-5.473 8.137,-12.598 2.234,15.102 14.454,22.956 25.147,12.749 0.152,-0.185 0.307,-0.369 0.461,-0.553 -0.154,0.189 -0.312,0.374 -0.474,0.553 -7.299,12.147 -19.771,13.056 -26.533,-0.054 -10.085,3.543 -11.72,4.215 -18.613,-4.031 5.198,6.449 8.799,2.816 14.159,3.934" id="path7576"/>
<path style="fill:#dbdbdb" inkscape:connector-curvature="0" d="m 10652.373,746.068 c -0.188,6.32 -5.507,10.412 4.953,13.35 0.784,-8 0.848,-7.805 3.693,-15.383 -3.679,-0.881 -6.991,0.77 -10.359,3.367" id="path7578"/>
<path style="fill:#dbdbdb" inkscape:connector-curvature="0" d="m 10706.048,774.068 c 10.47,1.496 23.256,6.678 32.917,-2.031 -12.309,4.518 -22.687,-1.194 -34.631,2.698" id="path7580"/>
<path style="fill:#dbdbdb" inkscape:connector-curvature="0" d="m 10747.731,765.402 c 3.653,-0.407 7.62,-0.019 11.234,0.135 -3.136,19.531 17.94,20.762 25.408,6.615 3.278,-2.021 4.315,-0.623 7.825,-4.631 -11.621,1.739 -31.435,20.047 -29.137,-5.201 -3.466,-0.074 -11.281,-0.102 -14.787,1.049 -3.565,3.138 1.296,3.673 1.169,4.033" id="path7582"/>
<path style="fill:#dbdbdb" inkscape:connector-curvature="0" d="m 10711.188,756.068 c -1.276,4.436 -2.956,6.777 -0.04,11.198 -8.772,-5.483 -1.753,-7.084 0.614,-13.198" id="path7584"/>
<path style="fill:#dbdbdb" inkscape:connector-curvature="0" d="m 10624.394,741.402 c -1.329,0.697 -1.538,5.486 -1.558,6.578 -0.279,-10.467 -1.521,-5.331 4.354,-13.109 -1.167,1.5 -2.659,4.995 -1.654,7.197" id="path7586"/>
<path style="fill:#b9daed" inkscape:connector-curvature="0" d="m 10516.474,737.402 c 0.179,4.254 -3.059,7.486 1.654,13.215 -9.004,-3.82 -4.457,-8.164 -5.08,-15.215" id="path7588"/>
<path style="fill:#b9daed" inkscape:connector-curvature="0" d="m 10591.276,752.068 c 5.279,-4.551 6.858,-10.248 14.8,-11.185 -10.757,-3.774 -11.721,1.909 -15.942,9.852" id="path7590"/>
<path style="fill:#b9daed" inkscape:connector-curvature="0" d="m 10691.772,752.068 c -3.047,0.494 -4.898,-0.074 -6.267,3.752 -7.282,-5.971 -14.41,-6.032 -22.168,0.18 4.551,-11.271 15.94,-9.973 25.58,-4.598" id="path7592"/>
<path style="fill:#b9daed" inkscape:connector-curvature="0" d="m 10730.03,745.402 c -5.562,1.999 -10.927,0.311 -15.902,5.232 0.02,-0.086 -0.112,-3.229 -0.127,-3.232 5.042,-6.271 8.521,-3.178 14.887,-4" id="path7594"/>
<path style="fill:#b9daed" inkscape:connector-curvature="0" d="m 10233.253,740.068 c 7.238,1.447 12.876,0.879 18.259,9.934 0.01,-0.053 2.01,-2.836 2.184,-2.732 -3.025,-9.613 -9.919,-11.107 -18.729,-7.867" id="path7596"/>
<path style="fill:#b9daed" inkscape:connector-curvature="0" d="m 10295.494,741.402 c 6.818,2.246 12.037,0.061 15.315,9.931 -8.512,-7.335 -18.304,-8.092 -27.819,-3.35 5.176,-6.36 10.583,-4.985 17.07,-5.915" id="path7598"/>
<path style="fill:#b9daed" inkscape:connector-curvature="0" d="m 10328.611,754.068 c 4.988,-0.518 7.894,-2.984 11.964,1.429 6.282,-1.466 6.549,-2.219 12.645,-0.762 -8.119,4.806 -17.181,3.099 -24.609,-0.667" id="path7600"/>
<path style="fill:#b9daed" inkscape:connector-curvature="0" d="m 10410.266,734.068 c -2.541,7.939 1.161,9.497 12.473,8.014 -2.614,-6.764 -7.14,-5.857 -13.045,-7.347" id="path7602"/>
</g>
</g>
</g></svg>