<?xml version="1.0" encoding="UTF-8" standalone="no"?>
<!-- Generator: Adobe Illustrator 16.0.0, SVG Export Plug-In . SVG Version: 6.00 Build 0)  -->

<svg
   xmlns:dc="http://purl.org/dc/elements/1.1/"
   xmlns:cc="http://creativecommons.org/ns#"
   xmlns:rdf="http://www.w3.org/1999/02/22-rdf-syntax-ns#"
   xmlns:svg="http://www.w3.org/2000/svg"
   xmlns="http://www.w3.org/2000/svg"
   xmlns:sodipodi="http://sodipodi.sourceforge.net/DTD/sodipodi-0.dtd"
   xmlns:inkscape="http://www.inkscape.org/namespaces/inkscape"
   version="1.1"
   x="0px"
   y="0px"
   width="11143px"
   height="1080px"
   viewBox="0 0 11143 1080"
   enable-background="new 0 0 11143 1080"
   xml:space="preserve"
   id="svg4866"
   inkscape:version="0.48.2 r9819"
   sodipodi:docname="mountain.svg">
<metadata
   id="metadata4875">
<rdf:RDF>
<cc:Work
   rdf:about="">
<dc:format>image/svg+xml</dc:format>
<dc:type
   rdf:resource="http://purl.org/dc/dcmitype/StillImage" />
<dc:title>
</dc:title>
</cc:Work>
</rdf:RDF>
</metadata>
<defs
   id="defs4873" />
<sodipodi:namedview
   pagecolor="#FF4C4C"
   bordercolor="#D11E1E"
   borderopacity="1"
   objecttolerance="10"
   gridtolerance="10"
   guidetolerance="10"
   inkscape:pageopacity="0"
   inkscape:pageshadow="2"
   inkscape:window-width="1089"
   inkscape:window-height="710"
   id="namedview4871"
   showgrid="false"
   inkscape:zoom="0.25271471"
   inkscape:cx="9516.9053"
   inkscape:cy="117.3431"
   inkscape:window-x="119"
   inkscape:window-y="1"
   inkscape:window-maximized="0"
   inkscape:current-layer="layer20" />

<g xmlns="http://www.w3.org/2000/svg" inkscape:groupmode="layer" xmlns:inkscape="http://www.inkscape.org/namespaces/inkscape" id="layer21" inkscape:label="hills1" style="display:inline">
<g transform="translate(0,-0.00399841)" id="MidGround_x5F_DRK">
<g id="g8162">
<path fill="#B20000" style="fill:#C71C07" d="m 5901,604.65625 c -512.1389,-0.095 -880.5625,233.65625 -880.5625,233.65625 l -1.25,0.6875 c -3.072,41.966 -5.7598,83.97525 -7.2187,126.03125 -1.6936,48.82535 -1.7906,97.73135 -1.8438,146.62495 l 2206.4062,0 C 7119.6084,1064.0116 6987.3274,988.6166 6808.25,874.84375 6487.6974,671.18776 6173.9363,604.70688 5901,604.65625 z m 2787.5,57.125 C 7991.6782,662.61012 7412,1029.2188 7412,1029.2188 c 0,0 31.2187,42.309 45.7812,82.4374 l 2974.6568,0 15.562,-8.7187 c 0,0 -370.201,-119.5425 -1264.0625,-374.3125 C 9016.3382,680.85544 8849.305,661.58997 8688.5,661.78125 z" transform="translate(0,0.00399841)" id="path8164" inkscape:connector-curvature="0"/>
</g>
<path fill="#B20000" style="fill:#C71C07" inkscape:connector-curvature="0" d="m 10016,990.47 c -1.396,-1.731 -9.476,-11.464 -12.349,-19.261 -19.722,7.361 -30.157,-8.977 -32,-28.452 -13.355,26.81 -32.623,25.019 -41.199,-8.716 -0.468,4.668 -1.609,7.89 -2.402,12.075 -1.662,-4.861 -6.262,-10.518 -7.658,-14.2 -0.093,7.281 -4.64,12.103 -6.296,17.406 -8.883,-9.903 -90.846,-13.462 -46.7,-46.181 -9.329,4.701 -15.602,13.146 -17.848,23.937 -1.995,0.523 -2.327,-2.584 -5.153,-1.58 -1.168,0.804 -0.619,4.141 -2.395,5.318 -8.938,-9.889 -24.949,-17.976 -36.104,-27.62 -1.541,1.826 -2.594,4.063 -4.303,6.399 -12.538,-10.189 -28.7,-14.104 -43.338,-10.176 2.219,3.046 3.897,5.444 7.094,8.436 -17.283,-12.342 -46.402,-8.816 -51.356,-33.011 -2.501,4.79 -8.959,9.643 -11.645,14.839 -1.019,-2.334 -0.138,-5.158 -0.644,-7.712 -6.914,-1.435 -11.566,-2.684 -19.363,-4.474 -1.736,1.86 0.602,4.276 -2.186,6.097 -10.871,-11.803 -24.161,-16.058 -36.267,-2.824 -10.425,-7.791 -10.423,-26.146 -10.288,-42.445 -3.309,6.126 -9.193,13.222 -11.705,20.772 -0.538,-2.197 0,-5.379 -0.295,-7.713 -1.398,0.203 -4.171,5.035 -5.602,4.339 -3.535,-2.202 -6.061,-5.286 -10,-6.48 -14.965,11.974 -39.335,-15.223 -55.705,-21.205 0.932,4.729 -0.014,9.081 1.506,14.087 -14.084,0.577 -24.232,-10.694 -31.794,-21.271 -1.138,2.941 -1.533,5.14 -2.452,8.366 -5.473,-8.623 -8.328,-20.463 -7.85,-31.818 -3.359,6.121 -8.934,11.49 -11.809,18.162 0.65,-4.191 0.691,-8.79 1.363,-12.55 -1.98,1.863 -6.854,5.903 -9.26,7.05 -5.205,-8.531 -11.844,-13.387 -19.651,-19.139 1.082,8.512 -1.001,16.63 1.452,25.177 -3.98,-1.955 -8.285,-3.444 -11.794,-6.507 -3.227,3.099 -6.31,4.627 -10.11,6.507 -4.872,-10.232 -8.072,-21.412 -9.949,-32.729 0.092,-1.608 0.141,-1.61 0.148,-0.007 -7.77,19.209 -47.236,-5.695 -65.675,-6.218 -19.646,-0.555 -23.119,-4.2 -40.437,-9.921 -11.161,-3.687 -21.955,-15.658 -24.781,1.002 -42.247,-33.296 -90.949,-8.682 -124.805,-60.557 0.377,6.265 -0.547,19.614 -0.256,21.896 -2.512,-7.305 -8.336,-13.878 -11.751,-19.669 -4.871,17.647 -52.172,-6.826 -69.787,-8.547 27.101,17.004 36.207,45.781 63.176,55.757 50.503,18.68 102.241,26.975 152.925,49.776 66.757,30.034 135.777,42.054 205.711,59.825 85.288,21.673 163.373,70.335 250.146,85.078 28.241,4.797 57.682,8.474 86.255,9.247 25.014,0.68 54.721,-8.802 79.129,-2.337 27.047,7.164 50.584,31.193 78.055,38.301" id="path8336"/>
<path fill="#B20000" style="fill:#C91F0E" inkscape:connector-curvature="0" d="m 9846,959 c -4.835,-5.354 -13.285,-10.8 -19.712,-13.697 -1.19,1.935 -0.996,4.68 -2.249,6.893 -6.578,-10.611 -9.647,-23.42 -20.143,-34.494 0.492,6.243 -2.283,11.924 -1.801,18.598 -29.833,-30.349 -77.255,-31.693 -117.491,-45.448 12.181,1.786 24.396,8.729 33.229,15.751 -11.338,1.42 -23.452,0.389 -33.569,-3.299 19.537,16.917 54.27,7.701 76.569,17.931 20.11,9.225 34.077,33.754 58.466,35.909 -0.729,-0.687 -3.881,-2.825 -3.937,-3.79 11.919,6.199 38.511,16.1 46.794,28.9 0.813,-1.065 6.681,-10.256 7.246,-11.35 -10.575,-2.415 -15.97,-8.019 -25.402,-13.903" id="path8338"/>
<path fill="#B20000" style="fill:#C91F0E" inkscape:connector-curvature="0" d="m 9636,879 c -4.771,-6.533 -10.166,-10.338 -10.445,-19.84 -0.27,2.696 -3.423,9.255 -3.896,13.584 -3.43,-2.536 -9.116,-3.329 -12.904,-7.441 -0.045,-0.105 5.573,5.387 5.04,5.299 -6.761,-1.869 -10.266,-2.023 -16.982,-5.794 10.022,6.085 18.349,14.255 19.587,25.986 0.198,-0.098 4.305,-2.554 3.651,-3.061 -1.827,0.335 1.61,3.215 1.459,3.121 0.272,-2.823 1.688,-6.379 2.441,-9.061 1.584,0.332 4.481,-0.797 6.05,-2.794" id="path8340"/>
<path fill="#B20000" style="fill:#C91F0E" inkscape:connector-curvature="0" d="m 9520,857 c -14.407,-6.399 -16.654,-24.524 -17.451,-37.84 -0.76,5.75 -3.949,11.6 -4.994,17.249 -2.599,-3.098 -7.014,-6.578 -9.221,-9.21 -1.084,1.085 0.416,5.494 -2.287,5.602 -18.688,-10.57 -47.409,-14.865 -58.549,-33.655 -9.082,16.923 -21.294,9.141 -34.854,1.712 16.314,10.285 34.354,14.406 48.551,27.891 0.275,-1.911 -2.447,-3.824 -2.989,-5.343 12.063,-1.406 20.446,7.753 25.349,17.343 12.917,-16.916 40.789,9.679 54.445,16.252" id="path8342"/>
<path fill="#B20000" style="fill:#C91F0E" inkscape:connector-curvature="0" d="m 9274,869 c -6.141,-10.854 -15.021,-19.004 -23.292,-28.136 14.591,2.88 21.926,16.568 27.833,29.531 5.655,-19.996 -3.805,-50.864 -11.69,-69.229 6.52,16.136 11.921,36.163 20.697,49.673 0.024,0.027 0.312,-6.686 0.452,-7.235 -0.438,6.124 1.509,9.729 2.349,15.093 3.552,-0.292 6.324,-3.133 9.396,-3.491 -0.049,2.785 -2.979,5.993 -5.036,7.982 3.485,-1.717 8.935,-3.469 12.642,-4.377 -7.87,5.542 -10.039,12.319 -13.35,20.188" id="path8344"/>
<path fill="#B20000" style="fill:#C91F0E" inkscape:connector-curvature="0" d="m 9492,955 c -2.66,-3.854 -5.124,-8.146 -7.801,-11.595 3.091,1.776 7.677,2.582 11.355,5.343 5.539,-15.69 -6.065,-39.459 -11.148,-55.189 3.613,17.375 13.807,40.612 23.195,55.281 -0.563,-10.131 -0.016,-20.319 4.502,-29.132 -0.983,8.908 0.487,18.162 0.191,26.982 3.634,1.456 4.617,-1.171 7.402,-1.388 -1.117,3.172 -2.59,6.43 -3.448,9.355 19.085,-0.03 36.617,1.104 55.043,10.452 -12.683,2.403 -26.201,3.855 -37.292,-2.11" id="path8346"/>
</g>
</g></svg>
