<?xml version="1.0" encoding="UTF-8" standalone="no"?>
<!-- Generator: Adobe Illustrator 16.0.0, SVG Export Plug-In . SVG Version: 6.00 Build 0)  -->

<svg
   xmlns:dc="http://purl.org/dc/elements/1.1/"
   xmlns:cc="http://creativecommons.org/ns#"
   xmlns:rdf="http://www.w3.org/1999/02/22-rdf-syntax-ns#"
   xmlns:svg="http://www.w3.org/2000/svg"
   xmlns="http://www.w3.org/2000/svg"
   xmlns:sodipodi="http://sodipodi.sourceforge.net/DTD/sodipodi-0.dtd"
   xmlns:inkscape="http://www.inkscape.org/namespaces/inkscape"
   version="1.1"
   x="0px"
   y="0px"
   width="11143px"
   height="1080px"
   viewBox="0 0 11143 1080"
   enable-background="new 0 0 11143 1080"
   xml:space="preserve"
   id="svg4866"
   inkscape:version="0.48.2 r9819"
   sodipodi:docname="mountain.svg">
<metadata
   id="metadata4875">
<rdf:RDF>
<cc:Work
   rdf:about="">
<dc:format>image/svg+xml</dc:format>
<dc:type
   rdf:resource="http://purl.org/dc/dcmitype/StillImage" />
<dc:title>
</dc:title>
</cc:Work>
</rdf:RDF>
</metadata>
<defs
   id="defs4873" />
<sodipodi:namedview
   pagecolor="#ffffff"
   bordercolor="#666666"
   borderopacity="1"
   objecttolerance="10"
   gridtolerance="10"
   guidetolerance="10"
   inkscape:pageopacity="0"
   inkscape:pageshadow="2"
   inkscape:window-width="1089"
   inkscape:window-height="710"
   id="namedview4871"
   showgrid="false"
   inkscape:zoom="0.25271471"
   inkscape:cx="9516.9053"
   inkscape:cy="117.3431"
   inkscape:window-x="119"
   inkscape:window-y="1"
   inkscape:window-maximized="0"
   inkscape:current-layer="layer20" />

<g xmlns="http://www.w3.org/2000/svg" inkscape:groupmode="layer" xmlns:inkscape="http://www.inkscape.org/namespaces/inkscape" id="layer22" inkscape:label="hills2" style="display:inline">
<g id="MidGround">
<path style="fill:#8e8c36" d="m 7023.875,552.53125 c -113.9215,0.16025 -230.7811,13.49275 -355,42.75 -165.655,39.016 -327.8763,90.931 -493.2812,130.75 -150.4471,36.218 -305.5785,52.5615 -452.1876,103.8125 -152.0359,53.148 -293.1194,134.5775 -428.3124,221.06245 -39.6597,25.3708 -82.1012,50.6907 -125.125,76.5938 l 5362.3752,0 c -25.868,-8.2729 -53.932,-16.4772 -84.344,-24.5625 -93.648,-24.897 -188.553,-45.0032 -284,-61.6563 -49.094,-8.5659 -98.324,-16.2002 -147.688,-23.0312 -23.7985,-3.293 -50.9677,-3.2207 -74.0308,-9.4688 -11.7709,-3.1889 -32.7255,-20.7082 -44.4374,-9.9062 -9.8721,-4.617 -17.6233,0.12475 -28.0313,0.46875 -0.26,1.50195 1.4633,3.09525 1.1563,3.90625 -3.2321,8.457 -89.1388,-8.34 -98.3438,-9 -6.559,-0.471 -16.6795,1.58225 -22.9375,-0.34375 -8.414,-2.588 -11.921,-9.48 -19.875,-12.625 -14.855,-5.871 -24.91,4.45825 -24,-22.59375 -2.128,4.934 -4.9903,8.53025 -5.9063,14.65625 -29.1659,15.805 -50.3257,9.032 -81.9687,5.25 -29.877,-3.571 -52.805,6.46875 -72,-21.03125 0.975,5.869 0.4682,11.739 2.5313,17.25 -28.0201,-9.106 -60.1448,-1.12925 -88.9688,-3.78125 -42.236,-3.887 -85.1605,-3.49325 -127.5625,-4.40625 -85.496,-1.84 -171.0505,-2.225 -256.5625,-1.375 -191.3,1.9 -382.6025,9.83775 -573.3125,25.09375 -34.039,2.722 -68.1045,5.41425 -102.0625,9.03125 0,0 -353.4375,-194.248 -353.4375,-194.25 -109.695,-60.292 -252.6808,-88.66575 -371.4687,-128.71875 -226.9267,-76.5135 -433.7323,-124.18093 -651.2188,-123.875 z" id="path8728" inkscape:connector-curvature="0"/>
<path style="fill:#788346" d="m 10873.25,912.8125 c -330.941,0.43229 -801.07,40.2923 -1345.375,200.5625 -16.3115,4.8029 -32.1342,9.5182 -47.5,14.125 l 1852.563,0 0,-186.5625 c -76.555,-10.76303 -236.356,-28.41673 -459.688,-28.125 z" id="path8730" inkscape:connector-curvature="0"/>
<path style="fill:#788346" d="m 4755.3125,542.75 c -226.8678,0.38454 -426.8426,26.29087 -555.0937,75.0625 -426.043,162.017 -639.0626,327.03125 -639.0626,327.03125 L 3821,1143.3125 l 2478.8438,0 C 6280.8474,1086.7084 6247.4212,1028.7898 6195.4062,970.5 5930.771,673.94018 5273.0365,541.87247 4755.3125,542.75 z" id="path8732" inkscape:connector-curvature="0"/>
<g id="Layer_58">
<path style="fill:#7e8446" inkscape:connector-curvature="0" d="m 7240.371,609.414 c 0,0 -246.978,-87.629 -563.674,29.979 -316.696,117.608 160.521,78.336 160.521,78.336 0,0 -270.651,-119.873 403.153,-108.315 z" id="path8735"/>
<path style="fill:#7e8446" inkscape:connector-curvature="0" d="m 7412,663.434 c 0,0 151.57,-3.766 163.785,28.9 12.215,32.666 -52.39,36.306 -52.39,36.306 0,0 -111.395,-38.036 -111.395,-51.621" id="path8737"/>
</g>
<path style="fill:none;stroke:#151602;stroke-width:2;stroke-miterlimit:10" inkscape:connector-curvature="0" stroke-miterlimit="10" d="M 7135.791,554.662" id="path8739"/>
<path style="fill:none;stroke:#151602;stroke-width:2;stroke-miterlimit:10" inkscape:connector-curvature="0" stroke-miterlimit="10" d="M 6497.82,639.393" id="path8741"/>
<path style="fill:#93995b" inkscape:connector-curvature="0" d="m 4668.269,584.824 c 0,0 324.498,9.457 636.529,79.815 312.031,70.358 561.204,208.134 565.631,226.255 4.426,18.121 -387.962,-191.9 -829.332,-176.898 -441.369,15.002 -621.25,-147.344 -372.828,-129.172 z" id="path8743"/>
<g id="Layer_59">
<path style="fill:#68703a" inkscape:connector-curvature="0" d="M 4379.881,732.844" id="path8746"/>
</g>
<path style="fill:#788346" inkscape:connector-curvature="0" d="m 9762,1068 c 19.725,-29.819 75.691,-25.214 101.794,-49.299 -6.172,8.682 -13.739,17.374 -21.086,25.545 38.452,-21.156 92.264,-37.404 134.688,-48.232 -9.696,1.319 -18.864,6.742 -23.132,13.638 23.393,4.218 55.159,-13.825 77.132,-21.794 -2.353,1.947 -5.185,3.952 -7.183,5.737 29.731,-2.445 56.16,-19.938 83.581,-32.79 -6.741,6.079 -12.853,13.304 -17.634,20.886 32.159,-1.778 59.5,-17.99 91.242,-19.684 -1.758,0.841 -4.694,1.203 -6.694,2.097 13.568,1.795 26.5,-0.646 31.848,-13.402 0.625,0.665 1.467,4.858 1.793,5.004 21.613,-3.561 41.876,-19.313 63.937,-19.698 -4.021,0.854 -14.912,7.801 -20.125,11.645 27.672,1.007 48.766,-3.566 73.427,-17.445 -1.097,4.236 0.131,8.877 -1.388,13.491 43.481,3.7 95.031,-0.399 131.402,-27.491 -1.273,4.909 0.203,10.862 -1.441,15.549 41.036,-9.156 85.439,-17.198 127.424,-19.748 -17.961,-0.208 -34.328,8.341 -51.517,12.484 47.826,9.329 93.189,-19.185 140.257,-24.478 -6.292,1.354 -19.406,7.328 -24.068,15.638 25.25,1.176 48.683,3.646 73.183,5.665 40.629,3.348 82.901,-18.02 121.95,-27.409 -19.23,6.738 -37.064,19.076 -52.674,32.189 33.43,1.932 65.268,-17.075 97.165,-23.787 -10.028,7.995 -23.323,14.059 -35.308,19.787 51.013,-0.601 86.652,9.824 129.125,-19.389 -0.511,3.919 0.885,8.974 0.509,12.989 42.239,-0.913 83.237,-6.91 125.325,-3.69 -12.441,0.068 -24.289,4.182 -34.959,10.143 23.494,-0.409 48.861,-2.739 71.268,4.245 -75.967,26.816 -156.808,13.521 -235.528,12.806 -77.157,-0.701 -154.009,6.2 -231.268,4.256 -65.446,-1.647 -131.158,-2.93 -196.616,-1.025 -55.424,1.613 -112.091,2.992 -167.17,7.646 -73.454,6.207 -139.431,48.284 -210.436,63.522 -77.986,16.735 -157.909,12.555 -235.575,34.713 -35.209,10.044 -67.104,15.344 -103.248,19.686" id="path8748"/>
<path style="fill:#90995c" inkscape:connector-curvature="0" d="m 9982,1057 c 42.722,-3.169 95.357,-25.285 129.848,-49.292 -8.246,13.336 -22.955,24.782 -35.236,34.989 20.256,-2.422 40.453,-14.189 59.057,-20.235 17.283,-5.617 35.719,-9.872 53.688,-19.611 -0.244,-0.669 -3.432,0.872 -3.655,1.355 15.662,-14.279 37.799,-27.567 57.641,-35.349 -13.636,6.986 -21.897,22.196 -31.182,33.491 3.174,-2.663 6.655,-3.9 10.132,-5.986 1.951,-2.607 -4.797,3.354 -4.086,4.232 18.194,-1.365 94.469,-29.187 91.349,-47.435 -2.783,8.729 -5.979,21.416 -7.135,31.688 6.285,-5.773 15.544,-8.68 23.277,-11.592 0.646,2.552 -0.05,4.939 0.605,7.488 20.393,-8.515 41.055,-18.565 63.53,-24.182 -2.331,0.065 -5.311,-0.37 -9.285,0.483 19.608,-1.014 50.687,-2.775 63.645,-19.234 -5.372,6.488 -9.886,14.487 -14.189,20.937 25.955,-7.092 50.347,-21.159 77.386,-25.837 -7.929,3.104 -15.215,8.105 -22.777,11.69 35.838,3.442 83.626,-5.803 116.869,-19.794 -6.95,2.469 -11.949,6.458 -17.32,9.787 8.762,-0.603 18.577,-1.203 27.221,-3.73 -16.418,11.41 -33.638,25.92 -52.872,32.225 25.322,-1.409 43.165,-15.495 63.857,-23.633 25.058,-9.854 53.215,-8.795 79.157,-12.502 -37.231,4.411 -86.783,26.566 -113.047,53.886 48.4,-19.798 113.584,-14.302 157.004,-43.569 -41.304,24.106 -91.096,49.656 -139.729,53.871 -36.765,3.186 -72.223,3.634 -108.831,9.891 16.226,-1.854 33.22,-8.436 48.453,-13.58 -58.906,-3.229 -109.601,31.596 -165.207,31.143 33.235,-30.106 104.718,-31.148 147.107,-47.189 -22.976,-1.768 -44.912,7.042 -67.695,5.588 -0.918,0.386 7.564,-3.256 9.81,-4.082 -36.989,5.76 -71.534,5.151 -99.287,27.901 -41.353,33.897 -89.504,40.742 -136.522,63.426 29.893,-20.932 61.959,-38.271 93.944,-55.42 -42.24,12.938 -90.525,20.295 -134.744,21.84 0.687,-1.016 1.064,-2.135 1.132,-3.355 -88.552,17.067 -176.613,40.08 -269.3,39.69 19.979,-3.044 51.535,-10.317 65.389,-17.993" id="path8750"/>
<path style="fill:#90995c" inkscape:connector-curvature="0" d="m 10740,1057 c -9.431,3.184 -37.316,13.996 -41.838,-1.526 -4.903,-16.834 42.631,-30.484 53.137,-38.666 -4.342,3.182 -5.697,6.27 -9.093,9.787 52.772,2.658 98.149,-36.118 152.118,-45.634 -17.914,4.162 -69.884,25.94 -78.062,43.736 45.608,2.265 94.658,-9.184 139.118,-19.801 -11.082,0.117 -22.303,0.233 -33.268,-0.295 23.02,-10.455 36.002,-23.259 64.058,-28.484 32.075,-5.975 63.76,-11.711 95.812,-17.705 -27.281,6.878 -61.266,18.526 -85.521,34.332 8.743,-1.801 19.385,-2.782 28.927,-1.841 -24.877,11.313 -50.134,25.035 -76.531,32.296 -30.132,8.289 -60.918,7.375 -90.911,17.686 -38.703,13.304 -71.118,8.092 -110.271,8.115 15.118,-1.03 42.638,-4.109 43.577,14.143 -19.313,-0.363 -38.461,-2.978 -57.538,-2.149 -1.006,1.607 2.719,-1.034 4.285,-1.993" id="path8752"/>
</g>
</g></svg>