<?xml version="1.0" encoding="UTF-8" standalone="no"?>
<!-- Generator: Adobe Illustrator 16.0.0, SVG Export Plug-In . SVG Version: 6.00 Build 0)  -->

<svg
   xmlns:dc="http://purl.org/dc/elements/1.1/"
   xmlns:cc="http://creativecommons.org/ns#"
   xmlns:rdf="http://www.w3.org/1999/02/22-rdf-syntax-ns#"
   xmlns:svg="http://www.w3.org/2000/svg"
   xmlns="http://www.w3.org/2000/svg"
   xmlns:sodipodi="http://sodipodi.sourceforge.net/DTD/sodipodi-0.dtd"
   xmlns:inkscape="http://www.inkscape.org/namespaces/inkscape"
   version="1.1"
   x="0px"
   y="0px"
   width="11143px"
   height="1080px"
   viewBox="0 0 11143 1080"
   enable-background="new 0 0 11143 1080"
   xml:space="preserve"
   id="svg4866"
   inkscape:version="0.48.2 r9819"
   sodipodi:docname="mountain.svg">
<metadata
   id="metadata4875">
<rdf:RDF>
<cc:Work
   rdf:about="">
<dc:format>image/svg+xml</dc:format>
<dc:type
   rdf:resource="http://purl.org/dc/dcmitype/StillImage" />
<dc:title>
</dc:title>
</cc:Work>
</rdf:RDF>
</metadata>
<defs
   id="defs4873" />
<sodipodi:namedview
   pagecolor="#FFFFFF"
   bordercolor="#D1D1D1"
   borderopacity="1"
   objecttolerance="10"
   gridtolerance="10"
   guidetolerance="10"
   inkscape:pageopacity="0"
   inkscape:pageshadow="2"
   inkscape:window-width="1089"
   inkscape:window-height="710"
   id="namedview4871"
   showgrid="false"
   inkscape:zoom="0.25271471"
   inkscape:cx="9516.9053"
   inkscape:cy="117.3431"
   inkscape:window-x="119"
   inkscape:window-y="1"
   inkscape:window-maximized="0"
   inkscape:current-layer="layer20" />

<g xmlns="http://www.w3.org/2000/svg" inkscape:groupmode="layer" xmlns:inkscape="http://www.inkscape.org/namespaces/inkscape" id="layer23" inkscape:label="foreground" style="display:inline">
<g transform="translate(-1.4412723e-7,-1.4648438e-6)" id="Foreground">
<g id="Ground">
<g id="g9454">
<path fill="#B2B2B2" inkscape:connector-curvature="0" d="m 5522.672,866.852 c 152.111,-19.624 304.875,-34.584 457.528,-50.777 268.316,-28.464 533.252,-52.653 803.756,-33.856 325.235,22.602 638.873,97.024 967.421,89.514 164.23,-3.755 356.209,-0.65 511.805,-53.122 75.185,-25.354 143.856,-66.468 223.111,-81.728 148.947,-28.68 304.066,33.961 454.012,33.961 93.943,0 268.186,203.97 567.695,249.423 299.509,45.453 544.879,98.98 544.879,98.98 l -1109.207,-12.37 -3293.049,45.005 H 4390.011 l -27.415,-257.785 c 0,0 370.622,28.783 630.932,28.783 260.31,0 529.144,-56.028 529.144,-56.028 z" id="path9456"/>
<path fill="#B2B2B2" inkscape:connector-curvature="0" d="m 6020.271,844.903 39.456,-56.116 c 0,0 53.857,-6.059 82.434,0 28.577,6.059 100.584,48.297 100.584,48.297 l -222.474,7.819" id="path9458"/>
<path fill="#B2B2B2" inkscape:connector-curvature="0" d="m 6837.217,749.889 -77.533,51.332 -82.988,-51.332 -54.601,34.786 c 0,0 -82.599,-83.188 -121.326,-32.009 -38.727,51.179 0,68.83 0,68.83 l 233.241,54.585 103.207,-126.192 z" id="path9460"/>
<path fill="#B2B2B2" inkscape:connector-curvature="0" d="m 7591.041,907.427 -51.897,-64.813 c 0,0 -39.466,-11.305 -84.373,16.968 -44.907,28.272 -152.917,9.438 -152.917,9.438 v -35.916 l -57.006,-17.604 -38.289,29.404 -85.237,7.181 c 0,0 -18.86,-68.482 -66.179,-53.859 -47.319,14.623 -110.319,38.859 -110.319,38.859 l 246.403,76.616 399.814,-6.274 z" id="path9462"/>
</g>
</g>
<path fill="#B2B2B2" inkscape:connector-curvature="0" d="m 2173.217,881.889 83.821,51.332 89.718,-51.332 59.029,34.786 c 0,0 89.297,-83.188 131.166,-32.009 41.868,51.18 0,68.83 0,68.83 l -252.158,54.585 -111.576,-126.192 z" id="path9464"/>
<path fill="#B2B2B2" inkscape:connector-curvature="0" d="m 3176.271,916.903 39.456,-56.116 c 0,0 53.856,-6.059 82.434,0 28.577,6.059 100.584,48.297 100.584,48.297 l -222.474,7.819" id="path9466"/>
<g id="Layer_16"/>
<g id="Layer_16_copy"/>
<g id="Layer_16_copy_3"/>
<g id="Layer_16_copy_2">
<g id="g9472">
<path fill="#B2B2B2" inkscape:connector-curvature="0" d="m 7664.02,844.903 c 0,0 76.423,23.204 84.613,60.604 -6.094,4.171 -6.094,4.171 -6.094,4.171 0,0 -14.852,-42.034 -78.519,-64.775 z" id="path9474"/>
<path fill="#B2B2B2" inkscape:connector-curvature="0" d="m 7685.859,844.582 c 0,0 57.182,31.413 60.492,65.955 -5.046,2.872 -5.046,2.872 -5.046,2.872 0,0 -8.083,-39.613 -55.446,-68.827 z" id="path9476"/>
<path fill="#B2B2B2" inkscape:connector-curvature="0" d="m 7672.524,800.16 c 0,0 71.308,54.99 69.973,104.57 -7.233,3.148 -7.233,3.148 -7.233,3.148 0,0 -4.211,-57.641 -62.74,-107.718 z" id="path9478"/>
<path fill="#B2B2B2" inkscape:connector-curvature="0" d="m 7701.418,805.427 c 0,0 59.912,59.413 51.729,103.54 -7.295,1.773 -7.295,1.773 -7.295,1.773 0,0 4.052,-52.131 -44.434,-105.313 z" id="path9480"/>
</g>
</g>
<g id="Layer_16_copy_4">
<g id="g9483">
<path fill="#B2B2B2" inkscape:connector-curvature="0" d="m 7621.02,859.903 c 0,0 76.423,23.204 84.613,60.604 -6.094,4.171 -6.094,4.171 -6.094,4.171 0,0 -14.852,-42.034 -78.519,-64.775 z" id="path9485"/>
<path fill="#B2B2B2" inkscape:connector-curvature="0" d="m 7642.859,859.582 c 0,0 57.182,31.413 60.492,65.955 -5.046,2.872 -5.046,2.872 -5.046,2.872 0,0 -8.083,-39.613 -55.446,-68.827 z" id="path9487"/>
<path fill="#B2B2B2" inkscape:connector-curvature="0" d="m 7629.524,815.16 c 0,0 71.308,54.99 69.973,104.57 -7.233,3.148 -7.233,3.148 -7.233,3.148 0,0 -4.211,-57.641 -62.74,-107.718 z" id="path9489"/>
<path fill="#B2B2B2" inkscape:connector-curvature="0" d="m 7658.418,820.427 c 0,0 59.912,59.413 51.729,103.54 -7.295,1.773 -7.295,1.773 -7.295,1.773 0,0 4.052,-52.131 -44.434,-105.313 z" id="path9491"/>
</g>
</g>
<g id="Layer_16_copy_6">
<g id="g9494">
<path fill="#B2B2B2" inkscape:connector-curvature="0" d="m 6987.772,774.108 c 0,0 -92.47,23.204 -102.38,60.604 7.373,4.171 7.373,4.171 7.373,4.171 0,0 17.972,-42.034 95.007,-64.775 z" id="path9496"/>
<path fill="#B2B2B2" inkscape:connector-curvature="0" d="m 6961.347,773.787 c 0,0 -69.188,31.413 -73.194,65.955 6.105,2.872 6.105,2.872 6.105,2.872 0,0 9.782,-39.613 67.089,-68.827 z" id="path9498"/>
<path fill="#B2B2B2" inkscape:connector-curvature="0" d="m 6977.482,729.365 c 0,0 -86.281,54.99 -84.665,104.57 8.752,3.148 8.752,3.148 8.752,3.148 0,0 5.095,-57.641 75.913,-107.718 z" id="path9500"/>
<path fill="#B2B2B2" inkscape:connector-curvature="0" d="m 6942.521,734.632 c 0,0 -72.492,59.413 -62.591,103.54 8.826,1.773 8.826,1.773 8.826,1.773 0,0 -4.902,-52.131 53.765,-105.313 z" id="path9502"/>
</g>
</g>
<g id="Layer_16_copy_5">
<g id="g9505">
<path fill="#B2B2B2" inkscape:connector-curvature="0" d="m 7039.801,789.108 c 0,0 -92.47,23.204 -102.38,60.604 7.373,4.171 7.373,4.171 7.373,4.171 0,0 17.972,-42.034 95.007,-64.775 z" id="path9507"/>
<path fill="#B2B2B2" inkscape:connector-curvature="0" d="m 7013.375,788.787 c 0,0 -69.188,31.413 -73.194,65.955 6.105,2.872 6.105,2.872 6.105,2.872 0,0 9.782,-39.613 67.089,-68.827 z" id="path9509"/>
<path fill="#B2B2B2" inkscape:connector-curvature="0" d="m 7029.511,744.365 c 0,0 -86.281,54.99 -84.665,104.57 8.752,3.148 8.752,3.148 8.752,3.148 0,0 5.095,-57.641 75.913,-107.718 z" id="path9511"/>
<path fill="#B2B2B2" inkscape:connector-curvature="0" d="m 6994.55,749.632 c 0,0 -72.492,59.413 -62.591,103.54 8.827,1.773 8.827,1.773 8.827,1.773 0,0 -4.903,-52.131 53.764,-105.313 z" id="path9513"/>
</g>
</g>
<g id="Layer_16_copy_8">
<g id="g9516">
<path fill="#B2B2B2" inkscape:connector-curvature="0" d="m 8619.09,717.729 c 0,0 -83.646,45.741 -83.818,84.431 8.186,2.18 8.186,2.18 8.186,2.18 0,0 6.806,-45.205 75.632,-86.611 z" id="path9518"/>
<path fill="#B2B2B2" inkscape:connector-curvature="0" d="m 8593.435,724.072 c 0,0 -59.048,47.823 -54.226,82.261 6.631,1.242 6.631,1.242 6.631,1.242 0,0 -0.509,-40.801 47.595,-83.503 z" id="path9520"/>
<path fill="#B2B2B2" inkscape:connector-curvature="0" d="m 8597.865,677.019 c 0,0 -69.653,74.944 -55.605,122.521 9.263,0.843 9.263,0.843 9.263,0.843 0,0 -9.584,-57.069 46.342,-123.364 z" id="path9522"/>
<path fill="#B2B2B2" inkscape:connector-curvature="0" d="m 8565.356,690.919 c 0,0 -55.194,75.753 -34.501,115.965 8.988,-0.507 8.988,-0.507 8.988,-0.507 0,0 -17.87,-49.216 25.513,-115.458 z" id="path9524"/>
</g>
</g>
<g id="Layer_16_copy_7">
<g id="g9527">
<path fill="#B2B2B2" inkscape:connector-curvature="0" d="m 8673.22,719.144 c 0,0 -83.646,45.741 -83.819,84.432 8.186,2.18 8.186,2.18 8.186,2.18 0,0 6.807,-45.206 75.633,-86.612 z" id="path9529"/>
<path fill="#B2B2B2" inkscape:connector-curvature="0" d="m 8647.564,725.487 c 0,0 -59.047,47.822 -54.227,82.261 6.633,1.241 6.633,1.241 6.633,1.241 0,0 -0.509,-40.799 47.594,-83.502 z" id="path9531"/>
<path fill="#B2B2B2" inkscape:connector-curvature="0" d="m 8664.994,663.434 c 0,0 -69.653,74.944 -55.604,122.521 9.263,0.843 9.263,0.843 9.263,0.843 0,0 -9.585,-57.069 46.341,-123.364 z" id="path9533"/>
<path fill="#B2B2B2" inkscape:connector-curvature="0" d="m 8619.486,692.334 c 0,0 -55.195,75.753 -34.501,115.965 8.988,-0.507 8.988,-0.507 8.988,-0.507 0,0 -17.871,-49.217 25.513,-115.458 z" id="path9535"/>
</g>
<path fill="#B2B2B2" inkscape:connector-curvature="0" d="m 8702.41,762.449 c -10.616,-35.373 -54.188,-14.137 -73.199,-49.248 -19.475,13.274 -58.363,6.874 -82.125,5.956 -29.588,-1.144 -75.976,12.266 -78.013,47.268 76.103,17.429 156.518,-0.327 233.337,-3.976" id="path9537"/>
</g>
<g id="Layer_16_copy_10">
<g id="g9540">
<path fill="#B2B2B2" inkscape:connector-curvature="0" d="m 8767.984,731.208 c 0,0 -94.108,15.249 -107.166,51.669 6.991,4.783 6.991,4.783 6.991,4.783 0,0 21.485,-40.35 100.175,-56.452 z" id="path9542"/>
<path fill="#B2B2B2" inkscape:connector-curvature="0" d="m 8741.681,728.64 c 0,0 -71.609,25.409 -78.541,59.484 5.838,3.382 5.838,3.382 5.838,3.382 0,0 13.119,-38.638 72.703,-62.866 z" id="path9544"/>
<path fill="#B2B2B2" inkscape:connector-curvature="0" d="m 8761.54,685.753 c 0,0 -90.647,47.445 -93.259,96.982 8.452,3.882 8.452,3.882 8.452,3.882 0,0 9.984,-56.998 84.807,-100.864 z" id="path9546"/>
<path fill="#B2B2B2" inkscape:connector-curvature="0" d="m 8726.258,688.022 c 0,0 -77.286,53.027 -71.177,97.837 8.643,2.518 8.643,2.518 8.643,2.518 0,0 -0.447,-52.358 62.534,-100.355 z" id="path9548"/>
</g>
</g>
<g id="Layer_16_copy_12">
<g id="g9551">
<path fill="#B2B2B2" inkscape:connector-curvature="0" d="m 6521.517,698.932 c 0,0 142.191,86.688 134.55,194.499 -15.284,10.079 -15.284,10.079 -15.284,10.079 0,0 -3.044,-122.738 -119.266,-204.578 z" id="path9553"/>
<path fill="#B2B2B2" inkscape:connector-curvature="0" d="m 6566.71,704.088 c 0,0 97.181,104.512 81.362,202.906 -12.274,6.706 -12.274,6.706 -12.274,6.706 0,0 9.31,-114.034 -69.088,-209.612 z" id="path9555"/>
<path fill="#B2B2B2" inkscape:connector-curvature="0" d="m 6568.355,575.031 c 0,0 110.826,174.964 75.584,314.506 -16.961,6.878 -16.961,6.878 -16.961,6.878 0,0 29.103,-163.83 -58.623,-321.384 z" id="path9557"/>
<path fill="#B2B2B2" inkscape:connector-curvature="0" d="m 6624.415,597.905 c 0,0 84.457,184.287 38.683,306.542 -16.185,2.979 -16.185,2.979 -16.185,2.979 0,0 42.507,-145.987 -22.498,-309.521 z" id="path9559"/>
</g>
</g>
<g id="Layer_16_copy_9">
<g id="g9562">
<path fill="#B2B2B2" inkscape:connector-curvature="0" d="m 8813.548,752.583 c 0,0 -94.109,15.248 -107.167,51.669 6.991,4.784 6.991,4.784 6.991,4.784 0,0 21.484,-40.352 100.176,-56.453 z" id="path9564"/>
<path fill="#B2B2B2" inkscape:connector-curvature="0" d="m 8787.245,750.014 c 0,0 -71.609,25.409 -78.543,59.484 5.841,3.382 5.841,3.382 5.841,3.382 0,0 13.116,-38.637 72.702,-62.866 z" id="path9566"/>
<path fill="#B2B2B2" inkscape:connector-curvature="0" d="m 8807.104,707.127 c 0,0 -90.649,47.445 -93.259,96.982 8.451,3.883 8.451,3.883 8.451,3.883 0,0 9.984,-56.999 84.808,-100.865 z" id="path9568"/>
<path fill="#B2B2B2" inkscape:connector-curvature="0" d="m 8771.821,709.398 c 0,0 -77.287,53.026 -71.178,97.836 8.644,2.518 8.644,2.518 8.644,2.518 0,0 -0.446,-52.359 62.534,-100.354 z" id="path9570"/>
</g>
</g>
<g id="Layer_16_copy_13">
<g id="g9573">
<path fill="#B2B2B2" inkscape:connector-curvature="0" d="m 6470.45,742.896 c 0,0 -94.109,15.248 -107.167,51.669 6.991,4.784 6.991,4.784 6.991,4.784 0,0 21.485,-40.352 100.176,-56.453 z" id="path9575"/>
<path fill="#B2B2B2" inkscape:connector-curvature="0" d="m 6444.147,740.327 c 0,0 -71.609,25.409 -78.543,59.484 5.841,3.382 5.841,3.382 5.841,3.382 0,0 13.117,-38.636 72.702,-62.866 z" id="path9577"/>
<path fill="#B2B2B2" inkscape:connector-curvature="0" d="m 6464.006,697.44 c 0,0 -90.649,47.445 -93.259,96.982 8.451,3.883 8.451,3.883 8.451,3.883 0,0 9.985,-56.998 84.808,-100.865 z" id="path9579"/>
<path fill="#B2B2B2" inkscape:connector-curvature="0" d="m 6428.724,699.712 c 0,0 -77.287,53.026 -71.178,97.836 8.644,2.518 8.644,2.518 8.644,2.518 0,0 -0.447,-52.36 62.534,-100.354 z" id="path9581"/>
</g>
</g>
<g id="Layer_16_copy_14">
<g id="g9584">
<path fill="#B2B2B2" inkscape:connector-curvature="0" d="m 5991.363,732.844 c 0,0 183.144,32.996 208.555,111.811 -13.606,10.353 -13.606,10.353 -13.606,10.353 0,0 -41.81,-87.322 -194.949,-122.164 z" id="path9586"/>
<path fill="#B2B2B2" inkscape:connector-curvature="0" d="m 6042.551,727.284 c 0,0 139.357,54.984 152.85,128.723 -11.367,7.318 -11.367,7.318 -11.367,7.318 0,0 -25.525,-83.608 -141.483,-136.041 z" id="path9588"/>
<path fill="#B2B2B2" inkscape:connector-curvature="0" d="m 6003.904,634.478 c 0,0 176.411,102.671 181.489,209.868 -16.447,8.402 -16.447,8.402 -16.447,8.402 0,0 -19.43,-123.345 -165.042,-218.27 z" id="path9590"/>
<path fill="#B2B2B2" inkscape:connector-curvature="0" d="m 6072.567,639.393 c 0,0 150.406,114.749 138.517,211.716 -16.821,5.448 -16.821,5.448 -16.821,5.448 0,0 0.868,-113.305 -121.696,-217.164 z" id="path9592"/>
</g>
</g>
<g id="Layer_16_copy_15">
<g id="g9595">
<path fill="#B2B2B2" inkscape:connector-curvature="0" d="m 5912.906,788.633 c 0,0 130.396,23.492 148.487,79.607 -9.687,7.37 -9.687,7.37 -9.687,7.37 0,0 -29.768,-62.171 -138.8,-86.977 z" id="path9597"/>
<path fill="#B2B2B2" inkscape:connector-curvature="0" d="m 5949.351,784.675 c 0,0 99.22,39.147 108.827,91.647 -8.093,5.211 -8.093,5.211 -8.093,5.211 0,0 -18.174,-59.527 -100.734,-96.858 z" id="path9599"/>
<path fill="#B2B2B2" inkscape:connector-curvature="0" d="m 5921.835,718.598 c 0,0 125.602,73.1 129.217,149.423 -11.71,5.982 -11.71,5.982 -11.71,5.982 0,0 -13.834,-87.819 -117.507,-155.405 z" id="path9601"/>
<path fill="#B2B2B2" inkscape:connector-curvature="0" d="m 5970.722,722.097 c 0,0 107.086,81.699 98.622,150.738 -11.977,3.879 -11.977,3.879 -11.977,3.879 0,0 0.618,-80.671 -86.645,-154.617 z" id="path9603"/>
</g>
</g>
<g id="Layer_16_copy_11">
<g id="g9606">
<path fill="#B2B2B2" inkscape:connector-curvature="0" d="m 7735.653,823.177 c 0,0 -176.387,28.579 -200.86,96.842 13.104,8.967 13.104,8.967 13.104,8.967 0,0 40.267,-75.632 187.756,-105.809 z" id="path9608"/>
<path fill="#B2B2B2" inkscape:connector-curvature="0" d="m 7686.354,818.361 c 0,0 -134.215,47.623 -147.211,111.489 10.947,6.339 10.947,6.339 10.947,6.339 0,0 24.585,-72.416 136.264,-117.828 z" id="path9610"/>
<path fill="#B2B2B2" inkscape:connector-curvature="0" d="m 7723.574,737.979 c 0,0 -169.901,88.926 -174.792,181.771 15.84,7.277 15.84,7.277 15.84,7.277 0,0 18.714,-106.83 158.952,-189.048 z" id="path9612"/>
<path fill="#B2B2B2" inkscape:connector-curvature="0" d="m 7657.446,742.237 c 0,0 -144.857,99.386 -133.406,183.371 16.2,4.719 16.2,4.719 16.2,4.719 0,0 -0.837,-98.136 117.206,-188.09 z" id="path9614"/>
</g>
</g>
<g id="Layer_16_copy_16">
<g id="g9617">
<path fill="#B2B2B2" inkscape:connector-curvature="0" d="m 4646.475,823.177 c 0,0 -176.387,28.579 -200.86,96.842 13.104,8.967 13.104,8.967 13.104,8.967 0,0 40.267,-75.632 187.756,-105.809 z" id="path9619"/>
<path fill="#B2B2B2" inkscape:connector-curvature="0" d="m 4597.176,818.361 c 0,0 -134.215,47.623 -147.211,111.489 10.947,6.339 10.947,6.339 10.947,6.339 0,0 24.585,-72.416 136.264,-117.828 z" id="path9621"/>
<path fill="#B2B2B2" inkscape:connector-curvature="0" d="m 4634.396,737.979 c 0,0 -169.901,88.926 -174.792,181.771 15.84,7.277 15.84,7.277 15.84,7.277 0,0 18.714,-106.83 158.952,-189.048 z" id="path9623"/>
<path fill="#B2B2B2" inkscape:connector-curvature="0" d="m 4568.268,742.237 c 0,0 -144.857,99.386 -133.406,183.371 16.2,4.719 16.2,4.719 16.2,4.719 0,0 -0.837,-98.136 117.206,-188.09 z" id="path9625"/>
</g>
</g>
<g id="Layer_16_copy_24">
<g id="g9628">
<path fill="#B2B2B2" inkscape:connector-curvature="0" d="m 9487.164,861.302 c 0,0 -196.146,87.442 -205.228,161.262 17.699,4.145 17.699,4.145 17.699,4.145 0,0 25.289,-86.266 187.529,-165.407 z" id="path9630"/>
<path fill="#B2B2B2" inkscape:connector-curvature="0" d="m 9428.734,873.458 c 0,0 -141.955,91.362 -138.99,157.059 14.463,2.356 14.463,2.356 14.463,2.356 0,0 8.039,-77.843 124.527,-159.415 z" id="path9632"/>
<path fill="#B2B2B2" inkscape:connector-curvature="0" d="m 9449.156,783.673 c 0,0 -171.621,143.133 -151.102,233.874 20.39,1.593 20.39,1.593 20.39,1.593 0,0 -8.46,-108.865 130.712,-235.467 z" id="path9634"/>
<path fill="#B2B2B2" inkscape:connector-curvature="0" d="m 9373.799,810.261 c 0,0 -139.678,144.646 -102.734,221.325 20.085,-0.985 20.085,-0.985 20.085,-0.985 0,0 -28.645,-93.868 82.649,-220.34 z" id="path9636"/>
</g>
</g>
<g id="Layer_16_copy_25">
<g id="g9639">
<path fill="#B2B2B2" inkscape:connector-curvature="0" d="m 10929.76,1015.585 c 0,0 168.94,51.638 183.91,107.772 -14.012,4.61 -14.012,4.61 -14.012,4.61 0,0 -29.462,-64.422 -169.898,-112.382 z" id="path9641"/>
<path fill="#B2B2B2" inkscape:connector-curvature="0" d="m 10978.664,1020.266 c 0,0 125.142,59 129.452,109.844 -11.555,2.974 -11.555,2.974 -11.555,2.974 0,0 -14.53,-59.318 -117.897,-112.818 z" id="path9643"/>
<path fill="#B2B2B2" inkscape:connector-curvature="0" d="m 10952.81,952.741 c 0,0 154.641,96.501 147.199,168.044 -16.467,2.86 -16.467,2.86 -16.467,2.86 0,0 -4.251,-84.536 -130.732,-170.904 z" id="path9645"/>
<path fill="#B2B2B2" inkscape:connector-curvature="0" d="m 11016.997,967.183 c 0,0 128.741,100.228 106.466,162.253 -16.484,0.851 -16.484,0.851 -16.484,0.851 0,0 13.748,-74.601 -89.982,-163.104 z" id="path9647"/>
</g>
</g>
<g id="Layer_16_copy_26">
<g id="g9650">
<path fill="#B2B2B2" inkscape:connector-curvature="0" d="m 9486.019,883.225 c 0,0 -137.577,94.261 -135.228,152.08 13.918,0.714 13.918,0.714 13.918,0.714 0,0 8.364,-69.607 121.31,-152.794 z" id="path9652"/>
<path fill="#B2B2B2" inkscape:connector-curvature="0" d="m 9443.298,900.661 c 0,0 -96.058,89.729 -85.603,139.651 11.244,-0.206 11.244,-0.206 11.244,-0.206 0,0 -3.641,-60.755 74.359,-139.445 z" id="path9654"/>
<path fill="#B2B2B2" inkscape:connector-curvature="0" d="m 9447.539,829.033 c 0,0 -112.048,133.518 -85.171,200.188 15.636,-1.614 15.636,-1.614 15.636,-1.614 0,0 -20.012,-82.231 69.535,-198.574 z" id="path9656"/>
<path fill="#B2B2B2" inkscape:connector-curvature="0" d="m 9393.808,859.879 c 0,0 -87.673,130.237 -50.122,183.849 15.085,-3.547 15.085,-3.547 15.085,-3.547 0,0 -33.419,-67.934 35.037,-180.302 z" id="path9658"/>
</g>
</g>
<g id="Layer_16_copy_17">
<g id="g9661">
<path fill="#B2B2B2" inkscape:connector-curvature="0" d="m 4796.55,842.242 c 0,0 -138.295,111.08 -134.679,162.015 14.207,-2.126 14.207,-2.126 14.207,-2.126 0,0 7.061,-63.538 120.472,-159.889 z" id="path9663"/>
<path fill="#B2B2B2" inkscape:connector-curvature="0" d="m 4753.356,866.215 c 0,0 -96.052,98.819 -84.336,141.123 11.46,-2.412 11.46,-2.412 11.46,-2.412 0,0 -4.997,-53.288 72.876,-138.711 z" id="path9665"/>
<path fill="#B2B2B2" inkscape:connector-curvature="0" d="m 4756.167,801.699 c 0,0 -111.434,140.916 -82.619,194.852 15.91,-4.537 15.91,-4.537 15.91,-4.537 0,0 -22.141,-69.129 66.709,-190.315 z" id="path9667"/>
<path fill="#B2B2B2" inkscape:connector-curvature="0" d="m 4702.031,839.777 c 0,0 -86.649,133.164 -47.226,173.377 15.306,-6.146 15.306,-6.146 15.306,-6.146 0,0 -35.51,-53.763 31.92,-167.231 z" id="path9669"/>
</g>
</g>
<g id="Layer_16_copy_18">
<g id="g9672">
<path fill="#B2B2B2" inkscape:connector-curvature="0" d="m 4984.815,794.719 c 0,0 -138.295,111.08 -134.679,162.015 14.207,-2.126 14.207,-2.126 14.207,-2.126 0,0 7.061,-63.539 120.472,-159.889 z" id="path9674"/>
<path fill="#B2B2B2" inkscape:connector-curvature="0" d="m 4941.621,818.691 c 0,0 -96.052,98.819 -84.336,141.123 11.46,-2.412 11.46,-2.412 11.46,-2.412 0,0 -4.997,-53.288 72.876,-138.711 z" id="path9676"/>
<path fill="#B2B2B2" inkscape:connector-curvature="0" d="m 4944.432,754.176 c 0,0 -111.434,140.916 -82.619,194.852 15.91,-4.537 15.91,-4.537 15.91,-4.537 0,0 -22.141,-69.13 66.709,-190.315 z" id="path9678"/>
<path fill="#B2B2B2" inkscape:connector-curvature="0" d="m 4890.295,792.254 c 0,0 -86.649,133.164 -47.226,173.377 15.306,-6.146 15.306,-6.146 15.306,-6.146 0,0 -35.509,-53.763 31.92,-167.231 z" id="path9680"/>
</g>
</g>
<g id="Layer_16_copy_19">
<g id="g9683">
<path fill="#B2B2B2" inkscape:connector-curvature="0" d="m 5020.446,838.325 c 0,0 -138.295,111.08 -134.679,162.015 14.207,-2.126 14.207,-2.126 14.207,-2.126 0,0 7.061,-63.538 120.472,-159.889 z" id="path9685"/>
<path fill="#B2B2B2" inkscape:connector-curvature="0" d="m 4977.251,862.298 c 0,0 -96.052,98.819 -84.337,141.123 11.461,-2.412 11.461,-2.412 11.461,-2.412 0,0 -4.996,-53.288 72.876,-138.711 z" id="path9687"/>
<path fill="#B2B2B2" inkscape:connector-curvature="0" d="m 4980.063,797.782 c 0,0 -111.434,140.916 -82.619,194.852 15.91,-4.537 15.91,-4.537 15.91,-4.537 0,0 -22.142,-69.129 66.709,-190.315 z" id="path9689"/>
<path fill="#B2B2B2" inkscape:connector-curvature="0" d="m 4925.926,835.86 c 0,0 -86.649,133.164 -47.226,173.377 15.306,-6.146 15.306,-6.146 15.306,-6.146 0,0 -35.509,-53.763 31.92,-167.231 z" id="path9691"/>
</g>
</g>
<g id="Layer_16_copy_20">
<g id="g9694">
<path fill="#B2B2B2" inkscape:connector-curvature="0" d="m 5044.989,893.171 c 0,0 111.682,73.309 108.761,106.923 -11.473,-1.403 -11.473,-1.403 -11.473,-1.403 0,0 -5.702,-41.933 -97.288,-105.52 z" id="path9696"/>
<path fill="#B2B2B2" inkscape:connector-curvature="0" d="m 5079.871,908.992 c 0,0 77.567,65.217 68.106,93.135 -9.255,-1.592 -9.255,-1.592 -9.255,-1.592 0,0 4.036,-35.168 -58.851,-91.543 z" id="path9698"/>
<path fill="#B2B2B2" inkscape:connector-curvature="0" d="m 5077.601,866.414 c 0,0 89.989,92.999 66.72,128.594 -12.848,-2.994 -12.848,-2.994 -12.848,-2.994 0,0 17.88,-45.622 -53.872,-125.6 z" id="path9700"/>
<path fill="#B2B2B2" inkscape:connector-curvature="0" d="m 5121.319,891.544 c 0,0 69.974,87.883 38.137,114.422 -12.361,-4.056 -12.361,-4.056 -12.361,-4.056 0,0 28.677,-35.482 -25.776,-110.366 z" id="path9702"/>
</g>
</g>
<g id="Layer_16_copy_21">
<g id="g9705">
<path fill="#B2B2B2" inkscape:connector-curvature="0" d="m 5084.181,838.514 c 0,0 111.682,73.309 108.761,106.923 -11.473,-1.403 -11.473,-1.403 -11.473,-1.403 0,0 -5.702,-41.933 -97.288,-105.52 z" id="path9707"/>
<path fill="#B2B2B2" inkscape:connector-curvature="0" d="m 5119.063,854.335 c 0,0 77.567,65.217 68.106,93.135 -9.255,-1.592 -9.255,-1.592 -9.255,-1.592 0,0 4.035,-35.168 -58.851,-91.543 z" id="path9709"/>
<path fill="#B2B2B2" inkscape:connector-curvature="0" d="m 5116.792,811.757 c 0,0 89.989,92.999 66.72,128.594 -12.848,-2.994 -12.848,-2.994 -12.848,-2.994 0,0 17.88,-45.623 -53.872,-125.6 z" id="path9711"/>
<path fill="#B2B2B2" inkscape:connector-curvature="0" d="m 5160.511,836.887 c 0,0 69.974,87.883 38.137,114.422 -12.361,-4.056 -12.361,-4.056 -12.361,-4.056 0,0 28.677,-35.482 -25.776,-110.366 z" id="path9713"/>
</g>
</g>
<g id="Layer_16_copy_28">
<g id="g9716">
<path fill="#B2B2B2" inkscape:connector-curvature="0" d="m 3460.989,849.171 c 0,0 111.682,73.309 108.761,106.923 -11.473,-1.403 -11.473,-1.403 -11.473,-1.403 0,0 -5.702,-41.933 -97.288,-105.52 z" id="path9718"/>
<path fill="#B2B2B2" inkscape:connector-curvature="0" d="m 3495.871,864.992 c 0,0 77.567,65.217 68.106,93.135 -9.255,-1.592 -9.255,-1.592 -9.255,-1.592 0,0 4.036,-35.168 -58.851,-91.543 z" id="path9720"/>
<path fill="#B2B2B2" inkscape:connector-curvature="0" d="m 3493.601,822.414 c 0,0 89.989,92.999 66.72,128.594 -12.848,-2.994 -12.848,-2.994 -12.848,-2.994 0,0 17.88,-45.622 -53.872,-125.6 z" id="path9722"/>
<path fill="#B2B2B2" inkscape:connector-curvature="0" d="m 3537.319,847.544 c 0,0 69.974,87.883 38.137,114.422 -12.361,-4.056 -12.361,-4.056 -12.361,-4.056 0,0 28.677,-35.482 -25.776,-110.366 z" id="path9724"/>
</g>
</g>
<g id="Layer_16_copy_27">
<g id="g9727">
<path fill="#B2B2B2" inkscape:connector-curvature="0" d="m 3500.181,794.514 c 0,0 111.682,73.309 108.761,106.923 -11.473,-1.403 -11.473,-1.403 -11.473,-1.403 0,0 -5.702,-41.933 -97.288,-105.52 z" id="path9729"/>
<path fill="#B2B2B2" inkscape:connector-curvature="0" d="m 3535.063,810.335 c 0,0 77.567,65.217 68.106,93.135 -9.255,-1.592 -9.255,-1.592 -9.255,-1.592 0,0 4.035,-35.168 -58.851,-91.543 z" id="path9731"/>
<path fill="#B2B2B2" inkscape:connector-curvature="0" d="m 3532.792,767.757 c 0,0 89.99,92.999 66.72,128.594 -12.848,-2.994 -12.848,-2.994 -12.848,-2.994 0,0 17.88,-45.623 -53.872,-125.6 z" id="path9733"/>
<path fill="#B2B2B2" inkscape:connector-curvature="0" d="m 3576.511,792.887 c 0,0 69.974,87.883 38.137,114.422 -12.361,-4.056 -12.361,-4.056 -12.361,-4.056 0,0 28.677,-35.482 -25.776,-110.366 z" id="path9735"/>
</g>
</g>
<g id="Layer_16_copy_30">
<g id="g9738">
<path fill="#B2B2B2" inkscape:connector-curvature="0" d="m 4156.989,837.171 c 0,0 111.682,73.309 108.761,106.923 -11.473,-1.403 -11.473,-1.403 -11.473,-1.403 0,0 -5.702,-41.933 -97.288,-105.52 z" id="path9740"/>
<path fill="#B2B2B2" inkscape:connector-curvature="0" d="m 4191.871,852.992 c 0,0 77.567,65.217 68.106,93.135 -9.255,-1.592 -9.255,-1.592 -9.255,-1.592 0,0 4.036,-35.168 -58.851,-91.543 z" id="path9742"/>
<path fill="#B2B2B2" inkscape:connector-curvature="0" d="m 4189.601,810.414 c 0,0 89.989,92.999 66.72,128.594 -12.848,-2.994 -12.848,-2.994 -12.848,-2.994 0,0 17.88,-45.622 -53.872,-125.6 z" id="path9744"/>
<path fill="#B2B2B2" inkscape:connector-curvature="0" d="m 4233.319,835.544 c 0,0 69.974,87.883 38.137,114.422 -12.361,-4.056 -12.361,-4.056 -12.361,-4.056 0,0 28.677,-35.482 -25.776,-110.366 z" id="path9746"/>
</g>
</g>
<g id="Layer_16_copy_29">
<g id="g9749">
<path fill="#B2B2B2" inkscape:connector-curvature="0" d="m 4196.181,782.514 c 0,0 111.682,73.309 108.761,106.923 -11.473,-1.403 -11.473,-1.403 -11.473,-1.403 0,0 -5.702,-41.933 -97.288,-105.52 z" id="path9751"/>
<path fill="#B2B2B2" inkscape:connector-curvature="0" d="m 4231.063,798.335 c 0,0 77.567,65.217 68.106,93.135 -9.255,-1.592 -9.255,-1.592 -9.255,-1.592 0,0 4.035,-35.168 -58.851,-91.543 z" id="path9753"/>
<path fill="#B2B2B2" inkscape:connector-curvature="0" d="m 4228.792,755.757 c 0,0 89.989,92.999 66.72,128.594 -12.848,-2.994 -12.848,-2.994 -12.848,-2.994 0,0 17.88,-45.623 -53.872,-125.6 z" id="path9755"/>
<path fill="#B2B2B2" inkscape:connector-curvature="0" d="m 4272.511,780.887 c 0,0 69.974,87.883 38.137,114.422 -12.361,-4.056 -12.361,-4.056 -12.361,-4.056 0,0 28.677,-35.482 -25.776,-110.366 z" id="path9757"/>
</g>
</g>
<g id="Layer_16_copy_23">
<g id="g9760">
<path fill="#B2B2B2" inkscape:connector-curvature="0" d="m 5532.034,823.192 c 0,0 111.682,73.309 108.761,106.923 -11.473,-1.403 -11.473,-1.403 -11.473,-1.403 0,0 -5.702,-41.933 -97.288,-105.52 z" id="path9762"/>
<path fill="#B2B2B2" inkscape:connector-curvature="0" d="m 5566.916,839.014 c 0,0 77.567,65.217 68.106,93.135 -9.255,-1.592 -9.255,-1.592 -9.255,-1.592 0,0 4.036,-35.168 -58.851,-91.543 z" id="path9764"/>
<path fill="#B2B2B2" inkscape:connector-curvature="0" d="m 5564.646,796.436 c 0,0 89.989,92.999 66.72,128.594 -12.848,-2.994 -12.848,-2.994 -12.848,-2.994 0,0 17.879,-45.623 -53.872,-125.6 z" id="path9766"/>
<path fill="#B2B2B2" inkscape:connector-curvature="0" d="m 5608.364,821.565 c 0,0 69.974,87.883 38.137,114.422 -12.361,-4.056 -12.361,-4.056 -12.361,-4.056 0,0 28.677,-35.482 -25.776,-110.366 z" id="path9768"/>
</g>
</g>
<g id="Layer_16_copy_22">
<g id="g9771">
<path fill="#B2B2B2" inkscape:connector-curvature="0" d="m 5571.226,768.535 c 0,0 111.682,73.309 108.761,106.923 -11.473,-1.403 -11.473,-1.403 -11.473,-1.403 0,0 -5.702,-41.933 -97.288,-105.52 z" id="path9773"/>
<path fill="#B2B2B2" inkscape:connector-curvature="0" d="m 5606.107,784.356 c 0,0 77.567,65.217 68.106,93.135 -9.255,-1.592 -9.255,-1.592 -9.255,-1.592 0,0 4.036,-35.168 -58.851,-91.543 z" id="path9775"/>
<path fill="#B2B2B2" inkscape:connector-curvature="0" d="m 5603.837,741.778 c 0,0 89.989,92.999 66.72,128.594 -12.848,-2.994 -12.848,-2.994 -12.848,-2.994 0,0 17.88,-45.622 -53.872,-125.6 z" id="path9777"/>
<path fill="#B2B2B2" inkscape:connector-curvature="0" d="m 5647.556,766.908 c 0,0 69.974,87.883 38.137,114.422 -12.361,-4.056 -12.361,-4.056 -12.361,-4.056 0,0 28.677,-35.482 -25.776,-110.366 z" id="path9779"/>
</g>
</g>
<g style="display:none" id="Reference" display="none"/>
<g id="Tree_x5F_01">
<g id="Layer_7"/>
<g id="Layer_8"/>
<path fill="#B2B2B2" inkscape:connector-curvature="0" id="Body_5_" d="m 6905.107,220.552 c -2.261,60.654 -5.476,110.253 -6.842,123.128 -5.911,55.757 -37.942,100.609 -44.601,156.358 -11.246,94.171 -23.914,186.733 -45.398,279.021 -6.488,27.87 0.01,66.76 -0.01,95.789 9.227,4.813 115.447,53.119 114.774,59.863 l 30.604,-307.3 c 14.262,-71.912 16.86,-170.308 50.125,-234.984 5.739,-11.158 18.299,-16.268 23.461,-27.459 12.359,-26.794 10.124,-71.015 14.393,-100.737 -8.824,0.179 -17.835,-8.087 -26.66,-7.963 8.481,-0.118 13.945,-277.014 11.408,-303.317 -47.022,-7.838 -95.095,-16.004 -141.584,-23.636 25.569,4.197 24.858,169.855 20.33,291.237 z"/>
<polygon fill="#B2B2B2" id="Limb_x5F_R_17_" points="7071.603,452.486 7009.412,418.048 6963.806,403.965 6952.873,424.193 7016.249,434.427 7056.84,450.709 7103.334,501.726 "/>
<polygon fill="#B2B2B2" id="Limb_x5F_UpR_5_" points="7075.378,111.128 7032.989,109.75 7004.943,114.673 7004.637,128.387 7041.073,116.589 7067.057,114.198 7105.618,128.647 "/>
<polygon fill="#B2B2B2" id="Limb_x5F_L_5_" points="6817.886,501.432 6868.936,500.267 6900.172,489.916 6894.561,467.372 6856.334,489.69 6826.453,495.717 6774.261,475.107 "/>
<polyline fill="#B2B2B2" style="fill:none;stroke:#B2B2B2;stroke-width:7;stroke-miterlimit:10" stroke-miterlimit="10" points="6928.152,146.134 7101.282,46.182     7182.132,65.744   " id="polyline9789"/>
<path fill="#B2B2B2" style="fill:none;stroke:#B2B2B2;stroke-width:4;stroke-miterlimit:10" inkscape:connector-curvature="0" stroke-miterlimit="10" d="m 7149.091,21.013 60.191,57.808 c 0,0 32.473,38.447 13.945,40.016" id="path9791"/>
<path fill="#B2B2B2" style="fill:none;stroke:#B2B2B2;stroke-width:4;stroke-miterlimit:10" inkscape:connector-curvature="0" stroke-miterlimit="10" d="m 7090.551,54.81 c 0,0 46.551,-38.048 25.139,-52.563" id="path9793"/>
<polyline fill="#B2B2B2" style="fill:none;stroke:#B2B2B2;stroke-width:2;stroke-miterlimit:10" stroke-miterlimit="10" points="7191.226,31.208 7217.213,4.149     7218.55,-21.191   " id="polyline9795"/>
<polyline fill="#B2B2B2" style="fill:none;stroke:#B2B2B2;stroke-width:2;stroke-miterlimit:10" stroke-miterlimit="10" points="7200.924,70.791 7200.999,97.486     7212.193,133.124   " id="polyline9797"/>
<polyline fill="#B2B2B2" style="fill:none;stroke:#B2B2B2;stroke-width:2;stroke-miterlimit:10" stroke-miterlimit="10" points="7135.791,34.862 7143.458,1.084     7178.11,-9.203   " id="polyline9799"/>
<line style="fill:none;stroke:#B2B2B2;stroke-width:2;stroke-miterlimit:10" stroke-miterlimit="10" x1="7153.835" y1="-4.7010002" x2="7147.1792" y2="-38.907001" id="line9801"/>
<polyline fill="#B2B2B2" style="fill:none;stroke:#B2B2B2;stroke-width:7;stroke-miterlimit:10" stroke-miterlimit="10" points="6959.401,53.614 6824.929,82.953     6795.588,120.851   " id="polyline9803"/>
<path fill="#B2B2B2" style="fill:none;stroke:#B2B2B2;stroke-width:4;stroke-miterlimit:10" inkscape:connector-curvature="0" stroke-miterlimit="10" d="m 6789.024,91.943 v 44.01 c 0,0 3.667,26.396 13.448,19.921" id="path9805"/>
<path fill="#B2B2B2" style="fill:none;stroke:#B2B2B2;stroke-width:4;stroke-miterlimit:10" inkscape:connector-curvature="0" stroke-miterlimit="10" d="m 6834.492,82.023 c 0,0 -41.8,3.808 -38.744,-9.639" id="path9807"/>
<polyline fill="#B2B2B2" style="fill:none;stroke:#B2B2B2;stroke-width:2;stroke-miterlimit:10" stroke-miterlimit="10" points="6773.733,111.694 6747.459,111.694     6734.011,102.946   " id="polyline9809"/>
<polyline fill="#B2B2B2" style="fill:none;stroke:#B2B2B2;stroke-width:2;stroke-miterlimit:10" stroke-miterlimit="10" points="6789.024,129.841 6802.472,139.621     6815.04,156.897   " id="polyline9811"/>
<polyline fill="#B2B2B2" style="fill:none;stroke:#B2B2B2;stroke-width:2;stroke-miterlimit:10" stroke-miterlimit="10" points="6802.472,91.943 6781.688,82.521     6759.684,91.943   " id="polyline9813"/>
<line style="fill:none;stroke:#B2B2B2;stroke-width:2;stroke-miterlimit:10" stroke-miterlimit="10" x1="6773.7329" y1="84.355003" x2="6759.6841" y2="69.328003" id="line9815"/>
</g>
<g id="Tree_x5F_01_copy">
<g id="Layer_7_copy_2"/>
<g id="Layer_8_copy_2"/>
<path fill="#B2B2B2" inkscape:connector-curvature="0" id="Body_2_" d="m 4938.955,234.401 c -17.022,84.261 -29.38,153.354 -31.978,171.363 -11.263,77.994 10.896,144.552 0.491,222.636 -17.575,131.906 -33.004,261.785 -38.253,392.514 -1.584,39.479 -21.591,92.395 -30.959,132.57 -12.116,5.371 -149.305,57.359 -150.714,66.787 l 64.329,-429.58 c 6.928,-101.52 35.767,-238.061 18.607,-332.226 -2.961,-16.245 -15.684,-25.075 -17.974,-41.286 -5.482,-38.812 2.724,-46.654 7.448,-88.387 10.042,1.482 31.677,-61.741 41.736,-60.335 -9.668,-1.351 73.604,-385.333 85.012,-421.379 56.352,-4.267 114.012,-8.841 169.687,-12.897 -30.621,2.229 -83.368,231.596 -117.432,400.22 z"/>
<polygon fill="#B2B2B2" id="Limb_x5F_R_5_" points="4641.289,503.236 4724.084,462.218 4781.03,448.268 4786.72,479.002 4710.734,484.91 4658.785,502.738 4588.364,569.889 "/>
<polygon fill="#B2B2B2" id="Limb_x5F_UpR_2_" points="4752.108,9.851 4801.086,13.794 4831.525,24.826 4827.25,44.669 4789.528,22.537 4760.596,15.448 4711.588,30.913 "/>
<polygon fill="#B2B2B2" id="Limb_x5F_L_2_" points="4915.162,609.414 4857.127,600.588 4824.869,581.268 4838.896,549.508 4875.119,587.078 4907.284,599.963 4973.971,577.51 "/>
<polyline fill="#B2B2B2" style="fill:none;stroke:#B2B2B2;stroke-width:7;stroke-miterlimit:10" stroke-miterlimit="10" points="4908.801,80.998 4744.366,-87.545     4645.233,-70.616   " id="polyline9824"/>
<path fill="#B2B2B2" style="fill:none;stroke:#B2B2B2;stroke-width:4;stroke-miterlimit:10" inkscape:connector-curvature="0" stroke-miterlimit="10" d="m 4698.137,-130.576 -88.388,75.039 c 0,0 -50.134,50.966 -29.458,55.824" id="path9826"/>
<path fill="#B2B2B2" style="fill:none;stroke:#B2B2B2;stroke-width:4;stroke-miterlimit:10" inkscape:connector-curvature="0" stroke-miterlimit="10" d="m 4753.737,-73.586 c 0,0 -40.445,-61.45 -11.043,-79.41" id="path9828"/>
<polyline fill="#B2B2B2" style="fill:none;stroke:#B2B2B2;stroke-width:2;stroke-miterlimit:10" stroke-miterlimit="10" points="4646.475,-121.753 4625.859,-164.457     4632.876,-201.23   " id="polyline9830"/>
<polyline fill="#B2B2B2" style="fill:none;stroke:#B2B2B2;stroke-width:2;stroke-miterlimit:10" stroke-miterlimit="10" points="4622.024,-65.958 4612.935,-27.426     4588.102,22.461   " id="polyline9832"/>
<polyline fill="#B2B2B2" style="fill:none;stroke:#B2B2B2;stroke-width:2;stroke-miterlimit:10" stroke-miterlimit="10" points="4708.689,-108.718 4711.306,-158.561     4675.117,-178.262   " id="polyline9834"/>
<line style="fill:none;stroke:#B2B2B2;stroke-width:2;stroke-miterlimit:10" stroke-miterlimit="10" x1="4701.3809" y1="-168.366" x2="4720.5371" y2="-216.821" id="line9836"/>
<polyline fill="#B2B2B2" style="fill:none;stroke:#B2B2B2;stroke-width:7;stroke-miterlimit:10" stroke-miterlimit="10" points="4904.244,-56.958 5048.253,4.222     5069.051,63.046   " id="polyline9838"/>
<path fill="#B2B2B2" style="fill:none;stroke:#B2B2B2;stroke-width:4;stroke-miterlimit:10" inkscape:connector-curvature="0" stroke-miterlimit="10" d="M 5086.314,22.227 5071.47,85.77 c 0,0 -13.101,37.597 -22.111,26.88" id="path9840"/>
<path fill="#B2B2B2" style="fill:none;stroke:#B2B2B2;stroke-width:4;stroke-miterlimit:10" inkscape:connector-curvature="0" stroke-miterlimit="10" d="m 5037.622,1.541 c 0,0 46.557,11.348 47.594,-8.495" id="path9842"/>
<polyline fill="#B2B2B2" style="fill:none;stroke:#B2B2B2;stroke-width:2;stroke-miterlimit:10" stroke-miterlimit="10" points="5097.154,52.882 5127.224,56.56     5145.566,45.812   " id="polyline9844"/>
<polyline fill="#B2B2B2" style="fill:none;stroke:#B2B2B2;stroke-width:2;stroke-miterlimit:10" stroke-miterlimit="10" points="5073.532,76.945 5054.841,89.182     5034.63,112.367   " id="polyline9846"/>
<polyline fill="#B2B2B2" style="fill:none;stroke:#B2B2B2;stroke-width:2;stroke-miterlimit:10" stroke-miterlimit="10" points="5070.923,20.345 5097.888,9.65     5119.895,26.333   " id="polyline9848"/>
<line style="fill:none;stroke:#B2B2B2;stroke-width:2;stroke-miterlimit:10" stroke-miterlimit="10" x1="5106.375" y1="13.411" x2="5127.521" y2="-6.3189998" id="line9850"/>
</g>
<g id="Tree_x5F_01_copy_2">
<g id="Layer_7_copy_3"/>
<g id="Layer_8_copy_3"/>
<path fill="#B2B2B2" inkscape:connector-curvature="0" id="Body_1_" d="m 2187.347,74.851 c 3.376,91.407 4.686,166.132 4.458,185.521 -0.974,83.971 -30.787,151.122 -32.556,235.066 -2.99,141.806 -7.646,281.167 -21.71,419.978 -4.249,41.92 6.372,100.646 9.124,144.406 10.278,7.393 127.931,81.766 127.856,91.923 l 3.269,-462.825 c 8.321,-108.203 1.703,-256.501 30.938,-353.519 5.043,-16.738 17.924,-24.258 22.35,-41.054 10.599,-40.213 4.244,-49.66 5.953,-94.407 -9.375,0.14 -19.993,-69.702 -29.372,-69.645 9.015,-0.054 -11.574,-417.411 -16.782,-457.1 -50.792,-12.503 -102.732,-25.515 -152.936,-37.699 27.612,6.702 42.652,256.43 49.408,439.355 z"/>
<polygon fill="#B2B2B2" id="Limb_x5F_R_4_" points="2420.121,401.017 2350.507,345.947 2300.57,323.134 2290.947,354.786 2359.413,371.808 2404.232,398.008 2458.789,478.92 "/>
<polygon fill="#B2B2B2" id="Limb_x5F_UpR_1_" points="2390.181,-135.793 2344.932,-138.579 2315.574,-131.246 2316.611,-109.682 2354.215,-127.705 2381.63,-131.086 2424.107,-107.799 "/>
<polygon fill="#B2B2B2" id="Limb_x5F_L_1_" points="2154.969,474.294 2209.185,473.208 2241.398,457.38 2233.183,421.847 2194.72,456.386 2163.52,465.43 2105.923,432.254 "/>
<polyline fill="#B2B2B2" style="fill:none;stroke:#B2B2B2;stroke-width:7;stroke-miterlimit:10" stroke-miterlimit="10" points="2236.978,-82.887 2411.289,-237.559     2499.281,-205.613   " id="polyline9859"/>
<path fill="#B2B2B2" style="fill:none;stroke:#B2B2B2;stroke-width:4;stroke-miterlimit:10" inkscape:connector-curvature="0" stroke-miterlimit="10" d="m 2459.667,-276.445 69.81,91.794 c 0,0 38.384,60.941 18.822,63.138" id="path9861"/>
<path fill="#B2B2B2" style="fill:none;stroke:#B2B2B2;stroke-width:4;stroke-miterlimit:10" inkscape:connector-curvature="0" stroke-miterlimit="10" d="m 2400.727,-224.146 c 0,0 45.757,-59.16 21.526,-82.301" id="path9863"/>
<polyline fill="#B2B2B2" style="fill:none;stroke:#B2B2B2;stroke-width:2;stroke-miterlimit:10" stroke-miterlimit="10" points="2505.522,-259.797 2530.488,-301.972     2529.39,-341.807   " id="polyline9865"/>
<polyline fill="#B2B2B2" style="fill:none;stroke:#B2B2B2;stroke-width:2;stroke-miterlimit:10" stroke-miterlimit="10" points="2519.781,-197.4 2522.516,-155.415     2537.976,-99.203   " id="polyline9867"/>
<polyline fill="#B2B2B2" style="fill:none;stroke:#B2B2B2;stroke-width:2;stroke-miterlimit:10" stroke-miterlimit="10" points="2446.888,-254.858 2451.688,-307.87     2487.544,-323.542   " id="polyline9869"/>
<line style="fill:none;stroke:#B2B2B2;stroke-width:2;stroke-miterlimit:10" stroke-miterlimit="10" x1="2462.157" y1="-316.81799" x2="2451.6709" y2="-370.711" id="line9871"/>
<polyline fill="#B2B2B2" style="fill:none;stroke:#B2B2B2;stroke-width:7;stroke-miterlimit:10" stroke-miterlimit="10" points="2261.03,-227.94 2120.835,-183.76     2093.38,-124.585   " id="polyline9873"/>
<path fill="#B2B2B2" style="fill:none;stroke:#B2B2B2;stroke-width:4;stroke-miterlimit:10" inkscape:connector-curvature="0" stroke-miterlimit="10" d="m 2083.518,-170.146 4.378,69.217 c 0,0 6.53,41.566 16.295,31.527" id="path9875"/>
<path fill="#B2B2B2" style="fill:none;stroke:#B2B2B2;stroke-width:4;stroke-miterlimit:10" inkscape:connector-curvature="0" stroke-miterlimit="10" d="m 2130.92,-185.083 c 0,0 -44.108,5.378 -42.192,-15.725" id="path9877"/>
<polyline fill="#B2B2B2" style="fill:none;stroke:#B2B2B2;stroke-width:2;stroke-miterlimit:10" stroke-miterlimit="10" points="2069.208,-139.307 2041.248,-139.689     2026.064,-153.644   " id="polyline9879"/>
<polyline fill="#B2B2B2" style="fill:none;stroke:#B2B2B2;stroke-width:2;stroke-miterlimit:10" stroke-miterlimit="10" points="2087.288,-110.541 2102.574,-94.965     2117.667,-67.611   " id="polyline9881"/>
<polyline fill="#B2B2B2" style="fill:none;stroke:#B2B2B2;stroke-width:2;stroke-miterlimit:10" stroke-miterlimit="10" points="2097.83,-169.948 2074.774,-185.071     2052.292,-170.573   " id="polyline9883"/>
<line style="fill:none;stroke:#B2B2B2;stroke-width:2;stroke-miterlimit:10" stroke-miterlimit="10" x1="2066.489" y1="-182.302" x2="2050.0439" y2="-206.14101" id="line9885"/>
</g>
<g id="Layer_30"/>
<g id="Tree_x5F_02">
<g id="Layer_7_copy"/>
<g id="Layer_8_copy"/>
<path fill="#B2B2B2" inkscape:connector-curvature="0" id="Body_3_" d="m 7643.885,194.785 c 19.099,75.034 16.477,140.171 16.055,156.688 -2.143,83.845 65.616,119.396 65.616,188.527 0,121.05 0,263.846 -25.361,365.856 -8.826,35.503 26.921,93.753 37.424,129.26 13.517,2.398 243.716,0.251 245.301,8.754 L 7871.277,755.842 c -7.868,-93.34 -59.072,-384.64 -59.072,-384.64 l -19.939,-121.589 c 0,0 -97.739,-393.223 -110.509,-424.431 -62.834,8.193 -127.13,16.384 -189.208,24.628 34.141,-4.535 113.117,194.815 151.336,344.975 z"/>
<polygon fill="#B2B2B2" id="Limb_x5F_R_15_" points="7839.309,179.78 7752.276,216.858 7700.179,253.188 7712.455,281.215 7775.06,223.086 7825.361,193.818 7916.943,186.779 "/>
<polygon fill="#B2B2B2" id="Limb_x5F_UpR_3_" points="7788.72,-43.451 7734.117,-29.181 7700.194,-12.296 7704.988,5.318 7747.017,-23.513 7779.262,-36.387 7833.926,-32.533 "/>
<polygon fill="#B2B2B2" id="Limb_x5F_L_3_" points="7739.066,619.073 7803.758,598.284 7839.697,573.266 7824.014,546.627 7783.68,589.555 7747.835,608.543 7673.453,601.98 "/>
<g id="twigs_x5F_R_1_">
<polyline fill="#B2B2B2" style="fill:none;stroke:#B2B2B2;stroke-width:7;stroke-miterlimit:10" stroke-miterlimit="10" points="7773.81,231.111 7870.018,122.126      7924.784,115.806    " id="polyline9896"/>
<path fill="#B2B2B2" style="fill:none;stroke:#B2B2B2;stroke-width:4;stroke-miterlimit:10" inkscape:connector-curvature="0" stroke-miterlimit="10" d="m 7896.945,93.667 47.197,24.398 c 0,0 26.541,18.047 14.891,23.568" id="path9898"/>
<path fill="#B2B2B2" style="fill:none;stroke:#B2B2B2;stroke-width:4;stroke-miterlimit:10" inkscape:connector-curvature="0" stroke-miterlimit="10" d="m 7864.415,130.518 c 0,0 24.208,-36.823 8.318,-41.431" id="path9900"/>
<polyline fill="#B2B2B2" style="fill:none;stroke:#B2B2B2;stroke-width:2;stroke-miterlimit:10" stroke-miterlimit="10" points="7925.486,90.373 7938.137,65.902      7935.23,48.527    " id="polyline9902"/>
<polyline fill="#B2B2B2" style="fill:none;stroke:#B2B2B2;stroke-width:2;stroke-miterlimit:10" stroke-miterlimit="10" points="7937.588,114.675 7941.602,132.622      7954.076,153.907    " id="polyline9904"/>
<polyline fill="#B2B2B2" style="fill:none;stroke:#B2B2B2;stroke-width:2;stroke-miterlimit:10" stroke-miterlimit="10" points="7890.47,106.192 7890.372,81.613      7911.071,66.339    " id="polyline9906"/>
<line style="fill:none;stroke:#B2B2B2;stroke-width:2;stroke-miterlimit:10" stroke-miterlimit="10" x1="7896.1689" y1="75.218002" x2="7886.8159" y2="53.803001" id="line9908"/>
</g>
<g id="twigs_x5F_L_1_">
<polyline fill="#B2B2B2" style="fill:none;stroke:#B2B2B2;stroke-width:7;stroke-miterlimit:10" stroke-miterlimit="10" points="7725.556,328.792 7607.093,393.959      7590.037,437.843    " id="polyline9911"/>
<path fill="#B2B2B2" style="fill:none;stroke:#B2B2B2;stroke-width:4;stroke-miterlimit:10" inkscape:connector-curvature="0" stroke-miterlimit="10" d="m 7575.785,412.449 12.284,41.45 c 0,0 10.821,23.837 18.228,15.009" id="path9913"/>
<path fill="#B2B2B2" style="fill:none;stroke:#B2B2B2;stroke-width:4;stroke-miterlimit:10" inkscape:connector-curvature="0" stroke-miterlimit="10" d="m 7615.841,390.414 c 0,0 -38.308,15.254 -39.183,1.737" id="path9915"/>
<polyline fill="#B2B2B2" style="fill:none;stroke:#B2B2B2;stroke-width:2;stroke-miterlimit:10" stroke-miterlimit="10" points="7566.897,435.318 7542.15,442.652      7527.043,438.167    " id="polyline9917"/>
<polyline fill="#B2B2B2" style="fill:none;stroke:#B2B2B2;stroke-width:2;stroke-miterlimit:10" stroke-miterlimit="10" points="7586.364,448.143 7601.76,453.6      7618.42,466.363    " id="polyline9919"/>
<polyline fill="#B2B2B2" style="fill:none;stroke:#B2B2B2;stroke-width:2;stroke-miterlimit:10" stroke-miterlimit="10" points="7588.452,408.695 7566.247,405.622      7548.152,420.639    " id="polyline9921"/>
<line style="fill:none;stroke:#B2B2B2;stroke-width:2;stroke-miterlimit:10" stroke-miterlimit="10" x1="7559.2661" y1="409.57001" x2="7541.8398" y2="399.33801" id="line9923"/>
</g>
<g id="Layer_10"/>
</g>
<g id="SM_x5F_tree_x5F_01">
<path fill="#B2B2B2" inkscape:connector-curvature="0" d="m 6724.84,341.325 -15.749,145.361 c 0,0 16.045,86.353 -10.713,172.018 -26.757,85.663 -21.204,146.974 -21.204,146.974 l 21.431,2.266 -6.595,-83.693 16.185,-70.283 14.819,-111.34 -3.253,-55.275 17.739,-177.318 -12.66,31.29 z" id="path9927"/>
</g>
<g id="SM_x5F_tree_x5F_01_copy_4">
<path fill="#B2B2B2" inkscape:connector-curvature="0" d="m 5689.574,279.615 -9.716,190.763 c 0,0 39.939,110.703 2.762,224.929 -37.177,114.225 -19.326,193.426 -19.326,193.426 l 38.858,0.735 -22.592,-108.218 20.12,-93.12 12.403,-146.401 -12.938,-71.586 9.203,-232.551 -18.774,42.023 z" id="path9930"/>
</g>
<g id="SM_x5F_tree_x5F_01_copy_7">
<path fill="#B2B2B2" inkscape:connector-curvature="0" d="m 5627.313,135.878 27.378,234.906 c 0,0 -6.764,139.071 25.215,277.835 31.979,138.762 32.468,237.611 32.468,237.611 l -19.225,3.255 -1.564,-134.956 -21.007,-113.738 -23.469,-179.98 -2.032,-89.153 -32.063,-286.523 14.299,50.743 z" id="path9933"/>
</g>
<g id="SM_x5F_tree_x5F_01_copy_8">
<path fill="#B2B2B2" inkscape:connector-curvature="0" d="m 5321.76,-64.62 -14.176,329.665 c 0,0 -144.919,171.065 -59.355,382.391 85.562,211.321 14.04,338.47 14.04,338.47 l -116.702,-16.003 92.326,-174.534 -39.199,-167.749 -3.956,-255.198 55.057,-116.345 25.199,-400.706 46.766,80.009 z" id="path9936"/>
</g>
<g id="SM_x5F_tree_x5F_01_copy_9">
<path fill="#B2B2B2" inkscape:connector-curvature="0" d="m 4525.597,-4.602 39.613,325.661 c 0,0 56.717,184.914 57.229,382.714 0.512,197.797 33.155,331.049 33.155,331.049 l 28.936,-2.219 -43.27,-182.234 -7.957,-160.338 -26.741,-250.369 -27.138,-120.728 -50.244,-396.762 -3.583,73.226 z" id="path9939"/>
</g>
<g id="SM_x5F_tree_x5F_01_copy">
<path fill="#B2B2B2" inkscape:connector-curvature="0" d="m 6742.62,-58.165 -11.441,307 c 0,0 36.611,179.052 0,362.26 -36.61,183.203 -20.593,311.094 -20.593,311.094 l 36.865,1.953 -20.176,-174.711 20.176,-149.555 13.475,-235.509 -11.44,-115.532 11.44,-374.3 -18.306,67.3 z" id="path9942"/>
</g>
<g id="SM_x5F_tree_x5F_01_copy_3">
<path fill="#B2B2B2" inkscape:connector-curvature="0" d="m 7876.173,320.073 7.507,201.523 c 0,0 39.125,114.648 19.698,236.898 -19.428,122.246 0.385,204.813 0.385,204.813 l 29.698,-1.184 -25.695,-112.904 8.063,-99.148 -1.986,-154.908 -15.468,-74.788 -11.166,-245.534 -11.036,45.232 z" id="path9945"/>
</g>
<g id="SM_x5F_tree_x5F_01_copy_2">
<path fill="#B2B2B2" inkscape:connector-curvature="0" d="m 7945.832,-43.149 33.085,305.426 c 0,0 62.126,171.873 52.4,358.45 -9.725,186.571 24.622,310.801 24.622,310.801 l 36.76,-3.4 -45.235,-169.955 -1.669,-150.9 -20.733,-234.981 -28.03,-112.662 -42.822,-372.018 -8.378,69.239 z" id="path9948"/>
</g>
<g id="SM_x5F_tree_x5F_01_copy_5">
<path fill="#B2B2B2" inkscape:connector-curvature="0" d="m 5842.78,-67.348 39.329,305.058 c 0,0 -48.485,182.687 24.128,361.454 72.61,178.764 54.701,308.135 54.701,308.135 l -60.699,6.01 21.655,-176.545 -43.252,-147.002 -37.92,-233.5 11.18,-116.535 -43.807,-372.208 34.685,65.133 z" id="path9951"/>
<polygon fill="#B2B2B2" id="Limb_x5F_R_14_" points="5963.481,328.433 5901.29,293.995 5855.684,279.912 5844.751,300.14 5908.127,310.374 5948.718,326.656 5995.212,377.672 "/>
<polygon fill="#B2B2B2" id="Limb_x5F_R_13_" points="5885.944,97.775 5861.851,107.277 5847.324,116.834 5850.477,124.596 5868.039,109.151 5882.023,101.514 5907.139,100.265 "/>
<polygon fill="#B2B2B2" id="Limb_x5F_R_12_" points="5857.595,498.238 5889.663,561.059 5906.271,606.608 5895.655,616.436 5878.351,553.568 5861.25,512.854 5821.652,464.719 "/>
</g>
<g id="SM_x5F_tree_x5F_01_copy_14">
<path fill="#B2B2B2" inkscape:connector-curvature="0" d="m 4073.574,282.615 -9.716,190.763 c 0,0 39.939,110.703 2.762,224.929 -37.177,114.225 -19.326,193.426 -19.326,193.426 l 38.858,0.735 -22.592,-108.218 20.12,-93.12 12.403,-146.401 -12.938,-71.586 9.203,-232.551 -18.774,42.023 z" id="path9957"/>
</g>
<g id="SM_x5F_tree_x5F_01_copy_13">
<path fill="#B2B2B2" inkscape:connector-curvature="0" d="m 4011.313,138.878 27.378,234.906 c 0,0 -6.764,139.071 25.215,277.835 31.979,138.762 32.468,237.611 32.468,237.611 l -19.225,3.255 -1.564,-134.956 -21.007,-113.738 -23.469,-179.98 -2.032,-89.153 -32.063,-286.523 14.299,50.743 z" id="path9960"/>
</g>
<g id="SM_x5F_tree_x5F_01_copy_12">
<path fill="#B2B2B2" inkscape:connector-curvature="0" d="m 3705.76,-61.62 -14.177,329.665 c 0,0 -144.919,171.065 -59.355,382.391 85.562,211.321 14.04,338.47 14.04,338.47 l -116.702,-16.003 92.326,-174.534 -39.199,-167.749 -3.956,-255.198 55.057,-116.345 25.199,-400.706 46.767,80.009 z" id="path9963"/>
</g>
<g id="SM_x5F_tree_x5F_01_copy_11">
<path fill="#B2B2B2" inkscape:connector-curvature="0" d="m 2909.597,-1.602 39.613,325.661 c 0,0 56.717,184.914 57.229,382.714 0.512,197.797 33.155,331.049 33.155,331.049 l 28.936,-2.219 -43.27,-182.234 -7.957,-160.338 -26.741,-250.369 -27.138,-120.728 -50.244,-396.762 -3.583,73.226 z" id="path9966"/>
</g>
<g id="SM_x5F_tree_x5F_01_copy_10">
<path fill="#B2B2B2" inkscape:connector-curvature="0" d="m 4226.78,-64.348 39.329,305.058 c 0,0 -48.485,182.687 24.128,361.454 72.61,178.764 54.701,308.135 54.701,308.135 l -60.699,6.01 21.655,-176.545 -43.252,-147.002 -37.92,-233.5 11.18,-116.535 -43.807,-372.208 34.685,65.133 z" id="path9969"/>
<polygon fill="#B2B2B2" id="Limb_x5F_R_3_" points="4347.481,331.433 4285.29,296.995 4239.684,282.912 4228.751,303.14 4292.127,313.374 4332.718,329.656 4379.212,380.672 "/>
<polygon fill="#B2B2B2" id="Limb_x5F_R_2_" points="4269.944,100.775 4245.851,110.277 4231.324,119.834 4234.477,127.596 4252.039,112.151 4266.023,104.514 4291.139,103.265 "/>
<polygon fill="#B2B2B2" id="Limb_x5F_R_1_" points="4241.595,501.238 4273.663,564.059 4290.271,609.608 4279.655,619.436 4262.351,556.568 4245.25,515.854 4205.652,467.719 "/>
</g>
<g id="SM_x5F_tree_x5F_01_copy_6">
<path fill="#B2B2B2" inkscape:connector-curvature="0" d="m 7873.913,-40.932 148.114,274.079 c 0,0 -22.228,197.37 140.895,335.115 163.116,137.743 172.669,269.935 172.669,269.935 l -91.744,33.761 -17.323,-179.108 -108.795,-120.861 -125.407,-206.182 -16.23,-116.791 -174.285,-336.339 72.106,46.391 z" id="path9975"/>
<polygon fill="#B2B2B2" id="Limb_x5F_R_8_" points="8173.369,282.51 8067.719,278.214 7993.449,285.764 7982.42,310.186 8082.948,290.749 8150.125,287.619 8236.362,315.039 "/>
<polygon fill="#B2B2B2" id="Limb_x5F_R_7_" points="7987.771,97.33 7953.397,117.548 7933.771,133.406 7940.853,139.386 7963.465,116.488 7982.807,102.72 8021.123,89.937 "/>
<polygon fill="#B2B2B2" id="Limb_x5F_R_6_" points="8059.053,494.024 8126.465,539.406 8165.11,575.378 8151.585,589.688 8106.895,537.45 8068.876,506.338 7994.086,478.498 "/>
</g>
<g id="Tree_x5F_02_copy">
<g id="Layer_7_copy_4"/>
<g id="Layer_8_copy_4"/>
<path fill="#B2B2B2" inkscape:connector-curvature="0" id="Body_4_" d="m 2679.885,246.785 c 19.099,75.034 16.477,140.171 16.055,156.688 -2.143,83.845 65.616,119.396 65.616,188.527 0,121.05 0,263.846 -25.361,365.856 -8.826,35.503 26.921,93.753 37.424,129.26 13.517,2.398 243.715,0.251 245.301,8.754 L 2907.277,807.842 c -7.868,-93.34 -59.072,-384.64 -59.072,-384.64 l -19.939,-121.589 c 0,0 -97.739,-393.223 -110.509,-424.431 -62.834,8.193 -127.13,16.384 -189.208,24.628 34.141,-4.535 113.117,194.815 151.336,344.975 z"/>
<polygon fill="#B2B2B2" id="Limb_x5F_R_16_" points="2875.309,231.78 2788.276,268.858 2736.179,305.188 2748.455,333.215 2811.06,275.086 2861.361,245.818 2952.943,238.779 "/>
<polygon fill="#B2B2B2" id="Limb_x5F_UpR_4_" points="2824.72,8.549 2770.117,22.819 2736.194,39.704 2740.988,57.318 2783.017,28.487 2815.262,15.613 2869.926,19.467 "/>
<polygon fill="#B2B2B2" id="Limb_x5F_L_4_" points="2775.066,671.073 2839.758,650.284 2875.697,625.266 2860.014,598.627 2819.68,641.555 2783.834,660.543 2709.453,653.98 "/>
<g id="twigs_x5F_R_2_">
<polyline fill="#B2B2B2" style="fill:none;stroke:#B2B2B2;stroke-width:7;stroke-miterlimit:10" stroke-miterlimit="10" points="2809.81,283.111 2906.018,174.126      2960.784,167.806    " id="polyline9988"/>
<path fill="#B2B2B2" style="fill:none;stroke:#B2B2B2;stroke-width:4;stroke-miterlimit:10" inkscape:connector-curvature="0" stroke-miterlimit="10" d="m 2932.945,145.667 47.197,24.398 c 0,0 26.541,18.047 14.891,23.568" id="path9990"/>
<path fill="#B2B2B2" style="fill:none;stroke:#B2B2B2;stroke-width:4;stroke-miterlimit:10" inkscape:connector-curvature="0" stroke-miterlimit="10" d="m 2900.415,182.518 c 0,0 24.208,-36.823 8.319,-41.431" id="path9992"/>
<polyline fill="#B2B2B2" style="fill:none;stroke:#B2B2B2;stroke-width:2;stroke-miterlimit:10" stroke-miterlimit="10" points="2961.486,142.373 2974.137,117.902      2971.23,100.527    " id="polyline9994"/>
<polyline fill="#B2B2B2" style="fill:none;stroke:#B2B2B2;stroke-width:2;stroke-miterlimit:10" stroke-miterlimit="10" points="2973.588,166.675 2977.602,184.622      2990.076,205.907    " id="polyline9996"/>
<polyline fill="#B2B2B2" style="fill:none;stroke:#B2B2B2;stroke-width:2;stroke-miterlimit:10" stroke-miterlimit="10" points="2926.47,158.192 2926.372,133.613      2947.071,118.339    " id="polyline9998"/>
<line style="fill:none;stroke:#B2B2B2;stroke-width:2;stroke-miterlimit:10" stroke-miterlimit="10" x1="2932.1689" y1="127.218" x2="2922.8159" y2="105.803" id="line10000"/>
</g>
<g id="twigs_x5F_L_2_">
<polyline fill="#B2B2B2" style="fill:none;stroke:#B2B2B2;stroke-width:7;stroke-miterlimit:10" stroke-miterlimit="10" points="2761.556,380.792 2643.093,445.959      2626.037,489.843    " id="polyline10003"/>
<path fill="#B2B2B2" style="fill:none;stroke:#B2B2B2;stroke-width:4;stroke-miterlimit:10" inkscape:connector-curvature="0" stroke-miterlimit="10" d="m 2611.785,464.449 12.284,41.45 c 0,0 10.821,23.837 18.228,15.009" id="path10005"/>
<path fill="#B2B2B2" style="fill:none;stroke:#B2B2B2;stroke-width:4;stroke-miterlimit:10" inkscape:connector-curvature="0" stroke-miterlimit="10" d="m 2651.841,442.414 c 0,0 -38.308,15.254 -39.183,1.737" id="path10007"/>
<polyline fill="#B2B2B2" style="fill:none;stroke:#B2B2B2;stroke-width:2;stroke-miterlimit:10" stroke-miterlimit="10" points="2602.897,487.318 2578.15,494.652      2563.042,490.167    " id="polyline10009"/>
<polyline fill="#B2B2B2" style="fill:none;stroke:#B2B2B2;stroke-width:2;stroke-miterlimit:10" stroke-miterlimit="10" points="2622.364,500.143 2637.76,505.6      2654.42,518.363    " id="polyline10011"/>
<polyline fill="#B2B2B2" style="fill:none;stroke:#B2B2B2;stroke-width:2;stroke-miterlimit:10" stroke-miterlimit="10" points="2624.452,460.695 2602.247,457.622      2584.152,472.639    " id="polyline10013"/>
<line style="fill:none;stroke:#B2B2B2;stroke-width:2;stroke-miterlimit:10" stroke-miterlimit="10" x1="2595.2661" y1="461.57001" x2="2577.8401" y2="451.33801" id="line10015"/>
</g>
<g id="Layer_10_copy"/>
</g>
<g id="SM_x5F_tree_x5F_01_copy_15">
<path fill="#B2B2B2" inkscape:connector-curvature="0" d="m 2909.913,11.068 148.114,274.079 c 0,0 -22.228,197.37 140.895,335.115 163.116,137.743 172.669,269.935 172.669,269.935 l -91.744,33.761 -17.323,-179.108 -108.795,-120.861 -125.407,-206.182 -16.23,-116.791 -174.285,-336.339 72.106,46.391 z" id="path10019"/>
<polygon fill="#B2B2B2" id="Limb_x5F_R_20_" points="3209.369,334.51 3103.719,330.214 3029.449,337.764 3018.42,362.186 3118.948,342.749 3186.125,339.619 3272.362,367.039 "/>
<polygon fill="#B2B2B2" id="Limb_x5F_R_19_" points="3023.771,149.33 2989.397,169.548 2969.771,185.406 2976.853,191.386 2999.465,168.488 3018.807,154.72 3057.123,141.937 "/>
<polygon fill="#B2B2B2" id="Limb_x5F_R_18_" points="3095.053,546.023 3162.465,591.406 3201.11,627.378 3187.584,641.688 3142.895,589.45 3104.875,558.338 3030.086,530.498 "/>
</g>
<g id="Tree">
<path fill="#B2B2B2" inkscape:connector-curvature="0" d="m 6258.858,-54.885 c 40.776,-33.491 148.956,-52.017 128.668,-101.496 -77.931,-17.733 -167.887,-40.163 -241.356,-52.995 4.253,47.32 -64.648,77.971 -76.981,121.85 -13.204,47 -24.325,137.909 -24.325,137.909 0,0 -27.256,284.495 -13.081,361.131 14.175,76.636 122.186,296.185 122.186,296.185 0,0 -18.658,182.17 -99.01,233.941 51.511,11.27 184.534,10.057 235.633,22.408 61.997,14.984 89.826,-225.613 95.791,-270.869 12.922,-98.078 -198.285,-241.962 -179.603,-339.078 13.215,-68.69 38.378,-134.799 38.451,-206.4 0.063,-66.886 -46.924,-145.333 9.96,-199.357 1.152,-1.092 2.378,-2.167 3.667,-3.229 z" id="path10025"/>
<polygon fill="#B2B2B2" points="6040.142,263.533 6059.726,274.841 6050.725,230.498 5982.387,101.958 6011.309,191.784 " id="polygon10027"/>
<path fill="#B2B2B2" inkscape:connector-curvature="0" d="m 6176.752,409.581 c 23.602,-9.364 60.879,-12.511 76.547,-35.387 13.324,-19.453 20.409,-24.229 31.45,-45.402 9.923,-19.029 21.463,-21.692 42.004,-18.76 10.712,1.53 22.626,0.408 30.449,-1.189 -55.482,11.328 -68.901,27.709 -87.458,81.575 24.995,-15.01 50.011,-30.019 75.015,-45.027 -46.923,28.167 -86.001,64.486 -135.885,89.132 -2.19,1.081 -29.259,-22.712 -32.122,-24.942 z" id="path10029"/>
</g>
<path fill="#B2B2B2" inkscape:connector-curvature="0" d="m 2040,989 c -27.407,-84.922 0.368,-146.479 17.982,-231.841 24.348,-117.99 -7.051,-269.33 -9.918,-399.883 -2.179,-99.2 -24.088,-283.646 6.727,-391.251 -133.262,20.514 -260.549,1.063 -395.523,-8.413 C 1112.139,-80.799 553.052,7.488 9.182,-65.819 -36.772,114.14 -38.968,268.592 -15.633,451.53 c 23.486,184.132 -1.778,355.703 -2.4,539.092 -0.759,223.574 150.55,239.873 347.657,242.198 353.698,4.173 706.034,-16.79 1060.044,-2.98 283.563,11.062 562.679,0.036 845.521,-7.419 423.735,-11.17 847.441,-26.014 1271.142,-38.858 282.233,-8.556 605.566,23.432 883.681,-31.682 43.501,-8.64 187.473,-71.881 187.473,-71.881 0,0 -35.612,-177.427 -206.604,-184.927 -170.992,-7.5 -1279.457,1.996 -1417.429,-21.999 -137.973,-23.995 -889.464,78.206 -925.458,96.202 -35.994,17.996 17.997,257.948 17.997,257.948" id="path10031"/>
<path fill="#B2B2B2" inkscape:connector-curvature="0" d="m 3586.271,923.903 76.345,-56.116 c 0,0 104.21,-6.059 159.505,0 55.294,6.059 194.624,48.297 194.624,48.297 l -430.474,7.819" id="path10033"/>
</g>
</g></svg>
