<?xml version="1.0" encoding="utf-8"?>
<!-- Generator: Adobe Illustrator 16.0.0, SVG Export Plug-In . SVG Version: 6.00 Build 0)  -->
<!DOCTYPE svg PUBLIC "-//W3C//DTD SVG 1.1//EN" "http://www.w3.org/Graphics/SVG/1.1/DTD/svg11.dtd">
<svg version="1.1" xmlns="http://www.w3.org/2000/svg" xmlns:xlink="http://www.w3.org/1999/xlink" x="0px" y="0px" width="9111px"
	 height="1080px" viewBox="0 0 9111 1080" enable-background="new 0 0 9111 1080" xml:space="preserve">

<g id="sky_x5F_LFTtoRT">
	<g>
		<path opacity="0.2" fill="#BFB7D5" d="M9511.637-52.037c-28.178-2.021-221.9,24.244-380.4,18.183
			c-158.499-6.061-457.887-42.427-602.298-32.326s-158.499,60.61-376.877,72.732s-475.499-94.956-619.91-76.773
			c-144.412,18.183-376.878,56.569-655.133,58.59c-278.255,2.021-517.766,40.407-637.521,58.59
			c-119.755,18.183-10.566,18.183,31.7,84.854c42.267,66.671,112.71,72.733,331.088,62.631s341.655-96.976,552.988-105.058
			c211.333-8.082,598.777,119.2,729.099,123.241s704.445-125.262,824.199-107.079c119.756,18.184,137.366,129.302,362.788,131.323
			c225.423,2.02,436.756-22.224,500.155-44.448c63.399-22.224,52.831-216.176,42.267-218.197
			C9603.215-27.793,9511.637-52.037,9511.637-52.037z"/>
		<path opacity="0.1" fill="#C5C2DD" d="M9247.021,518.222l-151.124-32.39c0,0-240.016,31.04-373.363,31.04
			c-133.35,0-263.355-42.512-333.364,0c-70.004,42.513-100.008,0-188.903,0c-88.897,0-193.351-37.788-255.58,0
			c-62.228,37.789,26.668-89.073-146.679-89.073s-548.937-110.667-548.937,0c0,110.667-364.472-52.635-364.472,0
			s-336.699-24.968-377.815,0c-41.116,24.968-128.896,78.276-152.235,92.447c-23.332,14.171,5.556,150.48,36.67,147.781
			c31.113-2.699,2940.253,0,2935.813-4.049c-4.444-4.049-13.336-148.456-13.336-148.456L9247.021,518.222z"/>
		<path opacity="0.1" fill="#C5C2DD" d="M9349.256,588.844l-142.233,37.166c0,0-208.907-41.077-235.575-44.99
			c-26.676-3.912-428.927,21.518-437.818,25.43c-8.89,3.912-382.253,1.957-402.256,1.957c-20.003,0-353.367-21.518-384.476-29.342
			c-31.114-7.824-104.453-95.85-168.907-91.938c-64.448,3.912-146.679,66.508-242.242,80.201
			c-95.563,13.692-413.368,27.386-493.38,15.649c-80.005-11.736-180.013-60.64-255.572-62.596
			c-75.565-1.956-140.013,56.727-204.468,46.947c-64.448-9.78-75.56-176.05-57.777-191.699
			c17.778-15.649,224.459-46.947,273.356-43.035c48.891,3.912,328.918-31.298,328.918-31.298s164.456-33.254,375.583-13.693
			c211.133,19.561,313.361,82.157,546.717,84.113c233.355,1.956,273.355-123.235,495.599-123.235
			c222.238,0,224.465,48.903,408.924,133.016c184.458,84.113,293.358,80.201,333.365,52.815
			c39.999-27.386,137.785-117.367,213.346-64.552c75.565,52.815,100.013,72.376,144.46,133.016
			C9489.265,563.415,9349.256,588.844,9349.256,588.844z"/>
		<path opacity="0.1" fill="#F8F0F3" d="M6281.286,602.76c26.674,2.936,210.041-35.213,360.073-26.409
			c150.026,8.804,433.412,61.624,570.101,46.952c136.696-14.674,150.032-88.035,356.737-105.642
			c206.706-17.607,450.08,137.921,586.775,111.509c136.695-26.41,356.735-82.164,620.114-85.099
			c263.384-2.935,490.089-58.69,603.446-85.1c113.355-26.41,10.003-26.41-30.004-123.248
			c-40.006-96.838-106.686-105.642-313.396-90.969c-206.705,14.673-323.392,140.854-523.43,152.593
			c-200.033,11.738-566.772-173.134-690.125-179.003c-123.358-5.869-666.796,181.938-780.147,155.527
			c-113.356-26.41-130.023-187.806-343.4-190.741c-213.37-2.935-413.41,32.279-473.423,64.559
			c-60.008,32.279-50.007,313.988-40.005,316.922C6194.604,567.547,6281.286,602.76,6281.286,602.76z"/>
	</g>
	<g id="Layer_97">
		<g>
			<path opacity="0.3" fill="#C5C2DD" d="M6357.301,149.207l159.658,33.117c0,0,253.574-31.737,394.449-31.737
				c140.874,0,278.227,43.466,352.187,0c73.959-43.466,105.656,0,199.572,0s204.268,38.636,270.009,0
				c65.742-38.637-28.175,91.072,154.962,91.072c183.137,0,579.933,113.15,579.933,0s385.058,53.815,385.058,0
				s355.709,25.528,399.145,0c43.437-25.528,136.179-80.033,160.832-94.521c24.652-14.489-5.869-153.857-38.74-151.097
				c-32.871,2.76-3106.285,0-3101.589,4.14s14.087,151.787,14.087,151.787L6357.301,149.207z"/>
			<path opacity="0.3" fill="#C5C2DD" d="M6249.297,77l150.267-38c0,0,220.704,42,248.878,46c28.175,4,453.147-22,462.539-26
				s403.84-2,424.972-2s373.317,22,406.188,30c32.871,8,110.352,98,178.441,94c68.09-4,154.962-68,255.922-82s436.712-28,521.236-16
				s190.181,62,270.009,64c79.83,2,147.919-58,216.009-48c68.089,10,79.829,180,61.046,196s-237.14,48-288.793,44
				c-51.654-4-347.491,32-347.491,32s-173.745,34-396.796,14c-223.052-20-331.056-84-577.587-86c-246.53-2-288.792,126-523.583,126
				s-237.139-50-432.015-136c-194.876-86-309.924-82-352.187-54c-42.263,28-145.571,120-225.399,66
				c-79.829-54-105.656-74-152.614-136C6101.379,103,6249.297,77,6249.297,77z"/>
		</g>
	</g>
</g>

</svg>
