<?xml version="1.0" encoding="utf-8"?>
<!-- Generator: Adobe Illustrator 16.0.0, SVG Export Plug-In . SVG Version: 6.00 Build 0)  -->
<!DOCTYPE svg PUBLIC "-//W3C//DTD SVG 1.1//EN" "http://www.w3.org/Graphics/SVG/1.1/DTD/svg11.dtd">
<svg version="1.1" xmlns="http://www.w3.org/2000/svg" xmlns:xlink="http://www.w3.org/1999/xlink" x="0px" y="0px" width="9111px"
	 height="1080px" viewBox="0 0 9111 1080" enable-background="new 0 0 9111 1080" xml:space="preserve">

<g id="Volcano">
	<g id="Layer_76">
		<path fill="#B7603E" d="M8183.938,90.197l24.042,11.916c0,0-30.485,98.177,38.998,137.993s-82.496,18-82.496,18l-47.998-31.499
			L8183.938,90.197"/>
		<polyline fill="#B7603E" points="7933.493,58.615 7960.492,67.614 7991.99,99.113 7928.993,117.112 7933.3,53.803 		"/>
		<polyline fill="#B7603E" points="8041.263,92.219 8077.486,93.113 8119.484,121.612 8047.487,133.611 8041.263,92.219 		"/>
		<polyline fill="#B7603E" points="7715.003,76.044 7759.502,72.114 7807.5,87.113 7788,111.112 7701.005,103.612 7715.003,76.044 
					"/>
		<path fill="#B7603E" d="M8279.976,250.605l44.998,15c0,0-40.498,43.498,8.999,67.497c49.498,23.999-92.988-18-92.988-18
			l2.993-46.497L8279.976,250.605"/>
	</g>
	<path fill="#CC9160" d="M7486.536,274.185c0,0,130.213-44.481,137.904-173.879l48.41-12.968l42.154-11.293l75.798,12.131
		l45.478-34.372h97.021l26.277,40.437l81.686-2.021l35.547,26.284l67.311-2.022V90.197h39.816c0,0-28.298,113.449,34.361,141.642
		c62.66,28.194,60.639,5.953,62.66,28.194c0,0-11.117,52.568,55.584,121.311c66.702,68.743-438.616,71.776-438.616,71.776
		L7486.536,274.185z"/>
	<path fill="#788470" d="M7554.877,213c-8.915-1.12-11.813-5.613-8.849-14.849c8.225,2.189,10.494-0.729,14.996-2.004
		c22.24,2.047,43.859-32.937,66.739-36.867c9.591-1.647,25.193,6.455,35.284,4.417c7.933-1.603,22.686-10.776,30.765-14.049
		c12.562-5.09,24.363-12.569,36.835-18.517c1.021,2.301,1.418,4.264,2.381,6.717c8.692,0.454,10.369,1.608,16.626-5.527
		c3.589,0.869,3.334,1.035,7.167-1.418c2.33,1.21,3.965,2.713,6.03,4.216c5.018-2.919,8.806-2.95,13.854-5.271
		c7.486-8.086,13.017-2.997,13.322,8.223c12.796,7.861,22.123,24.307,39.674,13.057c1.009,2.485,1.428,5.249,2.345,7.769
		c2.776,1.24,6.392,1.192,11.028,3.975c9.721-6.754,11.893-16.611,20.748-24.137c8.435-7.169,18.1-6.616,25.755-16.958
		c9.962,1.082,3.746,4.848,13.05-2.697c3.551,3.751,7.159,4.56,10.096,7.071c2.985,11.037,27.727,8.17,38.047,13.909
		c8.857,4.925,20.119,28.495,32.878,13.02c8.005,7.846,15.945,12.765,27.123,14.075c-0.501,2.565-1.489,4.248-1.739,6.894
		c4.024-0.36,10.608,2.968,15.69,2.103c-1.167,11.342,2.935,16.996,12.977,9.929c0.246,0.857,0.935,6.409,1.326,6.769
		c5.445-3.139,10.796-3.984,15.123-10.749c3.299-3.005,7.187-2.375,10.952-9.972c8.744-0.737,6.725,0.346,14.799-5.048
		c8.057,9.516,16.51,28.611,30.749,17.971c5.197,24.741,24.666-16.947,29.139,9.797c6.647-0.554,14.304,1.414,20.808,0.354
		c-0.091,0.511-3.275,2.896-3.84,3.794c0.889,2.648,5.162,1.089,6.039,3.206c-1.605,3.842-3.232,5.281-3.766,9.646
		c1.941,1.129,5.889,1.081,7.988,2.103c-1.845,2.852-3.222,4.914-4.063,8.097c14.914,1.918,25.229,0.825,33.769,12.126
		c3.451,3.033,1.926,4.741,8,6.754c0.185,2.623-0.19,5.452,0.151,8.071"/>
	<path fill="#547261" d="M8255.877,294c12.238,3.229-0.234-7.757-4-19c-4.592-13.712-8.307-4.914-16-12
		c-14.048-12.94,2.078-12.821-17-20c-9.735-3.663-15.182-9.261-24.853-14.151c-4.331-12.555-14.143-6.658-21.067-13.065
		c-3.844-3.556-13.91-0.85-17.08-6.783c-5.305-9.931-30.611-28.855-50-11c3.495-10.521-1.571-12.458-11.977-11.875
		c-6.84-12.751-24.692-2.235-25.354,11c-11.692-1.998-34.663-18.404-37.817-8.276c-32.75-1.774-46.991-10.401-21.035,23.164
		c18.111,23.42,20.381,35.603,53.589,41.521c32.298,5.756,55.606,11.556,86.272,23.187c33.657,12.766,69.298,12.714,103.321,23.28"
		/>
	<path fill="#547261" d="M7574.877,221c-26.299-9.164,1.97-20.064-0.849-34.071c1.822-0.862,5.146-0.102,6.746-1.131
		c-2.032-8.989,7.441-24.686,18.723-24.978c14.792-0.383,16.595,24.233,25.531,8.328c23.439-20.595,74.355,27.598,8.521,50.238
		c-18.064,6.212-34.583,8.218-53.672,5.615"/>
	<path fill="#5C775E" d="M8031.877,197c-16.592-27.581-41.548-36.492-67.948-21.096c-17.49-5.454-41.752-16.581-59.801-7.051
		c-20.909-1.382-51.073,3.645-70.052,18.02c-4.37-9.098-10.207-29.077-15.37-14.956c-3.598-9.239-3.202-6.794-13.655-9.091
		c-5.622-10.103-21.91-12.704-29.147-5.125c-8.429-13.728-44.827-7.802-35.103,13.076c-7.344,6.79-14.369,13.12-23.745,15.844
		c6.153-1.788-13.439-11.425-15.024-11.728c-6.228-1.191-14.54,6.681-21.279,6.681c-9.965,0-7.996-10.479-19.101-7.987
		c-13.754,3.085-22.623,20.077-13.127,31.752c8.173,10.05,34.4,8.516,45.463,8.871c41.668,1.339,83.245-3.823,124.861-2.663
		c34.805,0.971,48.068,29.559,80.394,34.506c49.892,7.635,90.646-18.527,137.635-19.054"/>
	<path fill="#8C542A" d="M7489.646,274.744c20.175-31.214,52.96-65.726,52.96-65.726l81.205-6.553l57.609-29.006l46.339,24.199
		l87.214,4.807l69.128-29.006l109.927,9.333l63.048,35.645l120.042,9.125l152.324,98.095l63.048,11.406l138.706,171.875
		l-610.303,83.246l-617.539-110.788l-78.51-31.411l58.004-84.581l68.091-12.373l52.96-11.407L7489.646,274.744z"/>
	<path fill="#9B5F37" d="M7686.613,183.608c0,0-16.5,143.993-20.999,143.993s-124.494,13.5-124.494,13.5l41.998-95.995
		l35.998-40.498L7686.613,183.608z"/>
	<polygon fill="#9B5F37" points="7544.121,216.606 7553.12,230.105 7506.622,342.6 7434.626,350.1 	"/>
	<polyline fill="#9B5F37" points="7799.006,291.603 7808,212.106 7878.497,183.608 7887.604,303.602 7799.006,291.603 	"/>
	<polygon fill="#9B5F37" points="8076.594,230.105 8166.59,237.605 8157.59,338.1 8075.094,321.601 	"/>
	<polygon fill="#9B5F37" points="8310.582,323.101 8324.081,404.097 8471.074,455.094 8385.471,342.6 	"/>
	<polygon fill="#B78A4F" points="7680.007,192.107 7623.01,214.606 7560.013,217.606 7563.013,228.105 7608.01,234.105 
		7591.511,294.103 7624.51,229.605 7672.507,216.106 	"/>
	<path fill="#B78A4F" d="M7525.515,246.105c0,0-28.499,37.498-32.999,40.498S7413.02,346.6,7413.02,346.6l-128.994,31.499
		l-29.999,49.498l16.5,13.5l26.999-44.998l123-38.998l80.99-59.998l34.498-44.998L7525.515,246.105z"/>
	<path fill="#A87042" d="M7732.504,216.106l41.998,17.999c0,0-8.988,62.998-1.494,56.998s28.493-74.997,28.493-74.997H7732.504z"/>
	<polygon fill="#A87042" points="7882.497,187.608 7904.996,201.107 7906.495,289.603 7960.493,300.102 7972.492,222.106 
		7994.991,195.107 	"/>
	<polygon fill="#A87042" points="8336.974,342.1 8389.471,346.6 8419.47,396.097 8381.972,361.599 	"/>
	<polygon fill="#A87042" points="8069.987,240.105 8105.985,273.104 8107.485,306.102 8089.486,277.603 8044.488,229.605 	"/>
	<polygon fill="#A87042" points="8000.991,216.106 7982.992,235.605 7982.992,271.604 7994.991,241.605 8011.49,219.106 	"/>
	<polygon fill="#B78A4F" points="7819.5,216.106 7852.498,198.107 7824,225.106 7818,274.604 7812,216.106 	"/>
	<polygon fill="#D8AF75" points="7786.927,98.157 7839.742,58.114 7888.785,59.782 7900.1,185.862 7822.766,206.606 7775.608,169.9 
			"/>
	<polygon fill="#D8AF75" points="8076.263,127.11 8129.302,125.61 8131.423,152.609 8138.772,157.109 8143.091,236.605 
		8078.384,244.104 8078.384,188.607 8058.229,178.108 8055.047,112.111 	"/>
	<path fill="#D8AF75" d="M7688.79,164.609c-19.852-25.499,8.823-76.496,8.823-76.496l-60.659,20.999
		c-2.229,36.369-14.337,71.996-14.337,71.996S7679.966,169.109,7688.79,164.609z"/>
</g>

</svg>
