<?xml version="1.0" encoding="utf-8"?>
<!-- Generator: Adobe Illustrator 16.0.0, SVG Export Plug-In . SVG Version: 6.00 Build 0)  -->
<!DOCTYPE svg PUBLIC "-//W3C//DTD SVG 1.1//EN" "http://www.w3.org/Graphics/SVG/1.1/DTD/svg11.dtd">
<svg version="1.1" xmlns="http://www.w3.org/2000/svg" xmlns:xlink="http://www.w3.org/1999/xlink" x="0px" y="0px" width="9111px"
	 height="1080px" viewBox="0 0 9111 1080" enable-background="new 0 0 9111 1080" xml:space="preserve">

<g id="FarGround_x5F_DRK_x5F_grass">
	<path fill="#30382D" d="M7180.537,471.094l15-20.999l17.999,7.5l3-19.499l23.999-13.5c12,1.5,22.5,1.5,26.999,1.5
		s16.499-7.5,16.499-7.5l13.499-15l12-6l15-1.5l14.999-14.999c0,0,7.5-6,13.5-6s11.999,0,16.499-1.5s16.5-6,16.5-6l14.999-3
		l19.499-7.5l16.499-14.999l15-16.5v18l20.999-10.5c0,0,7.5-10.5,9-3s1.5,7.5,1.5,7.5s12-4.5,16.499-9s12-7.5,12-7.5l1.5,9
		c0,0,9-6,16.5-9s17.999-12,17.999-12l17.999-6l10.5-3c9,6,19.5,6,23.999,4.5s17.999-3,17.999-3l22.499-9c0,0,6,0,10.5,1.5
		s10.5,3,10.5,3s7.5,3,13.5,1.5s26.999-1.5,26.999-1.5l17.999,1.5l10.5,4.5l15-3c0,0,4.499-1.5,11.999-4.5s10.5-3,15-4.5
		s8.999-3,14.999,0s6.813,3.476,15,4.5s3-6,23.999-4.5s28.499,4.5,28.499,4.5s-1.5-1.5,6-1.5s9-1.5,16.499-4.5
		s25.499-7.5,25.499-7.5l13.5,6c0,0,10.5,4.5,15,4.5s14.999,0,14.999,0s3-6,12-9s16.499-9,16.499-9s9-4.5,12-9s6-13.499,10.5-10.5
		s6,8.999,10.5,11.999s22.499,10.5,22.499,10.5l11.999,12l16.499,6c0,0,13.499,4.5,19.499,7.5s4.5,12,13.5,10.5s12-1.5,22.499-4.5
		s13.5-3,17.999-1.5s16.499,7.5,16.499,7.5l21,6l19.498,4.5c0,0,3-3,6-9s6-9,3-17.999s0,1.5-3-9s-10.499-11.999-14.999-16.499
		s-5.999-15-5.999-15s4.499-11.999,16.498-3c12,9,15,17.999,15,17.999l14.999,23.999l19.499,17.999l10.5,6l10.499,3h14.999
		l15,13.499c0,0,1.499,7.5,5.999,12s20.999,12,20.999,12s20.998,11.999,25.498,14.999s1.5,6,9,12s20.999,13.5,20.999,13.5
		l7.5,10.499L7180.537,471.094z"/>
	<path fill="#30382D" d="M2394.741,229.223c-3.535-1.696-5.378-2.605-5.378-2.605l-0.997,3.443
		C2390.485,229.765,2392.611,229.488,2394.741,229.223z"/>
	<path fill="#30382D" d="M9226.91,687.5c-626.196,0-673.942-390.874-1415.717-390.874c-638.623,0-455.909,294.544-1385.724,294.544
		c-113.081,0-217.625-6.051-314.857-16.659c5.15,92.448,13.575,184.739,22.387,276.889c5.989,62.625,12.178,125.232,17.659,187.905
		c5.464,62.484,11.085,125.032,11.889,187.776c1.608,125.391-5.93,250.571-11.897,375.76c-1.177,24.694-2.228,49.395-3.125,74.099
		c891.784,39.113,2096.256,89.971,2107.578,79.838c17.996-16.105,1667.666-547.781,1667.666-547.781S10180.718,687.5,9226.91,687.5z
		"/>
</g>

</svg>
