<?xml version="1.0" encoding="utf-8"?>
<!-- Generator: Adobe Illustrator 16.0.0, SVG Export Plug-In . SVG Version: 6.00 Build 0)  -->
<!DOCTYPE svg PUBLIC "-//W3C//DTD SVG 1.1//EN" "http://www.w3.org/Graphics/SVG/1.1/DTD/svg11.dtd">
<svg version="1.1" xmlns="http://www.w3.org/2000/svg" xmlns:xlink="http://www.w3.org/1999/xlink" x="0px" y="0px" width="9111px"
	 height="1080px" viewBox="0 0 9111 1080" enable-background="new 0 0 9111 1080" xml:space="preserve">

<g id="FarGround_x5F_LT_x5F_grass">
	<g>
		<path fill="#52594D" d="M9462.021,801.221c-880.717,0-801.088-283.76-1217.256-355.9c7.074-8.612,13.191-19.049,20.213-27.344
			c-15.284-5.672-27.61-6.988-43.105-12.549c-17.161-6.159-32.358,3.255-49.88-0.409c-29.648-6.2-57.431,1.11-86.703-2.441
			c-5.866-0.711-23.277-13.255-17.282-22.427c-10.088,0.292-24.224,1.018-28.263,13.517c-9.002-1.856-16.407-19.797-22.622-27.308
			c-17.387,9.599-26.075,2.001-44.174,1.186c-18.475-0.832-37.509,10.541-56.047,11.714c-19.692,1.246-40.009-5.584-59.49-3.829
			c-7.872,0.709-13.674,17.866-21.135,19.136c-7.282,1.239-11.683,5.67-18.25,3.917c-8.441-2.254-14.574,1.559-22.517,4.299
			c-7.992,2.757-12.826,0.724-20.658,0.885c-8.457,0.175-17.358,4.077-25.27,7.099c-3.708-13.73-35.269,0.85-42.137,3.368
			c-7.623,2.795-14.9,5.55-22.785,7.295c-10.158,2.248-34.524,2.063-42.192,10.311l-22.389,24.083c0.831,0,1.662,0,2.493,0
			c-386.979,69.249-632.536,236.512-1313.961,236.512c-68.322,0-131.606-2.504-190.447-7.119
			c4.388,55.447,9.541,110.842,14.833,166.185c5.989,62.625,12.178,125.232,17.659,187.905
			c5.464,62.484,11.085,125.032,11.889,187.776c1.608,125.391-5.93,250.571-11.897,375.76c-1.777,37.292-3.271,74.598-4.366,111.91
			c897.125,39.681,2331.569,101.312,2343.931,90.249c17.996-16.105,1667.666-547.781,1667.666-547.781
			S10415.829,801.221,9462.021,801.221z"/>
	</g>
</g>

</svg>
