<?xml version="1.0" encoding="utf-8"?>
<!-- Generator: Adobe Illustrator 16.0.0, SVG Export Plug-In . SVG Version: 6.00 Build 0)  -->
<!DOCTYPE svg PUBLIC "-//W3C//DTD SVG 1.1//EN" "http://www.w3.org/Graphics/SVG/1.1/DTD/svg11.dtd">
<svg version="1.1" xmlns="http://www.w3.org/2000/svg" xmlns:xlink="http://www.w3.org/1999/xlink" x="0px" y="0px" width="9111px"
	 height="1080px" viewBox="0 0 9111 1080" enable-background="new 0 0 9111 1080" xml:space="preserve">

<g id="Mountains_x5F_3rdRow">
	<g id="Layer_66">
		<path fill="#ED2613" d="M6518.949,349.042l14.407,33.78V441h24.044v50l58.164-4l7.172-46l35.761,2L6650,503l79.54,64l10.281-206
			l13.695-21.569L6775.104,365L6818,382.821l32.523-47.982L6870,382.821l-14,109.676L6876,540l54.968,52.184L6990,577.859V501
			l15.451-57.42L7026,463.512l16.561-7.512l24.122-53.48l83.107,23.286l22.21,27.313L7166,540h26.659L7224,627h54l-28.063-130
			l36.992-53.42l15.407-0.58l-15.014-30l20.195-23.447l19.7,29.447c0,0-3.194-49.303,16.795-36.651S7364,395,7364,395l6.872,66
			l20.756-30.19l23.911,50.11c0,0-25.539,52.08,10.461,76.08s36,24,36,24l12,82.434l29.972-171.815L7536,553.202l21.229,3.497
			L7606,688.022l48-24.589l2-85.574l21.187-70.562l35.899-14.8l33.527-13.822l32.801,74.526l47.961,11.652L7846,552.518h23.545
			L7910,519.316L7922,465l24-24l-2-32l32.411-26.651h61.437L8056,425.806l2,15.194l33.987-21.542L8110,453.119v151.557h56
			l67.473-133.721l25.618,16.087l38.147-95.328h57.208L8366,393l10.286,141.093L8374,555l34,22.859l37.324-112.53L8486,493
			l86.794-36.452L8600,467l10,85.518l-18,154.609l-1976.436-68.905L6462,487l51.785-137.755l0,0"/>
	</g>
	<polygon fill="#F83C29" points="8653.935,507.297 8589.741,521.58 8572.794,456.548 8445.324,465.329 8436.729,543.737 
		8354.446,530.608 8354.446,391.714 8297.238,391.714 8286.356,463.254 8233.473,470.955 8233.382,582.791 8091.987,585.573 
		8091.987,419.458 8037.848,419.458 8037.848,382.349 7976.411,382.349 7948.697,495.549 7840.905,503.437 7814.209,547.083 
		7760.206,559.753 7746.613,478.676 7677.187,507.297 7677.187,642.164 7547.975,648.944 7557.229,556.699 7517.6,547.083 
		7503.972,491.619 7447.402,521.58 7447.402,596.127 7406.883,582.791 7391.628,430.81 7356.675,443.58 7344.011,382.349 
		7307.516,389.553 7308.849,430.81 7286.928,443.58 7284.937,470.955 7235.118,491.619 7235.118,582.791 7149.79,608.751 
		7149.79,425.806 7066.683,402.52 7070.962,463.254 7043.249,465.329 7040.701,430.81 7005.451,443.58 7005.451,481.534 
		6969.524,481.534 6965.485,563.423 6842.172,553.219 6850.523,334.839 6794.728,382.349 6762.843,382.349 6753.517,339.431 
		6715.266,350.531 6705.055,582.791 6640.288,525.834 6640.288,430.81 6592.194,431.885 6592.194,465.329 6518.949,470.955 
		6518.949,349.042 6481.136,350.531 6464.688,430.81 6440.573,419.458 6462.179,563.423 6649.258,703.116 7456.356,820.88 
		8354.446,753.795 8693.79,736.715 	"/>
	<g id="Layer_65_copy">
		<g id="Layer_66_copy">
			<polyline fill="#ED2613" points="6329.637,383.804 6341.638,404.806 6338.638,470.813 6374.642,479.813 6377.642,542.819 
				6284.633,527.818 6290.633,419.808 6329.637,383.804 			"/>
		</g>
		<path fill="#F83C29" d="M6161.501,628.152l88.006-2.278l-67.595-200.113l-23.846,2.729
			C6163.207,494.885,6164.61,561.645,6161.501,628.152z"/>
		<polygon fill="#F83C29" points="6173.622,476.813 6209.625,464.812 6212.625,425.808 6248.629,437.809 6251.629,389.804 
			6329.637,383.804 6329.637,449.811 6365.641,461.812 6359.64,518.817 6401.645,518.817 6395.644,449.811 6455.65,452.811 
			6533.657,626.828 6167.621,659.831 		"/>
	</g>
</g>

</svg>
