<?xml version="1.0" encoding="utf-8"?>
<!-- Generator: Adobe Illustrator 16.0.0, SVG Export Plug-In . SVG Version: 6.00 Build 0)  -->
<!DOCTYPE svg PUBLIC "-//W3C//DTD SVG 1.1//EN" "http://www.w3.org/Graphics/SVG/1.1/DTD/svg11.dtd">
<svg version="1.1" xmlns="http://www.w3.org/2000/svg" xmlns:xlink="http://www.w3.org/1999/xlink" x="0px" y="0px" width="9111px"
	 height="1080px" viewBox="0 0 9111 1080" enable-background="new 0 0 9111 1080" xml:space="preserve">

<g id="Cloud_1_">
	<g>
		<path fill="#FFFFFF" d="M8037.679,564.491c0.374-0.753,0.571-1.532,0.571-2.331c0-6.492-12.949-11.754-28.918-11.754
			c-13.73,0-25.224,3.89-28.182,9.105c-1.048-0.247-2.127-0.467-3.228-0.656c4.223-2.402,6.622-5.149,6.622-8.07
			c0-9.422-24.971-17.062-55.771-17.062c-7.242,0-14.161,0.421-20.508,1.19c-4.563-9.535-16.777-16.358-31.131-16.358
			c-18.251,0-33.049,11.035-33.049,24.647c0,0.396,0.013,0.791,0.037,1.183c-3.739,0.162-7.298,0.771-10.556,1.748
			c-5.592-6.626-14.345-10.893-24.183-10.893c-2.132,0-4.216,0.201-6.224,0.582c-4.69-2.489-10.004-4.172-15.695-4.825
			c-0.237-0.162-0.479-0.322-0.733-0.48c-2.259-8.053-15.485-14.235-31.466-14.235c-17.569,0-31.811,7.468-31.811,16.684
			c0,0.04,0.003,0.082,0.003,0.121c-2.144-4.149-6.219-7.416-11.258-8.978c-0.697-1.285-1.498-2.47-2.391-3.532
			c0.28-1.508,0.428-3.073,0.428-4.674c0-12.356-8.694-22.372-19.417-22.372c-10.722,0-19.42,10.016-19.42,22.372
			c0,3.053,0.534,5.964,1.497,8.618c-1.095,0.246-2.165,0.525-3.213,0.832c-6.814-6.922-17.206-11.347-28.853-11.347
			c-20.534,0-37.18,13.751-37.18,30.714c0,0.506,0.016,1.009,0.045,1.508c-4.386-4.744-12.755-7.954-22.356-7.954
			c-14.145,0-25.613,6.961-25.613,15.548c0,1.748,0.476,3.431,1.352,4.998c-1.107-0.046-2.25-0.07-3.418-0.07
			c-1.038,0-2.057,0.02-3.05,0.057c-0.362-2.983-1.344-5.793-2.823-8.323c2.42-3.809,3.806-8.239,3.806-12.967
			c0-14.238-12.575-25.785-28.091-25.785c-1.49,0-2.956,0.11-4.384,0.314c-4.631-12.105-17.193-20.788-31.967-20.788
			c-18.711,0-33.876,13.92-33.876,31.092c0,8.224,3.478,15.7,9.159,21.26c-2.759-0.502-5.87-0.784-9.159-0.784
			c-6.723,0-12.691,1.179-16.465,3.003c-2.797-0.721-5.941-1.209-9.299-1.397c-1.525-13.247-14.749-23.598-30.835-23.598
			c-8.44,0-16.088,2.85-21.675,7.473c-6.888-2.323-15.214-3.681-24.178-3.681c-17.801,0-33.069,5.347-39.591,12.97
			c-0.567-0.052-1.141-0.079-1.721-0.079c-1.921,0-3.767,0.292-5.496,0.82c-3.341-19.793-21.989-34.945-44.493-34.945
			c-21.113,0-38.828,13.337-43.699,31.33c-0.226,0.215-0.452,0.433-0.67,0.655c-5.363-1.069-11.151-1.651-17.184-1.651
			c-13.574,0-25.892,2.947-34.954,7.738c-1.448,0.063-2.868,0.139-4.25,0.23c-2.678-0.736-5.625-1.143-8.72-1.143
			c-3.803,0-7.382,0.614-10.514,1.699c-5.42-4.668-14.967-7.767-25.84-7.767c-8.106,0-15.474,1.724-20.945,4.532
			c-3.273-0.447-6.803-0.703-10.482-0.735c0.018-0.254,0.033-0.506,0.033-0.763c0-10.889-17.757-19.716-39.662-19.716
			c-19.759,0-36.142,7.185-39.159,16.586c-2.504-0.429-5.169-0.661-7.936-0.661c-5.17,0-9.994,0.809-14.068,2.209
			c0.013-0.232,0.021-0.462,0.021-0.692c0-15.497-33.106-28.059-73.947-28.059c-40.839,0-73.949,12.563-73.949,28.059
			s33.109,28.059,73.949,28.059c6.125,0,12.074-0.284,17.765-0.814c0,0.017,0,0.037,0,0.057c0,10.053,19.605,18.198,43.79,18.198
			c11.513,0,21.987-1.847,29.804-4.866c3.229,6.877,10.68,11.693,19.357,11.693c11.636,0,21.067-8.658,21.067-19.337
			c0-4.235-1.481-8.147-3.994-11.332c2.368,0.218,4.807,0.333,7.3,0.333c4.066,0,7.992-0.303,11.684-0.868
			c5.729,3.259,15.747,5.42,27.15,5.42c2.795,0,5.506-0.13,8.091-0.374c5.594,3.92,14.323,6.439,24.131,6.439
			c2.598,0,5.121-0.178,7.529-0.51c-0.061,0.293-0.092,0.59-0.092,0.892c0,4.396,6.474,7.96,14.459,7.96
			c7.126,0,13.044-2.839,14.236-6.574c6.372,11.277,25.517,19.469,48.146,19.469c14.996,0,28.461-3.6,37.695-9.311
			c6.917,3.975,15.097,6.275,23.857,6.275c6.336,0,12.362-1.201,17.829-3.369c-0.041,0.611-0.063,1.229-0.063,1.852
			c0,16.335,14.426,29.576,32.223,29.576c12.219,0,22.852-6.243,28.313-15.444c2.181,5.048,7.545,8.621,13.825,8.621
			c6.679,0,12.331-4.044,14.208-9.608c0.374,0.082,0.762,0.163,1.164,0.245c0.238,0.17,0.486,0.262,0.737,0.262
			c0.116,0,0.229-0.021,0.34-0.057c7.789,1.419,19.916,2.332,33.538,2.332c23.499,0,42.551-2.717,42.551-6.067
			c0-3.35-19.052-6.065-42.551-6.065c-11.941,0-22.731,0.7-30.46,1.829c0.195-1.607,0.302-3.379,0.302-5.243
			c0-7.329-1.664-13.271-3.72-13.271c-2.05,0-3.716,5.941-3.716,13.271c0,0.405,0.007,0.805,0.017,1.2
			c-2.583-3.582-6.952-5.977-11.945-6.117c4.099-3.366,6.725-8.065,6.953-13.297c5.065-0.485,9.812-1.412,14.073-2.693
			c5.681,5.602,14.119,9.152,23.538,9.152c5.283,0,10.256-1.116,14.606-3.084c1.732,1.666,4.17,2.705,6.877,2.705
			c4.422,0,8.138-2.771,9.196-6.525c10.437-0.559,18.872-3.992,21.168-8.463c1.523,0.131,3.116,0.201,4.751,0.201
			c2.023,0,3.977-0.107,5.826-0.307c0.634,3.475,8.53,6.32,18.877,6.985c3.677,7.284,11.211,12.28,19.912,12.28
			c2.728,0,5.339-0.49,7.751-1.389c4.61,5.459,11.821,8.971,19.926,8.971c11.517,0,21.229-7.089,24.238-16.771
			c1.245,0.058,2.535,0.088,3.854,0.088c5.092,0,9.723-0.457,13.186-1.209c4.121,1.719,9.114,2.728,14.493,2.728
			c3.026,0,5.926-0.32,8.621-0.903c1.75,6.129,9.802,10.76,19.471,10.76c7.095,0,13.319-2.492,16.823-6.242
			c4.476,1.578,9.401,2.451,14.575,2.451c3.119,0,6.146-0.318,9.041-0.916c1.5,0.104,3.034,0.159,4.594,0.159
			c4.887,0,9.52-0.526,13.685-1.464c1.829,2.352,4.52,4.101,7.653,4.85c5.39,5.086,13.974,8.859,24.08,10.339
			c3.234,4.515,8.881,7.51,15.31,7.51c8.053,0,14.881-4.698,17.266-11.206c3.613-1.529,6.773-3.413,9.34-5.561
			c0.902-0.053,1.788-0.126,2.657-0.226c0.127,0.279,0.257,0.554,0.389,0.827c-0.466,1.095-0.733,2.336-0.733,3.652
			c0,4.396,2.958,7.961,6.607,7.961c0.921,0,1.794-0.226,2.589-0.633c7.34,6.476,17.536,10.491,28.809,10.491
			c10.911,0,20.807-3.76,28.087-9.868c8.019-0.194,15.266-3.223,20.6-8.033c4.524,1.74,9.763,2.734,15.347,2.734
			c3.213,0,6.312-0.33,9.228-0.939c6.937,3.306,18.899,5.489,32.498,5.489c21.446,0,38.831-5.431,38.831-12.133
			c0-6.63-17.016-12.018-38.144-12.13c2.047-0.563,3.998-1.274,5.833-2.114c9.472,2.272,21.409,3.626,34.378,3.626
			c2.937,0,5.817-0.068,8.631-0.201c-3.12,2.944-4.915,6.385-4.915,10.062c0,10.889,15.722,19.717,35.115,19.717
			c17.991,0,32.819-7.597,34.872-17.389c5.303,0.925,11.629,1.463,18.422,1.463c18.708,0,33.876-4.075,33.876-9.101
			C8054.774,569.014,8047.891,566.059,8037.679,564.491z"/>
		<path fill="#DBDBDB" d="M6841.011,540.282c24.459,16.964,57.877,24.125,86.527,16.751c11.814,17.737,75.416,30.387,93.295,23.02
			c12.051-4.968,9.803-11.934,7.805-23.861c8.14-3.235,9.44-2.883,15.742-10.148c-6.604,0.92-16.824,3.389-24.813,4.527
			c-8.284,41.751-109.222,6.904-139.089-0.41c-17.036-4.172-23.871-3.15-30.756-20.946c-11.181,3.631-6.434,8.046-5.382,15.565"/>
		<path fill="#DBDBDB" d="M7161.623,554.896c-17.798,43.439,67.902,21.199,89.086,22.608c13.657,0.908,22.371,3.317,36.047-1.136
			c2,29.791,33.031,30.204,50.033,10.176c-23.846,15.436-46.22,2.965-32.171-24.729c-26.441,12.881-100.725,20.4-128.522,14.541
			c-14.291-3.012-3.147-21.61,0.943-27.974c-12.77,0.95-15.286,8.198-22.072,16.631"/>
		<path fill="#DBDBDB" d="M7384.608,541.406c-7.178,24.025,6.393,33.646,27.646,20.41c-18.547,3.518-28.829-13.084-30.974-19.285"/>
		<path fill="#DBDBDB" d="M7506.639,570.637c20.362,11.408,37.499,6.426,33.282-18.148c-11.237,26.046-40.796,20.545-57.742,4.993
			C7486.104,578.609,7493.83,568.017,7506.639,570.637"/>
		<path fill="#DBDBDB" d="M7596.499,557.146c3.803,16.055,4.167,24.327,26.726,14.556c-14.549-3.246-20.877-12.916-26.726-16.805"/>
		<path fill="#DBDBDB" d="M7657.514,568.387c4.505-7.678,14.174-9.229,15.809-21.243c4.342,25.467,28.083,38.712,48.857,21.5
			c0.298-0.312,0.597-0.622,0.896-0.933c-0.299,0.32-0.604,0.631-0.919,0.933c-14.181,20.485-38.414,22.017-51.551-0.09
			c-19.592,5.975-22.769,7.106-36.163-6.8c10.1,10.877,17.096,4.751,27.509,6.633"/>
		<path fill="#DBDBDB" d="M7734.061,532.413c-0.364,10.658-10.698,17.558,9.624,22.51c1.524-13.489,1.646-13.161,7.176-25.94
			c-7.147-1.484-13.584,1.298-20.128,5.678"/>
		<path fill="#DBDBDB" d="M7757.357,585.25c21.177,17.7,51.436,11.636,59.745-15.621c-16.83,13.873-38.514,19.063-59.572,13.543
			c0.674,6.453,4.235,4.264,8.704,7.7"/>
		<path fill="#DBDBDB" d="M7838.343,579.63c20.341,2.522,45.183,11.259,63.955-3.427c-23.915,7.618-44.079-2.014-67.283,4.551"/>
		<path fill="#DBDBDB" d="M7919.328,565.015c7.099-0.687,14.806-0.03,21.828,0.228c-6.094,32.937,34.854,35.011,49.363,11.155
			c6.371-3.406,8.386-1.05,15.205-7.808c-22.579,2.932-61.074,33.804-56.609-8.771c-6.732-0.125-21.917-0.17-28.729,1.77
			c-6.926,5.29,2.519,6.192,2.272,6.799"/>
		<path fill="#DBDBDB" d="M7848.329,549.276c-2.48,7.479-5.743,11.427-0.084,18.883c-17.043-9.247-3.406-11.946,1.193-22.255"/>
		<path fill="#DBDBDB" d="M7679.702,524.543c-2.583,1.176-2.988,9.253-3.027,11.095c-0.541-17.651-2.953-8.991,8.46-22.108
			c-2.267,2.53-5.166,8.424-3.212,12.139"/>
		<path fill="#B9DAED" d="M7470.029,517.798c0.348,7.174-5.943,12.625,3.215,22.286c-17.494-6.444-8.66-13.768-9.871-25.659"/>
		<path fill="#B9DAED" d="M7615.359,542.531c10.257-7.674,13.326-17.282,28.754-18.862c-20.898-6.366-22.771,3.219-30.974,16.613"/>
		<path fill="#B9DAED" d="M7810.609,542.531c-5.92,0.832-9.518-0.127-12.176,6.325c-14.148-10.069-27.995-10.171-43.068,0.304
			c8.841-19.008,30.969-16.817,49.698-7.754"/>
		<path fill="#B9DAED" d="M7884.938,531.288c-10.807,3.372-21.229,0.525-30.896,8.825c0.039-0.145-0.22-5.446-0.247-5.452
			c9.796-10.574,16.556-5.359,28.923-6.746"/>
		<path fill="#B9DAED" d="M6919.773,522.295c14.063,2.439,25.017,1.482,35.474,16.751c0.021-0.09,3.905-4.784,4.243-4.609
			c-5.878-16.211-19.272-18.729-36.389-13.267"/>
		<path fill="#B9DAED" d="M7040.698,524.543c13.247,3.788,23.388,0.103,29.756,16.747c-16.537-12.369-35.562-13.646-54.05-5.648
			c10.056-10.727,20.562-8.406,33.166-9.974"/>
		<path fill="#B9DAED" d="M7105.041,545.904c9.692-0.873,15.336-5.033,23.244,2.408c12.206-2.473,12.724-3.742,24.566-1.285
			C7137.078,555.131,7119.471,552.252,7105.041,545.904"/>
		<path fill="#B9DAED" d="M7263.684,512.177c-4.938,13.388,2.255,16.014,24.233,13.513c-5.08-11.407-13.872-9.877-25.345-12.389"/>
	</g>
</g>

</svg>
