<?xml version="1.0" encoding="utf-8"?>
<!-- Generator: Adobe Illustrator 16.0.0, SVG Export Plug-In . SVG Version: 6.00 Build 0)  -->
<!DOCTYPE svg PUBLIC "-//W3C//DTD SVG 1.1//EN" "http://www.w3.org/Graphics/SVG/1.1/DTD/svg11.dtd">
<svg version="1.1" xmlns="http://www.w3.org/2000/svg" xmlns:xlink="http://www.w3.org/1999/xlink" x="0px" y="0px" width="9111px"
	 height="1080px" viewBox="0 0 9111 1080" enable-background="new 0 0 9111 1080" xml:space="preserve">

<g id="Mountain">
	<g id="GRASS_x5F_2">
		<path fill="#D82915" d="M6909.968,641.422L6941,625.066l20,11.567l19-13.698l26.817,18.486l22.183-4.788l34,16.601l88,21.325
			l224.734-19.12l97.266-2.205l19.686-22.743l22.314,6.143l15,7.532l29-18.648l58,15.904l141.414,5.857l19.414-16.788
			c0,0,15-0.377,21-7.556c6-7.178,20.465-7.936,20.465-7.936l35.758-25.8l45.552-10.614l19.193,37.321L7971,674.56l111.093-27.28
			l235.943-38.18L8326,555h48l6.904,34.2l62.671,19.899l33.642,131.482l-1567.249-8.062V641.422z"/>
		<path fill="#C41912" d="M6930.968,644.422L6962,628.066l20,11.567l16.181,16.601l29.636-11.813l22.183-4.788l34,16.601l88,21.325
			l224.734-19.12l97.266-2.205l19.686-22.743l22.314,6.143l15,7.532l29-18.648l58,15.904l141.414,5.857l19.414-16.788
			c0,0,25.172,1.754,31.172-5.425c6-7.178,24.142-15.967,24.142-15.967l21.909-19.899l24.552,19.899l19.193,27.534L7992,677.56
			l111.093-27.28l235.943-38.18L8372,578.586l16,12.538l13.904,1.076l62.671,19.899l33.642,131.482l-1567.249-8.062V644.422z"/>
		<path fill="#C41912" d="M8452.968,652.422l13.073-16.355l8.426,11.567l6.817,16.601l12.484-11.813l9.346-4.788l14.323,16.601
			l37.072,21.325l94.676-19.12l40.975-2.205l8.295-22.743l9.4,6.143l6.318,7.532l12.218-18.648l24.434,15.904l59.575,5.857
			l8.179-16.788c0,0,10.604,1.754,13.133-5.425c2.527-7.178,10.17-15.967,10.17-15.967l9.229-19.899l10.344,19.899l8.086,27.534
			l30.418,37.926l46.801-27.28l99.397-38.18l13.887-33.514l6.741,12.538l5.857,1.076l26.402,19.899l14.172,131.482l-660.249-8.062
			V652.422z"/>
		<path fill="#C41912" d="M5826.968,638.422l29.31-16.355l18.89,11.567l15.285,16.601l27.989-11.813l20.952-4.788l32.112,16.601
			l83.114,21.325l212.259-19.12l91.863-2.205l18.597-22.743l21.075,6.143l14.166,7.532l27.392-18.648l54.779,15.904l133.565,5.857
			l18.336-16.788c0,0,23.774,1.754,29.443-5.425c5.667-7.178,22.801-15.967,22.801-15.967l20.692-19.899l23.19,19.899l18.128,27.534
			l68.196,37.926l104.925-27.28l222.845-38.18l31.134-33.514l15.113,12.538l13.132,1.076l59.193,19.899l31.773,131.482
			l-1480.249-8.062V638.422z"/>
		<path fill="#C41912" d="M6584.948,588.723l-28.672-24.553l-18.479,17.365l-14.953,24.921l-27.38-17.733l-20.496-7.188
			l-31.415,24.921l-81.305,32.014l-207.643-28.704l-89.865-3.31l-18.191-34.143l-20.618,9.222l-13.857,11.307l-26.794-27.994
			l-53.588,23.875l-130.659,8.793l-17.938-25.202c0,0-23.256,2.633-28.803-8.144c-5.543-10.775-22.306-23.969-22.306-23.969
			l-20.24-29.874l-22.687,29.874l-17.733,41.334l-66.711,56.935l-102.644-40.954l-217.996-57.315l-30.456-50.311l-14.784,18.822
			l-12.847,1.615l-57.905,29.874l-31.082,197.381l1448.044-12.102V588.723z"/>
	</g>
	<g id="Layer_61">
		<polyline fill="#E9220A" points="9068.27,603.688 8920.81,633 8933.033,701.5 9052,691 9068.27,603.688 		"/>
		<polyline fill="#E9220A" points="8810.887,340.798 8790,385 8798,437 8781,524.696 8790,575 8722.874,566.518 8714,655.111 
			8837.888,652.594 8848,359 8810.887,340.798 		"/>
		<polyline fill="#E9220A" points="8682,484 8627.867,531.696 8667.064,554 8714,554 8714,470.095 8699.876,463.811 		"/>
		<polyline fill="#E9220A" points="8531.859,519.316 8509,530 8507,548 8464.575,587.089 8531.859,587.089 8531.859,519.316 		"/>
		<polyline fill="#E9220A" points="8435.85,566.518 8404.578,593.089 8395.578,632.087 8442.076,641.086 8435.85,566.518 		"/>
		<polyline fill="#E9220A" points="8306.837,492.498 8289,508.905 8264,519.316 8250.086,558.59 8306.837,587.089 8306.837,492.498 
					"/>
		<polyline fill="#E9220A" points="8037.096,450.096 7987,540 7900.603,637.587 7996.598,637.587 8103.093,436.597 
			8078.814,425.806 		"/>
		<path fill="#E9220A" d="M7781,687c0,0,7.108,47.082,10.108,42.582s130.494-41.998,130.494-41.998l49.5-121.066L7870.8,630.587
			L7781,687z"/>
		<polyline fill="#E9220A" points="7612,622.936 7580,638 7551,683 7603,693 7612,622.936 		"/>
		<polyline fill="#E9220A" points="6868.619,557.093 6908,591 6979,672 7002.181,702 6957,730.127 6840,575.518 6868,555 		"/>
		<polyline fill="#E9220A" points="7332.071,456 7361,485 7368.099,531.696 7442,604.676 7551,683 7340.754,642 7316,480 
			7332.071,464 		"/>
		<path fill="#E9220A" d="M7185,245.111"/>
		<path fill="#E9220A" d="M6537.127,408.077L6565.865,429c0,0-10.829,79,9.653,88s27.025,49.518,27.025,49.518H6529l-15.215-142.948
			L6537.127,408.077"/>
		<polyline fill="#E9220A" points="7760,622.936 7768.667,627 7798.828,675.801 7796,693 7774,681 7760,622.936 		"/>
		<path fill="#E9220A" d="M5298.933,342.792H5434c0,0,78.729,48.208,120.364,34.208s222.197,138.432,222.197,138.432
			l-222.197,30.871L5272,452.985L5298.933,342.792"/>
		<polyline fill="#E9220A" points="5893.486,474.529 6238,501.31 6246,546.303 5893.486,554 5893.486,474.529 		"/>
	</g>
	<path fill="#F73219" d="M3042.725,688.482c-2.888,0.592-5.783,1.141-8.679,1.66l13.066,1.137
		C3045.629,690.371,3044.165,689.44,3042.725,688.482z"/>
	<path fill="#F73219" d="M9068.27,603.688l-83.272,52.142v-89.313l-38.333-225.72h-135.777v262.891h-66.006V454.81l-45.005,9.001
		v55.505h-168.017l-24.002,47.202h-72.008l-18.002,53.309l-69.007-16.138V492.498h-42.004L8273.834,554l-30.004-27.184
		l15.261-81.008l-81.267-27.003h-99.01L7992,603.688l-193.172,98.395l-30.216-97.407L7612,613.588l-40,63.846L7361.808,603
		l-29.736-152L7188,467l-68,172l-144.468,52.019l-110.913-142.926h-298.754l-28.738-140.016l-233.536-3.663l-99.229,111.018
		l-242.276-22.934l-407.722-106.797l-255.432-42.909l-301.422,149.705l-111.73,6.993c-0.152,10.917-0.271,21.833-0.362,32.748
		c-0.543,65.333-0.145,130.671-0.896,196.002c-0.47,40.885-2.239,81.722-4.316,122.548L5986.7,947.07l1105.191-40.188L7092,907
		l380.419-12.068l-330.778,212.892l1987.277-29.771V643.828L9068.27,603.688z"/>
	<g id="Layer_73_copy">
		<path fill="#D22314" d="M7560.12,763.579l25.499-6l16.499,10.5l20.999-19.499c0,0,26.999,4.499,31.499,7.499
			s14.999,17.999,14.999,17.999l10.5,26.999l32.999-17.999l26.999-10.5l10.5,25.499l32.998-6c0,0,18-2.999,23.999-4.499
			s19.499-4.499,23.999-1.5s6,14.999,12,16.499s15,13.499,15,13.499s259.486,14.999,266.986,13.499s24-15,28.499-17.999
			c4.5-2.999,19.5-10.499,19.5-10.499s8.998-4.5,13.498-4.5s22.5,1.5,22.5,1.5h19.498c0,0,13.5-1.5,18-3s19.5-5.999,26.998-7.499
			c7.5-1.5,46.498-15.001,53.998-16.5c7.498-1.499,94.496-43.497,98.994-44.997c4.5-1.5,40.498-29.999,46.498-28.499
			s32.998,7.501,40.498,10.5s38.998,19.5,43.498,22.499s31.498,19.498,31.498,19.498l247.488-13.499c0,0,22.498-8.999,26.998-8.999
			s25.5-10.5,34.498-9c9,1.5,38.998,14.999,38.998,14.999s25.5,19.499,32.998,22.499c7.5,3,28.498,19.499,34.498,20.999
			s25.5,13.499,31.5,14.999c5.998,1.5,37.496,6,41.996,6s40.498-13.5,43.498-9s7.5,169.492,7.5,169.492l-1594.42-23.999
			l-86.996-148.492L7560.12,763.579z"/>
		<path fill="#C61C19" d="M7534.621,792.077l52.498-20.999l22.499,7.5l19.499-6l16.5,10.5l31.498,5.999l15,1.5l29.999,19.499l9,10.5
			l7.5,8.999l12-16.499c0,0,8.999-13.499,13.499-13.499s14.999-3,19.499-1.5s10.5,11.999,10.5,11.999l13.5,10.5l13.5-7.5
			l10.499-8.999c10.5-1.5,18,0,18,0l46.498,20.999c0,0,112.494-44.998,116.994-44.998s85.496,34.497,89.996,31.498
			s16.499,1.5,16.499,1.5l12-7.499l11.999,5.999l9,12l26.998-1.5l10.5,5.999h18l16.498-19.498l7.5-22.499l9-7.5c0,0,10.5,0,15,3
			s5.998,19.499,5.998,19.499c12,0,19.5,0,19.5,0l12-3l17.998-3c0,0,103.494-50.997,107.994-52.497s47.998,0,47.998,0l13.5,6
			c10.498-6,16.498-15,16.498-15l13.5-5.999l13.5-7.5l17.998-11.999l15,10.499l12-1.5l11.998-6c9-10.499,15-16.499,15-16.499
			l23.998-5.999l15,7.499l12,3c0,0,7.5-2.999,14.998-8.999c7.5-6,6-10.5,13.5-10.5s13.498,7.5,13.498,7.5l7.5,11.999
			c0,0,4.5,10.499,9,13.499s20.998,15,20.998,15s10.502,4.499,13.5,10.499c3,6,100.494,47.998,106.494,46.498s7.5-6.001,19.5-10.5
			s31.498-8.999,31.498-8.999l13.5-4.5l10.498-3c10.5-1.5,16.5,4.5,16.5,4.5l13.5,11.999l19.498,1.5c0,0,15-5.999,21-8.999
			s13.498-6,17.998-9s10.5-3,10.5-3h15l17.998,7.5l19.5,17.999c0,0,8.998,13.499,13.498,17.999s7.5,17.999,7.5,17.999
			s7.5,8.999,7.5,14.999s-6,25.499-6,25.499l-32.998,40.498l-1565.922,17.999L7534.621,792.077z"/>
	</g>
</g>

</svg>
