<?xml version="1.0" encoding="utf-8"?>
<!-- Generator: Adobe Illustrator 16.0.0, SVG Export Plug-In . SVG Version: 6.00 Build 0)  -->
<!DOCTYPE svg PUBLIC "-//W3C//DTD SVG 1.1//EN" "http://www.w3.org/Graphics/SVG/1.1/DTD/svg11.dtd">
<svg version="1.1" xmlns="http://www.w3.org/2000/svg" xmlns:xlink="http://www.w3.org/1999/xlink" x="0px" y="0px" width="9111px"
	 height="1080px" viewBox="0 0 9111 1080" enable-background="new 0 0 9111 1080" xml:space="preserve">

<g id="MidGround">
	<path fill="#717A3B" d="M2872.247,1311.816c110.667-100.395,264.902-180.336,390.858-260.912
		c135.193-86.485,276.273-167.906,428.309-221.054c146.609-51.251,301.743-67.589,452.191-103.807
		c165.405-39.819,327.629-91.76,493.284-130.776c361.364-85.112,660.41-35.438,1006.203,81.154
		c118.788,40.053,261.78,68.406,371.475,128.698C6014.568,805.121,6368,999.376,6368,999.376s1184-126.133,2048,103.566
		c864,229.7-156.909,542.058-156.909,542.058L2652.53,1513.115C2652.53,1513.115,2872.166,1311.89,2872.247,1311.816z"/>
	<path fill="#788346" d="M9352,949.027c0,0-784.276-151.246-1856.138,164.363S7417.157,1317,7417.157,1317L9520,1525L9352,949.027z"
		/>
	<path fill="#788346" d="M2168.222,617.827c420.927-160.071,1614.58-73.854,1995.179,352.659S3930.892,1805,3930.892,1805
		l-1600.295-248l-801.439-612.141C1529.158,944.859,1742.179,779.844,2168.222,617.827z"/>
	<g id="Layer_58">
		<path fill="#7E8446" d="M5208.371,609.414c0,0-246.978-87.629-563.674,29.979s160.521,78.336,160.521,78.336
			S4534.567,597.856,5208.371,609.414z"/>
		<path fill="#7E8446" d="M5380,663.434c0,0,151.57-3.766,163.785,28.9s-52.39,36.306-52.39,36.306S5380,690.604,5380,677.019"/>
	</g>
	<path fill="none" stroke="#151602" stroke-width="2" stroke-miterlimit="10" d="M5103.791,554.662"/>
	<path fill="none" stroke="#151602" stroke-width="2" stroke-miterlimit="10" d="M4465.82,639.393"/>
	<path fill="#90995C" d="M8223.039,969.812c0,0,139.297-59,477.459,24.671c0,0-383.88-66.436-721.631,135.813
		C7641.118,1332.544,8080.831,989.912,8223.039,969.812z"/>
	<path fill="#90995C" d="M8905.899,974.939c0,0-30.003,40.89-96.01,44.447s-120.012,44.328-63.006,58.446
		S9055.914,965.938,8905.899,974.939z"/>
	<path fill="#93995B" d="M2636.269,584.824c0,0,324.498,9.457,636.529,79.815s561.204,208.134,565.631,226.255
		s-387.962-191.9-829.332-176.898C2567.728,728.998,2387.847,566.652,2636.269,584.824z"/>
	<g id="Layer_59">
		<path fill="#68703A" d="M2347.881,732.844"/>
	</g>
</g>

</svg>
