<?xml version="1.0" encoding="utf-8"?>
<!-- Generator: Adobe Illustrator 16.0.0, SVG Export Plug-In . SVG Version: 6.00 Build 0)  -->
<!DOCTYPE svg PUBLIC "-//W3C//DTD SVG 1.1//EN" "http://www.w3.org/Graphics/SVG/1.1/DTD/svg11.dtd">
<svg version="1.1" xmlns="http://www.w3.org/2000/svg" xmlns:xlink="http://www.w3.org/1999/xlink" x="0px" y="0px" width="9111px"
	 height="1080px" viewBox="0 0 9111 1080" enable-background="new 0 0 9111 1080" xml:space="preserve">

<g id="Foreground">
	<g id="Ground">
		<g>
			<path fill="#B20000" d="M3490.672,866.852c152.111-19.624,304.875-34.584,457.528-50.777c268.316-28.464,533.252-52.653,803.756-33.856
				c325.235,22.602,638.873,97.024,967.421,89.514c164.23-3.755,356.209-0.65,511.805-53.122
				c75.185-25.354,143.856-66.468,223.111-81.728c148.947-28.68,304.066,33.961,454.012,33.961
				c93.944,0,268.186,203.97,567.695,249.423s544.879,98.98,544.879,98.98l-1109.207-12.37l-3293.049,45.005H2358.011
				l-27.415-257.785c0,0,370.622,28.783,630.932,28.783S3490.672,866.852,3490.672,866.852z"/>
			<path fill="#B20000" d="M3988.271,844.903l39.455-56.116c0,0,53.857-6.059,82.434,0s100.584,48.297,100.584,48.297L3988.271,844.903"/>
			<path fill="#B20000" d="M4805.217,749.889l-77.533,51.332l-82.988-51.332l-54.601,34.786c0,0-82.599-83.188-121.326-32.009s0,68.83,0,68.83
				l233.241,54.585L4805.217,749.889z"/>
			<path fill="#B20000" d="M5559.041,907.427l-51.897-64.813c0,0-39.466-11.305-84.373,16.968c-44.907,28.272-152.917,9.438-152.917,9.438v-35.916
				l-57.006-17.604l-38.289,29.404l-85.237,7.181c0,0-18.86-68.482-66.179-53.859s-110.319,38.859-110.319,38.859l246.403,76.616
				L5559.041,907.427z"/>
		</g>
	</g>
	<path fill="#B20000" d="M141.217,881.889l83.821,51.332l89.718-51.332l59.029,34.786c0,0,89.297-83.188,131.166-32.009
		c41.868,51.18,0,68.83,0,68.83l-252.158,54.585L141.217,881.889z"/>
	<path fill="#B20000" d="M1144.271,916.903l39.456-56.116c0,0,53.856-6.059,82.434,0c28.577,6.059,100.584,48.297,100.584,48.297L1144.271,916.903"
		/>
	<g id="Layer_16">
	</g>
	<g id="Layer_16_copy">
	</g>
	<g id="Layer_16_copy_3">
	</g>
	<g id="Layer_16_copy_2">
		<g>
			<path fill="#B20000" d="M5632.02,844.903c0,0,76.423,23.204,84.613,60.604c-6.094,4.171-6.094,4.171-6.094,4.171
				S5695.687,867.644,5632.02,844.903z"/>
			<path fill="#B20000" d="M5653.859,844.582c0,0,57.182,31.413,60.492,65.955c-5.046,2.872-5.046,2.872-5.046,2.872
				S5701.222,873.796,5653.859,844.582z"/>
			<path fill="#B20000" d="M5640.524,800.16c0,0,71.308,54.99,69.973,104.57c-7.233,3.148-7.233,3.148-7.233,3.148
				S5699.053,850.237,5640.524,800.16z"/>
			<path fill="#B20000" d="M5669.418,805.427c0,0,59.912,59.413,51.729,103.54c-7.295,1.773-7.295,1.773-7.295,1.773
				S5717.904,858.609,5669.418,805.427z"/>
		</g>
	</g>
	<g id="Layer_16_copy_4">
		<g>
			<path fill="#B20000" d="M5589.02,859.903c0,0,76.423,23.204,84.613,60.604c-6.094,4.171-6.094,4.171-6.094,4.171
				S5652.687,882.644,5589.02,859.903z"/>
			<path fill="#B20000" d="M5610.859,859.582c0,0,57.182,31.413,60.492,65.955c-5.046,2.872-5.046,2.872-5.046,2.872
				S5658.222,888.796,5610.859,859.582z"/>
			<path fill="#B20000" d="M5597.524,815.16c0,0,71.308,54.99,69.973,104.57c-7.233,3.148-7.233,3.148-7.233,3.148
				S5656.053,865.237,5597.524,815.16z"/>
			<path fill="#B20000" d="M5626.418,820.427c0,0,59.912,59.413,51.729,103.54c-7.295,1.773-7.295,1.773-7.295,1.773
				S5674.904,873.609,5626.418,820.427z"/>
		</g>
	</g>
	<g id="Layer_16_copy_6">
		<g>
			<path fill="#B20000" d="M4955.772,774.108c0,0-92.47,23.204-102.38,60.604c7.373,4.171,7.373,4.171,7.373,4.171
				S4878.737,796.849,4955.772,774.108z"/>
			<path fill="#B20000" d="M4929.347,773.787c0,0-69.188,31.413-73.194,65.955c6.105,2.872,6.105,2.872,6.105,2.872
				S4872.04,803.001,4929.347,773.787z"/>
			<path fill="#B20000" d="M4945.482,729.365c0,0-86.281,54.99-84.665,104.57c8.752,3.148,8.752,3.148,8.752,3.148
				S4874.664,779.442,4945.482,729.365z"/>
			<path fill="#B20000" d="M4910.521,734.632c0,0-72.492,59.413-62.591,103.54c8.826,1.773,8.826,1.773,8.826,1.773
				S4851.854,787.814,4910.521,734.632z"/>
		</g>
	</g>
	<g id="Layer_16_copy_5">
		<g>
			<path fill="#B20000" d="M5007.801,789.108c0,0-92.47,23.204-102.38,60.604c7.373,4.171,7.373,4.171,7.373,4.171
				S4930.766,811.849,5007.801,789.108z"/>
			<path fill="#B20000" d="M4981.375,788.787c0,0-69.188,31.413-73.194,65.955c6.105,2.872,6.105,2.872,6.105,2.872
				S4924.068,818.001,4981.375,788.787z"/>
			<path fill="#B20000" d="M4997.511,744.365c0,0-86.281,54.99-84.665,104.57c8.752,3.148,8.752,3.148,8.752,3.148
				S4926.693,794.442,4997.511,744.365z"/>
			<path fill="#B20000" d="M4962.55,749.632c0,0-72.492,59.413-62.591,103.54c8.827,1.773,8.827,1.773,8.827,1.773
				S4903.883,802.814,4962.55,749.632z"/>
		</g>
	</g>
	<g id="Layer_16_copy_8">
		<g>
			<path fill="#B20000" d="M6587.09,717.729c0,0-83.646,45.741-83.818,84.431c8.186,2.18,8.186,2.18,8.186,2.18S6518.264,759.135,6587.09,717.729z"
				/>
			<path fill="#B20000" d="M6561.435,724.072c0,0-59.048,47.823-54.226,82.261c6.631,1.242,6.631,1.242,6.631,1.242
				S6513.331,766.774,6561.435,724.072z"/>
			<path fill="#B20000" d="M6565.865,677.019c0,0-69.653,74.944-55.605,122.521c9.263,0.843,9.263,0.843,9.263,0.843
				S6509.939,743.314,6565.865,677.019z"/>
			<path fill="#B20000" d="M6533.356,690.919c0,0-55.194,75.753-34.501,115.965c8.988-0.507,8.988-0.507,8.988-0.507
				S6489.973,757.161,6533.356,690.919z"/>
		</g>
	</g>
	<g id="Layer_16_copy_7">
		<g>
			<path fill="#B20000" d="M6641.22,719.144c0,0-83.646,45.741-83.819,84.432c8.186,2.18,8.186,2.18,8.186,2.18S6572.394,760.55,6641.22,719.144z"
				/>
			<path fill="#B20000" d="M6615.564,725.487c0,0-59.047,47.822-54.227,82.261c6.633,1.241,6.633,1.241,6.633,1.241
				S6567.461,768.19,6615.564,725.487z"/>
			<path fill="#B20000" d="M6632.994,663.434c0,0-69.653,74.944-55.604,122.521c9.263,0.843,9.263,0.843,9.263,0.843
				S6577.068,729.729,6632.994,663.434z"/>
			<path fill="#B20000" d="M6587.486,692.334c0,0-55.195,75.753-34.501,115.965c8.988-0.507,8.988-0.507,8.988-0.507
				S6544.102,758.575,6587.486,692.334z"/>
		</g>
		<path fill="#B20000" d="M6670.41,762.449c-10.616-35.373-54.188-14.137-73.199-49.248c-19.475,13.274-58.363,6.874-82.125,5.956
			c-29.588-1.144-75.976,12.266-78.013,47.268C6513.176,783.854,6593.591,766.098,6670.41,762.449"/>
	</g>
	<g id="Layer_16_copy_10">
		<g>
			<path fill="#B20000" d="M6735.984,731.208c0,0-94.108,15.249-107.166,51.669c6.991,4.783,6.991,4.783,6.991,4.783
				S6657.294,747.31,6735.984,731.208z"/>
			<path fill="#B20000" d="M6709.681,728.64c0,0-71.609,25.409-78.541,59.484c5.838,3.382,5.838,3.382,5.838,3.382
				S6650.097,752.868,6709.681,728.64z"/>
			<path fill="#B20000" d="M6729.54,685.753c0,0-90.647,47.445-93.259,96.982c8.452,3.882,8.452,3.882,8.452,3.882
				S6654.717,729.619,6729.54,685.753z"/>
			<path fill="#B20000" d="M6694.258,688.022c0,0-77.286,53.027-71.177,97.837c8.643,2.518,8.643,2.518,8.643,2.518
				S6631.277,736.019,6694.258,688.022z"/>
		</g>
	</g>
	<g id="Layer_16_copy_12">
		<g>
			<path fill="#B20000" d="M4489.517,698.932c0,0,142.191,86.688,134.55,194.499c-15.284,10.079-15.284,10.079-15.284,10.079
				S4605.739,780.772,4489.517,698.932z"/>
			<path fill="#B20000" d="M4534.71,704.088c0,0,97.181,104.512,81.362,202.906c-12.274,6.706-12.274,6.706-12.274,6.706
				S4613.108,799.666,4534.71,704.088z"/>
			<path fill="#B20000" d="M4536.355,575.031c0,0,110.826,174.964,75.584,314.506c-16.961,6.878-16.961,6.878-16.961,6.878
				S4624.081,732.585,4536.355,575.031z"/>
			<path fill="#B20000" d="M4592.415,597.905c0,0,84.457,184.287,38.683,306.542c-16.185,2.979-16.185,2.979-16.185,2.979
				S4657.42,761.439,4592.415,597.905z"/>
		</g>
	</g>
	<g id="Layer_16_copy_9">
		<g>
			<path fill="#B20000" d="M6781.548,752.583c0,0-94.109,15.248-107.167,51.669c6.991,4.784,6.991,4.784,6.991,4.784
				S6702.856,768.684,6781.548,752.583z"/>
			<path fill="#B20000" d="M6755.245,750.014c0,0-71.609,25.409-78.543,59.484c5.841,3.382,5.841,3.382,5.841,3.382
				S6695.659,774.243,6755.245,750.014z"/>
			<path fill="#B20000" d="M6775.104,707.127c0,0-90.649,47.445-93.259,96.982c8.451,3.883,8.451,3.883,8.451,3.883
				S6700.28,750.993,6775.104,707.127z"/>
			<path fill="#B20000" d="M6739.821,709.398c0,0-77.287,53.026-71.178,97.836c8.644,2.518,8.644,2.518,8.644,2.518
				S6676.841,757.393,6739.821,709.398z"/>
		</g>
	</g>
	<g id="Layer_16_copy_13">
		<g>
			<path fill="#B20000" d="M4438.45,742.896c0,0-94.109,15.248-107.167,51.669c6.991,4.784,6.991,4.784,6.991,4.784
				S4359.759,758.997,4438.45,742.896z"/>
			<path fill="#B20000" d="M4412.147,740.327c0,0-71.609,25.409-78.543,59.484c5.841,3.382,5.841,3.382,5.841,3.382
				S4352.562,764.557,4412.147,740.327z"/>
			<path fill="#B20000" d="M4432.006,697.44c0,0-90.649,47.445-93.259,96.982c8.451,3.883,8.451,3.883,8.451,3.883
				S4357.183,741.307,4432.006,697.44z"/>
			<path fill="#B20000" d="M4396.724,699.712c0,0-77.287,53.026-71.178,97.836c8.644,2.518,8.644,2.518,8.644,2.518
				S4333.743,747.706,4396.724,699.712z"/>
		</g>
	</g>
	<g id="Layer_16_copy_14">
		<g>
			<path fill="#B20000" d="M3959.363,732.844c0,0,183.144,32.996,208.555,111.811c-13.606,10.353-13.606,10.353-13.606,10.353
				S4112.502,767.686,3959.363,732.844z"/>
			<path fill="#B20000" d="M4010.551,727.284c0,0,139.357,54.984,152.85,128.723c-11.367,7.318-11.367,7.318-11.367,7.318
				S4126.509,779.717,4010.551,727.284z"/>
			<path fill="#B20000" d="M3971.904,634.478c0,0,176.411,102.671,181.489,209.868c-16.447,8.402-16.447,8.402-16.447,8.402
				S4117.516,729.403,3971.904,634.478z"/>
			<path fill="#B20000" d="M4040.567,639.393c0,0,150.406,114.749,138.517,211.716c-16.821,5.448-16.821,5.448-16.821,5.448
				S4163.131,743.252,4040.567,639.393z"/>
		</g>
	</g>
	<g id="Layer_16_copy_15">
		<g>
			<path fill="#B20000" d="M3880.906,788.633c0,0,130.396,23.492,148.488,79.607c-9.687,7.37-9.687,7.37-9.687,7.37
				S3989.938,813.439,3880.906,788.633z"/>
			<path fill="#B20000" d="M3917.351,784.675c0,0,99.22,39.147,108.827,91.647c-8.093,5.211-8.093,5.211-8.093,5.211
				S3999.911,822.006,3917.351,784.675z"/>
			<path fill="#B20000" d="M3889.835,718.598c0,0,125.602,73.1,129.217,149.423c-11.71,5.982-11.71,5.982-11.71,5.982
				S3993.508,786.184,3889.835,718.598z"/>
			<path fill="#B20000" d="M3938.722,722.097c0,0,107.086,81.699,98.622,150.738c-11.977,3.879-11.977,3.879-11.977,3.879
				S4025.985,796.043,3938.722,722.097z"/>
		</g>
	</g>
	<g id="Layer_16_copy_11">
		<g>
			<path fill="#B20000" d="M5703.653,823.177c0,0-176.387,28.579-200.86,96.842c13.104,8.967,13.104,8.967,13.104,8.967
				S5556.164,853.354,5703.653,823.177z"/>
			<path fill="#B20000" d="M5654.354,818.361c0,0-134.215,47.623-147.211,111.489c10.947,6.339,10.947,6.339,10.947,6.339
				S5542.675,863.773,5654.354,818.361z"/>
			<path fill="#B20000" d="M5691.574,737.979c0,0-169.901,88.926-174.792,181.771c15.84,7.277,15.84,7.277,15.84,7.277
				S5551.336,820.197,5691.574,737.979z"/>
			<path fill="#B20000" d="M5625.446,742.237c0,0-144.857,99.386-133.406,183.371c16.2,4.719,16.2,4.719,16.2,4.719
				S5507.403,832.191,5625.446,742.237z"/>
		</g>
	</g>
	<g id="Layer_16_copy_16">
		<g>
			<path fill="#B20000" d="M2614.475,823.177c0,0-176.387,28.579-200.86,96.842c13.104,8.967,13.104,8.967,13.104,8.967
				S2466.986,853.354,2614.475,823.177z"/>
			<path fill="#B20000" d="M2565.176,818.361c0,0-134.215,47.623-147.211,111.489c10.947,6.339,10.947,6.339,10.947,6.339
				S2453.497,863.773,2565.176,818.361z"/>
			<path fill="#B20000" d="M2602.396,737.979c0,0-169.901,88.926-174.792,181.771c15.84,7.277,15.84,7.277,15.84,7.277
				S2462.158,820.197,2602.396,737.979z"/>
			<path fill="#B20000" d="M2536.268,742.237c0,0-144.857,99.386-133.406,183.371c16.2,4.719,16.2,4.719,16.2,4.719
				S2418.225,832.191,2536.268,742.237z"/>
		</g>
	</g>
	<g id="Layer_16_copy_24">
		<g>
			<path fill="#B20000" d="M7455.165,861.302c0,0-196.146,87.442-205.228,161.262c17.699,4.145,17.699,4.145,17.699,4.145
				S7292.924,940.443,7455.165,861.302z"/>
			<path fill="#B20000" d="M7396.734,873.458c0,0-141.955,91.362-138.99,157.059c14.462,2.356,14.462,2.356,14.462,2.356
				S7280.246,955.03,7396.734,873.458z"/>
			<path fill="#B20000" d="M7417.157,783.673c0,0-171.622,143.133-151.102,233.874c20.389,1.593,20.389,1.593,20.389,1.593
				S7277.985,910.275,7417.157,783.673z"/>
			<path fill="#B20000" d="M7341.798,810.261c0,0-139.677,144.646-102.734,221.325c20.085-0.985,20.085-0.985,20.085-0.985
				S7230.505,936.733,7341.798,810.261z"/>
		</g>
	</g>
	<g id="Layer_16_copy_25">
		<g>
			<path fill="#B20000" d="M8897.76,1015.585c0,0,168.94,51.638,183.91,107.772c-14.012,4.61-14.012,4.61-14.012,4.61
				S9038.196,1063.545,8897.76,1015.585z"/>
			<path fill="#B20000" d="M8946.664,1020.266c0,0,125.142,59,129.452,109.844c-11.555,2.974-11.555,2.974-11.555,2.974
				S9050.031,1073.766,8946.664,1020.266z"/>
			<path fill="#B20000" d="M8920.81,952.741c0,0,154.641,96.501,147.199,168.044c-16.467,2.86-16.467,2.86-16.467,2.86
				S9047.291,1039.109,8920.81,952.741z"/>
			<path fill="#B20000" d="M8984.997,967.183c0,0,128.741,100.228,106.466,162.253c-16.484,0.851-16.484,0.851-16.484,0.851
				S9088.727,1055.686,8984.997,967.183z"/>
		</g>
	</g>
	<g id="Layer_16_copy_26">
		<g>
			<path fill="#B20000" d="M7454.019,883.225c0,0-137.577,94.261-135.228,152.08c13.919,0.714,13.919,0.714,13.919,0.714
				S7341.073,966.412,7454.019,883.225z"/>
			<path fill="#B20000" d="M7411.298,900.661c0,0-96.058,89.729-85.602,139.651c11.244-0.206,11.244-0.206,11.244-0.206
				S7333.298,979.351,7411.298,900.661z"/>
			<path fill="#B20000" d="M7415.539,829.033c0,0-112.048,133.518-85.171,200.188c15.635-1.614,15.635-1.614,15.635-1.614
				S7325.992,945.376,7415.539,829.033z"/>
			<path fill="#B20000" d="M7361.808,859.879c0,0-87.673,130.237-50.122,183.849c15.084-3.547,15.084-3.547,15.084-3.547
				S7293.352,972.247,7361.808,859.879z"/>
		</g>
	</g>
	<g id="Layer_16_copy_17">
		<g>
			<path fill="#B20000" d="M2764.55,842.242c0,0-138.295,111.08-134.679,162.015c14.207-2.126,14.207-2.126,14.207-2.126
				S2651.139,938.593,2764.55,842.242z"/>
			<path fill="#B20000" d="M2721.356,866.215c0,0-96.052,98.819-84.336,141.123c11.46-2.412,11.46-2.412,11.46-2.412
				S2643.483,951.638,2721.356,866.215z"/>
			<path fill="#B20000" d="M2724.167,801.699c0,0-111.434,140.916-82.619,194.852c15.91-4.537,15.91-4.537,15.91-4.537
				S2635.317,922.885,2724.167,801.699z"/>
			<path fill="#B20000" d="M2670.031,839.777c0,0-86.649,133.164-47.226,173.377c15.306-6.146,15.306-6.146,15.306-6.146
				S2602.601,953.245,2670.031,839.777z"/>
		</g>
	</g>
	<g id="Layer_16_copy_18">
		<g>
			<path fill="#B20000" d="M2952.815,794.719c0,0-138.295,111.08-134.679,162.015c14.207-2.126,14.207-2.126,14.207-2.126
				S2839.404,891.069,2952.815,794.719z"/>
			<path fill="#B20000" d="M2909.621,818.691c0,0-96.052,98.819-84.336,141.123c11.46-2.412,11.46-2.412,11.46-2.412
				S2831.748,904.114,2909.621,818.691z"/>
			<path fill="#B20000" d="M2912.432,754.176c0,0-111.434,140.916-82.619,194.852c15.91-4.537,15.91-4.537,15.91-4.537
				S2823.582,875.361,2912.432,754.176z"/>
			<path fill="#B20000" d="M2858.295,792.254c0,0-86.649,133.164-47.226,173.377c15.306-6.146,15.306-6.146,15.306-6.146
				S2790.866,905.722,2858.295,792.254z"/>
		</g>
	</g>
	<g id="Layer_16_copy_19">
		<g>
			<path fill="#B20000" d="M2988.446,838.325c0,0-138.295,111.08-134.679,162.015c14.207-2.126,14.207-2.126,14.207-2.126
				S2875.035,934.676,2988.446,838.325z"/>
			<path fill="#B20000" d="M2945.251,862.298c0,0-96.052,98.819-84.337,141.123c11.461-2.412,11.461-2.412,11.461-2.412
				S2867.379,947.721,2945.251,862.298z"/>
			<path fill="#B20000" d="M2948.063,797.782c0,0-111.434,140.916-82.619,194.852c15.91-4.537,15.91-4.537,15.91-4.537
				S2859.212,918.968,2948.063,797.782z"/>
			<path fill="#B20000" d="M2893.926,835.86c0,0-86.649,133.164-47.226,173.377c15.306-6.146,15.306-6.146,15.306-6.146
				S2826.497,949.328,2893.926,835.86z"/>
		</g>
	</g>
	<g id="Layer_16_copy_20">
		<g>
			<path fill="#B20000" d="M3012.989,893.171c0,0,111.682,73.309,108.761,106.923c-11.473-1.403-11.473-1.403-11.473-1.403
				S3104.575,956.758,3012.989,893.171z"/>
			<path fill="#B20000" d="M3047.871,908.992c0,0,77.567,65.217,68.106,93.135c-9.255-1.592-9.255-1.592-9.255-1.592
				S3110.758,965.367,3047.871,908.992z"/>
			<path fill="#B20000" d="M3045.601,866.414c0,0,89.989,92.999,66.72,128.594c-12.848-2.994-12.848-2.994-12.848-2.994
				S3117.353,946.392,3045.601,866.414z"/>
			<path fill="#B20000" d="M3089.319,891.544c0,0,69.974,87.883,38.137,114.422c-12.361-4.056-12.361-4.056-12.361-4.056
				S3143.772,966.428,3089.319,891.544z"/>
		</g>
	</g>
	<g id="Layer_16_copy_21">
		<g>
			<path fill="#B20000" d="M3052.181,838.514c0,0,111.682,73.309,108.761,106.923c-11.473-1.403-11.473-1.403-11.473-1.403
				S3143.767,902.101,3052.181,838.514z"/>
			<path fill="#B20000" d="M3087.063,854.335c0,0,77.567,65.217,68.106,93.135c-9.255-1.592-9.255-1.592-9.255-1.592
				S3149.949,910.71,3087.063,854.335z"/>
			<path fill="#B20000" d="M3084.792,811.757c0,0,89.989,92.999,66.72,128.594c-12.848-2.994-12.848-2.994-12.848-2.994
				S3156.544,891.734,3084.792,811.757z"/>
			<path fill="#B20000" d="M3128.511,836.887c0,0,69.974,87.883,38.137,114.422c-12.361-4.056-12.361-4.056-12.361-4.056
				S3182.964,911.771,3128.511,836.887z"/>
		</g>
	</g>
	<g id="Layer_16_copy_28">
		<g>
			<path fill="#B20000" d="M1428.989,849.171c0,0,111.682,73.309,108.761,106.923c-11.473-1.403-11.473-1.403-11.473-1.403
				S1520.575,912.758,1428.989,849.171z"/>
			<path fill="#B20000" d="M1463.871,864.992c0,0,77.567,65.217,68.106,93.135c-9.255-1.592-9.255-1.592-9.255-1.592
				S1526.758,921.367,1463.871,864.992z"/>
			<path fill="#B20000" d="M1461.601,822.414c0,0,89.989,92.999,66.72,128.594c-12.848-2.994-12.848-2.994-12.848-2.994
				S1533.353,902.392,1461.601,822.414z"/>
			<path fill="#B20000" d="M1505.319,847.544c0,0,69.974,87.883,38.137,114.422c-12.361-4.056-12.361-4.056-12.361-4.056
				S1559.772,922.428,1505.319,847.544z"/>
		</g>
	</g>
	<g id="Layer_16_copy_27">
		<g>
			<path fill="#B20000" d="M1468.181,794.514c0,0,111.682,73.309,108.761,106.923c-11.473-1.403-11.473-1.403-11.473-1.403
				S1559.767,858.101,1468.181,794.514z"/>
			<path fill="#B20000" d="M1503.063,810.335c0,0,77.567,65.217,68.106,93.135c-9.255-1.592-9.255-1.592-9.255-1.592
				S1565.949,866.71,1503.063,810.335z"/>
			<path fill="#B20000" d="M1500.792,767.757c0,0,89.99,92.999,66.72,128.594c-12.848-2.994-12.848-2.994-12.848-2.994
				S1572.544,847.734,1500.792,767.757z"/>
			<path fill="#B20000" d="M1544.511,792.887c0,0,69.974,87.883,38.137,114.422c-12.361-4.056-12.361-4.056-12.361-4.056
				S1598.964,867.771,1544.511,792.887z"/>
		</g>
	</g>
	<g id="Layer_16_copy_30">
		<g>
			<path fill="#B20000" d="M2124.989,837.171c0,0,111.682,73.309,108.761,106.923c-11.473-1.403-11.473-1.403-11.473-1.403
				S2216.575,900.758,2124.989,837.171z"/>
			<path fill="#B20000" d="M2159.871,852.992c0,0,77.567,65.217,68.106,93.135c-9.255-1.592-9.255-1.592-9.255-1.592
				S2222.758,909.367,2159.871,852.992z"/>
			<path fill="#B20000" d="M2157.601,810.414c0,0,89.989,92.999,66.72,128.594c-12.848-2.994-12.848-2.994-12.848-2.994
				S2229.353,890.392,2157.601,810.414z"/>
			<path fill="#B20000" d="M2201.319,835.544c0,0,69.974,87.883,38.137,114.422c-12.361-4.056-12.361-4.056-12.361-4.056
				S2255.772,910.428,2201.319,835.544z"/>
		</g>
	</g>
	<g id="Layer_16_copy_29">
		<g>
			<path fill="#B20000" d="M2164.181,782.514c0,0,111.682,73.309,108.761,106.923c-11.473-1.403-11.473-1.403-11.473-1.403
				S2255.767,846.101,2164.181,782.514z"/>
			<path fill="#B20000" d="M2199.063,798.335c0,0,77.567,65.217,68.106,93.135c-9.255-1.592-9.255-1.592-9.255-1.592
				S2261.949,854.71,2199.063,798.335z"/>
			<path fill="#B20000" d="M2196.792,755.757c0,0,89.989,92.999,66.72,128.594c-12.848-2.994-12.848-2.994-12.848-2.994
				S2268.544,835.734,2196.792,755.757z"/>
			<path fill="#B20000" d="M2240.511,780.887c0,0,69.974,87.883,38.137,114.422c-12.361-4.056-12.361-4.056-12.361-4.056
				S2294.964,855.771,2240.511,780.887z"/>
		</g>
	</g>
	<g id="Layer_16_copy_23">
		<g>
			<path fill="#B20000" d="M3500.034,823.192c0,0,111.682,73.309,108.761,106.923c-11.473-1.403-11.473-1.403-11.473-1.403
				S3591.62,886.779,3500.034,823.192z"/>
			<path fill="#B20000" d="M3534.916,839.014c0,0,77.568,65.217,68.107,93.135c-9.255-1.592-9.255-1.592-9.255-1.592
				S3597.803,895.389,3534.916,839.014z"/>
			<path fill="#B20000" d="M3532.646,796.436c0,0,89.989,92.999,66.72,128.594c-12.848-2.994-12.848-2.994-12.848-2.994
				S3604.397,876.413,3532.646,796.436z"/>
			<path fill="#B20000" d="M3576.364,821.565c0,0,69.974,87.883,38.137,114.422c-12.361-4.056-12.361-4.056-12.361-4.056
				S3630.817,896.449,3576.364,821.565z"/>
		</g>
	</g>
	<g id="Layer_16_copy_22">
		<g>
			<path fill="#B20000" d="M3539.226,768.535c0,0,111.682,73.309,108.761,106.923c-11.473-1.403-11.473-1.403-11.473-1.403
				S3630.812,832.122,3539.226,768.535z"/>
			<path fill="#B20000" d="M3574.107,784.356c0,0,77.567,65.217,68.106,93.135c-9.255-1.592-9.255-1.592-9.255-1.592
				S3636.994,840.731,3574.107,784.356z"/>
			<path fill="#B20000" d="M3571.837,741.778c0,0,89.989,92.999,66.72,128.594c-12.848-2.994-12.848-2.994-12.848-2.994
				S3643.589,821.756,3571.837,741.778z"/>
			<path fill="#B20000" d="M3615.556,766.908c0,0,69.974,87.883,38.137,114.422c-12.361-4.056-12.361-4.056-12.361-4.056
				S3670.009,841.792,3615.556,766.908z"/>
		</g>
	</g>
	<g id="Reference" display="none">
	</g>
	<g id="Tree_x5F_01">
		<g id="Layer_7">
		</g>
		<g id="Layer_8">
		</g>
		<path fill="#B20000" id="Body_5_" d="M4873.107,220.552c-2.261,60.654-5.476,110.253-6.842,123.128c-5.911,55.757-37.942,100.609-44.601,156.358
			c-11.246,94.171-23.914,186.733-45.398,279.021c-6.488,27.87,0.005,66.76-0.01,95.789c9.227,4.813,115.447,53.119,114.774,59.863
			l30.604-307.3c14.262-71.912,16.86-170.308,50.125-234.984c5.739-11.158,18.299-16.268,23.461-27.459
			c12.359-26.794,10.124-71.015,14.393-100.737c-8.824,0.179-17.835-8.087-26.66-7.963c8.481-0.118,13.945-277.014,11.408-303.317
			c-47.022-7.838-95.095-16.004-141.584-23.636C4878.346-66.488,4877.635,99.17,4873.107,220.552z"/>
		<polygon fill="#B20000" id="Limb_x5F_R_17_" points="4931.806,403.965 4920.873,424.193 4984.249,434.427 5024.84,450.709 5071.334,501.726 
			5039.603,452.486 4977.412,418.048 		"/>
		<polygon fill="#B20000" id="Limb_x5F_UpR_5_" points="4972.943,114.673 4972.637,128.387 5009.073,116.589 5035.057,114.198 5073.618,128.647 
			5043.378,111.128 5000.989,109.75 		"/>
		<polygon fill="#B20000" id="Limb_x5F_L_5_" points="4868.172,489.916 4862.561,467.372 4824.334,489.69 4794.453,495.717 4742.261,475.107 
			4785.886,501.432 4836.936,500.267 		"/>
		<polyline fill="none" stroke="#B20000" stroke-width="7" stroke-miterlimit="10" points="4896.152,146.134 5069.282,46.182 
			5150.132,65.744 		"/>
		<path fill="none" stroke="#B20000" stroke-width="4" stroke-miterlimit="10" d="M5117.091,21.013l60.191,57.808
			c0,0,32.473,38.447,13.945,40.016"/>
		<path fill="none" stroke="#B20000" stroke-width="4" stroke-miterlimit="10" d="M5058.551,54.81c0,0,46.551-38.048,25.139-52.563"
			/>
		<polyline fill="none" stroke="#B20000" stroke-width="2" stroke-miterlimit="10" points="5159.226,31.208 5185.213,4.149 
			5186.55,-21.191 		"/>
		<polyline fill="none" stroke="#B20000" stroke-width="2" stroke-miterlimit="10" points="5168.924,70.791 5168.999,97.486 
			5180.193,133.124 		"/>
		<polyline fill="none" stroke="#B20000" stroke-width="2" stroke-miterlimit="10" points="5103.791,34.862 5111.458,1.084 
			5146.11,-9.203 		"/>
		
			<line fill="none" stroke="#B20000" stroke-width="2" stroke-miterlimit="10" x1="5121.835" y1="-4.701" x2="5115.179" y2="-38.907"/>
		<polyline fill="none" stroke="#B20000" stroke-width="7" stroke-miterlimit="10" points="4927.401,53.614 4792.929,82.953 
			4763.588,120.851 		"/>
		<path fill="none" stroke="#B20000" stroke-width="4" stroke-miterlimit="10" d="M4757.024,91.943v44.01
			c0,0,3.667,26.396,13.448,19.921"/>
		<path fill="none" stroke="#B20000" stroke-width="4" stroke-miterlimit="10" d="M4802.492,82.023c0,0-41.8,3.808-38.744-9.639"/>
		<polyline fill="none" stroke="#B20000" stroke-width="2" stroke-miterlimit="10" points="4741.733,111.694 4715.459,111.694 
			4702.011,102.946 		"/>
		<polyline fill="none" stroke="#B20000" stroke-width="2" stroke-miterlimit="10" points="4757.024,129.841 4770.472,139.621 
			4783.04,156.897 		"/>
		<polyline fill="none" stroke="#B20000" stroke-width="2" stroke-miterlimit="10" points="4770.472,91.943 4749.688,82.521 
			4727.684,91.943 		"/>
		
			<line fill="none" stroke="#B20000" stroke-width="2" stroke-miterlimit="10" x1="4741.733" y1="84.355" x2="4727.684" y2="69.328"/>
	</g>
	<g id="Tree_x5F_01_copy">
		<g id="Layer_7_copy_2">
		</g>
		<g id="Layer_8_copy_2">
		</g>
		<path fill="#B20000" id="Body_2_" d="M2906.955,234.401c-17.022,84.261-29.38,153.354-31.978,171.363
			c-11.263,77.994,10.896,144.552,0.491,222.636c-17.575,131.906-33.004,261.785-38.253,392.514
			c-1.584,39.479-21.591,92.395-30.959,132.57c-12.116,5.371-149.305,57.359-150.714,66.787l64.329-429.58
			c6.928-101.52,35.767-238.061,18.607-332.226c-2.961-16.245-15.684-25.075-17.974-41.286c-5.482-38.812,2.724-46.654,7.448-88.387
			c10.042,1.482,31.677-61.741,41.736-60.335c-9.668-1.351,73.604-385.333,85.012-421.379
			c56.352-4.267,114.012-8.841,169.687-12.897C2993.766-163.59,2941.019,65.777,2906.955,234.401z"/>
		<polygon fill="#B20000" id="Limb_x5F_R_5_" points="2749.03,448.268 2754.72,479.002 2678.734,484.91 2626.785,502.738 2556.364,569.889 
			2609.289,503.236 2692.084,462.218 		"/>
		<polygon fill="#B20000" id="Limb_x5F_UpR_2_" points="2799.525,24.826 2795.25,44.669 2757.528,22.537 2728.596,15.448 2679.588,30.913 
			2720.108,9.851 2769.086,13.794 		"/>
		<polygon fill="#B20000" id="Limb_x5F_L_2_" points="2792.869,581.268 2806.896,549.508 2843.119,587.078 2875.284,599.963 2941.971,577.51 
			2883.162,609.414 2825.127,600.588 		"/>
		<polyline fill="none" stroke="#B20000" stroke-width="7" stroke-miterlimit="10" points="2876.801,80.998 2712.366,-87.545 
			2613.233,-70.616 		"/>
		<path fill="none" stroke="#B20000" stroke-width="4" stroke-miterlimit="10" d="M2666.137-130.576l-88.388,75.039
			c0,0-50.134,50.966-29.458,55.824"/>
		<path fill="none" stroke="#B20000" stroke-width="4" stroke-miterlimit="10" d="M2721.737-73.586c0,0-40.445-61.45-11.043-79.41"
			/>
		<polyline fill="none" stroke="#B20000" stroke-width="2" stroke-miterlimit="10" points="2614.475,-121.753 2593.859,-164.457 
			2600.876,-201.23 		"/>
		<polyline fill="none" stroke="#B20000" stroke-width="2" stroke-miterlimit="10" points="2590.024,-65.958 2580.935,-27.426 
			2556.102,22.461 		"/>
		<polyline fill="none" stroke="#B20000" stroke-width="2" stroke-miterlimit="10" points="2676.689,-108.718 2679.306,-158.561 
			2643.117,-178.262 		"/>
		
			<line fill="none" stroke="#B20000" stroke-width="2" stroke-miterlimit="10" x1="2669.381" y1="-168.366" x2="2688.537" y2="-216.821"/>
		<polyline fill="none" stroke="#B20000" stroke-width="7" stroke-miterlimit="10" points="2872.244,-56.958 3016.253,4.222 
			3037.051,63.046 		"/>
		<path fill="none" stroke="#B20000" stroke-width="4" stroke-miterlimit="10" d="M3054.314,22.227L3039.47,85.77
			c0,0-13.101,37.597-22.111,26.88"/>
		<path fill="none" stroke="#B20000" stroke-width="4" stroke-miterlimit="10" d="M3005.622,1.541c0,0,46.557,11.348,47.594-8.495"
			/>
		<polyline fill="none" stroke="#B20000" stroke-width="2" stroke-miterlimit="10" points="3065.154,52.882 3095.224,56.56 
			3113.566,45.812 		"/>
		<polyline fill="none" stroke="#B20000" stroke-width="2" stroke-miterlimit="10" points="3041.532,76.945 3022.841,89.182 
			3002.63,112.367 		"/>
		<polyline fill="none" stroke="#B20000" stroke-width="2" stroke-miterlimit="10" points="3038.923,20.345 3065.888,9.65 
			3087.895,26.333 		"/>
		
			<line fill="none" stroke="#B20000" stroke-width="2" stroke-miterlimit="10" x1="3074.375" y1="13.411" x2="3095.522" y2="-6.319"/>
	</g>
	<g id="Tree_x5F_01_copy_2">
		<g id="Layer_7_copy_3">
		</g>
		<g id="Layer_8_copy_3">
		</g>
		<path fill="#B20000" id="Body_1_" d="M155.347,74.851c3.376,91.407,4.686,166.132,4.458,185.521c-0.974,83.971-30.787,151.122-32.556,235.066
			c-2.99,141.806-7.646,281.167-21.71,419.978c-4.249,41.92,6.372,100.646,9.124,144.406
			c10.278,7.393,127.931,81.766,127.856,91.923l3.269-462.825c8.321-108.203,1.703-256.501,30.938-353.519
			c5.043-16.738,17.924-24.258,22.35-41.054c10.599-40.213,4.244-49.66,5.953-94.407c-9.375,0.14-19.993-69.702-29.372-69.645
			c9.015-0.054-11.574-417.411-16.782-457.1c-50.792-12.503-102.732-25.515-152.936-37.699
			C133.551-357.802,148.591-108.074,155.347,74.851z"/>
		<polygon fill="#B20000" id="Limb_x5F_R_4_" points="268.57,323.134 258.947,354.786 327.413,371.808 372.232,398.008 426.789,478.92 
			388.121,401.017 318.507,345.947 		"/>
		<polygon fill="#B20000" id="Limb_x5F_UpR_1_" points="283.574,-131.246 284.611,-109.682 322.215,-127.705 349.63,-131.086 392.107,-107.799 
			358.181,-135.793 312.932,-138.579 		"/>
		<polygon fill="#B20000" id="Limb_x5F_L_1_" points="209.398,457.38 201.183,421.847 162.72,456.386 131.52,465.43 73.923,432.254 
			122.969,474.294 177.185,473.208 		"/>
		<polyline fill="none" stroke="#B20000" stroke-width="7" stroke-miterlimit="10" points="204.978,-82.887 379.289,-237.559 
			467.281,-205.613 		"/>
		<path fill="none" stroke="#B20000" stroke-width="4" stroke-miterlimit="10" d="M427.667-276.445l69.81,91.794
			c0,0,38.384,60.941,18.822,63.138"/>
		<path fill="none" stroke="#B20000" stroke-width="4" stroke-miterlimit="10" d="M368.727-224.146c0,0,45.757-59.16,21.526-82.301"
			/>
		<polyline fill="none" stroke="#B20000" stroke-width="2" stroke-miterlimit="10" points="473.522,-259.797 498.488,-301.972 
			497.39,-341.807 		"/>
		<polyline fill="none" stroke="#B20000" stroke-width="2" stroke-miterlimit="10" points="487.781,-197.4 490.516,-155.415 
			505.976,-99.203 		"/>
		<polyline fill="none" stroke="#B20000" stroke-width="2" stroke-miterlimit="10" points="414.888,-254.858 419.688,-307.87 
			455.544,-323.542 		"/>
		
			<line fill="none" stroke="#B20000" stroke-width="2" stroke-miterlimit="10" x1="430.157" y1="-316.818" x2="419.671" y2="-370.711"/>
		<polyline fill="none" stroke="#B20000" stroke-width="7" stroke-miterlimit="10" points="229.03,-227.94 88.835,-183.76 
			61.38,-124.585 		"/>
		<path fill="none" stroke="#B20000" stroke-width="4" stroke-miterlimit="10" d="M51.518-170.146l4.378,69.217
			c0,0,6.53,41.566,16.295,31.527"/>
		<path fill="none" stroke="#B20000" stroke-width="4" stroke-miterlimit="10" d="M98.92-185.083c0,0-44.108,5.378-42.192-15.725"/>
		<polyline fill="none" stroke="#B20000" stroke-width="2" stroke-miterlimit="10" points="37.208,-139.307 9.248,-139.689 
			-5.936,-153.644 		"/>
		<polyline fill="none" stroke="#B20000" stroke-width="2" stroke-miterlimit="10" points="55.288,-110.541 70.574,-94.965 
			85.667,-67.611 		"/>
		<polyline fill="none" stroke="#B20000" stroke-width="2" stroke-miterlimit="10" points="65.83,-169.948 42.774,-185.071 
			20.292,-170.573 		"/>
		
			<line fill="none" stroke="#B20000" stroke-width="2" stroke-miterlimit="10" x1="34.489" y1="-182.302" x2="18.044" y2="-206.141"/>
	</g>
	<g id="Layer_30">
	</g>
	<g id="Tree_x5F_02">
		<g id="Layer_7_copy">
		</g>
		<g id="Layer_8_copy">
		</g>
		<path fill="#B20000" id="Body_3_" d="M5611.885,194.785c19.099,75.034,16.477,140.171,16.055,156.688
			c-2.143,83.845,65.616,119.396,65.616,188.527c0,121.05,0,263.846-25.361,365.856c-8.826,35.503,26.921,93.753,37.424,129.26
			c13.517,2.398,243.716,0.251,245.301,8.754l-111.643-288.028c-7.868-93.34-59.072-384.64-59.072-384.64l-19.939-121.589
			c0,0-97.739-393.223-110.509-424.431c-62.834,8.193-127.13,16.384-189.208,24.628
			C5494.69-154.725,5573.666,44.625,5611.885,194.785z"/>
		<polygon fill="#B20000" id="Limb_x5F_R_15_" points="5668.179,253.188 5680.455,281.215 5743.06,223.086 5793.361,193.818 5884.943,186.779 
			5807.309,179.78 5720.276,216.858 		"/>
		<polygon fill="#B20000" id="Limb_x5F_UpR_3_" points="5668.194,-12.296 5672.988,5.318 5715.017,-23.513 5747.262,-36.387 5801.926,-32.533 
			5756.72,-43.451 5702.117,-29.181 		"/>
		<polygon fill="#B20000" id="Limb_x5F_L_3_" points="5807.697,573.266 5792.014,546.627 5751.68,589.555 5715.835,608.543 5641.453,601.98 
			5707.066,619.073 5771.758,598.284 		"/>
		<g id="twigs_x5F_R_1_">
			<polyline fill="none" stroke="#B20000" stroke-width="7" stroke-miterlimit="10" points="5741.81,231.111 5838.018,122.126 
				5892.784,115.806 			"/>
			<path fill="none" stroke="#B20000" stroke-width="4" stroke-miterlimit="10" d="M5864.945,93.667l47.197,24.398
				c0,0,26.541,18.047,14.891,23.568"/>
			<path fill="none" stroke="#B20000" stroke-width="4" stroke-miterlimit="10" d="M5832.415,130.518
				c0,0,24.208-36.823,8.318-41.431"/>
			<polyline fill="none" stroke="#B20000" stroke-width="2" stroke-miterlimit="10" points="5893.486,90.373 5906.137,65.902 
				5903.23,48.527 			"/>
			<polyline fill="none" stroke="#B20000" stroke-width="2" stroke-miterlimit="10" points="5905.588,114.675 5909.602,132.622 
				5922.076,153.907 			"/>
			<polyline fill="none" stroke="#B20000" stroke-width="2" stroke-miterlimit="10" points="5858.47,106.192 5858.372,81.613 
				5879.071,66.339 			"/>
			
				<line fill="none" stroke="#B20000" stroke-width="2" stroke-miterlimit="10" x1="5864.169" y1="75.218" x2="5854.816" y2="53.803"/>
		</g>
		<g id="twigs_x5F_L_1_">
			<polyline fill="none" stroke="#B20000" stroke-width="7" stroke-miterlimit="10" points="5693.556,328.792 5575.093,393.959 
				5558.037,437.843 			"/>
			<path fill="none" stroke="#B20000" stroke-width="4" stroke-miterlimit="10" d="M5543.785,412.449l12.284,41.45
				c0,0,10.821,23.837,18.228,15.009"/>
			<path fill="none" stroke="#B20000" stroke-width="4" stroke-miterlimit="10" d="M5583.841,390.414
				c0,0-38.308,15.254-39.183,1.737"/>
			<polyline fill="none" stroke="#B20000" stroke-width="2" stroke-miterlimit="10" points="5534.897,435.318 5510.15,442.652 
				5495.043,438.167 			"/>
			<polyline fill="none" stroke="#B20000" stroke-width="2" stroke-miterlimit="10" points="5554.364,448.143 5569.76,453.6 
				5586.42,466.363 			"/>
			<polyline fill="none" stroke="#B20000" stroke-width="2" stroke-miterlimit="10" points="5556.452,408.695 5534.247,405.622 
				5516.152,420.639 			"/>
			
				<line fill="none" stroke="#B20000" stroke-width="2" stroke-miterlimit="10" x1="5527.266" y1="409.57" x2="5509.84" y2="399.338"/>
		</g>
		<g id="Layer_10">
		</g>
	</g>
	<g id="SM_x5F_tree_x5F_01">
		<path fill="#B20000" d="M4692.84,341.325l-15.749,145.361c0,0,16.045,86.353-10.713,172.018c-26.757,85.663-21.204,146.974-21.204,146.974
			l21.431,2.266l-6.595-83.693l16.185-70.283l14.819-111.34l-3.253-55.275l17.739-177.318L4692.84,341.325z"/>
	</g>
	<g id="SM_x5F_tree_x5F_01_copy_4">
		<path fill="#B20000" d="M3657.574,279.615l-9.716,190.763c0,0,39.939,110.703,2.762,224.929c-37.177,114.225-19.326,193.426-19.326,193.426
			l38.858,0.735L3647.56,781.25l20.12-93.12l12.403-146.401l-12.938-71.586l9.203-232.551L3657.574,279.615z"/>
	</g>
	<g id="SM_x5F_tree_x5F_01_copy_7">
		<path fill="#B20000" d="M3595.314,135.878l27.378,234.906c0,0-6.764,139.071,25.215,277.835c31.979,138.762,32.468,237.611,32.468,237.611
			l-19.224,3.255l-1.564-134.956l-21.007-113.738l-23.469-179.98l-2.032-89.153l-32.063-286.523L3595.314,135.878z"/>
	</g>
	<g id="SM_x5F_tree_x5F_01_copy_8">
		<path fill="#B20000" d="M3289.76-64.62l-14.177,329.665c0,0-144.919,171.065-59.355,382.391c85.562,211.321,14.04,338.47,14.04,338.47
			l-116.702-16.003l92.326-174.534l-39.199-167.749l-3.956-255.198l55.057-116.345l25.199-400.706L3289.76-64.62z"/>
	</g>
	<g id="SM_x5F_tree_x5F_01_copy_9">
		<path fill="#B20000" d="M2493.597-4.602l39.613,325.661c0,0,56.717,184.914,57.229,382.714c0.512,197.797,33.155,331.049,33.155,331.049
			l28.936-2.219l-43.27-182.234l-7.957-160.338l-26.741-250.369l-27.138-120.728L2497.18-77.828L2493.597-4.602z"/>
	</g>
	<g id="SM_x5F_tree_x5F_01_copy">
		<path fill="#B20000" d="M4710.62-58.165l-11.441,307c0,0,36.611,179.052,0,362.26c-36.61,183.203-20.593,311.094-20.593,311.094l36.865,1.953
			l-20.176-174.711l20.176-149.555l13.475-235.509l-11.44-115.532l11.44-374.3L4710.62-58.165z"/>
	</g>
	<g id="SM_x5F_tree_x5F_01_copy_3">
		<path fill="#B20000" d="M5844.173,320.073l7.507,201.523c0,0,39.125,114.648,19.698,236.898c-19.428,122.246,0.385,204.813,0.385,204.813
			l29.698-1.184l-25.695-112.904l8.063-99.148l-1.986-154.908l-15.468-74.788l-11.166-245.534L5844.173,320.073z"/>
	</g>
	<g id="SM_x5F_tree_x5F_01_copy_2">
		<path fill="#B20000" d="M5913.832-43.149l33.085,305.426c0,0,62.126,171.873,52.4,358.45c-9.725,186.571,24.622,310.801,24.622,310.801l36.76-3.4
			l-45.235-169.955l-1.669-150.9l-20.733-234.981l-28.03-112.662l-42.822-372.018L5913.832-43.149z"/>
	</g>
	<g id="SM_x5F_tree_x5F_01_copy_5">
		<path fill="#B20000" d="M3810.78-67.348l39.329,305.058c0,0-48.485,182.687,24.128,361.454c72.61,178.764,54.701,308.135,54.701,308.135
			l-60.699,6.01l21.655-176.545l-43.252-147.002l-37.92-233.5l11.18-116.535l-43.807-372.208L3810.78-67.348z"/>
		<polygon fill="#B20000" id="Limb_x5F_R_14_" points="3823.684,279.912 3812.751,300.14 3876.127,310.374 3916.718,326.656 3963.212,377.672 
			3931.481,328.433 3869.29,293.995 		"/>
		<polygon fill="#B20000" id="Limb_x5F_R_13_" points="3815.324,116.834 3818.477,124.596 3836.039,109.151 3850.023,101.514 3875.139,100.265 
			3853.944,97.775 3829.851,107.277 		"/>
		<polygon fill="#B20000" id="Limb_x5F_R_12_" points="3874.271,606.608 3863.655,616.436 3846.351,553.568 3829.25,512.854 3789.652,464.719 
			3825.595,498.238 3857.663,561.059 		"/>
	</g>
	<g id="SM_x5F_tree_x5F_01_copy_14">
		<path fill="#B20000" d="M2041.574,282.615l-9.716,190.763c0,0,39.939,110.703,2.762,224.929c-37.177,114.225-19.326,193.426-19.326,193.426
			l38.858,0.735L2031.56,784.25l20.12-93.12l12.403-146.401l-12.938-71.586l9.203-232.551L2041.574,282.615z"/>
	</g>
	<g id="SM_x5F_tree_x5F_01_copy_13">
		<path fill="#B20000" d="M1979.313,138.878l27.378,234.906c0,0-6.764,139.071,25.215,277.835c31.979,138.762,32.468,237.611,32.468,237.611
			l-19.225,3.255l-1.564-134.956l-21.007-113.738l-23.469-179.98l-2.032-89.153l-32.063-286.523L1979.313,138.878z"/>
	</g>
	<g id="SM_x5F_tree_x5F_01_copy_12">
		<path fill="#B20000" d="M1673.76-61.62l-14.177,329.665c0,0-144.919,171.065-59.355,382.391c85.562,211.321,14.04,338.47,14.04,338.47
			l-116.702-16.003l92.326-174.534l-39.199-167.749l-3.956-255.198l55.057-116.345l25.199-400.706L1673.76-61.62z"/>
	</g>
	<g id="SM_x5F_tree_x5F_01_copy_11">
		<path fill="#B20000" d="M877.597-1.602l39.613,325.661c0,0,56.717,184.914,57.229,382.714c0.512,197.797,33.155,331.049,33.155,331.049
			l28.936-2.219l-43.27-182.234l-7.957-160.338l-26.741-250.369l-27.138-120.728L881.18-74.828L877.597-1.602z"/>
	</g>
	<g id="SM_x5F_tree_x5F_01_copy_10">
		<path fill="#B20000" d="M2194.78-64.348l39.329,305.058c0,0-48.485,182.687,24.128,361.454c72.61,178.764,54.701,308.135,54.701,308.135
			l-60.699,6.01l21.655-176.545l-43.252-147.002l-37.92-233.5l11.18-116.535l-43.807-372.208L2194.78-64.348z"/>
		<polygon fill="#B20000" id="Limb_x5F_R_3_" points="2207.684,282.912 2196.751,303.14 2260.127,313.374 2300.718,329.656 2347.212,380.672 
			2315.481,331.433 2253.29,296.995 		"/>
		<polygon fill="#B20000" id="Limb_x5F_R_2_" points="2199.324,119.834 2202.477,127.596 2220.039,112.151 2234.023,104.514 2259.139,103.265 
			2237.944,100.775 2213.851,110.277 		"/>
		<polygon fill="#B20000" id="Limb_x5F_R_1_" points="2258.271,609.608 2247.655,619.436 2230.351,556.568 2213.25,515.854 2173.652,467.719 
			2209.595,501.238 2241.663,564.059 		"/>
	</g>
	<g id="SM_x5F_tree_x5F_01_copy_6">
		<path fill="#B20000" d="M5841.913-40.932l148.114,274.079c0,0-22.228,197.37,140.895,335.115c163.116,137.743,172.669,269.935,172.669,269.935
			l-91.744,33.761l-17.323-179.108l-108.795-120.861l-125.407-206.182l-16.23-116.791L5769.807-87.323L5841.913-40.932z"/>
		<polygon fill="#B20000" id="Limb_x5F_R_8_" points="5961.449,285.764 5950.42,310.186 6050.948,290.749 6118.125,287.619 6204.362,315.039 
			6141.369,282.51 6035.719,278.214 		"/>
		<polygon fill="#B20000" id="Limb_x5F_R_7_" points="5901.771,133.406 5908.853,139.386 5931.465,116.488 5950.807,102.72 5989.123,89.937 
			5955.771,97.33 5921.397,117.548 		"/>
		<polygon fill="#B20000" id="Limb_x5F_R_6_" points="6133.11,575.378 6119.585,589.688 6074.895,537.45 6036.876,506.338 5962.086,478.498 
			6027.053,494.024 6094.465,539.406 		"/>
	</g>
	<g id="Tree_x5F_02_copy">
		<g id="Layer_7_copy_4">
		</g>
		<g id="Layer_8_copy_4">
		</g>
		<path fill="#B20000" id="Body_4_" d="M647.885,246.785c19.099,75.034,16.477,140.171,16.055,156.688c-2.143,83.845,65.616,119.396,65.616,188.527
			c0,121.05,0,263.846-25.361,365.856c-8.826,35.503,26.921,93.753,37.424,129.26c13.517,2.398,243.715,0.251,245.301,8.754
			L875.276,807.842c-7.868-93.34-59.072-384.64-59.072-384.64l-19.939-121.589c0,0-97.739-393.223-110.509-424.431
			c-62.834,8.193-127.13,16.384-189.208,24.628C530.69-102.725,609.666,96.625,647.885,246.785z"/>
		<polygon fill="#B20000" id="Limb_x5F_R_16_" points="704.179,305.188 716.455,333.215 779.06,275.086 829.361,245.818 920.943,238.779 
			843.309,231.78 756.276,268.858 		"/>
		<polygon fill="#B20000" id="Limb_x5F_UpR_4_" points="704.194,39.704 708.988,57.318 751.017,28.487 783.262,15.613 837.926,19.467 792.72,8.549 
			738.117,22.819 		"/>
		<polygon fill="#B20000" id="Limb_x5F_L_4_" points="843.697,625.266 828.014,598.627 787.68,641.555 751.834,660.543 677.453,653.98 
			743.066,671.073 807.758,650.284 		"/>
		<g id="twigs_x5F_R_2_">
			<polyline fill="none" stroke="#B20000" stroke-width="7" stroke-miterlimit="10" points="777.81,283.111 874.018,174.126 
				928.784,167.806 			"/>
			<path fill="none" stroke="#B20000" stroke-width="4" stroke-miterlimit="10" d="M900.945,145.667l47.197,24.398
				c0,0,26.541,18.047,14.891,23.568"/>
			<path fill="none" stroke="#B20000" stroke-width="4" stroke-miterlimit="10" d="M868.415,182.518c0,0,24.208-36.823,8.319-41.431
				"/>
			<polyline fill="none" stroke="#B20000" stroke-width="2" stroke-miterlimit="10" points="929.486,142.373 942.137,117.902 
				939.23,100.527 			"/>
			<polyline fill="none" stroke="#B20000" stroke-width="2" stroke-miterlimit="10" points="941.588,166.675 945.602,184.622 
				958.076,205.907 			"/>
			<polyline fill="none" stroke="#B20000" stroke-width="2" stroke-miterlimit="10" points="894.47,158.192 894.372,133.613 
				915.071,118.339 			"/>
			
				<line fill="none" stroke="#B20000" stroke-width="2" stroke-miterlimit="10" x1="900.169" y1="127.218" x2="890.816" y2="105.803"/>
		</g>
		<g id="twigs_x5F_L_2_">
			<polyline fill="none" stroke="#B20000" stroke-width="7" stroke-miterlimit="10" points="729.556,380.792 611.093,445.959 
				594.037,489.843 			"/>
			<path fill="none" stroke="#B20000" stroke-width="4" stroke-miterlimit="10" d="M579.785,464.449l12.284,41.45
				c0,0,10.821,23.837,18.228,15.009"/>
			<path fill="none" stroke="#B20000" stroke-width="4" stroke-miterlimit="10" d="M619.841,442.414c0,0-38.308,15.254-39.183,1.737
				"/>
			<polyline fill="none" stroke="#B20000" stroke-width="2" stroke-miterlimit="10" points="570.897,487.318 546.15,494.652 
				531.042,490.167 			"/>
			<polyline fill="none" stroke="#B20000" stroke-width="2" stroke-miterlimit="10" points="590.364,500.143 605.76,505.6 
				622.42,518.363 			"/>
			<polyline fill="none" stroke="#B20000" stroke-width="2" stroke-miterlimit="10" points="592.452,460.695 570.247,457.622 
				552.152,472.639 			"/>
			
				<line fill="none" stroke="#B20000" stroke-width="2" stroke-miterlimit="10" x1="563.266" y1="461.57" x2="545.84" y2="451.338"/>
		</g>
		<g id="Layer_10_copy">
		</g>
	</g>
	<g id="SM_x5F_tree_x5F_01_copy_15">
		<path fill="#B20000" d="M877.913,11.068l148.114,274.079c0,0-22.228,197.37,140.895,335.115c163.116,137.743,172.669,269.935,172.669,269.935
			l-91.744,33.761l-17.323-179.108l-108.795-120.861L996.321,417.806l-16.23-116.791L805.807-35.323L877.913,11.068z"/>
		<polygon fill="#B20000" id="Limb_x5F_R_20_" points="997.449,337.764 986.42,362.186 1086.948,342.749 1154.125,339.619 1240.362,367.039 
			1177.369,334.51 1071.719,330.214 		"/>
		<polygon fill="#B20000" id="Limb_x5F_R_19_" points="937.771,185.406 944.853,191.386 967.465,168.488 986.807,154.72 1025.123,141.937 
			991.771,149.33 957.397,169.548 		"/>
		<polygon fill="#B20000" id="Limb_x5F_R_18_" points="1169.11,627.378 1155.584,641.688 1110.895,589.45 1072.875,558.338 998.086,530.498 
			1063.053,546.023 1130.465,591.406 		"/>
	</g>
	<g id="Tree">
		<path fill="#B20000" d="M4226.858-54.885c40.776-33.491,148.956-52.017,128.668-101.496c-77.931-17.733-167.887-40.163-241.356-52.995
			c4.253,47.32-64.648,77.971-76.981,121.85c-13.204,47-24.325,137.909-24.325,137.909s-27.256,284.495-13.081,361.131
			s122.186,296.185,122.186,296.185s-18.658,182.17-99.01,233.941c51.511,11.27,184.534,10.057,235.633,22.408
			c61.997,14.984,89.826-225.613,95.791-270.869c12.922-98.078-198.285-241.962-179.603-339.078
			c13.215-68.69,38.378-134.799,38.451-206.4c0.063-66.886-46.924-145.333,9.96-199.357
			C4224.343-52.748,4225.569-53.823,4226.858-54.885z"/>
		<polygon fill="#B20000" points="4018.725,230.498 3950.387,101.958 3979.309,191.784 4008.142,263.533 4027.726,274.841 		"/>
		<path fill="#B20000" d="M4144.752,409.581c23.602-9.364,60.879-12.511,76.547-35.387c13.324-19.453,20.409-24.229,31.45-45.402
			c9.923-19.029,21.463-21.692,42.004-18.76c10.712,1.53,22.626,0.408,30.449-1.189c-55.482,11.328-68.901,27.709-87.458,81.575
			c24.995-15.01,50.011-30.019,75.015-45.027c-46.923,28.167-86.001,64.486-135.885,89.132
			C4174.684,435.604,4147.615,411.811,4144.752,409.581z"/>
	</g>
	<path fill="#B20000" d="M2338.881,895.073c-170.991-7.5-1279.457,1.996-1417.429-21.999C783.479,849.079,31.987,951.28-4.006,969.276
		s17.997,257.948,17.997,257.948s2300.52-66.704,2344.021-75.344S2545.484,1080,2545.484,1080S2509.872,902.573,2338.881,895.073z"
		/>
	<path fill="#B20000" d="M1554.271,923.903l76.345-56.116c0,0,104.21-6.059,159.505,0c55.294,6.059,194.624,48.297,194.624,48.297L1554.271,923.903
		"/>
</g>

</svg>
