<?xml version="1.0" encoding="utf-8"?>
<!DOCTYPE svg PUBLIC "-//W3C//DTD SVG 1.1//EN" "http://www.w3.org/Graphics/SVG/1.1/DTD/svg11.dtd">
<svg version="1.1" xmlns="http://www.w3.org/2000/svg" xmlns:xlink="http://www.w3.org/1999/xlink" viewBox="0 0 30000 20000">

<g enable-background="new">

<g>

<g>

<g transform="matrix(-0.489990234375 0 0 0.489990234375 15497 11087)">

<g>

<path fill-opacity="1.000" fill="#892427" d="M -19506 -4213 Q -19981 -4213 -20866 -4142 Q -20107 -3762 -19274 -3593 Q -19300 -3946 -19097 -4208 L -19480 -4213 Q -19493 -4213 -19506 -4213 Z M -17969 -4184 Q -18149 -4148 -18362 -4071 Q -18576 -3995 -18866 -3556 L -18873 -3524 L -18794 -3509 Q -18620 -3481 -18445 -3481 Q -18304 -3481 -18163 -3499 Q -18147 -3824 -17969 -4184 Z M -15364 -4600 Q -15647 -4600 -15884 -4567 Q -17269 -4376 -17276 -4150 Q -17594 -3893 -17703 -3551 Q -17167 -3633 -16627 -3681 Q -16096 -3736 -15563 -3736 Q -15178 -3736 -14792 -3707 L -12891 -3532 Q -12560 -3482 -12248 -3362 Q -11493 -3075 -10752 -2745 Q -9689 -2459 -8773 -1947 Q -8192 -1622 -7741 -1132 Q -7183 -527 -6693 133 Q -6511 378 -6269 503 Q -5972 316 -5670 145 Q -4863 -309 -3990 -620 Q -3116 -933 -2197 -1098 Q -3158 -1191 -4088 -1397 Q -4953 -1584 -5802 -1846 Q -6703 -2128 -7572 -2498 Q -8367 -2838 -9198 -3070 L -9405 -3126 L -9405 -3126 Q -9405 -3126 -9405 -3126 Q -10300 -3378 -10784 -3547 L -10801 -3553 L -11002 -3627 L -11575 -3851 Q -14007 -4600 -15364 -4600 Z M -14658 -1585 Q -14684 -1585 -14711 -1585 Q -14424 -1110 -13885 -973 Q -12708 -668 -11583 -208 Q -10930 60 -10245 223 L -9919 375 L -9679 488 Q -9180 686 -8721 962 L -8608 1031 L -8541 1067 Q -8033 1202 -7651 1567 L -7605 1611 L -7548 1647 Q -7314 1796 -7106 1942 L -7068 1941 Q -6821 1974 -6592 2081 Q -6286 1948 -5982 1835 Q -5928 1857 -5875 1862 Q -5829 1836 -5646 1785 Q -5391 1713 -5374 1691 L -5344 1654 L -5309 1608 Q -4986 1510 -4667 1436 L -4539 1430 L -4424 1409 L -4232 1367 Q -4098 1341 -4073 1320 Q -4066 1321 -4060 1321 Q -4045 1321 -4036 1313 L -4035 1313 Q -3719 1262 -3405 1235 L -3375 1254 L -3307 1258 L -3303 1226 Q -3301 1204 -3222 1204 Q -3172 1204 -3090 1213 Q -3724 1079 -4226 1079 Q -4548 1079 -4817 1134 Q -5636 1306 -6340 1765 Q -6607 1529 -6896 1328 Q -6976 1271 -7057 1217 L -7057 1217 L -7057 1217 L -7069 1199 L -7113 1132 L -7235 956 L -7417 710 Q -7608 460 -7817 215 Q -8013 55 -8160 -156 L -8196 -209 L -8350 -372 L -8386 -409 Q -8543 -625 -8755 -785 L -8810 -825 L -8826 -841 L -8868 -880 L -9062 -1057 Q -9183 -1166 -9305 -1271 L -9425 -1373 Q -9593 -1461 -9778 -1513 L -9962 -1566 L -9962 -1566 Q -9163 -811 -8594 129 Q -8513 264 -8439 403 Q -9471 -284 -10647 -699 Q -11867 -1130 -13126 -1414 Q -13882 -1585 -14658 -1585 Z">

</path>

<path fill-opacity="1.000" fill="#B12432" d="M -19506 -4213 Q -19493 -4213 -19480 -4213 L -19097 -4208 Q -19300 -3946 -19274 -3593 Q -20107 -3762 -20866 -4142 Q -19981 -4213 -19506 -4213 Z M -17969 -4184 Q -18147 -3824 -18163 -3499 Q -18163 -3499 -18163 -3499 L -18163 -3499 Q -18305 -3481 -18445 -3481 Q -18620 -3481 -18794 -3509 L -18873 -3524 L -18866 -3556 Q -18576 -3995 -18362 -4071 Q -18149 -4148 -17969 -4184 Z M -834 -1757 Q -837 -1757 -812 -1741 L -828 -1755 Q -833 -1757 -834 -1757 Z M -15365 -4600 Q -14008 -4600 -11576 -3851 L -11003 -3627 L -10802 -3553 L -10785 -3547 Q -10301 -3378 -9406 -3126 L -9199 -3070 Q -8368 -2838 -7573 -2498 Q -6704 -2128 -5803 -1846 Q -4954 -1584 -4089 -1397 Q -3159 -1191 -2198 -1098 Q -3117 -933 -3991 -620 Q -4864 -309 -5671 145 Q -5973 316 -6270 503 Q -6512 378 -6694 133 Q -7184 -527 -7742 -1132 Q -8193 -1622 -8774 -1947 Q -9690 -2459 -10753 -2745 Q -11494 -3075 -12249 -3362 Q -12561 -3482 -12892 -3532 L -14793 -3707 Q -15179 -3736 -15564 -3736 Q -16097 -3736 -16628 -3681 Q -17168 -3633 -17704 -3551 Q -17595 -3893 -17277 -4150 Q -17270 -4376 -15885 -4567 Q -15648 -4600 -15365 -4600 Z M -14659 -1585 Q -13883 -1585 -13127 -1414 Q -11868 -1130 -10648 -699 Q -9472 -284 -8440 403 Q -8514 264 -8595 129 Q -9164 -811 -9963 -1566 L -9963 -1566 L -9779 -1513 Q -9594 -1461 -9426 -1373 L -9306 -1271 Q -9184 -1166 -9063 -1057 L -8869 -880 L -8827 -841 L -8811 -825 L -8756 -785 Q -8544 -625 -8387 -409 L -8351 -372 L -8197 -209 L -8161 -156 Q -8014 55 -7818 215 Q -7609 460 -7418 710 L -7236 956 L -7114 1132 L -7070 1199 L -7058 1217 Q -6977 1271 -6897 1328 Q -6608 1529 -6341 1765 Q -5637 1306 -4818 1134 Q -4550 1079 -4227 1079 Q -3724 1079 -3091 1213 Q -3173 1204 -3223 1204 Q -3302 1204 -3304 1226 L -3308 1258 L -3376 1254 L -3406 1235 Q -3720 1262 -4036 1313 L -4037 1313 Q -4046 1321 -4061 1321 Q -4067 1321 -4074 1320 Q -4099 1341 -4233 1367 L -4425 1409 L -4540 1430 L -4668 1436 Q -4987 1510 -5310 1608 L -5345 1654 L -5375 1691 Q -5392 1713 -5647 1785 Q -5830 1836 -5876 1862 Q -5929 1857 -5983 1835 Q -6287 1948 -6593 2081 Q -6822 1974 -7069 1941 L -7107 1942 Q -7315 1796 -7549 1647 L -7606 1611 L -7652 1567 Q -8034 1202 -8542 1067 L -8609 1031 L -8722 962 Q -9181 686 -9680 488 L -9920 375 L -10246 223 Q -10931 60 -11584 -208 Q -12709 -668 -13886 -973 Q -14425 -1110 -14712 -1585 Q -14686 -1585 -14659 -1585 Z M -15169 -5257 Q -15302 -5257 -15431 -5252 L -17303 -5193 Q -17310 -5193 -17317 -5193 Q -17709 -5193 -18677 -5033 Q -18677 -5033 -18677 -5033 L -18677 -5033 Q -19497 -4890 -20177 -4783 Q -20858 -4676 -21981 -4084 L -22081 -4032 Q -20529 -3843 -19680 -3207 Q -18831 -2572 -17223 -1844 Q -15616 -1116 -14622 -750 Q -13082 -183 -11366 379 Q -9037 1141 -7950 1832 Q -7702 1990 -7310 2306 Q -7008 2549 -6777 2656 Q -6681 2605 -6270 2358 Q -5944 2163 -5689 2048 Q -4911 1700 -3802 1638 L -3387 1624 Q -3336 1623 -3286 1623 Q -3185 1623 -3083 1626 Q -2338 1640 -1571 1771 Q -1002 1868 -651 1977 L -351 1356 Q -148 922 -65 489 Q 52 -118 -87 -636 Q -206 -1080 -510 -1441 L -837 -1452 L -1697 -1493 Q -2293 -1525 -3816 -1665 Q -5339 -1806 -7683 -3017 L -7880 -3118 L -7881 -3118 L -7969 -3113 Q -8029 -3110 -8066 -3110 Q -8088 -3110 -8102 -3111 Q -8383 -3138 -8685 -3301 Q -9958 -4014 -11952 -4664 Q -13773 -5257 -15169 -5257 Z">

</path>

<path fill="none" stroke-opacity="1.000" stroke="rgb(0,0,0)" stroke-linejoin="round" stroke-linecap="round" stroke-width="40" d="M -11575 -3851 Q -14515 -4756 -15884 -4567 Q -17269 -4376 -17276 -4150 Q -17594 -3893 -17703 -3551 M -18677 -5032 Q -19497 -4889 -20177 -4782 Q -20858 -4675 -21981 -4083 L -22081 -4031 Q -20529 -3842 -19680 -3206 Q -18831 -2571 -17223 -1843 Q -15616 -1115 -14622 -749 Q -13082 -182 -11366 380 Q -9037 1142 -7950 1833 Q -7702 1991 -7310 2307 Q -7008 2550 -6777 2657 Q -6681 2606 -6270 2359 Q -5944 2164 -5689 2049 Q -4911 1701 -3802 1639 L -3387 1625 Q -3235 1623 -3083 1627 Q -2338 1641 -1571 1772 Q -1002 1869 -651 1978 L -351 1357 Q -148 923 -65 490 Q 52 -117 -87 -635 Q -206 -1079 -510 -1440 L -837 -1451 L -1697 -1492 Q -2293 -1524 -3816 -1664 Q -5339 -1805 -7683 -3016 L -7880 -3117 L -7881 -3117 L -7969 -3112 Q -8065 -3107 -8102 -3110 Q -8383 -3137 -8685 -3300 Q -9958 -4013 -11952 -4663 Q -13947 -5313 -15431 -5251 L -17303 -5192 Q -17691 -5195 -18677 -5032 Z M -18677 -5032 Q -18971 -4371 -19097 -4208 Q -19300 -3946 -19274 -3593 Q -19261 -3417 -19191 -3218 Q -19082 -2911 -18785 -2748 Q -18825 -2881 -18892 -3016 Q -18956 -3145 -18873 -3524 L -18866 -3556 Q -18576 -3995 -18362 -4071 Q -18149 -4148 -17969 -4184 Q -18147 -3824 -18163 -3499 Q -18189 -2972 -17788 -2536 Q -17693 -2433 -17573 -2360 Q -17865 -3048 -17703 -3551">

</path>

<path fill="none" stroke-opacity="1.000" stroke="rgb(0,0,0)" stroke-linejoin="round" stroke-linecap="round" stroke-width="28.571998006975587" d="M -10784 -3547 L -10801 -3553 M -12891 -3532 L -13130 -3636 M -10249 -2198 Q -10317 -2151 -10359 -2092 L -9964 -1802 M -10359 -2092 L -10360 -2092 L -10411 -2020 M -10359 -2092 Q -10586 -2253 -10819 -2405 M -9809 -3272 Q -10314 -3443 -10784 -3547 M -2197 -1098 L -2188 -1099 L -2099 -1112 M -2042 -1119 L -1814 -1157 M -12891 -3532 L -12805 -3493 M -11397 -2845 L -11454 -2797 L -11403 -2767 L -11164 -2623 M -11454 -2797 L -11490 -2761 L -11510 -2732 M -12080 -3141 Q -12287 -3249 -12496 -3349 M -11454 -2797 L -11777 -2979 M -11443 -293 Q -11838 -454 -12273 -620 M -10245 224 L -10473 121 Q -10766 -11 -11088 -146 M -7294 -2112 L -7592 -2282 Q -7847 -2423 -8113 -2556 M -8599 -2788 Q -9012 -2977 -9405 -3126 M -9305 -1270 L -9345 -1245 L -9376 -1228 M -9231 -1325 Q -9267 -1296 -9305 -1270 Q -9183 -1165 -9062 -1056 Q -9003 -1091 -8956 -1131 M -9062 -1056 Q -9090 -1040 -9120 -1025 Q -9149 -1010 -9182 -1002 M -9425 -1372 L -9602 -1518 M -9305 -1270 L -9425 -1372 M -8810 -824 L -8826 -840 L -8868 -879 L -9062 -1056 M -8350 -371 L -8386 -408 L -8518 -542 M -8350 -371 L -8373 -354 L -8390 -339 M -8277 -420 L -8350 -371 L -8196 -208 M -7817 216 L -7955 56 M -4009 -1112 L -3537 -1075 L -3226 -1070 M -5437 -1447 Q -4893 -1272 -4421 -1179 M -2685 -1075 L -2197 -1098 M -6649 -1902 Q -6204 -1715 -5797 -1569 M -4541 1409 L -4667 1437 M -4035 1314 L -4172 1337 M -3303 1227 L -3405 1236 M -7057 1218 L -6955 1380 M -3405 1236 Q -3719 1263 -4035 1314 M -5904 1807 L -5982 1836 M -5309 1609 L -5481 1662 M -4667 1437 Q -4986 1511 -5309 1609 M -3090 1214 L -3303 1227 M -7129 954 L -7235 957 L -7113 1133 L -7048 1132 M -7235 957 L -7308 967 L -7339 970 M -7235 957 L -7417 711 Q -7608 461 -7817 216 M -7548 1648 Q -7314 1797 -7106 1943 M -6592 2082 Q -6286 1949 -5982 1836 M -7605 1612 L -7785 1501 M -7113 1133 L -7209 1139 Q -7218 1140 -7226 1148 M -7057 1218 L -7069 1200 L -7113 1133 M -9157 746 Q -9410 618 -9679 489 L -9919 376 M -8179 1269 Q -8355 1169 -8541 1068 M -8608 1032 L -8873 891 M -6592 2082 L -6646 2106 M -7106 1943 L -6980 2033 M -14559 -4161 Q -14837 -4249 -15120 -4326 M -16825 -2169 L -17269 -2306 M -14886 -1547 L -15606 -1783 M -13754 -1161 L -14472 -1408 M -15964 -1898 L -16525 -2075 M -13479 -3779 Q -13855 -3928 -14242 -4058 M -12620 -751 L -13326 -1009">

</path>

<path fill="none" stroke-opacity="1.000" stroke="rgb(0,0,0)" stroke-linejoin="round" stroke-linecap="round" stroke-width="28.571998006975587" d="M -2099 -1112 L -2042 -1119">

</path>

</g>

</g>

<g transform="matrix(0.489990234375 0 0 0.489990234375 14397 11087)">

<g>

<path fill-opacity="1.000" fill="#892427" d="M -19506 -4213 Q -19981 -4213 -20866 -4142 Q -20107 -3762 -19274 -3593 Q -19300 -3946 -19097 -4208 L -19480 -4213 Q -19493 -4213 -19506 -4213 Z M -17969 -4184 Q -18149 -4148 -18362 -4071 Q -18576 -3995 -18866 -3556 L -18873 -3524 L -18794 -3509 Q -18620 -3481 -18445 -3481 Q -18304 -3481 -18163 -3499 Q -18147 -3824 -17969 -4184 Z M -15364 -4600 Q -15647 -4600 -15884 -4567 Q -17269 -4376 -17276 -4150 Q -17594 -3893 -17703 -3551 Q -17167 -3633 -16627 -3681 Q -16096 -3736 -15563 -3736 Q -15178 -3736 -14792 -3707 L -12891 -3532 Q -12560 -3482 -12248 -3362 Q -11493 -3075 -10752 -2745 Q -9689 -2459 -8773 -1947 Q -8192 -1622 -7741 -1132 Q -7183 -527 -6693 133 Q -6511 378 -6269 503 Q -5972 316 -5670 145 Q -4863 -309 -3990 -620 Q -3116 -933 -2197 -1098 Q -3158 -1191 -4088 -1397 Q -4953 -1584 -5802 -1846 Q -6703 -2128 -7572 -2498 Q -8367 -2838 -9198 -3070 L -9405 -3126 L -9405 -3126 Q -9405 -3126 -9405 -3126 Q -10300 -3378 -10784 -3547 L -10801 -3553 L -11002 -3627 L -11575 -3851 Q -14007 -4600 -15364 -4600 Z M -14658 -1585 Q -14684 -1585 -14711 -1585 Q -14424 -1110 -13885 -973 Q -12708 -668 -11583 -208 Q -10930 60 -10245 223 L -9919 375 L -9679 488 Q -9180 686 -8721 962 L -8608 1031 L -8541 1067 Q -8033 1202 -7651 1567 L -7605 1611 L -7548 1647 Q -7314 1796 -7106 1942 L -7068 1941 Q -6821 1974 -6592 2081 Q -6286 1948 -5982 1835 Q -5928 1857 -5875 1862 Q -5829 1836 -5646 1785 Q -5391 1713 -5374 1691 L -5344 1654 L -5309 1608 Q -4986 1510 -4667 1436 L -4539 1430 L -4424 1409 L -4232 1367 Q -4098 1341 -4073 1320 Q -4066 1321 -4060 1321 Q -4045 1321 -4036 1313 L -4035 1313 Q -3719 1262 -3405 1235 L -3375 1254 L -3307 1258 L -3303 1226 Q -3301 1204 -3222 1204 Q -3172 1204 -3090 1213 Q -3724 1079 -4226 1079 Q -4548 1079 -4817 1134 Q -5636 1306 -6340 1765 Q -6607 1529 -6896 1328 Q -6976 1271 -7057 1217 L -7057 1217 L -7057 1217 L -7069 1199 L -7113 1132 L -7235 956 L -7417 710 Q -7608 460 -7817 215 Q -8013 55 -8160 -156 L -8196 -209 L -8350 -372 L -8386 -409 Q -8543 -625 -8755 -785 L -8810 -825 L -8826 -841 L -8868 -880 L -9062 -1057 Q -9183 -1166 -9305 -1271 L -9425 -1373 Q -9593 -1461 -9778 -1513 L -9962 -1566 L -9962 -1566 Q -9163 -811 -8594 129 Q -8513 264 -8439 403 Q -9471 -284 -10647 -699 Q -11867 -1130 -13126 -1414 Q -13882 -1585 -14658 -1585 Z">

</path>

<path fill-opacity="1.000" fill="#B12432" d="M -19506 -4213 Q -19493 -4213 -19480 -4213 L -19097 -4208 Q -19300 -3946 -19274 -3593 Q -20107 -3762 -20866 -4142 Q -19981 -4213 -19506 -4213 Z M -17969 -4184 Q -18147 -3824 -18163 -3499 Q -18163 -3499 -18163 -3499 L -18163 -3499 Q -18305 -3481 -18445 -3481 Q -18620 -3481 -18794 -3509 L -18873 -3524 L -18866 -3556 Q -18576 -3995 -18362 -4071 Q -18149 -4148 -17969 -4184 Z M -834 -1757 Q -837 -1757 -812 -1741 L -828 -1755 Q -833 -1757 -834 -1757 Z M -15365 -4600 Q -14008 -4600 -11576 -3851 L -11003 -3627 L -10802 -3553 L -10785 -3547 Q -10301 -3378 -9406 -3126 L -9199 -3070 Q -8368 -2838 -7573 -2498 Q -6704 -2128 -5803 -1846 Q -4954 -1584 -4089 -1397 Q -3159 -1191 -2198 -1098 Q -3117 -933 -3991 -620 Q -4864 -309 -5671 145 Q -5973 316 -6270 503 Q -6512 378 -6694 133 Q -7184 -527 -7742 -1132 Q -8193 -1622 -8774 -1947 Q -9690 -2459 -10753 -2745 Q -11494 -3075 -12249 -3362 Q -12561 -3482 -12892 -3532 L -14793 -3707 Q -15179 -3736 -15564 -3736 Q -16097 -3736 -16628 -3681 Q -17168 -3633 -17704 -3551 Q -17595 -3893 -17277 -4150 Q -17270 -4376 -15885 -4567 Q -15648 -4600 -15365 -4600 Z M -14659 -1585 Q -13883 -1585 -13127 -1414 Q -11868 -1130 -10648 -699 Q -9472 -284 -8440 403 Q -8514 264 -8595 129 Q -9164 -811 -9963 -1566 L -9963 -1566 L -9779 -1513 Q -9594 -1461 -9426 -1373 L -9306 -1271 Q -9184 -1166 -9063 -1057 L -8869 -880 L -8827 -841 L -8811 -825 L -8756 -785 Q -8544 -625 -8387 -409 L -8351 -372 L -8197 -209 L -8161 -156 Q -8014 55 -7818 215 Q -7609 460 -7418 710 L -7236 956 L -7114 1132 L -7070 1199 L -7058 1217 Q -6977 1271 -6897 1328 Q -6608 1529 -6341 1765 Q -5637 1306 -4818 1134 Q -4550 1079 -4227 1079 Q -3724 1079 -3091 1213 Q -3173 1204 -3223 1204 Q -3302 1204 -3304 1226 L -3308 1258 L -3376 1254 L -3406 1235 Q -3720 1262 -4036 1313 L -4037 1313 Q -4046 1321 -4061 1321 Q -4067 1321 -4074 1320 Q -4099 1341 -4233 1367 L -4425 1409 L -4540 1430 L -4668 1436 Q -4987 1510 -5310 1608 L -5345 1654 L -5375 1691 Q -5392 1713 -5647 1785 Q -5830 1836 -5876 1862 Q -5929 1857 -5983 1835 Q -6287 1948 -6593 2081 Q -6822 1974 -7069 1941 L -7107 1942 Q -7315 1796 -7549 1647 L -7606 1611 L -7652 1567 Q -8034 1202 -8542 1067 L -8609 1031 L -8722 962 Q -9181 686 -9680 488 L -9920 375 L -10246 223 Q -10931 60 -11584 -208 Q -12709 -668 -13886 -973 Q -14425 -1110 -14712 -1585 Q -14686 -1585 -14659 -1585 Z M -15169 -5257 Q -15302 -5257 -15431 -5252 L -17303 -5193 Q -17310 -5193 -17317 -5193 Q -17709 -5193 -18677 -5033 Q -18677 -5033 -18677 -5033 L -18677 -5033 Q -19497 -4890 -20177 -4783 Q -20858 -4676 -21981 -4084 L -22081 -4032 Q -20529 -3843 -19680 -3207 Q -18831 -2572 -17223 -1844 Q -15616 -1116 -14622 -750 Q -13082 -183 -11366 379 Q -9037 1141 -7950 1832 Q -7702 1990 -7310 2306 Q -7008 2549 -6777 2656 Q -6681 2605 -6270 2358 Q -5944 2163 -5689 2048 Q -4911 1700 -3802 1638 L -3387 1624 Q -3336 1623 -3286 1623 Q -3185 1623 -3083 1626 Q -2338 1640 -1571 1771 Q -1002 1868 -651 1977 L -351 1356 Q -148 922 -65 489 Q 52 -118 -87 -636 Q -206 -1080 -510 -1441 L -837 -1452 L -1697 -1493 Q -2293 -1525 -3816 -1665 Q -5339 -1806 -7683 -3017 L -7880 -3118 L -7881 -3118 L -7969 -3113 Q -8029 -3110 -8066 -3110 Q -8088 -3110 -8102 -3111 Q -8383 -3138 -8685 -3301 Q -9958 -4014 -11952 -4664 Q -13773 -5257 -15169 -5257 Z">

</path>

<path fill="none" stroke-opacity="1.000" stroke="rgb(0,0,0)" stroke-linejoin="round" stroke-linecap="round" stroke-width="40" d="M -11575 -3851 Q -14515 -4756 -15884 -4567 Q -17269 -4376 -17276 -4150 Q -17594 -3893 -17703 -3551 M -18677 -5032 Q -19497 -4889 -20177 -4782 Q -20858 -4675 -21981 -4083 L -22081 -4031 Q -20529 -3842 -19680 -3206 Q -18831 -2571 -17223 -1843 Q -15616 -1115 -14622 -749 Q -13082 -182 -11366 380 Q -9037 1142 -7950 1833 Q -7702 1991 -7310 2307 Q -7008 2550 -6777 2657 Q -6681 2606 -6270 2359 Q -5944 2164 -5689 2049 Q -4911 1701 -3802 1639 L -3387 1625 Q -3235 1623 -3083 1627 Q -2338 1641 -1571 1772 Q -1002 1869 -651 1978 L -351 1357 Q -148 923 -65 490 Q 52 -117 -87 -635 Q -206 -1079 -510 -1440 L -837 -1451 L -1697 -1492 Q -2293 -1524 -3816 -1664 Q -5339 -1805 -7683 -3016 L -7880 -3117 L -7881 -3117 L -7969 -3112 Q -8065 -3107 -8102 -3110 Q -8383 -3137 -8685 -3300 Q -9958 -4013 -11952 -4663 Q -13947 -5313 -15431 -5251 L -17303 -5192 Q -17691 -5195 -18677 -5032 Z M -18677 -5032 Q -18971 -4371 -19097 -4208 Q -19300 -3946 -19274 -3593 Q -19261 -3417 -19191 -3218 Q -19082 -2911 -18785 -2748 Q -18825 -2881 -18892 -3016 Q -18956 -3145 -18873 -3524 L -18866 -3556 Q -18576 -3995 -18362 -4071 Q -18149 -4148 -17969 -4184 Q -18147 -3824 -18163 -3499 Q -18189 -2972 -17788 -2536 Q -17693 -2433 -17573 -2360 Q -17865 -3048 -17703 -3551">

</path>

<path fill="none" stroke-opacity="1.000" stroke="rgb(0,0,0)" stroke-linejoin="round" stroke-linecap="round" stroke-width="28.571998006975587" d="M -10784 -3547 L -10801 -3553 M -12891 -3532 L -13130 -3636 M -10249 -2198 Q -10317 -2151 -10359 -2092 L -9964 -1802 M -10359 -2092 L -10360 -2092 L -10411 -2020 M -10359 -2092 Q -10586 -2253 -10819 -2405 M -9809 -3272 Q -10314 -3443 -10784 -3547 M -2197 -1098 L -2188 -1099 L -2099 -1112 M -2042 -1119 L -1814 -1157 M -12891 -3532 L -12805 -3493 M -11397 -2845 L -11454 -2797 L -11403 -2767 L -11164 -2623 M -11454 -2797 L -11490 -2761 L -11510 -2732 M -12080 -3141 Q -12287 -3249 -12496 -3349 M -11454 -2797 L -11777 -2979 M -11443 -293 Q -11838 -454 -12273 -620 M -10245 224 L -10473 121 Q -10766 -11 -11088 -146 M -7294 -2112 L -7592 -2282 Q -7847 -2423 -8113 -2556 M -8599 -2788 Q -9012 -2977 -9405 -3126 M -9305 -1270 L -9345 -1245 L -9376 -1228 M -9231 -1325 Q -9267 -1296 -9305 -1270 Q -9183 -1165 -9062 -1056 Q -9003 -1091 -8956 -1131 M -9062 -1056 Q -9090 -1040 -9120 -1025 Q -9149 -1010 -9182 -1002 M -9425 -1372 L -9602 -1518 M -9305 -1270 L -9425 -1372 M -8810 -824 L -8826 -840 L -8868 -879 L -9062 -1056 M -8350 -371 L -8386 -408 L -8518 -542 M -8350 -371 L -8373 -354 L -8390 -339 M -8277 -420 L -8350 -371 L -8196 -208 M -7817 216 L -7955 56 M -4009 -1112 L -3537 -1075 L -3226 -1070 M -5437 -1447 Q -4893 -1272 -4421 -1179 M -2685 -1075 L -2197 -1098 M -6649 -1902 Q -6204 -1715 -5797 -1569 M -4541 1409 L -4667 1437 M -4035 1314 L -4172 1337 M -3303 1227 L -3405 1236 M -7057 1218 L -6955 1380 M -3405 1236 Q -3719 1263 -4035 1314 M -5904 1807 L -5982 1836 M -5309 1609 L -5481 1662 M -4667 1437 Q -4986 1511 -5309 1609 M -3090 1214 L -3303 1227 M -7129 954 L -7235 957 L -7113 1133 L -7048 1132 M -7235 957 L -7308 967 L -7339 970 M -7235 957 L -7417 711 Q -7608 461 -7817 216 M -7548 1648 Q -7314 1797 -7106 1943 M -6592 2082 Q -6286 1949 -5982 1836 M -7605 1612 L -7785 1501 M -7113 1133 L -7209 1139 Q -7218 1140 -7226 1148 M -7057 1218 L -7069 1200 L -7113 1133 M -9157 746 Q -9410 618 -9679 489 L -9919 376 M -8179 1269 Q -8355 1169 -8541 1068 M -8608 1032 L -8873 891 M -6592 2082 L -6646 2106 M -7106 1943 L -6980 2033 M -14559 -4161 Q -14837 -4249 -15120 -4326 M -16825 -2169 L -17269 -2306 M -14886 -1547 L -15606 -1783 M -13754 -1161 L -14472 -1408 M -15964 -1898 L -16525 -2075 M -13479 -3779 Q -13855 -3928 -14242 -4058 M -12620 -751 L -13326 -1009">

</path>

<path fill="none" stroke-opacity="1.000" stroke="rgb(0,0,0)" stroke-linejoin="round" stroke-linecap="round" stroke-width="28.571998006975587" d="M -2099 -1112 L -2042 -1119">

</path>

</g>

</g>

<g transform="matrix(0.489990234375 0 0 0.489990234375 14898 11265)">

<g>

<path fill-opacity="1.000" fill="#892427" d="M 29 -2731 Q 18 -2731 8 -2731 Q -776 -2726 -1474 -2386 Q -1599 -2325 -1713 -2248 Q -1836 -2166 -1946 -2064 L -2106 -1921 Q -2052 -1146 -1855 -395 Q -1659 357 -1282 1029 L -1276 1040 Q -894 1719 -385 2301 Q -138 2582 102 2582 Q 356 2582 602 2267 Q 800 2015 923 1716 Q 1200 1045 1441 361 Q 1694 -359 1875 -1101 Q 2015 -1677 1895 -2259 L 1717 -2350 Q 1597 -2408 1472 -2457 Q 775 -2731 29 -2731 Z M -1970 1830 Q -2032 2311 -1941 2784 L -1927 2835 Q -1807 2714 -1673 2714 Q -1610 2714 -1543 2741 Q -1434 2786 -1367 2898 Q -1289 3028 -1245 3172 L -1222 3164 Q -991 3009 -923 2720 L -896 2627 Q -1194 2510 -1458 2316 Q -1629 2191 -1785 2034 Q -1883 1935 -1970 1830 Z M 2090 2025 Q 1942 2169 1782 2285 Q 1453 2524 1069 2647 Q 1240 2920 1464 3159 L 1495 3185 Q 1485 2702 1801 2702 Q 1871 2702 1958 2726 Q 2051 2751 2109 2838 L 2146 2897 Q 2234 2453 2090 2025 Z">

</path>

<path fill-opacity="1.000" fill="#B12432" d="M 1895 -2259 Q 2015 -1677 1875 -1101 Q 1694 -359 1441 361 Q 1200 1045 923 1716 Q 800 2015 602 2267 Q 356 2582 102 2582 Q -138 2582 -385 2301 Q -894 1719 -1276 1040 L -1282 1029 L -1282 1029 Q -1282 1029 -1282 1029 Q -1659 357 -1855 -395 Q -2052 -1146 -2106 -1921 Q -2608 -1486 -3180 -1169 L -3155 -914 Q -3093 -111 -3225 679 Q -2578 909 -2203 1509 Q -2097 1677 -1970 1830 Q -1883 1935 -1785 2034 Q -1629 2191 -1458 2316 Q -1194 2510 -896 2627 Q -717 2697 -525 2739 Q -231 2803 76 2803 Q 518 2803 988 2671 L 1069 2647 Q 1453 2524 1782 2285 Q 1942 2169 2090 2025 Q 2251 1867 2398 1675 Q 2848 1083 3270 825 Q 3289 538 3323 253 Q 3408 -449 3399 -1155 Q 3043 -1323 2763 -1604 Q 2369 -2000 1895 -2259 Z">

</path>

<path fill="none" stroke-opacity="1.000" stroke="rgb(0,0,0)" stroke-linejoin="round" stroke-linecap="round" stroke-width="28.571998006975587" d="M 1717 -2350 L 1791 -2180 M 1971 -1332 Q 1976 -1190 1966 -1045 M 1884 -1897 Q 1918 -1770 1940 -1642 M 1925 -736 L 1908 -655 L 1866 -464 M -1713 -2248 L -1742 -2149 M -1786 -1954 Q -1819 -1782 -1827 -1606 M -1282 1029 L -1286 1001 M -1716 -728 L -1689 -641 L -1627 -444 M -1822 -1307 Q -1811 -1148 -1779 -987 M -1401 404 L -1339 701 M -1263 1557 Q -1274 1698 -1301 1834 M -1282 1029 Q -1266 1153 -1260 1273 M -1458 2316 Q -1411 2213 -1374 2107 M 1782 2285 Q 1730 2222 1688 2157 M 1484 1644 Q 1503 1765 1546 1881 M 1534 1012 L 1508 1124 Q 1484 1229 1475 1330 M 1665 437 L 1603 712 M -1548 -175 L -1469 121 M 1798 -157 L 1735 128">

</path>

<path fill="none" stroke-opacity="1.000" stroke="rgb(0,0,0)" stroke-linejoin="round" stroke-linecap="round" stroke-width="40" d="M -2106 -1921 L -1946 -2064 Q -1836 -2166 -1713 -2248 Q -1599 -2325 -1474 -2386 Q -776 -2726 8 -2731 Q 765 -2735 1472 -2457 Q 1597 -2408 1717 -2350 L 1895 -2259 Q 2369 -2000 2763 -1604 Q 3043 -1323 3399 -1155 L 3461 -1127 M -3227 -1143 L -3180 -1169 Q -2608 -1486 -2106 -1921 M -3225 679 Q -2578 909 -2203 1509 Q -2097 1677 -1970 1830 Q -1883 1935 -1785 2034 Q -1629 2191 -1458 2316 M -1970 1830 Q -2032 2311 -1941 2784 L -1927 2835 Q -1750 2657 -1543 2741 Q -1434 2786 -1367 2898 Q -1289 3028 -1245 3172 L -1222 3164 Q -991 3009 -923 2720 L -896 2627 Q -1194 2510 -1458 2316 M -896 2627 Q -717 2697 -525 2739 Q 190 2895 988 2671 L 1069 2647 Q 1453 2524 1782 2285 M -3243 673 L -3225 679 M 3270 825 Q 3391 751 3509 704 M 3270 825 Q 2848 1083 2398 1675 Q 2251 1867 2090 2025 Q 2234 2453 2146 2897 L 2109 2838 Q 2051 2751 1958 2726 Q 1483 2595 1495 3185 L 1464 3159 Q 1240 2920 1069 2647 M 2090 2025 Q 1942 2169 1782 2285">

</path>

</g>

</g>

<g transform="matrix(0.489990234375 0 0 0.489990234375 14924 10692)">

<g>

<path fill-opacity="1.000" fill="rgb(255,255,255)" d="M 1846 -2265 Q 1594 -1822 1766 -1340 L 1789 -1278 Q 1866 -1391 1927 -1548 Q 2065 -1910 1846 -2265 Z M -1867 -2415 Q -1989 -2164 -1980 -1756 Q -1974 -1468 -1882 -1277 Q -1464 -1800 -1840 -2376 L -1867 -2415 Z M 1486 -2662 Q 1274 -2526 1060 -2424 Q 1059 -1679 1125 -1323 Q 1187 -982 1265 -982 Q 1268 -982 1272 -983 Q 1419 -983 1540 -1046 Q 1036 -1775 1617 -2398 L 1691 -2468 Q 1602 -2565 1486 -2662 Z M -1445 -2774 Q -1592 -2731 -1698 -2638 Q -1621 -2553 -1561 -2462 Q -1084 -1737 -1547 -964 Q -1399 -907 -1199 -907 Q -1196 -907 -1192 -907 Q -1026 -1438 -1049 -1865 L -1078 -2331 L -1159 -2447 Q -1267 -2593 -1445 -2774 Z">

</path>

<path fill-opacity="1.000" fill="rgb(0,0,0)" d="M 1691 -2468 L 1617 -2398 Q 1036 -1775 1540 -1046 Q 1681 -1120 1789 -1278 L 1766 -1340 Q 1594 -1822 1846 -2265 Q 1783 -2367 1691 -2468 Z M -1707 -2640 Q -1720 -2640 -1720 -2619 Q -1809 -2535 -1867 -2415 L -1840 -2376 Q -1464 -1800 -1882 -1277 Q -1829 -1166 -1547 -964 Q -1084 -1737 -1561 -2462 Q -1621 -2553 -1698 -2638 Q -1703 -2640 -1707 -2640 Z">

</path>

<path fill-opacity="1.000" fill="#B12432" d="M 504 -7676 Q 483 -7676 458 -7671 Q 303 -7640 110 -7355 L 72 -7174 Q -76 -6553 -85 -5921 L 0 -5471 Q 3 -5139 -5 -4807 L -56 -2987 Q -61 -2830 -133 -2715 Q -250 -2532 -380 -2532 Q -523 -2532 -684 -2751 Q -916 -2822 -1072 -3110 Q -1126 -3209 -1180 -3275 Q -1287 -3405 -1396 -3405 Q -1476 -3405 -1556 -3335 Q -1802 -3122 -1549 -2878 L -1445 -2774 Q -1267 -2593 -1159 -2447 L -1078 -2331 Q -994 -2203 -931 -2074 Q -902 -2013 -876 -1937 Q -812 -1895 -770 -1832 Q -381 -1250 -299 -528 Q -190 432 -51 1385 L -39 1575 Q 14 2265 -215 2911 Q -141 3258 -60 3411 Q 33 3510 122 3510 Q 271 3510 409 3232 Q 627 2788 824 1738 Q 910 1280 991 893 Q 1073 494 1151 169 L 1190 6 Q 1359 -676 1540 -1046 L 1540 -1046 Q 1419 -983 1272 -983 Q 1269 -982 1265 -982 Q 1187 -982 1125 -1323 Q 1059 -1679 1060 -2424 Q 1274 -2526 1486 -2662 L 1592 -2732 Q 1934 -2967 1778 -3216 Q 1683 -3366 1533 -3366 Q 1434 -3366 1310 -3301 L 1238 -3261 Q 1248 -3865 882 -4325 Q 516 -4786 384 -5169 Q 251 -5552 317 -6094 Q 382 -6637 557 -7181 Q 608 -7338 621 -7445 L 621 -7445 Q 621 -7445 621 -7445 Q 649 -7676 504 -7676 Z">

</path>

<path fill-opacity="1.000" fill="#892427" d="M 110 -7355 Q -41 -7133 -216 -6756 Q -614 -5896 -597 -5023 Q -592 -4788 -615 -4480 L -636 -4249 Q -1078 -3769 -1180 -3275 Q -1126 -3209 -1072 -3110 Q -916 -2822 -684 -2751 Q -524 -2532 -380 -2532 Q -249 -2532 -133 -2715 Q -61 -2830 -56 -2987 L -5 -4807 Q 3 -5139 0 -5471 L -85 -5921 Q -76 -6553 72 -7174 L 110 -7355 Z M -1078 -2331 L -1049 -1865 Q -1026 -1438 -1192 -907 Q -1195 -907 -1199 -907 Q -1399 -907 -1547 -964 L -1547 -964 Q -1224 -399 -998 123 Q -787 610 -660 1058 Q -566 1388 -485 1706 Q -339 2281 -234 2814 L -215 2911 Q 14 2265 -39 1575 L -51 1385 Q -190 432 -299 -528 Q -381 -1250 -770 -1832 Q -812 -1895 -876 -1937 L -876 -1937 Q -876 -1937 -876 -1937 Q -902 -2013 -931 -2074 Q -994 -2203 -1078 -2331 Z">

</path>

<path fill="none" stroke-opacity="1.000" stroke="rgb(0,0,0)" stroke-linejoin="round" stroke-linecap="round" stroke-width="40" d="M 621 -7445 Q 653 -7710 458 -7671 Q 303 -7640 110 -7355 M 621 -7445 Q 608 -7338 557 -7181 Q 382 -6637 317 -6094 Q 251 -5552 384 -5169 Q 516 -4786 882 -4325 Q 1248 -3865 1238 -3261 L 1310 -3301 Q 1621 -3465 1778 -3216 Q 1934 -2967 1592 -2732 L 1486 -2662 Q 1602 -2565 1691 -2468 Q 1783 -2367 1846 -2265 Q 2065 -1910 1927 -1548 Q 1866 -1391 1789 -1278 Q 1681 -1120 1540 -1046 Q 1359 -676 1190 6 L 1151 169 Q 1073 494 991 893 Q 910 1280 824 1738 Q 627 2788 409 3232 Q 190 3675 -60 3411 Q -141 3258 -215 2911 L -234 2814 Q -339 2281 -485 1706 Q -566 1388 -660 1058 Q -787 610 -998 123 Q -1224 -399 -1547 -964 Q -1829 -1166 -1882 -1277 Q -1974 -1468 -1980 -1756 Q -1989 -2164 -1867 -2415 Q -1809 -2535 -1720 -2619 M -1698 -2638 Q -1592 -2731 -1445 -2774 L -1549 -2878 Q -1802 -3122 -1556 -3335 Q -1366 -3501 -1180 -3275 Q -1078 -3769 -636 -4249 L -615 -4480 Q -592 -4788 -597 -5023 Q -614 -5896 -216 -6756 Q -41 -7133 110 -7355 M 1486 -2662 Q 1274 -2526 1060 -2424 Q 1059 -1679 1125 -1323 Q 1190 -968 1272 -983 Q 1419 -983 1540 -1046 Q 1036 -1775 1617 -2398 L 1691 -2468 M 1060 -2424 L 901 -2354 Q 553 -2211 543 -1730 M 483 -2695 Q 941 -3089 1238 -3261 M 1846 -2265 Q 1594 -1822 1766 -1340 L 1789 -1278 M -684 -2751 Q -916 -2822 -1072 -3110 Q -1126 -3209 -1180 -3275 M -1445 -2774 Q -1267 -2593 -1159 -2447 L -1078 -2331 Q -994 -2203 -931 -2074 Q -902 -2013 -876 -1937 M -422 -2735 Q -563 -2714 -684 -2751 M -1882 -1277 Q -1464 -1800 -1840 -2376 L -1867 -2415 M -1720 -2619 L -1698 -2638 Q -1621 -2553 -1561 -2462 Q -1084 -1737 -1547 -964 Q -1396 -906 -1192 -907 Q -1026 -1438 -1049 -1865 L -1078 -2331 M -876 -1937 Q -823 -1783 -784 -1569">

</path>

<path fill="none" stroke-opacity="1.000" stroke="rgb(0,0,0)" stroke-linejoin="round" stroke-linecap="round" stroke-width="28.571998006975587" d="M 436 -7173 Q 526 -7324 621 -7445 M -85 -5921 L -9 -6156 M 128 -6532 Q 192 -6694 259 -6838 M 683 -1207 L 537 -1173 L 538 -1066 Q 536 -877 594 -693 L 683 -724 M 362 -1146 L 537 -1173 L 563 -1509 M 1151 169 L 790 -300 L 643 -221 M 594 -693 L 790 -300 L 945 -362 M 482 -664 L 594 -693 M 813 958 Q 901 924 991 893 M 387 1139 Q 512 1078 641 1025 M -51 1385 Q 33 1331 120 1281 L 147 1266 M -303 -5224 L -204 -5527 M -89 -5906 L -85 -5921 M -615 -4480 Q -527 -4618 -411 -4921 M -765 -1207 L -725 -997 L -523 -966 M -998 123 L -819 -378 L -906 -422 M -819 -378 L -780 -542 Q -727 -764 -725 -997 L -865 -1006 M -819 -378 L -644 -282 M -485 1706 Q -406 1633 -319 1569 M -76 1401 L -51 1385">

</path>

</g>

</g>

</g>

</g>

</g>

</svg>
