<?xml version="1.0" encoding="utf-8"?>
<!DOCTYPE svg PUBLIC "-//W3C//DTD SVG 1.1//EN" "http://www.w3.org/Graphics/SVG/1.1/DTD/svg11.dtd">
<svg version="1.1" xmlns="http://www.w3.org/2000/svg" xmlns:xlink="http://www.w3.org/1999/xlink" viewBox="0 0 30000 20000">

<g enable-background="new">

<g>

<g>

<g transform="matrix(-0.489990234375 0 0 0.489990234375 15497 11024)">

<g>

<path fill-opacity="1.000" fill="#892427" d="M -1880 -344 L -3354 346 Q -3993 661 -4619 911 Q -5281 1172 -5994 1336 Q -6647 1481 -7291 1910 L -7448 2022 Q -8192 2598 -8663 2862 L -8675 2867 Q -8750 2897 -8813 2910 L -9231 3022 Q -10394 3514 -11204 4306 Q -11991 5132 -12386 6202 Q -12767 7347 -12874 7892 L -12781 7916 Q -12575 7969 -12372 8031 Q -12053 6923 -11424 6083 Q -10752 5243 -10019 4587 Q -9755 4379 -9491 4299 Q -8833 4118 -8235 4040 Q -7218 3283 -6420 3283 Q -6404 3283 -6389 3283 Q -6380 3283 -6372 3283 Q -5832 3283 -5357 3588 Q -4833 3863 -4605 3958 Q -4572 3971 -4536 3971 Q -4464 3971 -4377 3919 L -4047 3210 Q -3620 2240 -3124 1282 Q -2608 309 -1880 -344 Z M -2460 2496 Q -2929 2508 -3480 3284 Q -4031 4060 -4435 4815 Q -4607 4822 -4774 4893 Q -4819 4907 -4868 4936 L -4873 4935 Q -4881 4926 -4896 4924 Q -4928 4911 -4959 4905 Q -4992 4892 -5032 4892 Q -5040 4892 -5048 4892 Q -5092 4887 -5141 4887 Q -5189 4887 -5242 4892 Q -5309 4920 -5367 4920 Q -5395 4920 -5421 4913 Q -5431 4902 -5441 4902 L -5529 4905 L -5550 4907 Q -5604 4880 -5680 4880 Q -5732 4880 -5793 4893 Q -5795 4893 -5796 4893 Q -5812 4893 -5831 4902 L -5843 4901 L -5874 4897 L -6029 4885 L -6273 4830 L -6400 4798 Q -6546 4829 -6696 4931 L -6851 5038 Q -5855 5402 -5710 5469 Q -5673 5481 -5647 5505 Q -6172 5929 -7092 6740 Q -7842 7267 -8808 7834 Q -9421 8196 -9893 8833 Q -9787 8893 -9678 8893 Q -9487 8893 -9287 8708 Q -8477 8142 -7810 7704 Q -7502 7483 -6995 7015 L -6959 6981 L -6738 6776 L -6573 6619 L -6385 6434 L -6215 6268 Q -6121 6179 -6035 6109 L -5985 6068 L -5937 6027 L -5902 6000 L -5867 5973 Q -5845 5950 -5827 5939 Q -5493 5609 -5262 5551 Q -5250 5541 -5240 5541 Q -5236 5541 -5233 5542 Q -5214 5530 -5195 5526 Q -5044 5445 -4896 5415 L -4872 5389 Q -4714 5248 -4560 5191 Q -4393 4907 -4218 4647 Q -4182 4629 -4153 4602 Q -4126 4552 -4023 4410 Q -3879 4201 -3870 4180 L -3854 4134 L -3834 4080 Q -3647 3808 -3463 3568 L -3378 3482 L -3308 3413 Q -3212 3321 -3132 3189 L -3100 3131 L -3077 3105 L -3077 3105 Q -3077 3105 -3077 3105 L -3077 3103 Q -2875 2877 -2673 2683 Q -2565 2582 -2460 2496 Z">

</path>

<path fill-opacity="1.000" fill="#B12432" d="M -1880 -344 Q -2608 309 -3124 1282 Q -3620 2240 -4047 3210 L -4377 3919 Q -4464 3971 -4536 3971 Q -4572 3971 -4605 3958 Q -4833 3863 -5357 3588 Q -5831 3283 -6372 3283 Q -6381 3283 -6389 3283 Q -6404 3283 -6420 3283 Q -7218 3283 -8235 4040 Q -8833 4118 -9491 4299 Q -9755 4379 -10019 4587 Q -10752 5243 -11424 6083 Q -12053 6923 -12372 8031 Q -12575 7969 -12781 7916 L -12874 7892 Q -12767 7347 -12386 6202 Q -11991 5132 -11204 4306 Q -10394 3514 -9231 3022 L -8813 2910 Q -8750 2897 -8675 2867 L -8663 2862 Q -8192 2598 -7448 2022 L -7291 1910 Q -6647 1481 -5994 1336 Q -5281 1172 -4619 911 Q -3993 661 -3354 346 L -1880 -344 Z M -2460 2496 Q -2565 2582 -2673 2683 Q -2875 2877 -3077 3103 L -3077 3105 L -3100 3131 L -3132 3189 Q -3212 3321 -3308 3413 L -3378 3482 L -3463 3568 Q -3647 3808 -3834 4080 L -3854 4134 L -3870 4180 Q -3879 4201 -4023 4410 Q -4126 4552 -4153 4602 Q -4182 4629 -4218 4647 Q -4393 4907 -4560 5191 Q -4714 5248 -4872 5389 L -4896 5415 Q -5044 5445 -5195 5526 Q -5214 5530 -5233 5542 Q -5236 5541 -5240 5541 Q -5250 5541 -5262 5551 Q -5493 5609 -5827 5939 Q -5845 5950 -5867 5973 L -5902 6000 L -5937 6027 L -5985 6068 L -6035 6109 Q -6121 6179 -6215 6268 L -6385 6434 L -6573 6619 L -6738 6776 L -6959 6981 L -6995 7015 Q -7502 7483 -7810 7704 Q -8477 8142 -9287 8708 Q -9488 8893 -9678 8893 Q -9787 8893 -9893 8833 Q -9421 8196 -8808 7834 Q -7842 7267 -7092 6740 Q -6172 5929 -5647 5505 Q -5673 5481 -5710 5469 Q -5855 5402 -6851 5038 L -6696 4931 Q -6546 4829 -6400 4798 L -6273 4830 L -6029 4885 L -5874 4897 L -5843 4901 L -5831 4902 Q -5812 4893 -5796 4893 Q -5794 4893 -5793 4893 Q -5731 4880 -5680 4880 Q -5605 4880 -5550 4907 L -5529 4905 L -5441 4902 Q -5431 4902 -5421 4913 Q -5395 4920 -5367 4920 Q -5309 4920 -5242 4892 Q -5189 4887 -5141 4887 Q -5092 4887 -5048 4892 Q -5040 4892 -5032 4892 Q -4991 4892 -4959 4905 Q -4928 4911 -4896 4924 Q -4881 4926 -4873 4935 L -4868 4936 Q -4819 4907 -4774 4893 Q -4607 4822 -4435 4815 Q -4031 4060 -3480 3284 Q -2929 2508 -2460 2496 Z M -655 -1616 Q -774 -1616 -826 -1597 L -1151 -1467 L -1481 -1316 Q -2066 -1012 -2547 -732 Q -4366 469 -6285 633 L -6453 650 Q -6479 701 -6509 732 Q -6567 825 -6596 853 Q -6785 1061 -7050 1081 Q -7617 1147 -8164 1361 Q -8779 1659 -9313 1817 Q -10408 2106 -11643 3759 Q -12779 5692 -13114 7452 L -13188 7808 Q -13417 8953 -13364 9308 Q -13364 9308 -13364 9308 L -13364 9308 Q -13356 9474 -13328 9663 Q -13304 9818 -13301 9818 Q -13298 9818 -13324 9603 L -13324 9603 Q -12737 13360 -9059 16132 Q -9375 15727 -9828 15118 Q -11139 12825 -11131 11919 Q -11116 10306 -10004 9389 Q -8910 8502 -7839 7814 Q -7097 7188 -6458 6633 Q -5842 6112 -5466 5906 Q -5294 5817 -4969 5792 L -4520 5756 Q -4492 5644 -4316 5212 Q -4161 4866 -4025 4635 Q -3612 3907 -2923 3251 Q -2696 3035 -2449 2863 Q -1940 2492 -1334 2308 Q -878 2173 -570 2173 L -308 1454 Q -123 958 -53 506 Q 49 -119 -73 -611 Q -221 -1223 -572 -1614 Q -617 -1616 -655 -1616 Z">

</path>

<path fill="none" stroke-opacity="1.000" stroke="rgb(0,0,0)" stroke-linejoin="round" stroke-linecap="round" stroke-width="28.571998006975587" d="M -2265 -66 Q -2057 -215 -1880 -344 M -7448 2022 Q -7125 1870 -6774 1789 M -1758 -442 Q -1657 -511 -1571 -588 M -1880 -344 L -1874 -348 L -1803 -407 M -8675 2867 L -8663 2862 Q -8254 2542 -7776 2193 M -3233 680 Q -3059 557 -2897 426 L -2673 244 M -2460 2496 Q -2565 2582 -2673 2683 Q -2875 2877 -3077 3103 L -3077 3105 L -3100 3131 M -3463 3568 Q -3647 3808 -3834 4080 M -4218 4647 Q -4393 4907 -4560 5191 L -4590 5241 M -3077 3105 Q -3120 3145 -3163 3200 M -4246 1224 Q -3853 1069 -3523 869 M -5635 1701 L -5899 1691 Q -6120 1685 -6357 1714 M -10019 4587 L -9941 4572 M -3385 3472 L -3463 3568 M -5155 1491 Q -4802 1417 -4508 1322 M -3834 4080 L -3933 4220 M -4174 4579 L -4218 4647 M -4868 4936 Q -4835 4948 -4813 4964 M -5550 4907 L -5633 4908 M -5529 4905 L -5550 4907 M -5831 4902 L -5843 4901 L -5874 4897 L -6029 4885 L -6056 4972 Q -6065 5019 -6086 5053 M -5487 4804 L -5529 4905 L -5441 4902 M -5242 4892 Q -5274 4885 -5310 4893 M -5529 4905 L -5542 4939 Q -5543 4948 -5551 4965 M -4868 4936 L -4873 4935 Q -4881 4926 -4896 4924 Q -4924 4951 -4956 4997 Q -4962 4994 -4967 5014 M -4959 4905 Q -4928 4911 -4896 4924 L -4857 4878 M -4894 4828 L -4959 4905 Q -4998 4889 -5048 4892 Q -5137 4882 -5242 4892 M -6273 4830 L -6400 4798 M -6995 7015 L -7113 7117 Q -7320 7297 -7498 7429 M -6273 4830 Q -6274 4865 -6282 4903 L -6292 4954 M -6261 4683 Q -6263 4751 -6273 4830 L -6029 4885 Q -6009 4789 -6001 4692 M -5233 5542 Q -5291 5566 -5349 5606 M -5195 5526 Q -5044 5445 -4896 5415 M -4959 4905 L -5003 4964 L -5022 4989 M -5599 5766 L -5827 5939 M -5985 6068 L -6035 6109 Q -6121 6179 -6215 6268 L -6385 6434 L -6573 6619 L -6738 6776 M -6959 6981 L -6995 7015 M -5937 6027 L -5902 6000 L -5867 5973 M -4896 5415 Q -4850 5392 -4807 5393 M -10019 4587 Q -10122 4607 -10236 4642 M -10545 4740 Q -10873 4864 -11188 5052 M -11441 5226 Q -11655 5391 -11861 5600 M -7490 4818 Q -7492 4743 -7505 4652 L -7504 4650 L -8056 4624 M -7497 4365 Q -7513 4512 -7504 4650 L -7012 4675 M -8664 4392 L -8668 4511 L -8619 4515 L -8388 4552 M -8668 4511 Q -8664 4550 -8667 4593 L -8662 4653 M -9264 4493 L -9656 4523 M -8668 4511 L -8976 4491 M -7693 7572 Q -7918 7727 -8195 7905 M -8420 8044 L -8896 8326 M -9192 8501 Q -9438 8640 -9695 8806 M -9980 9000 Q -10223 9167 -10477 9357 M -11165 10115 Q -11260 10272 -11331 10476 M -10706 9552 Q -10873 9709 -11023 9901 M -6400 4798 L -6594 4752 M -13364 9308 L -13342 9474 M -13324 9603 Q -12737 13360 -9059 16132">

</path>

<path fill="none" stroke-opacity="1.000" stroke="rgb(0,0,0)" stroke-linejoin="round" stroke-linecap="round" stroke-width="28.571998006975587" d="M -1803 -407 Q -1777 -423 -1758 -442">

</path>

<path fill="none" stroke-opacity="1.000" stroke="rgb(0,0,0)" stroke-linejoin="round" stroke-linecap="round" stroke-width="40" d="M -9059 16132 Q -9375 15727 -9828 15118 Q -11139 12825 -11131 11919 Q -11116 10306 -10004 9389 Q -8910 8502 -7839 7814 Q -7097 7188 -6458 6633 Q -5842 6112 -5466 5906 Q -5294 5817 -4969 5792 L -4520 5756 Q -4492 5644 -4316 5212 Q -4161 4866 -4025 4635 Q -3612 3907 -2923 3251 Q -2696 3035 -2449 2863 Q -1940 2492 -1334 2308 Q -878 2173 -570 2173 L -308 1454 Q -123 958 -53 506 Q 49 -119 -73 -611 Q -221 -1223 -572 -1614 Q -757 -1622 -826 -1597 L -1151 -1467 L -1481 -1316 Q -2066 -1012 -2547 -732 Q -4366 469 -6285 633 L -6453 650 Q -6479 701 -6509 732 Q -6567 825 -6596 853 Q -6785 1061 -7050 1081 Q -7617 1147 -8164 1361 Q -8779 1659 -9313 1817 Q -10408 2106 -11643 3759 Q -12779 5692 -13114 7452 L -13188 7808 Q -13417 8953 -13364 9308 Q -13246 9959 -12760 10773 Q -12294 11580 -11795 11833 Q -12054 11677 -12932 9758 L -11668 10545 Q -12193 10017 -12602 9325 Q -13013 8632 -12876 8375 Q -12956 8311 -12874 7892 Q -12767 7347 -12386 6202 Q -11991 5132 -11204 4306 Q -10394 3514 -9231 3022 M -5902 6000 L -5985 6068 L -5937 6027 M -11795 11833 L -11776 11842 L -11775 11843 L -11776 11842 M -13342 9474 L -13324 9603 Q -13275 10000 -13328 9663 Q -13356 9474 -13364 9308">

</path>

</g>

</g>

<g transform="matrix(0.489990234375 0 0 0.489990234375 14397 11024)">

<g>

<path fill-opacity="1.000" fill="#892427" d="M -1880 -344 L -3354 346 Q -3993 661 -4619 911 Q -5281 1172 -5994 1336 Q -6647 1481 -7291 1910 L -7448 2022 Q -8192 2598 -8663 2862 L -8675 2867 Q -8750 2897 -8813 2910 L -9231 3022 Q -10394 3514 -11204 4306 Q -11991 5132 -12386 6202 Q -12767 7347 -12874 7892 L -12781 7916 Q -12575 7969 -12372 8031 Q -12053 6923 -11424 6083 Q -10752 5243 -10019 4587 Q -9755 4379 -9491 4299 Q -8833 4118 -8235 4040 Q -7218 3283 -6420 3283 Q -6404 3283 -6389 3283 Q -6380 3283 -6372 3283 Q -5832 3283 -5357 3588 Q -4833 3863 -4605 3958 Q -4572 3971 -4536 3971 Q -4464 3971 -4377 3919 L -4047 3210 Q -3620 2240 -3124 1282 Q -2608 309 -1880 -344 Z M -2460 2496 Q -2929 2508 -3480 3284 Q -4031 4060 -4435 4815 Q -4607 4822 -4774 4893 Q -4819 4907 -4868 4936 L -4873 4935 Q -4881 4926 -4896 4924 Q -4928 4911 -4959 4905 Q -4992 4892 -5032 4892 Q -5040 4892 -5048 4892 Q -5092 4887 -5141 4887 Q -5189 4887 -5242 4892 Q -5309 4920 -5367 4920 Q -5395 4920 -5421 4913 Q -5431 4902 -5441 4902 L -5529 4905 L -5550 4907 Q -5604 4880 -5680 4880 Q -5732 4880 -5793 4893 Q -5795 4893 -5796 4893 Q -5812 4893 -5831 4902 L -5843 4901 L -5874 4897 L -6029 4885 L -6273 4830 L -6400 4798 Q -6546 4829 -6696 4931 L -6851 5038 Q -5855 5402 -5710 5469 Q -5673 5481 -5647 5505 Q -6172 5929 -7092 6740 Q -7842 7267 -8808 7834 Q -9421 8196 -9893 8833 Q -9787 8893 -9678 8893 Q -9487 8893 -9287 8708 Q -8477 8142 -7810 7704 Q -7502 7483 -6995 7015 L -6959 6981 L -6738 6776 L -6573 6619 L -6385 6434 L -6215 6268 Q -6121 6179 -6035 6109 L -5985 6068 L -5937 6027 L -5902 6000 L -5867 5973 Q -5845 5950 -5827 5939 Q -5493 5609 -5262 5551 Q -5250 5541 -5240 5541 Q -5236 5541 -5233 5542 Q -5214 5530 -5195 5526 Q -5044 5445 -4896 5415 L -4872 5389 Q -4714 5248 -4560 5191 Q -4393 4907 -4218 4647 Q -4182 4629 -4153 4602 Q -4126 4552 -4023 4410 Q -3879 4201 -3870 4180 L -3854 4134 L -3834 4080 Q -3647 3808 -3463 3568 L -3378 3482 L -3308 3413 Q -3212 3321 -3132 3189 L -3100 3131 L -3077 3105 L -3077 3105 Q -3077 3105 -3077 3105 L -3077 3103 Q -2875 2877 -2673 2683 Q -2565 2582 -2460 2496 Z">

</path>

<path fill-opacity="1.000" fill="#B12432" d="M -1880 -344 Q -2608 309 -3124 1282 Q -3620 2240 -4047 3210 L -4377 3919 Q -4464 3971 -4536 3971 Q -4572 3971 -4605 3958 Q -4833 3863 -5357 3588 Q -5831 3283 -6372 3283 Q -6381 3283 -6389 3283 Q -6404 3283 -6420 3283 Q -7218 3283 -8235 4040 Q -8833 4118 -9491 4299 Q -9755 4379 -10019 4587 Q -10752 5243 -11424 6083 Q -12053 6923 -12372 8031 Q -12575 7969 -12781 7916 L -12874 7892 Q -12767 7347 -12386 6202 Q -11991 5132 -11204 4306 Q -10394 3514 -9231 3022 L -8813 2910 Q -8750 2897 -8675 2867 L -8663 2862 Q -8192 2598 -7448 2022 L -7291 1910 Q -6647 1481 -5994 1336 Q -5281 1172 -4619 911 Q -3993 661 -3354 346 L -1880 -344 Z M -2460 2496 Q -2565 2582 -2673 2683 Q -2875 2877 -3077 3103 L -3077 3105 L -3100 3131 L -3132 3189 Q -3212 3321 -3308 3413 L -3378 3482 L -3463 3568 Q -3647 3808 -3834 4080 L -3854 4134 L -3870 4180 Q -3879 4201 -4023 4410 Q -4126 4552 -4153 4602 Q -4182 4629 -4218 4647 Q -4393 4907 -4560 5191 Q -4714 5248 -4872 5389 L -4896 5415 Q -5044 5445 -5195 5526 Q -5214 5530 -5233 5542 Q -5236 5541 -5240 5541 Q -5250 5541 -5262 5551 Q -5493 5609 -5827 5939 Q -5845 5950 -5867 5973 L -5902 6000 L -5937 6027 L -5985 6068 L -6035 6109 Q -6121 6179 -6215 6268 L -6385 6434 L -6573 6619 L -6738 6776 L -6959 6981 L -6995 7015 Q -7502 7483 -7810 7704 Q -8477 8142 -9287 8708 Q -9488 8893 -9678 8893 Q -9787 8893 -9893 8833 Q -9421 8196 -8808 7834 Q -7842 7267 -7092 6740 Q -6172 5929 -5647 5505 Q -5673 5481 -5710 5469 Q -5855 5402 -6851 5038 L -6696 4931 Q -6546 4829 -6400 4798 L -6273 4830 L -6029 4885 L -5874 4897 L -5843 4901 L -5831 4902 Q -5812 4893 -5796 4893 Q -5794 4893 -5793 4893 Q -5731 4880 -5680 4880 Q -5605 4880 -5550 4907 L -5529 4905 L -5441 4902 Q -5431 4902 -5421 4913 Q -5395 4920 -5367 4920 Q -5309 4920 -5242 4892 Q -5189 4887 -5141 4887 Q -5092 4887 -5048 4892 Q -5040 4892 -5032 4892 Q -4991 4892 -4959 4905 Q -4928 4911 -4896 4924 Q -4881 4926 -4873 4935 L -4868 4936 Q -4819 4907 -4774 4893 Q -4607 4822 -4435 4815 Q -4031 4060 -3480 3284 Q -2929 2508 -2460 2496 Z M -655 -1616 Q -774 -1616 -826 -1597 L -1151 -1467 L -1481 -1316 Q -2066 -1012 -2547 -732 Q -4366 469 -6285 633 L -6453 650 Q -6479 701 -6509 732 Q -6567 825 -6596 853 Q -6785 1061 -7050 1081 Q -7617 1147 -8164 1361 Q -8779 1659 -9313 1817 Q -10408 2106 -11643 3759 Q -12779 5692 -13114 7452 L -13188 7808 Q -13417 8953 -13364 9308 Q -13364 9308 -13364 9308 L -13364 9308 Q -13356 9474 -13328 9663 Q -13304 9818 -13301 9818 Q -13298 9818 -13324 9603 L -13324 9603 Q -12737 13360 -9059 16132 Q -9375 15727 -9828 15118 Q -11139 12825 -11131 11919 Q -11116 10306 -10004 9389 Q -8910 8502 -7839 7814 Q -7097 7188 -6458 6633 Q -5842 6112 -5466 5906 Q -5294 5817 -4969 5792 L -4520 5756 Q -4492 5644 -4316 5212 Q -4161 4866 -4025 4635 Q -3612 3907 -2923 3251 Q -2696 3035 -2449 2863 Q -1940 2492 -1334 2308 Q -878 2173 -570 2173 L -308 1454 Q -123 958 -53 506 Q 49 -119 -73 -611 Q -221 -1223 -572 -1614 Q -617 -1616 -655 -1616 Z">

</path>

<path fill="none" stroke-opacity="1.000" stroke="rgb(0,0,0)" stroke-linejoin="round" stroke-linecap="round" stroke-width="28.571998006975587" d="M -2265 -66 Q -2057 -215 -1880 -344 M -7448 2022 Q -7125 1870 -6774 1789 M -1758 -442 Q -1657 -511 -1571 -588 M -1880 -344 L -1874 -348 L -1803 -407 M -8675 2867 L -8663 2862 Q -8254 2542 -7776 2193 M -3233 680 Q -3059 557 -2897 426 L -2673 244 M -2460 2496 Q -2565 2582 -2673 2683 Q -2875 2877 -3077 3103 L -3077 3105 L -3100 3131 M -3463 3568 Q -3647 3808 -3834 4080 M -4218 4647 Q -4393 4907 -4560 5191 L -4590 5241 M -3077 3105 Q -3120 3145 -3163 3200 M -4246 1224 Q -3853 1069 -3523 869 M -5635 1701 L -5899 1691 Q -6120 1685 -6357 1714 M -10019 4587 L -9941 4572 M -3385 3472 L -3463 3568 M -5155 1491 Q -4802 1417 -4508 1322 M -3834 4080 L -3933 4220 M -4174 4579 L -4218 4647 M -4868 4936 Q -4835 4948 -4813 4964 M -5550 4907 L -5633 4908 M -5529 4905 L -5550 4907 M -5831 4902 L -5843 4901 L -5874 4897 L -6029 4885 L -6056 4972 Q -6065 5019 -6086 5053 M -5487 4804 L -5529 4905 L -5441 4902 M -5242 4892 Q -5274 4885 -5310 4893 M -5529 4905 L -5542 4939 Q -5543 4948 -5551 4965 M -4868 4936 L -4873 4935 Q -4881 4926 -4896 4924 Q -4924 4951 -4956 4997 Q -4962 4994 -4967 5014 M -4959 4905 Q -4928 4911 -4896 4924 L -4857 4878 M -4894 4828 L -4959 4905 Q -4998 4889 -5048 4892 Q -5137 4882 -5242 4892 M -6273 4830 L -6400 4798 M -6995 7015 L -7113 7117 Q -7320 7297 -7498 7429 M -6273 4830 Q -6274 4865 -6282 4903 L -6292 4954 M -6261 4683 Q -6263 4751 -6273 4830 L -6029 4885 Q -6009 4789 -6001 4692 M -5233 5542 Q -5291 5566 -5349 5606 M -5195 5526 Q -5044 5445 -4896 5415 M -4959 4905 L -5003 4964 L -5022 4989 M -5599 5766 L -5827 5939 M -5985 6068 L -6035 6109 Q -6121 6179 -6215 6268 L -6385 6434 L -6573 6619 L -6738 6776 M -6959 6981 L -6995 7015 M -5937 6027 L -5902 6000 L -5867 5973 M -4896 5415 Q -4850 5392 -4807 5393 M -10019 4587 Q -10122 4607 -10236 4642 M -10545 4740 Q -10873 4864 -11188 5052 M -11441 5226 Q -11655 5391 -11861 5600 M -7490 4818 Q -7492 4743 -7505 4652 L -7504 4650 L -8056 4624 M -7497 4365 Q -7513 4512 -7504 4650 L -7012 4675 M -8664 4392 L -8668 4511 L -8619 4515 L -8388 4552 M -8668 4511 Q -8664 4550 -8667 4593 L -8662 4653 M -9264 4493 L -9656 4523 M -8668 4511 L -8976 4491 M -7693 7572 Q -7918 7727 -8195 7905 M -8420 8044 L -8896 8326 M -9192 8501 Q -9438 8640 -9695 8806 M -9980 9000 Q -10223 9167 -10477 9357 M -11165 10115 Q -11260 10272 -11331 10476 M -10706 9552 Q -10873 9709 -11023 9901 M -6400 4798 L -6594 4752 M -13364 9308 L -13342 9474 M -13324 9603 Q -12737 13360 -9059 16132">

</path>

<path fill="none" stroke-opacity="1.000" stroke="rgb(0,0,0)" stroke-linejoin="round" stroke-linecap="round" stroke-width="28.571998006975587" d="M -1803 -407 Q -1777 -423 -1758 -442">

</path>

<path fill="none" stroke-opacity="1.000" stroke="rgb(0,0,0)" stroke-linejoin="round" stroke-linecap="round" stroke-width="40" d="M -9059 16132 Q -9375 15727 -9828 15118 Q -11139 12825 -11131 11919 Q -11116 10306 -10004 9389 Q -8910 8502 -7839 7814 Q -7097 7188 -6458 6633 Q -5842 6112 -5466 5906 Q -5294 5817 -4969 5792 L -4520 5756 Q -4492 5644 -4316 5212 Q -4161 4866 -4025 4635 Q -3612 3907 -2923 3251 Q -2696 3035 -2449 2863 Q -1940 2492 -1334 2308 Q -878 2173 -570 2173 L -308 1454 Q -123 958 -53 506 Q 49 -119 -73 -611 Q -221 -1223 -572 -1614 Q -757 -1622 -826 -1597 L -1151 -1467 L -1481 -1316 Q -2066 -1012 -2547 -732 Q -4366 469 -6285 633 L -6453 650 Q -6479 701 -6509 732 Q -6567 825 -6596 853 Q -6785 1061 -7050 1081 Q -7617 1147 -8164 1361 Q -8779 1659 -9313 1817 Q -10408 2106 -11643 3759 Q -12779 5692 -13114 7452 L -13188 7808 Q -13417 8953 -13364 9308 Q -13246 9959 -12760 10773 Q -12294 11580 -11795 11833 Q -12054 11677 -12932 9758 L -11668 10545 Q -12193 10017 -12602 9325 Q -13013 8632 -12876 8375 Q -12956 8311 -12874 7892 Q -12767 7347 -12386 6202 Q -11991 5132 -11204 4306 Q -10394 3514 -9231 3022 M -5902 6000 L -5985 6068 L -5937 6027 M -11795 11833 L -11776 11842 L -11775 11843 L -11776 11842 M -13342 9474 L -13324 9603 Q -13275 10000 -13328 9663 Q -13356 9474 -13364 9308">

</path>

</g>

</g>

<g transform="matrix(0.489990234375 0 0 0.489990234375 14898 11197)">

<g>

<path fill-opacity="1.000" fill="#892427" d="M 29 -2731 Q 18 -2731 8 -2731 Q -776 -2726 -1474 -2386 Q -1599 -2325 -1713 -2248 Q -1836 -2166 -1946 -2064 L -2106 -1921 Q -2052 -1146 -1855 -395 Q -1659 357 -1282 1029 L -1276 1040 Q -894 1719 -385 2301 Q -138 2582 102 2582 Q 356 2582 602 2267 Q 800 2015 923 1716 Q 1200 1045 1441 361 Q 1694 -359 1875 -1101 Q 2015 -1677 1895 -2259 L 1717 -2350 Q 1597 -2408 1472 -2457 Q 775 -2731 29 -2731 Z M -1970 1830 Q -2032 2311 -1941 2784 L -1927 2835 Q -1807 2714 -1673 2714 Q -1610 2714 -1543 2741 Q -1434 2786 -1367 2898 Q -1289 3028 -1245 3172 L -1222 3164 Q -991 3009 -923 2720 L -896 2627 Q -1194 2510 -1458 2316 Q -1629 2191 -1785 2034 Q -1883 1935 -1970 1830 Z M 2090 2025 Q 1942 2169 1782 2285 Q 1453 2524 1069 2647 Q 1240 2920 1464 3159 L 1495 3185 Q 1485 2702 1801 2702 Q 1871 2702 1958 2726 Q 2051 2751 2109 2838 L 2146 2897 Q 2234 2453 2090 2025 Z">

</path>

<path fill-opacity="1.000" fill="#B12432" d="M 1895 -2259 Q 2015 -1677 1875 -1101 Q 1694 -359 1441 361 Q 1200 1045 923 1716 Q 800 2015 602 2267 Q 356 2582 102 2582 Q -138 2582 -385 2301 Q -894 1719 -1276 1040 L -1282 1029 L -1282 1029 Q -1282 1029 -1282 1029 Q -1659 357 -1855 -395 Q -2052 -1146 -2106 -1921 Q -2608 -1486 -3180 -1169 L -3155 -914 Q -3093 -111 -3225 679 Q -2578 909 -2203 1509 Q -2097 1677 -1970 1830 Q -1883 1935 -1785 2034 Q -1629 2191 -1458 2316 Q -1194 2510 -896 2627 Q -717 2697 -525 2739 Q -231 2803 76 2803 Q 518 2803 988 2671 L 1069 2647 Q 1453 2524 1782 2285 Q 1942 2169 2090 2025 Q 2251 1867 2398 1675 Q 2848 1083 3270 825 Q 3289 538 3323 253 Q 3408 -449 3399 -1155 Q 3043 -1323 2763 -1604 Q 2369 -2000 1895 -2259 Z">

</path>

<path fill="none" stroke-opacity="1.000" stroke="rgb(0,0,0)" stroke-linejoin="round" stroke-linecap="round" stroke-width="28.571998006975587" d="M 1717 -2350 L 1791 -2180 M 1971 -1332 Q 1976 -1190 1966 -1045 M 1884 -1897 Q 1918 -1770 1940 -1642 M 1925 -736 L 1908 -655 L 1866 -464 M -1713 -2248 L -1742 -2149 M -1786 -1954 Q -1819 -1782 -1827 -1606 M -1282 1029 L -1286 1001 M -1716 -728 L -1689 -641 L -1627 -444 M -1822 -1307 Q -1811 -1148 -1779 -987 M -1401 404 L -1339 701 M -1263 1557 Q -1274 1698 -1301 1834 M -1282 1029 Q -1266 1153 -1260 1273 M -1458 2316 Q -1411 2213 -1374 2107 M 1782 2285 Q 1730 2222 1688 2157 M 1484 1644 Q 1503 1765 1546 1881 M 1534 1012 L 1508 1124 Q 1484 1229 1475 1330 M 1665 437 L 1603 712 M -1548 -175 L -1469 121 M 1798 -157 L 1735 128">

</path>

<path fill="none" stroke-opacity="1.000" stroke="rgb(0,0,0)" stroke-linejoin="round" stroke-linecap="round" stroke-width="40" d="M -2106 -1921 L -1946 -2064 Q -1836 -2166 -1713 -2248 Q -1599 -2325 -1474 -2386 Q -776 -2726 8 -2731 Q 765 -2735 1472 -2457 Q 1597 -2408 1717 -2350 L 1895 -2259 Q 2369 -2000 2763 -1604 Q 3043 -1323 3399 -1155 L 3461 -1127 M -3227 -1143 L -3180 -1169 Q -2608 -1486 -2106 -1921 M -3225 679 Q -2578 909 -2203 1509 Q -2097 1677 -1970 1830 Q -1883 1935 -1785 2034 Q -1629 2191 -1458 2316 M -1970 1830 Q -2032 2311 -1941 2784 L -1927 2835 Q -1750 2657 -1543 2741 Q -1434 2786 -1367 2898 Q -1289 3028 -1245 3172 L -1222 3164 Q -991 3009 -923 2720 L -896 2627 Q -1194 2510 -1458 2316 M -896 2627 Q -717 2697 -525 2739 Q 190 2895 988 2671 L 1069 2647 Q 1453 2524 1782 2285 M -3243 673 L -3225 679 M 3270 825 Q 3391 751 3509 704 M 3270 825 Q 2848 1083 2398 1675 Q 2251 1867 2090 2025 Q 2234 2453 2146 2897 L 2109 2838 Q 2051 2751 1958 2726 Q 1483 2595 1495 3185 L 1464 3159 Q 1240 2920 1069 2647 M 2090 2025 Q 1942 2169 1782 2285">

</path>

</g>

</g>

<g transform="matrix(0.489990234375 0 0 0.489990234375 14924 10667)">

<g>

<path fill-opacity="1.000" fill="rgb(255,255,255)" d="M 1846 -2265 Q 1594 -1822 1766 -1340 L 1789 -1278 Q 1866 -1391 1927 -1548 Q 2065 -1910 1846 -2265 Z M -1867 -2415 Q -1989 -2164 -1980 -1756 Q -1974 -1468 -1882 -1277 Q -1464 -1800 -1840 -2376 L -1867 -2415 Z M 1486 -2662 Q 1274 -2526 1060 -2424 Q 1059 -1679 1125 -1323 Q 1187 -982 1265 -982 Q 1268 -982 1272 -983 Q 1419 -983 1540 -1046 Q 1036 -1775 1617 -2398 L 1691 -2468 Q 1602 -2565 1486 -2662 Z M -1445 -2774 Q -1592 -2731 -1698 -2638 Q -1621 -2553 -1561 -2462 Q -1084 -1737 -1547 -964 Q -1399 -907 -1199 -907 Q -1196 -907 -1192 -907 Q -1026 -1438 -1049 -1865 L -1078 -2331 L -1159 -2447 Q -1267 -2593 -1445 -2774 Z">

</path>

<path fill-opacity="1.000" fill="rgb(0,0,0)" d="M 1691 -2468 L 1617 -2398 Q 1036 -1775 1540 -1046 Q 1681 -1120 1789 -1278 L 1766 -1340 Q 1594 -1822 1846 -2265 Q 1783 -2367 1691 -2468 Z M -1707 -2640 Q -1720 -2640 -1720 -2619 Q -1809 -2535 -1867 -2415 L -1840 -2376 Q -1464 -1800 -1882 -1277 Q -1829 -1166 -1547 -964 Q -1084 -1737 -1561 -2462 Q -1621 -2553 -1698 -2638 Q -1703 -2640 -1707 -2640 Z">

</path>

<path fill-opacity="1.000" fill="#B12432" d="M 504 -7676 Q 483 -7676 458 -7671 Q 303 -7640 110 -7355 L 72 -7174 Q -76 -6553 -85 -5921 L 0 -5471 Q 3 -5139 -5 -4807 L -56 -2987 Q -61 -2830 -133 -2715 Q -250 -2532 -380 -2532 Q -523 -2532 -684 -2751 Q -916 -2822 -1072 -3110 Q -1126 -3209 -1180 -3275 Q -1287 -3405 -1396 -3405 Q -1476 -3405 -1556 -3335 Q -1802 -3122 -1549 -2878 L -1445 -2774 Q -1267 -2593 -1159 -2447 L -1078 -2331 Q -994 -2203 -931 -2074 Q -902 -2013 -876 -1937 Q -812 -1895 -770 -1832 Q -381 -1250 -299 -528 Q -190 432 -51 1385 L -39 1575 Q 14 2265 -215 2911 Q -141 3258 -60 3411 Q 33 3510 122 3510 Q 271 3510 409 3232 Q 627 2788 824 1738 Q 910 1280 991 893 Q 1073 494 1151 169 L 1190 6 Q 1359 -676 1540 -1046 L 1540 -1046 Q 1419 -983 1272 -983 Q 1269 -982 1265 -982 Q 1187 -982 1125 -1323 Q 1059 -1679 1060 -2424 Q 1274 -2526 1486 -2662 L 1592 -2732 Q 1934 -2967 1778 -3216 Q 1683 -3366 1533 -3366 Q 1434 -3366 1310 -3301 L 1238 -3261 Q 1248 -3865 882 -4325 Q 516 -4786 384 -5169 Q 251 -5552 317 -6094 Q 382 -6637 557 -7181 Q 608 -7338 621 -7445 L 621 -7445 Q 621 -7445 621 -7445 Q 649 -7676 504 -7676 Z">

</path>

<path fill-opacity="1.000" fill="#892427" d="M 110 -7355 Q -41 -7133 -216 -6756 Q -614 -5896 -597 -5023 Q -592 -4788 -615 -4480 L -636 -4249 Q -1078 -3769 -1180 -3275 Q -1126 -3209 -1072 -3110 Q -916 -2822 -684 -2751 Q -524 -2532 -380 -2532 Q -249 -2532 -133 -2715 Q -61 -2830 -56 -2987 L -5 -4807 Q 3 -5139 0 -5471 L -85 -5921 Q -76 -6553 72 -7174 L 110 -7355 Z M -1078 -2331 L -1049 -1865 Q -1026 -1438 -1192 -907 Q -1195 -907 -1199 -907 Q -1399 -907 -1547 -964 L -1547 -964 Q -1224 -399 -998 123 Q -787 610 -660 1058 Q -566 1388 -485 1706 Q -339 2281 -234 2814 L -215 2911 Q 14 2265 -39 1575 L -51 1385 Q -190 432 -299 -528 Q -381 -1250 -770 -1832 Q -812 -1895 -876 -1937 L -876 -1937 Q -876 -1937 -876 -1937 Q -902 -2013 -931 -2074 Q -994 -2203 -1078 -2331 Z">

</path>

<path fill="none" stroke-opacity="1.000" stroke="rgb(0,0,0)" stroke-linejoin="round" stroke-linecap="round" stroke-width="40" d="M 621 -7445 Q 653 -7710 458 -7671 Q 303 -7640 110 -7355 M 621 -7445 Q 608 -7338 557 -7181 Q 382 -6637 317 -6094 Q 251 -5552 384 -5169 Q 516 -4786 882 -4325 Q 1248 -3865 1238 -3261 L 1310 -3301 Q 1621 -3465 1778 -3216 Q 1934 -2967 1592 -2732 L 1486 -2662 Q 1602 -2565 1691 -2468 Q 1783 -2367 1846 -2265 Q 2065 -1910 1927 -1548 Q 1866 -1391 1789 -1278 Q 1681 -1120 1540 -1046 Q 1359 -676 1190 6 L 1151 169 Q 1073 494 991 893 Q 910 1280 824 1738 Q 627 2788 409 3232 Q 190 3675 -60 3411 Q -141 3258 -215 2911 L -234 2814 Q -339 2281 -485 1706 Q -566 1388 -660 1058 Q -787 610 -998 123 Q -1224 -399 -1547 -964 Q -1829 -1166 -1882 -1277 Q -1974 -1468 -1980 -1756 Q -1989 -2164 -1867 -2415 Q -1809 -2535 -1720 -2619 M -1698 -2638 Q -1592 -2731 -1445 -2774 L -1549 -2878 Q -1802 -3122 -1556 -3335 Q -1366 -3501 -1180 -3275 Q -1078 -3769 -636 -4249 L -615 -4480 Q -592 -4788 -597 -5023 Q -614 -5896 -216 -6756 Q -41 -7133 110 -7355 M 1486 -2662 Q 1274 -2526 1060 -2424 Q 1059 -1679 1125 -1323 Q 1190 -968 1272 -983 Q 1419 -983 1540 -1046 Q 1036 -1775 1617 -2398 L 1691 -2468 M 1060 -2424 L 901 -2354 Q 553 -2211 543 -1730 M 483 -2695 Q 941 -3089 1238 -3261 M 1846 -2265 Q 1594 -1822 1766 -1340 L 1789 -1278 M -684 -2751 Q -916 -2822 -1072 -3110 Q -1126 -3209 -1180 -3275 M -1445 -2774 Q -1267 -2593 -1159 -2447 L -1078 -2331 Q -994 -2203 -931 -2074 Q -902 -2013 -876 -1937 M -422 -2735 Q -563 -2714 -684 -2751 M -1882 -1277 Q -1464 -1800 -1840 -2376 L -1867 -2415 M -1720 -2619 L -1698 -2638 Q -1621 -2553 -1561 -2462 Q -1084 -1737 -1547 -964 Q -1396 -906 -1192 -907 Q -1026 -1438 -1049 -1865 L -1078 -2331 M -876 -1937 Q -823 -1783 -784 -1569">

</path>

<path fill="none" stroke-opacity="1.000" stroke="rgb(0,0,0)" stroke-linejoin="round" stroke-linecap="round" stroke-width="28.571998006975587" d="M 436 -7173 Q 526 -7324 621 -7445 M -85 -5921 L -9 -6156 M 128 -6532 Q 192 -6694 259 -6838 M 683 -1207 L 537 -1173 L 538 -1066 Q 536 -877 594 -693 L 683 -724 M 362 -1146 L 537 -1173 L 563 -1509 M 1151 169 L 790 -300 L 643 -221 M 594 -693 L 790 -300 L 945 -362 M 482 -664 L 594 -693 M 813 958 Q 901 924 991 893 M 387 1139 Q 512 1078 641 1025 M -51 1385 Q 33 1331 120 1281 L 147 1266 M -303 -5224 L -204 -5527 M -89 -5906 L -85 -5921 M -615 -4480 Q -527 -4618 -411 -4921 M -765 -1207 L -725 -997 L -523 -966 M -998 123 L -819 -378 L -906 -422 M -819 -378 L -780 -542 Q -727 -764 -725 -997 L -865 -1006 M -819 -378 L -644 -282 M -485 1706 Q -406 1633 -319 1569 M -76 1401 L -51 1385">

</path>

</g>

</g>

</g>

</g>

</g>

</svg>
