<?xml version="1.0" encoding="utf-8"?>
<!DOCTYPE svg PUBLIC "-//W3C//DTD SVG 1.1//EN" "http://www.w3.org/Graphics/SVG/1.1/DTD/svg11.dtd">
<svg version="1.1" xmlns="http://www.w3.org/2000/svg" xmlns:xlink="http://www.w3.org/1999/xlink" viewBox="0 0 30000 20000">

<g enable-background="new">

<g>

<g>

<g transform="matrix(-0.489990234375 0 0 0.489990234375 15497 11068)">

<g>

<path fill-opacity="1.000" fill="#DC6A0B" d="M -1872 2339 L -1875 2355 L -1955 2521 Q -2131 2899 -2256 3298 Q -2625 4466 -3401 5396 Q -4135 6275 -4968 7066 Q -5359 7437 -5518 7695 L -5744 8054 Q -5811 8154 -5998 8887 Q -6185 9619 -6026 11124 L -6128 11060 L -6169 11034 Q -6525 9889 -6297 8695 Q -6063 7470 -5193 6534 L -4385 5667 Q -4475 5509 -4658 5483 L -5097 5425 Q -4277 5125 -3525 4697 Q -3249 4539 -3166 4233 Q -2980 3545 -2596 2956 Q -2326 2541 -1872 2339 Z M -2421 370 Q -2534 1293 -2975 2134 Q -3463 3065 -3459 4121 Q -3953 4003 -4432 4003 Q -5371 4003 -6249 4457 Q -7164 4930 -7810 5733 Q -8303 6345 -8612 7070 Q -8783 7470 -8862 7900 Q -9119 9289 -8647 10627 Q -8206 11879 -7348 12893 Q -9656 11001 -9613 8204 Q -9858 7019 -9281 5942 Q -8693 4846 -7824 3979 Q -6991 3149 -6078 2404 Q -5148 1644 -4119 1015 Q -3331 532 -2421 370 Z M -5286 14089 Q -5317 14131 -5301 14140 L -5275 14142 Q -5261 14158 -5467 14289 L -5398 14213 L -5330 14138 L -5286 14089 Z M -574 -1620 Q -776 -1534 -1140 -1352 Q -1869 -988 -2683 -505 Q -3142 -232 -3598 59 Q -5724 1419 -7762 3188 L -7879 3286 Q -8029 3415 -8187 3570 Q -8695 4068 -9107 4647 Q -9684 5457 -9987 6313 Q -10047 6482 -10095 6651 Q -10354 7554 -10292 8465 L -10292 8466 Q -10145 10632 -8204 12709 Q -7450 13515 -6434 14297 Q -4468 15811 -1522 17233 L -1504 17200 Q -1633 17123 -2555 16305 Q -3478 15486 -4268 14520 Q -5059 13553 -5392 12691 Q -5726 11828 -5798 11337 Q -6035 9721 -5540 7934 L -5539 7931 L -5538 7930 Q -5133 7476 -4528 6896 Q -3315 5734 -2304 5100 Q -2341 4928 -2356 4667 Q -2385 4145 -2270 3700 Q -2209 3462 -2108 3260 Q -1946 2932 -1683 2697 Q -1152 2222 -235 2155 Q -171 2023 -97 1800 Q 51 1352 104 893 Q 273 -578 -574 -1620 Z">

</path>

<path fill-opacity="1.000" fill="#BC660E" d="M -1872 2339 Q -2326 2541 -2596 2956 Q -2980 3545 -3166 4233 Q -3249 4539 -3525 4697 Q -4277 5125 -5097 5425 L -4658 5483 Q -4475 5509 -4385 5667 L -5193 6534 Q -6063 7470 -6297 8695 Q -6525 9889 -6169 11034 L -6128 11060 L -6026 11124 Q -6185 9619 -5998 8887 Q -5811 8154 -5744 8054 L -5518 7695 Q -5359 7437 -4968 7066 Q -4135 6275 -3401 5396 Q -2625 4466 -2256 3298 Q -2131 2899 -1955 2521 L -1875 2355 L -1872 2339 Z M -2421 370 Q -3331 532 -4119 1015 Q -5148 1644 -6078 2404 Q -6991 3149 -7824 3979 Q -8693 4846 -9281 5942 Q -9858 7019 -9613 8204 Q -9656 11001 -7348 12893 Q -8206 11879 -8647 10627 Q -9119 9289 -8862 7900 Q -8783 7470 -8612 7070 Q -8303 6345 -7810 5733 Q -7164 4930 -6249 4457 Q -5371 4003 -4432 4003 Q -3954 4003 -3459 4121 Q -3463 3065 -2975 2134 Q -2534 1293 -2421 370 Z">

</path>

<path fill="none" stroke-opacity="1.000" stroke="rgb(0,0,0)" stroke-linejoin="round" stroke-linecap="round" stroke-width="40" d="M -1504 17200 Q -1633 17123 -2555 16305 Q -3478 15486 -4268 14520 Q -5059 13553 -5392 12691 Q -5726 11828 -5798 11337 Q -6035 9721 -5540 7934 L -5539 7931 L -5538 7930 Q -5133 7476 -4528 6896 Q -3315 5734 -2304 5100 Q -2341 4928 -2356 4667 Q -2385 4145 -2270 3700 Q -2209 3462 -2108 3260 Q -1946 2932 -1683 2697 Q -1152 2222 -235 2155 Q -171 2023 -97 1800 Q 51 1352 104 893 Q 273 -578 -574 -1620 Q -776 -1534 -1140 -1352 Q -1869 -988 -2683 -505 Q -3142 -232 -3598 59 Q -5724 1419 -7762 3188 L -7879 3286 Q -8029 3415 -8187 3570 Q -8695 4068 -9107 4647 Q -9684 5457 -9987 6313 Q -10047 6482 -10095 6651 Q -10354 7554 -10292 8465 L -10292 8466 Q -10145 10632 -8204 12709 Q -7450 13515 -6434 14297 Q -5847 14457 -5496 14268 L -5398 14213 L -5330 14138 Q -6025 14088 -6272 13960 Q -6530 13826 -6704 13641 Q -6298 13641 -6166 13434 Q -6125 13369 -6116 13292 L -6115 13227 Q -6545 13311 -6916 13162 Q -7146 13050 -7253 12970 L -7298 12934 L -7348 12893 Q -9656 11001 -9613 8204 M -9598 7840 L -9607 7997 L -9613 8204 M -5330 14138 L -5301 14140 L -5275 14142 M -5398 14213 L -5275 14142 M -1522 17233 Q -4468 15811 -6434 14297">

</path>

<path fill="none" stroke-opacity="1.000" stroke="rgb(0,0,0)" stroke-linejoin="round" stroke-linecap="round" stroke-width="28.571998006975587" d="M -2845 292 L -2749 234 L -2292 -38 M -1955 2521 L -1832 2398 L -1815 2381 L -1600 2184 M -6128 11060 L -6139 10941 M -1994 2562 L -1955 2521 M -6128 11060 L -6126 11077 Q -6094 11398 -6039 11696 M -2570 3348 Q -2464 3149 -2320 2953 M -4547 1392 Q -4143 1113 -3709 833 M -6301 2715 L -6030 2494 Q -5708 2235 -5360 1976 M -3402 4263 L -3589 4275 Q -3830 4297 -4094 4349 L -4168 4364 M -5633 7514 L -4840 6699 M -4326 6158 L -3820 5611 M -4789 4527 Q -5118 4631 -5433 4774 M -3043 4706 Q -2917 4544 -2838 4425 Q -2849 4362 -2844 4249 Q -2837 4106 -2801 3952 M -8857 5460 Q -8726 5256 -8571 5045 L -8366 4777 M -9535 7272 Q -9554 7069 -9443 6689 Q -9377 6463 -9272 6225 M -7523 6364 L -7534 6377 Q -7731 6617 -7904 6880 M -7829 4150 Q -7457 3747 -7011 3336 M -8763 8754 L -8829 8987 L -8888 9217 M -6106 8817 Q -6074 8490 -6027 8148 M -6172 10247 L -6173 10082 Q -6173 9835 -6161 9576 M -5318 13464 Q -5403 13383 -5519 13192 Q -5661 12958 -5774 12662 M -8305 7580 Q -8433 7837 -8541 8113 M -6243 5217 Q -6622 5464 -6954 5766">

</path>

</g>

</g>

<g transform="matrix(0.489990234375 0 0 0.489990234375 14397 11068)">

<g>

<path fill-opacity="1.000" fill="#DC6A0B" d="M -1872 2339 L -1875 2355 L -1955 2521 Q -2131 2899 -2256 3298 Q -2625 4466 -3401 5396 Q -4135 6275 -4968 7066 Q -5359 7437 -5518 7695 L -5744 8054 Q -5811 8154 -5998 8887 Q -6185 9619 -6026 11124 L -6128 11060 L -6169 11034 Q -6525 9889 -6297 8695 Q -6063 7470 -5193 6534 L -4385 5667 Q -4475 5509 -4658 5483 L -5097 5425 Q -4277 5125 -3525 4697 Q -3249 4539 -3166 4233 Q -2980 3545 -2596 2956 Q -2326 2541 -1872 2339 Z M -2421 370 Q -2534 1293 -2975 2134 Q -3463 3065 -3459 4121 Q -3953 4003 -4432 4003 Q -5371 4003 -6249 4457 Q -7164 4930 -7810 5733 Q -8303 6345 -8612 7070 Q -8783 7470 -8862 7900 Q -9119 9289 -8647 10627 Q -8206 11879 -7348 12893 Q -9656 11001 -9613 8204 Q -9858 7019 -9281 5942 Q -8693 4846 -7824 3979 Q -6991 3149 -6078 2404 Q -5148 1644 -4119 1015 Q -3331 532 -2421 370 Z M -5286 14089 Q -5317 14131 -5301 14140 L -5275 14142 Q -5261 14158 -5467 14289 L -5398 14213 L -5330 14138 L -5286 14089 Z M -574 -1620 Q -776 -1534 -1140 -1352 Q -1869 -988 -2683 -505 Q -3142 -232 -3598 59 Q -5724 1419 -7762 3188 L -7879 3286 Q -8029 3415 -8187 3570 Q -8695 4068 -9107 4647 Q -9684 5457 -9987 6313 Q -10047 6482 -10095 6651 Q -10354 7554 -10292 8465 L -10292 8466 Q -10145 10632 -8204 12709 Q -7450 13515 -6434 14297 Q -4468 15811 -1522 17233 L -1504 17200 Q -1633 17123 -2555 16305 Q -3478 15486 -4268 14520 Q -5059 13553 -5392 12691 Q -5726 11828 -5798 11337 Q -6035 9721 -5540 7934 L -5539 7931 L -5538 7930 Q -5133 7476 -4528 6896 Q -3315 5734 -2304 5100 Q -2341 4928 -2356 4667 Q -2385 4145 -2270 3700 Q -2209 3462 -2108 3260 Q -1946 2932 -1683 2697 Q -1152 2222 -235 2155 Q -171 2023 -97 1800 Q 51 1352 104 893 Q 273 -578 -574 -1620 Z">

</path>

<path fill-opacity="1.000" fill="#BC660E" d="M -1872 2339 Q -2326 2541 -2596 2956 Q -2980 3545 -3166 4233 Q -3249 4539 -3525 4697 Q -4277 5125 -5097 5425 L -4658 5483 Q -4475 5509 -4385 5667 L -5193 6534 Q -6063 7470 -6297 8695 Q -6525 9889 -6169 11034 L -6128 11060 L -6026 11124 Q -6185 9619 -5998 8887 Q -5811 8154 -5744 8054 L -5518 7695 Q -5359 7437 -4968 7066 Q -4135 6275 -3401 5396 Q -2625 4466 -2256 3298 Q -2131 2899 -1955 2521 L -1875 2355 L -1872 2339 Z M -2421 370 Q -3331 532 -4119 1015 Q -5148 1644 -6078 2404 Q -6991 3149 -7824 3979 Q -8693 4846 -9281 5942 Q -9858 7019 -9613 8204 Q -9656 11001 -7348 12893 Q -8206 11879 -8647 10627 Q -9119 9289 -8862 7900 Q -8783 7470 -8612 7070 Q -8303 6345 -7810 5733 Q -7164 4930 -6249 4457 Q -5371 4003 -4432 4003 Q -3954 4003 -3459 4121 Q -3463 3065 -2975 2134 Q -2534 1293 -2421 370 Z">

</path>

<path fill="none" stroke-opacity="1.000" stroke="rgb(0,0,0)" stroke-linejoin="round" stroke-linecap="round" stroke-width="40" d="M -1504 17200 Q -1633 17123 -2555 16305 Q -3478 15486 -4268 14520 Q -5059 13553 -5392 12691 Q -5726 11828 -5798 11337 Q -6035 9721 -5540 7934 L -5539 7931 L -5538 7930 Q -5133 7476 -4528 6896 Q -3315 5734 -2304 5100 Q -2341 4928 -2356 4667 Q -2385 4145 -2270 3700 Q -2209 3462 -2108 3260 Q -1946 2932 -1683 2697 Q -1152 2222 -235 2155 Q -171 2023 -97 1800 Q 51 1352 104 893 Q 273 -578 -574 -1620 Q -776 -1534 -1140 -1352 Q -1869 -988 -2683 -505 Q -3142 -232 -3598 59 Q -5724 1419 -7762 3188 L -7879 3286 Q -8029 3415 -8187 3570 Q -8695 4068 -9107 4647 Q -9684 5457 -9987 6313 Q -10047 6482 -10095 6651 Q -10354 7554 -10292 8465 L -10292 8466 Q -10145 10632 -8204 12709 Q -7450 13515 -6434 14297 Q -5847 14457 -5496 14268 L -5398 14213 L -5330 14138 Q -6025 14088 -6272 13960 Q -6530 13826 -6704 13641 Q -6298 13641 -6166 13434 Q -6125 13369 -6116 13292 L -6115 13227 Q -6545 13311 -6916 13162 Q -7146 13050 -7253 12970 L -7298 12934 L -7348 12893 Q -9656 11001 -9613 8204 M -9598 7840 L -9607 7997 L -9613 8204 M -5330 14138 L -5301 14140 L -5275 14142 M -5398 14213 L -5275 14142 M -1522 17233 Q -4468 15811 -6434 14297">

</path>

<path fill="none" stroke-opacity="1.000" stroke="rgb(0,0,0)" stroke-linejoin="round" stroke-linecap="round" stroke-width="28.571998006975587" d="M -2845 292 L -2749 234 L -2292 -38 M -1955 2521 L -1832 2398 L -1815 2381 L -1600 2184 M -6128 11060 L -6139 10941 M -1994 2562 L -1955 2521 M -6128 11060 L -6126 11077 Q -6094 11398 -6039 11696 M -2570 3348 Q -2464 3149 -2320 2953 M -4547 1392 Q -4143 1113 -3709 833 M -6301 2715 L -6030 2494 Q -5708 2235 -5360 1976 M -3402 4263 L -3589 4275 Q -3830 4297 -4094 4349 L -4168 4364 M -5633 7514 L -4840 6699 M -4326 6158 L -3820 5611 M -4789 4527 Q -5118 4631 -5433 4774 M -3043 4706 Q -2917 4544 -2838 4425 Q -2849 4362 -2844 4249 Q -2837 4106 -2801 3952 M -8857 5460 Q -8726 5256 -8571 5045 L -8366 4777 M -9535 7272 Q -9554 7069 -9443 6689 Q -9377 6463 -9272 6225 M -7523 6364 L -7534 6377 Q -7731 6617 -7904 6880 M -7829 4150 Q -7457 3747 -7011 3336 M -8763 8754 L -8829 8987 L -8888 9217 M -6106 8817 Q -6074 8490 -6027 8148 M -6172 10247 L -6173 10082 Q -6173 9835 -6161 9576 M -5318 13464 Q -5403 13383 -5519 13192 Q -5661 12958 -5774 12662 M -8305 7580 Q -8433 7837 -8541 8113 M -6243 5217 Q -6622 5464 -6954 5766">

</path>

</g>

</g>

<g transform="matrix(0.489990234375 0 0 0.489990234375 14898 11241)">

<g>

<path fill-opacity="1.000" fill="#BC660E" d="M 29 -2731 Q 18 -2731 8 -2731 Q -776 -2726 -1474 -2386 Q -1599 -2325 -1713 -2248 Q -1836 -2166 -1946 -2064 L -2106 -1921 Q -2052 -1146 -1855 -395 Q -1659 357 -1282 1029 L -1276 1040 Q -894 1719 -385 2301 Q -138 2582 102 2582 Q 356 2582 602 2267 Q 800 2015 923 1716 Q 1200 1045 1441 361 Q 1694 -359 1875 -1101 Q 2015 -1677 1895 -2259 L 1717 -2350 Q 1597 -2408 1472 -2457 Q 775 -2731 29 -2731 Z M -1970 1830 Q -2032 2311 -1941 2784 L -1927 2835 Q -1807 2714 -1673 2714 Q -1610 2714 -1543 2741 Q -1434 2786 -1367 2898 Q -1289 3028 -1245 3172 L -1222 3164 Q -991 3009 -923 2720 L -896 2627 Q -1194 2510 -1458 2316 Q -1629 2191 -1785 2034 Q -1883 1935 -1970 1830 Z M 2090 2025 Q 1942 2169 1782 2285 Q 1453 2524 1069 2647 Q 1240 2920 1464 3159 L 1495 3185 Q 1485 2702 1801 2702 Q 1871 2702 1958 2726 Q 2051 2751 2109 2838 L 2146 2897 Q 2234 2453 2090 2025 Z">

</path>

<path fill-opacity="1.000" fill="#DC6A0B" d="M 1895 -2259 Q 2015 -1677 1875 -1101 Q 1694 -359 1441 361 Q 1200 1045 923 1716 Q 800 2015 602 2267 Q 356 2582 102 2582 Q -138 2582 -385 2301 Q -894 1719 -1276 1040 L -1282 1029 L -1282 1029 Q -1282 1029 -1282 1029 Q -1659 357 -1855 -395 Q -2052 -1146 -2106 -1921 Q -2608 -1486 -3180 -1169 L -3155 -914 Q -3093 -111 -3225 679 Q -2578 909 -2203 1509 Q -2097 1677 -1970 1830 Q -1883 1935 -1785 2034 Q -1629 2191 -1458 2316 Q -1194 2510 -896 2627 Q -717 2697 -525 2739 Q -231 2803 76 2803 Q 518 2803 988 2671 L 1069 2647 Q 1453 2524 1782 2285 Q 1942 2169 2090 2025 Q 2251 1867 2398 1675 Q 2848 1083 3270 825 Q 3289 538 3323 253 Q 3408 -449 3399 -1155 Q 3043 -1323 2763 -1604 Q 2369 -2000 1895 -2259 Z">

</path>

<path fill="none" stroke-opacity="1.000" stroke="rgb(0,0,0)" stroke-linejoin="round" stroke-linecap="round" stroke-width="28.571998006975587" d="M 1717 -2350 L 1791 -2180 M 1971 -1332 Q 1976 -1190 1966 -1045 M 1884 -1897 Q 1918 -1770 1940 -1642 M 1925 -736 L 1908 -655 L 1866 -464 M -1713 -2248 L -1742 -2149 M -1786 -1954 Q -1819 -1782 -1827 -1606 M -1282 1029 L -1286 1001 M -1716 -728 L -1689 -641 L -1627 -444 M -1822 -1307 Q -1811 -1148 -1779 -987 M -1401 404 L -1339 701 M -1263 1557 Q -1274 1698 -1301 1834 M -1282 1029 Q -1266 1153 -1260 1273 M -1458 2316 Q -1411 2213 -1374 2107 M 1782 2285 Q 1730 2222 1688 2157 M 1484 1644 Q 1503 1765 1546 1881 M 1534 1012 L 1508 1124 Q 1484 1229 1475 1330 M 1665 437 L 1603 712 M -1548 -175 L -1469 121 M 1798 -157 L 1735 128">

</path>

<path fill="none" stroke-opacity="1.000" stroke="rgb(0,0,0)" stroke-linejoin="round" stroke-linecap="round" stroke-width="40" d="M -2106 -1921 L -1946 -2064 Q -1836 -2166 -1713 -2248 Q -1599 -2325 -1474 -2386 Q -776 -2726 8 -2731 Q 765 -2735 1472 -2457 Q 1597 -2408 1717 -2350 L 1895 -2259 Q 2369 -2000 2763 -1604 Q 3043 -1323 3399 -1155 L 3461 -1127 M -3227 -1143 L -3180 -1169 Q -2608 -1486 -2106 -1921 M -3225 679 Q -2578 909 -2203 1509 Q -2097 1677 -1970 1830 Q -1883 1935 -1785 2034 Q -1629 2191 -1458 2316 M -1970 1830 Q -2032 2311 -1941 2784 L -1927 2835 Q -1750 2657 -1543 2741 Q -1434 2786 -1367 2898 Q -1289 3028 -1245 3172 L -1222 3164 Q -991 3009 -923 2720 L -896 2627 Q -1194 2510 -1458 2316 M -896 2627 Q -717 2697 -525 2739 Q 190 2895 988 2671 L 1069 2647 Q 1453 2524 1782 2285 M -3243 673 L -3225 679 M 3270 825 Q 3391 751 3509 704 M 3270 825 Q 2848 1083 2398 1675 Q 2251 1867 2090 2025 Q 2234 2453 2146 2897 L 2109 2838 Q 2051 2751 1958 2726 Q 1483 2595 1495 3185 L 1464 3159 Q 1240 2920 1069 2647 M 2090 2025 Q 1942 2169 1782 2285">

</path>

</g>

</g>

<g transform="matrix(0.489990234375 0 0 0.489990234375 14924 10719)">

<g>

<path fill-opacity="1.000" fill="rgb(255,255,255)" d="M 1846 -2265 Q 1594 -1822 1766 -1340 L 1789 -1278 Q 1866 -1391 1927 -1548 Q 2065 -1910 1846 -2265 Z M -1867 -2415 Q -1989 -2164 -1980 -1756 Q -1974 -1468 -1882 -1277 Q -1464 -1800 -1840 -2376 L -1867 -2415 Z M 1486 -2662 Q 1274 -2526 1060 -2424 Q 1059 -1679 1125 -1323 Q 1187 -982 1265 -982 Q 1268 -982 1272 -983 Q 1419 -983 1540 -1046 Q 1036 -1775 1617 -2398 L 1691 -2468 Q 1602 -2565 1486 -2662 Z M -1445 -2774 Q -1592 -2731 -1698 -2638 Q -1621 -2553 -1561 -2462 Q -1084 -1737 -1547 -964 Q -1399 -907 -1199 -907 Q -1196 -907 -1192 -907 Q -1026 -1438 -1049 -1865 L -1078 -2331 L -1159 -2447 Q -1267 -2593 -1445 -2774 Z">

</path>

<path fill-opacity="1.000" fill="rgb(0,0,0)" d="M 1691 -2468 L 1617 -2398 Q 1036 -1775 1540 -1046 Q 1681 -1120 1789 -1278 L 1766 -1340 Q 1594 -1822 1846 -2265 Q 1783 -2367 1691 -2468 Z M -1707 -2640 Q -1720 -2640 -1720 -2619 Q -1809 -2535 -1867 -2415 L -1840 -2376 Q -1464 -1800 -1882 -1277 Q -1829 -1166 -1547 -964 Q -1084 -1737 -1561 -2462 Q -1621 -2553 -1698 -2638 Q -1703 -2640 -1707 -2640 Z">

</path>

<path fill-opacity="1.000" fill="#DC6A0B" d="M 504 -7676 Q 483 -7676 458 -7671 Q 303 -7640 110 -7355 L 72 -7174 Q -76 -6553 -85 -5921 L 0 -5471 Q 3 -5139 -5 -4807 L -56 -2987 Q -61 -2830 -133 -2715 Q -250 -2532 -380 -2532 Q -523 -2532 -684 -2751 Q -916 -2822 -1072 -3110 Q -1126 -3209 -1180 -3275 Q -1287 -3405 -1396 -3405 Q -1476 -3405 -1556 -3335 Q -1802 -3122 -1549 -2878 L -1445 -2774 Q -1267 -2593 -1159 -2447 L -1078 -2331 Q -994 -2203 -931 -2074 Q -902 -2013 -876 -1937 Q -812 -1895 -770 -1832 Q -381 -1250 -299 -528 Q -190 432 -51 1385 L -39 1575 Q 14 2265 -215 2911 Q -141 3258 -60 3411 Q 33 3510 122 3510 Q 271 3510 409 3232 Q 627 2788 824 1738 Q 910 1280 991 893 Q 1073 494 1151 169 L 1190 6 Q 1359 -676 1540 -1046 L 1540 -1046 Q 1419 -983 1272 -983 Q 1269 -982 1265 -982 Q 1187 -982 1125 -1323 Q 1059 -1679 1060 -2424 Q 1274 -2526 1486 -2662 L 1592 -2732 Q 1934 -2967 1778 -3216 Q 1683 -3366 1533 -3366 Q 1434 -3366 1310 -3301 L 1238 -3261 Q 1248 -3865 882 -4325 Q 516 -4786 384 -5169 Q 251 -5552 317 -6094 Q 382 -6637 557 -7181 Q 608 -7338 621 -7445 L 621 -7445 Q 621 -7445 621 -7445 Q 649 -7676 504 -7676 Z">

</path>

<path fill-opacity="1.000" fill="#BC660E" d="M 110 -7355 Q -41 -7133 -216 -6756 Q -614 -5896 -597 -5023 Q -592 -4788 -615 -4480 L -636 -4249 Q -1078 -3769 -1180 -3275 Q -1126 -3209 -1072 -3110 Q -916 -2822 -684 -2751 Q -524 -2532 -380 -2532 Q -249 -2532 -133 -2715 Q -61 -2830 -56 -2987 L -5 -4807 Q 3 -5139 0 -5471 L -85 -5921 Q -76 -6553 72 -7174 L 110 -7355 Z M -1078 -2331 L -1049 -1865 Q -1026 -1438 -1192 -907 Q -1195 -907 -1199 -907 Q -1399 -907 -1547 -964 L -1547 -964 Q -1224 -399 -998 123 Q -787 610 -660 1058 Q -566 1388 -485 1706 Q -339 2281 -234 2814 L -215 2911 Q 14 2265 -39 1575 L -51 1385 Q -190 432 -299 -528 Q -381 -1250 -770 -1832 Q -812 -1895 -876 -1937 L -876 -1937 Q -876 -1937 -876 -1937 Q -902 -2013 -931 -2074 Q -994 -2203 -1078 -2331 Z">

</path>

<path fill="none" stroke-opacity="1.000" stroke="rgb(0,0,0)" stroke-linejoin="round" stroke-linecap="round" stroke-width="40" d="M 621 -7445 Q 653 -7710 458 -7671 Q 303 -7640 110 -7355 M 621 -7445 Q 608 -7338 557 -7181 Q 382 -6637 317 -6094 Q 251 -5552 384 -5169 Q 516 -4786 882 -4325 Q 1248 -3865 1238 -3261 L 1310 -3301 Q 1621 -3465 1778 -3216 Q 1934 -2967 1592 -2732 L 1486 -2662 Q 1602 -2565 1691 -2468 Q 1783 -2367 1846 -2265 Q 2065 -1910 1927 -1548 Q 1866 -1391 1789 -1278 Q 1681 -1120 1540 -1046 Q 1359 -676 1190 6 L 1151 169 Q 1073 494 991 893 Q 910 1280 824 1738 Q 627 2788 409 3232 Q 190 3675 -60 3411 Q -141 3258 -215 2911 L -234 2814 Q -339 2281 -485 1706 Q -566 1388 -660 1058 Q -787 610 -998 123 Q -1224 -399 -1547 -964 Q -1829 -1166 -1882 -1277 Q -1974 -1468 -1980 -1756 Q -1989 -2164 -1867 -2415 Q -1809 -2535 -1720 -2619 M -1698 -2638 Q -1592 -2731 -1445 -2774 L -1549 -2878 Q -1802 -3122 -1556 -3335 Q -1366 -3501 -1180 -3275 Q -1078 -3769 -636 -4249 L -615 -4480 Q -592 -4788 -597 -5023 Q -614 -5896 -216 -6756 Q -41 -7133 110 -7355 M 1486 -2662 Q 1274 -2526 1060 -2424 Q 1059 -1679 1125 -1323 Q 1190 -968 1272 -983 Q 1419 -983 1540 -1046 Q 1036 -1775 1617 -2398 L 1691 -2468 M 1060 -2424 L 901 -2354 Q 553 -2211 543 -1730 M 483 -2695 Q 941 -3089 1238 -3261 M 1846 -2265 Q 1594 -1822 1766 -1340 L 1789 -1278 M -684 -2751 Q -916 -2822 -1072 -3110 Q -1126 -3209 -1180 -3275 M -1445 -2774 Q -1267 -2593 -1159 -2447 L -1078 -2331 Q -994 -2203 -931 -2074 Q -902 -2013 -876 -1937 M -422 -2735 Q -563 -2714 -684 -2751 M -1882 -1277 Q -1464 -1800 -1840 -2376 L -1867 -2415 M -1720 -2619 L -1698 -2638 Q -1621 -2553 -1561 -2462 Q -1084 -1737 -1547 -964 Q -1396 -906 -1192 -907 Q -1026 -1438 -1049 -1865 L -1078 -2331 M -876 -1937 Q -823 -1783 -784 -1569">

</path>

<path fill="none" stroke-opacity="1.000" stroke="rgb(0,0,0)" stroke-linejoin="round" stroke-linecap="round" stroke-width="28.571998006975587" d="M 436 -7173 Q 526 -7324 621 -7445 M -85 -5921 L -9 -6156 M 128 -6532 Q 192 -6694 259 -6838 M 683 -1207 L 537 -1173 L 538 -1066 Q 536 -877 594 -693 L 683 -724 M 362 -1146 L 537 -1173 L 563 -1509 M 1151 169 L 790 -300 L 643 -221 M 594 -693 L 790 -300 L 945 -362 M 482 -664 L 594 -693 M 813 958 Q 901 924 991 893 M 387 1139 Q 512 1078 641 1025 M -51 1385 Q 33 1331 120 1281 L 147 1266 M -303 -5224 L -204 -5527 M -89 -5906 L -85 -5921 M -615 -4480 Q -527 -4618 -411 -4921 M -765 -1207 L -725 -997 L -523 -966 M -998 123 L -819 -378 L -906 -422 M -819 -378 L -780 -542 Q -727 -764 -725 -997 L -865 -1006 M -819 -378 L -644 -282 M -485 1706 Q -406 1633 -319 1569 M -76 1401 L -51 1385">

</path>

</g>

</g>

</g>

</g>

</g>

</svg>
