<?xml version="1.0" encoding="utf-8"?>
<!DOCTYPE svg PUBLIC "-//W3C//DTD SVG 1.1//EN" "http://www.w3.org/Graphics/SVG/1.1/DTD/svg11.dtd">
<svg version="1.1" xmlns="http://www.w3.org/2000/svg" xmlns:xlink="http://www.w3.org/1999/xlink" viewBox="0 0 30000 20000">

<g enable-background="new">

<g>

<g>

<g transform="matrix(-0.489990234375 0 0 0.489990234375 15497 11189)">

<g>

<path fill-opacity="1.000" fill="#137992" d="M -18623 -9198 Q -18808 -9106 -18993 -8985 Q -19179 -8850 -19288 -8558 Q -19283 -8551 -19285 -8543 L -19211 -8570 Q -18920 -8669 -18604 -8796 Q -18698 -8935 -18623 -9198 Z M -19667 -8728 Q -19811 -8638 -19939 -8543 Q -20539 -8069 -20811 -7619 Q -20770 -7630 -20716 -7656 L -20673 -7701 Q -20339 -8057 -19625 -8400 Q -19748 -8508 -19667 -8728 Z M -14379 -10216 Q -15219 -10216 -15892 -10078 Q -17941 -9587 -17794 -9416 Q -18113 -9158 -18116 -8964 Q -17520 -9161 -16776 -9298 Q -15705 -9499 -14502 -9499 Q -14253 -9499 -13999 -9490 Q -12456 -9420 -11168 -9166 Q -10722 -9064 -10359 -8897 Q -9496 -8486 -8860 -8051 Q -7903 -7583 -7234 -6742 Q -6801 -6203 -6540 -5411 Q -6219 -4431 -5981 -3242 Q -5888 -2805 -5710 -2491 Q -5398 -2583 -5102 -2647 Q -4661 -2728 -4227 -2728 Q -3879 -2728 -3536 -2676 Q -2765 -2553 -1970 -2222 Q -2793 -2896 -3532 -3730 Q -4217 -4491 -4857 -5259 Q -5531 -6069 -6177 -6806 Q -6765 -7468 -7441 -7930 L -7610 -8041 L -7610 -8041 Q -7610 -8041 -7610 -8041 Q -8354 -8509 -8802 -8740 L -8816 -8748 L -9002 -8852 Q -9454 -9110 -9561 -9168 Q -11257 -9946 -12996 -10135 Q -13737 -10216 -14379 -10216 Z M -13654 -7860 Q -13293 -7329 -12660 -7041 Q -11252 -6400 -10304 -5507 Q -9752 -5004 -9184 -4624 Q -9059 -4473 -8941 -4317 L -8762 -4084 Q -8377 -3640 -8059 -3048 L -7978 -2901 L -7931 -2820 Q -7511 -2406 -7274 -1692 L -7245 -1607 L -7202 -1529 Q -7027 -1204 -6871 -894 Q -6850 -890 -6836 -878 Q -6606 -713 -6419 -444 L -5784 -466 Q -5733 -410 -5689 -373 L -5455 -357 Q -5289 -332 -5223 -332 Q -5188 -332 -5182 -339 Q -5160 -356 -5145 -372 L -5102 -417 Q -4778 -379 -4470 -304 Q -4402 -271 -4338 -234 Q -4281 -210 -4232 -178 Q -4117 -115 -4016 -115 Q -3982 -115 -3950 -122 Q -3923 -129 -3896 -144 Q -3882 -131 -3871 -131 Q -3866 -131 -3861 -134 Q -3556 -35 -3262 85 Q -3111 141 -2964 209 Q -3727 -553 -4552 -797 Q -4906 -900 -5260 -900 Q -5683 -900 -6104 -753 Q -6294 -1227 -6504 -1660 L -6619 -1903 L -6619 -1903 Q -6619 -1903 -6619 -1903 L -6624 -1935 Q -6631 -1993 -6645 -2054 L -6701 -2369 Q -6737 -2584 -6789 -2814 Q -6878 -3267 -6986 -3711 Q -7101 -4024 -7167 -4377 L -7180 -4463 L -7263 -4745 L -7282 -4809 Q -7348 -5152 -7489 -5430 L -7524 -5499 L -7534 -5526 L -7558 -5588 L -7676 -5873 Q -7748 -6041 -7831 -6209 L -7908 -6366 Q -8034 -6520 -8184 -6634 L -8336 -6746 L -8336 -6746 Q -7808 -5699 -7643 -4183 Q -7616 -3959 -7600 -3734 Q -8265 -5161 -9213 -5927 Q -10157 -6716 -11621 -7364 Q -12552 -7748 -13654 -7860 Z">

</path>

<path fill-opacity="1.000" fill="#1AA4BB" d="M -18623 -9198 Q -18698 -8935 -18604 -8796 Q -18920 -8669 -19211 -8570 L -19285 -8543 Q -19283 -8551 -19288 -8558 Q -19179 -8850 -18993 -8985 Q -18808 -9106 -18623 -9198 Z M -14379 -10216 Q -13736 -10216 -12996 -10135 Q -11257 -9946 -9561 -9168 Q -9454 -9110 -9002 -8852 L -8816 -8748 L -8802 -8740 Q -8354 -8509 -7610 -8041 L -7441 -7930 Q -6765 -7468 -6177 -6806 Q -5531 -6069 -4857 -5259 Q -4217 -4491 -3532 -3730 Q -2793 -2896 -1970 -2222 Q -2765 -2553 -3536 -2676 Q -3880 -2728 -4227 -2728 Q -4661 -2728 -5102 -2647 Q -5398 -2583 -5710 -2491 Q -5888 -2805 -5981 -3242 Q -6219 -4431 -6540 -5411 Q -6801 -6203 -7234 -6742 Q -7903 -7583 -8860 -8051 Q -9496 -8486 -10359 -8897 Q -10722 -9064 -11168 -9166 Q -12456 -9420 -13999 -9490 Q -14253 -9499 -14502 -9499 Q -15705 -9499 -16776 -9298 Q -17520 -9161 -18116 -8964 Q -18113 -9158 -17794 -9416 Q -17941 -9587 -15892 -10078 Q -15219 -10216 -14379 -10216 Z M -393 -1716 Q -395 -1716 -398 -1716 Q -435 -1710 -402 -1653 Q -365 -1716 -393 -1716 Z M -13653 -7861 Q -12551 -7749 -11620 -7365 Q -10156 -6717 -9212 -5928 Q -8264 -5162 -7599 -3735 Q -7615 -3960 -7642 -4184 Q -7807 -5700 -8335 -6747 L -8335 -6747 L -8183 -6635 Q -8033 -6521 -7907 -6367 L -7830 -6210 Q -7747 -6042 -7675 -5874 L -7557 -5589 L -7533 -5527 L -7523 -5500 L -7488 -5431 Q -7347 -5153 -7281 -4810 L -7262 -4746 L -7179 -4464 L -7166 -4378 Q -7100 -4025 -6985 -3712 Q -6877 -3268 -6788 -2815 Q -6736 -2585 -6700 -2370 L -6644 -2055 Q -6630 -1994 -6623 -1936 L -6618 -1904 L -6503 -1661 Q -6293 -1228 -6103 -754 Q -5682 -901 -5259 -901 Q -4905 -901 -4551 -798 Q -3726 -554 -2963 208 Q -3110 140 -3261 84 Q -3555 -36 -3860 -135 Q -3864 -132 -3870 -132 Q -3881 -132 -3895 -145 Q -3922 -130 -3949 -123 Q -3981 -116 -4015 -116 Q -4116 -116 -4231 -179 Q -4280 -211 -4337 -235 Q -4401 -272 -4469 -305 Q -4777 -380 -5101 -418 L -5144 -373 Q -5159 -357 -5181 -340 Q -5187 -333 -5222 -333 Q -5287 -333 -5454 -358 L -5688 -374 Q -5732 -411 -5783 -467 L -6418 -445 Q -6605 -714 -6835 -879 Q -6849 -891 -6870 -895 L -6870 -895 L -6870 -895 Q -7026 -1205 -7201 -1530 L -7244 -1608 L -7273 -1693 Q -7510 -2407 -7930 -2821 L -7977 -2902 L -8058 -3049 Q -8376 -3641 -8761 -4085 L -8940 -4318 Q -9058 -4474 -9183 -4625 Q -9751 -5005 -10303 -5508 Q -11251 -6401 -12659 -7042 Q -13292 -7330 -13653 -7861 Z M -13797 -11017 Q -13870 -11017 -13944 -11016 Q -16703 -10810 -17818 -10123 Q -18883 -9523 -19196 -9318 Q -20909 -7883 -20810 -7620 Q -20538 -8070 -19938 -8544 Q -19810 -8639 -19666 -8729 L -19666 -8729 Q -19747 -8509 -19624 -8401 Q -20338 -8058 -20672 -7702 L -20715 -7657 Q -20565 -7740 -20226 -7879 Q -19492 -8180 -18093 -8233 Q -17883 -8258 -17652 -8258 Q -16247 -8258 -14073 -7322 Q -11736 -5967 -10330 -4627 Q -8417 -3046 -7635 -1449 Q -7452 -1115 -7161 -484 Q -6927 -6 -6725 241 Q -6615 220 -6172 94 Q -5815 -1 -5550 -21 Q -5468 -27 -5383 -27 Q -4632 -27 -3687 410 Q -3340 559 -3001 735 Q -2286 1095 -1547 1479 Q -991 1749 -643 1911 L -342 1303 Q -139 884 -60 468 Q 53 -103 -78 -670 Q -243 -1381 -402 -1653 L -2566 -3394 Q -4523 -5143 -6208 -7347 L -6354 -7520 L -6425 -7548 Q -6501 -7577 -6533 -7597 Q -6751 -7726 -6984 -7974 Q -7913 -9011 -9430 -9916 Q -11044 -11017 -13797 -11017 Z">

</path>

<path fill="none" stroke-opacity="1.000" stroke="rgb(0,0,0)" stroke-linejoin="round" stroke-linecap="round" stroke-width="28.571998006975587" d="M -11168 -9166 L -11053 -9118 M -10179 -8678 Q -10407 -8813 -10663 -8939 M -11168 -9166 L -11492 -9291 M -9477 -8276 L -9538 -8248 L -9490 -8212 L -9268 -8035 M -9538 -8248 L -9579 -8227 L -9603 -8207 M -8802 -8740 L -8816 -8748 M -1970 -2222 L -1962 -2219 L -1884 -2183 M -1836 -2159 Q -1726 -2107 -1635 -2075 M -7944 -8281 Q -8367 -8561 -8802 -8740 M -9538 -8248 L -9856 -8475 M -7753 -6246 Q -7790 -6222 -7831 -6209 Q -7748 -6041 -7676 -5873 Q -7617 -5891 -7565 -5921 M -7908 -6366 L -8030 -6585 M -7831 -6209 Q -7848 -6196 -7872 -6194 Q -7886 -6186 -7903 -6185 M -7831 -6209 L -7908 -6366 M -9184 -4624 L -9357 -4822 Q -9582 -5068 -9839 -5317 M -8472 -7449 Q -8541 -7420 -8589 -7379 Q -8434 -7192 -8287 -6992 M -8589 -7379 L -8590 -7379 Q -8620 -7345 -8649 -7323 M -8589 -7379 Q -8766 -7583 -8966 -7770 M -8762 -4084 L -8941 -4317 M -7524 -5499 L -7534 -5526 L -7558 -5588 L -7676 -5873 Q -7704 -5861 -7736 -5857 L -7796 -5854 M -7263 -4745 L -7282 -4809 L -7356 -5036 M -7263 -4745 Q -7272 -4737 -7289 -4733 Q -7293 -4725 -7308 -4720 M -6986 -3711 Q -7016 -3850 -7054 -3996 M -7263 -4745 L -7180 -4463 M -7185 -4776 L -7263 -4745 M -11212 -6463 Q -11551 -6704 -11961 -6952 M -10129 -5590 Q -10458 -5891 -10871 -6211 M -7667 -2371 Q -7791 -2594 -7931 -2820 M -7978 -2901 L -8172 -3214 M -6701 -2369 Q -6737 -2584 -6789 -2814 Q -6878 -3267 -6986 -3711 M -6645 -2054 L -6585 -2022 M -6701 -2369 L -6645 -2054 L -6735 -2095 L -6752 -2090 M -6605 -2319 Q -6651 -2348 -6701 -2369 L -6771 -2391 L -6798 -2402 M -6619 -1903 L -6624 -1935 Q -6631 -1993 -6645 -2054 M -6619 -1903 Q -6592 -1755 -6572 -1618 M -7202 -1529 Q -7027 -1204 -6871 -894 M -6419 -444 L -5784 -466 L -5703 -464 M -6871 -894 L -6775 -706 M -7245 -1607 Q -7306 -1728 -7378 -1853 M -8379 -3532 Q -8559 -3814 -8762 -4084 M -6004 -6296 L -6220 -6601 Q -6402 -6850 -6604 -7082 M -5519 -5764 Q -5188 -5335 -4888 -4938 M -6419 -444 L -6476 -438 M -5102 -417 L -5275 -437 M -4346 -273 L -4470 -304 M -3861 -134 L -3992 -175 M -4470 -304 Q -4778 -379 -5102 -417 M -2390 -2480 Q -2164 -2331 -1970 -2222 M -3494 -3323 Q -3295 -3134 -3107 -2989 L -2848 -2796 M -4615 -4590 Q -4199 -4060 -3826 -3657 M -6972 -7479 Q -7287 -7796 -7610 -8041 M -2964 209 Q -3111 141 -3262 85 Q -3556 -35 -3861 -134 M -16583 -8401 L -17178 -8432 M -15383 -8239 Q -15772 -8311 -16169 -8359 M -13686 -9849 Q -14139 -9923 -14620 -9968 M -13892 -7848 Q -14365 -8008 -14881 -8132 M -11991 -9459 Q -12543 -9628 -13171 -9756 M -12454 -7229 Q -12869 -7445 -13344 -7645">

</path>

<path fill="none" stroke-opacity="1.000" stroke="rgb(0,0,0)" stroke-linejoin="round" stroke-linecap="round" stroke-width="40" d="M -18116 -8964 Q -18115 -8701 -17558 -8413 Q -17719 -8428 -17863 -8462 Q -18450 -8579 -18604 -8796 M -19285 -8543 Q -19229 -8371 -19133 -8347 Q -19030 -8322 -18950 -8280 Q -19266 -8245 -19446 -8305 Q -19562 -8343 -19625 -8400 M -20716 -7656 Q -20566 -7739 -20227 -7878 Q -19493 -8179 -18094 -8232 Q -16606 -8411 -14074 -7321 Q -11737 -5966 -10331 -4626 Q -8418 -3045 -7636 -1448 Q -7453 -1114 -7162 -483 Q -6928 -5 -6726 242 Q -6616 221 -6173 95 Q -5816 0 -5551 -20 Q -4740 -75 -3688 411 Q -3341 560 -3002 736 Q -2287 1096 -1548 1480 Q -992 1750 -644 1912 L -343 1304 Q -140 885 -61 469 Q 52 -102 -79 -669 Q -244 -1380 -403 -1652 L -2567 -3393 Q -4524 -5142 -6209 -7346 L -6355 -7519 L -6426 -7547 Q -6502 -7576 -6534 -7596 Q -6752 -7725 -6985 -7973 Q -7914 -9010 -9431 -9915 Q -11088 -11045 -13945 -11015 Q -16704 -10809 -17819 -10122 Q -18884 -9522 -19197 -9317 Q -19584 -8965 -19667 -8728 Q -19748 -8508 -19625 -8400 M -9561 -9168 Q -11257 -9946 -12996 -10135 Q -14704 -10321 -15892 -10078 Q -17941 -9587 -17794 -9416 Q -18113 -9158 -18116 -8964 M -403 -1652 Q -363 -1721 -399 -1715 Q -436 -1709 -403 -1652 Z M -19285 -8543 Q -19283 -8551 -19288 -8558 Q -19179 -8850 -18993 -8985 Q -18808 -9106 -18623 -9198 Q -18698 -8935 -18604 -8796 M -20716 -7656 Q -20770 -7630 -20811 -7619 Q -20910 -7882 -19197 -9317">

</path>

<path fill="none" stroke-opacity="1.000" stroke="rgb(0,0,0)" stroke-linejoin="round" stroke-linecap="round" stroke-width="28.571998006975587" d="M -1884 -2183 Q -1860 -2167 -1836 -2159">

</path>

</g>

</g>

<g transform="matrix(0.489990234375 0 0 0.489990234375 14397 11189)">

<g>

<path fill-opacity="1.000" fill="#137992" d="M -18623 -9198 Q -18808 -9106 -18993 -8985 Q -19179 -8850 -19288 -8558 Q -19283 -8551 -19285 -8543 L -19211 -8570 Q -18920 -8669 -18604 -8796 Q -18698 -8935 -18623 -9198 Z M -19667 -8728 Q -19811 -8638 -19939 -8543 Q -20539 -8069 -20811 -7619 Q -20770 -7630 -20716 -7656 L -20673 -7701 Q -20339 -8057 -19625 -8400 Q -19748 -8508 -19667 -8728 Z M -14379 -10216 Q -15219 -10216 -15892 -10078 Q -17941 -9587 -17794 -9416 Q -18113 -9158 -18116 -8964 Q -17520 -9161 -16776 -9298 Q -15705 -9499 -14502 -9499 Q -14253 -9499 -13999 -9490 Q -12456 -9420 -11168 -9166 Q -10722 -9064 -10359 -8897 Q -9496 -8486 -8860 -8051 Q -7903 -7583 -7234 -6742 Q -6801 -6203 -6540 -5411 Q -6219 -4431 -5981 -3242 Q -5888 -2805 -5710 -2491 Q -5398 -2583 -5102 -2647 Q -4661 -2728 -4227 -2728 Q -3879 -2728 -3536 -2676 Q -2765 -2553 -1970 -2222 Q -2793 -2896 -3532 -3730 Q -4217 -4491 -4857 -5259 Q -5531 -6069 -6177 -6806 Q -6765 -7468 -7441 -7930 L -7610 -8041 L -7610 -8041 Q -7610 -8041 -7610 -8041 Q -8354 -8509 -8802 -8740 L -8816 -8748 L -9002 -8852 Q -9454 -9110 -9561 -9168 Q -11257 -9946 -12996 -10135 Q -13737 -10216 -14379 -10216 Z M -13654 -7860 Q -13293 -7329 -12660 -7041 Q -11252 -6400 -10304 -5507 Q -9752 -5004 -9184 -4624 Q -9059 -4473 -8941 -4317 L -8762 -4084 Q -8377 -3640 -8059 -3048 L -7978 -2901 L -7931 -2820 Q -7511 -2406 -7274 -1692 L -7245 -1607 L -7202 -1529 Q -7027 -1204 -6871 -894 Q -6850 -890 -6836 -878 Q -6606 -713 -6419 -444 L -5784 -466 Q -5733 -410 -5689 -373 L -5455 -357 Q -5289 -332 -5223 -332 Q -5188 -332 -5182 -339 Q -5160 -356 -5145 -372 L -5102 -417 Q -4778 -379 -4470 -304 Q -4402 -271 -4338 -234 Q -4281 -210 -4232 -178 Q -4117 -115 -4016 -115 Q -3982 -115 -3950 -122 Q -3923 -129 -3896 -144 Q -3882 -131 -3871 -131 Q -3866 -131 -3861 -134 Q -3556 -35 -3262 85 Q -3111 141 -2964 209 Q -3727 -553 -4552 -797 Q -4906 -900 -5260 -900 Q -5683 -900 -6104 -753 Q -6294 -1227 -6504 -1660 L -6619 -1903 L -6619 -1903 Q -6619 -1903 -6619 -1903 L -6624 -1935 Q -6631 -1993 -6645 -2054 L -6701 -2369 Q -6737 -2584 -6789 -2814 Q -6878 -3267 -6986 -3711 Q -7101 -4024 -7167 -4377 L -7180 -4463 L -7263 -4745 L -7282 -4809 Q -7348 -5152 -7489 -5430 L -7524 -5499 L -7534 -5526 L -7558 -5588 L -7676 -5873 Q -7748 -6041 -7831 -6209 L -7908 -6366 Q -8034 -6520 -8184 -6634 L -8336 -6746 L -8336 -6746 Q -7808 -5699 -7643 -4183 Q -7616 -3959 -7600 -3734 Q -8265 -5161 -9213 -5927 Q -10157 -6716 -11621 -7364 Q -12552 -7748 -13654 -7860 Z">

</path>

<path fill-opacity="1.000" fill="#1AA4BB" d="M -18623 -9198 Q -18698 -8935 -18604 -8796 Q -18920 -8669 -19211 -8570 L -19285 -8543 Q -19283 -8551 -19288 -8558 Q -19179 -8850 -18993 -8985 Q -18808 -9106 -18623 -9198 Z M -14379 -10216 Q -13736 -10216 -12996 -10135 Q -11257 -9946 -9561 -9168 Q -9454 -9110 -9002 -8852 L -8816 -8748 L -8802 -8740 Q -8354 -8509 -7610 -8041 L -7441 -7930 Q -6765 -7468 -6177 -6806 Q -5531 -6069 -4857 -5259 Q -4217 -4491 -3532 -3730 Q -2793 -2896 -1970 -2222 Q -2765 -2553 -3536 -2676 Q -3880 -2728 -4227 -2728 Q -4661 -2728 -5102 -2647 Q -5398 -2583 -5710 -2491 Q -5888 -2805 -5981 -3242 Q -6219 -4431 -6540 -5411 Q -6801 -6203 -7234 -6742 Q -7903 -7583 -8860 -8051 Q -9496 -8486 -10359 -8897 Q -10722 -9064 -11168 -9166 Q -12456 -9420 -13999 -9490 Q -14253 -9499 -14502 -9499 Q -15705 -9499 -16776 -9298 Q -17520 -9161 -18116 -8964 Q -18113 -9158 -17794 -9416 Q -17941 -9587 -15892 -10078 Q -15219 -10216 -14379 -10216 Z M -393 -1716 Q -395 -1716 -398 -1716 Q -435 -1710 -402 -1653 Q -365 -1716 -393 -1716 Z M -13653 -7861 Q -12551 -7749 -11620 -7365 Q -10156 -6717 -9212 -5928 Q -8264 -5162 -7599 -3735 Q -7615 -3960 -7642 -4184 Q -7807 -5700 -8335 -6747 L -8335 -6747 L -8183 -6635 Q -8033 -6521 -7907 -6367 L -7830 -6210 Q -7747 -6042 -7675 -5874 L -7557 -5589 L -7533 -5527 L -7523 -5500 L -7488 -5431 Q -7347 -5153 -7281 -4810 L -7262 -4746 L -7179 -4464 L -7166 -4378 Q -7100 -4025 -6985 -3712 Q -6877 -3268 -6788 -2815 Q -6736 -2585 -6700 -2370 L -6644 -2055 Q -6630 -1994 -6623 -1936 L -6618 -1904 L -6503 -1661 Q -6293 -1228 -6103 -754 Q -5682 -901 -5259 -901 Q -4905 -901 -4551 -798 Q -3726 -554 -2963 208 Q -3110 140 -3261 84 Q -3555 -36 -3860 -135 Q -3864 -132 -3870 -132 Q -3881 -132 -3895 -145 Q -3922 -130 -3949 -123 Q -3981 -116 -4015 -116 Q -4116 -116 -4231 -179 Q -4280 -211 -4337 -235 Q -4401 -272 -4469 -305 Q -4777 -380 -5101 -418 L -5144 -373 Q -5159 -357 -5181 -340 Q -5187 -333 -5222 -333 Q -5287 -333 -5454 -358 L -5688 -374 Q -5732 -411 -5783 -467 L -6418 -445 Q -6605 -714 -6835 -879 Q -6849 -891 -6870 -895 L -6870 -895 L -6870 -895 Q -7026 -1205 -7201 -1530 L -7244 -1608 L -7273 -1693 Q -7510 -2407 -7930 -2821 L -7977 -2902 L -8058 -3049 Q -8376 -3641 -8761 -4085 L -8940 -4318 Q -9058 -4474 -9183 -4625 Q -9751 -5005 -10303 -5508 Q -11251 -6401 -12659 -7042 Q -13292 -7330 -13653 -7861 Z M -13797 -11017 Q -13870 -11017 -13944 -11016 Q -16703 -10810 -17818 -10123 Q -18883 -9523 -19196 -9318 Q -20909 -7883 -20810 -7620 Q -20538 -8070 -19938 -8544 Q -19810 -8639 -19666 -8729 L -19666 -8729 Q -19747 -8509 -19624 -8401 Q -20338 -8058 -20672 -7702 L -20715 -7657 Q -20565 -7740 -20226 -7879 Q -19492 -8180 -18093 -8233 Q -17883 -8258 -17652 -8258 Q -16247 -8258 -14073 -7322 Q -11736 -5967 -10330 -4627 Q -8417 -3046 -7635 -1449 Q -7452 -1115 -7161 -484 Q -6927 -6 -6725 241 Q -6615 220 -6172 94 Q -5815 -1 -5550 -21 Q -5468 -27 -5383 -27 Q -4632 -27 -3687 410 Q -3340 559 -3001 735 Q -2286 1095 -1547 1479 Q -991 1749 -643 1911 L -342 1303 Q -139 884 -60 468 Q 53 -103 -78 -670 Q -243 -1381 -402 -1653 L -2566 -3394 Q -4523 -5143 -6208 -7347 L -6354 -7520 L -6425 -7548 Q -6501 -7577 -6533 -7597 Q -6751 -7726 -6984 -7974 Q -7913 -9011 -9430 -9916 Q -11044 -11017 -13797 -11017 Z">

</path>

<path fill="none" stroke-opacity="1.000" stroke="rgb(0,0,0)" stroke-linejoin="round" stroke-linecap="round" stroke-width="28.571998006975587" d="M -11168 -9166 L -11053 -9118 M -10179 -8678 Q -10407 -8813 -10663 -8939 M -11168 -9166 L -11492 -9291 M -9477 -8276 L -9538 -8248 L -9490 -8212 L -9268 -8035 M -9538 -8248 L -9579 -8227 L -9603 -8207 M -8802 -8740 L -8816 -8748 M -1970 -2222 L -1962 -2219 L -1884 -2183 M -1836 -2159 Q -1726 -2107 -1635 -2075 M -7944 -8281 Q -8367 -8561 -8802 -8740 M -9538 -8248 L -9856 -8475 M -7753 -6246 Q -7790 -6222 -7831 -6209 Q -7748 -6041 -7676 -5873 Q -7617 -5891 -7565 -5921 M -7908 -6366 L -8030 -6585 M -7831 -6209 Q -7848 -6196 -7872 -6194 Q -7886 -6186 -7903 -6185 M -7831 -6209 L -7908 -6366 M -9184 -4624 L -9357 -4822 Q -9582 -5068 -9839 -5317 M -8472 -7449 Q -8541 -7420 -8589 -7379 Q -8434 -7192 -8287 -6992 M -8589 -7379 L -8590 -7379 Q -8620 -7345 -8649 -7323 M -8589 -7379 Q -8766 -7583 -8966 -7770 M -8762 -4084 L -8941 -4317 M -7524 -5499 L -7534 -5526 L -7558 -5588 L -7676 -5873 Q -7704 -5861 -7736 -5857 L -7796 -5854 M -7263 -4745 L -7282 -4809 L -7356 -5036 M -7263 -4745 Q -7272 -4737 -7289 -4733 Q -7293 -4725 -7308 -4720 M -6986 -3711 Q -7016 -3850 -7054 -3996 M -7263 -4745 L -7180 -4463 M -7185 -4776 L -7263 -4745 M -11212 -6463 Q -11551 -6704 -11961 -6952 M -10129 -5590 Q -10458 -5891 -10871 -6211 M -7667 -2371 Q -7791 -2594 -7931 -2820 M -7978 -2901 L -8172 -3214 M -6701 -2369 Q -6737 -2584 -6789 -2814 Q -6878 -3267 -6986 -3711 M -6645 -2054 L -6585 -2022 M -6701 -2369 L -6645 -2054 L -6735 -2095 L -6752 -2090 M -6605 -2319 Q -6651 -2348 -6701 -2369 L -6771 -2391 L -6798 -2402 M -6619 -1903 L -6624 -1935 Q -6631 -1993 -6645 -2054 M -6619 -1903 Q -6592 -1755 -6572 -1618 M -7202 -1529 Q -7027 -1204 -6871 -894 M -6419 -444 L -5784 -466 L -5703 -464 M -6871 -894 L -6775 -706 M -7245 -1607 Q -7306 -1728 -7378 -1853 M -8379 -3532 Q -8559 -3814 -8762 -4084 M -6004 -6296 L -6220 -6601 Q -6402 -6850 -6604 -7082 M -5519 -5764 Q -5188 -5335 -4888 -4938 M -6419 -444 L -6476 -438 M -5102 -417 L -5275 -437 M -4346 -273 L -4470 -304 M -3861 -134 L -3992 -175 M -4470 -304 Q -4778 -379 -5102 -417 M -2390 -2480 Q -2164 -2331 -1970 -2222 M -3494 -3323 Q -3295 -3134 -3107 -2989 L -2848 -2796 M -4615 -4590 Q -4199 -4060 -3826 -3657 M -6972 -7479 Q -7287 -7796 -7610 -8041 M -2964 209 Q -3111 141 -3262 85 Q -3556 -35 -3861 -134 M -16583 -8401 L -17178 -8432 M -15383 -8239 Q -15772 -8311 -16169 -8359 M -13686 -9849 Q -14139 -9923 -14620 -9968 M -13892 -7848 Q -14365 -8008 -14881 -8132 M -11991 -9459 Q -12543 -9628 -13171 -9756 M -12454 -7229 Q -12869 -7445 -13344 -7645">

</path>

<path fill="none" stroke-opacity="1.000" stroke="rgb(0,0,0)" stroke-linejoin="round" stroke-linecap="round" stroke-width="40" d="M -18116 -8964 Q -18115 -8701 -17558 -8413 Q -17719 -8428 -17863 -8462 Q -18450 -8579 -18604 -8796 M -19285 -8543 Q -19229 -8371 -19133 -8347 Q -19030 -8322 -18950 -8280 Q -19266 -8245 -19446 -8305 Q -19562 -8343 -19625 -8400 M -20716 -7656 Q -20566 -7739 -20227 -7878 Q -19493 -8179 -18094 -8232 Q -16606 -8411 -14074 -7321 Q -11737 -5966 -10331 -4626 Q -8418 -3045 -7636 -1448 Q -7453 -1114 -7162 -483 Q -6928 -5 -6726 242 Q -6616 221 -6173 95 Q -5816 0 -5551 -20 Q -4740 -75 -3688 411 Q -3341 560 -3002 736 Q -2287 1096 -1548 1480 Q -992 1750 -644 1912 L -343 1304 Q -140 885 -61 469 Q 52 -102 -79 -669 Q -244 -1380 -403 -1652 L -2567 -3393 Q -4524 -5142 -6209 -7346 L -6355 -7519 L -6426 -7547 Q -6502 -7576 -6534 -7596 Q -6752 -7725 -6985 -7973 Q -7914 -9010 -9431 -9915 Q -11088 -11045 -13945 -11015 Q -16704 -10809 -17819 -10122 Q -18884 -9522 -19197 -9317 Q -19584 -8965 -19667 -8728 Q -19748 -8508 -19625 -8400 M -9561 -9168 Q -11257 -9946 -12996 -10135 Q -14704 -10321 -15892 -10078 Q -17941 -9587 -17794 -9416 Q -18113 -9158 -18116 -8964 M -403 -1652 Q -363 -1721 -399 -1715 Q -436 -1709 -403 -1652 Z M -19285 -8543 Q -19283 -8551 -19288 -8558 Q -19179 -8850 -18993 -8985 Q -18808 -9106 -18623 -9198 Q -18698 -8935 -18604 -8796 M -20716 -7656 Q -20770 -7630 -20811 -7619 Q -20910 -7882 -19197 -9317">

</path>

<path fill="none" stroke-opacity="1.000" stroke="rgb(0,0,0)" stroke-linejoin="round" stroke-linecap="round" stroke-width="28.571998006975587" d="M -1884 -2183 Q -1860 -2167 -1836 -2159">

</path>

</g>

</g>

<g transform="matrix(0.489990234375 0 0 0.489990234375 14898 11366)">

<g>

<path fill-opacity="1.000" fill="#137992" d="M 29 -2731 Q 18 -2731 8 -2731 Q -776 -2726 -1474 -2386 Q -1599 -2325 -1713 -2248 Q -1836 -2166 -1946 -2064 L -2106 -1921 Q -2052 -1146 -1855 -395 Q -1659 357 -1282 1029 L -1276 1040 Q -894 1719 -385 2301 Q -138 2582 102 2582 Q 356 2582 602 2267 Q 800 2015 923 1716 Q 1200 1045 1441 361 Q 1694 -359 1875 -1101 Q 2015 -1677 1895 -2259 L 1717 -2350 Q 1597 -2408 1472 -2457 Q 775 -2731 29 -2731 Z M -1970 1830 Q -2032 2311 -1941 2784 L -1927 2835 Q -1807 2714 -1673 2714 Q -1610 2714 -1543 2741 Q -1434 2786 -1367 2898 Q -1289 3028 -1245 3172 L -1222 3164 Q -991 3009 -923 2720 L -896 2627 Q -1194 2510 -1458 2316 Q -1629 2191 -1785 2034 Q -1883 1935 -1970 1830 Z M 2090 2025 Q 1942 2169 1782 2285 Q 1453 2524 1069 2647 Q 1240 2920 1464 3159 L 1495 3185 Q 1485 2702 1801 2702 Q 1871 2702 1958 2726 Q 2051 2751 2109 2838 L 2146 2897 Q 2234 2453 2090 2025 Z">

</path>

<path fill-opacity="1.000" fill="#1AA4BB" d="M 1895 -2259 Q 2015 -1677 1875 -1101 Q 1694 -359 1441 361 Q 1200 1045 923 1716 Q 800 2015 602 2267 Q 356 2582 102 2582 Q -138 2582 -385 2301 Q -894 1719 -1276 1040 L -1282 1029 L -1282 1029 Q -1282 1029 -1282 1029 Q -1659 357 -1855 -395 Q -2052 -1146 -2106 -1921 Q -2608 -1486 -3180 -1169 L -3155 -914 Q -3093 -111 -3225 679 Q -2578 909 -2203 1509 Q -2097 1677 -1970 1830 Q -1883 1935 -1785 2034 Q -1629 2191 -1458 2316 Q -1194 2510 -896 2627 Q -717 2697 -525 2739 Q -231 2803 76 2803 Q 518 2803 988 2671 L 1069 2647 Q 1453 2524 1782 2285 Q 1942 2169 2090 2025 Q 2251 1867 2398 1675 Q 2848 1083 3270 825 Q 3289 538 3323 253 Q 3408 -449 3399 -1155 Q 3043 -1323 2763 -1604 Q 2369 -2000 1895 -2259 Z">

</path>

<path fill="none" stroke-opacity="1.000" stroke="rgb(0,0,0)" stroke-linejoin="round" stroke-linecap="round" stroke-width="28.571998006975587" d="M 1717 -2350 L 1791 -2180 M 1971 -1332 Q 1976 -1190 1966 -1045 M 1884 -1897 Q 1918 -1770 1940 -1642 M 1925 -736 L 1908 -655 L 1866 -464 M -1713 -2248 L -1742 -2149 M -1786 -1954 Q -1819 -1782 -1827 -1606 M -1282 1029 L -1286 1001 M -1716 -728 L -1689 -641 L -1627 -444 M -1822 -1307 Q -1811 -1148 -1779 -987 M -1401 404 L -1339 701 M -1263 1557 Q -1274 1698 -1301 1834 M -1282 1029 Q -1266 1153 -1260 1273 M -1458 2316 Q -1411 2213 -1374 2107 M 1782 2285 Q 1730 2222 1688 2157 M 1484 1644 Q 1503 1765 1546 1881 M 1534 1012 L 1508 1124 Q 1484 1229 1475 1330 M 1665 437 L 1603 712 M -1548 -175 L -1469 121 M 1798 -157 L 1735 128">

</path>

<path fill="none" stroke-opacity="1.000" stroke="rgb(0,0,0)" stroke-linejoin="round" stroke-linecap="round" stroke-width="40" d="M -2106 -1921 L -1946 -2064 Q -1836 -2166 -1713 -2248 Q -1599 -2325 -1474 -2386 Q -776 -2726 8 -2731 Q 765 -2735 1472 -2457 Q 1597 -2408 1717 -2350 L 1895 -2259 Q 2369 -2000 2763 -1604 Q 3043 -1323 3399 -1155 L 3461 -1127 M -3227 -1143 L -3180 -1169 Q -2608 -1486 -2106 -1921 M -3225 679 Q -2578 909 -2203 1509 Q -2097 1677 -1970 1830 Q -1883 1935 -1785 2034 Q -1629 2191 -1458 2316 M -1970 1830 Q -2032 2311 -1941 2784 L -1927 2835 Q -1750 2657 -1543 2741 Q -1434 2786 -1367 2898 Q -1289 3028 -1245 3172 L -1222 3164 Q -991 3009 -923 2720 L -896 2627 Q -1194 2510 -1458 2316 M -896 2627 Q -717 2697 -525 2739 Q 190 2895 988 2671 L 1069 2647 Q 1453 2524 1782 2285 M -3243 673 L -3225 679 M 3270 825 Q 3391 751 3509 704 M 3270 825 Q 2848 1083 2398 1675 Q 2251 1867 2090 2025 Q 2234 2453 2146 2897 L 2109 2838 Q 2051 2751 1958 2726 Q 1483 2595 1495 3185 L 1464 3159 Q 1240 2920 1069 2647 M 2090 2025 Q 1942 2169 1782 2285">

</path>

</g>

</g>

<g transform="matrix(0.489990234375 0 0 0.489990234375 14924 10743)">

<g>

<path fill-opacity="1.000" fill="rgb(255,255,255)" d="M 1846 -2265 Q 1594 -1822 1766 -1340 L 1789 -1278 Q 1866 -1391 1927 -1548 Q 2065 -1910 1846 -2265 Z M -1867 -2415 Q -1989 -2164 -1980 -1756 Q -1974 -1468 -1882 -1277 Q -1464 -1800 -1840 -2376 L -1867 -2415 Z M 1486 -2662 Q 1274 -2526 1060 -2424 Q 1059 -1679 1125 -1323 Q 1187 -982 1265 -982 Q 1268 -982 1272 -983 Q 1419 -983 1540 -1046 Q 1036 -1775 1617 -2398 L 1691 -2468 Q 1602 -2565 1486 -2662 Z M -1445 -2774 Q -1592 -2731 -1698 -2638 Q -1621 -2553 -1561 -2462 Q -1084 -1737 -1547 -964 Q -1399 -907 -1199 -907 Q -1196 -907 -1192 -907 Q -1026 -1438 -1049 -1865 L -1078 -2331 L -1159 -2447 Q -1267 -2593 -1445 -2774 Z">

</path>

<path fill-opacity="1.000" fill="rgb(0,0,0)" d="M 1691 -2468 L 1617 -2398 Q 1036 -1775 1540 -1046 Q 1681 -1120 1789 -1278 L 1766 -1340 Q 1594 -1822 1846 -2265 Q 1783 -2367 1691 -2468 Z M -1707 -2640 Q -1720 -2640 -1720 -2619 Q -1809 -2535 -1867 -2415 L -1840 -2376 Q -1464 -1800 -1882 -1277 Q -1829 -1166 -1547 -964 Q -1084 -1737 -1561 -2462 Q -1621 -2553 -1698 -2638 Q -1703 -2640 -1707 -2640 Z">

</path>

<path fill-opacity="1.000" fill="#1AA4BB" d="M 504 -7676 Q 483 -7676 458 -7671 Q 303 -7640 110 -7355 L 72 -7174 Q -76 -6553 -85 -5921 L 0 -5471 Q 3 -5139 -5 -4807 L -56 -2987 Q -61 -2830 -133 -2715 Q -250 -2532 -380 -2532 Q -523 -2532 -684 -2751 Q -916 -2822 -1072 -3110 Q -1126 -3209 -1180 -3275 Q -1287 -3405 -1396 -3405 Q -1476 -3405 -1556 -3335 Q -1802 -3122 -1549 -2878 L -1445 -2774 Q -1267 -2593 -1159 -2447 L -1078 -2331 Q -994 -2203 -931 -2074 Q -902 -2013 -876 -1937 Q -812 -1895 -770 -1832 Q -381 -1250 -299 -528 Q -190 432 -51 1385 L -39 1575 Q 14 2265 -215 2911 Q -141 3258 -60 3411 Q 33 3510 122 3510 Q 271 3510 409 3232 Q 627 2788 824 1738 Q 910 1280 991 893 Q 1073 494 1151 169 L 1190 6 Q 1359 -676 1540 -1046 L 1540 -1046 Q 1419 -983 1272 -983 Q 1269 -982 1265 -982 Q 1187 -982 1125 -1323 Q 1059 -1679 1060 -2424 Q 1274 -2526 1486 -2662 L 1592 -2732 Q 1934 -2967 1778 -3216 Q 1683 -3366 1533 -3366 Q 1434 -3366 1310 -3301 L 1238 -3261 Q 1248 -3865 882 -4325 Q 516 -4786 384 -5169 Q 251 -5552 317 -6094 Q 382 -6637 557 -7181 Q 608 -7338 621 -7445 L 621 -7445 Q 621 -7445 621 -7445 Q 649 -7676 504 -7676 Z">

</path>

<path fill-opacity="1.000" fill="#137992" d="M 110 -7355 Q -41 -7133 -216 -6756 Q -614 -5896 -597 -5023 Q -592 -4788 -615 -4480 L -636 -4249 Q -1078 -3769 -1180 -3275 Q -1126 -3209 -1072 -3110 Q -916 -2822 -684 -2751 Q -524 -2532 -380 -2532 Q -249 -2532 -133 -2715 Q -61 -2830 -56 -2987 L -5 -4807 Q 3 -5139 0 -5471 L -85 -5921 Q -76 -6553 72 -7174 L 110 -7355 Z M -1078 -2331 L -1049 -1865 Q -1026 -1438 -1192 -907 Q -1195 -907 -1199 -907 Q -1399 -907 -1547 -964 L -1547 -964 Q -1224 -399 -998 123 Q -787 610 -660 1058 Q -566 1388 -485 1706 Q -339 2281 -234 2814 L -215 2911 Q 14 2265 -39 1575 L -51 1385 Q -190 432 -299 -528 Q -381 -1250 -770 -1832 Q -812 -1895 -876 -1937 L -876 -1937 Q -876 -1937 -876 -1937 Q -902 -2013 -931 -2074 Q -994 -2203 -1078 -2331 Z">

</path>

<path fill="none" stroke-opacity="1.000" stroke="rgb(0,0,0)" stroke-linejoin="round" stroke-linecap="round" stroke-width="40" d="M 621 -7445 Q 653 -7710 458 -7671 Q 303 -7640 110 -7355 M 621 -7445 Q 608 -7338 557 -7181 Q 382 -6637 317 -6094 Q 251 -5552 384 -5169 Q 516 -4786 882 -4325 Q 1248 -3865 1238 -3261 L 1310 -3301 Q 1621 -3465 1778 -3216 Q 1934 -2967 1592 -2732 L 1486 -2662 Q 1602 -2565 1691 -2468 Q 1783 -2367 1846 -2265 Q 2065 -1910 1927 -1548 Q 1866 -1391 1789 -1278 Q 1681 -1120 1540 -1046 Q 1359 -676 1190 6 L 1151 169 Q 1073 494 991 893 Q 910 1280 824 1738 Q 627 2788 409 3232 Q 190 3675 -60 3411 Q -141 3258 -215 2911 L -234 2814 Q -339 2281 -485 1706 Q -566 1388 -660 1058 Q -787 610 -998 123 Q -1224 -399 -1547 -964 Q -1829 -1166 -1882 -1277 Q -1974 -1468 -1980 -1756 Q -1989 -2164 -1867 -2415 Q -1809 -2535 -1720 -2619 M -1698 -2638 Q -1592 -2731 -1445 -2774 L -1549 -2878 Q -1802 -3122 -1556 -3335 Q -1366 -3501 -1180 -3275 Q -1078 -3769 -636 -4249 L -615 -4480 Q -592 -4788 -597 -5023 Q -614 -5896 -216 -6756 Q -41 -7133 110 -7355 M 1486 -2662 Q 1274 -2526 1060 -2424 Q 1059 -1679 1125 -1323 Q 1190 -968 1272 -983 Q 1419 -983 1540 -1046 Q 1036 -1775 1617 -2398 L 1691 -2468 M 1060 -2424 L 901 -2354 Q 553 -2211 543 -1730 M 483 -2695 Q 941 -3089 1238 -3261 M 1846 -2265 Q 1594 -1822 1766 -1340 L 1789 -1278 M -684 -2751 Q -916 -2822 -1072 -3110 Q -1126 -3209 -1180 -3275 M -1445 -2774 Q -1267 -2593 -1159 -2447 L -1078 -2331 Q -994 -2203 -931 -2074 Q -902 -2013 -876 -1937 M -422 -2735 Q -563 -2714 -684 -2751 M -1882 -1277 Q -1464 -1800 -1840 -2376 L -1867 -2415 M -1720 -2619 L -1698 -2638 Q -1621 -2553 -1561 -2462 Q -1084 -1737 -1547 -964 Q -1396 -906 -1192 -907 Q -1026 -1438 -1049 -1865 L -1078 -2331 M -876 -1937 Q -823 -1783 -784 -1569">

</path>

<path fill="none" stroke-opacity="1.000" stroke="rgb(0,0,0)" stroke-linejoin="round" stroke-linecap="round" stroke-width="28.571998006975587" d="M 436 -7173 Q 526 -7324 621 -7445 M -85 -5921 L -9 -6156 M 128 -6532 Q 192 -6694 259 -6838 M 683 -1207 L 537 -1173 L 538 -1066 Q 536 -877 594 -693 L 683 -724 M 362 -1146 L 537 -1173 L 563 -1509 M 1151 169 L 790 -300 L 643 -221 M 594 -693 L 790 -300 L 945 -362 M 482 -664 L 594 -693 M 813 958 Q 901 924 991 893 M 387 1139 Q 512 1078 641 1025 M -51 1385 Q 33 1331 120 1281 L 147 1266 M -303 -5224 L -204 -5527 M -89 -5906 L -85 -5921 M -615 -4480 Q -527 -4618 -411 -4921 M -765 -1207 L -725 -997 L -523 -966 M -998 123 L -819 -378 L -906 -422 M -819 -378 L -780 -542 Q -727 -764 -725 -997 L -865 -1006 M -819 -378 L -644 -282 M -485 1706 Q -406 1633 -319 1569 M -76 1401 L -51 1385">

</path>

</g>

</g>

</g>

</g>

</g>

</svg>
