<?xml version="1.0" encoding="utf-8"?>
<!DOCTYPE svg PUBLIC "-//W3C//DTD SVG 1.1//EN" "http://www.w3.org/Graphics/SVG/1.1/DTD/svg11.dtd">
<svg version="1.1" xmlns="http://www.w3.org/2000/svg" xmlns:xlink="http://www.w3.org/1999/xlink" viewBox="0 0 11000 8000">

<g enable-background="new">

<g>

<g>

<g transform="matrix(-0.489990234375 0 0 0.489990234375 6058 4433)">

<g>

<path fill-opacity="1.000" fill="#E8C358" d="M -5897 -1393 L -5783 -1392 L -5669 -1381 L -5669 -1313 L -5763 -1284 Q -5815 -1269 -5856 -1249 Q -5898 -1230 -5923 -1207 L -5943 -1184 L -6199 -1268 L -6277 -1283 L -6394 -1288 L -6489 -1280 L -6586 -1267 L -6698 -1257 L -6711 -1256 L -6628 -1294 Q -6577 -1319 -6525 -1346 L -6456 -1370 L -6355 -1386 Q -6330 -1388 -6307 -1388 Q -6283 -1388 -6261 -1386 L -6155 -1375 L -6121 -1373 L -6009 -1382 L -5897 -1393 Z M -4982 -1671 Q -5048 -1671 -5114 -1668 Q -5626 -1648 -6230 -1467 Q -6583 -1362 -6759 -1362 Q -6848 -1362 -6892 -1389 L -6905 -1399 L -6905 -1399 Q -6889 -1232 -6432 -993 Q -6071 -845 -5727 -736 Q -5584 -691 -5311 -574 Q -4829 -367 -4771 -343 Q -4633 -287 -4196 -182 L -4165 -174 L -4137 -168 L -3471 -19 Q -3306 18 -3123 81 Q -2906 155 -2811 219 Q -2703 292 -2591 294 Q -2394 284 -2186 284 L -1545 316 L -1185 347 L -1090 340 Q -1061 326 -1061 262 L -1061 260 Q -1062 237 -1090 209 Q -1122 178 -1188 142 Q -1259 102 -1369 55 L -1635 -52 Q -1794 -115 -1869 -153 Q -2007 -223 -2189 -381 L -2403 -575 L -2403 -582 Q -2324 -562 -2129 -488 L -1757 -349 Q -1246 -167 -963 -167 Q -688 -167 -562 -364 Q -471 -506 -471 -715 Q -471 -773 -474 -794 L -476 -808 Q -648 -735 -850 -735 Q -936 -735 -1027 -748 Q -1531 -822 -2103 -948 Q -2675 -1075 -3133 -1240 Q -3591 -1405 -4097 -1547 Q -4538 -1671 -4982 -1671 Z">

</path>

<path fill-opacity="1.000" fill="#8C6B12" d="M -5897 -1393 L -6009 -1382 L -6121 -1373 L -6155 -1375 L -6261 -1386 Q -6283 -1388 -6307 -1388 Q -6330 -1388 -6355 -1386 L -6456 -1370 L -6525 -1346 Q -6577 -1319 -6628 -1294 L -6711 -1256 L -6698 -1257 L -6586 -1267 L -6489 -1280 L -6394 -1288 L -6277 -1283 L -6199 -1268 L -5943 -1184 L -5923 -1207 Q -5898 -1230 -5856 -1249 Q -5815 -1269 -5763 -1284 L -5669 -1313 L -5669 -1381 L -5783 -1392 L -5897 -1393 Z M 28 -1312 Q -16 -1207 -87 -1117 Q -257 -903 -476 -808 L -474 -794 Q -471 -773 -471 -715 Q -471 -506 -562 -364 Q -688 -167 -963 -167 Q -1246 -167 -1757 -349 L -2129 -488 Q -2324 -562 -2403 -582 L -2403 -575 L -2189 -381 Q -2007 -223 -1869 -153 Q -1794 -115 -1635 -52 L -1369 55 Q -1259 102 -1188 142 Q -1122 178 -1090 209 Q -1062 237 -1061 260 L -1061 262 Q -1061 326 -1090 340 L -1185 347 L -1545 316 L -2186 284 Q -2394 284 -2591 294 Q -2703 292 -2811 219 Q -2906 155 -3123 81 Q -3306 18 -3471 -19 L -4137 -168 L -4165 -174 L -4196 -182 Q -4633 -287 -4771 -343 Q -4829 -367 -5311 -574 Q -5584 -691 -5727 -736 Q -6071 -845 -6432 -993 L -6432 -993 L -6281 -918 Q -5676 -629 -5168 -418 Q -4661 -207 -4186 -67 Q -3711 72 -3285 242 Q -2860 411 -2521 617 Q -2267 560 -2196 557 Q -2140 554 -2035 554 Q -2009 554 -1979 554 L -1829 557 Q -1140 557 -631 817 Q -364 935 -249 999 Q -134 1063 -42 1075 Q 84 837 190 592 Q 382 149 369 -327 Q 355 -858 28 -1312 Z">

</path>

<path fill="none" stroke-opacity="1.000" stroke="rgb(0,0,0)" stroke-linejoin="round" stroke-linecap="round" stroke-width="40" d="M -476 -808 Q -257 -903 -87 -1117 Q -16 -1207 28 -1312 Q 355 -858 369 -327 Q 382 149 190 592 Q 84 837 -42 1075 Q -134 1063 -249 999 Q -364 935 -631 817 Q -1140 557 -1829 557 L -1979 554 Q -2126 553 -2196 557 Q -2267 560 -2521 617 Q -2860 411 -3285 242 Q -3711 72 -4186 -67 Q -4661 -207 -5168 -418 Q -5676 -629 -6281 -918 L -6432 -993 Q -6889 -1232 -6905 -1399 L -6892 -1389 Q -6761 -1309 -6230 -1467 Q -5626 -1648 -5114 -1668 Q -4603 -1689 -4097 -1547 Q -3591 -1405 -3133 -1240 Q -2675 -1075 -2103 -948 Q -1531 -822 -1027 -748 Q -721 -704 -476 -808 Z M -6525 -1346 L -6456 -1370 L -6355 -1386 Q -6306 -1390 -6261 -1386 L -6155 -1375 L -6121 -1373 L -6009 -1382 L -5897 -1393 L -5783 -1392 L -5669 -1381 L -5669 -1313 L -5763 -1284 Q -5815 -1269 -5856 -1249 Q -5898 -1230 -5923 -1207 L -5943 -1184 L -6199 -1268 L -6277 -1283 L -6394 -1288 L -6489 -1280 L -6586 -1267 L -6698 -1257 L -6711 -1256 L -6628 -1294 Q -6577 -1319 -6525 -1346 Z M -6121 -1373 L -6199 -1268">

</path>

<path fill="none" stroke-opacity="1.000" stroke="rgb(0,0,0)" stroke-linejoin="round" stroke-linecap="round" stroke-width="28.571998006975587" d="M -1188 142 L -1175 122 L -1165 108 L -1242 57 M -6036 -968 L -5888 -934 M -5022 -571 L -4878 -499 M -5542 -821 L -5396 -758 M -5287 -705 L -5149 -634 M -5765 -899 L -5617 -849 M -1090 209 L -1097 228 M -3831 -1259 L -3882 -1276 Q -4014 -1321 -4156 -1355 M -3486 -1147 L -3736 -1227 M -4277 -1382 Q -4451 -1417 -4639 -1436 M -4754 -1446 L -4842 -1452 L -5165 -1452 M -4467 -303 L -4298 -229 M -4739 -432 L -4601 -366 M -3928 -87 L -3829 -54 L -3753 -31 M -4165 -174 L -4027 -122 M -3155 -1054 L -3197 -1065 L -3345 -1105 M -2319 -861 L -2562 -909 L -2604 -919 M -2643 -595 Q -2646 -630 -2640 -650 L -2638 -656 L -2671 -667 L -2903 -745 M -2638 -656 Q -2624 -691 -2559 -736 M -2517 -539 Q -2505 -567 -2480 -592 L -2476 -596 L -2638 -656 M -1708 -792 L -1848 -803 M -2291 -519 Q -2128 -448 -1977 -368 L -1923 -339 M -1966 -815 L -2196 -842 M -2747 -953 L -3021 -1021 M -2412 -638 Q -2448 -622 -2476 -596 L -2422 -574 M -1546 -216 Q -1572 -203 -1608 -164 Q -1486 -95 -1370 -24 M -1652 -104 Q -1648 -119 -1613 -159 L -1608 -164 L -1793 -269 M -182 -897 L -261 -828 M -541 -636 L -639 -582 M -21 -202 L -169 -283 M -272 -337 L -466 -436 M -364 -744 L -426 -702 M -559 -481 L -655 -527 M -769 -580 Q -843 -613 -921 -638 M 78 -1123 L -62 -1003 L -99 -970 M -3437 -904 Q -3235 -849 -3038 -787 M -1165 108 L -1132 51 M -1202 165 L -1188 142 M -1090 209 L -1067 175 L -1165 108 M -1061 260 Q -1054 241 -1029 213 L -1023 207 L -1067 175 L -1062 168 Q -1026 124 -998 114 M -830 270 Q -862 289 -883 311 L -809 368 M -883 311 Q -906 334 -914 361 M -949 149 Q -992 174 -1023 207 L -883 311 M -3673 -8 L -3556 23">

</path>

</g>

</g>

<g transform="matrix(0.489990234375 0 0 0.489990234375 4959 4433)">

<g>

<path fill-opacity="1.000" fill="#E8C358" d="M -5897 -1393 L -5783 -1392 L -5669 -1381 L -5669 -1313 L -5763 -1284 Q -5815 -1269 -5856 -1249 Q -5898 -1230 -5923 -1207 L -5943 -1184 L -6199 -1268 L -6277 -1283 L -6394 -1288 L -6489 -1280 L -6586 -1267 L -6698 -1257 L -6711 -1256 L -6628 -1294 Q -6577 -1319 -6525 -1346 L -6456 -1370 L -6355 -1386 Q -6330 -1388 -6307 -1388 Q -6283 -1388 -6261 -1386 L -6155 -1375 L -6121 -1373 L -6009 -1382 L -5897 -1393 Z M -4982 -1671 Q -5048 -1671 -5114 -1668 Q -5626 -1648 -6230 -1467 Q -6583 -1362 -6759 -1362 Q -6848 -1362 -6892 -1389 L -6905 -1399 L -6905 -1399 Q -6889 -1232 -6432 -993 Q -6071 -845 -5727 -736 Q -5584 -691 -5311 -574 Q -4829 -367 -4771 -343 Q -4633 -287 -4196 -182 L -4165 -174 L -4137 -168 L -3471 -19 Q -3306 18 -3123 81 Q -2906 155 -2811 219 Q -2703 292 -2591 294 Q -2394 284 -2186 284 L -1545 316 L -1185 347 L -1090 340 Q -1061 326 -1061 262 L -1061 260 Q -1062 237 -1090 209 Q -1122 178 -1188 142 Q -1259 102 -1369 55 L -1635 -52 Q -1794 -115 -1869 -153 Q -2007 -223 -2189 -381 L -2403 -575 L -2403 -582 Q -2324 -562 -2129 -488 L -1757 -349 Q -1246 -167 -963 -167 Q -688 -167 -562 -364 Q -471 -506 -471 -715 Q -471 -773 -474 -794 L -476 -808 Q -648 -735 -850 -735 Q -936 -735 -1027 -748 Q -1531 -822 -2103 -948 Q -2675 -1075 -3133 -1240 Q -3591 -1405 -4097 -1547 Q -4538 -1671 -4982 -1671 Z">

</path>

<path fill-opacity="1.000" fill="#8C6B12" d="M -5897 -1393 L -6009 -1382 L -6121 -1373 L -6155 -1375 L -6261 -1386 Q -6283 -1388 -6307 -1388 Q -6330 -1388 -6355 -1386 L -6456 -1370 L -6525 -1346 Q -6577 -1319 -6628 -1294 L -6711 -1256 L -6698 -1257 L -6586 -1267 L -6489 -1280 L -6394 -1288 L -6277 -1283 L -6199 -1268 L -5943 -1184 L -5923 -1207 Q -5898 -1230 -5856 -1249 Q -5815 -1269 -5763 -1284 L -5669 -1313 L -5669 -1381 L -5783 -1392 L -5897 -1393 Z M 28 -1312 Q -16 -1207 -87 -1117 Q -257 -903 -476 -808 L -474 -794 Q -471 -773 -471 -715 Q -471 -506 -562 -364 Q -688 -167 -963 -167 Q -1246 -167 -1757 -349 L -2129 -488 Q -2324 -562 -2403 -582 L -2403 -575 L -2189 -381 Q -2007 -223 -1869 -153 Q -1794 -115 -1635 -52 L -1369 55 Q -1259 102 -1188 142 Q -1122 178 -1090 209 Q -1062 237 -1061 260 L -1061 262 Q -1061 326 -1090 340 L -1185 347 L -1545 316 L -2186 284 Q -2394 284 -2591 294 Q -2703 292 -2811 219 Q -2906 155 -3123 81 Q -3306 18 -3471 -19 L -4137 -168 L -4165 -174 L -4196 -182 Q -4633 -287 -4771 -343 Q -4829 -367 -5311 -574 Q -5584 -691 -5727 -736 Q -6071 -845 -6432 -993 L -6432 -993 L -6281 -918 Q -5676 -629 -5168 -418 Q -4661 -207 -4186 -67 Q -3711 72 -3285 242 Q -2860 411 -2521 617 Q -2267 560 -2196 557 Q -2140 554 -2035 554 Q -2009 554 -1979 554 L -1829 557 Q -1140 557 -631 817 Q -364 935 -249 999 Q -134 1063 -42 1075 Q 84 837 190 592 Q 382 149 369 -327 Q 355 -858 28 -1312 Z">

</path>

<path fill="none" stroke-opacity="1.000" stroke="rgb(0,0,0)" stroke-linejoin="round" stroke-linecap="round" stroke-width="40" d="M -476 -808 Q -257 -903 -87 -1117 Q -16 -1207 28 -1312 Q 355 -858 369 -327 Q 382 149 190 592 Q 84 837 -42 1075 Q -134 1063 -249 999 Q -364 935 -631 817 Q -1140 557 -1829 557 L -1979 554 Q -2126 553 -2196 557 Q -2267 560 -2521 617 Q -2860 411 -3285 242 Q -3711 72 -4186 -67 Q -4661 -207 -5168 -418 Q -5676 -629 -6281 -918 L -6432 -993 Q -6889 -1232 -6905 -1399 L -6892 -1389 Q -6761 -1309 -6230 -1467 Q -5626 -1648 -5114 -1668 Q -4603 -1689 -4097 -1547 Q -3591 -1405 -3133 -1240 Q -2675 -1075 -2103 -948 Q -1531 -822 -1027 -748 Q -721 -704 -476 -808 Z M -6525 -1346 L -6456 -1370 L -6355 -1386 Q -6306 -1390 -6261 -1386 L -6155 -1375 L -6121 -1373 L -6009 -1382 L -5897 -1393 L -5783 -1392 L -5669 -1381 L -5669 -1313 L -5763 -1284 Q -5815 -1269 -5856 -1249 Q -5898 -1230 -5923 -1207 L -5943 -1184 L -6199 -1268 L -6277 -1283 L -6394 -1288 L -6489 -1280 L -6586 -1267 L -6698 -1257 L -6711 -1256 L -6628 -1294 Q -6577 -1319 -6525 -1346 Z M -6121 -1373 L -6199 -1268">

</path>

<path fill="none" stroke-opacity="1.000" stroke="rgb(0,0,0)" stroke-linejoin="round" stroke-linecap="round" stroke-width="28.571998006975587" d="M -1188 142 L -1175 122 L -1165 108 L -1242 57 M -6036 -968 L -5888 -934 M -5022 -571 L -4878 -499 M -5542 -821 L -5396 -758 M -5287 -705 L -5149 -634 M -5765 -899 L -5617 -849 M -1090 209 L -1097 228 M -3831 -1259 L -3882 -1276 Q -4014 -1321 -4156 -1355 M -3486 -1147 L -3736 -1227 M -4277 -1382 Q -4451 -1417 -4639 -1436 M -4754 -1446 L -4842 -1452 L -5165 -1452 M -4467 -303 L -4298 -229 M -4739 -432 L -4601 -366 M -3928 -87 L -3829 -54 L -3753 -31 M -4165 -174 L -4027 -122 M -3155 -1054 L -3197 -1065 L -3345 -1105 M -2319 -861 L -2562 -909 L -2604 -919 M -2643 -595 Q -2646 -630 -2640 -650 L -2638 -656 L -2671 -667 L -2903 -745 M -2638 -656 Q -2624 -691 -2559 -736 M -2517 -539 Q -2505 -567 -2480 -592 L -2476 -596 L -2638 -656 M -1708 -792 L -1848 -803 M -2291 -519 Q -2128 -448 -1977 -368 L -1923 -339 M -1966 -815 L -2196 -842 M -2747 -953 L -3021 -1021 M -2412 -638 Q -2448 -622 -2476 -596 L -2422 -574 M -1546 -216 Q -1572 -203 -1608 -164 Q -1486 -95 -1370 -24 M -1652 -104 Q -1648 -119 -1613 -159 L -1608 -164 L -1793 -269 M -182 -897 L -261 -828 M -541 -636 L -639 -582 M -21 -202 L -169 -283 M -272 -337 L -466 -436 M -364 -744 L -426 -702 M -559 -481 L -655 -527 M -769 -580 Q -843 -613 -921 -638 M 78 -1123 L -62 -1003 L -99 -970 M -3437 -904 Q -3235 -849 -3038 -787 M -1165 108 L -1132 51 M -1202 165 L -1188 142 M -1090 209 L -1067 175 L -1165 108 M -1061 260 Q -1054 241 -1029 213 L -1023 207 L -1067 175 L -1062 168 Q -1026 124 -998 114 M -830 270 Q -862 289 -883 311 L -809 368 M -883 311 Q -906 334 -914 361 M -949 149 Q -992 174 -1023 207 L -883 311 M -3673 -8 L -3556 23">

</path>

</g>

</g>

<g transform="matrix(0.489990234375 0 0 0.489990234375 5460 4611)">

<g>

<path fill-opacity="1.000" fill="#E8C358" d="M -512 -1437 Q -579 -1437 -654 -1411 Q -751 -1378 -879 -1295 Q -1015 -1206 -1088 -1170 Q -1143 -1142 -1189 -1130 L -1196 -1128 Q -1385 -946 -1482 -701 Q -1679 -206 -1474 277 Q -1522 322 -1570 348 Q -1612 370 -1662 383 L -1746 466 L -1848 564 Q -2009 702 -2111 702 Q -2112 702 -2112 702 L -2112 702 Q -2019 720 -1973 803 Q -1936 873 -1963 1012 L -1965 1023 L -1840 1003 Q -1754 1003 -1722 1100 Q -1710 1136 -1699 1200 Q -1589 1171 -1446 1052 Q -1316 943 -1246 847 Q -1219 904 -1145 1132 Q -1103 1238 -1055 1316 Q -950 1384 -837 1437 Q -717 1494 -589 1533 Q -311 1620 -18 1628 Q 12 1629 41 1629 Q 299 1629 550 1566 L 561 1563 Q 702 1521 837 1461 Q 1086 1133 1238 753 Q 1389 372 1301 -52 Q 1213 -477 873 -609 Q 873 -609 873 -609 L 873 -609 L 566 -599 Q 453 -590 340 -590 Q 43 -590 -246 -650 Q -665 -736 -810 -1139 Q -696 -1326 -507 -1437 Q -509 -1437 -512 -1437 Z">

</path>

<path fill-opacity="1.000" fill="#8C6B12" d="M -1246 847 Q -1316 943 -1446 1052 Q -1589 1171 -1699 1200 L -1688 1276 Q -1644 1232 -1553 1204 L -1397 1163 L -1344 1144 L -1304 1122 Q -1214 1206 -1114 1275 L -1055 1316 Q -1103 1238 -1145 1132 Q -1219 904 -1246 847 Z M 203 -1628 Q -170 -1628 -499 -1442 L -507 -1437 Q -696 -1326 -810 -1139 Q -665 -736 -246 -650 Q 44 -590 340 -590 Q 452 -590 566 -599 L 873 -609 Q 1213 -477 1301 -52 Q 1389 372 1238 753 Q 1086 1133 837 1461 Q 941 1414 1041 1357 Q 1275 1221 1473 1038 L 1504 1060 Q 1571 1105 1632 1125 L 1768 1171 Q 1752 1058 1868 1011 Q 1984 963 2097 875 L 2096 874 Q 2028 792 1933 741 Q 2014 696 2103 683 L 2103 672 Q 1833 633 1624 483 L 1581 451 L 1585 439 Q 1461 297 1434 244 L 1432 240 Q 1522 18 1560 -282 Q 1610 -670 1341 -1140 L 1328 -1133 L 1288 -1127 Q 1217 -1127 1135 -1202 Q 1086 -1247 1043 -1255 L 1043 -1255 Q 1043 -1255 1043 -1255 Q 845 -1563 389 -1617 Q 295 -1628 203 -1628 Z">

</path>

<path fill="none" stroke-opacity="1.000" stroke="rgb(0,0,0)" stroke-linejoin="round" stroke-linecap="round" stroke-width="28.571998006975587" d="M 1585 439 L 1624 483 M 2096 874 L 2111 876 M 1043 -1255 Q 1073 -1209 1097 -1156 Q 1156 -1026 1034 -894 M 902 -695 Q 924 -748 959 -799 M 936 -145 Q 910 -213 893 -272 M 861 -427 Q 856 -474 859 -513 Q 861 -560 873 -609 M -810 -1139 L -817 -1127 Q -834 -1074 -839 -1019 M 1043 -1255 Q 845 -1563 389 -1617 Q -89 -1674 -499 -1442 L -507 -1437 Q -696 -1326 -810 -1139 M 1851 861 L 1739 839 M 1655 816 L 1639 811 L 1596 798 M 2096 874 L 1948 868 M 1581 451 L 1585 439 M 1117 367 Q 1104 260 1067 158 M 1540 828 L 1545 810 L 1552 783 L 1574 664 M 1581 451 L 1581 557 M 1047 885 Q 1127 668 1124 467 M 561 1563 L 675 1471 M 1433 1007 Q 1485 954 1517 889 M 930 1139 L 1007 984 M 773 1368 L 858 1257 M 1021 51 L 974 -52 M -812 -776 L -832 -856 M -731 -580 Q -742 -618 -761 -655 L -767 -667 M -793 -127 Q -770 -184 -753 -243 M -737 -315 Q -726 -373 -721 -432 M -927 49 L -904 76 L -840 -28 M -983 129 L -963 156 L -941 126 L -904 76 L -898 85 L -855 145 M -963 156 L -952 168 L -895 217 M -1063 257 L -1035 279 Q -1006 215 -963 156 M -975 321 L -1023 288 L -1035 279 Q -1068 349 -1084 424 L -1078 424 L -999 425 M -1151 465 L -1093 471 L -1084 424 L -1127 417 M -1093 471 L -983 473 M -1386 901 L -1420 869 L -1446 843 M -1518 769 L -1560 723 L -1582 699 L -1593 687 M -1060 888 L -1088 752 M -1093 471 Q -1106 553 -1101 640 L -1094 641 Q -1040 646 -1015 641 M -1099 673 L -1101 640 L -1151 633 M -978 1143 L -1025 1011 M -837 1437 L -932 1253 M -1237 1019 L -1327 952 M -1963 1012 L -1802 916 L -1778 900 M -1645 623 L -1698 548 M -1711 852 L -1663 813 L -1596 756 M -1721 511 L -1746 466">

</path>

<path fill="none" stroke-opacity="1.000" stroke="rgb(0,0,0)" stroke-linejoin="round" stroke-linecap="round" stroke-width="40" d="M 1333 -1154 L 1341 -1140 Q 1610 -670 1560 -282 Q 1522 18 1432 240 M 1624 483 Q 1833 633 2103 672 L 2103 683 Q 2014 696 1933 741 Q 2028 792 2096 874 M 837 1461 Q 941 1414 1041 1357 Q 1275 1221 1473 1038 L 1433 1007 L 1354 938 M 1473 1038 L 1504 1060 Q 1571 1105 1632 1125 L 1768 1171 Q 1752 1058 1868 1011 Q 1984 963 2097 875 L 2096 874 M 1432 240 L 1371 372 M 1581 451 L 1566 438 M 837 1461 Q 702 1521 561 1563 L 550 1566 Q 270 1636 -18 1628 Q -311 1620 -589 1533 Q -717 1494 -837 1437 Q -950 1384 -1055 1316 L -1114 1275 Q -1214 1206 -1304 1122 L -1344 1144 L -1397 1163 L -1553 1204 Q -1644 1232 -1688 1276 L -1699 1200 Q -1710 1136 -1722 1100 Q -1754 1003 -1840 1003 L -1965 1023 L -1963 1012 Q -1936 873 -1973 803 Q -2019 720 -2112 702 Q -2010 703 -1848 564 L -1746 466 L -1662 383 L -1631 353 M 1624 483 L 1581 451 M -1474 277 Q -1679 -206 -1482 -701 Q -1385 -946 -1196 -1128 M -1453 325 L -1474 277 M -1304 1122 Q -1286 1110 -1273 1096 Q -1245 1065 -1237 1019 Q -1231 986 -1236 946">

</path>

</g>

</g>

<g transform="matrix(0.489990234375 0 0 0.489990234375 5486 4038)">

<g>

<path fill-opacity="1.000" fill="rgb(0,0,0)" d="M -1534 -1811 L -1557 -1764 Q -1590 -1691 -1605 -1604 Q -1635 -1435 -1629 -1260 Q -1625 -1129 -1579 -1018 Q -1535 -1128 -1507 -1267 Q -1479 -1407 -1484 -1523 Q -1489 -1639 -1502 -1700 L -1534 -1811 Z M 1821 -1693 Q 1768 -1636 1734 -1474 Q 1699 -1313 1677 -1134 Q 1655 -956 1665 -782 L 1711 -790 Q 1734 -797 1754 -812 Q 1795 -844 1815 -912 Q 1843 -1011 1858 -1123 Q 1871 -1222 1872 -1345 L 1869 -1429 L 1859 -1536 L 1858 -1548 L 1851 -1596 Q 1846 -1643 1823 -1691 L 1821 -1693 Z">

</path>

<path fill-opacity="1.000" fill="#8C6B12" d="M 355 -3595 L 257 -3297 Q 234 -3209 234 -3033 Q 234 -2811 289 -2653 Q 314 -2581 404 -2403 L 531 -2387 L 530 -2390 L 535 -2386 Q 904 -2084 985 -1598 Q 1061 -1142 982 -687 Q 907 -253 649 108 Q 489 332 278 503 L 294 494 Q 441 412 517 344 L 607 265 L 685 215 Q 760 167 902 100 L 903 99 Q 1045 31 1189 -110 L 1197 -118 L 1261 -185 L 1294 -219 L 1358 -294 Q 1432 -378 1482 -475 Q 1524 -554 1548 -642 L 1563 -681 Q 1582 -722 1627 -729 L 1706 -723 L 1712 -726 Q 1735 -743 1743 -771 L 1754 -812 L 1754 -812 Q 1734 -797 1711 -790 L 1665 -782 Q 1663 -782 1662 -782 Q 1620 -782 1589 -808 Q 1541 -850 1540 -986 Q 1543 -1070 1560 -1194 Q 1577 -1319 1596 -1409 L 1616 -1515 L 1658 -1646 Q 1691 -1744 1747 -1744 Q 1752 -1744 1757 -1743 Q 1794 -1730 1821 -1693 L 1823 -1691 Q 1831 -1777 1821 -1810 L 1786 -1889 Q 1761 -1935 1704 -1956 L 1679 -1964 L 1618 -1968 Q 1492 -1831 1429 -1654 L 1402 -1579 Q 1357 -1712 1366 -1854 Q 1370 -1913 1400 -1963 Q 1309 -1971 1252 -2009 L 1243 -2016 L 1101 -2130 L 987 -2220 Q 939 -2254 873 -2288 L 833 -2329 Q 730 -2437 657 -2563 L 581 -2697 Q 534 -2780 488 -2894 Q 442 -3008 429 -3078 L 408 -3193 L 401 -3238 Q 394 -3289 390 -3339 L 389 -3344 L 384 -3403 L 383 -3431 L 381 -3454 L 377 -3480 L 373 -3507 L 370 -3530 L 365 -3556 L 355 -3595 Z">

</path>

<path fill-opacity="1.000" fill="#E8C358" d="M 1579 -1968 L 1505 -1964 L 1497 -1964 Q 1467 -1962 1439 -1962 Q 1418 -1962 1400 -1963 Q 1370 -1913 1366 -1854 Q 1357 -1712 1402 -1579 L 1429 -1654 Q 1492 -1831 1618 -1968 Z M 278 -3665 L 203 -3567 L 149 -3490 L 113 -3450 L 68 -3406 L -2 -3315 L -3 -3314 L -63 -3220 L -112 -3133 L -159 -3051 L -217 -2953 L -250 -2899 L -285 -2843 L -323 -2783 L -355 -2732 L -389 -2682 L -423 -2632 L -482 -2552 L -536 -2480 L -602 -2398 L -679 -2307 L -722 -2257 Q -895 -2192 -1047 -2106 Q -1200 -2021 -1303 -1941 L -1350 -1967 Q -1398 -1995 -1434 -1995 Q -1475 -1995 -1501 -1958 Q -1499 -1921 -1483 -1887 L -1458 -1831 L -1455 -1824 L -1446 -1803 L -1441 -1791 Q -1419 -1736 -1407 -1677 Q -1332 -1315 -1497 -1019 L -1527 -970 L -1543 -946 L -1553 -932 Q -1554 -871 -1512 -842 Q -1501 -834 -1486 -834 Q -1466 -834 -1438 -849 Q -1340 -790 -1328 -698 Q -1316 -607 -1308 -486 Q -1300 -365 -1199 -223 Q -1098 -81 -1038 -8 Q -978 64 -858 170 L -601 393 Q -534 451 -460 490 Q -384 529 -302 548 Q -203 571 -102 571 Q -66 571 -30 568 Q -14 569 3 569 Q 151 569 278 503 Q 489 332 649 108 Q 907 -253 982 -687 Q 1061 -1142 985 -1598 Q 904 -2084 535 -2386 L 531 -2387 L 404 -2403 Q 314 -2581 289 -2653 Q 234 -2811 234 -3033 Q 234 -3209 257 -3297 L 355 -3595 L 351 -3609 Q 341 -3647 278 -3665 Z">

</path>

<path fill-opacity="1.000" fill="rgb(255,255,255)" d="M -1483 -1887 Q -1512 -1852 -1534 -1811 L -1502 -1700 Q -1489 -1639 -1484 -1523 Q -1479 -1407 -1507 -1267 Q -1535 -1128 -1579 -1018 L -1543 -946 L -1527 -970 L -1497 -1019 Q -1332 -1315 -1407 -1677 Q -1419 -1736 -1441 -1791 L -1446 -1803 L -1455 -1824 L -1458 -1831 L -1483 -1887 Z M 1747 -1744 Q 1691 -1744 1658 -1646 L 1616 -1515 L 1596 -1409 Q 1577 -1319 1560 -1194 Q 1543 -1070 1540 -986 Q 1541 -850 1589 -808 Q 1620 -782 1662 -782 Q 1664 -782 1665 -782 Q 1655 -956 1677 -1134 Q 1699 -1313 1734 -1474 Q 1768 -1636 1821 -1693 Q 1794 -1730 1757 -1743 Q 1752 -1744 1747 -1744 Z">

</path>

<path fill="none" stroke-opacity="1.000" stroke="rgb(0,0,0)" stroke-linejoin="round" stroke-linecap="round" stroke-width="40" d="M 355 -3595 L 365 -3556 L 370 -3530 L 373 -3507 L 377 -3480 L 381 -3454 L 383 -3431 L 384 -3403 L 389 -3344 L 390 -3339 Q 394 -3289 401 -3238 L 408 -3193 L 429 -3078 Q 442 -3008 488 -2894 Q 534 -2780 581 -2697 L 657 -2563 Q 730 -2437 833 -2329 L 873 -2288 Q 939 -2254 987 -2220 L 1101 -2130 L 1243 -2016 L 1252 -2009 Q 1309 -1971 1400 -1963 Q 1444 -1960 1497 -1964 L 1505 -1964 L 1579 -1968 L 1618 -1968 L 1679 -1964 L 1704 -1956 Q 1761 -1935 1786 -1889 L 1821 -1810 Q 1831 -1777 1823 -1691 Q 1846 -1643 1851 -1596 L 1858 -1548 L 1859 -1536 L 1869 -1429 L 1872 -1345 Q 1871 -1222 1858 -1123 Q 1843 -1011 1815 -912 Q 1795 -844 1754 -812 L 1743 -771 Q 1735 -743 1712 -726 L 1706 -723 L 1627 -729 Q 1582 -722 1563 -681 L 1548 -642 Q 1524 -554 1482 -475 Q 1432 -378 1358 -294 L 1294 -219 L 1261 -185 L 1197 -118 L 1189 -110 Q 1045 31 903 99 M 902 100 Q 760 167 685 215 L 607 265 L 517 344 Q 441 412 294 494 L 278 503 Q 137 576 -30 568 Q -168 579 -302 548 Q -384 529 -460 490 Q -534 451 -601 393 L -858 170 Q -978 64 -1038 -8 Q -1098 -81 -1199 -223 Q -1300 -365 -1308 -486 Q -1316 -607 -1328 -698 Q -1340 -790 -1438 -849 Q -1486 -824 -1512 -842 Q -1554 -871 -1553 -932 L -1543 -946 L -1579 -1018 Q -1625 -1129 -1629 -1260 Q -1635 -1435 -1605 -1604 Q -1590 -1691 -1557 -1764 L -1534 -1811 Q -1512 -1852 -1483 -1887 Q -1499 -1921 -1501 -1958 Q -1453 -2027 -1350 -1967 L -1303 -1941 Q -1200 -2021 -1047 -2106 Q -895 -2192 -722 -2257 L -679 -2307 L -602 -2398 L -536 -2480 L -482 -2552 L -423 -2632 L -389 -2682 L -355 -2732 L -323 -2783 L -285 -2843 L -250 -2899 L -217 -2953 L -159 -3051 L -112 -3133 L -63 -3220 L -3 -3314 L -2 -3315 L 68 -3406 L 113 -3450 L 149 -3490 L 203 -3567 L 278 -3665 Q 341 -3647 351 -3609 L 355 -3595 M 404 -2403 L 531 -2387 M 404 -2403 L 303 -2409 M 535 -2386 L 604 -2374 L 705 -2351 Q 788 -2329 843 -2302 L 873 -2288 M 531 -2387 L 535 -2386 M 1821 -1693 Q 1794 -1730 1757 -1743 Q 1694 -1752 1658 -1646 L 1616 -1515 L 1596 -1409 Q 1577 -1319 1560 -1194 Q 1543 -1070 1540 -986 Q 1541 -850 1589 -808 Q 1621 -781 1665 -782 Q 1655 -956 1677 -1134 Q 1699 -1313 1734 -1474 Q 1768 -1636 1821 -1693 Z M 1665 -782 L 1711 -790 Q 1734 -797 1754 -812 M -421 -2348 Q -569 -2314 -722 -2257 M -421 -2348 L -383 -2356 Q -216 -2391 -45 -2399 M -1543 -946 L -1527 -970 L -1497 -1019 Q -1332 -1315 -1407 -1677 Q -1419 -1736 -1441 -1791 L -1446 -1803 L -1455 -1824 L -1458 -1831 L -1483 -1887 M -1534 -1811 L -1502 -1700 Q -1489 -1639 -1484 -1523 Q -1479 -1407 -1507 -1267 Q -1535 -1128 -1579 -1018 M -1303 -1941 Q -1238 -1898 -1173 -1832 M -1374 -896 Q -1410 -865 -1438 -849">

</path>

<path fill="none" stroke-opacity="1.000" stroke="rgb(0,0,0)" stroke-linejoin="round" stroke-linecap="round" stroke-width="28.571998006975587" d="M 903 99 L 902 100 M 531 -2387 L 530 -2390 L 488 -2489 M 390 -3339 Q 368 -3291 354 -3243 M 33 -3089 L 33 -3129 L 30 -3178 M 335 -3160 Q 327 -3116 326 -3072 M 424 -2650 L 452 -2578 M 363 -2816 L 370 -2796 L 393 -2733 M 705 -2351 L 790 -2266 M 856 -2191 L 898 -2141 M 328 -2982 L 341 -2899 M 11 -2890 L 29 -3014 M 1164 -1580 L 1204 -1592 L 1208 -1592 Q 1158 -1744 1076 -1883 L 1068 -1896 M 1310 -1429 L 1251 -1429 L 1263 -1364 L 1280 -1238 L 1307 -1245 L 1359 -1259 M 1211 -1429 L 1251 -1429 L 1239 -1484 L 1218 -1482 L 1179 -1476 M 1347 -1088 L 1290 -1084 L 1291 -999 L 1324 -999 M 1239 -999 L 1291 -999 L 1289 -939 L 1343 -942 M 1234 -1084 L 1276 -1084 L 1290 -1084 L 1287 -1147 L 1280 -1238 L 1229 -1221 M 1291 -1595 L 1208 -1592 L 1239 -1484 L 1315 -1486 M 1234 -939 L 1246 -939 L 1289 -939 L 1284 -856 M 1334 -684 L 1264 -690 L 1253 -631 M 1206 -704 L 1249 -694 L 1264 -690 L 1275 -762 M 1281 -477 L 1214 -477 L 1204 -446 M 1159 -491 L 1191 -480 L 1214 -477 L 1233 -544 M 1161 -337 L 1147 -307 Q 1045 -101 903 99 M 958 -2063 L 1015 -1980 M -56 -2702 L -34 -2748 L -16 -2792 M -161 -2553 Q -125 -2593 -96 -2636 M -802 -2036 L -772 -2069 L -711 -2128 M -541 -2262 L -421 -2348 M -654 -2175 L -601 -2218 M -370 -2376 L -317 -2413 M -274 -2446 L -209 -2503 M -1251 -770 Q -1302 -971 -1271 -1197 Q -1252 -1333 -1186 -1488 L -1153 -1558 M -1083 -1680 L -998 -1801 L -858 -1973 M -1189 -589 L -1183 -574 Q -1162 -589 -1141 -591 M -1046 -463 Q -1080 -456 -1117 -430 L -1118 -429 L -1095 -381 L -1092 -383 L -1032 -416 M -1159 -392 Q -1149 -409 -1118 -429 L -1140 -475 L -1144 -473 L -1183 -444 M -1068 -329 L -1095 -381 Q -1116 -369 -1123 -361 M -1183 -574 L -1140 -475 Q -1104 -499 -1074 -509 M -1183 -574 L -1219 -541 M -685 238 L -791 107 M -460 490 L -628 305 M 21 -3238 L -2 -3315 M -850 29 L -934 -94">

</path>

<path fill="none" stroke-opacity="1.000" stroke="rgb(0,0,0)" stroke-linejoin="round" stroke-linecap="round" stroke-width="60" d="M 1821 -1693 L 1823 -1691">

</path>

</g>

</g>

</g>

</g>

</g>


</svg>
