<?xml version="1.0" encoding="utf-8"?>
<!-- Generator: Adobe Illustrator 16.0.0, SVG Export Plug-In . SVG Version: 6.00 Build 0)  -->
<!DOCTYPE svg PUBLIC "-//W3C//DTD SVG 1.1//EN" "http://www.w3.org/Graphics/SVG/1.1/DTD/svg11.dtd">
<svg version="1.1" xmlns="http://www.w3.org/2000/svg" xmlns:xlink="http://www.w3.org/1999/xlink" x="0px" y="0px" width="7987px"
	 height="1080px" viewBox="0 0 7987 1080" enable-background="new 0 0 7987 1080" xml:space="preserve">
<g id="Foreground_x5F_02">
	<g>
		<path fill="#49A5A2" d="M3207.626,821.85c34.193,2.274,68.53,6.751,104.572,8.721c28.903,1.578,57.806,3.157,86.709,4.736
			c33.341,1.82,66.683,3.642,100.024,5.463c35.047,1.914,70.094,3.829,105.141,5.743c34.02,1.858,68.04,3.717,102.06,5.574
			c15.771,0.862,31.542,1.724,47.312,2.585c7.384,0.403,14.973,0.336,22.313,1.219c3.891,0.467,6.4,3.167,10.166,3.881
			c4.988,0.946,10.304-0.548,15.206-1.369c6.246-1.046,12.387-1.791,18.751-1.822c4.295-0.021,7.801,1.167,12.002,1.571
			c3.538,0.341,6.979-0.323,10.539,0.257c8.575,1.396,16.978,2.697,25.828,2.661c10.46-0.044,22.817-1.767,33.076,0.339
			c7.404,1.519,15.144,2.702,22.726,2.661c10.396-0.057,20.793,0.085,31.189,0.01c4.325-0.03,7.821,0.303,12.04,1.161
			c3.383,0.689,6.702,0.103,10.083,0.668c3.623,0.605,7.203,1.702,10.846,2.332c3.58,0.619,6.99-0.042,10.572,0.257
			c3.287,0.273,6.024,1.499,9.368,1.612c2.225,0.074,4.93-0.491,7.123-0.07c3.937,0.757,7.692,2.784,11.975,3.07
			c2.463,0.164,5.014-0.382,7.465-0.112c3.702,0.406,6.633,1.66,10.459,1.612c8.544-0.108,17.096-0.062,25.641-0.035
			c5.319,0.017,7.667-0.629,12.226-3.305c3.97-2.329,6.455-5.914,10.23-8.421c1.849-1.227,3.186-2.043,4.916-0.75
			c1.891,1.413,3.162,7.216,4.097,9.433c1.221,2.896,0.763,6.039,4.093,7.982c2.136,1.246,5.271,1.974,7.863,2.603
			c2.953,0.716,6.003,1.871,9,2.618c3.198,0.797,6.863,0.339,10.166,0.339c7.354,0,13.724,1.496,20.999,1.5
			c3.107,0.002,6.22,0.049,9.328,0.005c3.163-0.044,4.583,1.147,7.471,1.53c1.952,0.259,4.103-0.452,6.034-0.112
			c1.668,0.293,2.828,1.389,4.5,1.66c2.997,0.485,5.998,1.083,9,1.417c6.021,0.67,11.889,2.709,17.999,2.96
			c5.324,0.219,12.595,2.515,16.91,5.628c1.823,1.314,2.72,3.429,3.678,5.245c1.259,2.389,3.792,4.584,4.617,7.131
			c0.947,2.927,0.244,6.86,3.593,8.729c1.702,0.951,6.766,0.715,8.7,0.382c3.094-0.531,5.906-2.623,9-3.154
			c2.763-0.475,6.176,0.077,9,0.077c7.255,0,13.024,0.439,19.499,4.089c6.901,3.891,13.775,7.677,20.999,10.911
			c8.855,3.964,16.722,10.244,25.499,14.625c7.736,3.862,15.862,6.767,24.004,9.744c11.341,4.148,22.393,8.592,34.264,11.066
			c7.588,1.582,13.224-1.255,20.547-1.938c10.643-0.991,22.67,3.508,33.022,5.663c24.305,5.061,48.609,10.12,72.914,15.181
			c17.601,3.665,36.75,10.332,54.843,8.077c7.108-0.887,13.668-1.667,20.798-0.229c10.816,2.183,20.137,7.892,30.594,10.978
			c6.738,1.988,12.775,5.501,19.542,7.493c7.71,2.271,14.77,5.873,22.421,8.162c6.918,2.07,13.806,4.781,20.622,7.215
			c7.851,2.803,16.356,3.906,24.416,5.951c8.791,2.23,18.027,3.802,27.071,4.505c17.612,1.369,35.387,6.034,52.866,8.626
			c12.864,1.908,25.694,3.324,38.518,4.916c14.768,1.832,29.716,2.957,44.661,2.957c8.125,0,16.251-0.04,24.375,0.035
			c9.443,0.086,18.617-1.603,28.125-1.495c11.616,0.131,23.665-1.414,35.206-2.671c11.389-1.24,22.895-0.98,34.242-2.196
			c21.018-2.252,42.283-0.679,63.32-3.006c21.069-2.33,41.917-5.251,62.919-8.255c18.082-2.586,35.644-8.401,53.669-11.321
			c19.678-3.188,38.871-8.192,58.419-11.923c10.211-1.948,20.171-5.016,30.453-6.797c5.417-0.938,10.396-2.03,15.717-3.411
			c5.596-1.452,11.322-1.577,16.948-2.874c7.651-1.765,14.591-4.069,22.456-4.988c5.651-0.661,11.28-1.406,16.911-2.223
			c11.122-1.611,22.157-3.545,33.255-5.245c24.312-3.724,48.5-8.188,72.794-12c25.031-3.928,49.92-9.512,75.031-12.748
			c18.964-2.445,37.947-6.471,56.992-7.877c10.078-0.744,20.129-3.141,30.087-4.87c8.052-1.399,16.287-2.078,24.255-3.713
			c19.477-3.993,39.694-3.662,59.324-6.827c6.689-1.079,13.339-0.443,19.988-1.417c4.161-0.609,7.558-1.253,11.802-1.172
			c4.438,0.085,8.05-0.471,12.375-1.172c4.427-0.718,8.835-0.021,13.278-0.656c11.946-1.709,24.091-1.265,36.19-1.137
			c10.045,0.105,19.832-2.455,29.801-3.111c4.756-0.313,11.394-0.888,16.088,0c7.728,1.46,14.595,5.129,22.691,6.076
			c21.396,2.504,41.184,9.099,61.973,13.874c7.745,1.778,15.055,4.812,22.469,7.542c7.241,2.666,15.071,3.5,22.165,6.666
			c8.798,3.928,20.436,1.917,29.999,1.917c10.876,0,21.751,0,32.627,0c5.71,0,11.421,0.004,17.132,0
			c7.183-0.006,13.704-0.971,20.772-1.577c10.75-0.923,22.088,0.077,32.892,0.077c17.982,0,36.019,0.411,53.996,0.001
			c2.786-0.063,5.229-0.973,7.94-1.212c3.705-0.326,7.714,0.954,11.386,1.423c8.109,1.034,16.285,1.571,24.322,3.122
			c10.495,2.025,20.845,5.438,31.378,7.499c9.748,1.907,19.073,4.329,28.84,5.623c11.894,1.576,24.056,4.147,36.081,4.586
			c5.325,0.193,10.443,1.312,15.744,1.534c4.006,0.169,8.036-0.368,12.04-0.154c7.416,0.395,15.196,1.564,22.534,2.709
			c10.581,1.65,21.068,2.459,30.38,8.241c8.077,5.015,16.892,8.241,25.75,11.999c10.19,4.324,20.178,7.788,31.087,9.752
			c11.159,2.01,22.393,3.025,33.447,4.831c4.613,0.754,8.367,1.563,13.128,1.543c4.124-0.018,8.249,0,12.373,0
			c13.836,0,27.604,1.409,40.125-4.084c6.277-2.753,11.851-6.029,17.999-9.045c3.121-1.53,5.924-3.596,9-4.904
			c2.984-1.271,6.063-1.836,9-3.343c6.28-3.221,13.241-4.331,19.499-7.5c5.564-2.816,11.732-6.813,17.999-7.157
			c6.515-0.357,13.382-0.299,19.499,1.207c6.558,1.614,12.927,2.708,19.577,4.453c11.211,2.943,18.396,11.813,28.108,17.394
			c9.427,5.419,18.443,11.773,29.108,14.479c27.072,6.869,51.962,22.777,80.74,22.533c16.979-0.145,34.621,1.449,51.369-1.206
			c3.512-0.557,6.947-0.097,10.457-0.622c3.453-0.517,6.751-1.711,10.166-2.372c6.043-1.172,11.952-2.202,17.964-3.705
			c13.093-3.273,25.926-7.331,38.993-10.505c10.783-2.618,20.076-7.911,29.67-13.16c17.324-9.479,37.754-14.348,57.325-14.927
			c5.51-0.163,10.497-1.557,16.134-1.535c4.625,0.018,9.25,0,13.875,0c10.595,0,21.238,0.295,31.828,0.035
			c4.02-0.099,7.625-1.379,11.588-1.618c3.587-0.216,7.038,0.494,10.619-0.251c6.828-1.42,13.637-1.196,20.545-2.332
			c7.461-1.227,15.015-0.304,22.539-1.506c7.356-1.175,15.393-1.579,22.833-1.785c9.532-0.265,19.02-2.688,28.53-3.119
			c3.893-0.177,7.817,0.388,11.706,0.154c3.325-0.199,6.267-1.453,9.592-1.654c3.755-0.229,7.543,0.346,11.3,0.154
			c4.162-0.211,8.21-1.257,12.376-1.582c10.003-0.782,19.792-3.121,29.651-4.869c11.644-2.063,23.519-4.415,34.613-8.621
			c7.376-2.795,16.021-3.8,22.939-7.464c3.112-1.648,5.925-4.205,8.82-6.04c2.379-1.507,5.031-2.959,7.5-4.505
			c3.449-2.16,6.434-4.676,10.427-5.655c2.265-0.556,4.238,0.041,6.483-0.256c2.066-0.274,3.633-1.188,5.624-1.626
			c6.344-1.395,13.265-2.171,19.424-4.457c6.462-2.398,14.2-4.548,21.039-4.5c5.329,0.037,13.299,1.577,17.7-1.877
			c4.013-3.148,7.636-9.228,10.422-13.45c2.772-4.204,5.541-8.374,9.005-12.048c4.005-4.247,8.278-7.499,12.781-11.246
			c4.582-3.813,9.391-5.488,14.665-7.877c5.205-2.357,11.948-1.687,17.922-1.494c6.714,0.217,8.219,3.073,11.589,7.905
			c3.154,4.522,10.386,4.078,15.41,4.089c1.436,0.003,3.119,0.221,4.534,0.035c1.433-0.188,2.287-0.984,3.3-1.201
			c2.779-0.596,5.77-0.341,8.665-0.334c1.798,0.004,4.353,0.494,6.077,0.077c1.359-0.327,1.486-1.327,2.846-1.654
			c2.604-0.629,6.366,0.074,9.076,0.077c3.471,0.004,5.778,0.327,9,1.166c2.982,0.776,6.026-0.269,8.999,0.257
			c6.373,1.124,11.774,4.666,17.999,6.12c5.788,1.352,11.823,1.912,17.999,1.492c3.674-0.251,6.554-1.609,10.423-1.54
			c3.937,0.069,6.872-1.344,10.576-1.53c1.4-0.07,3.224,0.44,4.577,0.112c1.358-0.329,1.486-1.327,2.846-1.654
			c2.734-0.66,5.953,0.321,8.743-0.257c0.354-0.729,0.938-1.146,1.751-1.249c1.055,0.056,2.109,0.11,3.165,0.166
			c1.185-0.265,1.768-1.143,2.874-1.626c0.479-0.209,2.827-0.906,3.377-1.089c1.313-0.436,2.882-1.239,4.166-1.534
			c5.481-1.259,10.877-3.416,16.499-5.202c6.382-2.028,13.323-2.785,19.576-5.631c4.957-2.256,10.748-1.5,16.422-1.5
			c6.5,0,12.999,0,19.499,0c2.999,0,6.002,0.044,9,0.005c3.351-0.043,5.77,1.354,8.999,1.53c3.287,0.178,7.399-0.865,10.577-0.112
			c2.271,0.538,5.107,1.762,7.457,2.709c2.278,0.918,4.197,1.832,6.299,2.956c2.068,1.105,5.049,2.426,6.832,3.745
			c3.701,2.736,7.09,6.104,11.167,8.255c2.414,1.274,3.847,3.128,5.965,4.577c2.259,1.546,6.229,2.201,8.777,3.328
			c5.037,2.225,12.189,5.098,17.922,6.082c5.868,1.009,10.681-0.923,16.126,1.797c9.416,4.703,15.321,14.33,24.119,19.72
			c11.885,7.281,25.671,12.465,38.229,18.518c13.599,6.555,27.197,13.108,40.797,19.663c29.378,14.16,58.757,28.32,88.136,42.48
			c30.556,14.728,61.112,29.455,91.669,44.183c29.658,14.294,59.315,28.589,88.973,42.884c26.684,12.86,53.366,25.721,80.049,38.582
			c21.632,10.426,43.264,20.852,64.895,31.277c14.504,6.99,29.008,13.981,43.512,20.972c5.299,2.555,10.599,5.108,15.896,7.663
			c-4.114-0.02-8.237,0.176-12.353,0.217c-150.786,1.486-301.807-1.706-452.608-2.037c-327.169-0.716-654.334-3.489-981.505-4.389
			c-411.875-1.134-823.74-4.26-1235.619-5.367c-406.268-1.093-812.521-3.616-1218.791-4.635
			c-339.016-0.851-685.807-29.978-1023.236,15.488c-168.916,22.761-340.312,5.699-509.918,14.248
			c-155.304,7.829-307.881,36.993-463.938,30.27c-127.5-5.493-253.84-25.867-379.566-46.695
			c82.208-45.201,173.377-70.86,255.722-119.24c148.364-87.167,319.033-154.878,487.704-184.172
			c82.747-14.371,157.591-55.104,238.585-75.564C3128.901,819.533,3168.168,819.225,3207.626,821.85z"/>
	</g>
	<path fill="#FFFFFF" d="M6644,581"/>
	<path opacity="0.4" fill="#A5D1DB" d="M5467.17,997.567c-0.86,0-1.721,0-2.581,0c9.839,0.046,19.847-2.516,29.585-4.128
		c15.96-2.642,32.128-4.869,47.963-8.165c29.717-6.186,58.698-15.003,88.448-21.079c8.459-1.728,17.12-3.349,25.614-4.126
		c7.033-0.644,14.062-2.899,20.961-4.165c12.121-2.225,24.527-1.834,37.13-1.834c7.371,0,14.184,0.552,21.362,1.828
		c3.34,0.594,6.725,1.549,10.088,2.303c4.439,0.995,8.425,1.2,12.827,1.785c3.531,0.47,6.124,1.363,9.754,1.543
		c3.367,0.167,5.874,1.579,9.333,1.535c5.498-0.071,11.001,0.007,16.5,0.005c2.339-0.001,5.219,0.485,7.505,0.077
		c3.117-0.557,6.243-2.025,9.411-2.703c3.348-0.717,6.942-1.059,10.161-1.831c2.419-0.581,5.172-2.894,7.379-3.144
		c3.709-0.42,4.343,3.662,6.008,6.45c3.338,5.59,6.892,11.417,8.701,17.724c1.277,4.453,3.606,7.994,4.863,12.332
		c0.926,3.197,2.132,6.676,2.821,9.866c-2.288,0.556-5.072,0.485-7.351-0.107c-2.535-0.659-4.942-0.876-7.5-1.505
		c-7.499-1.843-14.711-4.471-22.456-5.66c-19.681-3.023-40.378-1.5-60.373-1.5c-9.654,0-20.202-1.263-29.588,1.094
		c-10.148,2.549-20.52,4.764-30.153,9.034c-4.962,2.2-10.143,4.867-13.798,8.965c-1.767,1.98-3.874,4.187-5.324,6.405
		c-1.453,2.222-1.332,5.136-3.27,6.969c-1.836-4.73-7.997-9.128-12.029-11.837c-2.484-1.669-4.838-3.822-7.427-5.292
		c-3.446-1.956-8.251-2.271-12.072-2.965c-3.433-0.624-7.089-1.625-10.534-1.957c-1.5,0.034-3,0.09-4.5,0.166
		c-2.107-0.278-3.932-1.373-6.042-1.66c-2.398-0.327-5.042,0.58-7.422,0.154c-3.242-0.579-5.069-1.607-8.594-1.572
		c-16.489,0.168-32.201,3.462-48.398,6.329c-14.881,2.634-29.477,7.263-44.669,7.16c-6.921-0.047-14.478-0.856-21.333-0.072
		c-4.329,0.495-7.905,1.606-12.373,1.572c-3.992-0.031-8.024-0.263-11.959,0.339c-7.078,1.081-13.827,1.166-21.071,1.166
		c-4.186,0-11.257,1.547-14.211-1.805c-1.541-1.747-1.486-3.645-2.215-5.694c-0.587-1.647-4.311-6.043-4.046-7.572
		c0.559-3.231,7.958-3.012,10.345-2.968c4.932,0.091,8.879-0.949,13.641-1.537c4.266-0.527,9.079,0.052,13.393,0.077
		c5.247,0.03,9.679-1.434,14.999-1.499"/>
	<path opacity="0.4" fill="#A5D1DB" d="M5591.664,966.069c1.741,5.345,6.712,9.979,9.371,15.039
		c3.596,6.845,11.785,7.318,18.688,8.626c5.519,1.046,11.627,0.334,17.244,0.334c7.789,0,15.928,0.732,23.652-0.334
		c8.29-1.144,16.141-0.667,24.458-1.089c3.949-0.2,7.62-1.478,11.583-1.654c5.141-0.229,10.253,0.587,15.37-0.257
		c12.368-2.037,24.668-0.332,37.127-1.089c3.109-0.188,5.89-1.466,9-1.654c2.971-0.181,6.055,0.08,9.034,0.077
		c6.135-0.005,12.27,0,18.405,0c7.023,0,32.828,4.126,31.087-7.54c-0.427-2.861-1.508-4.334-1.529-7.464
		c-0.022-3.168-0.647-5.708-1.873-8.656c-1.955-4.699-6.438-8.538-11.626-9.415c-5.79-0.979-13.169-0.122-19.059,0.042
		c-5.275,0.147-10.136,1.57-15.475,1.53c-4.487-0.035-8.977,0.005-13.464,0.005c-9.691,0-20.412-1.37-29.921,0.334
		c-6.689,1.198-12.861,0.683-19.582,1.089c-3.246,0.196-6.138,1.483-9.405,1.654c-3.724,0.195-7.553-0.078-11.287-0.077
		c-7.575,0.003-15.154,0.06-22.728-0.035c-3.328-0.041-5.821,0.553-9.037,1.206c-3.364,0.683-6.725,0.124-10.123,0.622
		c-7.324,1.072-14.653,2.688-21.851,3.872c-5.762,0.948-11.733-0.021-17.559,0.299c-2.628,0.146-4.949,1.147-7.494,1.909
		c-1.297,0.388-8.107,3.538-3.005,4.126"/>
	<path opacity="0.4" fill="#A5D1DB" d="M5804.653,946.57c-9.133,0-17.56,0.031-26.552,1.916c-7.92,1.66-16.116,1.742-24.106,2.952
		c-6.469,0.98-13.333,2.31-19.838,2.709c-6.329,0.389-11.795-0.24-17.999,1.762c-5.655,1.825-12.015,3.264-16.601,7.165
		c-2.473,2.104-5.987,5.373-4.238,9.03c2.784,5.819,14.867,4.084,19.609,4.792c9.875,1.477,19.625,1.172,29.617,1.172
		c11.554,0,23.559,0.973,35.051-0.299c8.972-0.993,18.39-2.206,26.695-5.737c3.836-1.632,9.783-2.178,12.304-5.891
		c6.109-9-11.654-15.334-16.905-18.101c-6.245-3.29-14.318-4.17-21.362-4.548c-3.89-0.21-7.955-0.025-11.855,0.042
		c-3.228,0.057-5.692,1.114-8.815,1.535"/>
	<path opacity="0.4" fill="#A5D1DB" d="M3431.772,855.075c2.989,0.294,5.505,2.521,8.564,3.036
		c6.402,1.081,13.098,1.215,19.529,2.552c18.615,3.869,37.443,5.421,56.271,7.572c9.128,1.043,18.616,0.374,27.792,0.304
		c9.089-0.068,18.043,1.281,26.998,2.661c16.511,2.545,32.998,1.874,49.706,1.874c31.234,0,62.303-1.5,93.538-1.5
		c13.476,0,26.951,0.027,40.426-0.035c17.482-0.08,34.709,2.391,52.159,3.035c14.421,0.533,28.757,2.065,43.121,3.411
		c16.5,1.545,33.061,2.184,49.581,3.717c30.425,2.823,60.903,4.774,91.412,6.376c25.245,1.326,50.542,4.3,75.75,6.329
		c11.371,0.915,22.8,1.984,34.156,3.033c12.249,1.132,24.866,2.389,37.16,2.675c8.176,0.19,16.165,1.166,24.327,1.414
		c4.17,0.127,8.053,1.384,12.189,1.62c1.866,0.107,3.988-0.39,5.845-0.106c3.47,0.529,3.007,0.912,2.936,4.534
		c-0.059,2.995,0.005,5.999,0.005,8.995c0,11.083,1.691,21.229,4.171,31.493c0.796,3.291-0.513,4.178,3.192,4.606
		c2.091,0.242,5.592-1.475,7.572-1.979c3.407-0.866,6.828-1.52,10.265-2.246c2.731-0.578,5.448-1.683,8.233-1.949
		c1.821-0.174,3.793,0.435,5.594,0.145c4.117-0.664,4.305-2.343,4.692-5.851c1.963-0.528,3.827,0.19,5.778-0.145
		c1.098-0.174,2.098-0.588,3-1.243c1.638-0.417,2.898-0.014,4.5-0.257c2.214-0.335,3.944-2.609,6-2.851
		c3.157-0.37,6.027,2.986,8.594,4.316c7.647,3.963,15.199,8.568,23.208,11.957c11.612,4.913,23.691,7.459,35.467,11.705
		c2.896,1.044,6.131,1.614,8.928,2.883c2.776,1.259,5.018,3.185,7.793,4.534c1.854,0.902,3.229,1.937,4.868,3.048
		c0.792,0.202,1.586,0.398,2.38,0.59c0.735,0.924,0.301,3.103,0.585,4.249c1.509,6.105,2.463,13.381,2.706,19.852
		c0.108,2.866-0.17,5.758-0.069,8.623c0.071,2.015,2,5.41,1.343,6.912c-2.633-1.391-5.989-1.306-8.813-2.398
		c-3.498-1.353-7.055-1.983-10.529-3.417c-6.76-2.788-14.125-5.743-21.303-7.126c-4.74-0.913-9.81-0.863-14.583-1.785
		c-5.342-1.033-10.833-2.066-16.2-2.749c-9.122-1.162-19.239,0.107-28.464,0.077c-9.536-0.031-18.194,2.042-27.404,4.126
		c-1.998,0.452-4.127,1.167-6.083,1.535c-1.462,0.275-3.114-0.057-4.5,0.256c-1.368,0.31-1.479,1.339-2.845,1.66
		c-1.984,0.468-4.021-0.295-6.083,0.257c-6.208,1.661-12.739,2.579-17.959-1.762c-3.224-2.682-5.006-5.865-7.457-9.071
		c-3.204-4.191-7.531-7.167-10.578-11.589c-5.193-7.539-9.753-14.721-13.87-22.91c-1.289-2.563-1.979-6.999-3.683-9.106
		c-2.095-2.59-9.098-2.815-12.45-2.928c-9.692-0.322-18.698-1.465-28.459-1.465c-12.399,0-24.799-0.008-37.199,0
		c-11.366,0.007-22.1,1.621-33.332,3c-10.391,1.276-20.282,3.069-30.298,6.005c-8.526,2.5-16.855,5.692-25.162,8.583
		c-13.185,4.589-26.807,7.28-40.535,9.822c-15.039,2.784-29.804,2.588-45.041,2.588c-5.063,0-10.125-0.001-15.188,0
		c-4.375,0.001-8.796-0.223-13.166-0.072c-8.131,0.279-15.989,2.887-24.144,3.145c-14.428,0.457-28.979-0.064-43.417-0.072
		c-16.301-0.009-32.131-1.927-48.369-3.005c-17.519-1.164-35.047-3.642-52.498-5.623c-20.982-2.383-41.639-6.596-62.621-8.96
		c-17.384-1.959-34.481-7.036-51.112-12.41c-5.965-1.928-12.356-3.551-18.004-6.299c-6.813-3.315-13.179-7.735-19.833-11.366
		c-4.998-2.728-10.017-4.875-14.66-8.25c-4.77-3.467-9.779-7.289-14.927-10.16c-8.986-5.012-18.035-9.85-26.994-14.923
		c-12.514-7.087-24.231-14.889-36.073-22.493c-3.805-2.443-7.156-5.972-10.425-9.045c-3.196-3.005-7.723-5.259-10.617-8.37
		c0.038,0.304,0.075,0.606,0.112,0.91"/>
	<path opacity="0.4" fill="#A5D1DB" d="M3548.766,867.074c-0.898,4.186,3.105,5.918,6.298,7.123c2.209,0.834,4.63,1.239,6.795,2.171
		c2.749,1.182,4.861,3.032,7.799,3.877c8.502,2.443,15.805,6.343,24.081,9.371c13.441,4.918,26.986,10.067,40.904,13.533
		c27.986,6.971,56.617,11.489,84.74,17.922c13.646,3.121,26.95,6.558,40.915,7.906c16.293,1.573,32.705,3.713,49.072,4.171
		c25.137,0.704,50.343-0.039,75.378-1.577c23.865-1.466,48.126-3.321,71.692-7.834c15.62-2.99,31.255-6.335,46.802-9.794
		c12.089-2.689,24.879-6.147,37.205-6.406c23.744-0.496,47.413,0.138,70.457,6.369c14.073,3.806,25.983,11.416,38.963,17.588
		c3.72,1.769,6.77,4.416,10.529,6.153c3.153,1.458,6.338,2.775,9.406,4.423c5.333,2.864,9.764,7.088,14.889,10.166
		c8.514,5.114,17.093,10.195,25.886,15.333c6.244,3.647,12.604,4.716,19.112,7.417c8.025,3.329,16.148,5.611,24.042,9.165
		c14.398,6.482,32.858,7.47,48.366,7.412c13.891-0.052,27.793-0.122,41.684,0.005c0.833,0.004,1.665,0.002,2.498-0.005
		c-6.156,1.145-12.807-8.372-14.252-13.49c-1.62-5.736-1.032-12.05-7.686-14.67c-8.474-3.337-18.293-3.426-27.077-5.162
		c-5.634-1.114-10.911-1.526-16.451-3.087c-6.298-1.774-13.14-2.518-19.582-3.71c-10.785-1.996-20.808-4.752-31.165-8.285
		c-9.121-3.111-19.543-6.854-25.899-14.623c-4.021-4.914-6.104-10.399-11.82-13.835c-7.819-4.698-19.537-5.287-28.234-6.795
		c-4.183-0.726-8.252-0.707-12.381-1.5c-4.814-0.925-10.097-0.306-15.005-0.329c-6.749-0.031-13.153,1.608-19.857,1.53
		c-7.373-0.087-14.756-0.094-22.13-0.04c-6.609,0.047-12.74-1.303-19.32-1.452c-10.07-0.229-20.545-1.488-30.546-2.675
		c-21.494-2.549-42.925-5.195-64.467-7.494c-45.785-4.885-92.209-4.361-137.582-12.79c-9.314-1.729-19.444-2.691-28.905-2.618
		c-5.261,0.041-10.609,0.322-15.866,0.112c-4.681-0.187-9.12-1.461-13.793-1.654c-21.279-0.881-42.828,0.077-64.128,0.077
		c-36.018,0-72.053-0.322-108.07,0.034c-13.891,0.139-28.522-4.596-41.915-7.907c-6.683-1.652-13.22-3.931-19.987-5.292
		c-3.572-0.719-6.761-1.908-10.393-1.834"/>
</g>
</svg>
