<?xml version="1.0" encoding="utf-8"?>
<!-- Generator: Adobe Illustrator 16.0.0, SVG Export Plug-In . SVG Version: 6.00 Build 0)  -->
<!DOCTYPE svg PUBLIC "-//W3C//DTD SVG 1.0//EN" "http://www.w3.org/TR/2001/REC-SVG-20010904/DTD/svg10.dtd">
<svg version="1.0" xmlns="http://www.w3.org/2000/svg" xmlns:xlink="http://www.w3.org/1999/xlink" x="0px" y="0px"
	 width="5893.651px" height="1080px" viewBox="0 0 5893.651 1080" enable-background="new 0 0 5893.651 1080" xml:space="preserve">
<g id="BG_x5F_ORange">
	<rect x="3971.152" y="2.235" fill="#FF1706" width="1922.807" height="1077.764"/>
	<path fill="#FB1406" d="M5102.651,473c19.061,1.499,51.952-13.798,75.907-16.383c18.093-1.952,55.465-50.94,66.093-63.617
		c8.11,7.892,28.857-10.311,34,0c0.399-12.617-4.091,71.987-1.651,60.349c43.728-12.202,106.114-78.914,106.05,7.538
		c3.563-6.841,8.671-15.385,11.993-23.577c24.256,0.847,39.799,76.506,51.293,89.69c16.163,18.54,30.422,3.021,13.077,30.143
		c30.882-12.835,34.276,9.037,54.205,24.332c20.022,15.365,45.272,15.012,63.66,34.536c18.324,19.458,28.94-95.191,42.588-72.399
		c25.204,42.089,51.918,82.841,71.525,128.001c28.965,66.715,49.571,137.778,63.622,209.078
		c60.946-0.886,144.447,2.965,177.746-59.493c45.669-85.659,8.831-223.681,0.91-314.146
		c-12.024-137.347-16.801-275.458,4.283-412.187c7.563-49.041,47.479-139.237-17.662-160.666
		c-44.351-14.589-99.616-10.084-145.501-11.16c-89.327-2.094-178.714-2.496-268.062-2.546
		c-240.269-0.136-480.235,8.208-720.397,13.87c-195.274,4.605-388.938,1.442-582.899-22.95
		c-84.933-10.681-173.555-46.43-219.219,52.36c-28.812,62.332-26.415,140.847-25.954,207.801
		c0.645,93.487,7.664,186.876,14.087,280.101c7.674,111.366,18.291,223.598,7.033,335.063
		c272.676-35.426,505.739-48.478,779.575-72.895c27.388-2.441,54.386-5.977,81.395-11.146c6.117-22.196-8.668-59.276,6.206-75.943
		c3.845,2.425,8.532,2.398,11.69,3.937c10.444-44.837,26.027-114.302,60.797-147.388c21.32,7.936,25.44,30.222,35.156,47.634
		c-0.179-16.608-3.354-33.005-3.192-49.581c11.271-4.047,20.841-11.385,26.043-22.196c17.516,12.831,21.635,90.74,35.156,105.635
		c8.475-19.631,3.748-35.466,4.609-55.795c0.975-22.994,7.43-29.966,19.553-48.919c15.405-24.083,54.263,13.707,86.283,10.919"/>
</g>
</svg>
