<?xml version="1.0" encoding="utf-8"?>
<!-- Generator: Adobe Illustrator 16.0.0, SVG Export Plug-In . SVG Version: 6.00 Build 0)  -->
<!DOCTYPE svg PUBLIC "-//W3C//DTD SVG 1.0//EN" "http://www.w3.org/TR/2001/REC-SVG-20010904/DTD/svg10.dtd">
<svg version="1.0" xmlns="http://www.w3.org/2000/svg" xmlns:xlink="http://www.w3.org/1999/xlink" x="0px" y="0px"
	 width="5893.651px" height="1080px" viewBox="0 0 5893.651 1080" enable-background="new 0 0 5893.651 1080" xml:space="preserve">
<g id="Roof_x5F_04">
	<path fill="#F31205" d="M4928.651,655c-23.91-11.731-24.787-56.55-21.063-78.713c5.333-31.741,25.443-37.818,45.761-58.03
		c32.668-32.498,64.42-68.024,95.373-101.965c14.979-16.425,21.08-28.565,42.029-39.007c7.544-3.76,24.51-4.396,29.443-12.04
		c9.059-14.036-3.257-12.015-2.968-24.443c0.357-15.359-8.04-7.682,4.015-22.314c8.923-10.83,28.991-9.877,38.678-22.353
		c5.415-6.974-1.361-15.83,5.797-23.323c13.938-14.592,50.982-15.215,69.336-19.35c29.824-6.72,57.803-20.018,87.924-24.562
		c23.018-3.473,46.263-0.786,69.327-3.551c10.516,39.424,57.8,3.614,80.568-0.497c23.627-4.266,72.208-3.688,95.563,4.637
		c13.558,4.833,20.242,16.921,33.947,21.93c25.784,9.423,45.584-1.348,69.481,17.182c30.094,23.334,50.289,33.62,86.277,48.652
		c39.567,16.527,46.102,43.189,63.266,79.185c26.563,55.71,75.364,105.125,97.659,161.887
		c56.15-138.767,41.828-258.738,15.34-403.03c-11.729-63.891-17.193-128.817-28.99-192.583
		c-9.192-49.688-28.573-79.668-78.599-94.768c-88.807-26.805-192.497-19.982-284.017-21.168
		c-136.013-1.762-272.105-1.433-408.118,0.228c-219.136,2.677-435.316,19.865-653.118,42.702
		c-179.936,18.867-358.595,39.803-539.356,24.21c6.824,136.896,20.695,273.158,28.904,409.932
		c4.835,80.573,5.987,161.405-1.067,241.886c-5.204,59.362-21.181,118.704-23.668,178.107
		c-4.203,100.381,149.38,51.027,210.955,45.589c149.127-13.17,298.763-18.887,447.741-33.979
		c114.579-11.607,229.946-32.728,345.278-34.753c0.771-11.609-20.81-67.182-27.697-69.697"/>
</g>
</svg>
