<?xml version="1.0" encoding="utf-8"?>
<!-- Generator: Adobe Illustrator 16.0.0, SVG Export Plug-In . SVG Version: 6.00 Build 0)  -->
<!DOCTYPE svg PUBLIC "-//W3C//DTD SVG 1.0//EN" "http://www.w3.org/TR/2001/REC-SVG-20010904/DTD/svg10.dtd">
<svg version="1.0" xmlns="http://www.w3.org/2000/svg" xmlns:xlink="http://www.w3.org/1999/xlink" x="0px" y="0px"
	 width="5893.651px" height="1080px" viewBox="0 0 5893.651 1080" enable-background="new 0 0 5893.651 1080" xml:space="preserve">
<g id="BGROCKS">
	<g id="Layer_12">
		<path fill="#BE0003" d="M5308.651,615c-10.604-30.359-34.664-27.951-46.743-56.586c-7.099-16.826-10.136-21.667-4.523-40.762
			c1.857-6.321,11.326-5.639,12.888-12.741c1.387-6.308-5.086-14.467-5.361-21.082c-0.812-19.542,7.231-38.071,5.438-56.669
			c-17.655,15.549-18.255,26.684-23.707,47.839c-4.169,16.179-13.406,27.93-18.118,44.063c-5.083,17.4-2.66,28.764-11.833,45.939
			c-1.829,3.424-11.558,12.134-14.269,15.873c-4.958,6.842,7.068,14.778-11.468,16.475c0.153,3.022,0.268,5.828,0.369,8.433
			c-4.531-0.602-9.65-0.813-12.323-0.433c-4.153,13.021-15.969,15.729-22.69,3.946c-18.818,1.649-39.089-3.527-59.303-3.992
			c-1.038,3.045-2.019,6.254-2.704,9.395c-19.411,4.018-27.558,0.704-44.665-8.669c-5.287-2.896-17.191-7.134-21.167-8.929
			c-6.466-2.919-0.053-15.223-17.471-11.751c-4.611,9.631,0.591,23.156-5.304,29.85c-2.971,3.373-8.961,5.106-15.316,6.402
			c-3.006-15.171-7.871-26.244-7.621-44.766c0.3-22.161,1.764-46.598,5.59-68.432c-4.08,0.53-9.348-1.404-13.395-0.677
			c4.506-30.045,10.549-71.034,7.395-102.36c-5.576-1.368-14.299-0.268-19.395,2.232c2.305,18.883-4.131,62.368-16,75.388
			c16.299,10.191,11.412,52.882,8.135,71.439c-0.926-5.696-3.096-10.871-4.381-16.449c-1.788,7.965-6.921,16.173-8.179,24.215
			c-1.783,11.397,4.719,17.229,1.3,28.735c-9.487,31.932-24.958,17.514-46.979,19.835c4.143-15.465,11.862-50.477-7.851-53.802
			c-2.121-7.716-7.095-15.724-8.452-23.463c-1.131,11.267-2.834,21.016-3.594,32.416c3.996,0.471,7.339,2.706,11.396,2.961
			c7.885,54.115-42.801,57.019-43.698,98.227l2-6.72c10.668,17.894,41.743,7.939,58.273,5.373c9.61-1.491,20.987-7.161,30.552-6.763
			c11.9,0.497,22.184,11.272,32.991,11.719c17.028,0.703,24.045-7.038,24.276-25.385c12.298-0.481,25.497-3.068,36.253-2.922
			c21.188,0.288,44.944,3.766,66,0.641c23.137-3.434,39.701-10.144,63.464-9.96c13.108,0.102,28.024,2.02,36.244-2.29
			c3.997,7.306,13.471,8.347,37.438,8.295c16.873-0.036,78.114,9.035,72.509-20.088L5308.651,615z"/>
		<path fill="#B20000" d="M5270.121,505.403c0.048-0.167,0.112-0.316,0.151-0.492c0.261-1.185,0.243-2.436,0.042-3.729
			c-0.157,0.443-0.309,0.886-0.473,1.329C5269.972,503.477,5270.062,504.441,5270.121,505.403z"/>
		<path fill="#C90009" d="M5306.177,608.979c-17.387,4.196-36.165,2.693-53.504-0.479c-9.942-1.819-19.865-4.489-29.433-8.068
			c-3.866,0.727-7.729,1.468-11.592,2.211c-1.743,0.335-3.486,0.669-5.229,1.004c-10.472,3.91-20.953,7.775-32.016,9.71
			c-3.852,3.886-8.909,4.58-13.297,1.472c-9.832,0.583-19.653,0.358-29.538,1.351c-0.463,0.047-3.204,0.367-3.219,0.357
			c-0.958,0.122-1.916,0.24-2.872,0.372c-3.117,0.429-6.23,0.879-9.343,1.339c-7.248,1.069-14.496,2.074-21.778,2.89
			c-12.994,1.455-25.878,1.597-38.739-1.141c-8.561-1.821-16.417-5.122-23.706-9.489c-24.335,17.85-58.381,22.322-87.478,24.361
			c-18.95,1.328-38.067,1.215-56.979-0.657c-8.357-0.827-16.878-1.811-25.274-3.36c-9.146,9.79-17.177,20.065-17.529,36.248l2-6.72
			c10.668,17.894,41.743,7.939,58.273,5.373c9.61-1.491,20.987-7.161,30.552-6.763c11.9,0.497,22.184,11.272,32.991,11.719
			c17.028,0.703,24.045-7.038,24.276-25.385c12.298-0.481,25.497-3.068,36.253-2.922c21.188,0.288,44.944,3.766,66,0.641
			c23.137-3.434,39.701-10.144,63.464-9.96c13.108,0.102,28.024,2.02,36.244-2.29c3.997,7.306,13.471,8.347,37.438,8.295
			c16.873-0.036,78.114,9.035,72.509-20.088l4-4C5307.894,612.83,5307.063,610.837,5306.177,608.979z"/>
		<path fill="#B20000" d="M4980.863,463.622c0.48-4.523,0.909-9.076,1.266-13.618c-0.959,4.217-1.942,8.428-2.979,12.626
			C4979.738,462.924,4980.307,463.262,4980.863,463.622z"/>
	</g>
	<path fill="#F30000" d="M3895.37,677.833c124.969-52,914.923-28.669,1045.6-36.687c118.76-7.286,237.144-13.598,356.188-18.205
		c75.809-2.934,525.83-10.746,596.493,21.889c-35.618,50.778-486.892,57.665-544.521,70.875
		c-88.137,20.203-177.903,23.133-267.386,34.843c-127.526,16.689-368.13,336.099-460.302,227.315
		c-17.824-21.038-669.271-136.867-702.071-138.014"/>
	<g id="Layer_11_copy">
		<path fill="#DD0303" d="M4853.611,737.363c18.406-35.977,57.238-53.494,94.552-62.89c42.182-10.622,85.24-18.851,128.418-24.007
			c17.152-2.049,34.316-3.526,51.486-4.526c25.147-4.041,50.44-7.024,75.727-8.742c53.768-3.653,107.865-1.491,161.576-5.725
			c17.006-2.724,34.088-4.969,51.281-6.474c11.809-1.034,22.19,7.461,26.663,17.992c2.578-0.918,5.157-1.836,7.729-2.773
			c13.937-5.078,27.793-10.383,41.531-15.979c1.904-0.775,3.802-1.569,5.702-2.353c-59.395-15.42-127.271-4.396-186.682-1.946
			c-111.739,4.607-222.858,10.919-334.328,18.205c-78.576,5.136-1004.729,30.66-1081.896,36.687
			c23.609,6.626,9.271,143.492,24.002,162.017c18.508,23.272,756.543,144.306,777.079,156.016
			C4696.988,991.306,4852.842,738.865,4853.611,737.363z"/>
		<path fill="#DD0303" d="M4654.447,821.848"/>
		<path fill="#DD0303" d="M3754.357,689.835"/>
	</g>
</g>
</svg>
