<?xml version="1.0" encoding="utf-8"?>
<!-- Generator: Adobe Illustrator 16.0.0, SVG Export Plug-In . SVG Version: 6.00 Build 0)  -->
<!DOCTYPE svg PUBLIC "-//W3C//DTD SVG 1.0//EN" "http://www.w3.org/TR/2001/REC-SVG-20010904/DTD/svg10.dtd">
<svg version="1.0" xmlns="http://www.w3.org/2000/svg" xmlns:xlink="http://www.w3.org/1999/xlink" x="0px" y="0px"
	 width="5893.651px" height="1080px" viewBox="0 0 5893.651 1080" enable-background="new 0 0 5893.651 1080" xml:space="preserve">
<g id="Roof_x5F_03">
	<path fill="#E7C0B7" d="M4688.651,703c13.27-64.115,60.747-149.753,121.188-178.007c-6.43-1.784-12.104-7.234-18.989-8.445
		c19.305-20.618,42.624-45.596,46.246-1.658c8.039-12.982,0.144-22.658,3.719-34.649c5.248-17.6,16.812-21.729,26.398-36.177
		c16.654-25.096,23.848-57.811,49.431-78.812c12.052,20.141,24.224,26.046,27.903,51.182c4.93-19.562,0.297-44.7,10.488-63.396
		c12.68-23.262,42.847-31.645,62.688-49.193c36.849-32.59,43.378-70.291,93.023-88.639c13.856,18.28,17.56,38.724,26.355,59.634
		c12.399-15.021,41.531-35.108,39.851-57.492c13.79-3.817,29.076-2.564,43.402-2.053c8.369,26.709,21.484,54.132,26.851,81.139
		c6.179-73.594,14.691-133.809,102.429-133.96c36.307-0.063,67.003-3.403,102.976-7.127c29.591-3.064,21.558,6.791,43.28,20.462
		c17.088,10.756,36.722,4.593,54.997,11.026c58.015,20.424,25.96,67.49,13.534,111.559c28.137-21.433,60.886-66.786,97.188-55.702
		c33.294,10.166,47.136,35.636,53.445,67.598c36.267-30.588,101.45-80.816,136.291-28.667
		c29.702,44.459,64.653,86.46,93.403,131.348c47.72,74.506,34.357,164.027,11.318,244.758
		c-10.625,37.23-44.646,94.963-29.585,135.007c-133.589-31.309-278.393-21.899-414.503-29.709
		c-180.408-10.352-359.885-33.276-540.438-41.096c-91.115-3.945-192.385-20.665-282.59,0.765c0.265-3.466-1.96-10.053-1.954-11.537
		c-13.116,3.063-31.323,5.574-25.731,18.472c9.049,20.868,118.617,25.872,136.178,28.529
		c246.335,37.281,493.812,67.386,740.437,102.764c107.085,15.36,214.338,32.925,322.153,42.426
		c37.699,3.321,113.942,17.823,144.851-14.011c25.217-25.972,7.9-73.218,0.229-102.98c-16.188-62.808-34.213-124.77-45.123-188.832
		c-24.988-146.726-16.77-293.548,1.865-440.404c7.064-55.68,40.787-171.783-13.079-215.212
		c-51.793-41.758-164.403-20.292-224.259-18.836c-182.225,4.432-364.486,6.582-546.74,9.444
		c-269.691,4.236-539.327,10.989-809.005,15.913c-121.015,2.209-430.057,5.769-550.894-3.083
		c-3.376,48.043,1.407,84.728,13.458,134.108c22.649,92.801,40.243,189.872,51.13,284.691c15.32,133.417,4.81,272.032-5.102,404.549
		c35.149,5.897,260.605,2.458,296.072,2.41c82.852-0.11,165.698-0.09,248.548-0.385c78.085-0.278,158.372-2.485,236.264,2.904
		c16.734,1.158,34.626,6.842,50.398-0.627"/>
</g>
</svg>
