<?xml version="1.0" encoding="utf-8"?>
<!-- Generator: Adobe Illustrator 16.0.0, SVG Export Plug-In . SVG Version: 6.00 Build 0)  -->
<!DOCTYPE svg PUBLIC "-//W3C//DTD SVG 1.0//EN" "http://www.w3.org/TR/2001/REC-SVG-20010904/DTD/svg10.dtd">
<svg version="1.0" xmlns="http://www.w3.org/2000/svg" xmlns:xlink="http://www.w3.org/1999/xlink" x="0px" y="0px"
	 width="5893.651px" height="1080px" viewBox="0 0 5893.651 1080" enable-background="new 0 0 5893.651 1080" xml:space="preserve">
<g id="Roof_x5F_02">
	<path fill="#841E0D" d="M5510.651,117c-22.145,52.693-23.952,114.169-24.007,171.388c-3.21-20.738-7.381-41.009-13.665-60.983
		c-8.052-25.587-23.626-45.001-33.686-68.933c-9.254-22.015-2.249-39.416-29.773-50.527c-25.196-10.171-49.54,4.36-74.613,3.365
		c-0.774,24.18,4.578,49.482,1.441,73.132c-15.253-16.372-27.372-46.356-41.559-59.722c-21.472-20.229-57.304-4.761-83.816-3.48
		c-52.478,2.535-111.922,1.407-158.851,28.652c-42.409,24.621-36.864,65.631-44.118,109.002
		c-3.172,18.965-9.418,35.648-11.354,54.822c-2.201,21.794,1.838,47.075-5.563,67.125c-10.468-40.083-8.635-87.271-41.573-115.952
		c-21.321-18.565-60-28.121-77.325,0.489c-9.175,15.151,0.33,32.78-9.903,46.84c-3.722,5.114-41.02,19.35-41.357,17.191
		c17.28,110.608-83.463,64.851-154.768,85.018c-64.049,18.114-115.397,93.407-112.329,157.164
		c3.379,70.232,28.861,144.525-28.703,200.999c-74.868,73.448-212.473,71.716-309.246,65.918
		c-68.673-4.114-143.496-10.943-210.196-29.454c-67.779-18.811-220.288-66.47-224.33-131.22
		c-10.046-160.934,19.813-323.528,17.67-484.898c-1.324-99.688-13.727-198.568-17.04-298.118
		c364.313-11.292,866.234-25.604,1230.692-28.409c201.896-1.554,403.825-3.613,605.73-2.977
		c86.252,0.272,184.806-8.923,269.295,13.699c98.183,26.288,75.673,153.336,72.604,231.611
		c-6.398,163.247,1.024,321.917,21.536,483.981c13.336,105.373,20.834,206.526,6.494,311.975
		c-26.183-2.385-79.092-3.709-94.066-30.673c-12.324-22.193,0.418-72.393,0.134-97.198c-0.519-45.264-0.978-89.458-13.113-133.43
		c-11.689-42.353-34.16-75.106-51.954-113.94c-23.953-52.275,25.099-118.536,30.915-172.159
		c8.482-78.208-51.866-141.834-117.898-174.109c-49.098-23.997-104.407-33.875-156.334-49.958
		c-24.13-7.473-47.99-17.907-73.373-20.231"/>
</g>
</svg>