<?xml version="1.0" encoding="utf-8"?>
<!-- Generator: Adobe Illustrator 16.0.0, SVG Export Plug-In . SVG Version: 6.00 Build 0)  -->
<!DOCTYPE svg PUBLIC "-//W3C//DTD SVG 1.0//EN" "http://www.w3.org/TR/2001/REC-SVG-20010904/DTD/svg10.dtd">
<svg version="1.0" xmlns="http://www.w3.org/2000/svg" xmlns:xlink="http://www.w3.org/1999/xlink" x="0px" y="0px"
	 width="5893.651px" height="1080px" viewBox="0 0 5893.651 1080" enable-background="new 0 0 5893.651 1080" xml:space="preserve">
<g id="Roof_x5F_00">
	<path fill="#BDB4B3" d="M3916.651,1029.956c57.205-2.658,114.722-1.223,171.869,1.913c53.41,2.93,49.711-179.1,61.789-226.736
		c18.735-73.896,47.34-146.382,86.956-210.864c9.465-15.406,25.754-26.721,34.375-41.256c10.817-18.235,0.394-27.228,3.587-46.202
		c2.766-16.428,16.688-25.231,21.671-40.269c5.871-17.712,0.589-37.035,7.994-55.435c9.331-23.185,25.53-44.161,35.944-67.239
		c13.038-28.895,25.867-66.224,55.26-82.616c14.214,9.157,21.611,24.682,17.302,41.588c14.022-8.805,14.411-42.364,17.207-54.229
		c2.534,22.03,16.237,37.613,18.072,60.716c1.491,18.769-1.057,37.281,2.373,55.513c20.583-27.953,6.423-75.21,11.81-107.798
		c10.107-61.139,79.914-92.21,133.951-110.126c21.496-7.126,56.621-1.257,73.584-17.214
		c-20.103,52.762-26.216,115.947-25.894,172.74c42.704-64.187,38.903-141.086,124.683-167.332
		c44.493-13.614,94.315-15.175,140.406-20.213c43.056-4.706,50.835,7.213,65.919,44.185c11.173,27.386-3.47,45.849,3.045,75.314
		c15.283-26.371,20.796-45.382,26.337-74.763c7.398-39.233,26.459-35.646,60.865-47.967
		c36.709-13.146,151.971-97.629,180.548-65.873c19.087,21.21,4.391,66.799,13.759,93.19c20.027-46.026,41.296-83.493,90.298-103.26
		c27.729-11.186,49.507-3.006,77.942,4.668c79.496,21.455,160.303,36.931,240.031,57.311
		c59.535,15.218,115.691,32.237,141.679,92.202c21.505,49.622,39.312,105.333,54.001,157.356
		c17.207,60.941,10.681,119.631,7.729,181.854c-3.056,64.445,10.055,123.121,19.047,186.279
		c9.4,66.021-16.476,119.099-21.31,182.953c-5.303,70.045,65.753,46.824,110.86,34.487c8.234-133.735,13.997-266.946,3.129-400.749
		c-12.477-153.595-40.884-305.027-28.166-459.662c4.034-49.058,22.138-114.074,2.618-161.622
		c-24.137-58.798-106.471-61.105-159.961-64.045c-145.656-8.005-293.174,5.249-438.645,11.85
		c-191.342,8.683-382.781,15.105-574.343,14.886c-275.259-0.313-931.748-18.168-1206.375-34.229
		c3.842,62.594,14.04,124.612,17.436,187.255c5.219,96.264-6.373,192.639-17.385,288.123
		c-11.055,95.854-22.684,191.297-22.684,287.958c0,56.625,11.376,111.439,13.305,167.362c0.876,25.41-8.43,234.577-6.936,259.995"/>
</g>
</svg>
