<?xml version="1.0" encoding="utf-8"?>
<!-- Generator: Adobe Illustrator 16.0.0, SVG Export Plug-In . SVG Version: 6.00 Build 0)  -->
<!DOCTYPE svg PUBLIC "-//W3C//DTD SVG 1.0//EN" "http://www.w3.org/TR/2001/REC-SVG-20010904/DTD/svg10.dtd">
<svg version="1.0" xmlns="http://www.w3.org/2000/svg" xmlns:xlink="http://www.w3.org/1999/xlink" x="0px" y="0px"
	 width="5893.651px" height="1080px" viewBox="0 0 5893.651 1080" enable-background="new 0 0 5893.651 1080" xml:space="preserve">
<g id="Hanging">
	<path fill="#B7B2B4" d="M4990.651,41c11.602,23.742,14.579,46.259,15.735,71.56c0.657,14.385-7.133,67.486,28.257,51.244
		c17.727,31.459,37.53,65.597,50.295,98.802c6.934,18.032,22.745,29.247,30.2,48.033c7.107,17.907,2.874,38.472,3.869,57.443
		c1.119,21.347,11.746,42.807,10.507,64.209c26.681-74.61-18.388-145.333-0.448-217.703
		c10.632-42.887,70.611-182.125,15.549-204.577c-22.821-9.305-94.561-15.094-119.001-8.131
		c-29.475,8.397-26.689,22.496-19.228,45.119"/>
	<path fill="#B7B2B4" d="M5274.651,685c3.221-36.773,5.981-76.948,41.744-97.801c0.73,2.492-2.115,3.973-1.552,5.388
		c24.426-8.557,32.339-63.845,35.726-87.721c2.551-17.974,3.92-35.443,4.092-53.969c0.205-22.093,6.26-31.58,11.396-50.813
		c5.036-18.856,0.391-39.847,5.047-58.924c9.509,18.696,10.974,52.489,41.245,48.143c4.161,76.2,31.398,140.207,44.779,216.091
		c4.063,23.041,15.27,42.438,15.221,65.304c-58.864,4.674-140.356-10.481-193.306,22c-1.677-1.469-2.956-4.516-4.392-5.697"/>
	<path fill="#B7B2B4" d="M4388.651,145c-3.512,23.823-2.993,47.797-5.72,71.649c-2.303,20.143-14.55,43.524-13.563,63.394
		c0.772,15.524,9.778,33.015,11.248,49.895c3.527,40.52,0.858,79.971-2.41,120.458c0.54-25.44-17.537-22.88-27.507-39.741
		c-11.106-18.783-9.311-53.195-17.062-75.03c-19.926-56.132-38.127-148.359-8.446-205.655c15.711-30.329,44.309-15.66,71.1-32.358
		c-2.482,23.056-6.829,47.083-9.641,69.388"/>
	<path fill="#DDB6B6" d="M5046.651,173c26.094,36.458,32.761,105.445,72.196,129.199c-27.617-39.714-43.356-86.729-68.196-129.199"
		/>
	<path fill="#D1B6B6" d="M5148.651,123c1.017,25.121-15.199,73.092-25.548,95.402c-2.395-43.602,17.826-65.756,25.548-105.402"/>
	<path fill="#D7B5B5" d="M5122.651,349c0.664,23.084,5.36,39.574,8.007,61.396c4.915-25.319,7.2-46.993-10.007-67.396"/>
	<path fill="#C3B3B3" d="M5335.204,586.773c19.735-30.221,22.457-66.669,25.742-101.464c-0.625-0.351,5.999-0.274,5.41,0
		c0.674,19.699-13.681,77.813,7.946,83.445c0.004-0.017,0.008-0.034,0.012-0.051c1.103-4.886,1.862-9.702,4.11-13.726
		c1.568,0.129,3.135,0.115,4.701-0.042c10.241,28.751-37.808,64.669-48.304,90.052c-4.723,11.422-3.876,39.467-12.241,47.492
		c-4.832,4.636-35.465,8.055-43.635,10.209c-0.936-25.33-2.421-47.14,11.25-68.743
		C5302.06,615.199,5323.151,605.23,5335.204,586.773z"/>
	<path fill="#B2B2B2" d="M5412.218,457.595c9.438,26.802,12.984,66.13,22.349,96.659c8.837,28.812,17.22,62.372,17.923,92.069
		c-22.608,4.973-44.648,8.721-64.044,22.641c-2.949-15.481-6.388-33.031,6.107-44.724c6.296,5.122,10.399,4.106,17.443,1.124
		c0.822-6.78,2.36-13.49,1.948-20.55c35.163,4.362,10.554-49.282,6.718-66.917c-6.688-30.74-11.547-62.684-15.154-93.695
		c-2.043-17.561-0.731-29.587-11.14-44.835c22.733-1.781,11.47,56.46,20.85,70.227"/>
	<path fill="#B7B2B4" d="M2947.275-42.239c-21.396,23.995-26.495,60.286-23.996,92.576c3.385,43.741-0.809,82.243-0.069,126.368
		c1.194,71.206,25.188,157.929,5.395,227.851c-82.408-139.514,3.647-368.279-157.431-459.085
		c66.129,25.849,132.552,39.874,193.338-5.402c8.149,16.952,3.426,21.688-5.237,26.693"/>
</g>
</svg>
