<?xml version="1.0" encoding="utf-8"?>
<!-- Generator: Adobe Illustrator 16.0.0, SVG Export Plug-In . SVG Version: 6.00 Build 0)  -->
<!DOCTYPE svg PUBLIC "-//W3C//DTD SVG 1.0//EN" "http://www.w3.org/TR/2001/REC-SVG-20010904/DTD/svg10.dtd">
<svg version="1.0" xmlns="http://www.w3.org/2000/svg" xmlns:xlink="http://www.w3.org/1999/xlink" x="0px" y="0px"
	 width="5893.651px" height="1080px" viewBox="0 0 5893.651 1080" enable-background="new 0 0 5893.651 1080" xml:space="preserve">
<g id="Foreground">
	<path fill="#BEB2B6" d="M3990.651,665c79.899,0.143,153.413-11.782,232.467-21.103c64.289-7.58,157.531-19.854,220.857-1.987
		c51.432,14.511,97.275,47.955,149.239,63.35c54.616,16.182,124.285,67.071,181.195,69.183c42.227,1.566,84.317-7.222,126.558-7.717
		c39.981-0.469,79.614,6.926,119.495,6.274c61.878-1.011,130.701-48.195,191.098-61.276
		c63.285-13.706,123.065-18.971,179.198-53.402c47.483-29.127,101.231-60.722,154.78-77.218
		c27.376-8.433,56.123-10.929,82.965-21.313c25.514-9.871,48.217-24.692,74.994-31.562c55.378-14.208,121.862-17.2,178.907-19.125
		c13.987-0.472,27.997-0.275,41.983,0.152c-16.062,77.856-29.623,155.734-19.105,235.325
		c8.323,62.987,31.685,122.958,39.271,185.997c4.981,41.385,4.668,92.104-20.393,127.797
		c-26.619,37.915-74.555,39.783-116.97,40.929c-205.694,5.554-413.098-8.926-618.982-9.991
		c-213.777-1.107-427.553-1.689-641.333-2.126c-186.251-0.38-372.606-2.258-558.688,7.048c-15.749,0.787-31.496,1.625-47.242,2.463
		c-19.081-86.797,14.304-177.17,19.012-265.383c3.123-58.513,4.018-117.352,7.098-176.115c9.153,5.537,24.97,9.014,31.594,7.801"/>
	<path fill="#BEB2B6" d="M4351.925-3v56l41.052,58l36.223,32l14.489,62l7.244,86l24.148,14l14.489,36l-2.415,56l-24.148,40
		l-53.126,84L4364,539l-33.808,14l-33.807,52l-21.733,60l140.059,76l164.208,10l86.934,8l-41.052-88c0,0-82.104-30-84.519-48
		c-2.415-18,0-78,0-78v-94c0,0,11.126-66,18.371-92c7.245-26,19.319-64,33.808-80s15.437-64,15.437-64s14.489-50,24.148-64
		s26.563-60,26.563-60s31.393-22,53.126-30s94.178-32,94.178-32l77.274-34l43.467-52l-581.97-20L4351.925-3z"/>
	<path fill="#C1B3B8" d="M4490.402,61.521c-0.657-1.535-1.714-4.011-2.161-5.019c-2.204-4.975-4.47-9.923-6.852-14.815
		c-2.658-5.458-5.433-10.864-8.333-16.2c0.849,3.266,1.805,6.504,2.862,9.71c1.447,4.388,3.01,8.738,4.734,13.026
		c0.194,0.482,0.394,0.961,0.589,1.442c0.683,1.553,1.367,3.105,2.077,4.646c5.297,11.503,11.191,22.706,17.27,33.81
		c-0.016-0.075-0.032-0.15-0.048-0.226c-2.458-6.843-5.019-13.645-7.712-20.39C4492.03,65.507,4491.221,63.513,4490.402,61.521z"/>
	<path fill="#B2B2B2" d="M4503.855,323.056c-0.231-1.131-0.506-2.251-0.822-3.36c-0.539-1.078-1.237-2.447-1.853-3.481
		c-0.588-0.671-1.17-1.349-1.778-2.003c-1.766-1.899-3.575-3.759-5.331-5.668c-5.742-6.243-11.306-12.987-15.476-20.398
		c-2.903-5.16-5.197-10.625-7.385-16.122c4.542,11.404-1.674-3.845-2.88-6.992c-0.714-1.863-1.418-3.731-2.051-5.623
		c-6.161-18.399-8.604-37.976-9.638-57.289c-0.753-14.075-0.787-28.209-2.328-42.229c-1.071-6.549-2.569-13.042-4.849-19.279
		c-0.138-0.377-0.278-0.753-0.417-1.13c-0.717-1.524-1.455-3.04-2.268-4.515c-1.811-3.285-3.775-6.49-5.968-9.536
		c-0.396-0.475-0.788-0.952-1.192-1.419c-1.656-1.892-3.342-3.759-5.122-5.535c-3.904-3.895-8.015-7.561-12.351-10.971
		c-6.159-4.842-12.502-9.61-18.089-15.123c-13.895-13.71-19.986-29.849-21.744-49.004c-0.854-9.31-0.463-18.646-0.844-27.975
		c-0.434-10.623-1.442-21.192-2.765-31.735c-2.795-19.95-6.203-39.803-8.691-59.798L4344.681-77l7.244,74v56l41.052,58l36.223,32
		l14.489,62l7.244,86l24.148,14l14.489,36l-2.415,56l-24.148,40l-53.126,84L4364,539l-33.808,14l-18.982,29.197
		c35.412-19.405,74.625-31.234,115.488-32.211c4.535-2.219,9.137-4.307,13.824-6.215c0.952-0.616,1.891-1.25,2.814-1.908
		c2.861-2.435,5.602-5.016,8.13-7.798c1.05-1.155,2.071-2.336,3.074-3.533c0.597-0.793,1.197-1.604,1.563-2.135
		c2.689-3.905,5.212-7.924,7.542-12.054c2.896-5.135,5.607-10.375,8.138-15.7c0.766-1.611,3.579-8.063,2.959-6.394
		c0.854-2.142,1.691-4.29,2.479-6.457c9.634-26.529,15.166-54.233,19.116-82.118c1.965-15.141,3.567-30.323,5.12-45.511
		C4502.712,347.888,4504.743,335.42,4503.855,323.056z"/>
	<path fill="#BBB2B2" d="M5328.223,810.077c12.05,48.116,61.063,55.89,104.754,64.681c44.702,8.994,86.875,20.281,129.511,36.378
		c22.701,8.571,41.109,14.262,60.922,29.28c90.294-44.844,148.791-125.84-11.701-85.342
		c-45.368,11.448-208.116,11.864-249.936-10.247c-21.752-11.501-35.794-37.175-36.545-61.301c-1.472,14.747,4.18,25.32,5.994,38.55"
		/>
	<path fill="#BBB2B2" d="M5932.692,591.088c-23.772,33.702-67.513,27.662-102.118,38.891c-33.655,10.92-19.238,49.063-49.786,65.061
		c-28.823,15.095-66.883,11.015-91.166,30.935c-17.465,14.326-22.799,17.67-46.284,19.36c-17.126,1.234-34.267,1.494-49.548,10.175
		c-29.209,16.593-28.978,61.192-30.307,91.84c-38.049,1.429-31.141-78.055-23.998-98.614
		c-17.416,14.467-48.884,28.779-71.461,27.996c-16.177-0.562-53.095-15.731-57.114,10.955c3.173-0.271,9.009,2.35,13.046,1.654
		c8.031,18.215,9.504,40.438-17.488,31.077c-16.039-5.563-28.759-26.313-43.742-35.685c-3.869,28.858-8.351,48.48,20.178,63.126
		c42.357,21.743,85.568,21.671,131.866,27.219c26.675,3.196,51.071,13.763,77.274,17.706c47.971,7.219,102.623-7.299,150.175-12.448
		c35.982-3.896,72.108-6.84,108.016-11.393c17.479-2.217,46.163-2.511,60.17-15.37c20.056-18.413,13.034-65.443,19.092-90.553
		c8.059-33.406,30.632-72.048,13.678-105.804c-9.012-17.942-27.06-28.429-18.35-50.854c-1.633-2.127-1.289,0.807-2.632,2.726"/>
	<path fill="#BBB2B2" d="M5251.726,708.082c-50.662,14.721-89.183,44.905-136.877,63.361
		c-52.259,20.222-108.599,53.623-166.227,30.892c-32.41-12.785-64.339-6.656-96.85-17.573c0.648,2.158,1.845,5.099,2.701,7.095
		c29.984-1.648,51.82,14.128,79.15,20.054c-15.703,7.23-36.024,4.036-52.885,7.775c-17.423,3.863-28.089,6.236-45.792,2.08
		c-20.197-4.742-59.798-32.031-80.741-20.312c3.48,1.452,6.222,4.45,9.592,6.034c-26.009,9.898-49.499,6.59-71.599-8.779
		c-10.604-7.374-12.208-10.135-26.273-14.522c-9.959-3.106-20.336-6.528-28.636-13.18c6.036,0.981,9.345-0.751,13.902-1.051
		c-27.291-14.699-28.105-24.58-37.333-52.341c-6.898-20.751-32.73-36.395-56.776-35.972c5.634,10.724,17.528,22.899,19.033,34.059
		c1.787,13.25-9.997,25.828,9.525,36.206c-12.998,7.185-35.049,17.258-37.64-6.096c-32.797-7.001-59.062,9.547-64.209-35.967
		c-2.99-26.438,1.094-54.55,3.443-80.87c1.438-16.105,4.481-31.841,1.06-47.935c-9.597,9.379-9.277,18.94-10.507,31.222
		c-1.462,14.591,0.111,11.943-6.763,23.711c-10.896,18.652-10.938,29.669-16.667,51.568c-4.257,16.27-9.244,19.527-24.323,22.348
		c-17.24,3.225-18.112-5.678-28.35-9.908c-3.919-1.62-1.212-6.248-7.643-7.562c-3.557-0.727-12.814,5.488-16.193,7.155
		c-10.895,5.376-24.249,12.569-28.509,24.063c-6.719,18.127,4.024,57.162,11.345,74.213c-11.243-0.214-34.725,3.413-44.493-2.274
		c-10.678-6.219-12.829-24.529-21.646-32.796c-7.664-7.184-27.426-20.259-37.65-24.497c-30.06-12.461-67.847-9.887-97.64-1.313
		c-14.531,4.182-40.664,15.726-51.667,1.123c-7.149,68.872,15.603,143.823,37.42,208.251
		c74.907,7.444,144.412-29.784,216.763-38.551c34.454-4.176,63.701-5.391,96.283-18.01c31.272-12.111,63.391-22.715,95.535-32.263
		c29.355-8.721,78.585-9.481,101.8-29.514c40.437,6.094,80.772-2.039,121.427,1.454c39.694,3.41,78.698,1.529,118.456,1.611
		c91.468,0.188,173.875-5.183,255.578-51.638c36.822-20.937,68.187-48.144,104.013-70.264
		C5256.559,706.445,5253.046,709.233,5251.726,708.082"/>
	<path fill="#BBB2B2" d="M4450.766,145.61c-3.174,0.117-5.75,0.881-8.778,1.722c2.472,39.805,16.909,79.813,18.004,121.046
		c14.112-2.677,23.664,18.299,27.148,30.105c5.692-8.283,5.303-18.864,12.557-26.952c-13.331-2.223-9.926-18.748-11.695-29.734
		c-2.858,1.057-7.031,0.151-10.012,1.081c-1.735-41.036-7.952-80.523-9.453-122.535c-3.334-0.536-11.238,0.211-14.546,1.495
		c-0.293,7.833-0.211,15.857-0.227,23.772"/>
	<polygon fill="#C1B3B8" points="4699.754,58.614 4644.256,84.113 4617.258,138.11 4602.259,172.609 4593.259,222.106 
		4582.76,189.108 4612.758,70.614 	"/>
	<path fill="#CAB3B3" d="M4573.219,291.57l-11.979,23.306l-18.292,83.029l-7.373,62.662l-7.467,121.264l-3.224-33.259l-4.057,65.872
		l-10.642,15.875l2.629-85.496l-7.647-18.504l2.028-32.936l11.748-5.288c0,0,3.641-44.859,7.65-67.153
		c4.009-22.295,14.053-42.715,13.593-63.782c-0.46-21.067,7.788-55.123,7.788-55.123L4573.219,291.57z"/>
	<polygon fill="#DDB6B6" points="4519.763,699.082 4524.263,720.081 4540.762,723.081 4555.761,733.581 4546.761,670.584 
		4609.758,691.583 4648.756,762.079 4618.758,681.083 4546.761,652.585 4531.762,661.584 4534.762,681.083 	"/>
	<polygon fill="#DDB6B6" points="4702.753,768.079 4786.75,784.578 4887.244,810.077 4849.746,813.076 4783.75,796.577 	"/>
	<polygon fill="#B2B2B2" points="4861.746,775.578 4917.243,777.078 5005.738,792.078 5130.232,753.08 5035.737,798.077 4999.738,805.577 	"/>
	<polygon fill="#CAB3B3" points="4219.778,654.085 4305.273,640.585 4347.271,613.587 4312.773,645.085 	"/>
	<polygon fill="#B2B2B2" points="4452.266,607.587 4441.767,628.586 4456.766,648.085 4474.765,628.586 4455.266,663.084 4443.267,693.083 
		4446.267,654.085 4426.768,628.586 	"/>
	<path fill="#DDB6B6" d="M5504.651,615c-35.786,14.035-70.89,28.692-103.954,48.286c-41.301,24.474-47.298,31.978-53.861,78.786
		c-3.093,22.057-9.145,40.472-2.683,62.768c9.745-23.394,6.412-52.517,17.933-75.338c11.59-22.958,30.996-27.122,53.11-38.294
		c43.701-22.077,84.464-41.221,120.508-73.192c20.211-17.927,43.104-27.662,67.239-39.055c-39.901,8.834-75.147,30.7-114.292,40.039
		"/>
	<path fill="#B2B2B2" d="M5500.651,733c12.868,0.087,24.897-2.692,37.697-1.697c8.989,41.713,61.123,0.021,89.404-8.922
		c23.572-7.454,109.308-15.439,114.653-41.032c-14.294-7.537-41.497,7.68-57.721,11.532c-20.636,4.899-41.37,8.93-62.059,13.616
		c-39.8,9.014-73.317,12.974-113.712,15.877c-22.586,1.623-46.155,4.593-68.549,0.633c22.449,8.114,53.369,5.526,80.285,9.993"/>
	<path fill="#B2B2B2" d="M5390.651,859c20.527,8.694,52.689,8.077,76.006,12.51c25.554,4.858,50.717,14.866,75.834,19.142
		c-21.933-20.25-52.211-17.553-80.811-25.714c-29.099-8.305-60.389-15.657-88.777-21.585c4.755,7.025,11.704,12.115,19.748,15.647"
		/>
	<path fill="#B2B2B2" d="M4652.651,751c2.835,14.247,5.563,33.561,21.698,38.349c1.09,23.462,62.835,29.762,82,27.349
		c-0.234-1.346-0.228-6.05,0-7.402c-26.624-5.037-63.277-2.529-75.808-31.594c-0.785,0.912,0.806,3.762-0.288,5.106
		c-12.045-9.194-19.623-21.271-25.602-33.808"/>
	<path fill="#B2B2B2" d="M4566.651,715c2.101,12.899,9.933,35.942-2.979,42.178c-8.164,3.943-24.946-11.652-38.719-5.829
		c-2.408,17.493-14.317,32.024-27.548,43.349c5.676-3.472,12.4-1.968,18.95-3.395c0.722,3.81,2.117,7.575,2.644,11.441
		c18.165-10.768,15.772-14.809,39.634-17.784c17.7-2.208,35.676-1.626,53.708-2.263c-2.535-9.483-4.778-19.859-1.89-29.245
		c-19.088-8.876-3.166-28.283-11.804-42.183c-6.924-11.143-27.691-11.918-40.139-21.562c-1.867,12.473,5.717,23.316,10.143,33.292"
		/>
	<path fill="#B2B2B2" d="M4340.651,645c-14.741,10.607-19.302,34.105-16.851,50.039c-30.246,13.927-97.083,4.739-130.847,3.658
		c-1.087-2.631-3.599-13.307-3.644-15.84c29.82-0.878,62.57,4.518,92.052-3.551c27.022-7.395,33.644-29.922,57.137-39.655
		c-4.252,4.384-5.068,10.631-7.847,15.349"/>
	<path fill="#B2B2B2" d="M5833.696,694.583c-25.024,2.331-64.899,13.493-86.542,29.699c20.597-0.599,40.001-6.137,60.413-8.704
		c22.966-2.888,34.734,9.376,54.406,2.782c-2.205-15.523,24.443-22.407,8.635-30.021c-10.17-4.898-31.901,4.862-44.411,1.743"/>
	<path fill="#B2B2B2" d="M5892.193,520.592c-20.201-1.553-86.575-6.242-98.841,11.7c24.888,1.285,59.206-3.826,81.401,10.907
		c13.694,9.091,16.904,17.434,33.182,23.856c12.638,4.986,27.429,9.224,38.397,17.542c-7.061-22.246-7.884-43.909-9.368-66.779
		c-17.77-1.119-45.713,1.372-62.771,5.773"/>
	<g id="Layer_3">
		<path fill="#F3B2B2" d="M5346.651,685c-16.64,59.313-54.119,145.525,18.481,179.313c88.021,40.965,217.674,29.798,286.185,108.763
			c88.925,102.495-192.344,129.162-236.186,132.941c-269.761,23.252-546.501,20.27-816.884,12.293
			c-41.737-1.231-488.598-7.044-435.264-115.322c33.465-67.941,167.038-69.104,230.409-75.428
			c71.976-7.184,134.163-42.098,201.854-64.915c89.177-30.059,171.572-26.207,263.799-18.752
			c94.914,7.673,194.854,3.436,279.859-44.185c60.767-34.041,106.146-84.11,172.3-109.964c17.357-6.784,35.103-12.612,52.795-18.45
			c-8.169,10.169-18.09,19.363-27.349,27.705"/>
		<g id="Layer_3_copy">
			<path fill="#DDB6B6" d="M5651.317,973.076c-68.511-78.965-198.164-67.798-286.185-108.763
				c-69.965-32.562-37.7-113.807-20.372-172.748c6.72-6.295,13.424-13.031,19.239-20.271c-17.692,5.838-35.438,11.666-52.795,18.45
				c-66.154,25.854-111.533,75.923-172.3,109.964c-85.005,47.62-184.945,51.857-279.859,44.185
				c-92.227-7.455-174.622-11.307-263.799,18.752c-67.691,22.817-129.877,57.731-201.854,64.915
				c-63.371,6.324-196.944,7.486-230.409,75.428c-5.565,11.298-5.667,21.476-1.37,30.654c2.766-3.537,5.69-6.89,8.708-10.017
				c26.535-27.497,62.585-44.104,97.624-57.713c35.195-13.671,73.791-11.56,110.882-15.235c16.761-3.014,33.199-7.965,49.85-11.51
				c19.287-4.104,38.677-7.681,58.099-11.08c18.651-3.266,36.865-7.318,54.861-13.287c17.779-5.896,35.201-12.761,52.7-19.429
				c18.323-6.981,36.709-13.81,55.795-18.428c23.584-5.707,47.749-9.154,71.865-11.644c39.323-4.059,78.889-3.783,118.364-3.035
				c78.369,1.483,156.942,1.653,234.862-7.878c16.28-2.436,32.734-5.41,49.209-6.628c5.193-1.994,10.402-3.949,15.578-5.967
				c10.63-5.098,20.479-11.364,29.983-18.35c15.462-12.295,30.644-25.024,47.186-35.835c0.314-0.205,0.638-0.386,0.954-0.584
				c9.867-17.655,25.965-31.372,38.583-46.951c8.085-9.982,67.145-56.058,77.503-49.99c8.771,5.138-27.924,60.291-27.997,70.496
				c-0.12,16.739-9.633,46.797,6.183,81.146s35.506,37.268,37.284,38.656c1.208,0.931,105.234,28.537,142.408,50.527
				c23.327,13.799,42.681,30.859,58.371,52.912c15.518,21.811,26.697,52.848,17.232,79.526c-2.406,6.782-5.235,13.638-8.899,19.963
				C5634.623,1064.189,5701.189,1030.559,5651.317,973.076z"/>
		</g>
		<path fill="#BEB2B6" d="M3910.231,665.821c3.824,2.722,7.97,4.68,12.342,6.083c34.25-1.453,67.716-6.167,89.667-9.084
			L3910.231,665.821z"/>
		<path fill="#BEB2B6" d="M4097.185,847.772c-9.086-66.926-10.286-164.074-88.233-175.561c-26.133-3.852-60.402,8.028-86.377-0.308
			c-39.7,1.684-80.452-1.018-105.542-15.995c-41.42-24.726-22.062-84.562-69.115-108.392c-37.445-18.964-85.123-4.896-120.006-31
			c-35.418-26.505-56.313-82.9-68.814-123.309c-14.614-47.235-19.052-95.639-17.947-145.146
			c0.807-36.181-12.689-98.708,0.383-129.184c16.641-38.796,86.411-107.44,120.494-130.786
			c16.676-11.423,87.74-18.667,84.462-41.436c-6.358-44.156-131.472-24.839-158.22-23.537
			c-70.906,3.453-141.991-16.124-214.426-11.063c-66.51,4.647-135.785,8.212-202.353,1.332
			c51.413,26.233,86.771,85.569,110.449,136.801c10.592,22.92,31.563,46.862,39.352,70.407c10.438,31.552-5.152,54.904,0.903,88.225
			c7.42,40.826,40.209,43.639,83.464,34.185c7.347,44.906,34.189,88.207,54.602,127.364c12.331,23.657,36.916,73.743,32.477,105.987
			c-34.908,0.424-37.574,21.799-39.004,50.925c-60.995,12.022-74.801,88.486-101.695,131.32
			c-30.924,49.251-95.898,11.312-149.571,22.248c-65.323,13.311-65.653,92.568-134.109,104.251
			c-27.479,4.689-49.333,0.689-78.493,6.629c-15.254,3.107-23.555,11.196-39.109,11.794c-16.482,0.633-28.527-12.054-45.561-7.016
			c-24.863,7.354-61.739,52.012-79.997,69.574c-18.272,17.577-7.53,19.457-31.29,27.031c-10.247,3.268-31.628-2.291-44.348,0.429
			c3.363-37.966-36.848-33.287-61.87-45.911c-34.942-17.63-63.988-38.425-78.127-74.891c-19.399-50.032-23.256-116.9-22.916-169.63
			c-73.206,0.539-104.14-70.479-82.771-134.004c21.13-62.812,35.081-74.047-16.266-120.784
			c-72.661-66.137,2.764-97.398,52.222-149.548c51.551-54.358,103.926-104.244,158.324-156.909
			c62.707-60.709,152.482-85.033,224.205-135.268c-55.519,1.752-110.377,10.33-165.962,14.868
			c-49.754,4.063-96.94-0.918-146.164,7.819c-66.723,11.844-129.564,24.261-196.526,6.974
			c-46.322-11.958-89.149-36.501-136.894-38.484c-33.694-1.399-67.795,1.023-101.987,3.706c-0.291,8.956-0.473,17.919-0.473,26.897
			c0,20.113-0.015,40.23-0.031,60.348c7.771,7.711,15.322,15.618,22.545,23.782c8.625,9.75,16.883,19.874,24.233,30.629
			c11.894,17.407,24.699,34.93,35.218,53.427c2.722,4.787,5.632,9.741,7.605,14.896c9.159,23.929,19.866,49.315,24.216,75.12
			c3.678,21.822,6.115,43.926,7.671,66.042c14.831,11.488,26.903,23.104,32.291,33.873c12.12,24.22,10.082,58.467,21.293,85.049
			c11.845,28.082,18.275,49.417,21.69,80.271c1.584,14.313,8.627,35.539,3.675,49.51c-6.92,19.526-21.492,16.492-30.184,29.793
			c-16.683,25.527-11.462,63.676,35.06,48.145c12.165,26.093,8.581,55.262,31.752,74.231c24.668,20.196,60.614,7.343,44.729,57.889
			c-15.782,50.217-41.476,11.636-73.469,29.457c-28.748,16.014-13.523,57.494-33.951,81.001c-2.75,3.165-5.743,6.238-8.903,9.237
			c-4.375,11.114-9.279,22.038-14.532,32.71c-12.39,25.173-30.833,48.515-47.343,70.677c1.974,53.188,3.93,106.377,4.352,159.604
			c0.029,3.694,0.106,7.39,0.213,11.084c22.398-0.21,44.837,0.262,67.338,1.802c97.865,6.697,195.66,11.436,293.54,17.535
			c320.342,19.965,643.012-4.646,962.489,19.269c160.68,12.027,331.921,37.857,492.947,19.646
			C4108.171,1057.319,4111.496,953.196,4097.185,847.772z"/>
		<path fill="#C1B3B8" d="M2488.089,539.809c9.613,34.509,19.215,67.726,30.681,98.626c53.821-10.06,45.338-18.728,47.269,37.931
			c1.283,37.654,17.369,67.551,28.837,96.727c16.592,42.213,22.001,43.547,64.521,68.393c9.653,5.64,30.772,17.727,40.86,25.261
			c16.241,12.128,15.723,28.256,27.102,37.954c36.161,30.818,58.006,8.092,77.486,63.854
			c-55.625-9.898-87.499-38.285-130.807-72.677c-21.164-16.806-42.774-30.754-65.714-45.122
			c-5.714-3.578-28.195-12.42-31.335-16.563c-7.91-10.436-1.799-29.885-8.947-39.24c-16.472-21.56-42.985-15.801-73.43-14.596
			c-1.869,2.261-4.827,9.469-5.846,11.238c-1.604-4.531-3.496-15.723-3.38-20.223c26.382-9.852,39.618-3.479,50.671-30.151
			c7.049-17.011,0.244-53.362-0.418-71.955c-38.677-8.138-43.605-61.786-50.098-93.144c11.624,9.753,19.461,25.62,20.548,38.695"/>
		<path fill="#C1B3B8" d="M2893.129,923.847c62.722-89.565,50.671-98.459,135.855-112.94c43.896-7.463,47.687-18.036,79.114,17.064
			c-89.186-24.344-125.284,22.096-187.523,71.564c-1.227-23.579,20.493-46.53,35.561-62.697"/>
		<polygon fill="#C1B3B8" points="3397.18,203.775 3451.185,221.777 3475.188,308.785 3559.196,497.805 3538.193,533.808 
			3478.188,368.792 		"/>
		<path fill="#BBB2B2" d="M4057.599,1038.52c-26.262-92.337-106.27-187.881-177.969-248.789
			c-10.075,9.156-19.438,18.941-23.917,31.652c-31.493,1.042-60.923-0.539-91.964,0.977c-14.439,28.971-59.163,65.527-94.104,36.868
			c-18.161-14.897-7.271-60.534-5.618-81.53c2.458-31.227,7.127-65.782-0.165-96.713c-11.625-49.306-18.58-18.666-65.363-38.114
			c1.898,16.125-5.43,16.11-10.123,28.652c-22.979-15.041-52.309-13.784-71.264-27.629c-20.164-14.728-28.231-57.463-29.913-82.176
			c-4.306,45.61-6.685,109.608,31.553,135.443c23.446,15.842,136.624,54.969,70.446,99.466c-13.415-9.662-14.439-3.574-27.216-3.134
			c0.08-0.038,0.194-0.17,0.297-0.251c-27.313,13.529-39.797,38.688-64.644,51.063c-27.727,13.81-66.434-5.815-76.385,33.476
			c-26.027-26.933-80.133-62.179-114.506-76.585c-43.584-18.265-99.199,7.466-142.99-14.311
			c-3.752,3.557-10.732,14.608-12.302,19.353c24.155,7.981,45.872,24.675,71.697,27.914c12.897,1.618,30.349-6.743,42.051-3.446
			c13.398,3.775,15.007,15.207,24.252,19.163c14.243,6.095,68.091,14.103,76.474,25.853c19.835,27.802-17.863,64.515,13.001,98.678
			c-59.946,4.386-500.374,102.192-397.001-68.837c-36.414,12.644-58.054,51.109-96.398,54.761
			c-37.109,3.534-58.985-25.921-64.93,29.067c-41.927,3.882-45.603-1.047-81.762-16.051c-35.936-14.911-52.101-6.733-79.484-35.966
			c-20.347-21.721-37.306-46.242-57.234-68.103c-19.723-21.635-68.985-114.124-95.564-50.888
			c34.056-2.605,66.352,52.103,87.922,74.883c104.186,110.029-70.819,86.647-139.003,82.476
			c-34.468-2.108-95.813,23.487-117.44-16.847c-18.519-34.538,31.446-96.991,39.188-132.996
			c-15.652,26.424-39.455,43.925-64.559,60.091c-10.711,16.887-23.196,32.975-34.749,48.482
			c1.975,53.187,3.933,106.374,4.354,159.601c0.043,5.518,0.19,11.035,0.394,16.553c223.938-4.427,447.937,12.109,671.996,7.232
			c226.67-4.933,451.062-33.562,678.007-21.68C3698.833,1099.642,4096.06,1173.742,4057.599,1038.52z"/>
		<path fill="#C1B3B8" d="M3436.186,590.813c-35.151,78.888-26.657,101.658-100.251,112.729c-31.561,4.748-62.9-0.725-88.459,17.021
			c44.403-7.543,91.29-0.425,133.727-10.472c54.074-12.801,29.664-55.059,69.676-88.608c-4.217-2.732-20.992-9.028-25.113-9.893
			c-6.107,4.714-17.555,9.693-22.582,15.227"/>
		<path fill="#C1B3B8" d="M2408.194,510.291c2.929-29.844,5.962-45.305,2.745-75.881c-6.766-64.303,6.402-106.216-45.654-154.381
			c-7.404-6.85-15.505-12.708-23.84-18.206l-33.372-40.046c-2.184-2.949,11.005,14.985,25.664,35.079
			c-13.71-8.669-27.662-16.896-39.888-27.357c0.109,1.082,0.203,2.165,0.307,3.248c15.702,18.502,44.841,45.221,62.818,56.157
			c5.616,7.823,9.891,13.88,11.414,16.273c41.929,48.387,51.918,181.342,15.148,237.045c9.737,12.276,14.507,26.438,18.215,42.353
			C2416.935,562.396,2405.774,534.949,2408.194,510.291z"/>
		<path fill="#C1B3B8" d="M2500.092,155.77c-19.443,30.683-41.93,67.616-69.238,88.512c-9.175,16.441-1.686,33.529,6.317,51.526
			c10.335-45.384,83.634-99.631,71.991-141.751c-30.62,18.712-59.104,66.556-84.078,91.723"/>
		<path fill="#C1B3B8" d="M3739.216,581.813c10.973,28.845,21.87,57.718,32.691,86.619c42.853,39.249,91.918,43.847,147.039,31.012
			c-22.951,57.558-127.066,47.204-160.97,5.601c-37.79-46.374-5.836-115.444-87.469-129.819c23.029-29.62,52.03,1.119,80.325-8.029
			c-1.828,32.653,15.973,57.199,24.387,86.625"/>
	</g>
</g>
</svg>
