<?xml version="1.0" encoding="utf-8"?>
<!-- Generator: Adobe Illustrator 16.0.0, SVG Export Plug-In . SVG Version: 6.00 Build 0)  -->
<!DOCTYPE svg PUBLIC "-//W3C//DTD SVG 1.0//EN" "http://www.w3.org/TR/2001/REC-SVG-20010904/DTD/svg10.dtd">
<svg version="1.0" xmlns="http://www.w3.org/2000/svg" xmlns:xlink="http://www.w3.org/1999/xlink" x="0px" y="0px"
	 width="5893.651px" height="1080px" viewBox="0 0 5893.651 1080" enable-background="new 0 0 5893.651 1080" xml:space="preserve">
<g id="Roof_x5F_01">
	<path fill="#CAB7B4" d="M4334.651,737c-2.373-57.075-22.489-125.789,5.629-180.559c4.277-8.331,15.808-16.233,18.701-22.626
		c5.698-12.593,1.128-24.732,3.398-37.771c4.5-25.838,14.139-31.262,37.917-39.393c-0.425-8.145-12.188-27.143-6.475-34.036
		c6.98-8.423,17.369,9.086,18.88,13.819c6.768-72.589,21.861-90.405,78.278-131.176c29.063-21.002,48.248-58.735,80.667-73.839
		c23.14-10.78,50.278-6.988,75.075-7.233c67.705-0.672,119.081-47.933,189.385-51.55c23.081-1.188,59.829-9.178,82.242-3.683
		c20.525,5.033,26.479,19.763,49.604,19.538c25.612-0.25,39.117-11.929,64.146,1.704c21.63,11.782,25.749,25.099,54.252,16.502
		c-7.451-28.72,22.03-38.821,28.957-63.207c4.148-14.607-2.983-49.403,12.525-59.225c38.284-24.245,60.175,81.637,73.369,98.065
		c2.703-14.598-0.494-30.827,4.332-44.768c3.574-10.328,13.951-17.673,17.275-28.726c7.559-25.133-7.894-38.884,25.711-44.111
		c43.014-6.69,94.313,1.455,130.029,26.106c43.721-51.521,110.535-26.49,169.007-19.55c84.459,10.024,171.909,16.521,254.072,39.49
		c63.934,17.872,92.979,46.004,100.245,111.926c10.121,91.822,16.32,187.366,45.315,275.82
		c11.9,36.303,23.402,68.431,18.825,107.466c-4.66,39.731-24.833,74.428-32.833,113.018c-5.939,28.649,0.792,56.394,2.039,85.286
		c1.959,45.404-1.756,91.127-4.305,136.44c19.889-3.924,43.194-6.08,53.89-25.093c12.362-21.973,8.685-70.711,10.862-95.555
		c6.819-77.794-1.801-152.954-19.927-228.393c-21.573-89.789-16.228-176.43-18.826-267.781
		c-3.01-105.84-11.157-203.732,0.486-309.598c6.497-59.065,18.796-142.588,0.896-201.055
		c-392.618,58.067-790.522,53.146-1186.469,47.546c-166.035-2.348-332.132-5.733-497.979-14.303
		c-75.962-3.925-406.9-14.763-482.685-3.546c-171.827,25.432-100.181,188.123-75.437,305.116
		c21.228,100.367,19.133,199.688-3.57,299.63c-17.775,78.251-63.231,168.862-53.811,250.588
		c9.223,80.004,348.022,88.969,413.422,92.041c103.092,4.842,207.25-3.499,310.264-7.591c-17.626-18.94-32.43-39.521-49.381-57.737"
		/>
</g>
</svg>
