<?xml version="1.0" encoding="utf-8"?>
<!-- Generator: Adobe Illustrator 16.0.0, SVG Export Plug-In . SVG Version: 6.00 Build 0)  -->
<!DOCTYPE svg PUBLIC "-//W3C//DTD SVG 1.0//EN" "http://www.w3.org/TR/2001/REC-SVG-20010904/DTD/svg10.dtd">
<svg version="1.0" xmlns="http://www.w3.org/2000/svg" xmlns:xlink="http://www.w3.org/1999/xlink" x="0px" y="0px"
	 width="5893.651px" height="1080px" viewBox="0 0 5893.651 1080" enable-background="new 0 0 5893.651 1080" xml:space="preserve">
<g id="Midground">
	<path fill="#B90002" d="M5229.747,7c-44.284,10.375-66.468,71.257-96.348,107.402c11.807-23.466,9.699-58.867,5.528-85.1
		c-11.714,2.621-26.251-7.117-29.737,13.349c-13.184-2.464-26.049,3.411-28.217,22c-68.063-3.978-107.158,70.09-160.912,113.914
		c-48.436,39.489-59.727,103.205-98.258,155.146c-38.796,52.298-87.128,107.055-47.744,186.764
		c14.733,29.82,38.806,46.59,58.958,68.637c20.07,21.957,35.854,48.368,50.873,76.523c30.728,57.604,57.532,114.522,55.206,188.273
		c-0.282,8.926-0.347,17.863-0.662,26.789c-35.153,8.722-70.239,17.898-105.731,26.916c-49.005,12.451-98.313-1.659-147.412-4.591
		c-52.523-3.135-105.429-7.835-158.009-8.02c-14.255-0.05-27.694,0.621-41.262,4.398c-0.837-18.786,18.69-30.074,27.729-45.522
		c26.016-44.469,43.983-103.576,59.755-152.422c6.438-19.938,8.544-43.623,21.379-60.51c13.958-18.365,41.9-19.894,51.505-41.659
		c-12.433-2.657-13.439-22.803-9.702-35.357c4.351-14.614,16.512-15.086,21.848-26.024c11.263-23.088,5.865-55.592,16.213-81.238
		c0.268,4.702,6.367,10.438,9.911,16.524c29.491-7.102,27.365-124.638-1.705-122.495c-1.442-19.539,12.294-38.627,11.51-60.745
		c-1.223-34.495-10.51-15.274-29.102-35.151c-5.64-6.029-2.286-17.454-6.437-24.068c-3.587-5.716-12.872-11.709-15.055-15.438
		c-18.002-30.732-20.743-63.707-43.206-92.401c-20.284-25.912-54.164-57.484-52.107-93.368
		c2.396-41.72,78.501-21.313,101.001-21.671c126.998-2.021,254.351-33.034,381.17-27.405
		c71.313,3.165,142.307,12.737,213.718,14.836C5239.933,5.35,5232.437,6.369,5223.806,9"/>
	<path fill="#B90002" d="M5296.651-1c10.291,20.263,30.571,21.553,47.649,26.596c13.973,4.126,41.761,0.645,52.176,8.535
		c14.872,11.266,11.557,37.141,32.677,43.695c19.262,5.977,31.19-8.432,42.291,21.555c13.276,35.868-15.063,95.641,22.833,106.155
		c7.871,2.184,13.211-5.213,21.428-1.512c5.497,2.476,8.743,15.203,15.326,19.06c14.707,8.615,37.518-2.555,47.29,18.861
		c5.569,12.202,5.552,47.336,9.207,63.539c4.633,20.528,11.852,45.762,9.266,67.168c-38.901,36.269-47.693,75.73-58.379,131.473
		c-11.876,61.948-47.504,105.903-89.413,142.722c-22.478,19.747-159.418,104.13-136.731,150.955
		c7.781,16.063,44.232,4.915,55.202,3.318c47.189-6.868,94.021-15.558,141.51-19.271c45.414-3.551,91.103-3.565,136.556-1.111
		c38.085,2.056,74.028,0.637,112.553,0.586c29.114-0.038,49.845-8.778,41.387-49.24c-18.743-89.648-94.775-147.464-113.836-235.872
		c-6.176-28.642-12.987-60.618-17.193-89.703c-4.427-30.625,4.216-58.248,8.361-88.083c4.712-33.909,16.346-49.965,28.727-79.718
		c11.538-27.725,9.899-59.437,21.421-87.601c24.261-59.304,79.165-114.287,79.346-183.85
		c-54.818,20.598-121.913,13.826-178.848,15.796c-63.582,2.2-127.195,2.464-190.798,3.278
		c-40.889,0.523-101.941-7.625-140.006,18.67"/>
	<path fill="#B90002" d="M5468.651,611c-81.833,38.289-162.545,63.19-252.863,70.904c-92.492,7.899-179.326,50.695-272.497,48.666
		c-155.134-3.38-304.877,19.573-459.201-14.1c-136.904-29.871-279.767-92.833-422.327-76.82
		c-105.467,11.846-219.742,109.664-127.402,213.766c59.405,66.971,161.738,88.951,246.127,100.599
		c146.669,20.242,297.218,10.036,443.882-4.757c321.52-32.428,639.353-93.57,961.105-124.875
		c66.256-6.446,132.583-12.108,198.913-17.731c3.026-86.2-4.958-187.22,52.096-259.748c-37.313-15.104-95.381-0.921-133.704,3.553
		c-41.053,4.792-80.256,13.635-117.729,29.603c-35.013,14.919-85.911,28.354-124.399,32.941"/>
	<path fill="#C10000" d="M5037.237,744.08c21.44-0.714,34.885-17.473,56.775-17.772c2.648,6.037,5.391,11.983,8.655,17.89
		c-47.103,24.188-111.919,31.042-164.067,30.531c-32.259-0.315-64.588,0.982-96.853,1.325
		c-48.848,0.52-112.217,3.448-158.644-11.677c-28.152-9.171-72.279-27.638-55.12-63.568c8.165-1.026,16.16-2.352,24.212-0.787
		c1.089-14.914,10.583-11.05,15.444-17.419c5.936-7.777,7.706-11.203,9.664-22.342c1.812-10.313,1.329-14.296,5.63-23.227
		c3.605-7.483,11.396-9.445,12.237-21.494c11.769,24.876,3.036,57.869,6.309,84.815c59.141,2.01,3.688-76.056,32.51-84.031
		c0.551-11.993-2.372-24.655,7.35-32.627c15.109,23.475,24.449,50.271,34.11,76.247c17.478,46.989,41.779,2.679,23.52-1.582
		c4.245-41.942,28.98,32.72,30.974,34.299c29.52,23.388,11.478-29.72,7.942-40.153c-9.228-27.23-29.531-44.008-49.997-64.041
		c-24.049-23.539-30.92-43.79-36.884-77.021c-3.419-19.055-15.386-59.832-2.054-75.862c4.056,35.46,4.441,90.664,29.221,114.519
		c26.649,25.654,49.813,57.496,71.037,89.716c13.809,20.963,16.246,42.508,25.809,64.882c-4.627,0.962-9.088,5.175-14.546,5.104
		c-2.051,23.366,6.088,18.901,23.511,15.01c0.727,31.536,62.035,16.23,81.252,14.81c15.909-1.176,28.342,4.027,43.475,4.931
		c12.969,0.774,25.892-4.343,39.026-6.474"/>
	<path fill="#B20000" d="M4662.255,178.608c0.313,14.429,3.834,28.865,4.722,43.266c22.882-8.862,23.734,8.251,30.295,22.527
		c5.264,11.454,11.091,13.537,12.769,28.787c1.88,17.089-2.368,35.437,3.594,51.877c3.698-6.682,9.906-10.88,17.391-11.69
		c0.625-14.8-6.247-45.276,0.255-58.179c4.705-9.336,15.261-8.745,19.41-19.35c7.873-20.125-12.838-76.539,19.333-82.964
		c-0.535-20.586,6.299-69.501-14.49-78.696c-17.625-7.796-48.78,5.378-69.234,1.033c-13.355-2.836-27.232-7.422-40.244-11.687
		c-8.985,29.227-12.832,49.77,1.333,74.786c7.981,14.096,20.823,29.298,17.867,46.289"/>
	<path fill="#B20000" d="M4716.253,345.1c-3.518,2.71-5.787,7.739-8.85,10.868c15.394,12.286,8.046,79.44,7.577,98.512
		c33.468-6.002-5.583-69.057,22.051-75.104c0.364-10.276-1.792-24.572,3.037-31.605c-6.399-3.967-14.68-4.503-22.314-7.171"/>
	<path fill="#BB0000" d="M4695.254,504.092c0,12.893,0.258,25.93-0.227,38.736c-6.899,1.145-13.483,3.586-19.414,7.236
		c1.907-6.057,0.02-76.583,19.641-47.472"/>
	<path fill="#CA0000" d="M4694.651,769c0.766-6.285,3.952-10.725,4.349-17.651c15.002-7.638,29.546,2.289,43.382-2.436
		c19.205-6.559,7.666-16.264,29.38-13.103c-0.416-0.061,8.47,9.812,16.651,11.205c6.914,1.177,17.708-3.121,24.231-4.682
		c14.782-3.535,34.301-5.17,30.309-23.046c14.369-9.305,20.092-16.759,39.396-12.591c-1.798-30.124-34.304-67.473-45.84-96.95
		c24.092,21.484,36.44,49.684,49.607,78.343c5.996,13.051,11.579,35.571,20.013,44.884c7.783,8.594,29.878,14.585,41.373,21.917
		c13.056,8.327,28.429,18.795,38.943,31.711c-18.1-1.337-35.108,5.484-52.332,8.21c-22.021,3.483-39.512-1.172-61.1-3.189
		c-45.137-4.218-89.78,7.128-135.808,3.276c-34.867-2.918-23.715-6.145-42.555-29.898"/>
	<path fill="#CA0000" d="M5014.651,745c62.378,13.205,123.461-31.946,187.246-13.943c-29.802,8.132-60.451,7.255-90.949,15.313
		c-30.189,7.976-60.345,16.558-91.602,10.139c-16.318-3.351-36.777-10.827-52.535-17.063c18.29,1.479,40.226-0.646,57.84,3.555"/>
	<path fill="#B20000" d="M4674.651,529c0.053-14.013-1.237-26.954,4.342-39.705c21.264-3.767,32.992-40.629,33.658-59.691
		c-0.147,44.65-22.083,67.317-34,105.396"/>
	<path fill="#DD0303" d="M4878.651,203c-43.227,44.02-50.037,110.733-93.299,152.246c48.636-35.153,52.566-104.794,87.299-146.246"
		/>
	<path fill="#DD0303" d="M5588.651,395c-16.3,21.631-28.606,50.471-26.084,78.119c2.807,30.785,29.733,51.93,26.057,83.859
		c-2.595,22.536-8.954,25.002-29.624,33.767c0.777-8.132-1.424-17.276-0.651-25.441c-1.412-0.846-11.545-5.528-11.641-5.563
		c-17.979,24.576-34.092,49.32-63.303,62.957c20.066-22.129,39.994-43.877,52.874-71.035c15.251-32.16,14.048-63.243,22.097-96.487
		c4.059-16.763,10.223-35.238,24.275-46.175"/>
	<path fill="#C40000" d="M5596.651,271c0,11.885-0.137,23.908,0.295,35.69c-0.633,0.503,5.978,0.308,5.417,0.007
		c1.349-1.127-0.48-4.078,0.576-5.499c-0.22-0.191,6.112,1.763,5.417,2.213c0.51,20.244-2.943,38.451-1.41,59.278
		c3.774,1.325,4.497-1.378,7.196-1.491c2.019,2.556,1.175,7.769,2.804,9.499c2.924-0.204,8.638-0.362,11.402,0.604
		c-0.409,7.45,1.859,17.922,1.812,23.538c6.301-21.802-3.169-33.255-5.958-51.331c-2.696-17.477,7.046-33.709-1.839-48.222
		c-24.282-7.982-16.378-60.541-45.402-70.089c3.638,18.271,13.529,37.814,19.69,55.801"/>
	<path fill="#B20000" d="M4621.757,699.083c-0.231-37.881,16.644-49.357,35.643-79.263c8.637-13.596,9.605-25.011,11.284-40.741
		c0.671-6.292,3.284-12.441,3.432-17.599c0.151-5.273-6.178-10.885-2.618-19.354c-5.235,11.834-19.887,20.581-22.443,28.566
		c-3.859,12.053,8.441,20.896,1.544,34.571c-11.343,22.495-40.449,27.583-50.341,54.208c-6.195,16.676-7.023,33.676-6.273,51.383
		c21.066-1.727,31.421,5.074,50.312-9.762c16.09-12.638,28.703-31.489,25.731-52.556c-9.487,8.722-14.141,22.548-22.618,30.763
		c-7.437,7.205-17.513,10.141-23.653,18.282"/>
	<path fill="#B20000" d="M4779.25,778.579c-33.918-6.342-35.951-40.296-53.987-61.438c-9.386-11.004-22.719-7.521-31.443-21.316
		c-6.646-10.508-6.947-29.233-7.864-41.585c-5.411,10.702-8.886,24.465-15.446,34.314c-8.15,12.237-21.31,12.082-29.304,22.144
		c-9.548,12.019-7.176,52.371-0.994,65.556c10.48,22.352,42.953,20.928,65.076,22.313c28.281,1.77,53.363-2.563,80.106-10.992
		c-4.814-6.112-10.992-10.979-18.144-13.494"/>
	<path fill="#B20000" d="M5685.204,189.108c-7.602,33.489-33.271,60.912-29.822,93.673c3.223,30.605,0.233,61.708-10.342,91.864
		c-1.788-8.315-2.984-17.792-5.995-24.92c-3.46,17.72,27.257,78.224-19.646,63.099c4.679,10.546,14.523,16.902,18.627,28.359
		c6.985,19.507-2.992,25.939-9.519,42.599c-11.318,28.895-9.269,66.368-16.239,97.021c22.095-18.859,59.659-29.638,87.742-33.439
		c-48.302-80.201-58.04-197.6-23.965-285.636c9.887-25.542,30.557-48.237,25.431-76.892c-13.164-2.146-18.986,9.555-20.772,20.772"
		/>
	<path fill="#BB0003" d="M3844.065,792.504c-10.76-17.167-32.462-29.674-44.957-46.99c-27.398-37.971-20.13-52.798-16.984-93.915
		c4.605-60.201-34.26-32.336-54.817-75.896c-14.181-30.049-9.208-72.514,5.609-98.512c20.183-35.409,57.757-54.838,81.153-85.337
		c22.181-28.914,40.017-61.914,61.768-92.291c18.857-26.335,34.541-62.764,32.293-95.949c-1.054-15.547-13.573-24.208-11.521-46.583
		c3.398-37.065,30.222-69.374,49.626-100.271l-9.001,3c17.109-51.708,68.525-77.083-1.03-115.177
		c-66.175-36.243-165.239,13.405-240.479,5.4c-41.264-4.39-171.171-36.34-204.563,10.237c-14.219-21.158-63.731-20.566-102.1-22.943
		c-122.117-7.564-248.099,10.861-371.58,6.221c-6.282-0.236-12.582-0.413-18.889-0.559c0.2,5.309,0.362,10.619,0.52,15.929
		c7.959,11.433,15.554,23.134,22.518,35.167c3.224,5.572,6.191,11.293,8.821,17.17c11.479,25.644,21.081,52.405,28.539,79.503
		c2.845,10.335,5.165,20.815,6.927,31.39c4.385,26.312,7.272,53.212,8.75,79.738c8.379,22.58,16.761,45.545,22.741,68.77
		c2.613,10.149,4.57,20.346,6.146,30.59c15.048,13.145,27.691,28.088,36.781,44.763c16.118,29.571,10.059,63.883,23.479,94.044
		c13.02,29.254,27.998,38.308,26.184,70.946c-3.663,65.906-22.32,128.109-31.785,193.42c22.681,2.367,25.463,18.101,45.18,27.98
		c3.341,25.48-17.188,31.987-26.257,53.275c-7.685,18.039-6.009,40.212-8.263,59.759c2.617,1.706,6.869-0.912,8.85,0.229
		c-16.543,43.363-52.945,72.132-62.984,118.633c-9.284,43.008-8.123,82.982-27.905,124.163
		c109.842,3.629,213.646,12.508,323.522,9.001c-14.75-39.413-19.19-78.79-28.072-119.473
		c-8.314-38.083-35.248-71.089-44.426-107.192c-19.117-75.197,41.029-130.869-35.754-196.917
		c-37.399-32.169-66.03-35.48-49.893-84.599c11.832-36.016,44.535-62.495,66.28-94.252c52.898-77.253,50.512-121.333,46.547-206.142
		c-1.675-35.813,17.921-61.147,32.666-93.537c27.887-61.262,74.208-129.385,92.286-195.254
		c14.653,30.577,54.269,64.461,64.52,87.565c18.471,41.625,44.223,67.464,65.145,106.651c22.251,9.192,45.316,57.933,41.074,82.095
		c-3.66,20.835-24.398,35.229-33.007,54.16c-16.16,35.539-6.083,17.478,2.497,41.021c10.625,29.149,25.993,46.005,33.58,75.529
		c7.387,28.75,6.733,59.416,8.504,89.102c3.978,66.673-15.32,141.174-4.633,205.49c12.407,74.662,18.293,108.061-23.281,174.627
		c-17.905,28.668-21.645,39.111-19.838,73.891c1.848,35.58-12.768,64.968-10.896,98.304c59.525,3.769,118.233,5.867,178.041,9.377
		c25.404,1.49,50.111,7.633,74.279,6.731c29.036-1.082,65.633,5.487,94.807,1.824c3.436-83.981-60.841-185.054-96.791-254.238
		C3854.065,833.072,3855.425,810.627,3844.065,792.504z"/>
</g>
</svg>
