<?xml version="1.0" encoding="utf-8"?>
<!-- Generator: Adobe Illustrator 16.0.0, SVG Export Plug-In . SVG Version: 6.00 Build 0)  -->
<!DOCTYPE svg PUBLIC "-//W3C//DTD SVG 1.0//EN" "http://www.w3.org/TR/2001/REC-SVG-20010904/DTD/svg10.dtd">
<svg version="1.0" xmlns="http://www.w3.org/2000/svg" xmlns:xlink="http://www.w3.org/1999/xlink" x="0px" y="0px"
	 width="5893.651px" height="1080px" viewBox="0 0 5893.651 1080" enable-background="new 0 0 5893.651 1080" xml:space="preserve">
<g id="EX_x5F_Foreground">
	<path fill="#B2B2B2" d="M5922.651,805c-81.74,29.083-176.991,1.954-261.651,16.303c-9.142,19.586-4.573,44.329-13.246,63.399
		c-13.753,30.243-37.359,20.095-64.702,29.682c-31.538,11.058-12.894,25.176-26.701,47.595
		c-12.958,21.039-46.324,18.034-69.68,19.902c-24.784,1.983-48.673,1.531-73.717,0.816c-1.134-28.105,3.813-27.438-21.675-33.607
		c-15.27-3.697-35.181-4.047-51.212-6.154c-29.355-3.86-57.433-2.213-87.121-1.633c-7.851,24.421,5.558,56.565-8.472,77.336
		c-15.237,22.558-51.736,29.252-69.627,52.582c-11.967,15.604-28.255,62.202-10.404,79.702c8.698,8.527,29.65,4.376,40.232,4.156
		c50.286-1.044,100.571-6.147,150.836-8.188c104.179-4.229,206.772-1.333,309.874,14.214c64.694,9.755,129.281,7.065,194.027,14
		c29.038,3.11,54.668,13.953,82.936,19.678c-14.504-85.685-33.799-168.015-34.086-256.193c-0.14-42.629,31.028-92.022,10.389-133.59
		"/>
	<path fill="#B2B2B2" d="M4336.651,1101c0,0-34-48-46-96s-20-182-20-182l-24,8c0,0-38-90-40-164s-68-94-70-188s6-238,98-338s158-118,246-138
		s88-56,88-56c-178.869,1.667-357.739,3.795-536.611,4.961c-32.434,0.211-68.689-3.661-100.296,2.875
		c16.554,37.6,46.919,68.111,61.621,108.728c15.049,41.577,22.903,86.102,20.618,130.355
		c-4.222,81.737,31.458,159.474,28.413,241.111c-3.039,81.477-20.453,165.917-45.537,243.809
		c-17.438,54.154-38.911,115.745-48.724,171.449c-10.853,61.604,1.72,121.253,2.198,182.766c0.176,22.648,0.186,45.3,0.32,67.946
		H4336.651z"/>
	<path fill="#F3B2B2" d="M4116.651,423c2.508,0.481,5.165-0.134,7.698,0.302c1.349,36.76-8.332,79.584,0.298,114.824
		c7.296,29.792,35.832,49.165,44.716,87.217c5.492,23.522,3.79,41.657,2.082,65.401c10.505-1.838,15.302-10.764,15.207-20.029
		c7.906,28.408,2.296,64.956,8.058,94.485c5.709,29.257,28.561,48.538,26.244,81.505c15.284,3.34,27.805,12.964,41.349,20.644
		c3.656,82.34,4.094,185.949,47.647,259.349c-43.723-18.758-60.098-80.703-69.236-125.649
		c-9.419-46.329-24.137-82.974-40.561-126.566c-22.466-59.633-29.221-125.974-43.049-186.893
		c-5.669-24.977,3.628-50.54-2.455-75.416c-6.121-25.029-29.619-32.841-37.481-55.368c-7.805-22.36,0.441-57.377-0.213-81.035
		c-0.521-18.839-15.133-54.412-0.146-68.023c2.254,5.752,5.599,7.592,7.843,13.253"/>
	<path fill="#F2BDB2" d="M4152.651,255c-3.031-33.5,28.224-54.352,31.801-83.594c-4.679,0.701-10.943-1.729-15.602-0.708
		c0.034-18.428,39.53-48.062,52.191-63.019c18.765-22.165,38.155-34.126,62.995-48.149c55.749-31.472,100.428-64.393,165.402-70.736
		c10.626-1.038,33.894-0.925,42.914-7.03c9.983-6.758,13.157-25.452,24.093-34.262c-19.526-8.824-25.939,2.855-42.421,8.711
		c-19.991,7.103-40.981,5.978-61.066,12.713c-44.383,14.885-87.706,35.256-127.07,60.66c-34.925,22.538-81.296,41.781-106.291,76.19
		c-5.307,7.306-29.955,36.346-30.972,43.093c-1.837,12.186,11.349,17.662,9.84,31.83c-1.351,12.68-13.303,30.158-15.627,45.426
		c-2.4,15.77-4.256,30.508-3.884,46.572c17.083,1.38,14.893-19.029,17.698-31.698"/>
	<path fill="#F3B2B2" d="M4104.651,881c2.031-1.977,2.705-4.555,5.602-5.794c1.814,15.308,0.355,31.86-5.402,45.381
		c3.429-0.337,6.075-0.477,9.545-1.342c-0.2,18.348-23.532,25.168-15.049,42.271c6.762,13.635,29.992,7.155,40.344,14.183
		c25.698,17.446,19.728,83.962,29.15,114.593c-35.76-30.826-10.129-76.294-55.799-101.245
		c-12.709-6.943-35.775-12.655-36.574-29.751c-0.513-10.983,15.745-31.437,17.973-45.319c3.004-18.717-0.979-43.135,24.211-46.977"
		/>
	<path fill="#F3B2B2" d="M5202.651,1133c-7.805-37.829,20.228-53.335,36.644-83.511c17.42-32.022,20.073-55.923,21.755-92.329
		c8.044,17.65,13.525,30.592,15.904,51.537c23.487,0.838,52.815-3.592,71.879,0.199c-26.341,14.555-62.398-1.626-85.188,15.39
		c-13.362,9.977-43.004,61.843-19.288,67.009c0.46,1.001-0.326,4.779,0.59,5.363c9.079,3.479,18.887,2.978,27.402-1.355
		c-6.153,14.773-22.406,7.436-34.12,13.496c-13.743,7.111-9.725,21.13-31.577,22.201"/>
	<path fill="#F3B2B2" d="M5442.651,1005c38.645,0,83.988,3.642,119.651-8.349c0.488-11.516-1.21-24.528,1.731-35.59
		c3.029-11.391,12.833-14.216,12.92-27.713c10.099-2.758,20.969-3.27,31.491-1.943c-12.053,13.083-40.8,55.574-6.05,60
		c0.338,2.794-0.874,12.341-2.054,15.292c-27.013,4.718-54.423,2.649-81.642,7.169c-22.1,3.669-54.766,15.298-66.049-10.866"/>
	<g>
		<path fill="#B2B2B2" d="M4041.992,1005.083c2.806-34.084,39.349-101.376,25.421-132.627c-11-24.679-30.602-16.606-55.77-18.441
			c-58.287-4.248-89.729-8.344-140.789,27.408c-42.059,29.449-61.041,54.813-112.033,68.477
			c-58.375,15.642-96.909-9.911-129.041-57.206c-24.504-36.065-58.154-93.571-67.98-136.347c-7.145-31.099-3.17-61.259-10.34-90.525
			c33.502-46.065,73.092-102.614,113.889-141.844c39.825-38.296,119.984-57.017,113.995-113.728
			c-2.872-27.199-8.687-33.249-5.687-61.997c2.822-27.047,6.956-53.037,13.204-79.474c11.007-46.573,21.309-97.924,48.767-137.921
			c16.588-24.162,27.535-27.372,52.113-39.799c54.418-27.517,67.947-46.032,100.498-103.305l-15.002,9
			c2.494-15.187,4.115-29,2.547-44.481c-25.082-14.47-71.373,5.812-99.541,7.83c-38.801,2.78-88.959-12.295-124.168-6.132
			c-36.605,6.408-40.175,41.882-56.404,69.115c-20.528,34.443-41.813,59.796-45.407,102.378
			c-2.599,30.786,9.665,59.685,6.352,90.526c-3.753,6.241-15.206,14.591-22.188,16.367c-27.505-12.406-8.161-29.737-14.283-51.153
			c-6.908-24.167-18.491-30.158-34.787-47.687c-52.426-56.395-82.868-139.421-140.55-188.251
			c-37.706-31.919-63.1-9.786-112.572-3.524c-49.972,6.325-95.433-1.604-144.159,16.008
			c10.034,67.619,98.373,129.329,151.972,161.732c65.035,39.317,99.088,103.703,144.014,163.03
			c16.723,22.082,42.605,45.858,51.742,72.351c10.967,31.798-3.344,62.057-4.047,94.453c-0.792,36.509,6.517,59.776-9.873,94.173
			c-17.548,36.825-51.534,66.021-65.994,104.297c-13.283,35.162-3.705,71.629-24.694,104.586
			c-28.677,45.025-55.54,56.528-52.472,117.23c-28.669-5.049-44.888-18.502-73.726-17.812c-21.774,0.521-55.206,5.335-76.871,10.167
			c-46.25,10.313-25.78,16.019-56.618-6.585c-14.154-10.376-29.588-14.349-37.764-33.071c-0.961,20.621,4.623,54.584-8.969,73.421
			c-7.642,10.59-21.051,17.135-37.403,21.035c-20.797-37.547-40.919-75.323-41.751-115.458c-6.006,0.938-14.025-1.928-20.025-0.918
			c-0.748-54.226-35.139-28.686-60.131-51.199c-18.842-16.975-12.935-57.481-11.043-77.612c1.303-13.869,8.086-23.762,7.929-38.127
			c-0.162-14.83-11.402-31.602-9.905-49.229c2.315-27.273,15.4-44.632,28.451-68.662c20.07-36.951,59.779-116.708,43.145-159.114
			c-8.357-21.306-29.778-29.306-37.822-52.387c-9.436-27.074-18.251-60.296-26.926-87.666
			c-17.375-54.816,1.734-126.77-3.158-184.623c0-5.837,0-42.007,0-72.151c-150.356-2.988-298.703-5.178-448.444-23.728
			c-58.935-7.301-118.701-6.804-178.225-12.001c7.465-4.301,15.021-8.749,22.69-13.457
			c-81.989-21.765-176.177-60.095-258.848-57.672c-79.667,2.334-160.005,4.127-238.146-9.001
			c-103.971-17.467-1794.024-16.557-1891.28-0.027C-64.148-38.552-68.136,146.956-60.289,267.559
			c11.742,180.457,20.333,359.776,20.945,540.676c0.223,66.1-23.029,332.487,46.321,376.648
			c43.828,27.909,1713.073-5.711,1758.874-13.357c92.844-15.5,190.059-4.389,284.685-16.794
			c148.206-19.431,301.483-95.547,451.303-97.428c26.498,14.958,59.047,23.646,93.545,28.657c0.452,5.904,0.925,11.741,1.237,17.38
			c33.116,9.027,68.398,6.371,103.192,3.54c28.161-2.291,55.857-8.078,83.493-14.359c5.571,0.076,10.907,0.202,15.963,0.4
			c107.424,4.221,215.514-11.625,322.566,2.367c110.798,14.481,208.08-1.681,319.76-8.403
			c103.383-6.223,197.741,30.254,297.814,39.72c55.735,5.271,110.478,9.781,166.297,12.473
			c39.373,1.898,108.342,19.716,132.988-23.01C4054.55,1088.568,4039.477,1035.635,4041.992,1005.083z M2181.29,14.907
			c6.337-6.546,13.831-11.173,21.629-15.393l-37.199,42.16C2171.001,32.767,2173.508,22.946,2181.29,14.907z M2308.812,701.087
			c-89.962-39.26-162.424-81.793-161.422-190.489c0.318-34.485,21.859-91.333-5.763-115.487
			c-16.212-14.177-35.817,0.444-53.013-21.556c-11.025-14.105-15.491-49.057-17.997-66.011
			c-15.008-101.545,71.986-225.608,139.438-311.793c0.74-0.385,1.479-0.771,2.219-1.158c31.903,12.566,66.04,20.157,100.661,29.824
			c77.229,21.564,132.12,60.347,196.748,105.371c85.534,59.587,182.634,65.486,243.662,155.663
			c23.699,35.019,47.212,70.323,58.725,111.379c10.946,39.032,13.037,72.688,36.314,107.485
			c22.077,33.005,52.396,53.675,45.194,97.089c-7.085,42.709-42.5,76.528-49.384,121.109c-6.293,40.759,8.995,89.902-15.138,126.62
			c-9.348,14.223-22.103,23.372-36.561,29.237c-35.308-42.476-70.676-85.342-110.197-125.311
			c5.606,42.289,58.787,120.899,10.056,142.997c-24.127,10.941-66.628-3.698-93.045-1.797c-19.496,1.402-38.5,6.205-57.758,9.498
			c-2.783-2.071-5.452-4.361-7.935-7.046c-13.941-15.07-14.654-39.494-27.521-55.683c-26.727-33.624-69.067-27.039-100.82-54.234
			C2369.113,755.824,2354.383,720.975,2308.812,701.087z"/>
		<path fill="#B2B2B2" d="M2956.136-81.254c0,4.902,0,21.654,0,40.863c0.368,0.007,0.737,0.015,1.105,0.022L2956.136-81.254z"/>
		<path fill="#B2B2B2" d="M3099.83-32.699c-33.146,8.353-71.615-6.176-105.396-6.904c-12.414-0.268-24.81-0.519-37.194-0.766l1.895,70.126
			C2974.398-23.389,3065.532-0.725,3099.83-32.699z"/>
	</g>
</g>
</svg>
