<?xml version="1.0" encoding="utf-8"?>
<!-- Generator: Adobe Illustrator 16.0.0, SVG Export Plug-In . SVG Version: 6.00 Build 0)  -->
<!DOCTYPE svg PUBLIC "-//W3C//DTD SVG 1.0//EN" "http://www.w3.org/TR/2001/REC-SVG-20010904/DTD/svg10.dtd">
<svg version="1.0" xmlns="http://www.w3.org/2000/svg" xmlns:xlink="http://www.w3.org/1999/xlink" x="0px" y="0px"
	 width="5893.651px" height="1080px" viewBox="0 0 5893.651 1080" enable-background="new 0 0 5893.651 1080" xml:space="preserve">
<g id="BG_x5F_ORange">
	<rect x="3971.152" y="2.235" fill="#FF4E17" width="1922.807" height="1077.764"/>
	<path fill="#F24416" d="M5102.651,473c19.061,1.499,51.952-13.798,75.907-16.383c18.093-1.952,55.465-50.94,66.093-63.617
		c8.11,7.892,28.857-10.311,34,0c0.399-12.617-4.091,71.987-1.651,60.349c43.728-12.202,106.114-78.914,106.05,7.538
		c3.563-6.841,8.671-15.385,11.993-23.577c24.256,0.847,39.799,76.506,51.293,89.69c16.163,18.54,30.422,3.021,13.077,30.143
		c30.882-12.835,34.276,9.037,54.205,24.332c20.022,15.365,45.272,15.012,63.66,34.536c18.324,19.458,28.94-95.191,42.588-72.399
		c25.204,42.089,51.918,82.841,71.525,128.001c28.965,66.715,49.571,137.778,63.622,209.078
		c60.946-0.886,144.447,2.965,177.746-59.493c45.669-85.659,8.831-223.681,0.91-314.146
		c-12.024-137.347-16.801-275.458,4.283-412.187c7.563-49.041,47.479-139.237-17.662-160.666
		c-44.351-14.589-99.616-10.084-145.501-11.16c-89.327-2.094-178.714-2.496-268.062-2.546
		c-240.269-0.136-480.235,8.208-720.397,13.87c-195.274,4.605-388.938,1.442-582.899-22.95
		c-84.933-10.681-173.555-46.43-219.219,52.36c-28.812,62.332-26.415,140.847-25.954,207.801
		c0.645,93.487,7.664,186.876,14.087,280.101c7.674,111.366,18.291,223.598,7.033,335.063
		c272.676-35.426,505.739-48.478,779.575-72.895c27.388-2.441,54.386-5.977,81.395-11.146c6.117-22.196-8.668-59.276,6.206-75.943
		c3.845,2.425,8.532,2.398,11.69,3.937c10.444-44.837,26.027-114.302,60.797-147.388c21.32,7.936,25.44,30.222,35.156,47.634
		c-0.179-16.608-3.354-33.005-3.192-49.581c11.271-4.047,20.841-11.385,26.043-22.196c17.516,12.831,21.635,90.74,35.156,105.635
		c8.475-19.631,3.748-35.466,4.609-55.795c0.975-22.994,7.43-29.966,19.553-48.919c15.405-24.083,54.263,13.707,86.283,10.919"/>
</g>
<g id="Roof_x5F_04">
	<path fill="#D83D13" d="M4928.651,655c-23.91-11.731-24.787-56.55-21.063-78.713c5.333-31.741,25.443-37.818,45.761-58.03
		c32.668-32.498,64.42-68.024,95.373-101.965c14.979-16.425,21.08-28.565,42.029-39.007c7.544-3.76,24.51-4.396,29.443-12.04
		c9.059-14.036-3.257-12.015-2.968-24.443c0.357-15.359-8.04-7.682,4.015-22.314c8.923-10.83,28.991-9.877,38.678-22.353
		c5.415-6.974-1.361-15.83,5.797-23.323c13.938-14.592,50.982-15.215,69.336-19.35c29.824-6.72,57.803-20.018,87.924-24.562
		c23.018-3.473,46.263-0.786,69.327-3.551c10.516,39.424,57.8,3.614,80.568-0.497c23.627-4.266,72.208-3.688,95.563,4.637
		c13.558,4.833,20.242,16.921,33.947,21.93c25.784,9.423,45.584-1.348,69.481,17.182c30.094,23.334,50.289,33.62,86.277,48.652
		c39.567,16.527,46.102,43.189,63.266,79.185c26.563,55.71,75.364,105.125,97.659,161.887
		c56.15-138.767,41.828-258.738,15.34-403.03c-11.729-63.891-17.193-128.817-28.99-192.583
		c-9.192-49.688-28.573-79.668-78.599-94.768c-88.807-26.805-192.497-19.982-284.017-21.168
		c-136.013-1.762-272.105-1.433-408.118,0.228c-219.136,2.677-435.316,19.865-653.118,42.702
		c-179.936,18.867-358.595,39.803-539.356,24.21c6.824,136.896,20.695,273.158,28.904,409.932
		c4.835,80.573,5.987,161.405-1.067,241.886c-5.204,59.362-21.181,118.704-23.668,178.107
		c-4.203,100.381,149.38,51.027,210.955,45.589c149.127-13.17,298.763-18.887,447.741-33.979
		c114.579-11.607,229.946-32.728,345.278-34.753c0.771-11.609-20.81-67.182-27.697-69.697"/>
</g>
<g id="BGROCKS">
	<g id="Layer_12">
		<path fill="#28010D" d="M5308.651,615c-10.604-30.359-34.664-27.951-46.743-56.586c-7.099-16.826-10.136-21.667-4.523-40.762
			c1.857-6.321,11.326-5.639,12.888-12.741c1.387-6.308-5.086-14.467-5.361-21.082c-0.812-19.542,7.231-38.071,5.438-56.669
			c-17.655,15.549-18.255,26.684-23.707,47.839c-4.169,16.179-13.406,27.93-18.118,44.063c-5.083,17.4-2.66,28.764-11.833,45.939
			c-1.829,3.424-11.558,12.134-14.269,15.873c-4.958,6.842,7.068,14.778-11.468,16.475c0.153,3.022,0.268,5.828,0.369,8.433
			c-4.531-0.602-9.65-0.813-12.323-0.433c-4.153,13.021-15.969,15.729-22.69,3.946c-18.818,1.649-39.089-3.527-59.303-3.992
			c-1.038,3.045-2.019,6.254-2.704,9.395c-19.411,4.018-27.558,0.704-44.665-8.669c-5.287-2.896-17.191-7.134-21.167-8.929
			c-6.466-2.919-0.053-15.223-17.471-11.751c-4.611,9.631,0.591,23.156-5.304,29.85c-2.971,3.373-8.961,5.106-15.316,6.402
			c-3.006-15.171-7.871-26.244-7.621-44.766c0.3-22.161,1.764-46.598,5.59-68.432c-4.08,0.53-9.348-1.404-13.395-0.677
			c4.506-30.045,10.549-71.034,7.395-102.36c-5.576-1.368-14.299-0.268-19.395,2.232c2.305,18.883-4.131,62.368-16,75.388
			c16.299,10.191,11.412,52.882,8.135,71.439c-0.926-5.696-3.096-10.871-4.381-16.449c-1.788,7.965-6.921,16.173-8.179,24.215
			c-1.783,11.397,4.719,17.229,1.3,28.735c-9.487,31.932-24.958,17.514-46.979,19.835c4.143-15.465,11.862-50.477-7.851-53.802
			c-2.121-7.716-7.095-15.724-8.452-23.463c-1.131,11.267-2.834,21.016-3.594,32.416c3.996,0.471,7.339,2.706,11.396,2.961
			c7.885,54.115-42.801,57.019-43.698,98.227l2-6.72c10.668,17.894,41.743,7.939,58.273,5.373c9.61-1.491,20.987-7.161,30.552-6.763
			c11.9,0.497,22.184,11.272,32.991,11.719c17.028,0.703,24.045-7.038,24.276-25.385c12.298-0.481,25.497-3.068,36.253-2.922
			c21.188,0.288,44.944,3.766,66,0.641c23.137-3.434,39.701-10.144,63.464-9.96c13.108,0.102,28.024,2.02,36.244-2.29
			c3.997,7.306,13.471,8.347,37.438,8.295c16.873-0.036,78.114,9.035,72.509-20.088L5308.651,615z"/>
		<path d="M5270.121,505.403c0.048-0.167,0.112-0.316,0.151-0.492c0.261-1.185,0.243-2.436,0.042-3.729
			c-0.157,0.443-0.309,0.886-0.473,1.329C5269.972,503.477,5270.062,504.441,5270.121,505.403z"/>
		<path fill="#4C031E" d="M5306.177,608.979c-17.387,4.196-36.165,2.693-53.504-0.479c-9.942-1.819-19.865-4.489-29.433-8.068
			c-3.866,0.727-7.729,1.468-11.592,2.211c-1.743,0.335-3.486,0.669-5.229,1.004c-10.472,3.91-20.953,7.775-32.016,9.71
			c-3.852,3.886-8.909,4.58-13.297,1.472c-9.832,0.583-19.653,0.358-29.538,1.351c-0.463,0.047-3.204,0.367-3.219,0.357
			c-0.958,0.122-1.916,0.24-2.872,0.372c-3.117,0.429-6.23,0.879-9.343,1.339c-7.248,1.069-14.496,2.074-21.778,2.89
			c-12.994,1.455-25.878,1.597-38.739-1.141c-8.561-1.821-16.417-5.122-23.706-9.489c-24.335,17.85-58.381,22.322-87.478,24.361
			c-18.95,1.328-38.067,1.215-56.979-0.657c-8.357-0.827-16.878-1.811-25.274-3.36c-9.146,9.79-17.177,20.065-17.529,36.248l2-6.72
			c10.668,17.894,41.743,7.939,58.273,5.373c9.61-1.491,20.987-7.161,30.552-6.763c11.9,0.497,22.184,11.272,32.991,11.719
			c17.028,0.703,24.045-7.038,24.276-25.385c12.298-0.481,25.497-3.068,36.253-2.922c21.188,0.288,44.944,3.766,66,0.641
			c23.137-3.434,39.701-10.144,63.464-9.96c13.108,0.102,28.024,2.02,36.244-2.29c3.997,7.306,13.471,8.347,37.438,8.295
			c16.873-0.036,78.114,9.035,72.509-20.088l4-4C5307.894,612.83,5307.063,610.837,5306.177,608.979z"/>
		<path d="M4980.863,463.622c0.48-4.523,0.909-9.076,1.266-13.618c-0.959,4.217-1.942,8.428-2.979,12.626
			C4979.738,462.924,4980.307,463.262,4980.863,463.622z"/>
	</g>
	<path fill="#D80000" d="M3895.37,677.833c124.969-52,914.923-28.669,1045.6-36.687c118.76-7.286,237.144-13.598,356.188-18.205
		c75.809-2.934,525.83-10.746,596.493,21.889c-35.618,50.778-486.892,57.665-544.521,70.875
		c-88.137,20.203-177.903,23.133-267.386,34.843c-127.526,16.689-368.13,336.099-460.302,227.315
		c-17.824-21.038-669.271-136.867-702.071-138.014"/>
	<g id="Layer_11_copy">
		<path fill="#8E0C0C" d="M4853.611,737.363c18.406-35.977,57.238-53.494,94.552-62.89c42.182-10.622,85.24-18.851,128.418-24.007
			c17.152-2.049,34.316-3.526,51.486-4.526c25.147-4.041,50.44-7.024,75.727-8.742c53.768-3.653,107.865-1.491,161.576-5.725
			c17.006-2.724,34.088-4.969,51.281-6.474c11.809-1.034,22.19,7.461,26.663,17.992c2.578-0.918,5.157-1.836,7.729-2.773
			c13.937-5.078,27.793-10.383,41.531-15.979c1.904-0.775,3.802-1.569,5.702-2.353c-59.395-15.42-127.271-4.396-186.682-1.946
			c-111.739,4.607-222.858,10.919-334.328,18.205c-78.576,5.136-1004.729,30.66-1081.896,36.687
			c23.609,6.626,9.271,143.492,24.002,162.017c18.508,23.272,756.543,144.306,777.079,156.016
			C4696.988,991.306,4852.842,738.865,4853.611,737.363z"/>
		<path fill="#8E0C0C" d="M4654.447,821.848"/>
		<path fill="#8E0C0C" d="M3754.357,689.835"/>
	</g>
</g>
<g id="Roof_x5F_03">
	<path fill="#AF2F12" d="M4688.651,703c13.27-64.115,60.747-149.753,121.188-178.007c-6.43-1.784-12.104-7.234-18.989-8.445
		c19.305-20.618,42.624-45.596,46.246-1.658c8.039-12.982,0.144-22.658,3.719-34.649c5.248-17.6,16.812-21.729,26.398-36.177
		c16.654-25.096,23.848-57.811,49.431-78.812c12.052,20.141,24.224,26.046,27.903,51.182c4.93-19.562,0.297-44.7,10.488-63.396
		c12.68-23.262,42.847-31.645,62.688-49.193c36.849-32.59,43.378-70.291,93.023-88.639c13.856,18.28,17.56,38.724,26.355,59.634
		c12.399-15.021,41.531-35.108,39.851-57.492c13.79-3.817,29.076-2.564,43.402-2.053c8.369,26.709,21.484,54.132,26.851,81.139
		c6.179-73.594,14.691-133.809,102.429-133.96c36.307-0.063,67.003-3.403,102.976-7.127c29.591-3.064,21.558,6.791,43.28,20.462
		c17.088,10.756,36.722,4.593,54.997,11.026c58.015,20.424,25.96,67.49,13.534,111.559c28.137-21.433,60.886-66.786,97.188-55.702
		c33.294,10.166,47.136,35.636,53.445,67.598c36.267-30.588,101.45-80.816,136.291-28.667
		c29.702,44.459,64.653,86.46,93.403,131.348c47.72,74.506,34.357,164.027,11.318,244.758
		c-10.625,37.23-44.646,94.963-29.585,135.007c-133.589-31.309-278.393-21.899-414.503-29.709
		c-180.408-10.352-359.885-33.276-540.438-41.096c-91.115-3.945-192.385-20.665-282.59,0.765c0.265-3.466-1.96-10.053-1.954-11.537
		c-13.116,3.063-31.323,5.574-25.731,18.472c9.049,20.868,118.617,25.872,136.178,28.529
		c246.335,37.281,493.812,67.386,740.437,102.764c107.085,15.36,214.338,32.925,322.153,42.426
		c37.699,3.321,113.942,17.823,144.851-14.011c25.217-25.972,7.9-73.218,0.229-102.98c-16.188-62.808-34.213-124.77-45.123-188.832
		c-24.988-146.726-16.77-293.548,1.865-440.404c7.064-55.68,40.787-171.783-13.079-215.212
		c-51.793-41.758-164.403-20.292-224.259-18.836c-182.225,4.432-364.486,6.582-546.74,9.444
		c-269.691,4.236-539.327,10.989-809.005,15.913c-121.015,2.209-430.057,5.769-550.894-3.083
		c-3.376,48.043,1.407,84.728,13.458,134.108c22.649,92.801,40.243,189.872,51.13,284.691c15.32,133.417,4.81,272.032-5.102,404.549
		c35.149,5.897,260.605,2.458,296.072,2.41c82.852-0.11,165.698-0.09,248.548-0.385c78.085-0.278,158.372-2.485,236.264,2.904
		c16.734,1.158,34.626,6.842,50.398-0.627"/>
</g>
<g id="Roof_x5F_02">
	<path fill="#841E0D" d="M5510.651,117c-22.145,52.693-23.952,114.169-24.007,171.388c-3.21-20.738-7.381-41.009-13.665-60.983
		c-8.052-25.587-23.626-45.001-33.686-68.933c-9.254-22.015-2.249-39.416-29.773-50.527c-25.196-10.171-49.54,4.36-74.613,3.365
		c-0.774,24.18,4.578,49.482,1.441,73.132c-15.253-16.372-27.372-46.356-41.559-59.722c-21.472-20.229-57.304-4.761-83.816-3.48
		c-52.478,2.535-111.922,1.407-158.851,28.652c-42.409,24.621-36.864,65.631-44.118,109.002
		c-3.172,18.965-9.418,35.648-11.354,54.822c-2.201,21.794,1.838,47.075-5.563,67.125c-10.468-40.083-8.635-87.271-41.573-115.952
		c-21.321-18.565-60-28.121-77.325,0.489c-9.175,15.151,0.33,32.78-9.903,46.84c-3.722,5.114-41.02,19.35-41.357,17.191
		c17.28,110.608-83.463,64.851-154.768,85.018c-64.049,18.114-115.397,93.407-112.329,157.164
		c3.379,70.232,28.861,144.525-28.703,200.999c-74.868,73.448-212.473,71.716-309.246,65.918
		c-68.673-4.114-143.496-10.943-210.196-29.454c-67.779-18.811-220.288-66.47-224.33-131.22
		c-10.046-160.934,19.813-323.528,17.67-484.898c-1.324-99.688-13.727-198.568-17.04-298.118
		c364.313-11.292,866.234-25.604,1230.692-28.409c201.896-1.554,403.825-3.613,605.73-2.977
		c86.252,0.272,184.806-8.923,269.295,13.699c98.183,26.288,75.673,153.336,72.604,231.611
		c-6.398,163.247,1.024,321.917,21.536,483.981c13.336,105.373,20.834,206.526,6.494,311.975
		c-26.183-2.385-79.092-3.709-94.066-30.673c-12.324-22.193,0.418-72.393,0.134-97.198c-0.519-45.264-0.978-89.458-13.113-133.43
		c-11.689-42.353-34.16-75.106-51.954-113.94c-23.953-52.275,25.099-118.536,30.915-172.159
		c8.482-78.208-51.866-141.834-117.898-174.109c-49.098-23.997-104.407-33.875-156.334-49.958
		c-24.13-7.473-47.99-17.907-73.373-20.231"/>
</g>
<g id="Roof_x5F_01">
	<path fill="#511108" d="M4334.651,737c-2.373-57.075-22.489-125.789,5.629-180.559c4.277-8.331,15.808-16.233,18.701-22.626
		c5.698-12.593,1.128-24.732,3.398-37.771c4.5-25.838,14.139-31.262,37.917-39.393c-0.425-8.145-12.188-27.143-6.475-34.036
		c6.98-8.423,17.369,9.086,18.88,13.819c6.768-72.589,21.861-90.405,78.278-131.176c29.063-21.002,48.248-58.735,80.667-73.839
		c23.14-10.78,50.278-6.988,75.075-7.233c67.705-0.672,119.081-47.933,189.385-51.55c23.081-1.188,59.829-9.178,82.242-3.683
		c20.525,5.033,26.479,19.763,49.604,19.538c25.612-0.25,39.117-11.929,64.146,1.704c21.63,11.782,25.749,25.099,54.252,16.502
		c-7.451-28.72,22.03-38.821,28.957-63.207c4.148-14.607-2.983-49.403,12.525-59.225c38.284-24.245,60.175,81.637,73.369,98.065
		c2.703-14.598-0.494-30.827,4.332-44.768c3.574-10.328,13.951-17.673,17.275-28.726c7.559-25.133-7.894-38.884,25.711-44.111
		c43.014-6.69,94.313,1.455,130.029,26.106c43.721-51.521,110.535-26.49,169.007-19.55c84.459,10.024,171.909,16.521,254.072,39.49
		c63.934,17.872,92.979,46.004,100.245,111.926c10.121,91.822,16.32,187.366,45.315,275.82
		c11.9,36.303,23.402,68.431,18.825,107.466c-4.66,39.731-24.833,74.428-32.833,113.018c-5.939,28.649,0.792,56.394,2.039,85.286
		c1.959,45.404-1.756,91.127-4.305,136.44c19.889-3.924,43.194-6.08,53.89-25.093c12.362-21.973,8.685-70.711,10.862-95.555
		c6.819-77.794-1.801-152.954-19.927-228.393c-21.573-89.789-16.228-176.43-18.826-267.781
		c-3.01-105.84-11.157-203.732,0.486-309.598c6.497-59.065,18.796-142.588,0.896-201.055
		c-392.618,58.067-790.522,53.146-1186.469,47.546c-166.035-2.348-332.132-5.733-497.979-14.303
		c-75.962-3.925-406.9-14.763-482.685-3.546c-171.827,25.432-100.181,188.123-75.437,305.116
		c21.228,100.367,19.133,199.688-3.57,299.63c-17.775,78.251-63.231,168.862-53.811,250.588
		c9.223,80.004,348.022,88.969,413.422,92.041c103.092,4.842,207.25-3.499,310.264-7.591c-17.626-18.94-32.43-39.521-49.381-57.737"
		/>
</g>
<g id="Roof_x5F_00">
	<path fill="#230603" d="M3916.651,1029.956c57.205-2.658,114.722-1.223,171.869,1.913c53.41,2.93,49.711-179.1,61.789-226.736
		c18.735-73.896,47.34-146.382,86.956-210.864c9.465-15.406,25.754-26.721,34.375-41.256c10.817-18.235,0.394-27.228,3.587-46.202
		c2.766-16.428,16.688-25.231,21.671-40.269c5.871-17.712,0.589-37.035,7.994-55.435c9.331-23.185,25.53-44.161,35.944-67.239
		c13.038-28.895,25.867-66.224,55.26-82.616c14.214,9.157,21.611,24.682,17.302,41.588c14.022-8.805,14.411-42.364,17.207-54.229
		c2.534,22.03,16.237,37.613,18.072,60.716c1.491,18.769-1.057,37.281,2.373,55.513c20.583-27.953,6.423-75.21,11.81-107.798
		c10.107-61.139,79.914-92.21,133.951-110.126c21.496-7.126,56.621-1.257,73.584-17.214
		c-20.103,52.762-26.216,115.947-25.894,172.74c42.704-64.187,38.903-141.086,124.683-167.332
		c44.493-13.614,94.315-15.175,140.406-20.213c43.056-4.706,50.835,7.213,65.919,44.185c11.173,27.386-3.47,45.849,3.045,75.314
		c15.283-26.371,20.796-45.382,26.337-74.763c7.398-39.233,26.459-35.646,60.865-47.967
		c36.709-13.146,151.971-97.629,180.548-65.873c19.087,21.21,4.391,66.799,13.759,93.19c20.027-46.026,41.296-83.493,90.298-103.26
		c27.729-11.186,49.507-3.006,77.942,4.668c79.496,21.455,160.303,36.931,240.031,57.311
		c59.535,15.218,115.691,32.237,141.679,92.202c21.505,49.622,39.312,105.333,54.001,157.356
		c17.207,60.941,10.681,119.631,7.729,181.854c-3.056,64.445,10.055,123.121,19.047,186.279
		c9.4,66.021-16.476,119.099-21.31,182.953c-5.303,70.045,65.753,46.824,110.86,34.487c8.234-133.735,13.997-266.946,3.129-400.749
		c-12.477-153.595-40.884-305.027-28.166-459.662c4.034-49.058,22.138-114.074,2.618-161.622
		c-24.137-58.798-106.471-61.105-159.961-64.045c-145.656-8.005-293.174,5.249-438.645,11.85
		c-191.342,8.683-382.781,15.105-574.343,14.886c-275.259-0.313-931.748-18.168-1206.375-34.229
		c3.842,62.594,14.04,124.612,17.436,187.255c5.219,96.264-6.373,192.639-17.385,288.123
		c-11.055,95.854-22.684,191.297-22.684,287.958c0,56.625,11.376,111.439,13.305,167.362c0.876,25.41-8.43,234.577-6.936,259.995"/>
</g>
<g id="Hanging">
	<path fill="#110107" d="M4990.651,41c11.602,23.742,14.579,46.259,15.735,71.56c0.657,14.385-7.133,67.486,28.257,51.244
		c17.727,31.459,37.53,65.597,50.295,98.802c6.934,18.032,22.745,29.247,30.2,48.033c7.107,17.907,2.874,38.472,3.869,57.443
		c1.119,21.347,11.746,42.807,10.507,64.209c26.681-74.61-18.388-145.333-0.448-217.703
		c10.632-42.887,70.611-182.125,15.549-204.577c-22.821-9.305-94.561-15.094-119.001-8.131
		c-29.475,8.397-26.689,22.496-19.228,45.119"/>
	<path fill="#110107" d="M5274.651,685c3.221-36.773,5.981-76.948,41.744-97.801c0.73,2.492-2.115,3.973-1.552,5.388
		c24.426-8.557,32.339-63.845,35.726-87.721c2.551-17.974,3.92-35.443,4.092-53.969c0.205-22.093,6.26-31.58,11.396-50.813
		c5.036-18.856,0.391-39.847,5.047-58.924c9.509,18.696,10.974,52.489,41.245,48.143c4.161,76.2,31.398,140.207,44.779,216.091
		c4.063,23.041,15.27,42.438,15.221,65.304c-58.864,4.674-140.356-10.481-193.306,22c-1.677-1.469-2.956-4.516-4.392-5.697"/>
	<path fill="#110107" d="M4388.651,145c-3.512,23.823-2.993,47.797-5.72,71.649c-2.303,20.143-14.55,43.524-13.563,63.394
		c0.772,15.524,9.778,33.015,11.248,49.895c3.527,40.52,0.858,79.971-2.41,120.458c0.54-25.44-17.537-22.88-27.507-39.741
		c-11.106-18.783-9.311-53.195-17.062-75.03c-19.926-56.132-38.127-148.359-8.446-205.655c15.711-30.329,44.309-15.66,71.1-32.358
		c-2.482,23.056-6.829,47.083-9.641,69.388"/>
	<path fill="#8E0C0C" d="M5046.651,173c26.094,36.458,32.761,105.445,72.196,129.199c-27.617-39.714-43.356-86.729-68.196-129.199"
		/>
	<path fill="#680D0D" d="M5148.651,123c1.017,25.121-15.199,73.092-25.548,95.402c-2.395-43.602,17.826-65.756,25.548-105.402"/>
	<path fill="#7C0A0A" d="M5122.651,349c0.664,23.084,5.36,39.574,8.007,61.396c4.915-25.319,7.2-46.993-10.007-67.396"/>
	<path fill="#3A0202" d="M5335.204,586.773c19.735-30.221,22.457-66.669,25.742-101.464c-0.625-0.351,5.999-0.274,5.41,0
		c0.674,19.699-13.681,77.813,7.946,83.445c0.004-0.017,0.008-0.034,0.012-0.051c1.103-4.886,1.862-9.702,4.11-13.726
		c1.568,0.129,3.135,0.115,4.701-0.042c10.241,28.751-37.808,64.669-48.304,90.052c-4.723,11.422-3.876,39.467-12.241,47.492
		c-4.832,4.636-35.465,8.055-43.635,10.209c-0.936-25.33-2.421-47.14,11.25-68.743
		C5302.06,615.199,5323.151,605.23,5335.204,586.773z"/>
	<path d="M5412.218,457.595c9.438,26.802,12.984,66.13,22.349,96.659c8.837,28.812,17.22,62.372,17.923,92.069
		c-22.608,4.973-44.648,8.721-64.044,22.641c-2.949-15.481-6.388-33.031,6.107-44.724c6.296,5.122,10.399,4.106,17.443,1.124
		c0.822-6.78,2.36-13.49,1.948-20.55c35.163,4.362,10.554-49.282,6.718-66.917c-6.688-30.74-11.547-62.684-15.154-93.695
		c-2.043-17.561-0.731-29.587-11.14-44.835c22.733-1.781,11.47,56.46,20.85,70.227"/>
	<path fill="#110107" d="M2947.275-42.239c-21.396,23.995-26.495,60.286-23.996,92.576c3.385,43.741-0.809,82.243-0.069,126.368
		c1.194,71.206,25.188,157.929,5.395,227.851c-82.408-139.514,3.647-368.279-157.431-459.085
		c66.129,25.849,132.552,39.874,193.338-5.402c8.149,16.952,3.426,21.688-5.237,26.693"/>
</g>
<g id="Midground">
	<path fill="#160109" d="M5229.747,7c-44.284,10.375-66.468,71.257-96.348,107.402c11.807-23.466,9.699-58.867,5.528-85.1
		c-11.714,2.621-26.251-7.117-29.737,13.349c-13.184-2.464-26.049,3.411-28.217,22c-68.063-3.978-107.158,70.09-160.912,113.914
		c-48.436,39.489-59.727,103.205-98.258,155.146c-38.796,52.298-87.128,107.055-47.744,186.764
		c14.733,29.82,38.806,46.59,58.958,68.637c20.07,21.957,35.854,48.368,50.873,76.523c30.728,57.604,57.532,114.522,55.206,188.273
		c-0.282,8.926-0.347,17.863-0.662,26.789c-35.153,8.722-70.239,17.898-105.731,26.916c-49.005,12.451-98.313-1.659-147.412-4.591
		c-52.523-3.135-105.429-7.835-158.009-8.02c-14.255-0.05-27.694,0.621-41.262,4.398c-0.837-18.786,18.69-30.074,27.729-45.522
		c26.016-44.469,43.983-103.576,59.755-152.422c6.438-19.938,8.544-43.623,21.379-60.51c13.958-18.365,41.9-19.894,51.505-41.659
		c-12.433-2.657-13.439-22.803-9.702-35.357c4.351-14.614,16.512-15.086,21.848-26.024c11.263-23.088,5.865-55.592,16.213-81.238
		c0.268,4.702,6.367,10.438,9.911,16.524c29.491-7.102,27.365-124.638-1.705-122.495c-1.442-19.539,12.294-38.627,11.51-60.745
		c-1.223-34.495-10.51-15.274-29.102-35.151c-5.64-6.029-2.286-17.454-6.437-24.068c-3.587-5.716-12.872-11.709-15.055-15.438
		c-18.002-30.732-20.743-63.707-43.206-92.401c-20.284-25.912-54.164-57.484-52.107-93.368
		c2.396-41.72,78.501-21.313,101.001-21.671c126.998-2.021,254.351-33.034,381.17-27.405
		c71.313,3.165,142.307,12.737,213.718,14.836C5239.933,5.35,5232.437,6.369,5223.806,9"/>
	<path fill="#160109" d="M5296.651-1c10.291,20.263,30.571,21.553,47.649,26.596c13.973,4.126,41.761,0.645,52.176,8.535
		c14.872,11.266,11.557,37.141,32.677,43.695c19.262,5.977,31.19-8.432,42.291,21.555c13.276,35.868-15.063,95.641,22.833,106.155
		c7.871,2.184,13.211-5.213,21.428-1.512c5.497,2.476,8.743,15.203,15.326,19.06c14.707,8.615,37.518-2.555,47.29,18.861
		c5.569,12.202,5.552,47.336,9.207,63.539c4.633,20.528,11.852,45.762,9.266,67.168c-38.901,36.269-47.693,75.73-58.379,131.473
		c-11.876,61.948-47.504,105.903-89.413,142.722c-22.478,19.747-159.418,104.13-136.731,150.955
		c7.781,16.063,44.232,4.915,55.202,3.318c47.189-6.868,94.021-15.558,141.51-19.271c45.414-3.551,91.103-3.565,136.556-1.111
		c38.085,2.056,74.028,0.637,112.553,0.586c29.114-0.038,49.845-8.778,41.387-49.24c-18.743-89.648-94.775-147.464-113.836-235.872
		c-6.176-28.642-12.987-60.618-17.193-89.703c-4.427-30.625,4.216-58.248,8.361-88.083c4.712-33.909,16.346-49.965,28.727-79.718
		c11.538-27.725,9.899-59.437,21.421-87.601c24.261-59.304,79.165-114.287,79.346-183.85
		c-54.818,20.598-121.913,13.826-178.848,15.796c-63.582,2.2-127.195,2.464-190.798,3.278
		c-40.889,0.523-101.941-7.625-140.006,18.67"/>
	<path fill="#160109" d="M5468.651,611c-81.833,38.289-162.545,63.19-252.863,70.904c-92.492,7.899-179.326,50.695-272.497,48.666
		c-155.134-3.38-304.877,19.573-459.201-14.1c-136.904-29.871-279.767-92.833-422.327-76.82
		c-105.467,11.846-219.742,109.664-127.402,213.766c59.405,66.971,161.738,88.951,246.127,100.599
		c146.669,20.242,297.218,10.036,443.882-4.757c321.52-32.428,639.353-93.57,961.105-124.875
		c66.256-6.446,132.583-12.108,198.913-17.731c3.026-86.2-4.958-187.22,52.096-259.748c-37.313-15.104-95.381-0.921-133.704,3.553
		c-41.053,4.792-80.256,13.635-117.729,29.603c-35.013,14.919-85.911,28.354-124.399,32.941"/>
	<path fill="#330303" d="M5037.237,744.08c21.44-0.714,34.885-17.473,56.775-17.772c2.648,6.037,5.391,11.983,8.655,17.89
		c-47.103,24.188-111.919,31.042-164.067,30.531c-32.259-0.315-64.588,0.982-96.853,1.325
		c-48.848,0.52-112.217,3.448-158.644-11.677c-28.152-9.171-72.279-27.638-55.12-63.568c8.165-1.026,16.16-2.352,24.212-0.787
		c1.089-14.914,10.583-11.05,15.444-17.419c5.936-7.777,7.706-11.203,9.664-22.342c1.812-10.313,1.329-14.296,5.63-23.227
		c3.605-7.483,11.396-9.445,12.237-21.494c11.769,24.876,3.036,57.869,6.309,84.815c59.141,2.01,3.688-76.056,32.51-84.031
		c0.551-11.993-2.372-24.655,7.35-32.627c15.109,23.475,24.449,50.271,34.11,76.247c17.478,46.989,41.779,2.679,23.52-1.582
		c4.245-41.942,28.98,32.72,30.974,34.299c29.52,23.388,11.478-29.72,7.942-40.153c-9.228-27.23-29.531-44.008-49.997-64.041
		c-24.049-23.539-30.92-43.79-36.884-77.021c-3.419-19.055-15.386-59.832-2.054-75.862c4.056,35.46,4.441,90.664,29.221,114.519
		c26.649,25.654,49.813,57.496,71.037,89.716c13.809,20.963,16.246,42.508,25.809,64.882c-4.627,0.962-9.088,5.175-14.546,5.104
		c-2.051,23.366,6.088,18.901,23.511,15.01c0.727,31.536,62.035,16.23,81.252,14.81c15.909-1.176,28.342,4.027,43.475,4.931
		c12.969,0.774,25.892-4.343,39.026-6.474"/>
	<path d="M4662.255,178.608c0.313,14.429,3.834,28.865,4.722,43.266c22.882-8.862,23.734,8.251,30.295,22.527
		c5.264,11.454,11.091,13.537,12.769,28.787c1.88,17.089-2.368,35.437,3.594,51.877c3.698-6.682,9.906-10.88,17.391-11.69
		c0.625-14.8-6.247-45.276,0.255-58.179c4.705-9.336,15.261-8.745,19.41-19.35c7.873-20.125-12.838-76.539,19.333-82.964
		c-0.535-20.586,6.299-69.501-14.49-78.696c-17.625-7.796-48.78,5.378-69.234,1.033c-13.355-2.836-27.232-7.422-40.244-11.687
		c-8.985,29.227-12.832,49.77,1.333,74.786c7.981,14.096,20.823,29.298,17.867,46.289"/>
	<path d="M4716.253,345.1c-3.518,2.71-5.787,7.739-8.85,10.868c15.394,12.286,8.046,79.44,7.577,98.512
		c33.468-6.002-5.583-69.057,22.051-75.104c0.364-10.276-1.792-24.572,3.037-31.605c-6.399-3.967-14.68-4.503-22.314-7.171"/>
	<path fill="#1E0101" d="M4695.254,504.092c0,12.893,0.258,25.93-0.227,38.736c-6.899,1.145-13.483,3.586-19.414,7.236
		c1.907-6.057,0.02-76.583,19.641-47.472"/>
	<path fill="#500303" d="M4694.651,769c0.766-6.285,3.952-10.725,4.349-17.651c15.002-7.638,29.546,2.289,43.382-2.436
		c19.205-6.559,7.666-16.264,29.38-13.103c-0.416-0.061,8.47,9.812,16.651,11.205c6.914,1.177,17.708-3.121,24.231-4.682
		c14.782-3.535,34.301-5.17,30.309-23.046c14.369-9.305,20.092-16.759,39.396-12.591c-1.798-30.124-34.304-67.473-45.84-96.95
		c24.092,21.484,36.44,49.684,49.607,78.343c5.996,13.051,11.579,35.571,20.013,44.884c7.783,8.594,29.878,14.585,41.373,21.917
		c13.056,8.327,28.429,18.795,38.943,31.711c-18.1-1.337-35.108,5.484-52.332,8.21c-22.021,3.483-39.512-1.172-61.1-3.189
		c-45.137-4.218-89.78,7.128-135.808,3.276c-34.867-2.918-23.715-6.145-42.555-29.898"/>
	<path fill="#500303" d="M5014.651,745c62.378,13.205,123.461-31.946,187.246-13.943c-29.802,8.132-60.451,7.255-90.949,15.313
		c-30.189,7.976-60.345,16.558-91.602,10.139c-16.318-3.351-36.777-10.827-52.535-17.063c18.29,1.479,40.226-0.646,57.84,3.555"/>
	<path d="M4674.651,529c0.053-14.013-1.237-26.954,4.342-39.705c21.264-3.767,32.992-40.629,33.658-59.691
		c-0.147,44.65-22.083,67.317-34,105.396"/>
	<path fill="#8E0C0C" d="M4878.651,203c-43.227,44.02-50.037,110.733-93.299,152.246c48.636-35.153,52.566-104.794,87.299-146.246"
		/>
	<path fill="#8E0C0C" d="M5588.651,395c-16.3,21.631-28.606,50.471-26.084,78.119c2.807,30.785,29.733,51.93,26.057,83.859
		c-2.595,22.536-8.954,25.002-29.624,33.767c0.777-8.132-1.424-17.276-0.651-25.441c-1.412-0.846-11.545-5.528-11.641-5.563
		c-17.979,24.576-34.092,49.32-63.303,62.957c20.066-22.129,39.994-43.877,52.874-71.035c15.251-32.16,14.048-63.243,22.097-96.487
		c4.059-16.763,10.223-35.238,24.275-46.175"/>
	<path fill="#3D0202" d="M5596.651,271c0,11.885-0.137,23.908,0.295,35.69c-0.633,0.503,5.978,0.308,5.417,0.007
		c1.349-1.127-0.48-4.078,0.576-5.499c-0.22-0.191,6.112,1.763,5.417,2.213c0.51,20.244-2.943,38.451-1.41,59.278
		c3.774,1.325,4.497-1.378,7.196-1.491c2.019,2.556,1.175,7.769,2.804,9.499c2.924-0.204,8.638-0.362,11.402,0.604
		c-0.409,7.45,1.859,17.922,1.812,23.538c6.301-21.802-3.169-33.255-5.958-51.331c-2.696-17.477,7.046-33.709-1.839-48.222
		c-24.282-7.982-16.378-60.541-45.402-70.089c3.638,18.271,13.529,37.814,19.69,55.801"/>
	<path d="M4621.757,699.083c-0.231-37.881,16.644-49.357,35.643-79.263c8.637-13.596,9.605-25.011,11.284-40.741
		c0.671-6.292,3.284-12.441,3.432-17.599c0.151-5.273-6.178-10.885-2.618-19.354c-5.235,11.834-19.887,20.581-22.443,28.566
		c-3.859,12.053,8.441,20.896,1.544,34.571c-11.343,22.495-40.449,27.583-50.341,54.208c-6.195,16.676-7.023,33.676-6.273,51.383
		c21.066-1.727,31.421,5.074,50.312-9.762c16.09-12.638,28.703-31.489,25.731-52.556c-9.487,8.722-14.141,22.548-22.618,30.763
		c-7.437,7.205-17.513,10.141-23.653,18.282"/>
	<path d="M4779.25,778.579c-33.918-6.342-35.951-40.296-53.987-61.438c-9.386-11.004-22.719-7.521-31.443-21.316
		c-6.646-10.508-6.947-29.233-7.864-41.585c-5.411,10.702-8.886,24.465-15.446,34.314c-8.15,12.237-21.31,12.082-29.304,22.144
		c-9.548,12.019-7.176,52.371-0.994,65.556c10.48,22.352,42.953,20.928,65.076,22.313c28.281,1.77,53.363-2.563,80.106-10.992
		c-4.814-6.112-10.992-10.979-18.144-13.494"/>
	<path d="M5685.204,189.108c-7.602,33.489-33.271,60.912-29.822,93.673c3.223,30.605,0.233,61.708-10.342,91.864
		c-1.788-8.315-2.984-17.792-5.995-24.92c-3.46,17.72,27.257,78.224-19.646,63.099c4.679,10.546,14.523,16.902,18.627,28.359
		c6.985,19.507-2.992,25.939-9.519,42.599c-11.318,28.895-9.269,66.368-16.239,97.021c22.095-18.859,59.659-29.638,87.742-33.439
		c-48.302-80.201-58.04-197.6-23.965-285.636c9.887-25.542,30.557-48.237,25.431-76.892c-13.164-2.146-18.986,9.555-20.772,20.772"
		/>
	<path fill="#1E010B" d="M3844.065,792.504c-10.76-17.167-32.462-29.674-44.957-46.99c-27.398-37.971-20.13-52.798-16.984-93.915
		c4.605-60.201-34.26-32.336-54.817-75.896c-14.181-30.049-9.208-72.514,5.609-98.512c20.183-35.409,57.757-54.838,81.153-85.337
		c22.181-28.914,40.017-61.914,61.768-92.291c18.857-26.335,34.541-62.764,32.293-95.949c-1.054-15.547-13.573-24.208-11.521-46.583
		c3.398-37.065,30.222-69.374,49.626-100.271l-9.001,3c17.109-51.708,68.525-77.083-1.03-115.177
		c-66.175-36.243-165.239,13.405-240.479,5.4c-41.264-4.39-171.171-36.34-204.563,10.237c-14.219-21.158-63.731-20.566-102.1-22.943
		c-122.117-7.564-248.099,10.861-371.58,6.221c-6.282-0.236-12.582-0.413-18.889-0.559c0.2,5.309,0.362,10.619,0.52,15.929
		c7.959,11.433,15.554,23.134,22.518,35.167c3.224,5.572,6.191,11.293,8.821,17.17c11.479,25.644,21.081,52.405,28.539,79.503
		c2.845,10.335,5.165,20.815,6.927,31.39c4.385,26.312,7.272,53.212,8.75,79.738c8.379,22.58,16.761,45.545,22.741,68.77
		c2.613,10.149,4.57,20.346,6.146,30.59c15.048,13.145,27.691,28.088,36.781,44.763c16.118,29.571,10.059,63.883,23.479,94.044
		c13.02,29.254,27.998,38.308,26.184,70.946c-3.663,65.906-22.32,128.109-31.785,193.42c22.681,2.367,25.463,18.101,45.18,27.98
		c3.341,25.48-17.188,31.987-26.257,53.275c-7.685,18.039-6.009,40.212-8.263,59.759c2.617,1.706,6.869-0.912,8.85,0.229
		c-16.543,43.363-52.945,72.132-62.984,118.633c-9.284,43.008-8.123,82.982-27.905,124.163
		c109.842,3.629,213.646,12.508,323.522,9.001c-14.75-39.413-19.19-78.79-28.072-119.473
		c-8.314-38.083-35.248-71.089-44.426-107.192c-19.117-75.197,41.029-130.869-35.754-196.917
		c-37.399-32.169-66.03-35.48-49.893-84.599c11.832-36.016,44.535-62.495,66.28-94.252c52.898-77.253,50.512-121.333,46.547-206.142
		c-1.675-35.813,17.921-61.147,32.666-93.537c27.887-61.262,74.208-129.385,92.286-195.254
		c14.653,30.577,54.269,64.461,64.52,87.565c18.471,41.625,44.223,67.464,65.145,106.651c22.251,9.192,45.316,57.933,41.074,82.095
		c-3.66,20.835-24.398,35.229-33.007,54.16c-16.16,35.539-6.083,17.478,2.497,41.021c10.625,29.149,25.993,46.005,33.58,75.529
		c7.387,28.75,6.733,59.416,8.504,89.102c3.978,66.673-15.32,141.174-4.633,205.49c12.407,74.662,18.293,108.061-23.281,174.627
		c-17.905,28.668-21.645,39.111-19.838,73.891c1.848,35.58-12.768,64.968-10.896,98.304c59.525,3.769,118.233,5.867,178.041,9.377
		c25.404,1.49,50.111,7.633,74.279,6.731c29.036-1.082,65.633,5.487,94.807,1.824c3.436-83.981-60.841-185.054-96.791-254.238
		C3854.065,833.072,3855.425,810.627,3844.065,792.504z"/>
</g>
<g id="Foreground">
	<path fill="#28010D" d="M3990.651,665c79.899,0.143,153.413-11.782,232.467-21.103c64.289-7.58,157.531-19.854,220.857-1.987
		c51.432,14.511,97.275,47.955,149.239,63.35c54.616,16.182,124.285,67.071,181.195,69.183c42.227,1.566,84.317-7.222,126.558-7.717
		c39.981-0.469,79.614,6.926,119.495,6.274c61.878-1.011,130.701-48.195,191.098-61.276
		c63.285-13.706,123.065-18.971,179.198-53.402c47.483-29.127,101.231-60.722,154.78-77.218
		c27.376-8.433,56.123-10.929,82.965-21.313c25.514-9.871,48.217-24.692,74.994-31.562c55.378-14.208,121.862-17.2,178.907-19.125
		c13.987-0.472,27.997-0.275,41.983,0.152c-16.062,77.856-29.623,155.734-19.105,235.325
		c8.323,62.987,31.685,122.958,39.271,185.997c4.981,41.385,4.668,92.104-20.393,127.797
		c-26.619,37.915-74.555,39.783-116.97,40.929c-205.694,5.554-413.098-8.926-618.982-9.991
		c-213.777-1.107-427.553-1.689-641.333-2.126c-186.251-0.38-372.606-2.258-558.688,7.048c-15.749,0.787-31.496,1.625-47.242,2.463
		c-19.081-86.797,14.304-177.17,19.012-265.383c3.123-58.513,4.018-117.352,7.098-176.115c9.153,5.537,24.97,9.014,31.594,7.801"/>
	<path fill="#28010D" d="M4351.925-3v56l41.052,58l36.223,32l14.489,62l7.244,86l24.148,14l14.489,36l-2.415,56l-24.148,40
		l-53.126,84L4364,539l-33.808,14l-33.807,52l-21.733,60l140.059,76l164.208,10l86.934,8l-41.052-88c0,0-82.104-30-84.519-48
		c-2.415-18,0-78,0-78v-94c0,0,11.126-66,18.371-92c7.245-26,19.319-64,33.808-80s15.437-64,15.437-64s14.489-50,24.148-64
		s26.563-60,26.563-60s31.393-22,53.126-30s94.178-32,94.178-32l77.274-34l43.467-52l-581.97-20L4351.925-3z"/>
	<path fill="#330314" d="M4490.402,61.521c-0.657-1.535-1.714-4.011-2.161-5.019c-2.204-4.975-4.47-9.923-6.852-14.815
		c-2.658-5.458-5.433-10.864-8.333-16.2c0.849,3.266,1.805,6.504,2.862,9.71c1.447,4.388,3.01,8.738,4.734,13.026
		c0.194,0.482,0.394,0.961,0.589,1.442c0.683,1.553,1.367,3.105,2.077,4.646c5.297,11.503,11.191,22.706,17.27,33.81
		c-0.016-0.075-0.032-0.15-0.048-0.226c-2.458-6.843-5.019-13.645-7.712-20.39C4492.03,65.507,4491.221,63.513,4490.402,61.521z"/>
	<path d="M4503.855,323.056c-0.231-1.131-0.506-2.251-0.822-3.36c-0.539-1.078-1.237-2.447-1.853-3.481
		c-0.588-0.671-1.17-1.349-1.778-2.003c-1.766-1.899-3.575-3.759-5.331-5.668c-5.742-6.243-11.306-12.987-15.476-20.398
		c-2.903-5.16-5.197-10.625-7.385-16.122c4.542,11.404-1.674-3.845-2.88-6.992c-0.714-1.863-1.418-3.731-2.051-5.623
		c-6.161-18.399-8.604-37.976-9.638-57.289c-0.753-14.075-0.787-28.209-2.328-42.229c-1.071-6.549-2.569-13.042-4.849-19.279
		c-0.138-0.377-0.278-0.753-0.417-1.13c-0.717-1.524-1.455-3.04-2.268-4.515c-1.811-3.285-3.775-6.49-5.968-9.536
		c-0.396-0.475-0.788-0.952-1.192-1.419c-1.656-1.892-3.342-3.759-5.122-5.535c-3.904-3.895-8.015-7.561-12.351-10.971
		c-6.159-4.842-12.502-9.61-18.089-15.123c-13.895-13.71-19.986-29.849-21.744-49.004c-0.854-9.31-0.463-18.646-0.844-27.975
		c-0.434-10.623-1.442-21.192-2.765-31.735c-2.795-19.95-6.203-39.803-8.691-59.798L4344.681-77l7.244,74v56l41.052,58l36.223,32
		l14.489,62l7.244,86l24.148,14l14.489,36l-2.415,56l-24.148,40l-53.126,84L4364,539l-33.808,14l-18.982,29.197
		c35.412-19.405,74.625-31.234,115.488-32.211c4.535-2.219,9.137-4.307,13.824-6.215c0.952-0.616,1.891-1.25,2.814-1.908
		c2.861-2.435,5.602-5.016,8.13-7.798c1.05-1.155,2.071-2.336,3.074-3.533c0.597-0.793,1.197-1.604,1.563-2.135
		c2.689-3.905,5.212-7.924,7.542-12.054c2.896-5.135,5.607-10.375,8.138-15.7c0.766-1.611,3.579-8.063,2.959-6.394
		c0.854-2.142,1.691-4.29,2.479-6.457c9.634-26.529,15.166-54.233,19.116-82.118c1.965-15.141,3.567-30.323,5.12-45.511
		C4502.712,347.888,4504.743,335.42,4503.855,323.056z"/>
	<path fill="#1E0101" d="M5328.223,810.077c12.05,48.116,61.063,55.89,104.754,64.681c44.702,8.994,86.875,20.281,129.511,36.378
		c22.701,8.571,41.109,14.262,60.922,29.28c90.294-44.844,148.791-125.84-11.701-85.342
		c-45.368,11.448-208.116,11.864-249.936-10.247c-21.752-11.501-35.794-37.175-36.545-61.301c-1.472,14.747,4.18,25.32,5.994,38.55"
		/>
	<path fill="#1E0101" d="M5932.692,591.088c-23.772,33.702-67.513,27.662-102.118,38.891c-33.655,10.92-19.238,49.063-49.786,65.061
		c-28.823,15.095-66.883,11.015-91.166,30.935c-17.465,14.326-22.799,17.67-46.284,19.36c-17.126,1.234-34.267,1.494-49.548,10.175
		c-29.209,16.593-28.978,61.192-30.307,91.84c-38.049,1.429-31.141-78.055-23.998-98.614
		c-17.416,14.467-48.884,28.779-71.461,27.996c-16.177-0.562-53.095-15.731-57.114,10.955c3.173-0.271,9.009,2.35,13.046,1.654
		c8.031,18.215,9.504,40.438-17.488,31.077c-16.039-5.563-28.759-26.313-43.742-35.685c-3.869,28.858-8.351,48.48,20.178,63.126
		c42.357,21.743,85.568,21.671,131.866,27.219c26.675,3.196,51.071,13.763,77.274,17.706c47.971,7.219,102.623-7.299,150.175-12.448
		c35.982-3.896,72.108-6.84,108.016-11.393c17.479-2.217,46.163-2.511,60.17-15.37c20.056-18.413,13.034-65.443,19.092-90.553
		c8.059-33.406,30.632-72.048,13.678-105.804c-9.012-17.942-27.06-28.429-18.35-50.854c-1.633-2.127-1.289,0.807-2.632,2.726"/>
	<path fill="#1E0101" d="M5251.726,708.082c-50.662,14.721-89.183,44.905-136.877,63.361
		c-52.259,20.222-108.599,53.623-166.227,30.892c-32.41-12.785-64.339-6.656-96.85-17.573c0.648,2.158,1.845,5.099,2.701,7.095
		c29.984-1.648,51.82,14.128,79.15,20.054c-15.703,7.23-36.024,4.036-52.885,7.775c-17.423,3.863-28.089,6.236-45.792,2.08
		c-20.197-4.742-59.798-32.031-80.741-20.312c3.48,1.452,6.222,4.45,9.592,6.034c-26.009,9.898-49.499,6.59-71.599-8.779
		c-10.604-7.374-12.208-10.135-26.273-14.522c-9.959-3.106-20.336-6.528-28.636-13.18c6.036,0.981,9.345-0.751,13.902-1.051
		c-27.291-14.699-28.105-24.58-37.333-52.341c-6.898-20.751-32.73-36.395-56.776-35.972c5.634,10.724,17.528,22.899,19.033,34.059
		c1.787,13.25-9.997,25.828,9.525,36.206c-12.998,7.185-35.049,17.258-37.64-6.096c-32.797-7.001-59.062,9.547-64.209-35.967
		c-2.99-26.438,1.094-54.55,3.443-80.87c1.438-16.105,4.481-31.841,1.06-47.935c-9.597,9.379-9.277,18.94-10.507,31.222
		c-1.462,14.591,0.111,11.943-6.763,23.711c-10.896,18.652-10.938,29.669-16.667,51.568c-4.257,16.27-9.244,19.527-24.323,22.348
		c-17.24,3.225-18.112-5.678-28.35-9.908c-3.919-1.62-1.212-6.248-7.643-7.562c-3.557-0.727-12.814,5.488-16.193,7.155
		c-10.895,5.376-24.249,12.569-28.509,24.063c-6.719,18.127,4.024,57.162,11.345,74.213c-11.243-0.214-34.725,3.413-44.493-2.274
		c-10.678-6.219-12.829-24.529-21.646-32.796c-7.664-7.184-27.426-20.259-37.65-24.497c-30.06-12.461-67.847-9.887-97.64-1.313
		c-14.531,4.182-40.664,15.726-51.667,1.123c-7.149,68.872,15.603,143.823,37.42,208.251
		c74.907,7.444,144.412-29.784,216.763-38.551c34.454-4.176,63.701-5.391,96.283-18.01c31.272-12.111,63.391-22.715,95.535-32.263
		c29.355-8.721,78.585-9.481,101.8-29.514c40.437,6.094,80.772-2.039,121.427,1.454c39.694,3.41,78.698,1.529,118.456,1.611
		c91.468,0.188,173.875-5.183,255.578-51.638c36.822-20.937,68.187-48.144,104.013-70.264
		C5256.559,706.445,5253.046,709.233,5251.726,708.082"/>
	<path fill="#1E0101" d="M4450.766,145.61c-3.174,0.117-5.75,0.881-8.778,1.722c2.472,39.805,16.909,79.813,18.004,121.046
		c14.112-2.677,23.664,18.299,27.148,30.105c5.692-8.283,5.303-18.864,12.557-26.952c-13.331-2.223-9.926-18.748-11.695-29.734
		c-2.858,1.057-7.031,0.151-10.012,1.081c-1.735-41.036-7.952-80.523-9.453-122.535c-3.334-0.536-11.238,0.211-14.546,1.495
		c-0.293,7.833-0.211,15.857-0.227,23.772"/>
	<polygon fill="#330314" points="4699.754,58.614 4644.256,84.113 4617.258,138.11 4602.259,172.609 4593.259,222.106 
		4582.76,189.108 4612.758,70.614 	"/>
	<path fill="#500303" d="M4573.219,291.57l-11.979,23.306l-18.292,83.029l-7.373,62.662l-7.467,121.264l-3.224-33.259l-4.057,65.872
		l-10.642,15.875l2.629-85.496l-7.647-18.504l2.028-32.936l11.748-5.288c0,0,3.641-44.859,7.65-67.153
		c4.009-22.295,14.053-42.715,13.593-63.782c-0.46-21.067,7.788-55.123,7.788-55.123L4573.219,291.57z"/>
	<polygon fill="#8E0C0C" points="4519.763,699.082 4524.263,720.081 4540.762,723.081 4555.761,733.581 4546.761,670.584 
		4609.758,691.583 4648.756,762.079 4618.758,681.083 4546.761,652.585 4531.762,661.584 4534.762,681.083 	"/>
	<polygon fill="#8E0C0C" points="4702.753,768.079 4786.75,784.578 4887.244,810.077 4849.746,813.076 4783.75,796.577 	"/>
	<polygon points="4861.746,775.578 4917.243,777.078 5005.738,792.078 5130.232,753.08 5035.737,798.077 4999.738,805.577 	"/>
	<polygon fill="#500303" points="4219.778,654.085 4305.273,640.585 4347.271,613.587 4312.773,645.085 	"/>
	<polygon points="4452.266,607.587 4441.767,628.586 4456.766,648.085 4474.765,628.586 4455.266,663.084 4443.267,693.083 
		4446.267,654.085 4426.768,628.586 	"/>
	<path fill="#8E0C0C" d="M5504.651,615c-35.786,14.035-70.89,28.692-103.954,48.286c-41.301,24.474-47.298,31.978-53.861,78.786
		c-3.093,22.057-9.145,40.472-2.683,62.768c9.745-23.394,6.412-52.517,17.933-75.338c11.59-22.958,30.996-27.122,53.11-38.294
		c43.701-22.077,84.464-41.221,120.508-73.192c20.211-17.927,43.104-27.662,67.239-39.055c-39.901,8.834-75.147,30.7-114.292,40.039
		"/>
	<path d="M5500.651,733c12.868,0.087,24.897-2.692,37.697-1.697c8.989,41.713,61.123,0.021,89.404-8.922
		c23.572-7.454,109.308-15.439,114.653-41.032c-14.294-7.537-41.497,7.68-57.721,11.532c-20.636,4.899-41.37,8.93-62.059,13.616
		c-39.8,9.014-73.317,12.974-113.712,15.877c-22.586,1.623-46.155,4.593-68.549,0.633c22.449,8.114,53.369,5.526,80.285,9.993"/>
	<path d="M5390.651,859c20.527,8.694,52.689,8.077,76.006,12.51c25.554,4.858,50.717,14.866,75.834,19.142
		c-21.933-20.25-52.211-17.553-80.811-25.714c-29.099-8.305-60.389-15.657-88.777-21.585c4.755,7.025,11.704,12.115,19.748,15.647"
		/>
	<path d="M4652.651,751c2.835,14.247,5.563,33.561,21.698,38.349c1.09,23.462,62.835,29.762,82,27.349
		c-0.234-1.346-0.228-6.05,0-7.402c-26.624-5.037-63.277-2.529-75.808-31.594c-0.785,0.912,0.806,3.762-0.288,5.106
		c-12.045-9.194-19.623-21.271-25.602-33.808"/>
	<path d="M4566.651,715c2.101,12.899,9.933,35.942-2.979,42.178c-8.164,3.943-24.946-11.652-38.719-5.829
		c-2.408,17.493-14.317,32.024-27.548,43.349c5.676-3.472,12.4-1.968,18.95-3.395c0.722,3.81,2.117,7.575,2.644,11.441
		c18.165-10.768,15.772-14.809,39.634-17.784c17.7-2.208,35.676-1.626,53.708-2.263c-2.535-9.483-4.778-19.859-1.89-29.245
		c-19.088-8.876-3.166-28.283-11.804-42.183c-6.924-11.143-27.691-11.918-40.139-21.562c-1.867,12.473,5.717,23.316,10.143,33.292"
		/>
	<path d="M4340.651,645c-14.741,10.607-19.302,34.105-16.851,50.039c-30.246,13.927-97.083,4.739-130.847,3.658
		c-1.087-2.631-3.599-13.307-3.644-15.84c29.82-0.878,62.57,4.518,92.052-3.551c27.022-7.395,33.644-29.922,57.137-39.655
		c-4.252,4.384-5.068,10.631-7.847,15.349"/>
	<path d="M5833.696,694.583c-25.024,2.331-64.899,13.493-86.542,29.699c20.597-0.599,40.001-6.137,60.413-8.704
		c22.966-2.888,34.734,9.376,54.406,2.782c-2.205-15.523,24.443-22.407,8.635-30.021c-10.17-4.898-31.901,4.862-44.411,1.743"/>
	<path d="M5892.193,520.592c-20.201-1.553-86.575-6.242-98.841,11.7c24.888,1.285,59.206-3.826,81.401,10.907
		c13.694,9.091,16.904,17.434,33.182,23.856c12.638,4.986,27.429,9.224,38.397,17.542c-7.061-22.246-7.884-43.909-9.368-66.779
		c-17.77-1.119-45.713,1.372-62.771,5.773"/>
	<g id="Layer_3">
		<path fill="#D80000" d="M5346.651,685c-16.64,59.313-54.119,145.525,18.481,179.313c88.021,40.965,217.674,29.798,286.185,108.763
			c88.925,102.495-192.344,129.162-236.186,132.941c-269.761,23.252-546.501,20.27-816.884,12.293
			c-41.737-1.231-488.598-7.044-435.264-115.322c33.465-67.941,167.038-69.104,230.409-75.428
			c71.976-7.184,134.163-42.098,201.854-64.915c89.177-30.059,171.572-26.207,263.799-18.752
			c94.914,7.673,194.854,3.436,279.859-44.185c60.767-34.041,106.146-84.11,172.3-109.964c17.357-6.784,35.103-12.612,52.795-18.45
			c-8.169,10.169-18.09,19.363-27.349,27.705"/>
		<g id="Layer_3_copy">
			<path fill="#8E0C0C" d="M5651.317,973.076c-68.511-78.965-198.164-67.798-286.185-108.763
				c-69.965-32.562-37.7-113.807-20.372-172.748c6.72-6.295,13.424-13.031,19.239-20.271c-17.692,5.838-35.438,11.666-52.795,18.45
				c-66.154,25.854-111.533,75.923-172.3,109.964c-85.005,47.62-184.945,51.857-279.859,44.185
				c-92.227-7.455-174.622-11.307-263.799,18.752c-67.691,22.817-129.877,57.731-201.854,64.915
				c-63.371,6.324-196.944,7.486-230.409,75.428c-5.565,11.298-5.667,21.476-1.37,30.654c2.766-3.537,5.69-6.89,8.708-10.017
				c26.535-27.497,62.585-44.104,97.624-57.713c35.195-13.671,73.791-11.56,110.882-15.235c16.761-3.014,33.199-7.965,49.85-11.51
				c19.287-4.104,38.677-7.681,58.099-11.08c18.651-3.266,36.865-7.318,54.861-13.287c17.779-5.896,35.201-12.761,52.7-19.429
				c18.323-6.981,36.709-13.81,55.795-18.428c23.584-5.707,47.749-9.154,71.865-11.644c39.323-4.059,78.889-3.783,118.364-3.035
				c78.369,1.483,156.942,1.653,234.862-7.878c16.28-2.436,32.734-5.41,49.209-6.628c5.193-1.994,10.402-3.949,15.578-5.967
				c10.63-5.098,20.479-11.364,29.983-18.35c15.462-12.295,30.644-25.024,47.186-35.835c0.314-0.205,0.638-0.386,0.954-0.584
				c9.867-17.655,25.965-31.372,38.583-46.951c8.085-9.982,67.145-56.058,77.503-49.99c8.771,5.138-27.924,60.291-27.997,70.496
				c-0.12,16.739-9.633,46.797,6.183,81.146s35.506,37.268,37.284,38.656c1.208,0.931,105.234,28.537,142.408,50.527
				c23.327,13.799,42.681,30.859,58.371,52.912c15.518,21.811,26.697,52.848,17.232,79.526c-2.406,6.782-5.235,13.638-8.899,19.963
				C5634.623,1064.189,5701.189,1030.559,5651.317,973.076z"/>
		</g>
		<path fill="#28010D" d="M3910.231,665.821c3.824,2.722,7.97,4.68,12.342,6.083c34.25-1.453,67.716-6.167,89.667-9.084
			L3910.231,665.821z"/>
		<path fill="#28010D" d="M4097.185,847.772c-9.086-66.926-10.286-164.074-88.233-175.561c-26.133-3.852-60.402,8.028-86.377-0.308
			c-39.7,1.684-80.452-1.018-105.542-15.995c-41.42-24.726-22.062-84.562-69.115-108.392c-37.445-18.964-85.123-4.896-120.006-31
			c-35.418-26.505-56.313-82.9-68.814-123.309c-14.614-47.235-19.052-95.639-17.947-145.146
			c0.807-36.181-12.689-98.708,0.383-129.184c16.641-38.796,86.411-107.44,120.494-130.786
			c16.676-11.423,87.74-18.667,84.462-41.436c-6.358-44.156-131.472-24.839-158.22-23.537
			c-70.906,3.453-141.991-16.124-214.426-11.063c-66.51,4.647-135.785,8.212-202.353,1.332
			c51.413,26.233,86.771,85.569,110.449,136.801c10.592,22.92,31.563,46.862,39.352,70.407c10.438,31.552-5.152,54.904,0.903,88.225
			c7.42,40.826,40.209,43.639,83.464,34.185c7.347,44.906,34.189,88.207,54.602,127.364c12.331,23.657,36.916,73.743,32.477,105.987
			c-34.908,0.424-37.574,21.799-39.004,50.925c-60.995,12.022-74.801,88.486-101.695,131.32
			c-30.924,49.251-95.898,11.312-149.571,22.248c-65.323,13.311-65.653,92.568-134.109,104.251
			c-27.479,4.689-49.333,0.689-78.493,6.629c-15.254,3.107-23.555,11.196-39.109,11.794c-16.482,0.633-28.527-12.054-45.561-7.016
			c-24.863,7.354-61.739,52.012-79.997,69.574c-18.272,17.577-7.53,19.457-31.29,27.031c-10.247,3.268-31.628-2.291-44.348,0.429
			c3.363-37.966-36.848-33.287-61.87-45.911c-34.942-17.63-63.988-38.425-78.127-74.891c-19.399-50.032-23.256-116.9-22.916-169.63
			c-73.206,0.539-104.14-70.479-82.771-134.004c21.13-62.812,35.081-74.047-16.266-120.784
			c-72.661-66.137,2.764-97.398,52.222-149.548c51.551-54.358,103.926-104.244,158.324-156.909
			c62.707-60.709,152.482-85.033,224.205-135.268c-55.519,1.752-110.377,10.33-165.962,14.868
			c-49.754,4.063-96.94-0.918-146.164,7.819c-66.723,11.844-129.564,24.261-196.526,6.974
			c-46.322-11.958-89.149-36.501-136.894-38.484c-33.694-1.399-67.795,1.023-101.987,3.706c-0.291,8.956-0.473,17.919-0.473,26.897
			c0,20.113-0.015,40.23-0.031,60.348c7.771,7.711,15.322,15.618,22.545,23.782c8.625,9.75,16.883,19.874,24.233,30.629
			c11.894,17.407,24.699,34.93,35.218,53.427c2.722,4.787,5.632,9.741,7.605,14.896c9.159,23.929,19.866,49.315,24.216,75.12
			c3.678,21.822,6.115,43.926,7.671,66.042c14.831,11.488,26.903,23.104,32.291,33.873c12.12,24.22,10.082,58.467,21.293,85.049
			c11.845,28.082,18.275,49.417,21.69,80.271c1.584,14.313,8.627,35.539,3.675,49.51c-6.92,19.526-21.492,16.492-30.184,29.793
			c-16.683,25.527-11.462,63.676,35.06,48.145c12.165,26.093,8.581,55.262,31.752,74.231c24.668,20.196,60.614,7.343,44.729,57.889
			c-15.782,50.217-41.476,11.636-73.469,29.457c-28.748,16.014-13.523,57.494-33.951,81.001c-2.75,3.165-5.743,6.238-8.903,9.237
			c-4.375,11.114-9.279,22.038-14.532,32.71c-12.39,25.173-30.833,48.515-47.343,70.677c1.974,53.188,3.93,106.377,4.352,159.604
			c0.029,3.694,0.106,7.39,0.213,11.084c22.398-0.21,44.837,0.262,67.338,1.802c97.865,6.697,195.66,11.436,293.54,17.535
			c320.342,19.965,643.012-4.646,962.489,19.269c160.68,12.027,331.921,37.857,492.947,19.646
			C4108.171,1057.319,4111.496,953.196,4097.185,847.772z"/>
		<path fill="#330314" d="M2488.089,539.809c9.613,34.509,19.215,67.726,30.681,98.626c53.821-10.06,45.338-18.728,47.269,37.931
			c1.283,37.654,17.369,67.551,28.837,96.727c16.592,42.213,22.001,43.547,64.521,68.393c9.653,5.64,30.772,17.727,40.86,25.261
			c16.241,12.128,15.723,28.256,27.102,37.954c36.161,30.818,58.006,8.092,77.486,63.854
			c-55.625-9.898-87.499-38.285-130.807-72.677c-21.164-16.806-42.774-30.754-65.714-45.122
			c-5.714-3.578-28.195-12.42-31.335-16.563c-7.91-10.436-1.799-29.885-8.947-39.24c-16.472-21.56-42.985-15.801-73.43-14.596
			c-1.869,2.261-4.827,9.469-5.846,11.238c-1.604-4.531-3.496-15.723-3.38-20.223c26.382-9.852,39.618-3.479,50.671-30.151
			c7.049-17.011,0.244-53.362-0.418-71.955c-38.677-8.138-43.605-61.786-50.098-93.144c11.624,9.753,19.461,25.62,20.548,38.695"/>
		<path fill="#330314" d="M2893.129,923.847c62.722-89.565,50.671-98.459,135.855-112.94c43.896-7.463,47.687-18.036,79.114,17.064
			c-89.186-24.344-125.284,22.096-187.523,71.564c-1.227-23.579,20.493-46.53,35.561-62.697"/>
		<polygon fill="#330314" points="3397.18,203.775 3451.185,221.777 3475.188,308.785 3559.196,497.805 3538.193,533.808 
			3478.188,368.792 		"/>
		<path fill="#1E0101" d="M4057.599,1038.52c-26.262-92.337-106.27-187.881-177.969-248.789
			c-10.075,9.156-19.438,18.941-23.917,31.652c-31.493,1.042-60.923-0.539-91.964,0.977c-14.439,28.971-59.163,65.527-94.104,36.868
			c-18.161-14.897-7.271-60.534-5.618-81.53c2.458-31.227,7.127-65.782-0.165-96.713c-11.625-49.306-18.58-18.666-65.363-38.114
			c1.898,16.125-5.43,16.11-10.123,28.652c-22.979-15.041-52.309-13.784-71.264-27.629c-20.164-14.728-28.231-57.463-29.913-82.176
			c-4.306,45.61-6.685,109.608,31.553,135.443c23.446,15.842,136.624,54.969,70.446,99.466c-13.415-9.662-14.439-3.574-27.216-3.134
			c0.08-0.038,0.194-0.17,0.297-0.251c-27.313,13.529-39.797,38.688-64.644,51.063c-27.727,13.81-66.434-5.815-76.385,33.476
			c-26.027-26.933-80.133-62.179-114.506-76.585c-43.584-18.265-99.199,7.466-142.99-14.311
			c-3.752,3.557-10.732,14.608-12.302,19.353c24.155,7.981,45.872,24.675,71.697,27.914c12.897,1.618,30.349-6.743,42.051-3.446
			c13.398,3.775,15.007,15.207,24.252,19.163c14.243,6.095,68.091,14.103,76.474,25.853c19.835,27.802-17.863,64.515,13.001,98.678
			c-59.946,4.386-500.374,102.192-397.001-68.837c-36.414,12.644-58.054,51.109-96.398,54.761
			c-37.109,3.534-58.985-25.921-64.93,29.067c-41.927,3.882-45.603-1.047-81.762-16.051c-35.936-14.911-52.101-6.733-79.484-35.966
			c-20.347-21.721-37.306-46.242-57.234-68.103c-19.723-21.635-68.985-114.124-95.564-50.888
			c34.056-2.605,66.352,52.103,87.922,74.883c104.186,110.029-70.819,86.647-139.003,82.476
			c-34.468-2.108-95.813,23.487-117.44-16.847c-18.519-34.538,31.446-96.991,39.188-132.996
			c-15.652,26.424-39.455,43.925-64.559,60.091c-10.711,16.887-23.196,32.975-34.749,48.482
			c1.975,53.187,3.933,106.374,4.354,159.601c0.043,5.518,0.19,11.035,0.394,16.553c223.938-4.427,447.937,12.109,671.996,7.232
			c226.67-4.933,451.062-33.562,678.007-21.68C3698.833,1099.642,4096.06,1173.742,4057.599,1038.52z"/>
		<path fill="#330314" d="M3436.186,590.813c-35.151,78.888-26.657,101.658-100.251,112.729c-31.561,4.748-62.9-0.725-88.459,17.021
			c44.403-7.543,91.29-0.425,133.727-10.472c54.074-12.801,29.664-55.059,69.676-88.608c-4.217-2.732-20.992-9.028-25.113-9.893
			c-6.107,4.714-17.555,9.693-22.582,15.227"/>
		<path fill="#330314" d="M2408.194,510.291c2.929-29.844,5.962-45.305,2.745-75.881c-6.766-64.303,6.402-106.216-45.654-154.381
			c-7.404-6.85-15.505-12.708-23.84-18.206l-33.372-40.046c-2.184-2.949,11.005,14.985,25.664,35.079
			c-13.71-8.669-27.662-16.896-39.888-27.357c0.109,1.082,0.203,2.165,0.307,3.248c15.702,18.502,44.841,45.221,62.818,56.157
			c5.616,7.823,9.891,13.88,11.414,16.273c41.929,48.387,51.918,181.342,15.148,237.045c9.737,12.276,14.507,26.438,18.215,42.353
			C2416.935,562.396,2405.774,534.949,2408.194,510.291z"/>
		<path fill="#330314" d="M2500.092,155.77c-19.443,30.683-41.93,67.616-69.238,88.512c-9.175,16.441-1.686,33.529,6.317,51.526
			c10.335-45.384,83.634-99.631,71.991-141.751c-30.62,18.712-59.104,66.556-84.078,91.723"/>
		<path fill="#330314" d="M3739.216,581.813c10.973,28.845,21.87,57.718,32.691,86.619c42.853,39.249,91.918,43.847,147.039,31.012
			c-22.951,57.558-127.066,47.204-160.97,5.601c-37.79-46.374-5.836-115.444-87.469-129.819c23.029-29.62,52.03,1.119,80.325-8.029
			c-1.828,32.653,15.973,57.199,24.387,86.625"/>
	</g>
</g>
<g id="EX_x5F_Foreground">
	<path d="M5922.651,805c-81.74,29.083-176.991,1.954-261.651,16.303c-9.142,19.586-4.573,44.329-13.246,63.399
		c-13.753,30.243-37.359,20.095-64.702,29.682c-31.538,11.058-12.894,25.176-26.701,47.595
		c-12.958,21.039-46.324,18.034-69.68,19.902c-24.784,1.983-48.673,1.531-73.717,0.816c-1.134-28.105,3.813-27.438-21.675-33.607
		c-15.27-3.697-35.181-4.047-51.212-6.154c-29.355-3.86-57.433-2.213-87.121-1.633c-7.851,24.421,5.558,56.565-8.472,77.336
		c-15.237,22.558-51.736,29.252-69.627,52.582c-11.967,15.604-28.255,62.202-10.404,79.702c8.698,8.527,29.65,4.376,40.232,4.156
		c50.286-1.044,100.571-6.147,150.836-8.188c104.179-4.229,206.772-1.333,309.874,14.214c64.694,9.755,129.281,7.065,194.027,14
		c29.038,3.11,54.668,13.953,82.936,19.678c-14.504-85.685-33.799-168.015-34.086-256.193c-0.14-42.629,31.028-92.022,10.389-133.59
		"/>
	<path d="M4336.651,1101c0,0-34-48-46-96s-20-182-20-182l-24,8c0,0-38-90-40-164s-68-94-70-188s6-238,98-338s158-118,246-138
		s88-56,88-56c-178.869,1.667-357.739,3.795-536.611,4.961c-32.434,0.211-68.689-3.661-100.296,2.875
		c16.554,37.6,46.919,68.111,61.621,108.728c15.049,41.577,22.903,86.102,20.618,130.355
		c-4.222,81.737,31.458,159.474,28.413,241.111c-3.039,81.477-20.453,165.917-45.537,243.809
		c-17.438,54.154-38.911,115.745-48.724,171.449c-10.853,61.604,1.72,121.253,2.198,182.766c0.176,22.648,0.186,45.3,0.32,67.946
		H4336.651z"/>
	<path fill="#D80000" d="M4116.651,423c2.508,0.481,5.165-0.134,7.698,0.302c1.349,36.76-8.332,79.584,0.298,114.824
		c7.296,29.792,35.832,49.165,44.716,87.217c5.492,23.522,3.79,41.657,2.082,65.401c10.505-1.838,15.302-10.764,15.207-20.029
		c7.906,28.408,2.296,64.956,8.058,94.485c5.709,29.257,28.561,48.538,26.244,81.505c15.284,3.34,27.805,12.964,41.349,20.644
		c3.656,82.34,4.094,185.949,47.647,259.349c-43.723-18.758-60.098-80.703-69.236-125.649
		c-9.419-46.329-24.137-82.974-40.561-126.566c-22.466-59.633-29.221-125.974-43.049-186.893
		c-5.669-24.977,3.628-50.54-2.455-75.416c-6.121-25.029-29.619-32.841-37.481-55.368c-7.805-22.36,0.441-57.377-0.213-81.035
		c-0.521-18.839-15.133-54.412-0.146-68.023c2.254,5.752,5.599,7.592,7.843,13.253"/>
	<path fill="#D62300" d="M4152.651,255c-3.031-33.5,28.224-54.352,31.801-83.594c-4.679,0.701-10.943-1.729-15.602-0.708
		c0.034-18.428,39.53-48.062,52.191-63.019c18.765-22.165,38.155-34.126,62.995-48.149c55.749-31.472,100.428-64.393,165.402-70.736
		c10.626-1.038,33.894-0.925,42.914-7.03c9.983-6.758,13.157-25.452,24.093-34.262c-19.526-8.824-25.939,2.855-42.421,8.711
		c-19.991,7.103-40.981,5.978-61.066,12.713c-44.383,14.885-87.706,35.256-127.07,60.66c-34.925,22.538-81.296,41.781-106.291,76.19
		c-5.307,7.306-29.955,36.346-30.972,43.093c-1.837,12.186,11.349,17.662,9.84,31.83c-1.351,12.68-13.303,30.158-15.627,45.426
		c-2.4,15.77-4.256,30.508-3.884,46.572c17.083,1.38,14.893-19.029,17.698-31.698"/>
	<path fill="#D80000" d="M4104.651,881c2.031-1.977,2.705-4.555,5.602-5.794c1.814,15.308,0.355,31.86-5.402,45.381
		c3.429-0.337,6.075-0.477,9.545-1.342c-0.2,18.348-23.532,25.168-15.049,42.271c6.762,13.635,29.992,7.155,40.344,14.183
		c25.698,17.446,19.728,83.962,29.15,114.593c-35.76-30.826-10.129-76.294-55.799-101.245
		c-12.709-6.943-35.775-12.655-36.574-29.751c-0.513-10.983,15.745-31.437,17.973-45.319c3.004-18.717-0.979-43.135,24.211-46.977"
		/>
	<path fill="#D80000" d="M5202.651,1133c-7.805-37.829,20.228-53.335,36.644-83.511c17.42-32.022,20.073-55.923,21.755-92.329
		c8.044,17.65,13.525,30.592,15.904,51.537c23.487,0.838,52.815-3.592,71.879,0.199c-26.341,14.555-62.398-1.626-85.188,15.39
		c-13.362,9.977-43.004,61.843-19.288,67.009c0.46,1.001-0.326,4.779,0.59,5.363c9.079,3.479,18.887,2.978,27.402-1.355
		c-6.153,14.773-22.406,7.436-34.12,13.496c-13.743,7.111-9.725,21.13-31.577,22.201"/>
	<path fill="#D80000" d="M5442.651,1005c38.645,0,83.988,3.642,119.651-8.349c0.488-11.516-1.21-24.528,1.731-35.59
		c3.029-11.391,12.833-14.216,12.92-27.713c10.099-2.758,20.969-3.27,31.491-1.943c-12.053,13.083-40.8,55.574-6.05,60
		c0.338,2.794-0.874,12.341-2.054,15.292c-27.013,4.718-54.423,2.649-81.642,7.169c-22.1,3.669-54.766,15.298-66.049-10.866"/>
	<g>
		<path d="M4041.992,1005.083c2.806-34.084,39.349-101.376,25.421-132.627c-11-24.679-30.602-16.606-55.77-18.441
			c-58.287-4.248-89.729-8.344-140.789,27.408c-42.059,29.449-61.041,54.813-112.033,68.477
			c-58.375,15.642-96.909-9.911-129.041-57.206c-24.504-36.065-58.154-93.571-67.98-136.347c-7.145-31.099-3.17-61.259-10.34-90.525
			c33.502-46.065,73.092-102.614,113.889-141.844c39.825-38.296,119.984-57.017,113.995-113.728
			c-2.872-27.199-8.687-33.249-5.687-61.997c2.822-27.047,6.956-53.037,13.204-79.474c11.007-46.573,21.309-97.924,48.767-137.921
			c16.588-24.162,27.535-27.372,52.113-39.799c54.418-27.517,67.947-46.032,100.498-103.305l-15.002,9
			c2.494-15.187,4.115-29,2.547-44.481c-25.082-14.47-71.373,5.812-99.541,7.83c-38.801,2.78-88.959-12.295-124.168-6.132
			c-36.605,6.408-40.175,41.882-56.404,69.115c-20.528,34.443-41.813,59.796-45.407,102.378
			c-2.599,30.786,9.665,59.685,6.352,90.526c-3.753,6.241-15.206,14.591-22.188,16.367c-27.505-12.406-8.161-29.737-14.283-51.153
			c-6.908-24.167-18.491-30.158-34.787-47.687c-52.426-56.395-82.868-139.421-140.55-188.251
			c-37.706-31.919-63.1-9.786-112.572-3.524c-49.972,6.325-95.433-1.604-144.159,16.008
			c10.034,67.619,98.373,129.329,151.972,161.732c65.035,39.317,99.088,103.703,144.014,163.03
			c16.723,22.082,42.605,45.858,51.742,72.351c10.967,31.798-3.344,62.057-4.047,94.453c-0.792,36.509,6.517,59.776-9.873,94.173
			c-17.548,36.825-51.534,66.021-65.994,104.297c-13.283,35.162-3.705,71.629-24.694,104.586
			c-28.677,45.025-55.54,56.528-52.472,117.23c-28.669-5.049-44.888-18.502-73.726-17.812c-21.774,0.521-55.206,5.335-76.871,10.167
			c-46.25,10.313-25.78,16.019-56.618-6.585c-14.154-10.376-29.588-14.349-37.764-33.071c-0.961,20.621,4.623,54.584-8.969,73.421
			c-7.642,10.59-21.051,17.135-37.403,21.035c-20.797-37.547-40.919-75.323-41.751-115.458c-6.006,0.938-14.025-1.928-20.025-0.918
			c-0.748-54.226-35.139-28.686-60.131-51.199c-18.842-16.975-12.935-57.481-11.043-77.612c1.303-13.869,8.086-23.762,7.929-38.127
			c-0.162-14.83-11.402-31.602-9.905-49.229c2.315-27.273,15.4-44.632,28.451-68.662c20.07-36.951,59.779-116.708,43.145-159.114
			c-8.357-21.306-29.778-29.306-37.822-52.387c-9.436-27.074-18.251-60.296-26.926-87.666
			c-17.375-54.816,1.734-126.77-3.158-184.623c0-5.837,0-42.007,0-72.151c-150.356-2.988-298.703-5.178-448.444-23.728
			c-58.935-7.301-118.701-6.804-178.225-12.001c7.465-4.301,15.021-8.749,22.69-13.457
			c-81.989-21.765-176.177-60.095-258.848-57.672c-79.667,2.334-160.005,4.127-238.146-9.001
			c-103.971-17.467-1794.024-16.557-1891.28-0.027C-64.148-38.552-68.136,146.956-60.289,267.559
			c11.742,180.457,20.333,359.776,20.945,540.676c0.223,66.1-23.029,332.487,46.321,376.648
			c43.828,27.909,1713.073-5.711,1758.874-13.357c92.844-15.5,190.059-4.389,284.685-16.794
			c148.206-19.431,301.483-95.547,451.303-97.428c26.498,14.958,59.047,23.646,93.545,28.657c0.452,5.904,0.925,11.741,1.237,17.38
			c33.116,9.027,68.398,6.371,103.192,3.54c28.161-2.291,55.857-8.078,83.493-14.359c5.571,0.076,10.907,0.202,15.963,0.4
			c107.424,4.221,215.514-11.625,322.566,2.367c110.798,14.481,208.08-1.681,319.76-8.403
			c103.383-6.223,197.741,30.254,297.814,39.72c55.735,5.271,110.478,9.781,166.297,12.473
			c39.373,1.898,108.342,19.716,132.988-23.01C4054.55,1088.568,4039.477,1035.635,4041.992,1005.083z M2181.29,14.907
			c6.337-6.546,13.831-11.173,21.629-15.393l-37.199,42.16C2171.001,32.767,2173.508,22.946,2181.29,14.907z M2308.812,701.087
			c-89.962-39.26-162.424-81.793-161.422-190.489c0.318-34.485,21.859-91.333-5.763-115.487
			c-16.212-14.177-35.817,0.444-53.013-21.556c-11.025-14.105-15.491-49.057-17.997-66.011
			c-15.008-101.545,71.986-225.608,139.438-311.793c0.74-0.385,1.479-0.771,2.219-1.158c31.903,12.566,66.04,20.157,100.661,29.824
			c77.229,21.564,132.12,60.347,196.748,105.371c85.534,59.587,182.634,65.486,243.662,155.663
			c23.699,35.019,47.212,70.323,58.725,111.379c10.946,39.032,13.037,72.688,36.314,107.485
			c22.077,33.005,52.396,53.675,45.194,97.089c-7.085,42.709-42.5,76.528-49.384,121.109c-6.293,40.759,8.995,89.902-15.138,126.62
			c-9.348,14.223-22.103,23.372-36.561,29.237c-35.308-42.476-70.676-85.342-110.197-125.311
			c5.606,42.289,58.787,120.899,10.056,142.997c-24.127,10.941-66.628-3.698-93.045-1.797c-19.496,1.402-38.5,6.205-57.758,9.498
			c-2.783-2.071-5.452-4.361-7.935-7.046c-13.941-15.07-14.654-39.494-27.521-55.683c-26.727-33.624-69.067-27.039-100.82-54.234
			C2369.113,755.824,2354.383,720.975,2308.812,701.087z"/>
		<path d="M2956.136-81.254c0,4.902,0,21.654,0,40.863c0.368,0.007,0.737,0.015,1.105,0.022L2956.136-81.254z"/>
		<path d="M3099.83-32.699c-33.146,8.353-71.615-6.176-105.396-6.904c-12.414-0.268-24.81-0.519-37.194-0.766l1.895,70.126
			C2974.398-23.389,3065.532-0.725,3099.83-32.699z"/>
	</g>
</g>
</svg>
